<svg width="397" height="264" viewBox="0 0 397 264" fill="none" xmlns="http://www.w3.org/2000/svg">
<path d="M380.248 1.96023L16.7602 1.0383C8.42068 1.01715 1.6438 7.4493 1.62362 15.4049L1.03674 246.794C1.01656 254.75 7.76072 261.216 16.1002 261.237L379.588 262.159C387.928 262.18 394.705 255.748 394.725 247.793L395.312 16.4034C395.332 8.44782 388.588 1.98138 380.248 1.96023Z" fill="white" stroke="#503A95" stroke-width="2" stroke-linecap="round" stroke-linejoin="round"/>
<path d="M23.4884 24.6929C23.4884 24.1729 23.5804 23.6649 23.7644 23.1689C23.9484 22.6649 24.2164 22.2089 24.5684 21.8009C24.9284 21.3849 25.3644 21.0569 25.8764 20.8169C26.3884 20.5689 26.9684 20.4449 27.6164 20.4449C28.3844 20.4449 29.0484 20.6209 29.6084 20.9729C30.1684 21.3169 30.5844 21.7609 30.8564 22.3049L29.8004 23.0129C29.6404 22.6689 29.4364 22.3969 29.1884 22.1969C28.9484 21.9969 28.6844 21.8569 28.3964 21.7769C28.1164 21.6969 27.8404 21.6569 27.5684 21.6569C27.1204 21.6569 26.7284 21.7489 26.3924 21.9329C26.0564 22.1089 25.7724 22.3449 25.5404 22.6409C25.3164 22.9369 25.1444 23.2689 25.0244 23.6369C24.9124 24.0049 24.8564 24.3729 24.8564 24.7409C24.8564 25.1489 24.9244 25.5449 25.0604 25.9289C25.1964 26.3049 25.3844 26.6409 25.6244 26.9369C25.8724 27.2249 26.1644 27.4529 26.5004 27.6209C26.8364 27.7889 27.2044 27.8729 27.6044 27.8729C27.8764 27.8729 28.1604 27.8249 28.4564 27.7289C28.7524 27.6329 29.0244 27.4849 29.2724 27.2849C29.5284 27.0769 29.7284 26.8049 29.8724 26.4689L30.9884 27.1049C30.8124 27.5289 30.5364 27.8889 30.1604 28.1849C29.7924 28.4809 29.3764 28.7049 28.9124 28.8569C28.4564 29.0089 28.0044 29.0849 27.5564 29.0849C26.9564 29.0849 26.4084 28.9609 25.9124 28.7129C25.4164 28.4569 24.9884 28.1209 24.6284 27.7049C24.2684 27.2809 23.9884 26.8089 23.7884 26.2889C23.5884 25.7609 23.4884 25.2289 23.4884 24.6929ZM35.666 29.0729C35.05 29.0729 34.494 28.9529 33.998 28.7129C33.502 28.4729 33.074 28.1489 32.714 27.7409C32.354 27.3249 32.074 26.8609 31.874 26.3489C31.682 25.8289 31.586 25.2969 31.586 24.7529C31.586 24.1849 31.69 23.6449 31.898 23.1329C32.106 22.6129 32.394 22.1529 32.762 21.7529C33.13 21.3449 33.562 21.0249 34.058 20.7929C34.562 20.5529 35.106 20.4329 35.69 20.4329C36.298 20.4329 36.85 20.5569 37.346 20.8049C37.85 21.0529 38.278 21.3849 38.63 21.8009C38.99 22.2169 39.266 22.6809 39.458 23.1929C39.658 23.7049 39.758 24.2289 39.758 24.7649C39.758 25.3329 39.654 25.8769 39.446 26.3969C39.246 26.9089 38.962 27.3689 38.594 27.7769C38.226 28.1769 37.79 28.4929 37.286 28.7249C36.79 28.9569 36.25 29.0729 35.666 29.0729ZM32.954 24.7529C32.954 25.1529 33.018 25.5409 33.146 25.9169C33.274 26.2929 33.454 26.6289 33.686 26.9249C33.926 27.2129 34.214 27.4409 34.55 27.6089C34.886 27.7769 35.262 27.8609 35.678 27.8609C36.11 27.8609 36.494 27.7729 36.83 27.5969C37.166 27.4209 37.446 27.1849 37.67 26.8889C37.902 26.5849 38.078 26.2489 38.198 25.8809C38.318 25.5049 38.378 25.1289 38.378 24.7529C38.378 24.3529 38.314 23.9689 38.186 23.6009C38.066 23.2249 37.886 22.8929 37.646 22.6049C37.406 22.3089 37.118 22.0769 36.782 21.9089C36.454 21.7409 36.086 21.6569 35.678 21.6569C35.246 21.6569 34.862 21.7449 34.526 21.9209C34.19 22.0969 33.906 22.3329 33.674 22.6289C33.442 22.9249 33.262 23.2569 33.134 23.6249C33.014 23.9929 32.954 24.3689 32.954 24.7529ZM48.3135 29.0129V22.9409L45.8055 27.5489H45.0135L42.4935 22.9409V29.0129H41.1495V20.4929H42.5895L45.4095 25.7009L48.2295 20.4929H49.6695V29.0129H48.3135ZM51.5909 29.0129V20.4929H55.1669C55.5509 20.4929 55.9029 20.5729 56.2229 20.7329C56.5429 20.8929 56.8229 21.1049 57.0629 21.3689C57.3029 21.6329 57.4869 21.9289 57.6149 22.2569C57.7429 22.5849 57.8069 22.9209 57.8069 23.2649C57.8069 23.7369 57.6989 24.1889 57.4829 24.6209C57.2749 25.0449 56.9749 25.3889 56.5829 25.6529C56.1989 25.9169 55.7509 26.0489 55.2389 26.0489H52.9349V29.0129H51.5909ZM52.9349 24.8609H55.1549C55.4109 24.8609 55.6349 24.7929 55.8269 24.6569C56.0189 24.5129 56.1669 24.3209 56.2709 24.0809C56.3829 23.8409 56.4389 23.5689 56.4389 23.2649C56.4389 22.9529 56.3749 22.6769 56.2469 22.4369C56.1189 22.1969 55.9509 22.0129 55.7429 21.8849C55.5429 21.7489 55.3229 21.6809 55.0829 21.6809H52.9349V24.8609ZM64.9114 27.8249V29.0129H59.0674V20.4929H64.8034V21.6809H60.4114V24.1049H64.2154V25.2209H60.4114V27.8249H64.9114ZM72.5499 21.6809H69.7179V29.0129H68.3619V21.6809H65.5179V20.4929H72.5499V21.6809ZM73.6924 29.0129V20.4929H75.0364V29.0129H73.6924ZM76.962 29.0129V20.4929H79.986C80.906 20.4929 81.674 20.6849 82.29 21.0689C82.906 21.4449 83.366 21.9569 83.67 22.6049C83.982 23.2449 84.138 23.9569 84.138 24.7409C84.138 25.6049 83.966 26.3569 83.622 26.9969C83.286 27.6369 82.806 28.1329 82.182 28.4849C81.558 28.8369 80.826 29.0129 79.986 29.0129H76.962ZM82.77 24.7409C82.77 24.1409 82.658 23.6129 82.434 23.1569C82.218 22.6929 81.902 22.3329 81.486 22.0769C81.078 21.8129 80.578 21.6809 79.986 21.6809H78.306V27.8249H79.986C80.586 27.8249 81.09 27.6889 81.498 27.4169C81.914 27.1449 82.23 26.7769 82.446 26.3129C82.662 25.8489 82.77 25.3249 82.77 24.7409ZM89.0918 29.0729C88.4758 29.0729 87.9198 28.9529 87.4238 28.7129C86.9278 28.4729 86.4998 28.1489 86.1398 27.7409C85.7798 27.3249 85.4998 26.8609 85.2998 26.3489C85.1078 25.8289 85.0118 25.2969 85.0118 24.7529C85.0118 24.1849 85.1158 23.6449 85.3238 23.1329C85.5318 22.6129 85.8198 22.1529 86.1878 21.7529C86.5558 21.3449 86.9878 21.0249 87.4838 20.7929C87.9878 20.5529 88.5318 20.4329 89.1158 20.4329C89.7238 20.4329 90.2758 20.5569 90.7718 20.8049C91.2758 21.0529 91.7038 21.3849 92.0558 21.8009C92.4158 22.2169 92.6918 22.6809 92.8838 23.1929C93.0838 23.7049 93.1838 24.2289 93.1838 24.7649C93.1838 25.3329 93.0798 25.8769 92.8718 26.3969C92.6718 26.9089 92.3878 27.3689 92.0198 27.7769C91.6518 28.1769 91.2158 28.4929 90.7118 28.7249C90.2158 28.9569 89.6758 29.0729 89.0918 29.0729ZM86.3798 24.7529C86.3798 25.1529 86.4438 25.5409 86.5718 25.9169C86.6998 26.2929 86.8798 26.6289 87.1118 26.9249C87.3518 27.2129 87.6398 27.4409 87.9758 27.6089C88.3118 27.7769 88.6878 27.8609 89.1038 27.8609C89.5358 27.8609 89.9198 27.7729 90.2558 27.5969C90.5918 27.4209 90.8718 27.1849 91.0958 26.8889C91.3278 26.5849 91.5038 26.2489 91.6238 25.8809C91.7438 25.5049 91.8038 25.1289 91.8038 24.7529C91.8038 24.3529 91.7398 23.9689 91.6118 23.6009C91.4918 23.2249 91.3118 22.8929 91.0718 22.6049C90.8318 22.3089 90.5438 22.0769 90.2078 21.9089C89.8798 21.7409 89.5118 21.6569 89.1038 21.6569C88.6718 21.6569 88.2878 21.7449 87.9518 21.9209C87.6158 22.0969 87.3318 22.3329 87.0998 22.6289C86.8678 22.9249 86.6878 23.2569 86.5598 23.6249C86.4398 23.9929 86.3798 24.3689 86.3798 24.7529ZM94.5752 29.0129V20.4929H98.2832C98.6672 20.4929 99.0192 20.5729 99.3392 20.7329C99.6592 20.8929 99.9352 21.1049 100.167 21.3689C100.407 21.6329 100.591 21.9289 100.719 22.2569C100.855 22.5849 100.923 22.9209 100.923 23.2649C100.923 23.6409 100.855 24.0009 100.719 24.3449C100.583 24.6889 100.387 24.9849 100.131 25.2329C99.8832 25.4809 99.5912 25.6609 99.2552 25.7729L101.259 29.0129H99.7472L97.8992 26.0489H95.9192V29.0129H94.5752ZM95.9192 24.8609H98.2712C98.5192 24.8609 98.7392 24.7889 98.9312 24.6449C99.1232 24.5009 99.2752 24.3089 99.3872 24.0689C99.4992 23.8209 99.5552 23.5529 99.5552 23.2649C99.5552 22.9689 99.4912 22.7049 99.3632 22.4729C99.2352 22.2329 99.0672 22.0409 98.8592 21.8969C98.6592 21.7529 98.4392 21.6809 98.1992 21.6809H95.9192V24.8609Z" fill="#503A95"/>
<rect x="18.0684" y="41.0129" width="100" height="60" rx="6" fill="#DCD6F0"/>
<rect x="18.0684" y="111.013" width="100" height="60" rx="6" fill="#DCD6F0"/>
<rect x="18.0684" y="180.013" width="100" height="60" rx="6" fill="#DCD6F0"/>
<path d="M112.879 27.7259V29.0129H107.913V27.7259H109.759V23.1889C109.681 23.2929 109.56 23.4013 109.395 23.5139C109.231 23.6266 109.044 23.7349 108.836 23.8389C108.637 23.9343 108.433 24.0123 108.225 24.0729C108.017 24.1336 107.827 24.1639 107.653 24.1639V22.8249C107.827 22.8249 108.026 22.7729 108.251 22.6689C108.477 22.5649 108.698 22.4436 108.914 22.3049C109.14 22.1576 109.33 22.0189 109.486 21.8889C109.642 21.7503 109.733 21.6506 109.759 21.5899H111.228V27.7259H112.879Z" fill="#503A95"/>
<path d="M154.488 24.6929C154.488 24.1729 154.58 23.6649 154.764 23.1689C154.948 22.6649 155.216 22.2089 155.568 21.8009C155.928 21.3849 156.364 21.0569 156.876 20.8169C157.388 20.5689 157.968 20.4449 158.616 20.4449C159.384 20.4449 160.048 20.6209 160.608 20.9729C161.168 21.3169 161.584 21.7609 161.856 22.3049L160.8 23.0129C160.64 22.6689 160.436 22.3969 160.188 22.1969C159.948 21.9969 159.684 21.8569 159.396 21.7769C159.116 21.6969 158.84 21.6569 158.568 21.6569C158.12 21.6569 157.728 21.7489 157.392 21.9329C157.056 22.1089 156.772 22.3449 156.54 22.6409C156.316 22.9369 156.144 23.2689 156.024 23.6369C155.912 24.0049 155.856 24.3729 155.856 24.7409C155.856 25.1489 155.924 25.5449 156.06 25.9289C156.196 26.3049 156.384 26.6409 156.624 26.9369C156.872 27.2249 157.164 27.4529 157.5 27.6209C157.836 27.7889 158.204 27.8729 158.604 27.8729C158.876 27.8729 159.16 27.8249 159.456 27.7289C159.752 27.6329 160.024 27.4849 160.272 27.2849C160.528 27.0769 160.728 26.8049 160.872 26.4689L161.988 27.1049C161.812 27.5289 161.536 27.8889 161.16 28.1849C160.792 28.4809 160.376 28.7049 159.912 28.8569C159.456 29.0089 159.004 29.0849 158.556 29.0849C157.956 29.0849 157.408 28.9609 156.912 28.7129C156.416 28.4569 155.988 28.1209 155.628 27.7049C155.268 27.2809 154.988 26.8089 154.788 26.2889C154.588 25.7609 154.488 25.2289 154.488 24.6929ZM166.666 29.0729C166.05 29.0729 165.494 28.9529 164.998 28.7129C164.502 28.4729 164.074 28.1489 163.714 27.7409C163.354 27.3249 163.074 26.8609 162.874 26.3489C162.682 25.8289 162.586 25.2969 162.586 24.7529C162.586 24.1849 162.69 23.6449 162.898 23.1329C163.106 22.6129 163.394 22.1529 163.762 21.7529C164.13 21.3449 164.562 21.0249 165.058 20.7929C165.562 20.5529 166.106 20.4329 166.69 20.4329C167.298 20.4329 167.85 20.5569 168.346 20.8049C168.85 21.0529 169.278 21.3849 169.63 21.8009C169.99 22.2169 170.266 22.6809 170.458 23.1929C170.658 23.7049 170.758 24.2289 170.758 24.7649C170.758 25.3329 170.654 25.8769 170.446 26.3969C170.246 26.9089 169.962 27.3689 169.594 27.7769C169.226 28.1769 168.79 28.4929 168.286 28.7249C167.79 28.9569 167.25 29.0729 166.666 29.0729ZM163.954 24.7529C163.954 25.1529 164.018 25.5409 164.146 25.9169C164.274 26.2929 164.454 26.6289 164.686 26.9249C164.926 27.2129 165.214 27.4409 165.55 27.6089C165.886 27.7769 166.262 27.8609 166.678 27.8609C167.11 27.8609 167.494 27.7729 167.83 27.5969C168.166 27.4209 168.446 27.1849 168.67 26.8889C168.902 26.5849 169.078 26.2489 169.198 25.8809C169.318 25.5049 169.378 25.1289 169.378 24.7529C169.378 24.3529 169.314 23.9689 169.186 23.6009C169.066 23.2249 168.886 22.8929 168.646 22.6049C168.406 22.3089 168.118 22.0769 167.782 21.9089C167.454 21.7409 167.086 21.6569 166.678 21.6569C166.246 21.6569 165.862 21.7449 165.526 21.9209C165.19 22.0969 164.906 22.3329 164.674 22.6289C164.442 22.9249 164.262 23.2569 164.134 23.6249C164.014 23.9929 163.954 24.3689 163.954 24.7529ZM179.313 29.0129V22.9409L176.805 27.5489H176.013L173.493 22.9409V29.0129H172.149V20.4929H173.589L176.409 25.7009L179.229 20.4929H180.669V29.0129H179.313ZM182.591 29.0129V20.4929H186.167C186.551 20.4929 186.903 20.5729 187.223 20.7329C187.543 20.8929 187.823 21.1049 188.063 21.3689C188.303 21.6329 188.487 21.9289 188.615 22.2569C188.743 22.5849 188.807 22.9209 188.807 23.2649C188.807 23.7369 188.699 24.1889 188.483 24.6209C188.275 25.0449 187.975 25.3889 187.583 25.6529C187.199 25.9169 186.751 26.0489 186.239 26.0489H183.935V29.0129H182.591ZM183.935 24.8609H186.155C186.411 24.8609 186.635 24.7929 186.827 24.6569C187.019 24.5129 187.167 24.3209 187.271 24.0809C187.383 23.8409 187.439 23.5689 187.439 23.2649C187.439 22.9529 187.375 22.6769 187.247 22.4369C187.119 22.1969 186.951 22.0129 186.743 21.8849C186.543 21.7489 186.323 21.6809 186.083 21.6809H183.935V24.8609ZM195.911 27.8249V29.0129H190.067V20.4929H195.803V21.6809H191.411V24.1049H195.215V25.2209H191.411V27.8249H195.911ZM203.55 21.6809H200.718V29.0129H199.362V21.6809H196.518V20.4929H203.55V21.6809ZM204.692 29.0129V20.4929H206.036V29.0129H204.692ZM207.962 29.0129V20.4929H210.986C211.906 20.4929 212.674 20.6849 213.29 21.0689C213.906 21.4449 214.366 21.9569 214.67 22.6049C214.982 23.2449 215.138 23.9569 215.138 24.7409C215.138 25.6049 214.966 26.3569 214.622 26.9969C214.286 27.6369 213.806 28.1329 213.182 28.4849C212.558 28.8369 211.826 29.0129 210.986 29.0129H207.962ZM213.77 24.7409C213.77 24.1409 213.658 23.6129 213.434 23.1569C213.218 22.6929 212.902 22.3329 212.486 22.0769C212.078 21.8129 211.578 21.6809 210.986 21.6809H209.306V27.8249H210.986C211.586 27.8249 212.09 27.6889 212.498 27.4169C212.914 27.1449 213.23 26.7769 213.446 26.3129C213.662 25.8489 213.77 25.3249 213.77 24.7409ZM220.092 29.0729C219.476 29.0729 218.92 28.9529 218.424 28.7129C217.928 28.4729 217.5 28.1489 217.14 27.7409C216.78 27.3249 216.5 26.8609 216.3 26.3489C216.108 25.8289 216.012 25.2969 216.012 24.7529C216.012 24.1849 216.116 23.6449 216.324 23.1329C216.532 22.6129 216.82 22.1529 217.188 21.7529C217.556 21.3449 217.988 21.0249 218.484 20.7929C218.988 20.5529 219.532 20.4329 220.116 20.4329C220.724 20.4329 221.276 20.5569 221.772 20.8049C222.276 21.0529 222.704 21.3849 223.056 21.8009C223.416 22.2169 223.692 22.6809 223.884 23.1929C224.084 23.7049 224.184 24.2289 224.184 24.7649C224.184 25.3329 224.08 25.8769 223.872 26.3969C223.672 26.9089 223.388 27.3689 223.02 27.7769C222.652 28.1769 222.216 28.4929 221.712 28.7249C221.216 28.9569 220.676 29.0729 220.092 29.0729ZM217.38 24.7529C217.38 25.1529 217.444 25.5409 217.572 25.9169C217.7 26.2929 217.88 26.6289 218.112 26.9249C218.352 27.2129 218.64 27.4409 218.976 27.6089C219.312 27.7769 219.688 27.8609 220.104 27.8609C220.536 27.8609 220.92 27.7729 221.256 27.5969C221.592 27.4209 221.872 27.1849 222.096 26.8889C222.328 26.5849 222.504 26.2489 222.624 25.8809C222.744 25.5049 222.804 25.1289 222.804 24.7529C222.804 24.3529 222.74 23.9689 222.612 23.6009C222.492 23.2249 222.312 22.8929 222.072 22.6049C221.832 22.3089 221.544 22.0769 221.208 21.9089C220.88 21.7409 220.512 21.6569 220.104 21.6569C219.672 21.6569 219.288 21.7449 218.952 21.9209C218.616 22.0969 218.332 22.3329 218.1 22.6289C217.868 22.9249 217.688 23.2569 217.56 23.6249C217.44 23.9929 217.38 24.3689 217.38 24.7529ZM225.575 29.0129V20.4929H229.283C229.667 20.4929 230.019 20.5729 230.339 20.7329C230.659 20.8929 230.935 21.1049 231.167 21.3689C231.407 21.6329 231.591 21.9289 231.719 22.2569C231.855 22.5849 231.923 22.9209 231.923 23.2649C231.923 23.6409 231.855 24.0009 231.719 24.3449C231.583 24.6889 231.387 24.9849 231.131 25.2329C230.883 25.4809 230.591 25.6609 230.255 25.7729L232.259 29.0129H230.747L228.899 26.0489H226.919V29.0129H225.575ZM226.919 24.8609H229.271C229.519 24.8609 229.739 24.7889 229.931 24.6449C230.123 24.5009 230.275 24.3089 230.387 24.0689C230.499 23.8209 230.555 23.5529 230.555 23.2649C230.555 22.9689 230.491 22.7049 230.363 22.4729C230.235 22.2329 230.067 22.0409 229.859 21.8969C229.659 21.7529 229.439 21.6809 229.199 21.6809H226.919V24.8609Z" fill="#503A95"/>
<rect x="149.068" y="41.0129" width="100" height="60" rx="6" fill="#DCD6F0"/>
<rect x="149.068" y="111.013" width="100" height="60" rx="6" fill="#DCD6F0"/>
<rect x="149.068" y="180.013" width="100" height="60" rx="6" fill="#DCD6F0"/>
<path d="M238.588 29.0129C238.588 28.6489 238.619 28.3153 238.679 28.0119C238.74 27.6999 238.844 27.4053 238.991 27.1279C239.147 26.8506 239.36 26.5906 239.628 26.3479C239.906 26.0966 240.257 25.8583 240.681 25.6329C240.985 25.4596 241.271 25.3079 241.539 25.1779C241.808 25.0393 242.046 24.9049 242.254 24.7749C242.462 24.6363 242.623 24.4889 242.735 24.3329C242.857 24.1769 242.917 23.9993 242.917 23.7999C242.917 23.6093 242.865 23.4316 242.761 23.2669C242.657 23.1023 242.501 22.9723 242.293 22.8769C242.085 22.7729 241.834 22.7209 241.539 22.7209C241.305 22.7209 241.089 22.7513 240.889 22.8119C240.699 22.8726 240.521 22.9549 240.356 23.0589C240.2 23.1543 240.057 23.2626 239.927 23.3839C239.797 23.4966 239.685 23.6093 239.589 23.7219L238.692 22.6949C238.779 22.5909 238.913 22.4739 239.095 22.3439C239.286 22.2053 239.511 22.0709 239.771 21.9409C240.04 21.8023 240.343 21.6896 240.681 21.6029C241.019 21.5076 241.388 21.4599 241.786 21.4599C242.35 21.4599 242.831 21.5553 243.229 21.7459C243.628 21.9279 243.931 22.1836 244.139 22.5129C244.356 22.8336 244.464 23.1976 244.464 23.6049C244.464 23.9256 244.399 24.2073 244.269 24.4499C244.148 24.6926 243.988 24.9093 243.788 25.0999C243.589 25.2819 243.377 25.4423 243.151 25.5809C242.935 25.7109 242.731 25.8279 242.54 25.9319C242.202 26.0966 241.908 26.2483 241.656 26.3869C241.414 26.5256 241.206 26.6643 241.032 26.8029C240.859 26.9329 240.716 27.0716 240.603 27.2189C240.491 27.3576 240.395 27.5266 240.317 27.7259H244.607V29.0129H238.588Z" fill="#503A95"/>
<path d="M285.488 24.6929C285.488 24.1729 285.58 23.6649 285.764 23.1689C285.948 22.6649 286.216 22.2089 286.568 21.8009C286.928 21.3849 287.364 21.0569 287.876 20.8169C288.388 20.5689 288.968 20.4449 289.616 20.4449C290.384 20.4449 291.048 20.6209 291.608 20.9729C292.168 21.3169 292.584 21.7609 292.856 22.3049L291.8 23.0129C291.64 22.6689 291.436 22.3969 291.188 22.1969C290.948 21.9969 290.684 21.8569 290.396 21.7769C290.116 21.6969 289.84 21.6569 289.568 21.6569C289.12 21.6569 288.728 21.7489 288.392 21.9329C288.056 22.1089 287.772 22.3449 287.54 22.6409C287.316 22.9369 287.144 23.2689 287.024 23.6369C286.912 24.0049 286.856 24.3729 286.856 24.7409C286.856 25.1489 286.924 25.5449 287.06 25.9289C287.196 26.3049 287.384 26.6409 287.624 26.9369C287.872 27.2249 288.164 27.4529 288.5 27.6209C288.836 27.7889 289.204 27.8729 289.604 27.8729C289.876 27.8729 290.16 27.8249 290.456 27.7289C290.752 27.6329 291.024 27.4849 291.272 27.2849C291.528 27.0769 291.728 26.8049 291.872 26.4689L292.988 27.1049C292.812 27.5289 292.536 27.8889 292.16 28.1849C291.792 28.4809 291.376 28.7049 290.912 28.8569C290.456 29.0089 290.004 29.0849 289.556 29.0849C288.956 29.0849 288.408 28.9609 287.912 28.7129C287.416 28.4569 286.988 28.1209 286.628 27.7049C286.268 27.2809 285.988 26.8089 285.788 26.2889C285.588 25.7609 285.488 25.2289 285.488 24.6929ZM297.666 29.0729C297.05 29.0729 296.494 28.9529 295.998 28.7129C295.502 28.4729 295.074 28.1489 294.714 27.7409C294.354 27.3249 294.074 26.8609 293.874 26.3489C293.682 25.8289 293.586 25.2969 293.586 24.7529C293.586 24.1849 293.69 23.6449 293.898 23.1329C294.106 22.6129 294.394 22.1529 294.762 21.7529C295.13 21.3449 295.562 21.0249 296.058 20.7929C296.562 20.5529 297.106 20.4329 297.69 20.4329C298.298 20.4329 298.85 20.5569 299.346 20.8049C299.85 21.0529 300.278 21.3849 300.63 21.8009C300.99 22.2169 301.266 22.6809 301.458 23.1929C301.658 23.7049 301.758 24.2289 301.758 24.7649C301.758 25.3329 301.654 25.8769 301.446 26.3969C301.246 26.9089 300.962 27.3689 300.594 27.7769C300.226 28.1769 299.79 28.4929 299.286 28.7249C298.79 28.9569 298.25 29.0729 297.666 29.0729ZM294.954 24.7529C294.954 25.1529 295.018 25.5409 295.146 25.9169C295.274 26.2929 295.454 26.6289 295.686 26.9249C295.926 27.2129 296.214 27.4409 296.55 27.6089C296.886 27.7769 297.262 27.8609 297.678 27.8609C298.11 27.8609 298.494 27.7729 298.83 27.5969C299.166 27.4209 299.446 27.1849 299.67 26.8889C299.902 26.5849 300.078 26.2489 300.198 25.8809C300.318 25.5049 300.378 25.1289 300.378 24.7529C300.378 24.3529 300.314 23.9689 300.186 23.6009C300.066 23.2249 299.886 22.8929 299.646 22.6049C299.406 22.3089 299.118 22.0769 298.782 21.9089C298.454 21.7409 298.086 21.6569 297.678 21.6569C297.246 21.6569 296.862 21.7449 296.526 21.9209C296.19 22.0969 295.906 22.3329 295.674 22.6289C295.442 22.9249 295.262 23.2569 295.134 23.6249C295.014 23.9929 294.954 24.3689 294.954 24.7529ZM310.313 29.0129V22.9409L307.805 27.5489H307.013L304.493 22.9409V29.0129H303.149V20.4929H304.589L307.409 25.7009L310.229 20.4929H311.669V29.0129H310.313ZM313.591 29.0129V20.4929H317.167C317.551 20.4929 317.903 20.5729 318.223 20.7329C318.543 20.8929 318.823 21.1049 319.063 21.3689C319.303 21.6329 319.487 21.9289 319.615 22.2569C319.743 22.5849 319.807 22.9209 319.807 23.2649C319.807 23.7369 319.699 24.1889 319.483 24.6209C319.275 25.0449 318.975 25.3889 318.583 25.6529C318.199 25.9169 317.751 26.0489 317.239 26.0489H314.935V29.0129H313.591ZM314.935 24.8609H317.155C317.411 24.8609 317.635 24.7929 317.827 24.6569C318.019 24.5129 318.167 24.3209 318.271 24.0809C318.383 23.8409 318.439 23.5689 318.439 23.2649C318.439 22.9529 318.375 22.6769 318.247 22.4369C318.119 22.1969 317.951 22.0129 317.743 21.8849C317.543 21.7489 317.323 21.6809 317.083 21.6809H314.935V24.8609ZM326.911 27.8249V29.0129H321.067V20.4929H326.803V21.6809H322.411V24.1049H326.215V25.2209H322.411V27.8249H326.911ZM334.55 21.6809H331.718V29.0129H330.362V21.6809H327.518V20.4929H334.55V21.6809ZM335.692 29.0129V20.4929H337.036V29.0129H335.692ZM338.962 29.0129V20.4929H341.986C342.906 20.4929 343.674 20.6849 344.29 21.0689C344.906 21.4449 345.366 21.9569 345.67 22.6049C345.982 23.2449 346.138 23.9569 346.138 24.7409C346.138 25.6049 345.966 26.3569 345.622 26.9969C345.286 27.6369 344.806 28.1329 344.182 28.4849C343.558 28.8369 342.826 29.0129 341.986 29.0129H338.962ZM344.77 24.7409C344.77 24.1409 344.658 23.6129 344.434 23.1569C344.218 22.6929 343.902 22.3329 343.486 22.0769C343.078 21.8129 342.578 21.6809 341.986 21.6809H340.306V27.8249H341.986C342.586 27.8249 343.09 27.6889 343.498 27.4169C343.914 27.1449 344.23 26.7769 344.446 26.3129C344.662 25.8489 344.77 25.3249 344.77 24.7409ZM351.092 29.0729C350.476 29.0729 349.92 28.9529 349.424 28.7129C348.928 28.4729 348.5 28.1489 348.14 27.7409C347.78 27.3249 347.5 26.8609 347.3 26.3489C347.108 25.8289 347.012 25.2969 347.012 24.7529C347.012 24.1849 347.116 23.6449 347.324 23.1329C347.532 22.6129 347.82 22.1529 348.188 21.7529C348.556 21.3449 348.988 21.0249 349.484 20.7929C349.988 20.5529 350.532 20.4329 351.116 20.4329C351.724 20.4329 352.276 20.5569 352.772 20.8049C353.276 21.0529 353.704 21.3849 354.056 21.8009C354.416 22.2169 354.692 22.6809 354.884 23.1929C355.084 23.7049 355.184 24.2289 355.184 24.7649C355.184 25.3329 355.08 25.8769 354.872 26.3969C354.672 26.9089 354.388 27.3689 354.02 27.7769C353.652 28.1769 353.216 28.4929 352.712 28.7249C352.216 28.9569 351.676 29.0729 351.092 29.0729ZM348.38 24.7529C348.38 25.1529 348.444 25.5409 348.572 25.9169C348.7 26.2929 348.88 26.6289 349.112 26.9249C349.352 27.2129 349.64 27.4409 349.976 27.6089C350.312 27.7769 350.688 27.8609 351.104 27.8609C351.536 27.8609 351.92 27.7729 352.256 27.5969C352.592 27.4209 352.872 27.1849 353.096 26.8889C353.328 26.5849 353.504 26.2489 353.624 25.8809C353.744 25.5049 353.804 25.1289 353.804 24.7529C353.804 24.3529 353.74 23.9689 353.612 23.6009C353.492 23.2249 353.312 22.8929 353.072 22.6049C352.832 22.3089 352.544 22.0769 352.208 21.9089C351.88 21.7409 351.512 21.6569 351.104 21.6569C350.672 21.6569 350.288 21.7449 349.952 21.9209C349.616 22.0969 349.332 22.3329 349.1 22.6289C348.868 22.9249 348.688 23.2569 348.56 23.6249C348.44 23.9929 348.38 24.3689 348.38 24.7529ZM356.575 29.0129V20.4929H360.283C360.667 20.4929 361.019 20.5729 361.339 20.7329C361.659 20.8929 361.935 21.1049 362.167 21.3689C362.407 21.6329 362.591 21.9289 362.719 22.2569C362.855 22.5849 362.923 22.9209 362.923 23.2649C362.923 23.6409 362.855 24.0009 362.719 24.3449C362.583 24.6889 362.387 24.9849 362.131 25.2329C361.883 25.4809 361.591 25.6609 361.255 25.7729L363.259 29.0129H361.747L359.899 26.0489H357.919V29.0129H356.575ZM357.919 24.8609H360.271C360.519 24.8609 360.739 24.7889 360.931 24.6449C361.123 24.5009 361.275 24.3089 361.387 24.0689C361.499 23.8209 361.555 23.5529 361.555 23.2649C361.555 22.9689 361.491 22.7049 361.363 22.4729C361.235 22.2329 361.067 22.0409 360.859 21.8969C360.659 21.7529 360.439 21.6809 360.199 21.6809H357.919V24.8609Z" fill="#503A95"/>
<rect x="280.068" y="41.0129" width="100" height="60" rx="6" fill="#DCD6F0"/>
<rect x="280.068" y="111.013" width="100" height="60" rx="6" fill="#DCD6F0"/>
<rect x="280.068" y="180.013" width="100" height="60" rx="6" fill="#DCD6F0"/>
<path d="M373.865 25.9449C374.229 26.0056 374.546 26.1443 374.814 26.3609C375.092 26.5689 375.304 26.8376 375.451 27.1669C375.599 27.4876 375.672 27.8516 375.672 28.2589C375.672 28.7963 375.538 29.2643 375.269 29.6629C375.009 30.0616 374.637 30.3693 374.151 30.5859C373.666 30.8113 373.094 30.9239 372.435 30.9239C371.777 30.9239 371.196 30.8069 370.693 30.5729C370.191 30.3476 369.788 30.0183 369.484 29.5849L370.355 28.5969C370.563 28.9089 370.832 29.1559 371.161 29.3379C371.491 29.5286 371.907 29.6239 372.409 29.6239C372.973 29.6239 373.41 29.5026 373.722 29.2599C374.034 29.0173 374.19 28.6533 374.19 28.1679C374.19 27.6653 374.017 27.2709 373.67 26.9849C373.332 26.6989 372.821 26.5559 372.136 26.5559H371.785V25.4379H372.175C372.756 25.4379 373.202 25.3036 373.514 25.0349C373.826 24.7576 373.982 24.4109 373.982 23.9949C373.982 23.7176 373.917 23.4923 373.787 23.3189C373.666 23.1369 373.493 23.0026 373.267 22.9159C373.042 22.8293 372.782 22.7859 372.487 22.7859C372.045 22.7859 371.655 22.8813 371.317 23.0719C370.979 23.2626 370.711 23.5356 370.511 23.8909L369.614 22.9159C369.788 22.6386 370.026 22.3959 370.329 22.1879C370.633 21.9799 370.979 21.8196 371.369 21.7069C371.768 21.5856 372.188 21.5249 372.63 21.5249C373.202 21.5249 373.705 21.6203 374.138 21.8109C374.572 22.0016 374.905 22.2703 375.139 22.6169C375.382 22.9636 375.503 23.3709 375.503 23.8389C375.503 24.1769 375.438 24.4976 375.308 24.8009C375.178 25.0956 374.988 25.3469 374.736 25.5549C374.485 25.7543 374.195 25.8843 373.865 25.9449Z" fill="#503A95"/>
<path d="M134.568 22.0129V238.013" stroke="#503A95" stroke-width="2" stroke-linecap="round"/>
<path d="M266.068 24.0129V240.013" stroke="#503A95" stroke-width="2" stroke-linecap="round"/>
</svg>
