<svg width="414" height="253" viewBox="0 0 414 253" fill="none" xmlns="http://www.w3.org/2000/svg">
<path d="M398.145 1.00821L16.4928 0.0402127C7.73655 0.0180038 0.622364 6.23736 0.602849 13.9315L0.0352538 237.717C0.0157388 245.411 7.09828 251.666 15.8546 251.689L397.507 252.657C406.263 252.679 413.378 246.459 413.397 238.765L413.965 14.98C413.984 7.28579 406.902 1.03042 398.145 1.00821Z" fill="#19888F"/>
<path d="M18.269 22.3545C18.269 16.7427 22.8183 12.1934 28.4302 12.1934H384.069C389.681 12.1934 394.23 16.7426 394.23 22.3545V50.8056C394.23 56.4174 389.681 60.9667 384.069 60.9667H28.4302C22.8183 60.9667 18.269 56.4174 18.269 50.8056V22.3545Z" fill="#A3E8EC"/>
<path d="M16.2368 79.2568C16.2368 73.645 20.7861 69.0957 26.3979 69.0957H382.037C387.649 69.0957 392.198 73.645 392.198 79.2568V107.708C392.198 113.32 387.649 117.869 382.037 117.869H26.3979C20.7861 117.869 16.2368 113.32 16.2368 107.708V79.2568Z" fill="#A3E8EC"/>
<path d="M18.269 136.159C18.269 130.547 22.8183 125.998 28.4302 125.998H384.069C389.681 125.998 394.23 130.547 394.23 136.159V164.61C394.23 170.222 389.681 174.771 384.069 174.771H28.4302C22.8183 174.771 18.269 170.222 18.269 164.61V136.159Z" fill="#A3E8EC"/>
<path d="M16.2368 193.061C16.2368 187.449 20.7861 182.9 26.3979 182.9H382.037C387.649 182.9 392.198 187.449 392.198 193.061V221.512C392.198 227.124 387.649 231.674 382.037 231.674H26.3979C20.7861 231.674 16.2368 227.124 16.2368 221.512V193.061Z" fill="#A3E8EC"/>
<path d="M27.4874 37.322V45.4834H25.6665V33.9404H27.1622L33.6979 42.2807V33.9567H35.535V45.4834H33.9417L27.4874 37.322Z" fill="#19888F"/>
<path d="M42.9258 45.5647C42.0912 45.5647 41.338 45.4022 40.666 45.077C39.994 44.7518 39.4141 44.3129 38.9264 43.7601C38.4386 43.1965 38.0593 42.5679 37.7883 41.8742C37.5282 41.1697 37.3981 40.4489 37.3981 39.7119C37.3981 38.9424 37.539 38.2108 37.8209 37.5171C38.1027 36.8126 38.4928 36.1894 38.9914 35.6475C39.49 35.0947 40.0753 34.6612 40.7473 34.3469C41.4301 34.0217 42.1671 33.8591 42.9583 33.8591C43.782 33.8591 44.5299 34.0271 45.2019 34.3631C45.8847 34.6991 46.4646 35.1489 46.9415 35.7125C47.4292 36.2761 47.8031 36.9047 48.0633 37.5984C48.3342 38.2921 48.4697 39.002 48.4697 39.7282C48.4697 40.4977 48.3288 41.2347 48.047 41.9392C47.776 42.6329 47.3913 43.2561 46.8927 43.8089C46.3941 44.3508 45.8034 44.7789 45.1206 45.0933C44.4486 45.4076 43.717 45.5647 42.9258 45.5647ZM39.2515 39.7119C39.2515 40.2539 39.3382 40.7795 39.5117 41.2889C39.6851 41.7983 39.9289 42.2536 40.2433 42.6546C40.5684 43.0448 40.9586 43.3537 41.4138 43.5813C41.869 43.8089 42.3784 43.9227 42.9421 43.9227C43.5273 43.9227 44.0476 43.8035 44.5028 43.565C44.958 43.3266 45.3374 43.0068 45.6408 42.6058C45.9552 42.1939 46.1936 41.7387 46.3562 41.2402C46.5188 40.7307 46.6001 40.2213 46.6001 39.7119C46.6001 39.17 46.5133 38.6498 46.3399 38.1512C46.1774 37.6418 45.9335 37.192 45.6083 36.8018C45.2832 36.4008 44.893 36.0864 44.4378 35.8588C43.9934 35.6312 43.4948 35.5174 42.9421 35.5174C42.3568 35.5174 41.8365 35.6366 41.3813 35.8751C40.9261 36.1135 40.5413 36.4333 40.227 36.8343C39.9127 37.2353 39.6688 37.6851 39.4954 38.1837C39.3328 38.6823 39.2515 39.1917 39.2515 39.7119ZM43.5761 32.7373L42.4055 32.3797L43.3322 30.5913H45.0393L43.5761 32.7373Z" fill="#19888F"/>
<path d="M57.1672 36.6555C57.0588 36.5362 56.9017 36.4116 56.6958 36.2815C56.4898 36.1406 56.246 36.0106 55.9642 35.8913C55.6824 35.7721 55.3789 35.6746 55.0537 35.5987C54.7286 35.5228 54.3926 35.4849 54.0457 35.4849C53.287 35.4849 52.7234 35.6258 52.3549 35.9076C51.9864 36.1894 51.8022 36.5796 51.8022 37.0782C51.8022 37.4467 51.9051 37.7393 52.1111 37.9561C52.317 38.162 52.6313 38.3354 53.054 38.4763C53.4767 38.6172 54.0078 38.769 54.6473 38.9316C55.4277 39.1158 56.1051 39.338 56.6795 39.5981C57.2539 39.8474 57.6929 40.1834 57.9964 40.6061C58.2999 41.0288 58.4516 41.587 58.4516 42.2807C58.4516 42.8659 58.3432 43.3699 58.1264 43.7926C57.9097 44.2153 57.6062 44.5622 57.216 44.8331C56.8258 45.0933 56.376 45.2883 55.8666 45.4184C55.3572 45.5376 54.8099 45.5972 54.2246 45.5972C53.6501 45.5972 53.0757 45.5376 52.5012 45.4184C51.9376 45.2992 51.3957 45.1258 50.8755 44.8982C50.3661 44.6597 49.8946 44.3725 49.461 44.0365L50.2902 42.4758C50.4311 42.6167 50.6316 42.7738 50.8917 42.9472C51.1627 43.1098 51.4716 43.267 51.8184 43.4187C52.1761 43.5704 52.5609 43.7005 52.9727 43.8089C53.3954 43.9064 53.8236 43.9552 54.2571 43.9552C54.9833 43.9552 55.536 43.8306 55.9154 43.5813C56.3056 43.3212 56.5007 42.9526 56.5007 42.4758C56.5007 42.0856 56.376 41.7767 56.1267 41.5491C55.8774 41.3106 55.5144 41.1101 55.0375 40.9475C54.5606 40.7849 53.9915 40.6224 53.3304 40.4598C52.5717 40.2539 51.9376 40.0317 51.4282 39.7932C50.9188 39.5439 50.5341 39.2296 50.2739 38.8503C50.0246 38.4601 49.9 37.9669 49.9 37.3708C49.9 36.6121 50.0843 35.9726 50.4528 35.4524C50.8213 34.9213 51.3199 34.5257 51.9485 34.2656C52.588 33.9946 53.3033 33.8591 54.0945 33.8591C54.6148 33.8591 55.1079 33.9187 55.574 34.038C56.04 34.1463 56.4736 34.2981 56.8746 34.4932C57.2865 34.6883 57.6604 34.9105 57.9964 35.1597L57.1672 36.6555Z" fill="#19888F"/>
<path d="M67.1194 33.9404H68.8427L73.3299 45.4834H71.4115L70.1921 42.3457H65.7375L64.5344 45.4834H62.5997L67.1194 33.9404ZM69.8345 40.9963L67.9811 35.9401L66.0627 40.9963H69.8345Z" fill="#19888F"/>
<path d="M73.5812 39.6306C73.5812 38.9261 73.7059 38.2379 73.9552 37.5659C74.2045 36.8831 74.5676 36.2653 75.0444 35.7125C75.5322 35.1489 76.1229 34.7045 76.8165 34.3794C77.5102 34.0434 78.296 33.8754 79.1739 33.8754C80.2144 33.8754 81.114 34.1138 81.8727 34.5907C82.6314 35.0568 83.195 35.6583 83.5635 36.3953L82.1328 37.3545C81.9161 36.8885 81.6397 36.52 81.3037 36.249C80.9785 35.9781 80.6209 35.7884 80.2307 35.68C79.8513 35.5716 79.4774 35.5174 79.1089 35.5174C78.5019 35.5174 77.9709 35.6421 77.5156 35.8913C77.0604 36.1298 76.6756 36.4495 76.3613 36.8506C76.0578 37.2516 75.8248 37.7014 75.6622 38.2C75.5105 38.6985 75.4346 39.1971 75.4346 39.6957C75.4346 40.2484 75.5268 40.7849 75.711 41.3052C75.8953 41.8146 76.15 42.2698 76.4751 42.6708C76.8111 43.061 77.2067 43.3699 77.6619 43.5975C78.1172 43.8251 78.6157 43.939 79.1577 43.939C79.5262 43.939 79.9109 43.8739 80.312 43.7439C80.713 43.6138 81.0815 43.4133 81.4175 43.1423C81.7643 42.8605 82.0353 42.492 82.2304 42.0368L83.7424 42.8985C83.5039 43.4729 83.13 43.9606 82.6206 44.3617C82.122 44.7627 81.5584 45.0662 80.9298 45.2721C80.312 45.478 79.6996 45.581 79.0926 45.581C78.2797 45.581 77.5373 45.413 76.8653 45.077C76.1933 44.7302 75.6135 44.2749 75.1257 43.7113C74.638 43.1369 74.2587 42.4974 73.9877 41.7929C73.7167 41.0776 73.5812 40.3568 73.5812 39.6306Z" fill="#19888F"/>
<path d="M85.4266 45.4834V33.9404H90.4502C90.9705 33.9404 91.4474 34.0488 91.8809 34.2656C92.3145 34.4823 92.6884 34.7696 93.0027 35.1272C93.3279 35.4849 93.5771 35.8859 93.7506 36.3303C93.9348 36.7747 94.0269 37.2299 94.0269 37.696C94.0269 38.2054 93.9348 38.6931 93.7506 39.1592C93.5663 39.6252 93.3008 40.0262 92.9539 40.3622C92.6179 40.6982 92.2223 40.9421 91.7671 41.0938L94.4822 45.4834H92.4337L89.93 41.4678H87.2474V45.4834H85.4266ZM87.2474 39.8582H90.434C90.77 39.8582 91.068 39.7607 91.3281 39.5656C91.5883 39.3705 91.7942 39.1104 91.9459 38.7852C92.0977 38.4492 92.1736 38.0861 92.1736 37.696C92.1736 37.2949 92.0868 36.9373 91.9134 36.6229C91.74 36.2978 91.5124 36.0377 91.2306 35.8426C90.9596 35.6475 90.6616 35.5499 90.3364 35.5499H87.2474V39.8582Z" fill="#19888F"/>
<path d="M104.093 43.8739V45.4834H96.1751V33.9404H103.946V35.5499H97.996V38.834H103.15V40.346H97.996V43.8739H104.093Z" fill="#19888F"/>
<path d="M105.971 45.4834V33.9404H110.068C111.314 33.9404 112.355 34.2005 113.19 34.7208C114.024 35.2302 114.647 35.9239 115.059 36.8018C115.482 37.6689 115.693 38.6335 115.693 39.6957C115.693 40.8662 115.46 41.8851 114.994 42.7521C114.539 43.6192 113.889 44.2912 113.043 44.7681C112.198 45.245 111.206 45.4834 110.068 45.4834H105.971ZM113.84 39.6957C113.84 38.8828 113.688 38.1674 113.385 37.5496C113.092 36.921 112.664 36.4333 112.1 36.0864C111.548 35.7288 110.87 35.5499 110.068 35.5499H107.792V43.8739H110.068C110.881 43.8739 111.564 43.6897 112.117 43.3212C112.68 42.9526 113.108 42.4541 113.401 41.8254C113.694 41.1968 113.84 40.4869 113.84 39.6957Z" fill="#19888F"/>
<path d="M117.609 45.4834V33.9404H119.43V45.4834H117.609Z" fill="#19888F"/>
<path d="M130.509 35.5499H126.672V45.4834H124.835V35.5499H120.982V33.9404H130.509V35.5499Z" fill="#19888F"/>
<path d="M134.31 33.9404H136.033L140.52 45.4834H138.602L137.383 42.3457H132.928L131.725 45.4834H129.79L134.31 33.9404ZM137.025 40.9963L135.171 35.9401L133.253 40.9963H137.025Z" fill="#19888F"/>
<path d="M151.654 45.4834V37.257L148.256 43.5H147.183L143.769 37.257V45.4834H141.948V33.9404H143.899L147.719 40.9963L151.54 33.9404H153.491V45.4834H151.654Z" fill="#19888F"/>
<path d="M160.89 45.5647C160.055 45.5647 159.302 45.4022 158.63 45.077C157.958 44.7518 157.378 44.3129 156.891 43.7601C156.403 43.1965 156.024 42.5679 155.753 41.8742C155.492 41.1697 155.362 40.4489 155.362 39.7119C155.362 38.9424 155.503 38.2108 155.785 37.5171C156.067 36.8126 156.457 36.1894 156.956 35.6475C157.454 35.0947 158.039 34.6612 158.711 34.3469C159.394 34.0217 160.131 33.8591 160.923 33.8591C161.746 33.8591 162.494 34.0271 163.166 34.3631C163.849 34.6991 164.429 35.1489 164.906 35.7125C165.393 36.2761 165.767 36.9047 166.027 37.5984C166.298 38.2921 166.434 39.002 166.434 39.7282C166.434 40.4977 166.293 41.2347 166.011 41.9392C165.74 42.6329 165.355 43.2561 164.857 43.8089C164.358 44.3508 163.768 44.7789 163.085 45.0933C162.413 45.4076 161.681 45.5647 160.89 45.5647ZM157.216 39.7119C157.216 40.2539 157.302 40.7795 157.476 41.2889C157.649 41.7983 157.893 42.2536 158.207 42.6546C158.533 43.0448 158.923 43.3537 159.378 43.5813C159.833 43.8089 160.343 43.9227 160.906 43.9227C161.492 43.9227 162.012 43.8035 162.467 43.565C162.922 43.3266 163.302 43.0068 163.605 42.6058C163.919 42.1939 164.158 41.7387 164.32 41.2402C164.483 40.7307 164.564 40.2213 164.564 39.7119C164.564 39.17 164.478 38.6498 164.304 38.1512C164.142 37.6418 163.898 37.192 163.573 36.8018C163.247 36.4008 162.857 36.0864 162.402 35.8588C161.958 35.6312 161.459 35.5174 160.906 35.5174C160.321 35.5174 159.801 35.6366 159.346 35.8751C158.89 36.1135 158.506 36.4333 158.191 36.8343C157.877 37.2353 157.633 37.6851 157.46 38.1837C157.297 38.6823 157.216 39.1917 157.216 39.7119Z" fill="#19888F"/>
<path d="M175.131 36.6555C175.023 36.5362 174.866 36.4116 174.66 36.2815C174.454 36.1406 174.21 36.0106 173.928 35.8913C173.647 35.7721 173.343 35.6746 173.018 35.5987C172.693 35.5228 172.357 35.4849 172.01 35.4849C171.251 35.4849 170.688 35.6258 170.319 35.9076C169.951 36.1894 169.766 36.5796 169.766 37.0782C169.766 37.4467 169.869 37.7393 170.075 37.9561C170.281 38.162 170.596 38.3354 171.018 38.4763C171.441 38.6172 171.972 38.769 172.611 38.9316C173.392 39.1158 174.069 39.338 174.644 39.5981C175.218 39.8474 175.657 40.1834 175.961 40.6061C176.264 41.0288 176.416 41.587 176.416 42.2807C176.416 42.8659 176.307 43.3699 176.091 43.7926C175.874 44.2153 175.57 44.5622 175.18 44.8331C174.79 45.0933 174.34 45.2883 173.831 45.4184C173.321 45.5376 172.774 45.5972 172.189 45.5972C171.614 45.5972 171.04 45.5376 170.465 45.4184C169.902 45.2992 169.36 45.1258 168.84 44.8982C168.33 44.6597 167.859 44.3725 167.425 44.0365L168.254 42.4758C168.395 42.6167 168.596 42.7738 168.856 42.9472C169.127 43.1098 169.436 43.267 169.783 43.4187C170.14 43.5704 170.525 43.7005 170.937 43.8089C171.36 43.9064 171.788 43.9552 172.221 43.9552C172.947 43.9552 173.5 43.8306 173.88 43.5813C174.27 43.3212 174.465 42.9526 174.465 42.4758C174.465 42.0856 174.34 41.7767 174.091 41.5491C173.842 41.3106 173.479 41.1101 173.002 40.9475C172.525 40.7849 171.956 40.6224 171.295 40.4598C170.536 40.2539 169.902 40.0317 169.392 39.7932C168.883 39.5439 168.498 39.2296 168.238 38.8503C167.989 38.4601 167.864 37.9669 167.864 37.3708C167.864 36.6121 168.048 35.9726 168.417 35.4524C168.785 34.9213 169.284 34.5257 169.913 34.2656C170.552 33.9946 171.268 33.8591 172.059 33.8591C172.579 33.8591 173.072 33.9187 173.538 34.038C174.004 34.1463 174.438 34.2981 174.839 34.4932C175.251 34.6883 175.625 34.9105 175.961 35.1597L175.131 36.6555Z" fill="#19888F"/>
<path d="M187.055 45.5647C186.22 45.5647 185.467 45.4022 184.795 45.077C184.123 44.741 183.543 44.2966 183.055 43.7439C182.568 43.1911 182.188 42.5679 181.917 41.8742C181.657 41.1697 181.527 40.4489 181.527 39.7119C181.527 38.9424 181.668 38.2108 181.95 37.5171C182.232 36.8126 182.622 36.1894 183.12 35.6475C183.619 35.0947 184.204 34.6612 184.876 34.3469C185.559 34.0217 186.296 33.8591 187.087 33.8591C187.911 33.8591 188.659 34.0271 189.331 34.3631C190.014 34.6991 190.594 35.1489 191.071 35.7125C191.558 36.2761 191.932 36.9047 192.192 37.5984C192.463 38.2921 192.599 39.002 192.599 39.7282C192.599 40.4977 192.458 41.2347 192.176 41.9392C191.905 42.6329 191.52 43.2561 191.022 43.8089C190.523 44.3508 189.933 44.7789 189.25 45.0933C188.578 45.4076 187.846 45.5647 187.055 45.5647ZM187.071 43.9227C187.656 43.9227 188.177 43.8035 188.632 43.565C189.087 43.3266 189.466 43.0068 189.77 42.6058C190.084 42.1939 190.323 41.7387 190.485 41.2402C190.648 40.7307 190.729 40.2213 190.729 39.7119C190.729 39.17 190.642 38.6443 190.469 38.1349C190.306 37.6255 190.063 37.1757 189.737 36.7855C189.412 36.3953 189.022 36.0864 188.567 35.8588C188.122 35.6204 187.624 35.5012 187.071 35.5012C186.486 35.5012 185.966 35.6204 185.51 35.8588C185.055 36.0973 184.67 36.4224 184.356 36.8343C184.042 37.2353 183.798 37.6851 183.624 38.1837C183.462 38.6823 183.381 39.1917 183.381 39.7119C183.381 40.2539 183.467 40.7795 183.641 41.2889C183.814 41.7983 184.058 42.2481 184.372 42.6383C184.698 43.0285 185.088 43.3428 185.543 43.5813C185.998 43.8089 186.508 43.9227 187.071 43.9227ZM187.299 41.4678H189.055L192.566 45.4834H190.81L187.299 41.4678Z" fill="#19888F"/>
<path d="M199.264 45.5647C198.343 45.5647 197.563 45.4076 196.923 45.0933C196.295 44.7789 195.785 44.3508 195.395 43.8089C195.016 43.267 194.734 42.6492 194.55 41.9555C194.376 41.2618 194.29 40.5411 194.29 39.7932V33.9404H196.11V39.7932C196.11 40.3243 196.165 40.8391 196.273 41.3377C196.381 41.8254 196.555 42.2644 196.793 42.6546C197.032 43.0448 197.351 43.3537 197.752 43.5813C198.164 43.8089 198.668 43.9227 199.264 43.9227C199.871 43.9227 200.375 43.8089 200.776 43.5813C201.188 43.3428 201.508 43.0285 201.736 42.6383C201.974 42.2373 202.148 41.7929 202.256 41.3052C202.364 40.8175 202.418 40.3135 202.418 39.7932V33.9404H204.256V39.7932C204.256 40.5844 204.158 41.3323 203.963 42.0368C203.779 42.7305 203.486 43.3428 203.085 43.8739C202.695 44.3942 202.185 44.806 201.557 45.1095C200.928 45.413 200.164 45.5647 199.264 45.5647Z" fill="#19888F"/>
<path d="M214.595 43.8739V45.4834H206.677V33.9404H214.448V35.5499H208.498V38.834H213.652V40.346H208.498V43.8739H214.595Z" fill="#19888F"/>
<path d="M216.164 45.4834V43.4024H217.644V45.4834H216.164Z" fill="#19888F"/>
<path d="M219.625 45.4834V43.4024H221.105V45.4834H219.625Z" fill="#19888F"/>
<path d="M223.087 45.4834V43.4024H224.566V45.4834H223.087Z" fill="#19888F"/>
<path d="M25.6665 102.386V90.8428H30.5113C31.0316 90.8428 31.5085 90.9511 31.942 91.1679C32.3756 91.3847 32.7549 91.6719 33.0801 92.0296C33.4052 92.3873 33.6545 92.7883 33.8279 93.2327C34.0013 93.677 34.088 94.1323 34.088 94.5983C34.088 95.2378 33.9417 95.8502 33.6491 96.4354C33.3673 97.0099 32.9608 97.4759 32.4297 97.8336C31.9095 98.1913 31.3025 98.3701 30.6089 98.3701H27.4874V102.386H25.6665ZM27.4874 96.7606H30.4951C30.8419 96.7606 31.1454 96.6685 31.4055 96.4842C31.6656 96.2891 31.8661 96.029 32.007 95.7038C32.1588 95.3787 32.2346 95.0102 32.2346 94.5983C32.2346 94.1756 32.1479 93.8017 31.9745 93.4765C31.8011 93.1514 31.5735 92.9021 31.2917 92.7287C31.0207 92.5444 30.7227 92.4523 30.3975 92.4523H27.4874V96.7606Z" fill="#19888F"/>
<path d="M38.3031 90.8428H40.0264L44.5136 102.386H42.5952L41.3758 99.248H36.9212L35.7181 102.386H33.7835L38.3031 90.8428ZM41.0182 97.8986L39.1648 92.8425L37.2464 97.8986H41.0182Z" fill="#19888F"/>
<path d="M45.9411 102.386V90.8428H50.9648C51.485 90.8428 51.9619 90.9511 52.3954 91.1679C52.829 91.3847 53.2029 91.6719 53.5172 92.0296C53.8424 92.3873 54.0917 92.7883 54.2651 93.2327C54.4493 93.677 54.5415 94.1323 54.5415 94.5983C54.5415 95.1077 54.4493 95.5955 54.2651 96.0615C54.0808 96.5276 53.8153 96.9286 53.4685 97.2646C53.1325 97.6006 52.7369 97.8444 52.2816 97.9962L54.9967 102.386H52.9482L50.4445 98.3701H47.762V102.386H45.9411ZM47.762 96.7606H50.9485C51.2845 96.7606 51.5826 96.6631 51.8427 96.468C52.1028 96.2729 52.3087 96.0127 52.4605 95.6876C52.6122 95.3516 52.6881 94.9885 52.6881 94.5983C52.6881 94.1973 52.6014 93.8396 52.428 93.5253C52.2545 93.2001 52.0269 92.94 51.7451 92.7449C51.4742 92.5498 51.1761 92.4523 50.851 92.4523H47.762V96.7606Z" fill="#19888F"/>
<path d="M60.0225 90.8428H61.7458L66.233 102.386H64.3146L63.0952 99.248H58.6406L57.4375 102.386H55.5028L60.0225 90.8428ZM62.7376 97.8986L60.8842 92.8425L58.9658 97.8986H62.7376Z" fill="#19888F"/>
<path d="M71.3452 90.8428L74.8243 100.158L78.2872 90.8428H80.2219L75.686 102.386H73.9627L69.4105 90.8428H71.3452Z" fill="#19888F"/>
<path d="M84.0281 90.8428H85.7515L90.2386 102.386H88.3202L87.1009 99.248H82.6462L81.4432 102.386H79.5085L84.0281 90.8428ZM86.7432 97.8986L84.8898 92.8425L82.9714 97.8986H86.7432Z" fill="#19888F"/>
<path d="M91.6661 102.386V90.8428H93.487V100.776H99.6812V102.386H91.6661Z" fill="#19888F"/>
<path d="M101.16 102.386V90.8428H102.981V102.386H101.16Z" fill="#19888F"/>
<path d="M105.59 102.386V90.8428H109.687C110.933 90.8428 111.974 91.1029 112.808 91.6231C113.643 92.1325 114.266 92.8262 114.678 93.7041C115.101 94.5712 115.312 95.5358 115.312 96.598C115.312 97.7686 115.079 98.7874 114.613 99.6545C114.158 100.522 113.508 101.194 112.662 101.67C111.817 102.147 110.825 102.386 109.687 102.386H105.59ZM113.459 96.598C113.459 95.7851 113.307 95.0698 113.004 94.452C112.711 93.8234 112.283 93.3356 111.719 92.9888C111.166 92.6311 110.489 92.4523 109.687 92.4523H107.411V100.776H109.687C110.5 100.776 111.183 100.592 111.735 100.224C112.299 99.855 112.727 99.3564 113.02 98.7278C113.312 98.0992 113.459 97.3892 113.459 96.598Z" fill="#19888F"/>
<path d="M120.132 90.8428H121.855L126.342 102.386H124.424L123.205 99.248H118.75L117.547 102.386H115.612L120.132 90.8428ZM122.847 97.8986L120.994 92.8425L119.075 97.8986H122.847Z" fill="#19888F"/>
<path d="M127.77 102.386V90.8428H132.794C133.314 90.8428 133.791 90.9511 134.224 91.1679C134.658 91.3847 135.032 91.6719 135.346 92.0296C135.671 92.3873 135.92 92.7883 136.094 93.2327C136.278 93.677 136.37 94.1323 136.37 94.5983C136.37 95.1077 136.278 95.5955 136.094 96.0615C135.91 96.5276 135.644 96.9286 135.297 97.2646C134.961 97.6006 134.566 97.8444 134.11 97.9962L136.825 102.386H134.777L132.273 98.3701H129.591V102.386H127.77ZM129.591 96.7606H132.777C133.113 96.7606 133.411 96.6631 133.671 96.468C133.932 96.2729 134.137 96.0127 134.289 95.6876C134.441 95.3516 134.517 94.9885 134.517 94.5983C134.517 94.1973 134.43 93.8396 134.257 93.5253C134.083 93.2001 133.856 92.94 133.574 92.7449C133.303 92.5498 133.005 92.4523 132.68 92.4523H129.591V96.7606Z" fill="#19888F"/>
<path d="M142.535 102.386V90.8428H144.356V102.386H142.535Z" fill="#19888F"/>
<path d="M153.793 93.5578C153.685 93.4386 153.528 93.3139 153.322 93.1839C153.116 93.043 152.872 92.9129 152.59 92.7937C152.308 92.6745 152.005 92.5769 151.68 92.5011C151.354 92.4252 151.018 92.3873 150.672 92.3873C149.913 92.3873 149.349 92.5282 148.981 92.81C148.612 93.0918 148.428 93.4819 148.428 93.9805C148.428 94.349 148.531 94.6417 148.737 94.8584C148.943 95.0644 149.257 95.2378 149.68 95.3787C150.103 95.5196 150.634 95.6713 151.273 95.8339C152.054 96.0182 152.731 96.2403 153.305 96.5005C153.88 96.7498 154.319 97.0858 154.622 97.5085C154.926 97.9312 155.077 98.4893 155.077 99.183C155.077 99.7683 154.969 100.272 154.752 100.695C154.536 101.118 154.232 101.465 153.842 101.735C153.452 101.996 153.002 102.191 152.492 102.321C151.983 102.44 151.436 102.5 150.85 102.5C150.276 102.5 149.702 102.44 149.127 102.321C148.564 102.202 148.022 102.028 147.501 101.801C146.992 101.562 146.52 101.275 146.087 100.939L146.916 99.3781C147.057 99.519 147.257 99.6762 147.518 99.8496C147.789 100.012 148.097 100.169 148.444 100.321C148.802 100.473 149.187 100.603 149.599 100.711C150.021 100.809 150.449 100.858 150.883 100.858C151.609 100.858 152.162 100.733 152.541 100.484C152.931 100.224 153.127 99.855 153.127 99.3781C153.127 98.9879 153.002 98.679 152.753 98.4514C152.503 98.213 152.14 98.0124 151.663 97.8499C151.186 97.6873 150.617 97.5247 149.956 97.3621C149.198 97.1562 148.564 96.934 148.054 96.6956C147.545 96.4463 147.16 96.132 146.9 95.7526C146.651 95.3624 146.526 94.8693 146.526 94.2732C146.526 93.5145 146.71 92.875 147.079 92.3547C147.447 91.8237 147.946 91.428 148.574 91.1679C149.214 90.897 149.929 90.7615 150.72 90.7615C151.241 90.7615 151.734 90.8211 152.2 90.9403C152.666 91.0487 153.099 91.2004 153.5 91.3955C153.912 91.5906 154.286 91.8128 154.622 92.0621L153.793 93.5578Z" fill="#19888F"/>
<path d="M163.732 93.5578C163.624 93.4386 163.466 93.3139 163.26 93.1839C163.055 93.043 162.811 92.9129 162.529 92.7937C162.247 92.6745 161.944 92.5769 161.618 92.5011C161.293 92.4252 160.957 92.3873 160.61 92.3873C159.852 92.3873 159.288 92.5282 158.92 92.81C158.551 93.0918 158.367 93.4819 158.367 93.9805C158.367 94.349 158.47 94.6417 158.676 94.8584C158.882 95.0644 159.196 95.2378 159.619 95.3787C160.041 95.5196 160.573 95.6713 161.212 95.8339C161.992 96.0182 162.67 96.2403 163.244 96.5005C163.819 96.7498 164.258 97.0858 164.561 97.5085C164.865 97.9312 165.016 98.4893 165.016 99.183C165.016 99.7683 164.908 100.272 164.691 100.695C164.474 101.118 164.171 101.465 163.781 101.735C163.391 101.996 162.941 102.191 162.431 102.321C161.922 102.44 161.375 102.5 160.789 102.5C160.215 102.5 159.64 102.44 159.066 102.321C158.502 102.202 157.96 102.028 157.44 101.801C156.931 101.562 156.459 101.275 156.026 100.939L156.855 99.3781C156.996 99.519 157.196 99.6762 157.456 99.8496C157.727 100.012 158.036 100.169 158.383 100.321C158.741 100.473 159.126 100.603 159.537 100.711C159.96 100.809 160.388 100.858 160.822 100.858C161.548 100.858 162.101 100.733 162.48 100.484C162.87 100.224 163.065 99.855 163.065 99.3781C163.065 98.9879 162.941 98.679 162.691 98.4514C162.442 98.213 162.079 98.0124 161.602 97.8499C161.125 97.6873 160.556 97.5247 159.895 97.3621C159.136 97.1562 158.502 96.934 157.993 96.6956C157.484 96.4463 157.099 96.132 156.839 95.7526C156.589 95.3624 156.465 94.8693 156.465 94.2732C156.465 93.5145 156.649 92.875 157.017 92.3547C157.386 91.8237 157.885 91.428 158.513 91.1679C159.153 90.897 159.868 90.7615 160.659 90.7615C161.179 90.7615 161.673 90.8211 162.139 90.9403C162.605 91.0487 163.038 91.2004 163.439 91.3955C163.851 91.5906 164.225 91.8128 164.561 92.0621L163.732 93.5578Z" fill="#19888F"/>
<path d="M171.639 102.467C170.804 102.467 170.051 102.305 169.379 101.979C168.707 101.654 168.127 101.215 167.639 100.662C167.151 100.099 166.772 99.4702 166.501 98.7766C166.241 98.0721 166.111 97.3513 166.111 96.6143C166.111 95.8447 166.252 95.1131 166.534 94.4195C166.815 93.715 167.206 93.0918 167.704 92.5498C168.203 91.9971 168.788 91.5635 169.46 91.2492C170.143 90.9241 170.88 90.7615 171.671 90.7615C172.495 90.7615 173.243 90.9295 173.915 91.2655C174.597 91.6015 175.177 92.0513 175.654 92.6149C176.142 93.1785 176.516 93.8071 176.776 94.5008C177.047 95.1944 177.182 95.9044 177.182 96.6305C177.182 97.4001 177.042 98.1371 176.76 98.8416C176.489 99.5353 176.104 100.158 175.605 100.711C175.107 101.253 174.516 101.681 173.833 101.996C173.161 102.31 172.43 102.467 171.639 102.467ZM167.964 96.6143C167.964 97.1562 168.051 97.6819 168.224 98.1913C168.398 98.7007 168.642 99.1559 168.956 99.5569C169.281 99.9471 169.671 100.256 170.127 100.484C170.582 100.711 171.091 100.825 171.655 100.825C172.24 100.825 172.76 100.706 173.216 100.467C173.671 100.229 174.05 99.9092 174.354 99.5082C174.668 99.0963 174.906 98.6411 175.069 98.1425C175.232 97.6331 175.313 97.1237 175.313 96.6143C175.313 96.0724 175.226 95.5521 175.053 95.0535C174.89 94.5441 174.646 94.0943 174.321 93.7041C173.996 93.3031 173.606 92.9888 173.151 92.7612C172.706 92.5336 172.208 92.4198 171.655 92.4198C171.07 92.4198 170.549 92.539 170.094 92.7774C169.639 93.0159 169.254 93.3356 168.94 93.7366C168.625 94.1377 168.382 94.5875 168.208 95.086C168.046 95.5846 167.964 96.094 167.964 96.6143Z" fill="#19888F"/>
<path d="M178.779 103.963L179.169 102.288H178.584V100.305H180.194V102.288L179.625 103.963H178.779Z" fill="#19888F"/>
<path d="M186.498 102.386V90.8428H188.319V102.386H186.498Z" fill="#19888F"/>
<path d="M190.928 102.386V90.8428H195.951C196.471 90.8428 196.948 90.9511 197.382 91.1679C197.815 91.3847 198.189 91.6719 198.504 92.0296C198.829 92.3873 199.078 92.7883 199.252 93.2327C199.436 93.677 199.528 94.1323 199.528 94.5983C199.528 95.1077 199.436 95.5955 199.252 96.0615C199.067 96.5276 198.802 96.9286 198.455 97.2646C198.119 97.6006 197.723 97.8444 197.268 97.9962L199.983 102.386H197.935L195.431 98.3701H192.748V102.386H190.928ZM192.748 96.7606H195.935C196.271 96.7606 196.569 96.6631 196.829 96.468C197.089 96.2729 197.295 96.0127 197.447 95.6876C197.599 95.3516 197.675 94.9885 197.675 94.5983C197.675 94.1973 197.588 93.8396 197.414 93.5253C197.241 93.2001 197.013 92.94 196.732 92.7449C196.461 92.5498 196.163 92.4523 195.837 92.4523H192.748V96.7606Z" fill="#19888F"/>
<path d="M209.594 100.776V102.386H201.676V90.8428H209.447V92.4523H203.497V95.7364H208.651V97.2483H203.497V100.776H209.594Z" fill="#19888F"/>
<path d="M221.178 102.386V94.1594L217.78 100.402H216.707L213.293 94.1594V102.386H211.472V90.8428H213.423L217.244 97.8986L221.064 90.8428H223.015V102.386H221.178Z" fill="#19888F"/>
<path d="M230.414 102.467C229.58 102.467 228.826 102.305 228.154 101.979C227.482 101.654 226.903 101.215 226.415 100.662C225.927 100.099 225.548 99.4702 225.277 98.7766C225.017 98.0721 224.887 97.3513 224.887 96.6143C224.887 95.8447 225.028 95.1131 225.309 94.4195C225.591 93.715 225.981 93.0918 226.48 92.5498C226.978 91.9971 227.564 91.5635 228.236 91.2492C228.919 90.9241 229.656 90.7615 230.447 90.7615C231.27 90.7615 232.018 90.9295 232.69 91.2655C233.373 91.6015 233.953 92.0513 234.43 92.6149C234.918 93.1785 235.292 93.8071 235.552 94.5008C235.823 95.1944 235.958 95.9044 235.958 96.6305C235.958 97.4001 235.817 98.1371 235.535 98.8416C235.264 99.5353 234.88 100.158 234.381 100.711C233.883 101.253 233.292 101.681 232.609 101.996C231.937 102.31 231.205 102.467 230.414 102.467ZM226.74 96.6143C226.74 97.1562 226.827 97.6819 227 98.1913C227.174 98.7007 227.417 99.1559 227.732 99.5569C228.057 99.9471 228.447 100.256 228.902 100.484C229.358 100.711 229.867 100.825 230.431 100.825C231.016 100.825 231.536 100.706 231.991 100.467C232.446 100.229 232.826 99.9092 233.129 99.5082C233.444 99.0963 233.682 98.6411 233.845 98.1425C234.007 97.6331 234.089 97.1237 234.089 96.6143C234.089 96.0724 234.002 95.5521 233.828 95.0535C233.666 94.5441 233.422 94.0943 233.097 93.7041C232.772 93.3031 232.381 92.9888 231.926 92.7612C231.482 92.5336 230.983 92.4198 230.431 92.4198C229.845 92.4198 229.325 92.539 228.87 92.7774C228.415 93.0159 228.03 93.3356 227.715 93.7366C227.401 94.1377 227.157 94.5875 226.984 95.086C226.821 95.5846 226.74 96.094 226.74 96.6143Z" fill="#19888F"/>
<path d="M244.656 93.5578C244.547 93.4386 244.39 93.3139 244.184 93.1839C243.978 93.043 243.734 92.9129 243.453 92.7937C243.171 92.6745 242.867 92.5769 242.542 92.5011C242.217 92.4252 241.881 92.3873 241.534 92.3873C240.776 92.3873 240.212 92.5282 239.843 92.81C239.475 93.0918 239.291 93.4819 239.291 93.9805C239.291 94.349 239.394 94.6417 239.6 94.8584C239.805 95.0644 240.12 95.2378 240.542 95.3787C240.965 95.5196 241.496 95.6713 242.136 95.8339C242.916 96.0182 243.594 96.2403 244.168 96.5005C244.742 96.7498 245.181 97.0858 245.485 97.5085C245.788 97.9312 245.94 98.4893 245.94 99.183C245.94 99.7683 245.832 100.272 245.615 100.695C245.398 101.118 245.095 101.465 244.704 101.735C244.314 101.996 243.864 102.191 243.355 102.321C242.846 102.44 242.298 102.5 241.713 102.5C241.139 102.5 240.564 102.44 239.99 102.321C239.426 102.202 238.884 102.028 238.364 101.801C237.855 101.562 237.383 101.275 236.95 100.939L237.779 99.3781C237.92 99.519 238.12 99.6762 238.38 99.8496C238.651 100.012 238.96 100.169 239.307 100.321C239.665 100.473 240.049 100.603 240.461 100.711C240.884 100.809 241.312 100.858 241.746 100.858C242.472 100.858 243.025 100.733 243.404 100.484C243.794 100.224 243.989 99.855 243.989 99.3781C243.989 98.9879 243.864 98.679 243.615 98.4514C243.366 98.213 243.003 98.0124 242.526 97.8499C242.049 97.6873 241.48 97.5247 240.819 97.3621C240.06 97.1562 239.426 96.934 238.917 96.6956C238.407 96.4463 238.023 96.132 237.762 95.7526C237.513 95.3624 237.388 94.8693 237.388 94.2732C237.388 93.5145 237.573 92.875 237.941 92.3547C238.31 91.8237 238.808 91.428 239.437 91.1679C240.076 90.897 240.792 90.7615 241.583 90.7615C242.103 90.7615 242.596 90.8211 243.062 90.9403C243.528 91.0487 243.962 91.2004 244.363 91.3955C244.775 91.5906 245.149 91.8128 245.485 92.0621L244.656 93.5578Z" fill="#19888F"/>
<path d="M247.457 102.386V100.305H248.937V102.386H247.457Z" fill="#19888F"/>
<path d="M250.919 102.386V100.305H252.398V102.386H250.919Z" fill="#19888F"/>
<path d="M254.38 102.386V100.305H255.859V102.386H254.38Z" fill="#19888F"/>
<path d="M33.584 157.678V159.288H25.6665V147.745H33.4377V149.354H27.4874V152.638H32.6411V154.15H27.4874V157.678H33.584Z" fill="#19888F"/>
<path d="M39.6552 147.745L43.1344 157.061L46.5973 147.745H48.5319L43.996 159.288H42.2727L37.7205 147.745H39.6552Z" fill="#19888F"/>
<path d="M52.3382 147.745H54.0615L58.5486 159.288H56.6302L55.4109 156.15H50.9563L49.7532 159.288H47.8185L52.3382 147.745ZM55.0532 154.801L53.1998 149.745L51.2814 154.801H55.0532Z" fill="#19888F"/>
<path d="M69.682 159.288V151.061L66.2842 157.304H65.2112L61.797 151.061V159.288H59.9762V147.745H61.9271L65.7477 154.801L69.5682 147.745H71.5192V159.288H69.682Z" fill="#19888F"/>
<path d="M78.9184 159.369C78.0838 159.369 77.3305 159.207 76.6585 158.881C75.9866 158.556 75.4067 158.117 74.919 157.565C74.4312 157.001 74.0519 156.372 73.7809 155.679C73.5208 154.974 73.3907 154.253 73.3907 153.516C73.3907 152.747 73.5316 152.015 73.8134 151.322C74.0952 150.617 74.4854 149.994 74.984 149.452C75.4826 148.899 76.0678 148.466 76.7398 148.151C77.4227 147.826 78.1597 147.664 78.9509 147.664C79.7746 147.664 80.5225 147.832 81.1945 148.168C81.8773 148.504 82.4571 148.953 82.934 149.517C83.4218 150.081 83.7957 150.709 84.0558 151.403C84.3268 152.097 84.4623 152.806 84.4623 153.533C84.4623 154.302 84.3214 155.039 84.0396 155.744C83.7686 156.437 83.3838 157.061 82.8853 157.613C82.3867 158.155 81.796 158.583 81.1132 158.898C80.4412 159.212 79.7096 159.369 78.9184 159.369ZM75.2441 153.516C75.2441 154.058 75.3308 154.584 75.5042 155.093C75.6777 155.603 75.9215 156.058 76.2358 156.459C76.561 156.849 76.9512 157.158 77.4064 157.386C77.8616 157.613 78.371 157.727 78.9346 157.727C79.5199 157.727 80.0402 157.608 80.4954 157.369C80.9506 157.131 81.3299 156.811 81.6334 156.41C81.9477 155.998 82.1862 155.543 82.3488 155.045C82.5113 154.535 82.5926 154.026 82.5926 153.516C82.5926 152.974 82.5059 152.454 82.3325 151.956C82.1699 151.446 81.9261 150.996 81.6009 150.606C81.2758 150.205 80.8856 149.891 80.4303 149.663C79.986 149.436 79.4874 149.322 78.9346 149.322C78.3494 149.322 77.8291 149.441 77.3739 149.68C76.9187 149.918 76.5339 150.238 76.2196 150.639C75.9053 151.04 75.6614 151.49 75.488 151.988C75.3254 152.487 75.2441 152.996 75.2441 153.516Z" fill="#19888F"/>
<path d="M93.1598 150.46C93.0514 150.341 92.8943 150.216 92.6883 150.086C92.4824 149.945 92.2385 149.815 91.9567 149.696C91.6749 149.577 91.3715 149.479 91.0463 149.403C90.7211 149.327 90.3852 149.289 90.0383 149.289C89.2796 149.289 88.716 149.43 88.3475 149.712C87.979 149.994 87.7947 150.384 87.7947 150.883C87.7947 151.251 87.8977 151.544 88.1036 151.761C88.3096 151.966 88.6239 152.14 89.0466 152.281C89.4693 152.422 90.0004 152.573 90.6399 152.736C91.4202 152.92 92.0976 153.142 92.6721 153.403C93.2465 153.652 93.6855 153.988 93.989 154.411C94.2924 154.833 94.4442 155.391 94.4442 156.085C94.4442 156.67 94.3358 157.174 94.119 157.597C93.9023 158.02 93.5988 158.367 93.2086 158.638C92.8184 158.898 92.3686 159.093 91.8592 159.223C91.3498 159.342 90.8024 159.402 90.2172 159.402C89.6427 159.402 89.0683 159.342 88.4938 159.223C87.9302 159.104 87.3883 158.93 86.868 158.703C86.3586 158.464 85.8872 158.177 85.4536 157.841L86.2828 156.28C86.4237 156.421 86.6242 156.578 86.8843 156.752C87.1553 156.914 87.4642 157.071 87.811 157.223C88.1687 157.375 88.5534 157.505 88.9653 157.613C89.388 157.711 89.8161 157.76 90.2497 157.76C90.9759 157.76 91.5286 157.635 91.908 157.386C92.2982 157.126 92.4932 156.757 92.4932 156.28C92.4932 155.89 92.3686 155.581 92.1193 155.354C91.87 155.115 91.5069 154.915 91.03 154.752C90.5531 154.589 89.9841 154.427 89.323 154.264C88.5643 154.058 87.9302 153.836 87.4208 153.598C86.9114 153.348 86.5266 153.034 86.2665 152.655C86.0172 152.265 85.8926 151.771 85.8926 151.175C85.8926 150.417 86.0768 149.777 86.4454 149.257C86.8139 148.726 87.3124 148.33 87.9411 148.07C88.5805 147.799 89.2959 147.664 90.0871 147.664C90.6073 147.664 91.1005 147.723 91.5666 147.842C92.0326 147.951 92.4661 148.103 92.8672 148.298C93.279 148.493 93.653 148.715 93.989 148.964L93.1598 150.46Z" fill="#19888F"/>
<path d="M109.993 159.288V151.061L106.595 157.304H105.522L102.108 151.061V159.288H100.287V147.745H102.238L106.059 154.801L109.879 147.745H111.83V159.288H109.993Z" fill="#19888F"/>
<path d="M122.351 157.678V159.288H114.433V147.745H122.205V149.354H116.254V152.638H121.408V154.15H116.254V157.678H122.351Z" fill="#19888F"/>
<path d="M124.229 159.288V147.745H128.326C129.573 147.745 130.613 148.005 131.448 148.525C132.282 149.035 132.906 149.728 133.317 150.606C133.74 151.473 133.951 152.438 133.951 153.5C133.951 154.671 133.718 155.69 133.252 156.557C132.797 157.424 132.147 158.096 131.301 158.573C130.456 159.049 129.464 159.288 128.326 159.288H124.229ZM132.098 153.5C132.098 152.687 131.946 151.972 131.643 151.354C131.35 150.725 130.922 150.238 130.359 149.891C129.806 149.533 129.128 149.354 128.326 149.354H126.05V157.678H128.326C129.139 157.678 129.822 157.494 130.375 157.126C130.938 156.757 131.367 156.259 131.659 155.63C131.952 155.001 132.098 154.291 132.098 153.5Z" fill="#19888F"/>
<path d="M135.867 159.288V147.745H137.688V159.288H135.867Z" fill="#19888F"/>
<path d="M140.297 159.288V147.745H145.32C145.841 147.745 146.317 147.853 146.751 148.07C147.184 148.287 147.558 148.574 147.873 148.932C148.198 149.289 148.447 149.69 148.621 150.135C148.805 150.579 148.897 151.034 148.897 151.5C148.897 152.01 148.805 152.498 148.621 152.964C148.436 153.43 148.171 153.831 147.824 154.167C147.488 154.503 147.092 154.747 146.637 154.898L149.352 159.288H147.304L144.8 155.272H142.117V159.288H140.297ZM142.117 153.663H145.304C145.64 153.663 145.938 153.565 146.198 153.37C146.458 153.175 146.664 152.915 146.816 152.59C146.968 152.254 147.044 151.891 147.044 151.5C147.044 151.099 146.957 150.742 146.783 150.427C146.61 150.102 146.382 149.842 146.101 149.647C145.83 149.452 145.532 149.354 145.206 149.354H142.117V153.663Z" fill="#19888F"/>
<path d="M150.736 159.288V157.207H152.216V159.288H150.736Z" fill="#19888F"/>
<path d="M154.197 159.288V157.207H155.677V159.288H154.197Z" fill="#19888F"/>
<path d="M157.659 159.288V157.207H159.138V159.288H157.659Z" fill="#19888F"/>
<path d="M33.584 212.548V214.158H25.6665V202.615H33.4377V204.225H27.4874V207.509H32.6411V209.021H27.4874V212.548H33.584Z" fill="#19888F"/>
<path d="M42.2907 205.33C42.1823 205.211 42.0252 205.086 41.8193 204.956C41.6133 204.815 41.3694 204.685 41.0876 204.566C40.8058 204.447 40.5024 204.349 40.1772 204.273C39.8521 204.197 39.5161 204.159 39.1692 204.159C38.4105 204.159 37.8469 204.3 37.4784 204.582C37.1099 204.864 36.9257 205.254 36.9257 205.753C36.9257 206.121 37.0286 206.414 37.2346 206.631C37.4405 206.837 37.7548 207.01 38.1775 207.151C38.6002 207.292 39.1313 207.444 39.7708 207.606C40.5511 207.79 41.2286 208.013 41.803 208.273C42.3774 208.522 42.8164 208.858 43.1199 209.281C43.4234 209.703 43.5751 210.262 43.5751 210.955C43.5751 211.541 43.4667 212.044 43.2499 212.467C43.0332 212.89 42.7297 213.237 42.3395 213.508C41.9493 213.768 41.4995 213.963 40.9901 214.093C40.4807 214.212 39.9333 214.272 39.3481 214.272C38.7736 214.272 38.1992 214.212 37.6247 214.093C37.0611 213.974 36.5192 213.8 35.999 213.573C35.4896 213.334 35.0181 213.047 34.5845 212.711L35.4137 211.15C35.5546 211.291 35.7551 211.448 36.0152 211.622C36.2862 211.784 36.5951 211.942 36.9419 212.093C37.2996 212.245 37.6844 212.375 38.0962 212.483C38.5189 212.581 38.947 212.63 39.3806 212.63C40.1068 212.63 40.6595 212.505 41.0389 212.256C41.4291 211.996 41.6242 211.627 41.6242 211.15C41.6242 210.76 41.4995 210.451 41.2502 210.224C41.0009 209.985 40.6379 209.785 40.161 209.622C39.6841 209.46 39.115 209.297 38.4539 209.134C37.6952 208.928 37.0611 208.706 36.5517 208.468C36.0423 208.218 35.6575 207.904 35.3974 207.525C35.1481 207.135 35.0235 206.641 35.0235 206.045C35.0235 205.287 35.2077 204.647 35.5763 204.127C35.9448 203.596 36.4433 203.2 37.072 202.94C37.7114 202.669 38.4268 202.534 39.218 202.534C39.7383 202.534 40.2314 202.593 40.6975 202.713C41.1635 202.821 41.5971 202.973 41.9981 203.168C42.4099 203.363 42.7839 203.585 43.1199 203.834L42.2907 205.33Z" fill="#19888F"/>
<path d="M53.8716 204.225H50.0348V214.158H48.1976V204.225H44.3445V202.615H53.8716V204.225Z" fill="#19888F"/>
<path d="M57.6728 202.615H59.3961L63.8832 214.158H61.9648L60.7455 211.02H56.2908L55.0878 214.158H53.1531L57.6728 202.615ZM60.3878 209.671L58.5344 204.615L56.616 209.671H60.3878Z" fill="#19888F"/>
<path d="M65.3107 214.158V202.615H70.3344C70.8546 202.615 71.3315 202.723 71.7651 202.94C72.1986 203.157 72.5725 203.444 72.8869 203.802C73.212 204.159 73.4613 204.56 73.6347 205.005C73.819 205.449 73.9111 205.904 73.9111 206.371C73.9111 206.88 73.819 207.368 73.6347 207.834C73.4505 208.3 73.1849 208.701 72.8381 209.037C72.5021 209.373 72.1065 209.617 71.6513 209.768L74.3663 214.158H72.3178L69.8141 210.142H67.1316V214.158H65.3107ZM67.1316 208.533H70.3181C70.6541 208.533 70.9522 208.435 71.2123 208.24C71.4724 208.045 71.6784 207.785 71.8301 207.46C71.9818 207.124 72.0577 206.761 72.0577 206.371C72.0577 205.97 71.971 205.612 71.7976 205.298C71.6242 204.972 71.3966 204.712 71.1148 204.517C70.8438 204.322 70.5457 204.225 70.2206 204.225H67.1316V208.533Z" fill="#19888F"/>
<path d="M83.9768 212.548V214.158H76.0593V202.615H83.8305V204.225H77.8802V207.509H83.0339V209.021H77.8802V212.548H83.9768Z" fill="#19888F"/>
<path d="M95.5611 214.158V205.932L92.1633 212.175H91.0902L87.6761 205.932V214.158H85.8552V202.615H87.8062L91.6268 209.671L95.4473 202.615H97.3983V214.158H95.5611Z" fill="#19888F"/>
<path d="M104.797 214.239C103.963 214.239 103.21 214.077 102.538 213.752C101.866 213.426 101.286 212.987 100.798 212.435C100.31 211.871 99.931 211.242 99.66 210.549C99.3999 209.844 99.2698 209.124 99.2698 208.386C99.2698 207.617 99.4107 206.885 99.6925 206.192C99.9743 205.487 100.365 204.864 100.863 204.322C101.362 203.769 101.947 203.336 102.619 203.021C103.302 202.696 104.039 202.534 104.83 202.534C105.654 202.534 106.402 202.702 107.074 203.038C107.756 203.374 108.336 203.823 108.813 204.387C109.301 204.951 109.675 205.579 109.935 206.273C110.206 206.967 110.341 207.677 110.341 208.403C110.341 209.172 110.2 209.909 109.919 210.614C109.648 211.307 109.263 211.931 108.764 212.483C108.266 213.025 107.675 213.454 106.992 213.768C106.32 214.082 105.589 214.239 104.797 214.239ZM101.123 208.386C101.123 208.928 101.21 209.454 101.383 209.964C101.557 210.473 101.801 210.928 102.115 211.329C102.44 211.719 102.83 212.028 103.285 212.256C103.741 212.483 104.25 212.597 104.814 212.597C105.399 212.597 105.919 212.478 106.374 212.24C106.83 212.001 107.209 211.681 107.513 211.28C107.827 210.869 108.065 210.413 108.228 209.915C108.39 209.405 108.472 208.896 108.472 208.386C108.472 207.845 108.385 207.324 108.212 206.826C108.049 206.316 107.805 205.867 107.48 205.476C107.155 205.075 106.765 204.761 106.309 204.533C105.865 204.306 105.366 204.192 104.814 204.192C104.228 204.192 103.708 204.311 103.253 204.55C102.798 204.788 102.413 205.108 102.099 205.509C101.784 205.91 101.54 206.36 101.367 206.858C101.204 207.357 101.123 207.866 101.123 208.386Z" fill="#19888F"/>
<path d="M119.039 205.33C118.931 205.211 118.773 205.086 118.567 204.956C118.361 204.815 118.118 204.685 117.836 204.566C117.554 204.447 117.251 204.349 116.925 204.273C116.6 204.197 116.264 204.159 115.917 204.159C115.159 204.159 114.595 204.3 114.227 204.582C113.858 204.864 113.674 205.254 113.674 205.753C113.674 206.121 113.777 206.414 113.983 206.631C114.189 206.837 114.503 207.01 114.926 207.151C115.348 207.292 115.879 207.444 116.519 207.606C117.299 207.79 117.977 208.013 118.551 208.273C119.126 208.522 119.565 208.858 119.868 209.281C120.172 209.703 120.323 210.262 120.323 210.955C120.323 211.541 120.215 212.044 119.998 212.467C119.781 212.89 119.478 213.237 119.088 213.508C118.697 213.768 118.248 213.963 117.738 214.093C117.229 214.212 116.682 214.272 116.096 214.272C115.522 214.272 114.947 214.212 114.373 214.093C113.809 213.974 113.267 213.8 112.747 213.573C112.238 213.334 111.766 213.047 111.333 212.711L112.162 211.15C112.303 211.291 112.503 211.448 112.763 211.622C113.034 211.784 113.343 211.942 113.69 212.093C114.048 212.245 114.433 212.375 114.844 212.483C115.267 212.581 115.695 212.63 116.129 212.63C116.855 212.63 117.408 212.505 117.787 212.256C118.177 211.996 118.372 211.627 118.372 211.15C118.372 210.76 118.248 210.451 117.998 210.224C117.749 209.985 117.386 209.785 116.909 209.622C116.432 209.46 115.863 209.297 115.202 209.134C114.443 208.928 113.809 208.706 113.3 208.468C112.79 208.218 112.406 207.904 112.146 207.525C111.896 207.135 111.772 206.641 111.772 206.045C111.772 205.287 111.956 204.647 112.324 204.127C112.693 203.596 113.192 203.2 113.82 202.94C114.46 202.669 115.175 202.534 115.966 202.534C116.486 202.534 116.98 202.593 117.446 202.713C117.912 202.821 118.345 202.973 118.746 203.168C119.158 203.363 119.532 203.585 119.868 203.834L119.039 205.33Z" fill="#19888F"/>
<path d="M125.435 208.305C125.435 207.601 125.559 206.912 125.809 206.24C126.058 205.558 126.421 204.94 126.898 204.387C127.386 203.823 127.976 203.379 128.67 203.054C129.364 202.718 130.149 202.55 131.027 202.55C132.068 202.55 132.967 202.788 133.726 203.265C134.485 203.731 135.048 204.333 135.417 205.07L133.986 206.029C133.77 205.563 133.493 205.195 133.157 204.924C132.832 204.653 132.474 204.463 132.084 204.355C131.705 204.246 131.331 204.192 130.962 204.192C130.355 204.192 129.824 204.317 129.369 204.566C128.914 204.804 128.529 205.124 128.215 205.525C127.911 205.926 127.678 206.376 127.516 206.875C127.364 207.373 127.288 207.872 127.288 208.37C127.288 208.923 127.38 209.46 127.564 209.98C127.749 210.489 128.003 210.944 128.329 211.345C128.665 211.736 129.06 212.044 129.515 212.272C129.971 212.5 130.469 212.614 131.011 212.614C131.38 212.614 131.764 212.548 132.165 212.418C132.566 212.288 132.935 212.088 133.271 211.817C133.618 211.535 133.889 211.167 134.084 210.711L135.596 211.573C135.357 212.147 134.983 212.635 134.474 213.036C133.975 213.437 133.412 213.741 132.783 213.947C132.165 214.153 131.553 214.256 130.946 214.256C130.133 214.256 129.391 214.088 128.719 213.752C128.047 213.405 127.467 212.95 126.979 212.386C126.491 211.811 126.112 211.172 125.841 210.467C125.57 209.752 125.435 209.031 125.435 208.305Z" fill="#19888F"/>
<path d="M145.198 212.548V214.158H137.28V202.615H145.051V204.225H139.101V207.509H144.255V209.021H139.101V212.548H145.198Z" fill="#19888F"/>
<path d="M147.076 214.158V202.615H152.1C152.62 202.615 153.097 202.723 153.53 202.94C153.964 203.157 154.338 203.444 154.652 203.802C154.977 204.159 155.227 204.56 155.4 205.005C155.584 205.449 155.676 205.904 155.676 206.371C155.676 206.88 155.584 207.368 155.4 207.834C155.216 208.3 154.95 208.701 154.603 209.037C154.267 209.373 153.872 209.617 153.417 209.768L156.132 214.158H154.083L151.579 210.142H148.897V214.158H147.076ZM148.897 208.533H152.083C152.419 208.533 152.717 208.435 152.978 208.24C153.238 208.045 153.444 207.785 153.595 207.46C153.747 207.124 153.823 206.761 153.823 206.371C153.823 205.97 153.736 205.612 153.563 205.298C153.389 204.972 153.162 204.712 152.88 204.517C152.609 204.322 152.311 204.225 151.986 204.225H148.897V208.533Z" fill="#19888F"/>
<path d="M166.184 204.225H162.347V214.158H160.51V204.225H156.657V202.615H166.184V204.225Z" fill="#19888F"/>
<path d="M172.21 214.239C171.376 214.239 170.622 214.077 169.95 213.752C169.278 213.426 168.698 212.987 168.211 212.435C167.723 211.871 167.344 211.242 167.073 210.549C166.813 209.844 166.682 209.124 166.682 208.386C166.682 207.617 166.823 206.885 167.105 206.192C167.387 205.487 167.777 204.864 168.276 204.322C168.774 203.769 169.36 203.336 170.032 203.021C170.714 202.696 171.451 202.534 172.243 202.534C173.066 202.534 173.814 202.702 174.486 203.038C175.169 203.374 175.749 203.823 176.226 204.387C176.714 204.951 177.087 205.579 177.348 206.273C177.619 206.967 177.754 207.677 177.754 208.403C177.754 209.172 177.613 209.909 177.331 210.614C177.06 211.307 176.676 211.931 176.177 212.483C175.678 213.025 175.088 213.454 174.405 213.768C173.733 214.082 173.001 214.239 172.21 214.239ZM168.536 208.386C168.536 208.928 168.623 209.454 168.796 209.964C168.969 210.473 169.213 210.928 169.528 211.329C169.853 211.719 170.243 212.028 170.698 212.256C171.153 212.483 171.663 212.597 172.226 212.597C172.812 212.597 173.332 212.478 173.787 212.24C174.242 212.001 174.622 211.681 174.925 211.28C175.239 210.869 175.478 210.413 175.641 209.915C175.803 209.405 175.884 208.896 175.884 208.386C175.884 207.845 175.798 207.324 175.624 206.826C175.462 206.316 175.218 205.867 174.893 205.476C174.567 205.075 174.177 204.761 173.722 204.533C173.278 204.306 172.779 204.192 172.226 204.192C171.641 204.192 171.121 204.311 170.666 204.55C170.21 204.788 169.826 205.108 169.511 205.509C169.197 205.91 168.953 206.36 168.78 206.858C168.617 207.357 168.536 207.866 168.536 208.386Z" fill="#19888F"/>
<path d="M186.452 205.33C186.343 205.211 186.186 205.086 185.98 204.956C185.774 204.815 185.53 204.685 185.248 204.566C184.967 204.447 184.663 204.349 184.338 204.273C184.013 204.197 183.677 204.159 183.33 204.159C182.571 204.159 182.008 204.3 181.639 204.582C181.271 204.864 181.086 205.254 181.086 205.753C181.086 206.121 181.189 206.414 181.395 206.631C181.601 206.837 181.916 207.01 182.338 207.151C182.761 207.292 183.292 207.444 183.932 207.606C184.712 207.79 185.389 208.013 185.964 208.273C186.538 208.522 186.977 208.858 187.281 209.281C187.584 209.703 187.736 210.262 187.736 210.955C187.736 211.541 187.628 212.044 187.411 212.467C187.194 212.89 186.891 213.237 186.5 213.508C186.11 213.768 185.66 213.963 185.151 214.093C184.642 214.212 184.094 214.272 183.509 214.272C182.934 214.272 182.36 214.212 181.786 214.093C181.222 213.974 180.68 213.8 180.16 213.573C179.65 213.334 179.179 213.047 178.745 212.711L179.575 211.15C179.715 211.291 179.916 211.448 180.176 211.622C180.447 211.784 180.756 211.942 181.103 212.093C181.46 212.245 181.845 212.375 182.257 212.483C182.68 212.581 183.108 212.63 183.541 212.63C184.268 212.63 184.82 212.505 185.2 212.256C185.59 211.996 185.785 211.627 185.785 211.15C185.785 210.76 185.66 210.451 185.411 210.224C185.162 209.985 184.799 209.785 184.322 209.622C183.845 209.46 183.276 209.297 182.615 209.134C181.856 208.928 181.222 208.706 180.713 208.468C180.203 208.218 179.818 207.904 179.558 207.525C179.309 207.135 179.184 206.641 179.184 206.045C179.184 205.287 179.369 204.647 179.737 204.127C180.106 203.596 180.604 203.2 181.233 202.94C181.872 202.669 182.588 202.534 183.379 202.534C183.899 202.534 184.392 202.593 184.858 202.713C185.324 202.821 185.758 202.973 186.159 203.168C186.571 203.363 186.945 203.585 187.281 203.834L186.452 205.33Z" fill="#19888F"/>
<path d="M200.407 205.33C200.299 205.211 200.142 205.086 199.936 204.956C199.73 204.815 199.486 204.685 199.204 204.566C198.922 204.447 198.619 204.349 198.294 204.273C197.969 204.197 197.633 204.159 197.286 204.159C196.527 204.159 195.963 204.3 195.595 204.582C195.226 204.864 195.042 205.254 195.042 205.753C195.042 206.121 195.145 206.414 195.351 206.631C195.557 206.837 195.871 207.01 196.294 207.151C196.717 207.292 197.248 207.444 197.887 207.606C198.668 207.79 199.345 208.013 199.919 208.273C200.494 208.522 200.933 208.858 201.236 209.281C201.54 209.703 201.692 210.262 201.692 210.955C201.692 211.541 201.583 212.044 201.366 212.467C201.15 212.89 200.846 213.237 200.456 213.508C200.066 213.768 199.616 213.963 199.107 214.093C198.597 214.212 198.05 214.272 197.465 214.272C196.89 214.272 196.316 214.212 195.741 214.093C195.178 213.974 194.636 213.8 194.115 213.573C193.606 213.334 193.135 213.047 192.701 212.711L193.53 211.15C193.671 211.291 193.872 211.448 194.132 211.622C194.403 211.784 194.712 211.942 195.058 212.093C195.416 212.245 195.801 212.375 196.213 212.483C196.635 212.581 197.064 212.63 197.497 212.63C198.223 212.63 198.776 212.505 199.155 212.256C199.546 211.996 199.741 211.627 199.741 211.15C199.741 210.76 199.616 210.451 199.367 210.224C199.117 209.985 198.754 209.785 198.277 209.622C197.801 209.46 197.232 209.297 196.57 209.134C195.812 208.928 195.178 208.706 194.668 208.468C194.159 208.218 193.774 207.904 193.514 207.525C193.265 207.135 193.14 206.641 193.14 206.045C193.14 205.287 193.324 204.647 193.693 204.127C194.061 203.596 194.56 203.2 195.188 202.94C195.828 202.669 196.543 202.534 197.334 202.534C197.855 202.534 198.348 202.593 198.814 202.713C199.28 202.821 199.714 202.973 200.115 203.168C200.526 203.363 200.9 203.585 201.236 203.834L200.407 205.33Z" fill="#19888F"/>
<path d="M211.435 212.548V214.158H203.518V202.615H211.289V204.225H205.339V207.509H210.492V209.021H205.339V212.548H211.435Z" fill="#19888F"/>
<path d="M213.005 214.158V212.077H214.484V214.158H213.005Z" fill="#19888F"/>
<path d="M216.466 214.158V212.077H217.945V214.158H216.466Z" fill="#19888F"/>
<path d="M219.927 214.158V212.077H221.407V214.158H219.927Z" fill="#19888F"/>
<path d="M16.2568 22.3545C16.2568 16.7427 20.8061 12.1934 26.418 12.1934H382.057C387.669 12.1934 392.218 16.7426 392.218 22.3545V50.8056C392.218 56.4174 387.669 60.9667 382.057 60.9667H26.4179C20.8061 60.9667 16.2568 56.4174 16.2568 50.8056V22.3545Z" fill="white"/>
<path d="M16.2368 79.2568C16.2368 73.645 20.7861 69.0957 26.3979 69.0957H382.037C387.649 69.0957 392.198 73.645 392.198 79.2568V107.708C392.198 113.32 387.649 117.869 382.037 117.869H26.3979C20.7861 117.869 16.2368 113.32 16.2368 107.708V79.2568Z" fill="white"/>
<path d="M16.2568 136.159C16.2568 130.547 20.8061 125.998 26.418 125.998H382.057C387.669 125.998 392.218 130.547 392.218 136.159V164.61C392.218 170.222 387.669 174.771 382.057 174.771H26.4179C20.8061 174.771 16.2568 170.222 16.2568 164.61V136.159Z" fill="white"/>
<path d="M14.2246 193.061C14.2246 187.449 18.7739 182.9 24.3857 182.9H380.025C385.637 182.9 390.186 187.449 390.186 193.061V221.512C390.186 227.124 385.637 231.674 380.025 231.674H24.3857C18.7739 231.674 14.2246 227.124 14.2246 221.512V193.061Z" fill="white"/>
<path d="M27.4874 37.322V45.4834H25.6665V33.9404H27.1622L33.6979 42.2807V33.9567H35.535V45.4834H33.9417L27.4874 37.322Z" fill="#19888F"/>
<path d="M42.9258 45.5647C42.0912 45.5647 41.338 45.4022 40.666 45.077C39.994 44.7518 39.4141 44.3129 38.9264 43.7601C38.4386 43.1965 38.0593 42.5679 37.7883 41.8742C37.5282 41.1697 37.3981 40.4489 37.3981 39.7119C37.3981 38.9424 37.539 38.2108 37.8209 37.5171C38.1027 36.8126 38.4928 36.1894 38.9914 35.6475C39.49 35.0947 40.0753 34.6612 40.7473 34.3469C41.4301 34.0217 42.1671 33.8591 42.9583 33.8591C43.782 33.8591 44.5299 34.0271 45.2019 34.3631C45.8847 34.6991 46.4646 35.1489 46.9415 35.7125C47.4292 36.2761 47.8031 36.9047 48.0633 37.5984C48.3342 38.2921 48.4697 39.002 48.4697 39.7282C48.4697 40.4977 48.3288 41.2347 48.047 41.9392C47.776 42.6329 47.3913 43.2561 46.8927 43.8089C46.3941 44.3508 45.8034 44.7789 45.1206 45.0933C44.4486 45.4076 43.717 45.5647 42.9258 45.5647ZM39.2515 39.7119C39.2515 40.2539 39.3382 40.7795 39.5117 41.2889C39.6851 41.7983 39.9289 42.2536 40.2433 42.6546C40.5684 43.0448 40.9586 43.3537 41.4138 43.5813C41.869 43.8089 42.3784 43.9227 42.9421 43.9227C43.5273 43.9227 44.0476 43.8035 44.5028 43.565C44.958 43.3266 45.3374 43.0068 45.6408 42.6058C45.9552 42.1939 46.1936 41.7387 46.3562 41.2402C46.5188 40.7307 46.6001 40.2213 46.6001 39.7119C46.6001 39.17 46.5133 38.6498 46.3399 38.1512C46.1774 37.6418 45.9335 37.192 45.6083 36.8018C45.2832 36.4008 44.893 36.0864 44.4378 35.8588C43.9934 35.6312 43.4948 35.5174 42.9421 35.5174C42.3568 35.5174 41.8365 35.6366 41.3813 35.8751C40.9261 36.1135 40.5413 36.4333 40.227 36.8343C39.9127 37.2353 39.6688 37.6851 39.4954 38.1837C39.3328 38.6823 39.2515 39.1917 39.2515 39.7119ZM43.5761 32.7373L42.4055 32.3797L43.3322 30.5913H45.0393L43.5761 32.7373Z" fill="#19888F"/>
<path d="M57.1672 36.6555C57.0588 36.5362 56.9017 36.4116 56.6958 36.2815C56.4898 36.1406 56.246 36.0106 55.9642 35.8913C55.6824 35.7721 55.3789 35.6746 55.0537 35.5987C54.7286 35.5228 54.3926 35.4849 54.0457 35.4849C53.287 35.4849 52.7234 35.6258 52.3549 35.9076C51.9864 36.1894 51.8022 36.5796 51.8022 37.0782C51.8022 37.4467 51.9051 37.7393 52.1111 37.9561C52.317 38.162 52.6313 38.3354 53.054 38.4763C53.4767 38.6172 54.0078 38.769 54.6473 38.9316C55.4277 39.1158 56.1051 39.338 56.6795 39.5981C57.2539 39.8474 57.6929 40.1834 57.9964 40.6061C58.2999 41.0288 58.4516 41.587 58.4516 42.2807C58.4516 42.8659 58.3432 43.3699 58.1264 43.7926C57.9097 44.2153 57.6062 44.5622 57.216 44.8331C56.8258 45.0933 56.376 45.2883 55.8666 45.4184C55.3572 45.5376 54.8099 45.5972 54.2246 45.5972C53.6501 45.5972 53.0757 45.5376 52.5012 45.4184C51.9376 45.2992 51.3957 45.1258 50.8755 44.8982C50.3661 44.6597 49.8946 44.3725 49.461 44.0365L50.2902 42.4758C50.4311 42.6167 50.6316 42.7738 50.8917 42.9472C51.1627 43.1098 51.4716 43.267 51.8184 43.4187C52.1761 43.5704 52.5609 43.7005 52.9727 43.8089C53.3954 43.9064 53.8236 43.9552 54.2571 43.9552C54.9833 43.9552 55.536 43.8306 55.9154 43.5813C56.3056 43.3212 56.5007 42.9526 56.5007 42.4758C56.5007 42.0856 56.376 41.7767 56.1267 41.5491C55.8774 41.3106 55.5144 41.1101 55.0375 40.9475C54.5606 40.7849 53.9915 40.6224 53.3304 40.4598C52.5717 40.2539 51.9376 40.0317 51.4282 39.7932C50.9188 39.5439 50.5341 39.2296 50.2739 38.8503C50.0246 38.4601 49.9 37.9669 49.9 37.3708C49.9 36.6121 50.0843 35.9726 50.4528 35.4524C50.8213 34.9213 51.3199 34.5257 51.9485 34.2656C52.588 33.9946 53.3033 33.8591 54.0945 33.8591C54.6148 33.8591 55.1079 33.9187 55.574 34.038C56.04 34.1463 56.4736 34.2981 56.8746 34.4932C57.2865 34.6883 57.6604 34.9105 57.9964 35.1597L57.1672 36.6555Z" fill="#19888F"/>
<path d="M67.1194 33.9404H68.8427L73.3299 45.4834H71.4115L70.1921 42.3457H65.7375L64.5344 45.4834H62.5997L67.1194 33.9404ZM69.8345 40.9963L67.9811 35.9401L66.0627 40.9963H69.8345Z" fill="#19888F"/>
<path d="M73.5812 39.6306C73.5812 38.9261 73.7059 38.2379 73.9552 37.5659C74.2045 36.8831 74.5676 36.2653 75.0444 35.7125C75.5322 35.1489 76.1229 34.7045 76.8165 34.3794C77.5102 34.0434 78.296 33.8754 79.1739 33.8754C80.2144 33.8754 81.114 34.1138 81.8727 34.5907C82.6314 35.0568 83.195 35.6583 83.5635 36.3953L82.1328 37.3545C81.9161 36.8885 81.6397 36.52 81.3037 36.249C80.9785 35.9781 80.6209 35.7884 80.2307 35.68C79.8513 35.5716 79.4774 35.5174 79.1089 35.5174C78.5019 35.5174 77.9709 35.6421 77.5156 35.8913C77.0604 36.1298 76.6756 36.4495 76.3613 36.8506C76.0578 37.2516 75.8248 37.7014 75.6622 38.2C75.5105 38.6985 75.4346 39.1971 75.4346 39.6957C75.4346 40.2484 75.5268 40.7849 75.711 41.3052C75.8953 41.8146 76.15 42.2698 76.4751 42.6708C76.8111 43.061 77.2067 43.3699 77.6619 43.5975C78.1172 43.8251 78.6157 43.939 79.1577 43.939C79.5262 43.939 79.9109 43.8739 80.312 43.7439C80.713 43.6138 81.0815 43.4133 81.4175 43.1423C81.7643 42.8605 82.0353 42.492 82.2304 42.0368L83.7424 42.8985C83.5039 43.4729 83.13 43.9606 82.6206 44.3617C82.122 44.7627 81.5584 45.0662 80.9298 45.2721C80.312 45.478 79.6996 45.581 79.0926 45.581C78.2797 45.581 77.5373 45.413 76.8653 45.077C76.1933 44.7302 75.6135 44.2749 75.1257 43.7113C74.638 43.1369 74.2587 42.4974 73.9877 41.7929C73.7167 41.0776 73.5812 40.3568 73.5812 39.6306Z" fill="#19888F"/>
<path d="M85.4266 45.4834V33.9404H90.4502C90.9705 33.9404 91.4474 34.0488 91.8809 34.2656C92.3145 34.4823 92.6884 34.7696 93.0027 35.1272C93.3279 35.4849 93.5771 35.8859 93.7506 36.3303C93.9348 36.7747 94.0269 37.2299 94.0269 37.696C94.0269 38.2054 93.9348 38.6931 93.7506 39.1592C93.5663 39.6252 93.3008 40.0262 92.9539 40.3622C92.6179 40.6982 92.2223 40.9421 91.7671 41.0938L94.4822 45.4834H92.4337L89.93 41.4678H87.2474V45.4834H85.4266ZM87.2474 39.8582H90.434C90.77 39.8582 91.068 39.7607 91.3281 39.5656C91.5883 39.3705 91.7942 39.1104 91.9459 38.7852C92.0977 38.4492 92.1736 38.0861 92.1736 37.696C92.1736 37.2949 92.0868 36.9373 91.9134 36.6229C91.74 36.2978 91.5124 36.0377 91.2306 35.8426C90.9596 35.6475 90.6616 35.5499 90.3364 35.5499H87.2474V39.8582Z" fill="#19888F"/>
<path d="M104.093 43.8739V45.4834H96.1751V33.9404H103.946V35.5499H97.996V38.834H103.15V40.346H97.996V43.8739H104.093Z" fill="#19888F"/>
<path d="M105.971 45.4834V33.9404H110.068C111.314 33.9404 112.355 34.2005 113.19 34.7208C114.024 35.2302 114.647 35.9239 115.059 36.8018C115.482 37.6689 115.693 38.6335 115.693 39.6957C115.693 40.8662 115.46 41.8851 114.994 42.7521C114.539 43.6192 113.889 44.2912 113.043 44.7681C112.198 45.245 111.206 45.4834 110.068 45.4834H105.971ZM113.84 39.6957C113.84 38.8828 113.688 38.1674 113.385 37.5496C113.092 36.921 112.664 36.4333 112.1 36.0864C111.548 35.7288 110.87 35.5499 110.068 35.5499H107.792V43.8739H110.068C110.881 43.8739 111.564 43.6897 112.117 43.3212C112.68 42.9526 113.108 42.4541 113.401 41.8254C113.694 41.1968 113.84 40.4869 113.84 39.6957Z" fill="#19888F"/>
<path d="M117.609 45.4834V33.9404H119.43V45.4834H117.609Z" fill="#19888F"/>
<path d="M130.509 35.5499H126.672V45.4834H124.835V35.5499H120.982V33.9404H130.509V35.5499Z" fill="#19888F"/>
<path d="M134.31 33.9404H136.033L140.52 45.4834H138.602L137.383 42.3457H132.928L131.725 45.4834H129.79L134.31 33.9404ZM137.025 40.9963L135.171 35.9401L133.253 40.9963H137.025Z" fill="#19888F"/>
<path d="M151.654 45.4834V37.257L148.256 43.5H147.183L143.769 37.257V45.4834H141.948V33.9404H143.899L147.719 40.9963L151.54 33.9404H153.491V45.4834H151.654Z" fill="#19888F"/>
<path d="M160.89 45.5647C160.055 45.5647 159.302 45.4022 158.63 45.077C157.958 44.7518 157.378 44.3129 156.891 43.7601C156.403 43.1965 156.024 42.5679 155.753 41.8742C155.492 41.1697 155.362 40.4489 155.362 39.7119C155.362 38.9424 155.503 38.2108 155.785 37.5171C156.067 36.8126 156.457 36.1894 156.956 35.6475C157.454 35.0947 158.039 34.6612 158.711 34.3469C159.394 34.0217 160.131 33.8591 160.923 33.8591C161.746 33.8591 162.494 34.0271 163.166 34.3631C163.849 34.6991 164.429 35.1489 164.906 35.7125C165.393 36.2761 165.767 36.9047 166.027 37.5984C166.298 38.2921 166.434 39.002 166.434 39.7282C166.434 40.4977 166.293 41.2347 166.011 41.9392C165.74 42.6329 165.355 43.2561 164.857 43.8089C164.358 44.3508 163.768 44.7789 163.085 45.0933C162.413 45.4076 161.681 45.5647 160.89 45.5647ZM157.216 39.7119C157.216 40.2539 157.302 40.7795 157.476 41.2889C157.649 41.7983 157.893 42.2536 158.207 42.6546C158.533 43.0448 158.923 43.3537 159.378 43.5813C159.833 43.8089 160.343 43.9227 160.906 43.9227C161.492 43.9227 162.012 43.8035 162.467 43.565C162.922 43.3266 163.302 43.0068 163.605 42.6058C163.919 42.1939 164.158 41.7387 164.32 41.2402C164.483 40.7307 164.564 40.2213 164.564 39.7119C164.564 39.17 164.478 38.6498 164.304 38.1512C164.142 37.6418 163.898 37.192 163.573 36.8018C163.247 36.4008 162.857 36.0864 162.402 35.8588C161.958 35.6312 161.459 35.5174 160.906 35.5174C160.321 35.5174 159.801 35.6366 159.346 35.8751C158.89 36.1135 158.506 36.4333 158.191 36.8343C157.877 37.2353 157.633 37.6851 157.46 38.1837C157.297 38.6823 157.216 39.1917 157.216 39.7119Z" fill="#19888F"/>
<path d="M175.131 36.6555C175.023 36.5362 174.866 36.4116 174.66 36.2815C174.454 36.1406 174.21 36.0106 173.928 35.8913C173.647 35.7721 173.343 35.6746 173.018 35.5987C172.693 35.5228 172.357 35.4849 172.01 35.4849C171.251 35.4849 170.688 35.6258 170.319 35.9076C169.951 36.1894 169.766 36.5796 169.766 37.0782C169.766 37.4467 169.869 37.7393 170.075 37.9561C170.281 38.162 170.596 38.3354 171.018 38.4763C171.441 38.6172 171.972 38.769 172.611 38.9316C173.392 39.1158 174.069 39.338 174.644 39.5981C175.218 39.8474 175.657 40.1834 175.961 40.6061C176.264 41.0288 176.416 41.587 176.416 42.2807C176.416 42.8659 176.307 43.3699 176.091 43.7926C175.874 44.2153 175.57 44.5622 175.18 44.8331C174.79 45.0933 174.34 45.2883 173.831 45.4184C173.321 45.5376 172.774 45.5972 172.189 45.5972C171.614 45.5972 171.04 45.5376 170.465 45.4184C169.902 45.2992 169.36 45.1258 168.84 44.8982C168.33 44.6597 167.859 44.3725 167.425 44.0365L168.254 42.4758C168.395 42.6167 168.596 42.7738 168.856 42.9472C169.127 43.1098 169.436 43.267 169.783 43.4187C170.14 43.5704 170.525 43.7005 170.937 43.8089C171.36 43.9064 171.788 43.9552 172.221 43.9552C172.947 43.9552 173.5 43.8306 173.88 43.5813C174.27 43.3212 174.465 42.9526 174.465 42.4758C174.465 42.0856 174.34 41.7767 174.091 41.5491C173.842 41.3106 173.479 41.1101 173.002 40.9475C172.525 40.7849 171.956 40.6224 171.295 40.4598C170.536 40.2539 169.902 40.0317 169.392 39.7932C168.883 39.5439 168.498 39.2296 168.238 38.8503C167.989 38.4601 167.864 37.9669 167.864 37.3708C167.864 36.6121 168.048 35.9726 168.417 35.4524C168.785 34.9213 169.284 34.5257 169.913 34.2656C170.552 33.9946 171.268 33.8591 172.059 33.8591C172.579 33.8591 173.072 33.9187 173.538 34.038C174.004 34.1463 174.438 34.2981 174.839 34.4932C175.251 34.6883 175.625 34.9105 175.961 35.1597L175.131 36.6555Z" fill="#19888F"/>
<path d="M187.055 45.5647C186.22 45.5647 185.467 45.4022 184.795 45.077C184.123 44.741 183.543 44.2966 183.055 43.7439C182.568 43.1911 182.188 42.5679 181.917 41.8742C181.657 41.1697 181.527 40.4489 181.527 39.7119C181.527 38.9424 181.668 38.2108 181.95 37.5171C182.232 36.8126 182.622 36.1894 183.12 35.6475C183.619 35.0947 184.204 34.6612 184.876 34.3469C185.559 34.0217 186.296 33.8591 187.087 33.8591C187.911 33.8591 188.659 34.0271 189.331 34.3631C190.014 34.6991 190.594 35.1489 191.071 35.7125C191.558 36.2761 191.932 36.9047 192.192 37.5984C192.463 38.2921 192.599 39.002 192.599 39.7282C192.599 40.4977 192.458 41.2347 192.176 41.9392C191.905 42.6329 191.52 43.2561 191.022 43.8089C190.523 44.3508 189.933 44.7789 189.25 45.0933C188.578 45.4076 187.846 45.5647 187.055 45.5647ZM187.071 43.9227C187.656 43.9227 188.177 43.8035 188.632 43.565C189.087 43.3266 189.466 43.0068 189.77 42.6058C190.084 42.1939 190.323 41.7387 190.485 41.2402C190.648 40.7307 190.729 40.2213 190.729 39.7119C190.729 39.17 190.642 38.6443 190.469 38.1349C190.306 37.6255 190.063 37.1757 189.737 36.7855C189.412 36.3953 189.022 36.0864 188.567 35.8588C188.122 35.6204 187.624 35.5012 187.071 35.5012C186.486 35.5012 185.966 35.6204 185.51 35.8588C185.055 36.0973 184.67 36.4224 184.356 36.8343C184.042 37.2353 183.798 37.6851 183.624 38.1837C183.462 38.6823 183.381 39.1917 183.381 39.7119C183.381 40.2539 183.467 40.7795 183.641 41.2889C183.814 41.7983 184.058 42.2481 184.372 42.6383C184.698 43.0285 185.088 43.3428 185.543 43.5813C185.998 43.8089 186.508 43.9227 187.071 43.9227ZM187.299 41.4678H189.055L192.566 45.4834H190.81L187.299 41.4678Z" fill="#19888F"/>
<path d="M199.264 45.5647C198.343 45.5647 197.563 45.4076 196.923 45.0933C196.295 44.7789 195.785 44.3508 195.395 43.8089C195.016 43.267 194.734 42.6492 194.55 41.9555C194.376 41.2618 194.29 40.5411 194.29 39.7932V33.9404H196.11V39.7932C196.11 40.3243 196.165 40.8391 196.273 41.3377C196.381 41.8254 196.555 42.2644 196.793 42.6546C197.032 43.0448 197.351 43.3537 197.752 43.5813C198.164 43.8089 198.668 43.9227 199.264 43.9227C199.871 43.9227 200.375 43.8089 200.776 43.5813C201.188 43.3428 201.508 43.0285 201.736 42.6383C201.974 42.2373 202.148 41.7929 202.256 41.3052C202.364 40.8175 202.418 40.3135 202.418 39.7932V33.9404H204.256V39.7932C204.256 40.5844 204.158 41.3323 203.963 42.0368C203.779 42.7305 203.486 43.3428 203.085 43.8739C202.695 44.3942 202.185 44.806 201.557 45.1095C200.928 45.413 200.164 45.5647 199.264 45.5647Z" fill="#19888F"/>
<path d="M214.595 43.8739V45.4834H206.677V33.9404H214.448V35.5499H208.498V38.834H213.652V40.346H208.498V43.8739H214.595Z" fill="#19888F"/>
<path d="M216.164 45.4834V43.4024H217.644V45.4834H216.164Z" fill="#19888F"/>
<path d="M219.625 45.4834V43.4024H221.105V45.4834H219.625Z" fill="#19888F"/>
<path d="M223.087 45.4834V43.4024H224.566V45.4834H223.087Z" fill="#19888F"/>
<path d="M25.6865 102.386V90.8428H30.5313C31.0516 90.8428 31.5285 90.9511 31.962 91.1679C32.3956 91.3847 32.7749 91.6719 33.1001 92.0296C33.4252 92.3873 33.6745 92.7883 33.8479 93.2327C34.0213 93.677 34.1081 94.1323 34.1081 94.5983C34.1081 95.2378 33.9617 95.8502 33.6691 96.4354C33.3873 97.0099 32.9808 97.4759 32.4498 97.8336C31.9295 98.1913 31.3226 98.3701 30.6289 98.3701H27.5074V102.386H25.6865ZM27.5074 96.7606H30.5151C30.8619 96.7606 31.1654 96.6685 31.4255 96.4842C31.6856 96.2891 31.8862 96.029 32.0271 95.7038C32.1788 95.3787 32.2547 95.0102 32.2547 94.5983C32.2547 94.1756 32.168 93.8017 31.9945 93.4765C31.8211 93.1514 31.5935 92.9021 31.3117 92.7287C31.0408 92.5444 30.7427 92.4523 30.4175 92.4523H27.5074V96.7606Z" fill="#19888F"/>
<path d="M38.3231 90.8428H40.0465L44.5336 102.386H42.6152L41.3959 99.248H36.9412L35.7382 102.386H33.8035L38.3231 90.8428ZM41.0382 97.8986L39.1848 92.8425L37.2664 97.8986H41.0382Z" fill="#19888F"/>
<path d="M45.9611 102.386V90.8428H50.9848C51.505 90.8428 51.9819 90.9511 52.4155 91.1679C52.849 91.3847 53.2229 91.6719 53.5373 92.0296C53.8624 92.3873 54.1117 92.7883 54.2851 93.2327C54.4694 93.677 54.5615 94.1323 54.5615 94.5983C54.5615 95.1077 54.4694 95.5955 54.2851 96.0615C54.1009 96.5276 53.8353 96.9286 53.4885 97.2646C53.1525 97.6006 52.7569 97.8444 52.3017 97.9962L55.0167 102.386H52.9682L50.4645 98.3701H47.782V102.386H45.9611ZM47.782 96.7606H50.9685C51.3045 96.7606 51.6026 96.6631 51.8627 96.468C52.1228 96.2729 52.3288 96.0127 52.4805 95.6876C52.6322 95.3516 52.7081 94.9885 52.7081 94.5983C52.7081 94.1973 52.6214 93.8396 52.448 93.5253C52.2746 93.2001 52.047 92.94 51.7652 92.7449C51.4942 92.5498 51.1961 92.4523 50.871 92.4523H47.782V96.7606Z" fill="#19888F"/>
<path d="M60.0425 90.8428H61.7659L66.253 102.386H64.3346L63.1152 99.248H58.6606L57.4575 102.386H55.5229L60.0425 90.8428ZM62.7576 97.8986L60.9042 92.8425L58.9858 97.8986H62.7576Z" fill="#19888F"/>
<path d="M71.3652 90.8428L74.8444 100.158L78.3073 90.8428H80.2419L75.706 102.386H73.9827L69.4305 90.8428H71.3652Z" fill="#19888F"/>
<path d="M84.0482 90.8428H85.7715L90.2586 102.386H88.3402L87.1209 99.248H82.6663L81.4632 102.386H79.5285L84.0482 90.8428ZM86.7632 97.8986L84.9098 92.8425L82.9914 97.8986H86.7632Z" fill="#19888F"/>
<path d="M91.6861 102.386V90.8428H93.507V100.776H99.7012V102.386H91.6861Z" fill="#19888F"/>
<path d="M101.18 102.386V90.8428H103.001V102.386H101.18Z" fill="#19888F"/>
<path d="M105.61 102.386V90.8428H109.707C110.953 90.8428 111.994 91.1029 112.829 91.6231C113.663 92.1325 114.286 92.8262 114.698 93.7041C115.121 94.5712 115.332 95.5358 115.332 96.598C115.332 97.7686 115.099 98.7874 114.633 99.6545C114.178 100.522 113.528 101.194 112.682 101.67C111.837 102.147 110.845 102.386 109.707 102.386H105.61ZM113.479 96.598C113.479 95.7851 113.327 95.0698 113.024 94.452C112.731 93.8234 112.303 93.3356 111.739 92.9888C111.186 92.6311 110.509 92.4523 109.707 92.4523H107.431V100.776H109.707C110.52 100.776 111.203 100.592 111.756 100.224C112.319 99.855 112.747 99.3564 113.04 98.7278C113.333 98.0992 113.479 97.3892 113.479 96.598Z" fill="#19888F"/>
<path d="M120.152 90.8428H121.875L126.362 102.386H124.444L123.225 99.248H118.77L117.567 102.386H115.632L120.152 90.8428ZM122.867 97.8986L121.014 92.8425L119.095 97.8986H122.867Z" fill="#19888F"/>
<path d="M127.79 102.386V90.8428H132.814C133.334 90.8428 133.811 90.9511 134.244 91.1679C134.678 91.3847 135.052 91.6719 135.366 92.0296C135.691 92.3873 135.94 92.7883 136.114 93.2327C136.298 93.677 136.39 94.1323 136.39 94.5983C136.39 95.1077 136.298 95.5955 136.114 96.0615C135.93 96.5276 135.664 96.9286 135.317 97.2646C134.981 97.6006 134.586 97.8444 134.13 97.9962L136.845 102.386H134.797L132.293 98.3701H129.611V102.386H127.79ZM129.611 96.7606H132.797C133.133 96.7606 133.431 96.6631 133.691 96.468C133.952 96.2729 134.157 96.0127 134.309 95.6876C134.461 95.3516 134.537 94.9885 134.537 94.5983C134.537 94.1973 134.45 93.8396 134.277 93.5253C134.103 93.2001 133.876 92.94 133.594 92.7449C133.323 92.5498 133.025 92.4523 132.7 92.4523H129.611V96.7606Z" fill="#19888F"/>
<path d="M142.555 102.386V90.8428H144.376V102.386H142.555Z" fill="#19888F"/>
<path d="M153.813 93.5578C153.705 93.4386 153.548 93.3139 153.342 93.1839C153.136 93.043 152.892 92.9129 152.61 92.7937C152.328 92.6745 152.025 92.5769 151.7 92.5011C151.374 92.4252 151.038 92.3873 150.692 92.3873C149.933 92.3873 149.369 92.5282 149.001 92.81C148.632 93.0918 148.448 93.4819 148.448 93.9805C148.448 94.349 148.551 94.6417 148.757 94.8584C148.963 95.0644 149.277 95.2378 149.7 95.3787C150.123 95.5196 150.654 95.6713 151.293 95.8339C152.074 96.0182 152.751 96.2403 153.325 96.5005C153.9 96.7498 154.339 97.0858 154.642 97.5085C154.946 97.9312 155.097 98.4893 155.097 99.183C155.097 99.7683 154.989 100.272 154.772 100.695C154.556 101.118 154.252 101.465 153.862 101.735C153.472 101.996 153.022 102.191 152.513 102.321C152.003 102.44 151.456 102.5 150.87 102.5C150.296 102.5 149.722 102.44 149.147 102.321C148.584 102.202 148.042 102.028 147.521 101.801C147.012 101.562 146.54 101.275 146.107 100.939L146.936 99.3781C147.077 99.519 147.277 99.6762 147.538 99.8496C147.809 100.012 148.117 100.169 148.464 100.321C148.822 100.473 149.207 100.603 149.619 100.711C150.041 100.809 150.469 100.858 150.903 100.858C151.629 100.858 152.182 100.733 152.561 100.484C152.951 100.224 153.147 99.855 153.147 99.3781C153.147 98.9879 153.022 98.679 152.773 98.4514C152.523 98.213 152.16 98.0124 151.683 97.8499C151.206 97.6873 150.637 97.5247 149.976 97.3621C149.218 97.1562 148.584 96.934 148.074 96.6956C147.565 96.4463 147.18 96.132 146.92 95.7526C146.671 95.3624 146.546 94.8693 146.546 94.2732C146.546 93.5145 146.73 92.875 147.099 92.3547C147.467 91.8237 147.966 91.428 148.594 91.1679C149.234 90.897 149.949 90.7615 150.74 90.7615C151.261 90.7615 151.754 90.8211 152.22 90.9403C152.686 91.0487 153.119 91.2004 153.52 91.3955C153.932 91.5906 154.306 91.8128 154.642 92.0621L153.813 93.5578Z" fill="#19888F"/>
<path d="M163.752 93.5578C163.644 93.4386 163.486 93.3139 163.28 93.1839C163.075 93.043 162.831 92.9129 162.549 92.7937C162.267 92.6745 161.964 92.5769 161.638 92.5011C161.313 92.4252 160.977 92.3873 160.63 92.3873C159.872 92.3873 159.308 92.5282 158.94 92.81C158.571 93.0918 158.387 93.4819 158.387 93.9805C158.387 94.349 158.49 94.6417 158.696 94.8584C158.902 95.0644 159.216 95.2378 159.639 95.3787C160.061 95.5196 160.593 95.6713 161.232 95.8339C162.012 96.0182 162.69 96.2403 163.264 96.5005C163.839 96.7498 164.278 97.0858 164.581 97.5085C164.885 97.9312 165.036 98.4893 165.036 99.183C165.036 99.7683 164.928 100.272 164.711 100.695C164.494 101.118 164.191 101.465 163.801 101.735C163.411 101.996 162.961 102.191 162.451 102.321C161.942 102.44 161.395 102.5 160.809 102.5C160.235 102.5 159.66 102.44 159.086 102.321C158.522 102.202 157.98 102.028 157.46 101.801C156.951 101.562 156.479 101.275 156.046 100.939L156.875 99.3781C157.016 99.519 157.216 99.6762 157.476 99.8496C157.747 100.012 158.056 100.169 158.403 100.321C158.761 100.473 159.146 100.603 159.557 100.711C159.98 100.809 160.408 100.858 160.842 100.858C161.568 100.858 162.121 100.733 162.5 100.484C162.89 100.224 163.085 99.855 163.085 99.3781C163.085 98.9879 162.961 98.679 162.711 98.4514C162.462 98.213 162.099 98.0124 161.622 97.8499C161.145 97.6873 160.576 97.5247 159.915 97.3621C159.156 97.1562 158.522 96.934 158.013 96.6956C157.504 96.4463 157.119 96.132 156.859 95.7526C156.609 95.3624 156.485 94.8693 156.485 94.2732C156.485 93.5145 156.669 92.875 157.037 92.3547C157.406 91.8237 157.905 91.428 158.533 91.1679C159.173 90.897 159.888 90.7615 160.679 90.7615C161.199 90.7615 161.693 90.8211 162.159 90.9403C162.625 91.0487 163.058 91.2004 163.459 91.3955C163.871 91.5906 164.245 91.8128 164.581 92.0621L163.752 93.5578Z" fill="#19888F"/>
<path d="M171.659 102.467C170.824 102.467 170.071 102.305 169.399 101.979C168.727 101.654 168.147 101.215 167.659 100.662C167.171 100.099 166.792 99.4702 166.521 98.7766C166.261 98.0721 166.131 97.3513 166.131 96.6143C166.131 95.8447 166.272 95.1131 166.554 94.4195C166.835 93.715 167.226 93.0918 167.724 92.5498C168.223 91.9971 168.808 91.5635 169.48 91.2492C170.163 90.9241 170.9 90.7615 171.691 90.7615C172.515 90.7615 173.263 90.9295 173.935 91.2655C174.617 91.6015 175.197 92.0513 175.674 92.6149C176.162 93.1785 176.536 93.8071 176.796 94.5008C177.067 95.1944 177.202 95.9044 177.202 96.6305C177.202 97.4001 177.062 98.1371 176.78 98.8416C176.509 99.5353 176.124 100.158 175.625 100.711C175.127 101.253 174.536 101.681 173.853 101.996C173.181 102.31 172.45 102.467 171.659 102.467ZM167.984 96.6143C167.984 97.1562 168.071 97.6819 168.244 98.1913C168.418 98.7007 168.662 99.1559 168.976 99.5569C169.301 99.9471 169.691 100.256 170.147 100.484C170.602 100.711 171.111 100.825 171.675 100.825C172.26 100.825 172.78 100.706 173.236 100.467C173.691 100.229 174.07 99.9092 174.374 99.5082C174.688 99.0963 174.926 98.6411 175.089 98.1425C175.252 97.6331 175.333 97.1237 175.333 96.6143C175.333 96.0724 175.246 95.5521 175.073 95.0535C174.91 94.5441 174.666 94.0943 174.341 93.7041C174.016 93.3031 173.626 92.9888 173.171 92.7612C172.726 92.5336 172.228 92.4198 171.675 92.4198C171.09 92.4198 170.569 92.539 170.114 92.7774C169.659 93.0159 169.274 93.3356 168.96 93.7366C168.645 94.1377 168.402 94.5875 168.228 95.086C168.066 95.5846 167.984 96.094 167.984 96.6143Z" fill="#19888F"/>
<path d="M178.799 103.963L179.189 102.288H178.604V100.305H180.214V102.288L179.645 103.963H178.799Z" fill="#19888F"/>
<path d="M186.518 102.386V90.8428H188.339V102.386H186.518Z" fill="#19888F"/>
<path d="M190.948 102.386V90.8428H195.971C196.491 90.8428 196.968 90.9511 197.402 91.1679C197.835 91.3847 198.209 91.6719 198.524 92.0296C198.849 92.3873 199.098 92.7883 199.272 93.2327C199.456 93.677 199.548 94.1323 199.548 94.5983C199.548 95.1077 199.456 95.5955 199.272 96.0615C199.087 96.5276 198.822 96.9286 198.475 97.2646C198.139 97.6006 197.743 97.8444 197.288 97.9962L200.003 102.386H197.955L195.451 98.3701H192.768V102.386H190.948ZM192.768 96.7606H195.955C196.291 96.7606 196.589 96.6631 196.849 96.468C197.109 96.2729 197.315 96.0127 197.467 95.6876C197.619 95.3516 197.695 94.9885 197.695 94.5983C197.695 94.1973 197.608 93.8396 197.434 93.5253C197.261 93.2001 197.033 92.94 196.752 92.7449C196.481 92.5498 196.183 92.4523 195.857 92.4523H192.768V96.7606Z" fill="#19888F"/>
<path d="M209.614 100.776V102.386H201.696V90.8428H209.467V92.4523H203.517V95.7364H208.671V97.2483H203.517V100.776H209.614Z" fill="#19888F"/>
<path d="M221.198 102.386V94.1594L217.8 100.402H216.727L213.313 94.1594V102.386H211.492V90.8428H213.443L217.264 97.8986L221.084 90.8428H223.035V102.386H221.198Z" fill="#19888F"/>
<path d="M230.434 102.467C229.6 102.467 228.846 102.305 228.174 101.979C227.502 101.654 226.923 101.215 226.435 100.662C225.947 100.099 225.568 99.4702 225.297 98.7766C225.037 98.0721 224.907 97.3513 224.907 96.6143C224.907 95.8447 225.048 95.1131 225.329 94.4195C225.611 93.715 226.001 93.0918 226.5 92.5498C226.998 91.9971 227.584 91.5635 228.256 91.2492C228.939 90.9241 229.676 90.7615 230.467 90.7615C231.291 90.7615 232.038 90.9295 232.71 91.2655C233.393 91.6015 233.973 92.0513 234.45 92.6149C234.938 93.1785 235.312 93.8071 235.572 94.5008C235.843 95.1944 235.978 95.9044 235.978 96.6305C235.978 97.4001 235.837 98.1371 235.555 98.8416C235.285 99.5353 234.9 100.158 234.401 100.711C233.903 101.253 233.312 101.681 232.629 101.996C231.957 102.31 231.225 102.467 230.434 102.467ZM226.76 96.6143C226.76 97.1562 226.847 97.6819 227.02 98.1913C227.194 98.7007 227.437 99.1559 227.752 99.5569C228.077 99.9471 228.467 100.256 228.922 100.484C229.378 100.711 229.887 100.825 230.451 100.825C231.036 100.825 231.556 100.706 232.011 100.467C232.466 100.229 232.846 99.9092 233.149 99.5082C233.464 99.0963 233.702 98.6411 233.865 98.1425C234.027 97.6331 234.109 97.1237 234.109 96.6143C234.109 96.0724 234.022 95.5521 233.848 95.0535C233.686 94.5441 233.442 94.0943 233.117 93.7041C232.792 93.3031 232.401 92.9888 231.946 92.7612C231.502 92.5336 231.003 92.4198 230.451 92.4198C229.865 92.4198 229.345 92.539 228.89 92.7774C228.435 93.0159 228.05 93.3356 227.735 93.7366C227.421 94.1377 227.177 94.5875 227.004 95.086C226.841 95.5846 226.76 96.094 226.76 96.6143Z" fill="#19888F"/>
<path d="M244.676 93.5578C244.567 93.4386 244.41 93.3139 244.204 93.1839C243.998 93.043 243.754 92.9129 243.473 92.7937C243.191 92.6745 242.887 92.5769 242.562 92.5011C242.237 92.4252 241.901 92.3873 241.554 92.3873C240.796 92.3873 240.232 92.5282 239.863 92.81C239.495 93.0918 239.311 93.4819 239.311 93.9805C239.311 94.349 239.414 94.6417 239.62 94.8584C239.825 95.0644 240.14 95.2378 240.562 95.3787C240.985 95.5196 241.516 95.6713 242.156 95.8339C242.936 96.0182 243.614 96.2403 244.188 96.5005C244.762 96.7498 245.201 97.0858 245.505 97.5085C245.808 97.9312 245.96 98.4893 245.96 99.183C245.96 99.7683 245.852 100.272 245.635 100.695C245.418 101.118 245.115 101.465 244.725 101.735C244.334 101.996 243.885 102.191 243.375 102.321C242.866 102.44 242.318 102.5 241.733 102.5C241.159 102.5 240.584 102.44 240.01 102.321C239.446 102.202 238.904 102.028 238.384 101.801C237.875 101.562 237.403 101.275 236.97 100.939L237.799 99.3781C237.94 99.519 238.14 99.6762 238.4 99.8496C238.671 100.012 238.98 100.169 239.327 100.321C239.685 100.473 240.069 100.603 240.481 100.711C240.904 100.809 241.332 100.858 241.766 100.858C242.492 100.858 243.045 100.733 243.424 100.484C243.814 100.224 244.009 99.855 244.009 99.3781C244.009 98.9879 243.885 98.679 243.635 98.4514C243.386 98.213 243.023 98.0124 242.546 97.8499C242.069 97.6873 241.5 97.5247 240.839 97.3621C240.08 97.1562 239.446 96.934 238.937 96.6956C238.427 96.4463 238.043 96.132 237.782 95.7526C237.533 95.3624 237.408 94.8693 237.408 94.2732C237.408 93.5145 237.593 92.875 237.961 92.3547C238.33 91.8237 238.828 91.428 239.457 91.1679C240.096 90.897 240.812 90.7615 241.603 90.7615C242.123 90.7615 242.616 90.8211 243.082 90.9403C243.549 91.0487 243.982 91.2004 244.383 91.3955C244.795 91.5906 245.169 91.8128 245.505 92.0621L244.676 93.5578Z" fill="#19888F"/>
<path d="M247.477 102.386V100.305H248.957V102.386H247.477Z" fill="#19888F"/>
<path d="M250.939 102.386V100.305H252.418V102.386H250.939Z" fill="#19888F"/>
<path d="M254.4 102.386V100.305H255.879V102.386H254.4Z" fill="#19888F"/>
<path d="M33.6041 155.646V157.256H25.6865V145.713H33.4577V147.322H27.5074V150.606H32.6611V152.118H27.5074V155.646H33.6041Z" fill="#19888F"/>
<path d="M39.6752 145.713L43.1544 155.028L46.6173 145.713H48.552L44.016 157.256H42.2927L37.7405 145.713H39.6752Z" fill="#19888F"/>
<path d="M52.3582 145.713H54.0815L58.5687 157.256H56.6502L55.4309 154.118H50.9763L49.7732 157.256H47.8385L52.3582 145.713ZM55.0732 152.769L53.2198 147.712L51.3014 152.769H55.0732Z" fill="#19888F"/>
<path d="M69.7021 157.256V149.029L66.3042 155.272H65.2312L61.817 149.029V157.256H59.9962V145.713H61.9471L65.7677 152.769L69.5883 145.713H71.5392V157.256H69.7021Z" fill="#19888F"/>
<path d="M78.9384 157.337C78.1038 157.337 77.3505 157.174 76.6786 156.849C76.0066 156.524 75.4267 156.085 74.939 155.532C74.4512 154.969 74.0719 154.34 73.8009 153.646C73.5408 152.942 73.4107 152.221 73.4107 151.484C73.4107 150.715 73.5516 149.983 73.8335 149.289C74.1153 148.585 74.5054 147.962 75.004 147.42C75.5026 146.867 76.0879 146.433 76.7598 146.119C77.4427 145.794 78.1797 145.631 78.9709 145.631C79.7946 145.631 80.5425 145.799 81.2145 146.135C81.8973 146.471 82.4772 146.921 82.9541 147.485C83.4418 148.048 83.8157 148.677 84.0759 149.371C84.3468 150.064 84.4823 150.774 84.4823 151.5C84.4823 152.27 84.3414 153.007 84.0596 153.711C83.7886 154.405 83.4039 155.028 82.9053 155.581C82.4067 156.123 81.816 156.551 81.1332 156.865C80.4612 157.18 79.7296 157.337 78.9384 157.337ZM75.2641 151.484C75.2641 152.026 75.3508 152.552 75.5243 153.061C75.6977 153.571 75.9415 154.026 76.2559 154.427C76.581 154.817 76.9712 155.126 77.4264 155.354C77.8816 155.581 78.391 155.695 78.9547 155.695C79.5399 155.695 80.0602 155.576 80.5154 155.337C80.9706 155.099 81.35 154.779 81.6534 154.378C81.9678 153.966 82.2062 153.511 82.3688 153.012C82.5314 152.503 82.6127 151.994 82.6127 151.484C82.6127 150.942 82.5259 150.422 82.3525 149.923C82.19 149.414 81.9461 148.964 81.6209 148.574C81.2958 148.173 80.9056 147.859 80.4504 147.631C80.006 147.403 79.5074 147.29 78.9547 147.29C78.3694 147.29 77.8491 147.409 77.3939 147.647C76.9387 147.886 76.5539 148.205 76.2396 148.607C75.9253 149.008 75.6814 149.457 75.508 149.956C75.3454 150.454 75.2641 150.964 75.2641 151.484Z" fill="#19888F"/>
<path d="M93.1798 148.428C93.0714 148.308 92.9143 148.184 92.7084 148.054C92.5024 147.913 92.2586 147.783 91.9768 147.664C91.695 147.544 91.3915 147.447 91.0663 147.371C90.7412 147.295 90.4052 147.257 90.0583 147.257C89.2996 147.257 88.736 147.398 88.3675 147.68C87.999 147.962 87.8148 148.352 87.8148 148.85C87.8148 149.219 87.9177 149.512 88.1237 149.728C88.3296 149.934 88.6439 150.108 89.0666 150.249C89.4893 150.389 90.0204 150.541 90.6599 150.704C91.4403 150.888 92.1177 151.11 92.6921 151.37C93.2665 151.62 93.7055 151.956 94.009 152.378C94.3125 152.801 94.4642 153.359 94.4642 154.053C94.4642 154.638 94.3558 155.142 94.139 155.565C93.9223 155.988 93.6188 156.334 93.2286 156.605C92.8384 156.865 92.3886 157.061 91.8792 157.191C91.3698 157.31 90.8225 157.369 90.2372 157.369C89.6627 157.369 89.0883 157.31 88.5138 157.191C87.9502 157.071 87.4083 156.898 86.8881 156.67C86.3787 156.432 85.9072 156.145 85.4736 155.809L86.3028 154.248C86.4437 154.389 86.6442 154.546 86.9043 154.719C87.1753 154.882 87.4842 155.039 87.831 155.191C88.1887 155.343 88.5735 155.473 88.9853 155.581C89.408 155.679 89.8362 155.727 90.2697 155.727C90.9959 155.727 91.5486 155.603 91.928 155.354C92.3182 155.093 92.5133 154.725 92.5133 154.248C92.5133 153.858 92.3886 153.549 92.1393 153.321C91.89 153.083 91.527 152.882 91.0501 152.72C90.5732 152.557 90.0041 152.395 89.343 152.232C88.5843 152.026 87.9502 151.804 87.4408 151.565C86.9314 151.316 86.5467 151.002 86.2865 150.622C86.0372 150.232 85.9126 149.739 85.9126 149.143C85.9126 148.384 86.0969 147.745 86.4654 147.225C86.8339 146.694 87.3324 146.298 87.9611 146.038C88.6006 145.767 89.3159 145.631 90.1071 145.631C90.6274 145.631 91.1205 145.691 91.5866 145.81C92.0526 145.919 92.4862 146.07 92.8872 146.265C93.2991 146.46 93.673 146.683 94.009 146.932L93.1798 148.428Z" fill="#19888F"/>
<path d="M110.013 157.256V149.029L106.615 155.272H105.542L102.128 149.029V157.256H100.307V145.713H102.258L106.079 152.769L109.899 145.713H111.85V157.256H110.013Z" fill="#19888F"/>
<path d="M122.371 155.646V157.256H114.453V145.713H122.225V147.322H116.274V150.606H121.428V152.118H116.274V155.646H122.371Z" fill="#19888F"/>
<path d="M124.249 157.256V145.713H128.346C129.593 145.713 130.633 145.973 131.468 146.493C132.302 147.002 132.926 147.696 133.337 148.574C133.76 149.441 133.972 150.406 133.972 151.468C133.972 152.638 133.738 153.657 133.272 154.524C132.817 155.391 132.167 156.063 131.321 156.54C130.476 157.017 129.484 157.256 128.346 157.256H124.249ZM132.118 151.468C132.118 150.655 131.966 149.94 131.663 149.322C131.37 148.693 130.942 148.205 130.379 147.859C129.826 147.501 129.148 147.322 128.346 147.322H126.07V155.646H128.346C129.159 155.646 129.842 155.462 130.395 155.093C130.958 154.725 131.387 154.226 131.679 153.598C131.972 152.969 132.118 152.259 132.118 151.468Z" fill="#19888F"/>
<path d="M135.887 157.256V145.713H137.708V157.256H135.887Z" fill="#19888F"/>
<path d="M140.317 157.256V145.713H145.34C145.861 145.713 146.337 145.821 146.771 146.038C147.204 146.255 147.578 146.542 147.893 146.899C148.218 147.257 148.467 147.658 148.641 148.103C148.825 148.547 148.917 149.002 148.917 149.468C148.917 149.978 148.825 150.465 148.641 150.931C148.456 151.397 148.191 151.798 147.844 152.134C147.508 152.47 147.112 152.714 146.657 152.866L149.372 157.256H147.324L144.82 153.24H142.137V157.256H140.317ZM142.137 151.63H145.324C145.66 151.63 145.958 151.533 146.218 151.338C146.478 151.143 146.684 150.883 146.836 150.557C146.988 150.221 147.064 149.858 147.064 149.468C147.064 149.067 146.977 148.709 146.803 148.395C146.63 148.07 146.402 147.81 146.121 147.615C145.85 147.42 145.552 147.322 145.226 147.322H142.137V151.63Z" fill="#19888F"/>
<path d="M150.756 157.256V155.175H152.236V157.256H150.756Z" fill="#19888F"/>
<path d="M154.217 157.256V155.175H155.697V157.256H154.217Z" fill="#19888F"/>
<path d="M157.679 157.256V155.175H159.158V157.256H157.679Z" fill="#19888F"/>
<path d="M33.584 212.548V214.158H25.6665V202.615H33.4377V204.225H27.4874V207.509H32.6411V209.021H27.4874V212.548H33.584Z" fill="#19888F"/>
<path d="M42.2907 205.33C42.1823 205.211 42.0252 205.086 41.8193 204.956C41.6133 204.815 41.3694 204.685 41.0876 204.566C40.8058 204.447 40.5024 204.349 40.1772 204.273C39.8521 204.197 39.5161 204.159 39.1692 204.159C38.4105 204.159 37.8469 204.3 37.4784 204.582C37.1099 204.864 36.9257 205.254 36.9257 205.753C36.9257 206.121 37.0286 206.414 37.2346 206.631C37.4405 206.837 37.7548 207.01 38.1775 207.151C38.6002 207.292 39.1313 207.444 39.7708 207.606C40.5511 207.79 41.2286 208.013 41.803 208.273C42.3774 208.522 42.8164 208.858 43.1199 209.281C43.4234 209.703 43.5751 210.262 43.5751 210.955C43.5751 211.541 43.4667 212.044 43.2499 212.467C43.0332 212.89 42.7297 213.237 42.3395 213.508C41.9493 213.768 41.4995 213.963 40.9901 214.093C40.4807 214.212 39.9333 214.272 39.3481 214.272C38.7736 214.272 38.1992 214.212 37.6247 214.093C37.0611 213.974 36.5192 213.8 35.999 213.573C35.4896 213.334 35.0181 213.047 34.5845 212.711L35.4137 211.15C35.5546 211.291 35.7551 211.448 36.0152 211.622C36.2862 211.784 36.5951 211.942 36.9419 212.093C37.2996 212.245 37.6844 212.375 38.0962 212.483C38.5189 212.581 38.947 212.63 39.3806 212.63C40.1068 212.63 40.6595 212.505 41.0389 212.256C41.4291 211.996 41.6242 211.627 41.6242 211.15C41.6242 210.76 41.4995 210.451 41.2502 210.224C41.0009 209.985 40.6379 209.785 40.161 209.622C39.6841 209.46 39.115 209.297 38.4539 209.134C37.6952 208.928 37.0611 208.706 36.5517 208.468C36.0423 208.218 35.6575 207.904 35.3974 207.525C35.1481 207.135 35.0235 206.641 35.0235 206.045C35.0235 205.287 35.2077 204.647 35.5763 204.127C35.9448 203.596 36.4433 203.2 37.072 202.94C37.7114 202.669 38.4268 202.534 39.218 202.534C39.7383 202.534 40.2314 202.593 40.6975 202.713C41.1635 202.821 41.5971 202.973 41.9981 203.168C42.4099 203.363 42.7839 203.585 43.1199 203.834L42.2907 205.33Z" fill="#19888F"/>
<path d="M53.8716 204.225H50.0348V214.158H48.1976V204.225H44.3445V202.615H53.8716V204.225Z" fill="#19888F"/>
<path d="M57.6728 202.615H59.3961L63.8832 214.158H61.9648L60.7455 211.02H56.2908L55.0878 214.158H53.1531L57.6728 202.615ZM60.3878 209.671L58.5344 204.615L56.616 209.671H60.3878Z" fill="#19888F"/>
<path d="M65.3107 214.158V202.615H70.3344C70.8546 202.615 71.3315 202.723 71.7651 202.94C72.1986 203.157 72.5725 203.444 72.8869 203.802C73.212 204.159 73.4613 204.56 73.6347 205.005C73.819 205.449 73.9111 205.904 73.9111 206.371C73.9111 206.88 73.819 207.368 73.6347 207.834C73.4505 208.3 73.1849 208.701 72.8381 209.037C72.5021 209.373 72.1065 209.617 71.6513 209.768L74.3663 214.158H72.3178L69.8141 210.142H67.1316V214.158H65.3107ZM67.1316 208.533H70.3181C70.6541 208.533 70.9522 208.435 71.2123 208.24C71.4724 208.045 71.6784 207.785 71.8301 207.46C71.9818 207.124 72.0577 206.761 72.0577 206.371C72.0577 205.97 71.971 205.612 71.7976 205.298C71.6242 204.972 71.3966 204.712 71.1148 204.517C70.8438 204.322 70.5457 204.225 70.2206 204.225H67.1316V208.533Z" fill="#19888F"/>
<path d="M83.9768 212.548V214.158H76.0593V202.615H83.8305V204.225H77.8802V207.509H83.0339V209.021H77.8802V212.548H83.9768Z" fill="#19888F"/>
<path d="M95.5611 214.158V205.932L92.1633 212.175H91.0902L87.6761 205.932V214.158H85.8552V202.615H87.8062L91.6268 209.671L95.4473 202.615H97.3983V214.158H95.5611Z" fill="#19888F"/>
<path d="M104.797 214.239C103.963 214.239 103.21 214.077 102.538 213.752C101.866 213.426 101.286 212.987 100.798 212.435C100.31 211.871 99.931 211.242 99.66 210.549C99.3999 209.844 99.2698 209.124 99.2698 208.386C99.2698 207.617 99.4107 206.885 99.6925 206.192C99.9743 205.487 100.365 204.864 100.863 204.322C101.362 203.769 101.947 203.336 102.619 203.021C103.302 202.696 104.039 202.534 104.83 202.534C105.654 202.534 106.402 202.702 107.074 203.038C107.756 203.374 108.336 203.823 108.813 204.387C109.301 204.951 109.675 205.579 109.935 206.273C110.206 206.967 110.341 207.677 110.341 208.403C110.341 209.172 110.2 209.909 109.919 210.614C109.648 211.307 109.263 211.931 108.764 212.483C108.266 213.025 107.675 213.454 106.992 213.768C106.32 214.082 105.589 214.239 104.797 214.239ZM101.123 208.386C101.123 208.928 101.21 209.454 101.383 209.964C101.557 210.473 101.801 210.928 102.115 211.329C102.44 211.719 102.83 212.028 103.285 212.256C103.741 212.483 104.25 212.597 104.814 212.597C105.399 212.597 105.919 212.478 106.374 212.24C106.83 212.001 107.209 211.681 107.513 211.28C107.827 210.869 108.065 210.413 108.228 209.915C108.39 209.405 108.472 208.896 108.472 208.386C108.472 207.845 108.385 207.324 108.212 206.826C108.049 206.316 107.805 205.867 107.48 205.476C107.155 205.075 106.765 204.761 106.309 204.533C105.865 204.306 105.366 204.192 104.814 204.192C104.228 204.192 103.708 204.311 103.253 204.55C102.798 204.788 102.413 205.108 102.099 205.509C101.784 205.91 101.54 206.36 101.367 206.858C101.204 207.357 101.123 207.866 101.123 208.386Z" fill="#19888F"/>
<path d="M119.039 205.33C118.931 205.211 118.773 205.086 118.567 204.956C118.361 204.815 118.118 204.685 117.836 204.566C117.554 204.447 117.251 204.349 116.925 204.273C116.6 204.197 116.264 204.159 115.917 204.159C115.159 204.159 114.595 204.3 114.227 204.582C113.858 204.864 113.674 205.254 113.674 205.753C113.674 206.121 113.777 206.414 113.983 206.631C114.189 206.837 114.503 207.01 114.926 207.151C115.348 207.292 115.879 207.444 116.519 207.606C117.299 207.79 117.977 208.013 118.551 208.273C119.126 208.522 119.565 208.858 119.868 209.281C120.172 209.703 120.323 210.262 120.323 210.955C120.323 211.541 120.215 212.044 119.998 212.467C119.781 212.89 119.478 213.237 119.088 213.508C118.697 213.768 118.248 213.963 117.738 214.093C117.229 214.212 116.682 214.272 116.096 214.272C115.522 214.272 114.947 214.212 114.373 214.093C113.809 213.974 113.267 213.8 112.747 213.573C112.238 213.334 111.766 213.047 111.333 212.711L112.162 211.15C112.303 211.291 112.503 211.448 112.763 211.622C113.034 211.784 113.343 211.942 113.69 212.093C114.048 212.245 114.433 212.375 114.844 212.483C115.267 212.581 115.695 212.63 116.129 212.63C116.855 212.63 117.408 212.505 117.787 212.256C118.177 211.996 118.372 211.627 118.372 211.15C118.372 210.76 118.248 210.451 117.998 210.224C117.749 209.985 117.386 209.785 116.909 209.622C116.432 209.46 115.863 209.297 115.202 209.134C114.443 208.928 113.809 208.706 113.3 208.468C112.79 208.218 112.406 207.904 112.146 207.525C111.896 207.135 111.772 206.641 111.772 206.045C111.772 205.287 111.956 204.647 112.324 204.127C112.693 203.596 113.192 203.2 113.82 202.94C114.46 202.669 115.175 202.534 115.966 202.534C116.486 202.534 116.98 202.593 117.446 202.713C117.912 202.821 118.345 202.973 118.746 203.168C119.158 203.363 119.532 203.585 119.868 203.834L119.039 205.33Z" fill="#19888F"/>
<path d="M125.435 208.305C125.435 207.601 125.559 206.912 125.809 206.24C126.058 205.558 126.421 204.94 126.898 204.387C127.386 203.823 127.976 203.379 128.67 203.054C129.364 202.718 130.149 202.55 131.027 202.55C132.068 202.55 132.967 202.788 133.726 203.265C134.485 203.731 135.048 204.333 135.417 205.07L133.986 206.029C133.77 205.563 133.493 205.195 133.157 204.924C132.832 204.653 132.474 204.463 132.084 204.355C131.705 204.246 131.331 204.192 130.962 204.192C130.355 204.192 129.824 204.317 129.369 204.566C128.914 204.804 128.529 205.124 128.215 205.525C127.911 205.926 127.678 206.376 127.516 206.875C127.364 207.373 127.288 207.872 127.288 208.37C127.288 208.923 127.38 209.46 127.564 209.98C127.749 210.489 128.003 210.944 128.329 211.345C128.665 211.736 129.06 212.044 129.515 212.272C129.971 212.5 130.469 212.614 131.011 212.614C131.38 212.614 131.764 212.548 132.165 212.418C132.566 212.288 132.935 212.088 133.271 211.817C133.618 211.535 133.889 211.167 134.084 210.711L135.596 211.573C135.357 212.147 134.983 212.635 134.474 213.036C133.975 213.437 133.412 213.741 132.783 213.947C132.165 214.153 131.553 214.256 130.946 214.256C130.133 214.256 129.391 214.088 128.719 213.752C128.047 213.405 127.467 212.95 126.979 212.386C126.491 211.811 126.112 211.172 125.841 210.467C125.57 209.752 125.435 209.031 125.435 208.305Z" fill="#19888F"/>
<path d="M145.198 212.548V214.158H137.28V202.615H145.051V204.225H139.101V207.509H144.255V209.021H139.101V212.548H145.198Z" fill="#19888F"/>
<path d="M147.076 214.158V202.615H152.1C152.62 202.615 153.097 202.723 153.53 202.94C153.964 203.157 154.338 203.444 154.652 203.802C154.977 204.159 155.227 204.56 155.4 205.005C155.584 205.449 155.676 205.904 155.676 206.371C155.676 206.88 155.584 207.368 155.4 207.834C155.216 208.3 154.95 208.701 154.603 209.037C154.267 209.373 153.872 209.617 153.417 209.768L156.132 214.158H154.083L151.579 210.142H148.897V214.158H147.076ZM148.897 208.533H152.083C152.419 208.533 152.717 208.435 152.978 208.24C153.238 208.045 153.444 207.785 153.595 207.46C153.747 207.124 153.823 206.761 153.823 206.371C153.823 205.97 153.736 205.612 153.563 205.298C153.389 204.972 153.162 204.712 152.88 204.517C152.609 204.322 152.311 204.225 151.986 204.225H148.897V208.533Z" fill="#19888F"/>
<path d="M166.184 204.225H162.347V214.158H160.51V204.225H156.657V202.615H166.184V204.225Z" fill="#19888F"/>
<path d="M172.21 214.239C171.376 214.239 170.622 214.077 169.95 213.752C169.278 213.426 168.698 212.987 168.211 212.435C167.723 211.871 167.344 211.242 167.073 210.549C166.813 209.844 166.682 209.124 166.682 208.386C166.682 207.617 166.823 206.885 167.105 206.192C167.387 205.487 167.777 204.864 168.276 204.322C168.774 203.769 169.36 203.336 170.032 203.021C170.714 202.696 171.451 202.534 172.243 202.534C173.066 202.534 173.814 202.702 174.486 203.038C175.169 203.374 175.749 203.823 176.226 204.387C176.714 204.951 177.087 205.579 177.348 206.273C177.619 206.967 177.754 207.677 177.754 208.403C177.754 209.172 177.613 209.909 177.331 210.614C177.06 211.307 176.676 211.931 176.177 212.483C175.678 213.025 175.088 213.454 174.405 213.768C173.733 214.082 173.001 214.239 172.21 214.239ZM168.536 208.386C168.536 208.928 168.623 209.454 168.796 209.964C168.969 210.473 169.213 210.928 169.528 211.329C169.853 211.719 170.243 212.028 170.698 212.256C171.153 212.483 171.663 212.597 172.226 212.597C172.812 212.597 173.332 212.478 173.787 212.24C174.242 212.001 174.622 211.681 174.925 211.28C175.239 210.869 175.478 210.413 175.641 209.915C175.803 209.405 175.884 208.896 175.884 208.386C175.884 207.845 175.798 207.324 175.624 206.826C175.462 206.316 175.218 205.867 174.893 205.476C174.567 205.075 174.177 204.761 173.722 204.533C173.278 204.306 172.779 204.192 172.226 204.192C171.641 204.192 171.121 204.311 170.666 204.55C170.21 204.788 169.826 205.108 169.511 205.509C169.197 205.91 168.953 206.36 168.78 206.858C168.617 207.357 168.536 207.866 168.536 208.386Z" fill="#19888F"/>
<path d="M186.452 205.33C186.343 205.211 186.186 205.086 185.98 204.956C185.774 204.815 185.53 204.685 185.248 204.566C184.967 204.447 184.663 204.349 184.338 204.273C184.013 204.197 183.677 204.159 183.33 204.159C182.571 204.159 182.008 204.3 181.639 204.582C181.271 204.864 181.086 205.254 181.086 205.753C181.086 206.121 181.189 206.414 181.395 206.631C181.601 206.837 181.916 207.01 182.338 207.151C182.761 207.292 183.292 207.444 183.932 207.606C184.712 207.79 185.389 208.013 185.964 208.273C186.538 208.522 186.977 208.858 187.281 209.281C187.584 209.703 187.736 210.262 187.736 210.955C187.736 211.541 187.628 212.044 187.411 212.467C187.194 212.89 186.891 213.237 186.5 213.508C186.11 213.768 185.66 213.963 185.151 214.093C184.642 214.212 184.094 214.272 183.509 214.272C182.934 214.272 182.36 214.212 181.786 214.093C181.222 213.974 180.68 213.8 180.16 213.573C179.65 213.334 179.179 213.047 178.745 212.711L179.575 211.15C179.715 211.291 179.916 211.448 180.176 211.622C180.447 211.784 180.756 211.942 181.103 212.093C181.46 212.245 181.845 212.375 182.257 212.483C182.68 212.581 183.108 212.63 183.541 212.63C184.268 212.63 184.82 212.505 185.2 212.256C185.59 211.996 185.785 211.627 185.785 211.15C185.785 210.76 185.66 210.451 185.411 210.224C185.162 209.985 184.799 209.785 184.322 209.622C183.845 209.46 183.276 209.297 182.615 209.134C181.856 208.928 181.222 208.706 180.713 208.468C180.203 208.218 179.818 207.904 179.558 207.525C179.309 207.135 179.184 206.641 179.184 206.045C179.184 205.287 179.369 204.647 179.737 204.127C180.106 203.596 180.604 203.2 181.233 202.94C181.872 202.669 182.588 202.534 183.379 202.534C183.899 202.534 184.392 202.593 184.858 202.713C185.324 202.821 185.758 202.973 186.159 203.168C186.571 203.363 186.945 203.585 187.281 203.834L186.452 205.33Z" fill="#19888F"/>
<path d="M200.407 205.33C200.299 205.211 200.142 205.086 199.936 204.956C199.73 204.815 199.486 204.685 199.204 204.566C198.922 204.447 198.619 204.349 198.294 204.273C197.969 204.197 197.633 204.159 197.286 204.159C196.527 204.159 195.963 204.3 195.595 204.582C195.226 204.864 195.042 205.254 195.042 205.753C195.042 206.121 195.145 206.414 195.351 206.631C195.557 206.837 195.871 207.01 196.294 207.151C196.717 207.292 197.248 207.444 197.887 207.606C198.668 207.79 199.345 208.013 199.919 208.273C200.494 208.522 200.933 208.858 201.236 209.281C201.54 209.703 201.692 210.262 201.692 210.955C201.692 211.541 201.583 212.044 201.366 212.467C201.15 212.89 200.846 213.237 200.456 213.508C200.066 213.768 199.616 213.963 199.107 214.093C198.597 214.212 198.05 214.272 197.465 214.272C196.89 214.272 196.316 214.212 195.741 214.093C195.178 213.974 194.636 213.8 194.115 213.573C193.606 213.334 193.135 213.047 192.701 212.711L193.53 211.15C193.671 211.291 193.872 211.448 194.132 211.622C194.403 211.784 194.712 211.942 195.058 212.093C195.416 212.245 195.801 212.375 196.213 212.483C196.635 212.581 197.064 212.63 197.497 212.63C198.223 212.63 198.776 212.505 199.155 212.256C199.546 211.996 199.741 211.627 199.741 211.15C199.741 210.76 199.616 210.451 199.367 210.224C199.117 209.985 198.754 209.785 198.277 209.622C197.801 209.46 197.232 209.297 196.57 209.134C195.812 208.928 195.178 208.706 194.668 208.468C194.159 208.218 193.774 207.904 193.514 207.525C193.265 207.135 193.14 206.641 193.14 206.045C193.14 205.287 193.324 204.647 193.693 204.127C194.061 203.596 194.56 203.2 195.188 202.94C195.828 202.669 196.543 202.534 197.334 202.534C197.855 202.534 198.348 202.593 198.814 202.713C199.28 202.821 199.714 202.973 200.115 203.168C200.526 203.363 200.9 203.585 201.236 203.834L200.407 205.33Z" fill="#19888F"/>
<path d="M211.435 212.548V214.158H203.518V202.615H211.289V204.225H205.339V207.509H210.492V209.021H205.339V212.548H211.435Z" fill="#19888F"/>
<path d="M213.005 214.158V212.077H214.484V214.158H213.005Z" fill="#19888F"/>
<path d="M216.466 214.158V212.077H217.945V214.158H216.466Z" fill="#19888F"/>
<path d="M219.927 214.158V212.077H221.407V214.158H219.927Z" fill="#19888F"/>
</svg>
