<svg width="415" height="253" viewBox="0 0 415 253" fill="none" xmlns="http://www.w3.org/2000/svg">
<path d="M398.623 1.00942L16.5128 0.0402609C7.74605 0.0180254 0.623321 6.24485 0.603783 13.9483L0.0355067 238.002C0.0159683 245.706 7.10701 251.968 15.8738 251.991L397.984 252.96C406.751 252.982 413.874 246.755 413.893 239.052L414.462 14.9979C414.481 7.29453 407.39 1.03166 398.623 1.00942Z" fill="#19888F"/>
<path d="M16.2769 22.3813C16.2769 16.7628 20.8316 12.208 26.4502 12.208H382.516C388.135 12.208 392.689 16.7628 392.689 22.3813V50.8666C392.689 56.4852 388.135 61.0399 382.516 61.0399H26.4502C20.8316 61.0399 16.2769 56.4852 16.2769 50.8666V22.3813Z" fill="white"/>
<path d="M16.2568 79.3518C16.2568 73.7332 20.8116 69.1785 26.4301 69.1785H382.496C388.115 69.1785 392.669 73.7332 392.669 79.3518V107.837C392.669 113.456 388.115 118.01 382.496 118.01H26.4302C20.8116 118.01 16.2568 113.456 16.2568 107.837V79.3518Z" fill="white"/>
<path d="M16.2769 136.322C16.2769 130.704 20.8316 126.149 26.4502 126.149H382.516C388.135 126.149 392.689 130.704 392.689 136.322V164.808C392.689 170.426 388.135 174.981 382.516 174.981H26.4502C20.8316 174.981 16.2769 170.426 16.2769 164.808V136.322Z" fill="white"/>
<path d="M16.2568 193.293C16.2568 187.674 20.8116 183.12 26.4301 183.12H382.496C388.115 183.12 392.669 187.674 392.669 193.293V221.778C392.669 227.397 388.115 231.952 382.496 231.952H26.4302C20.8116 231.952 16.2568 227.397 16.2568 221.778V193.293Z" fill="white"/>
<path d="M27.5208 37.3487V45.5199H25.6978V33.963H27.1953L33.7387 42.3132V33.9793H35.5781V45.5199H33.9829L27.5208 37.3487Z" fill="#19888F"/>
<path d="M42.9778 45.6013C42.1422 45.6013 41.388 45.4385 40.7152 45.1129C40.0424 44.7874 39.4619 44.3479 38.9735 43.7945C38.4852 43.2302 38.1054 42.6008 37.8341 41.9063C37.5737 41.201 37.4435 40.4793 37.4435 39.7414C37.4435 38.971 37.5845 38.2385 37.8667 37.544C38.1488 36.8386 38.5395 36.2147 39.0387 35.6721C39.5378 35.1187 40.1238 34.6846 40.7966 34.3699C41.4802 34.0444 42.2182 33.8816 43.0103 33.8816C43.835 33.8816 44.5838 34.0498 45.2566 34.3862C45.9402 34.7226 46.5208 35.1729 46.9983 35.7372C47.4866 36.3015 47.8609 36.9309 48.1214 37.6254C48.3927 38.3199 48.5283 39.0307 48.5283 39.7577C48.5283 40.5282 48.3872 41.2661 48.1051 41.9714C47.8338 42.6659 47.4486 43.2899 46.9494 43.8433C46.4502 44.3859 45.8588 44.8145 45.1752 45.1292C44.5024 45.4439 43.7699 45.6013 42.9778 45.6013ZM39.2991 39.7414C39.2991 40.284 39.3859 40.8103 39.5595 41.3203C39.7331 41.8303 39.9773 42.2861 40.292 42.6876C40.6175 43.0783 41.0082 43.3875 41.464 43.6154C41.9197 43.8433 42.4298 43.9572 42.994 43.9572C43.58 43.9572 44.1009 43.8379 44.5567 43.5991C45.0124 43.3604 45.3922 43.0403 45.6961 42.6388C46.0108 42.2264 46.2495 41.7707 46.4123 41.2715C46.575 40.7615 46.6564 40.2514 46.6564 39.7414C46.6564 39.1989 46.5696 38.678 46.396 38.1788C46.2332 37.6688 45.9891 37.2184 45.6635 36.8278C45.338 36.4263 44.9473 36.1116 44.4915 35.8837C44.0466 35.6558 43.5475 35.5419 42.994 35.5419C42.4081 35.5419 41.8872 35.6613 41.4314 35.9C40.9756 36.1387 40.5904 36.4588 40.2757 36.8603C39.961 37.2619 39.7169 37.7122 39.5432 38.2114C39.3805 38.7105 39.2991 39.2206 39.2991 39.7414ZM43.6288 32.7585L42.4569 32.4004L43.3847 30.6099H45.0938L43.6288 32.7585Z" fill="#19888F"/>
<path d="M57.2363 36.6813C57.1278 36.5619 56.9704 36.4371 56.7642 36.3069C56.5581 36.1658 56.3139 36.0356 56.0318 35.9163C55.7496 35.7969 55.4458 35.6992 55.1202 35.6233C54.7947 35.5473 54.4583 35.5093 54.111 35.5093C53.3514 35.5093 52.7872 35.6504 52.4182 35.9325C52.0493 36.2147 51.8648 36.6053 51.8648 37.1045C51.8648 37.4735 51.9679 37.7664 52.174 37.9835C52.3802 38.1897 52.6949 38.3633 53.1181 38.5044C53.5413 38.6454 54.0731 38.7973 54.7133 38.9601C55.4946 39.1446 56.1728 39.367 56.748 39.6275C57.3231 39.8771 57.7626 40.2135 58.0664 40.6367C58.3703 41.0599 58.5222 41.6187 58.5222 42.3132C58.5222 42.8992 58.4137 43.4038 58.1966 43.827C57.9796 44.2502 57.6758 44.5975 57.2851 44.8688C56.8945 45.1292 56.4441 45.3245 55.9341 45.4548C55.4241 45.5741 54.8761 45.6338 54.2901 45.6338C53.715 45.6338 53.1398 45.5741 52.5647 45.4548C52.0004 45.3354 51.4578 45.1618 50.937 44.9339C50.427 44.6952 49.9549 44.4076 49.5208 44.0712L50.351 42.5086C50.4921 42.6496 50.6928 42.807 50.9533 42.9806C51.2245 43.1434 51.5338 43.3007 51.8811 43.4527C52.2392 43.6046 52.6244 43.7348 53.0367 43.8433C53.46 43.941 53.8886 43.9898 54.3227 43.9898C55.0497 43.9898 55.6031 43.865 55.9829 43.6154C56.3736 43.355 56.5689 42.986 56.5689 42.5086C56.5689 42.1179 56.4441 41.8086 56.1945 41.5808C55.945 41.342 55.5814 41.1413 55.104 40.9785C54.6265 40.8157 54.0568 40.653 53.3948 40.4902C52.6352 40.284 52.0004 40.0615 51.4904 39.8228C50.9804 39.5732 50.5951 39.2585 50.3347 38.8787C50.0851 38.4881 49.9603 37.9943 49.9603 37.3975C49.9603 36.6379 50.1448 35.9976 50.5138 35.4768C50.8827 34.9451 51.3819 34.549 52.0113 34.2885C52.6515 34.0172 53.3677 33.8816 54.1599 33.8816C54.6808 33.8816 55.1745 33.9413 55.6411 34.0607C56.1077 34.1692 56.5418 34.3211 56.9433 34.5164C57.3557 34.7117 57.73 34.9342 58.0664 35.1838L57.2363 36.6813Z" fill="#19888F"/>
<path d="M67.2004 33.963H68.9258L73.4183 45.5199H71.4976L70.2768 42.3783H65.8168L64.6123 45.5199H62.6753L67.2004 33.963ZM69.9187 41.0273L68.0631 35.9651L66.1424 41.0273H69.9187Z" fill="#19888F"/>
<path d="M73.67 39.66C73.67 38.9547 73.7948 38.2656 74.0444 37.5928C74.294 36.9092 74.6575 36.2906 75.135 35.7372C75.6233 35.1729 76.2147 34.728 76.9092 34.4025C77.6037 34.0661 78.3904 33.8979 79.2694 33.8979C80.3111 33.8979 81.2118 34.1366 81.9714 34.6141C82.731 35.0807 83.2953 35.683 83.6643 36.4209L82.2319 37.3812C82.0148 36.9146 81.7381 36.5457 81.4017 36.2744C81.0762 36.0031 80.7181 35.8132 80.3274 35.7047C79.9476 35.5961 79.5732 35.5419 79.2043 35.5419C78.5966 35.5419 78.0649 35.6667 77.6091 35.9163C77.1533 36.155 76.7681 36.4751 76.4534 36.8766C76.1496 37.2781 75.9163 37.7285 75.7535 38.2276C75.6016 38.7268 75.5256 39.226 75.5256 39.7252C75.5256 40.2786 75.6178 40.8157 75.8023 41.3366C75.9868 41.8466 76.2418 42.3024 76.5674 42.7039C76.9038 43.0946 77.2998 43.4038 77.7556 43.6317C78.2114 43.8596 78.7105 43.9735 79.2531 43.9735C79.6221 43.9735 80.0073 43.9084 80.4088 43.7782C80.8103 43.648 81.1793 43.4472 81.5157 43.1759C81.8629 42.8938 82.1342 42.5248 82.3295 42.0691L83.8433 42.9318C83.6046 43.5069 83.2302 43.9952 82.7202 44.3967C82.221 44.7982 81.6567 45.1021 81.0273 45.3083C80.4088 45.5144 79.7957 45.6175 79.188 45.6175C78.3741 45.6175 77.6308 45.4493 76.958 45.1129C76.2852 44.7657 75.7047 44.3099 75.2163 43.7456C74.728 43.1705 74.3482 42.5303 74.0769 41.8249C73.8056 41.1087 73.67 40.3871 73.67 39.66Z" fill="#19888F"/>
<path d="M85.5295 45.5199V33.963H90.5592C91.0801 33.963 91.5576 34.0715 91.9916 34.2885C92.4257 34.5056 92.8001 34.7931 93.1148 35.1512C93.4403 35.5093 93.6899 35.9108 93.8635 36.3557C94.048 36.8007 94.1402 37.2564 94.1402 37.723C94.1402 38.2331 94.048 38.7214 93.8635 39.188C93.679 39.6546 93.4132 40.0561 93.0659 40.3925C92.7295 40.7289 92.3334 40.9731 91.8777 41.125L94.596 45.5199H92.545L90.0383 41.4994H87.3526V45.5199H85.5295ZM87.3526 39.8879H90.5429C90.8793 39.8879 91.1778 39.7903 91.4382 39.5949C91.6986 39.3996 91.9048 39.1392 92.0567 38.8136C92.2086 38.4772 92.2846 38.1137 92.2846 37.723C92.2846 37.3215 92.1978 36.9634 92.0242 36.6487C91.8505 36.3232 91.6227 36.0628 91.3405 35.8674C91.0692 35.6721 90.7708 35.5744 90.4453 35.5744H87.3526V39.8879Z" fill="#19888F"/>
<path d="M104.218 43.9084V45.5199H96.291V33.963H104.072V35.5744H98.114V38.8625H103.274V40.3762H98.114V43.9084H104.218Z" fill="#19888F"/>
<path d="M106.099 45.5199V33.963H110.201C111.448 33.963 112.49 34.2234 113.326 34.7443C114.161 35.2543 114.785 35.9488 115.198 36.8278C115.621 37.6959 115.833 38.6617 115.833 39.7252C115.833 40.8971 115.599 41.9172 115.133 42.7853C114.677 43.6534 114.026 44.3262 113.179 44.8037C112.333 45.2811 111.34 45.5199 110.201 45.5199H106.099ZM113.977 39.7252C113.977 38.9113 113.825 38.1951 113.521 37.5765C113.228 36.9472 112.8 36.4588 112.235 36.1116C111.682 35.7535 111.004 35.5744 110.201 35.5744H107.922V43.9084H110.201C111.014 43.9084 111.698 43.7239 112.252 43.355C112.816 42.986 113.244 42.4869 113.537 41.8575C113.83 41.2281 113.977 40.5173 113.977 39.7252Z" fill="#19888F"/>
<path d="M117.75 45.5199V33.963H119.573V45.5199H117.75Z" fill="#19888F"/>
<path d="M130.666 35.5744H126.824V45.5199H124.985V35.5744H121.127V33.963H130.666V35.5744Z" fill="#19888F"/>
<path d="M134.471 33.963H136.197L140.689 45.5199H138.769L137.548 42.3783H133.088L131.883 45.5199H129.946L134.471 33.963ZM137.19 41.0273L135.334 35.9651L133.413 41.0273H137.19Z" fill="#19888F"/>
<path d="M151.836 45.5199V37.2836L148.434 43.534H147.36L143.942 37.2836V45.5199H142.119V33.963H144.072L147.897 41.0273L151.722 33.963H153.675V45.5199H151.836Z" fill="#19888F"/>
<path d="M161.084 45.6013C160.248 45.6013 159.494 45.4385 158.821 45.1129C158.148 44.7874 157.568 44.3479 157.079 43.7945C156.591 43.2302 156.211 42.6008 155.94 41.9063C155.679 41.201 155.549 40.4793 155.549 39.7414C155.549 38.971 155.69 38.2385 155.972 37.544C156.255 36.8386 156.645 36.2147 157.144 35.6721C157.644 35.1187 158.23 34.6846 158.902 34.3699C159.586 34.0444 160.324 33.8816 161.116 33.8816C161.941 33.8816 162.69 34.0498 163.362 34.3862C164.046 34.7226 164.627 35.1729 165.104 35.7372C165.592 36.3015 165.967 36.9309 166.227 37.6254C166.498 38.3199 166.634 39.0307 166.634 39.7577C166.634 40.5282 166.493 41.2661 166.211 41.9714C165.94 42.6659 165.554 43.2899 165.055 43.8433C164.556 44.3859 163.965 44.8145 163.281 45.1292C162.608 45.4439 161.876 45.6013 161.084 45.6013ZM157.405 39.7414C157.405 40.284 157.492 40.8103 157.665 41.3203C157.839 41.8303 158.083 42.2861 158.398 42.6876C158.723 43.0783 159.114 43.3875 159.57 43.6154C160.025 43.8433 160.536 43.9572 161.1 43.9572C161.686 43.9572 162.207 43.8379 162.662 43.5991C163.118 43.3604 163.498 43.0403 163.802 42.6388C164.117 42.2264 164.355 41.7707 164.518 41.2715C164.681 40.7615 164.762 40.2514 164.762 39.7414C164.762 39.1989 164.675 38.678 164.502 38.1788C164.339 37.6688 164.095 37.2184 163.769 36.8278C163.444 36.4263 163.053 36.1116 162.597 35.8837C162.152 35.6558 161.653 35.5419 161.1 35.5419C160.514 35.5419 159.993 35.6613 159.537 35.9C159.081 36.1387 158.696 36.4588 158.382 36.8603C158.067 37.2619 157.823 37.7122 157.649 38.2114C157.486 38.7105 157.405 39.2206 157.405 39.7414Z" fill="#19888F"/>
<path d="M175.342 36.6813C175.234 36.5619 175.076 36.4371 174.87 36.3069C174.664 36.1658 174.42 36.0356 174.138 35.9163C173.855 35.7969 173.552 35.6992 173.226 35.6233C172.9 35.5473 172.564 35.5093 172.217 35.5093C171.457 35.5093 170.893 35.6504 170.524 35.9325C170.155 36.2147 169.971 36.6053 169.971 37.1045C169.971 37.4735 170.074 37.7664 170.28 37.9835C170.486 38.1897 170.801 38.3633 171.224 38.5044C171.647 38.6454 172.179 38.7973 172.819 38.9601C173.6 39.1446 174.279 39.367 174.854 39.6275C175.429 39.8771 175.868 40.2135 176.172 40.6367C176.476 41.0599 176.628 41.6187 176.628 42.3132C176.628 42.8992 176.519 43.4038 176.302 43.827C176.085 44.2502 175.782 44.5975 175.391 44.8688C175 45.1292 174.55 45.3245 174.04 45.4548C173.53 45.5741 172.982 45.6338 172.396 45.6338C171.821 45.6338 171.246 45.5741 170.67 45.4548C170.106 45.3354 169.564 45.1618 169.043 44.9339C168.533 44.6952 168.061 44.4076 167.627 44.0712L168.457 42.5086C168.598 42.6496 168.799 42.807 169.059 42.9806C169.33 43.1434 169.64 43.3007 169.987 43.4527C170.345 43.6046 170.73 43.7348 171.143 43.8433C171.566 43.941 171.994 43.9898 172.428 43.9898C173.155 43.9898 173.709 43.865 174.089 43.6154C174.479 43.355 174.675 42.986 174.675 42.5086C174.675 42.1179 174.55 41.8086 174.3 41.5808C174.051 41.342 173.687 41.1413 173.21 40.9785C172.732 40.8157 172.163 40.653 171.501 40.4902C170.741 40.284 170.106 40.0615 169.596 39.8228C169.086 39.5732 168.701 39.2585 168.44 38.8787C168.191 38.4881 168.066 37.9943 168.066 37.3975C168.066 36.6379 168.251 35.9976 168.62 35.4768C168.988 34.9451 169.488 34.549 170.117 34.2885C170.757 34.0172 171.473 33.8816 172.266 33.8816C172.787 33.8816 173.28 33.9413 173.747 34.0607C174.214 34.1692 174.648 34.3211 175.049 34.5164C175.461 34.7117 175.836 34.9342 176.172 35.1838L175.342 36.6813Z" fill="#19888F"/>
<path d="M187.28 45.6013C186.444 45.6013 185.69 45.4385 185.017 45.1129C184.344 44.7765 183.764 44.3316 183.276 43.7782C182.787 43.2248 182.407 42.6008 182.136 41.9063C181.876 41.201 181.746 40.4793 181.746 39.7414C181.746 38.971 181.887 38.2385 182.169 37.544C182.451 36.8386 182.842 36.2147 183.341 35.6721C183.84 35.1187 184.426 34.6846 185.099 34.3699C185.782 34.0444 186.52 33.8816 187.312 33.8816C188.137 33.8816 188.886 34.0498 189.559 34.3862C190.242 34.7226 190.823 35.1729 191.3 35.7372C191.789 36.3015 192.163 36.9309 192.423 37.6254C192.695 38.3199 192.83 39.0307 192.83 39.7577C192.83 40.5282 192.689 41.2661 192.407 41.9714C192.136 42.6659 191.751 43.2899 191.251 43.8433C190.752 44.3859 190.161 44.8145 189.477 45.1292C188.804 45.4439 188.072 45.6013 187.28 45.6013ZM187.296 43.9572C187.882 43.9572 188.403 43.8379 188.859 43.5991C189.314 43.3604 189.694 43.0403 189.998 42.6388C190.313 42.2264 190.552 41.7707 190.714 41.2715C190.877 40.7615 190.958 40.2514 190.958 39.7414C190.958 39.1989 190.872 38.6726 190.698 38.1625C190.535 37.6525 190.291 37.2022 189.966 36.8115C189.64 36.4209 189.249 36.1116 188.794 35.8837C188.349 35.645 187.85 35.5256 187.296 35.5256C186.71 35.5256 186.189 35.645 185.733 35.8837C185.278 36.1224 184.892 36.448 184.578 36.8603C184.263 37.2619 184.019 37.7122 183.845 38.2114C183.683 38.7105 183.601 39.2206 183.601 39.7414C183.601 40.284 183.688 40.8103 183.862 41.3203C184.035 41.8303 184.279 42.2807 184.594 42.6713C184.92 43.062 185.31 43.3767 185.766 43.6154C186.222 43.8433 186.732 43.9572 187.296 43.9572ZM187.524 41.4994H189.282L192.798 45.5199H191.04L187.524 41.4994Z" fill="#19888F"/>
<path d="M199.504 45.6013C198.582 45.6013 197.8 45.4439 197.16 45.1292C196.531 44.8145 196.021 44.3859 195.63 43.8433C195.25 43.3007 194.968 42.6822 194.784 41.9877C194.61 41.2932 194.523 40.5716 194.523 39.8228V33.963H196.346V39.8228C196.346 40.3545 196.401 40.87 196.509 41.3692C196.618 41.8575 196.791 42.297 197.03 42.6876C197.269 43.0783 197.589 43.3875 197.99 43.6154C198.403 43.8433 198.907 43.9572 199.504 43.9572C200.112 43.9572 200.616 43.8433 201.018 43.6154C201.43 43.3767 201.75 43.062 201.978 42.6713C202.217 42.2698 202.391 41.8249 202.499 41.3366C202.608 40.8483 202.662 40.3437 202.662 39.8228V33.963H204.501V39.8228C204.501 40.615 204.404 41.3637 204.208 42.0691C204.024 42.7636 203.731 43.3767 203.329 43.9084C202.939 44.4293 202.429 44.8416 201.799 45.1455C201.17 45.4493 200.405 45.6013 199.504 45.6013Z" fill="#19888F"/>
<path d="M214.853 43.9084V45.5199H206.926V33.963H214.706V35.5744H208.749V38.8625H213.909V40.3762H208.749V43.9084H214.853Z" fill="#19888F"/>
<path d="M216.424 45.5199V43.4364H217.905V45.5199H216.424Z" fill="#19888F"/>
<path d="M219.889 45.5199V43.4364H221.371V45.5199H219.889Z" fill="#19888F"/>
<path d="M223.355 45.5199V43.4364H224.836V45.5199H223.355Z" fill="#19888F"/>
<path d="M33.6448 98.8442V100.456H25.7178V88.8988H33.4983V90.5102H27.5408V93.7982H32.7007V95.312H27.5408V98.8442H33.6448Z" fill="#19888F"/>
<path d="M44.3489 100.537C43.5134 100.537 42.7592 100.374 42.0864 100.049C41.4136 99.7232 40.833 99.2837 40.3447 98.7303C39.8564 98.166 39.4766 97.5366 39.2053 96.8421C38.9449 96.1367 38.8146 95.4151 38.8146 94.6772C38.8146 93.9068 38.9557 93.1743 39.2378 92.4798C39.52 91.7744 39.9106 91.1505 40.4098 90.6079C40.909 90.0545 41.495 89.6204 42.1678 89.3057C42.8514 88.9802 43.5893 88.8174 44.3815 88.8174C45.2062 88.8174 45.9549 88.9856 46.6277 89.322C47.3114 89.6584 47.8919 90.1087 48.3694 90.673C48.8577 91.2373 49.2321 91.8667 49.4925 92.5612C49.7638 93.2557 49.8995 93.9664 49.8995 94.6935C49.8995 95.4639 49.7584 96.2019 49.4763 96.9072C49.205 97.6017 48.8198 98.2257 48.3206 98.7791C47.8214 99.3217 47.23 99.7503 46.5464 100.065C45.8736 100.38 45.1411 100.537 44.3489 100.537ZM40.6703 94.6772C40.6703 95.2198 40.7571 95.7461 40.9307 96.2561C41.1043 96.7661 41.3485 97.2219 41.6632 97.6234C41.9887 98.0141 42.3794 98.3233 42.8351 98.5512C43.2909 98.7791 43.8009 98.893 44.3652 98.893C44.9512 98.893 45.4721 98.7737 45.9278 98.5349C46.3836 98.2962 46.7634 97.9761 47.0672 97.5746C47.3819 97.1622 47.6207 96.7064 47.7834 96.2073C47.9462 95.6973 48.0276 95.1872 48.0276 94.6772C48.0276 94.1346 47.9408 93.6138 47.7672 93.1146C47.6044 92.6046 47.3602 92.1542 47.0347 91.7636C46.7091 91.3621 46.3185 91.0474 45.8627 90.8195C45.4178 90.5916 44.9186 90.4777 44.3652 90.4777C43.7792 90.4777 43.2583 90.597 42.8026 90.8358C42.3468 91.0745 41.9616 91.3946 41.6469 91.7961C41.3322 92.1976 41.088 92.648 40.9144 93.1471C40.7516 93.6463 40.6703 94.1563 40.6703 94.6772Z" fill="#19888F"/>
<path d="M60.8696 97.4769C60.8696 98.0954 60.7068 98.6272 60.3813 99.0721C60.0666 99.517 59.638 99.8588 59.0954 100.098C58.5528 100.336 57.956 100.456 57.3049 100.456H51.7869V88.8988H57.7444C58.2869 88.8988 58.7536 89.0453 59.1442 89.3383C59.5457 89.6204 59.8496 89.9893 60.0557 90.4451C60.2728 90.89 60.3813 91.3566 60.3813 91.845C60.3813 92.4092 60.2348 92.941 59.9418 93.4401C59.6597 93.9285 59.2527 94.292 58.721 94.5307C59.383 94.726 59.9038 95.0841 60.2836 95.605C60.6743 96.115 60.8696 96.739 60.8696 97.4769ZM58.9977 97.1351C58.9977 96.8095 58.9272 96.5165 58.7861 96.2561C58.6559 95.9848 58.4714 95.7678 58.2327 95.605C58.0048 95.4314 57.7335 95.3446 57.4188 95.3446H53.6099V98.8768H57.3049C57.6304 98.8768 57.918 98.8008 58.1676 98.6489C58.428 98.4861 58.6288 98.2745 58.7698 98.0141C58.9218 97.7428 58.9977 97.4498 58.9977 97.1351ZM53.6099 90.4777V93.8796H56.9631C57.2669 93.8796 57.5382 93.8091 57.7769 93.668C58.0157 93.5161 58.2056 93.3153 58.3466 93.0658C58.4877 92.8053 58.5582 92.5123 58.5582 92.1868C58.5582 91.8504 58.4931 91.5574 58.3629 91.3078C58.2327 91.0474 58.0536 90.8466 57.8258 90.7055C57.6087 90.5536 57.3537 90.4777 57.0607 90.4777H53.6099Z" fill="#19888F"/>
<path d="M69.6073 91.6171C69.4988 91.4977 69.3415 91.3729 69.1353 91.2427C68.9291 91.1016 68.685 90.9714 68.4028 90.852C68.1207 90.7327 67.8168 90.635 67.4913 90.5591C67.1657 90.4831 66.8293 90.4451 66.4821 90.4451C65.7225 90.4451 65.1582 90.5862 64.7893 90.8683C64.4203 91.1505 64.2358 91.5411 64.2358 92.0403C64.2358 92.4092 64.3389 92.7022 64.5451 92.9193C64.7513 93.1254 65.066 93.2991 65.4892 93.4401C65.9124 93.5812 66.4441 93.7331 67.0844 93.8959C67.8657 94.0804 68.5439 94.3028 69.119 94.5633C69.6941 94.8129 70.1336 95.1493 70.4375 95.5725C70.7413 95.9957 70.8932 96.5545 70.8932 97.249C70.8932 97.835 70.7847 98.3396 70.5677 98.7628C70.3507 99.186 70.0468 99.5333 69.6562 99.8046C69.2655 100.065 68.8152 100.26 68.3052 100.391C67.7951 100.51 67.2471 100.57 66.6611 100.57C66.086 100.57 65.5109 100.51 64.9358 100.391C64.3715 100.271 63.8289 100.098 63.308 99.8697C62.798 99.6309 62.326 99.3434 61.8919 99.007L62.722 97.4444C62.8631 97.5854 63.0639 97.7428 63.3243 97.9164C63.5956 98.0792 63.9049 98.2365 64.2521 98.3884C64.6102 98.5404 64.9954 98.6706 65.4078 98.7791C65.831 98.8768 66.2596 98.9256 66.6937 98.9256C67.4208 98.9256 67.9742 98.8008 68.354 98.5512C68.7446 98.2908 68.94 97.9218 68.94 97.4444C68.94 97.0537 68.8152 96.7444 68.5656 96.5165C68.316 96.2778 67.9525 96.0771 67.475 95.9143C66.9975 95.7515 66.4278 95.5887 65.7659 95.426C65.0063 95.2198 64.3715 94.9973 63.8615 94.7586C63.3514 94.509 62.9662 94.1943 62.7058 93.8145C62.4562 93.4239 62.3314 92.9301 62.3314 92.3333C62.3314 91.5737 62.5159 90.9334 62.8848 90.4126C63.2538 89.8808 63.7529 89.4848 64.3823 89.2243C65.0226 88.953 65.7388 88.8174 66.5309 88.8174C67.0518 88.8174 67.5455 88.8771 68.0122 88.9964C68.4788 89.1049 68.9128 89.2569 69.3143 89.4522C69.7267 89.6475 70.1011 89.87 70.4375 90.1196L69.6073 91.6171Z" fill="#19888F"/>
<path d="M80.6487 98.8442V100.456H72.7216V88.8988H80.5022V90.5102H74.5447V93.7982H79.7046V95.312H74.5447V98.8442H80.6487Z" fill="#19888F"/>
<path d="M82.5294 100.456V88.8988H87.559C88.0799 88.8988 88.5574 89.0073 88.9914 89.2243C89.4255 89.4413 89.7999 89.7289 90.1146 90.087C90.4401 90.4451 90.6897 90.8466 90.8633 91.2915C91.0478 91.7364 91.14 92.1922 91.14 92.6588C91.14 93.1688 91.0478 93.6572 90.8633 94.1238C90.6789 94.5904 90.413 94.9919 90.0657 95.3283C89.7293 95.6647 89.3333 95.9089 88.8775 96.0608L91.5958 100.456H89.5449L87.0382 96.4352H84.3524V100.456H82.5294ZM84.3524 94.8237H87.5428C87.8792 94.8237 88.1776 94.726 88.438 94.5307C88.6984 94.3354 88.9046 94.0749 89.0565 93.7494C89.2085 93.413 89.2844 93.0495 89.2844 92.6588C89.2844 92.2573 89.1976 91.8992 89.024 91.5845C88.8504 91.259 88.6225 90.9985 88.3403 90.8032C88.0691 90.6079 87.7706 90.5102 87.4451 90.5102H84.3524V94.8237Z" fill="#19888F"/>
<path d="M93.6736 88.8988L97.1569 98.2257L100.624 88.8988H102.561L98.0196 100.456H96.2942L91.7366 88.8988H93.6736Z" fill="#19888F"/>
<path d="M106.372 88.8988H108.097L112.59 100.456H110.669L109.448 97.3141H104.988L103.784 100.456H101.847L106.372 88.8988ZM109.09 95.9631L107.234 90.9009L105.314 95.9631H109.09Z" fill="#19888F"/>
<path d="M123.736 100.456V92.2193L120.335 98.4698H119.26L115.842 92.2193V100.456H114.019V88.8988H115.972L119.797 95.9631L123.623 88.8988H125.576V100.456H123.736Z" fill="#19888F"/>
<path d="M132.984 100.537C132.148 100.537 131.394 100.374 130.721 100.049C130.049 99.7232 129.468 99.2837 128.98 98.7303C128.491 98.166 128.112 97.5366 127.84 96.8421C127.58 96.1367 127.45 95.4151 127.45 94.6772C127.45 93.9068 127.591 93.1743 127.873 92.4798C128.155 91.7744 128.546 91.1505 129.045 90.6079C129.544 90.0545 130.13 89.6204 130.803 89.3057C131.486 88.9802 132.224 88.8174 133.016 88.8174C133.841 88.8174 134.59 88.9856 135.263 89.322C135.946 89.6584 136.527 90.1087 137.004 90.673C137.493 91.2373 137.867 91.8667 138.128 92.5612C138.399 93.2557 138.534 93.9664 138.534 94.6935C138.534 95.4639 138.393 96.2019 138.111 96.9072C137.84 97.6017 137.455 98.2257 136.956 98.7791C136.456 99.3217 135.865 99.7503 135.181 100.065C134.509 100.38 133.776 100.537 132.984 100.537ZM129.305 94.6772C129.305 95.2198 129.392 95.7461 129.566 96.2561C129.739 96.7661 129.983 97.2219 130.298 97.6234C130.624 98.0141 131.014 98.3233 131.47 98.5512C131.926 98.7791 132.436 98.893 133 98.893C133.586 98.893 134.107 98.7737 134.563 98.5349C135.019 98.2962 135.398 97.9761 135.702 97.5746C136.017 97.1622 136.256 96.7064 136.418 96.2073C136.581 95.6973 136.663 95.1872 136.663 94.6772C136.663 94.1346 136.576 93.6138 136.402 93.1146C136.239 92.6046 135.995 92.1542 135.67 91.7636C135.344 91.3621 134.953 91.0474 134.498 90.8195C134.053 90.5916 133.554 90.4777 133 90.4777C132.414 90.4777 131.893 90.597 131.438 90.8358C130.982 91.0745 130.597 91.3946 130.282 91.7961C129.967 92.1976 129.723 92.648 129.549 93.1471C129.387 93.6463 129.305 94.1563 129.305 94.6772Z" fill="#19888F"/>
<path d="M147.242 91.6171C147.134 91.4977 146.977 91.3729 146.77 91.2427C146.564 91.1016 146.32 90.9714 146.038 90.852C145.756 90.7327 145.452 90.635 145.126 90.5591C144.801 90.4831 144.464 90.4451 144.117 90.4451C143.358 90.4451 142.793 90.5862 142.424 90.8683C142.055 91.1505 141.871 91.5411 141.871 92.0403C141.871 92.4092 141.974 92.7022 142.18 92.9193C142.386 93.1254 142.701 93.2991 143.124 93.4401C143.547 93.5812 144.079 93.7331 144.719 93.8959C145.501 94.0804 146.179 94.3028 146.754 94.5633C147.329 94.8129 147.769 95.1493 148.073 95.5725C148.376 95.9957 148.528 96.5545 148.528 97.249C148.528 97.835 148.42 98.3396 148.203 98.7628C147.986 99.186 147.682 99.5333 147.291 99.8046C146.901 100.065 146.45 100.26 145.94 100.391C145.43 100.51 144.882 100.57 144.296 100.57C143.721 100.57 143.146 100.51 142.571 100.391C142.007 100.271 141.464 100.098 140.943 99.8697C140.433 99.6309 139.961 99.3434 139.527 99.007L140.357 97.4444C140.498 97.5854 140.699 97.7428 140.959 97.9164C141.231 98.0792 141.54 98.2365 141.887 98.3884C142.245 98.5404 142.631 98.6706 143.043 98.7791C143.466 98.8768 143.895 98.9256 144.329 98.9256C145.056 98.9256 145.609 98.8008 145.989 98.5512C146.38 98.2908 146.575 97.9218 146.575 97.4444C146.575 97.0537 146.45 96.7444 146.201 96.5165C145.951 96.2778 145.588 96.0771 145.11 95.9143C144.633 95.7515 144.063 95.5887 143.401 95.426C142.641 95.2198 142.007 94.9973 141.497 94.7586C140.986 94.509 140.601 94.1943 140.341 93.8145C140.091 93.4239 139.966 92.9301 139.966 92.3333C139.966 91.5737 140.151 90.9334 140.52 90.4126C140.889 89.8808 141.388 89.4848 142.017 89.2243C142.658 88.953 143.374 88.8174 144.166 88.8174C144.687 88.8174 145.181 88.8771 145.647 88.9964C146.114 89.1049 146.548 89.2569 146.949 89.4522C147.362 89.6475 147.736 89.87 148.073 90.1196L147.242 91.6171Z" fill="#19888F"/>
<path d="M159.18 100.537C158.345 100.537 157.59 100.374 156.918 100.049C156.245 99.7123 155.664 99.2674 155.176 98.714C154.688 98.1606 154.308 97.5366 154.037 96.8421C153.776 96.1367 153.646 95.4151 153.646 94.6772C153.646 93.9068 153.787 93.1743 154.069 92.4798C154.351 91.7744 154.742 91.1505 155.241 90.6079C155.74 90.0545 156.326 89.6204 156.999 89.3057C157.683 88.9802 158.421 88.8174 159.213 88.8174C160.037 88.8174 160.786 88.9856 161.459 89.322C162.143 89.6584 162.723 90.1087 163.201 90.673C163.689 91.2373 164.063 91.8667 164.324 92.5612C164.595 93.2557 164.731 93.9664 164.731 94.6935C164.731 95.4639 164.59 96.2019 164.308 96.9072C164.036 97.6017 163.651 98.2257 163.152 98.7791C162.653 99.3217 162.061 99.7503 161.378 100.065C160.705 100.38 159.972 100.537 159.18 100.537ZM159.196 98.893C159.782 98.893 160.303 98.7737 160.759 98.5349C161.215 98.2962 161.595 97.9761 161.898 97.5746C162.213 97.1622 162.452 96.7064 162.615 96.2073C162.777 95.6973 162.859 95.1872 162.859 94.6772C162.859 94.1346 162.772 93.6083 162.598 93.0983C162.436 92.5883 162.191 92.138 161.866 91.7473C161.54 91.3566 161.15 91.0474 160.694 90.8195C160.249 90.5808 159.75 90.4614 159.196 90.4614C158.61 90.4614 158.09 90.5808 157.634 90.8195C157.178 91.0582 156.793 91.3838 156.478 91.7961C156.163 92.1976 155.919 92.648 155.746 93.1471C155.583 93.6463 155.501 94.1563 155.501 94.6772C155.501 95.2198 155.588 95.7461 155.762 96.2561C155.936 96.7661 156.18 97.2165 156.494 97.6071C156.82 97.9978 157.211 98.3125 157.666 98.5512C158.122 98.7791 158.632 98.893 159.196 98.893ZM159.424 96.4352H161.182L164.698 100.456H162.94L159.424 96.4352Z" fill="#19888F"/>
<path d="M171.404 100.537C170.482 100.537 169.701 100.38 169.06 100.065C168.431 99.7503 167.921 99.3217 167.53 98.7791C167.151 98.2365 166.868 97.618 166.684 96.9235C166.51 96.229 166.424 95.5074 166.424 94.7586V88.8988H168.247V94.7586C168.247 95.2903 168.301 95.8058 168.409 96.3049C168.518 96.7933 168.692 97.2327 168.93 97.6234C169.169 98.0141 169.489 98.3233 169.891 98.5512C170.303 98.7791 170.808 98.893 171.404 98.893C172.012 98.893 172.517 98.7791 172.918 98.5512C173.331 98.3125 173.651 97.9978 173.879 97.6071C174.117 97.2056 174.291 96.7607 174.399 96.2724C174.508 95.7841 174.562 95.2795 174.562 94.7586V88.8988H176.402V94.7586C176.402 95.5508 176.304 96.2995 176.109 97.0049C175.924 97.6994 175.631 98.3125 175.23 98.8442C174.839 99.3651 174.329 99.7774 173.699 100.081C173.07 100.385 172.305 100.537 171.404 100.537Z" fill="#19888F"/>
<path d="M186.753 98.8442V100.456H178.826V88.8988H186.607V90.5102H180.649V93.7982H185.809V95.312H180.649V98.8442H186.753Z" fill="#19888F"/>
<path d="M188.325 100.456V98.3722H189.806V100.456H188.325Z" fill="#19888F"/>
<path d="M191.79 100.456V98.3722H193.271V100.456H191.79Z" fill="#19888F"/>
<path d="M195.255 100.456V98.3722H196.736V100.456H195.255Z" fill="#19888F"/>
<path d="M29.0544 145.869H30.7798L35.2723 157.426H33.3516L32.1308 154.285H27.6708L26.4663 157.426H24.5293L29.0544 145.869ZM31.7727 152.934L29.9171 147.872L27.9964 152.934H31.7727Z" fill="#19888F"/>
<path d="M40.2145 157.426V145.869H45.0651C45.586 145.869 46.0635 145.978 46.4975 146.195C46.9316 146.412 47.3114 146.7 47.637 147.058C47.9625 147.416 48.2121 147.817 48.3857 148.262C48.5593 148.707 48.6461 149.163 48.6461 149.63C48.6461 150.27 48.4997 150.883 48.2067 151.469C47.9245 152.044 47.5176 152.511 46.9859 152.869C46.465 153.227 45.8573 153.406 45.1628 153.406H42.0376V157.426H40.2145ZM42.0376 151.794H45.0489C45.3961 151.794 45.7 151.702 45.9604 151.518C46.2208 151.322 46.4216 151.062 46.5627 150.736C46.7146 150.411 46.7905 150.042 46.7905 149.63C46.7905 149.206 46.7037 148.832 46.5301 148.506C46.3565 148.181 46.1286 147.931 45.8465 147.758C45.5752 147.573 45.2767 147.481 44.9512 147.481H42.0376V151.794Z" fill="#19888F"/>
<path d="M52.8663 145.869H54.5917L59.0842 157.426H57.1635L55.9427 154.285H51.4827L50.2782 157.426H48.3412L52.8663 145.869ZM55.5846 152.934L53.729 147.872L51.8083 152.934H55.5846Z" fill="#19888F"/>
<path d="M60.5134 157.426V145.869H65.5431C66.064 145.869 66.5415 145.978 66.9755 146.195C67.4096 146.412 67.784 146.7 68.0987 147.058C68.4242 147.416 68.6738 147.817 68.8474 148.262C69.0319 148.707 69.1241 149.163 69.1241 149.63C69.1241 150.14 69.0319 150.628 68.8474 151.094C68.6629 151.561 68.3971 151.963 68.0498 152.299C67.7134 152.635 67.3173 152.88 66.8616 153.031L69.5799 157.426H67.529L65.0222 153.406H62.3365V157.426H60.5134ZM62.3365 151.794H65.5268C65.8632 151.794 66.1617 151.697 66.4221 151.501C66.6825 151.306 66.8887 151.046 67.0406 150.72C67.1926 150.384 67.2685 150.02 67.2685 149.63C67.2685 149.228 67.1817 148.87 67.0081 148.555C66.8345 148.23 66.6066 147.969 66.3244 147.774C66.0531 147.579 65.7547 147.481 65.4292 147.481H62.3365V151.794Z" fill="#19888F"/>
<path d="M79.6441 147.481H75.8027V157.426H73.9633V147.481H70.1056V145.869H79.6441V147.481Z" fill="#19888F"/>
<path d="M81.1939 157.426V145.869H83.0169V157.426H81.1939Z" fill="#19888F"/>
<path d="M85.6288 157.426V145.869H90.6585C91.1794 145.869 91.6568 145.978 92.0909 146.195C92.525 146.412 92.8993 146.7 93.214 147.058C93.5396 147.416 93.7892 147.817 93.9628 148.262C94.1473 148.707 94.2395 149.163 94.2395 149.63C94.2395 150.14 94.1473 150.628 93.9628 151.094C93.7783 151.561 93.5124 151.963 93.1652 152.299C92.8288 152.635 92.4327 152.88 91.977 153.031L94.6953 157.426H92.6443L90.1376 153.406H87.4519V157.426H85.6288ZM87.4519 151.794H90.6422C90.9786 151.794 91.277 151.697 91.5375 151.501C91.7979 151.306 92.0041 151.046 92.156 150.72C92.3079 150.384 92.3839 150.02 92.3839 149.63C92.3839 149.228 92.2971 148.87 92.1234 148.555C91.9498 148.23 91.7219 147.969 91.4398 147.774C91.1685 147.579 90.8701 147.481 90.5445 147.481H87.4519V151.794Z" fill="#19888F"/>
<path d="M100.412 157.426V145.869H104.514C105.762 145.869 106.803 146.13 107.639 146.651C108.475 147.161 109.099 147.855 109.511 148.734C109.934 149.602 110.146 150.568 110.146 151.632C110.146 152.804 109.912 153.824 109.446 154.692C108.99 155.56 108.339 156.233 107.493 156.71C106.646 157.188 105.653 157.426 104.514 157.426H100.412ZM108.29 151.632C108.29 150.818 108.138 150.102 107.834 149.483C107.541 148.854 107.113 148.365 106.548 148.018C105.995 147.66 105.317 147.481 104.514 147.481H102.235V155.815H104.514C105.328 155.815 106.011 155.63 106.565 155.261C107.129 154.893 107.558 154.393 107.851 153.764C108.144 153.135 108.29 152.424 108.29 151.632Z" fill="#19888F"/>
<path d="M112.064 157.426V145.869H113.887V157.426H112.064Z" fill="#19888F"/>
<path d="M123.335 148.588C123.226 148.468 123.069 148.344 122.863 148.213C122.657 148.072 122.413 147.942 122.13 147.823C121.848 147.703 121.544 147.606 121.219 147.53C120.893 147.454 120.557 147.416 120.21 147.416C119.45 147.416 118.886 147.557 118.517 147.839C118.148 148.121 117.963 148.512 117.963 149.011C117.963 149.38 118.066 149.673 118.273 149.89C118.479 150.096 118.794 150.27 119.217 150.411C119.64 150.552 120.172 150.704 120.812 150.867C121.593 151.051 122.271 151.274 122.847 151.534C123.422 151.784 123.861 152.12 124.165 152.543C124.469 152.966 124.621 153.525 124.621 154.22C124.621 154.806 124.512 155.31 124.295 155.734C124.078 156.157 123.774 156.504 123.384 156.775C122.993 157.036 122.543 157.231 122.033 157.361C121.523 157.481 120.975 157.54 120.389 157.54C119.814 157.54 119.238 157.481 118.663 157.361C118.099 157.242 117.556 157.068 117.036 156.84C116.526 156.602 116.054 156.314 115.619 155.978L116.45 154.415C116.591 154.556 116.791 154.713 117.052 154.887C117.323 155.05 117.632 155.207 117.98 155.359C118.338 155.511 118.723 155.641 119.135 155.75C119.559 155.847 119.987 155.896 120.421 155.896C121.148 155.896 121.702 155.771 122.082 155.522C122.472 155.261 122.668 154.893 122.668 154.415C122.668 154.024 122.543 153.715 122.293 153.487C122.044 153.249 121.68 153.048 121.203 152.885C120.725 152.722 120.155 152.559 119.493 152.397C118.734 152.19 118.099 151.968 117.589 151.729C117.079 151.48 116.694 151.165 116.433 150.785C116.184 150.395 116.059 149.901 116.059 149.304C116.059 148.544 116.243 147.904 116.612 147.383C116.981 146.852 117.481 146.455 118.11 146.195C118.75 145.924 119.466 145.788 120.258 145.788C120.779 145.788 121.273 145.848 121.74 145.967C122.206 146.076 122.64 146.228 123.042 146.423C123.454 146.618 123.829 146.841 124.165 147.09L123.335 148.588Z" fill="#19888F"/>
<path d="M133.286 148.588C133.177 148.468 133.02 148.344 132.814 148.213C132.607 148.072 132.363 147.942 132.081 147.823C131.799 147.703 131.495 147.606 131.17 147.53C130.844 147.454 130.508 147.416 130.16 147.416C129.401 147.416 128.837 147.557 128.468 147.839C128.099 148.121 127.914 148.512 127.914 149.011C127.914 149.38 128.017 149.673 128.223 149.89C128.43 150.096 128.744 150.27 129.168 150.411C129.591 150.552 130.122 150.704 130.763 150.867C131.544 151.051 132.222 151.274 132.797 151.534C133.372 151.784 133.812 152.12 134.116 152.543C134.42 152.966 134.572 153.525 134.572 154.22C134.572 154.806 134.463 155.31 134.246 155.734C134.029 156.157 133.725 156.504 133.335 156.775C132.944 157.036 132.494 157.231 131.983 157.361C131.473 157.481 130.925 157.54 130.339 157.54C129.764 157.54 129.189 157.481 128.614 157.361C128.05 157.242 127.507 157.068 126.986 156.84C126.476 156.602 126.004 156.314 125.57 155.978L126.4 154.415C126.541 154.556 126.742 154.713 127.003 154.887C127.274 155.05 127.583 155.207 127.93 155.359C128.289 155.511 128.674 155.641 129.086 155.75C129.509 155.847 129.938 155.896 130.372 155.896C131.099 155.896 131.653 155.771 132.032 155.522C132.423 155.261 132.618 154.893 132.618 154.415C132.618 154.024 132.494 153.715 132.244 153.487C131.994 153.249 131.631 153.048 131.153 152.885C130.676 152.722 130.106 152.559 129.444 152.397C128.685 152.19 128.05 151.968 127.54 151.729C127.03 151.48 126.645 151.165 126.384 150.785C126.135 150.395 126.01 149.901 126.01 149.304C126.01 148.544 126.194 147.904 126.563 147.383C126.932 146.852 127.431 146.455 128.061 146.195C128.701 145.924 129.417 145.788 130.209 145.788C130.73 145.788 131.224 145.848 131.69 145.967C132.157 146.076 132.591 146.228 132.993 146.423C133.405 146.618 133.779 146.841 134.116 147.09L133.286 148.588Z" fill="#19888F"/>
<path d="M141.202 157.508C140.366 157.508 139.612 157.345 138.939 157.019C138.266 156.694 137.686 156.254 137.198 155.701C136.709 155.137 136.329 154.507 136.058 153.813C135.798 153.107 135.667 152.386 135.667 151.648C135.667 150.877 135.809 150.145 136.091 149.45C136.373 148.745 136.764 148.121 137.263 147.579C137.762 147.025 138.348 146.591 139.021 146.276C139.704 145.951 140.442 145.788 141.234 145.788C142.059 145.788 142.808 145.956 143.481 146.293C144.164 146.629 144.745 147.079 145.222 147.644C145.711 148.208 146.085 148.837 146.345 149.532C146.617 150.226 146.752 150.937 146.752 151.664C146.752 152.435 146.611 153.173 146.329 153.878C146.058 154.572 145.673 155.196 145.173 155.75C144.674 156.292 144.083 156.721 143.399 157.036C142.726 157.35 141.994 157.508 141.202 157.508ZM137.523 151.648C137.523 152.19 137.61 152.717 137.784 153.227C137.957 153.737 138.201 154.193 138.516 154.594C138.842 154.985 139.232 155.294 139.688 155.522C140.144 155.75 140.654 155.864 141.218 155.864C141.804 155.864 142.325 155.744 142.781 155.506C143.236 155.267 143.616 154.947 143.92 154.545C144.235 154.133 144.474 153.677 144.636 153.178C144.799 152.668 144.88 152.158 144.88 151.648C144.88 151.105 144.794 150.584 144.62 150.085C144.457 149.575 144.213 149.125 143.888 148.734C143.562 148.333 143.171 148.018 142.716 147.79C142.271 147.562 141.771 147.448 141.218 147.448C140.632 147.448 140.111 147.568 139.655 147.806C139.2 148.045 138.814 148.365 138.5 148.767C138.185 149.168 137.941 149.619 137.767 150.118C137.604 150.617 137.523 151.127 137.523 151.648Z" fill="#19888F"/>
<path d="M155.49 145.869H157.215L161.707 157.426H159.787L158.566 154.285H154.106L152.901 157.426H150.964L155.49 145.869ZM158.208 152.934L156.352 147.872L154.432 152.934H158.208Z" fill="#19888F"/>
<path d="M163.137 157.426V145.869H167.987C168.508 145.869 168.986 145.978 169.42 146.195C169.854 146.412 170.234 146.7 170.559 147.058C170.885 147.416 171.134 147.817 171.308 148.262C171.482 148.707 171.568 149.163 171.568 149.63C171.568 150.27 171.422 150.883 171.129 151.469C170.847 152.044 170.44 152.511 169.908 152.869C169.387 153.227 168.78 153.406 168.085 153.406H164.96V157.426H163.137ZM164.96 151.794H167.971C168.318 151.794 168.622 151.702 168.883 151.518C169.143 151.322 169.344 151.062 169.485 150.736C169.637 150.411 169.713 150.042 169.713 149.63C169.713 149.206 169.626 148.832 169.452 148.506C169.279 148.181 169.051 147.931 168.769 147.758C168.497 147.573 168.199 147.481 167.873 147.481H164.96V151.794Z" fill="#19888F"/>
<path d="M173.278 157.426V145.869H178.308C178.829 145.869 179.306 145.978 179.74 146.195C180.174 146.412 180.549 146.7 180.863 147.058C181.189 147.416 181.439 147.817 181.612 148.262C181.797 148.707 181.889 149.163 181.889 149.63C181.889 150.14 181.797 150.628 181.612 151.094C181.428 151.561 181.162 151.963 180.815 152.299C180.478 152.635 180.082 152.88 179.626 153.031L182.345 157.426H180.294L177.787 153.406H175.101V157.426H173.278ZM175.101 151.794H178.292C178.628 151.794 178.926 151.697 179.187 151.501C179.447 151.306 179.653 151.046 179.805 150.72C179.957 150.384 180.033 150.02 180.033 149.63C180.033 149.228 179.946 148.87 179.773 148.555C179.599 148.23 179.371 147.969 179.089 147.774C178.818 147.579 178.52 147.481 178.194 147.481H175.101V151.794Z" fill="#19888F"/>
<path d="M191.967 155.815V157.426H184.04V145.869H191.82V147.481H185.863V150.769H191.023V152.283H185.863V155.815H191.967Z" fill="#19888F"/>
<path d="M195.67 149.255V157.426H193.847V145.869H195.345L201.888 154.22V145.886H203.728V157.426H202.133L195.67 149.255Z" fill="#19888F"/>
<path d="M206.326 157.426V145.869H210.427C211.675 145.869 212.717 146.13 213.553 146.651C214.388 147.161 215.012 147.855 215.425 148.734C215.848 149.602 216.059 150.568 216.059 151.632C216.059 152.804 215.826 153.824 215.359 154.692C214.904 155.56 214.253 156.233 213.406 156.71C212.56 157.188 211.567 157.426 210.427 157.426H206.326ZM214.204 151.632C214.204 150.818 214.052 150.102 213.748 149.483C213.455 148.854 213.026 148.365 212.462 148.018C211.909 147.66 211.23 147.481 210.427 147.481H208.149V155.815H210.427C211.241 155.815 211.925 155.63 212.478 155.261C213.043 154.893 213.471 154.393 213.764 153.764C214.057 153.135 214.204 152.424 214.204 151.632Z" fill="#19888F"/>
<path d="M225.904 155.815V157.426H217.977V145.869H225.758V147.481H219.8V150.769H224.96V152.283H219.8V155.815H225.904Z" fill="#19888F"/>
<path d="M237.502 157.426V149.19L234.1 155.441H233.026L229.608 149.19V157.426H227.785V145.869H229.738L233.563 152.934L237.389 145.869H239.342V157.426H237.502Z" fill="#19888F"/>
<path d="M246.75 157.508C245.914 157.508 245.16 157.345 244.487 157.019C243.815 156.694 243.234 156.254 242.746 155.701C242.257 155.137 241.878 154.507 241.606 153.813C241.346 153.107 241.216 152.386 241.216 151.648C241.216 150.877 241.357 150.145 241.639 149.45C241.921 148.745 242.312 148.121 242.811 147.579C243.31 147.025 243.896 146.591 244.569 146.276C245.252 145.951 245.99 145.788 246.782 145.788C247.607 145.788 248.356 145.956 249.029 146.293C249.712 146.629 250.293 147.079 250.77 147.644C251.259 148.208 251.633 148.837 251.894 149.532C252.165 150.226 252.3 150.937 252.3 151.664C252.3 152.435 252.159 153.173 251.877 153.878C251.606 154.572 251.221 155.196 250.722 155.75C250.222 156.292 249.631 156.721 248.947 157.036C248.275 157.35 247.542 157.508 246.75 157.508ZM243.071 151.648C243.071 152.19 243.158 152.717 243.332 153.227C243.505 153.737 243.749 154.193 244.064 154.594C244.39 154.985 244.78 155.294 245.236 155.522C245.692 155.75 246.202 155.864 246.766 155.864C247.352 155.864 247.873 155.744 248.329 155.506C248.785 155.267 249.164 154.947 249.468 154.545C249.783 154.133 250.022 153.677 250.184 153.178C250.347 152.668 250.429 152.158 250.429 151.648C250.429 151.105 250.342 150.584 250.168 150.085C250.005 149.575 249.761 149.125 249.436 148.734C249.11 148.333 248.719 148.018 248.264 147.79C247.819 147.562 247.32 147.448 246.766 147.448C246.18 147.448 245.659 147.568 245.204 147.806C244.748 148.045 244.363 148.365 244.048 148.767C243.733 149.168 243.489 149.619 243.315 150.118C243.153 150.617 243.071 151.127 243.071 151.648Z" fill="#19888F"/>
<path d="M261.008 148.588C260.9 148.468 260.743 148.344 260.536 148.213C260.33 148.072 260.086 147.942 259.804 147.823C259.522 147.703 259.218 147.606 258.892 147.53C258.567 147.454 258.23 147.416 257.883 147.416C257.124 147.416 256.559 147.557 256.19 147.839C255.821 148.121 255.637 148.512 255.637 149.011C255.637 149.38 255.74 149.673 255.946 149.89C256.152 150.096 256.467 150.27 256.89 150.411C257.313 150.552 257.845 150.704 258.485 150.867C259.267 151.051 259.945 151.274 260.52 151.534C261.095 151.784 261.535 152.12 261.839 152.543C262.142 152.966 262.294 153.525 262.294 154.22C262.294 154.806 262.186 155.31 261.969 155.734C261.752 156.157 261.448 156.504 261.057 156.775C260.667 157.036 260.216 157.231 259.706 157.361C259.196 157.481 258.648 157.54 258.062 157.54C257.487 157.54 256.912 157.481 256.337 157.361C255.773 157.242 255.23 157.068 254.709 156.84C254.199 156.602 253.727 156.314 253.293 155.978L254.123 154.415C254.264 154.556 254.465 154.713 254.725 154.887C254.997 155.05 255.306 155.207 255.653 155.359C256.011 155.511 256.396 155.641 256.809 155.75C257.232 155.847 257.661 155.896 258.095 155.896C258.822 155.896 259.375 155.771 259.755 155.522C260.146 155.261 260.341 154.893 260.341 154.415C260.341 154.024 260.216 153.715 259.967 153.487C259.717 153.249 259.354 153.048 258.876 152.885C258.399 152.722 257.829 152.559 257.167 152.397C256.407 152.19 255.773 151.968 255.263 151.729C254.752 151.48 254.367 151.165 254.107 150.785C253.857 150.395 253.732 149.901 253.732 149.304C253.732 148.544 253.917 147.904 254.286 147.383C254.655 146.852 255.154 146.455 255.783 146.195C256.424 145.924 257.14 145.788 257.932 145.788C258.453 145.788 258.947 145.848 259.413 145.967C259.88 146.076 260.314 146.228 260.715 146.423C261.128 146.618 261.502 146.841 261.839 147.09L261.008 148.588Z" fill="#19888F"/>
<path d="M272.946 157.508C272.111 157.508 271.356 157.345 270.684 157.019C270.011 156.683 269.43 156.238 268.942 155.685C268.454 155.131 268.074 154.507 267.803 153.813C267.542 153.107 267.412 152.386 267.412 151.648C267.412 150.877 267.553 150.145 267.835 149.45C268.117 148.745 268.508 148.121 269.007 147.579C269.506 147.025 270.092 146.591 270.765 146.276C271.449 145.951 272.187 145.788 272.979 145.788C273.803 145.788 274.552 145.956 275.225 146.293C275.909 146.629 276.489 147.079 276.967 147.644C277.455 148.208 277.829 148.837 278.09 149.532C278.361 150.226 278.497 150.937 278.497 151.664C278.497 152.435 278.356 153.173 278.073 153.878C277.802 154.572 277.417 155.196 276.918 155.75C276.419 156.292 275.827 156.721 275.144 157.036C274.471 157.35 273.738 157.508 272.946 157.508ZM272.962 155.864C273.548 155.864 274.069 155.744 274.525 155.506C274.981 155.267 275.361 154.947 275.664 154.545C275.979 154.133 276.218 153.677 276.381 153.178C276.543 152.668 276.625 152.158 276.625 151.648C276.625 151.105 276.538 150.579 276.364 150.069C276.202 149.559 275.957 149.109 275.632 148.718C275.306 148.327 274.916 148.018 274.46 147.79C274.015 147.551 273.516 147.432 272.962 147.432C272.376 147.432 271.856 147.551 271.4 147.79C270.944 148.029 270.559 148.354 270.244 148.767C269.929 149.168 269.685 149.619 269.512 150.118C269.349 150.617 269.267 151.127 269.267 151.648C269.267 152.19 269.354 152.717 269.528 153.227C269.702 153.737 269.946 154.187 270.26 154.578C270.586 154.968 270.977 155.283 271.432 155.522C271.888 155.75 272.398 155.864 272.962 155.864ZM273.19 153.406H274.948L278.464 157.426H276.706L273.19 153.406Z" fill="#19888F"/>
<path d="M285.17 157.508C284.248 157.508 283.467 157.35 282.826 157.036C282.197 156.721 281.687 156.292 281.296 155.75C280.917 155.207 280.634 154.589 280.45 153.894C280.276 153.2 280.19 152.478 280.19 151.729V145.869H282.013V151.729C282.013 152.261 282.067 152.776 282.175 153.276C282.284 153.764 282.457 154.203 282.696 154.594C282.935 154.985 283.255 155.294 283.657 155.522C284.069 155.75 284.574 155.864 285.17 155.864C285.778 155.864 286.283 155.75 286.684 155.522C287.097 155.283 287.417 154.968 287.645 154.578C287.883 154.176 288.057 153.731 288.165 153.243C288.274 152.755 288.328 152.25 288.328 151.729V145.869H290.168V151.729C290.168 152.521 290.07 153.27 289.875 153.976C289.69 154.67 289.397 155.283 288.996 155.815C288.605 156.336 288.095 156.748 287.465 157.052C286.836 157.356 286.071 157.508 285.17 157.508Z" fill="#19888F"/>
<path d="M300.519 155.815V157.426H292.592V145.869H300.373V147.481H294.415V150.769H299.575V152.283H294.415V155.815H300.519Z" fill="#19888F"/>
<path d="M302.091 157.426V155.343H303.572V157.426H302.091Z" fill="#19888F"/>
<path d="M305.556 157.426V155.343H307.037V157.426H305.556Z" fill="#19888F"/>
<path d="M309.021 157.426V155.343H310.502V157.426H309.021Z" fill="#19888F"/>
<path d="M25.6978 214.397V202.84H30.5484C31.0693 202.84 31.5467 202.949 31.9808 203.166C32.4149 203.383 32.7947 203.67 33.1202 204.028C33.4457 204.386 33.6953 204.788 33.869 205.233C34.0426 205.678 34.1294 206.134 34.1294 206.6C34.1294 207.24 33.9829 207.853 33.6899 208.439C33.4078 209.015 33.0008 209.481 32.4691 209.839C31.9482 210.197 31.3405 210.376 30.6461 210.376H27.5208V214.397H25.6978ZM27.5208 208.765H30.5321C30.8794 208.765 31.1832 208.673 31.4436 208.488C31.7041 208.293 31.9048 208.033 32.0459 207.707C32.1978 207.381 32.2738 207.012 32.2738 206.6C32.2738 206.177 32.187 205.803 32.0133 205.477C31.8397 205.151 31.6118 204.902 31.3297 204.728C31.0584 204.544 30.76 204.452 30.4344 204.452H27.5208V208.765Z" fill="#19888F"/>
<path d="M40.6411 214.478C39.8055 214.478 39.0513 214.316 38.3785 213.99C37.7057 213.664 37.1252 213.225 36.6369 212.672C36.1485 212.107 35.7687 211.478 35.4974 210.783C35.237 210.078 35.1068 209.356 35.1068 208.619C35.1068 207.848 35.2479 207.116 35.53 206.421C35.8121 205.716 36.2028 205.092 36.702 204.549C37.2011 203.996 37.7871 203.562 38.4599 203.247C39.1436 202.921 39.8815 202.759 40.6736 202.759C41.4983 202.759 42.2471 202.927 42.9199 203.263C43.6035 203.6 44.1841 204.05 44.6616 204.614C45.1499 205.179 45.5243 205.808 45.7847 206.502C46.056 207.197 46.1916 207.908 46.1916 208.635C46.1916 209.405 46.0506 210.143 45.7684 210.848C45.4971 211.543 45.1119 212.167 44.6127 212.72C44.1136 213.263 43.5222 213.692 42.8385 214.006C42.1657 214.321 41.4332 214.478 40.6411 214.478ZM36.9624 208.619C36.9624 209.161 37.0492 209.687 37.2228 210.197C37.3965 210.707 37.6406 211.163 37.9553 211.565C38.2809 211.955 38.6715 212.265 39.1273 212.492C39.5831 212.72 40.0931 212.834 40.6574 212.834C41.2433 212.834 41.7642 212.715 42.22 212.476C42.6757 212.237 43.0555 211.917 43.3594 211.516C43.6741 211.104 43.9128 210.648 44.0756 210.149C44.2384 209.639 44.3197 209.129 44.3197 208.619C44.3197 208.076 44.2329 207.555 44.0593 207.056C43.8965 206.546 43.6524 206.096 43.3268 205.705C43.0013 205.303 42.6106 204.989 42.1549 204.761C41.71 204.533 41.2108 204.419 40.6574 204.419C40.0714 204.419 39.5505 204.538 39.0947 204.777C38.639 205.016 38.2537 205.336 37.939 205.737C37.6243 206.139 37.3802 206.589 37.2066 207.088C37.0438 207.588 36.9624 208.098 36.9624 208.619Z" fill="#19888F"/>
<path d="M48.079 214.397V202.84H53.1087C53.6296 202.84 54.1071 202.949 54.5411 203.166C54.9752 203.383 55.3496 203.67 55.6643 204.028C55.9898 204.386 56.2394 204.788 56.413 205.233C56.5975 205.678 56.6897 206.134 56.6897 206.6C56.6897 207.11 56.5975 207.598 56.413 208.065C56.2285 208.532 55.9627 208.933 55.6154 209.27C55.279 209.606 54.8829 209.85 54.4272 210.002L57.1455 214.397H55.0946L52.5878 210.376H49.9021V214.397H48.079ZM49.9021 208.765H53.0924C53.4288 208.765 53.7273 208.667 53.9877 208.472C54.2481 208.277 54.4543 208.016 54.6062 207.691C54.7582 207.354 54.8341 206.991 54.8341 206.6C54.8341 206.199 54.7473 205.841 54.5737 205.526C54.4001 205.2 54.1722 204.94 53.89 204.745C53.6187 204.549 53.3203 204.452 52.9948 204.452H49.9021V208.765Z" fill="#19888F"/>
<path d="M67.2097 204.452H63.3682V214.397H61.5289V204.452H57.6712V202.84H67.2097V204.452Z" fill="#19888F"/>
<path d="M71.0154 202.84H72.7408L77.2333 214.397H75.3126L74.0918 211.255H69.6318L68.4273 214.397H66.4903L71.0154 202.84ZM73.7337 209.904L71.8781 204.842L69.9574 209.904H73.7337Z" fill="#19888F"/>
<path d="M80.4856 206.226V214.397H78.6625V202.84H80.1601L86.7035 211.19V202.856H88.5429V214.397H86.9477L80.4856 206.226Z" fill="#19888F"/>
<path d="M99.6212 204.452H95.7798V214.397H93.9404V204.452H90.0827V202.84H99.6212V204.452Z" fill="#19888F"/>
<path d="M105.655 214.478C104.819 214.478 104.065 214.316 103.392 213.99C102.72 213.664 102.139 213.225 101.651 212.672C101.162 212.107 100.783 211.478 100.511 210.783C100.251 210.078 100.121 209.356 100.121 208.619C100.121 207.848 100.262 207.116 100.544 206.421C100.826 205.716 101.217 205.092 101.716 204.549C102.215 203.996 102.801 203.562 103.474 203.247C104.157 202.921 104.895 202.759 105.687 202.759C106.512 202.759 107.261 202.927 107.934 203.263C108.617 203.6 109.198 204.05 109.675 204.614C110.164 205.179 110.538 205.808 110.799 206.502C111.07 207.197 111.205 207.908 111.205 208.635C111.205 209.405 111.064 210.143 110.782 210.848C110.511 211.543 110.126 212.167 109.627 212.72C109.127 213.263 108.536 213.692 107.852 214.006C107.18 214.321 106.447 214.478 105.655 214.478ZM101.976 208.619C101.976 209.161 102.063 209.687 102.237 210.197C102.41 210.707 102.654 211.163 102.969 211.565C103.295 211.955 103.685 212.265 104.141 212.492C104.597 212.72 105.107 212.834 105.671 212.834C106.257 212.834 106.778 212.715 107.234 212.476C107.69 212.237 108.069 211.917 108.373 211.516C108.688 211.104 108.927 210.648 109.089 210.149C109.252 209.639 109.334 209.129 109.334 208.619C109.334 208.076 109.247 207.555 109.073 207.056C108.91 206.546 108.666 206.096 108.341 205.705C108.015 205.303 107.624 204.989 107.169 204.761C106.724 204.533 106.225 204.419 105.671 204.419C105.085 204.419 104.564 204.538 104.109 204.777C103.653 205.016 103.268 205.336 102.953 205.737C102.638 206.139 102.394 206.589 102.22 207.088C102.058 207.588 101.976 208.098 101.976 208.619Z" fill="#19888F"/>
<path d="M112.804 215.976L113.195 214.299H112.609V212.313H114.22V214.299L113.65 215.976H112.804Z" fill="#19888F"/>
<path d="M122.355 206.226V214.397H120.532V202.84H122.03L128.573 211.19V202.856H130.412V214.397H128.817L122.355 206.226Z" fill="#19888F"/>
<path d="M137.812 214.478C136.977 214.478 136.222 214.316 135.55 213.99C134.877 213.664 134.296 213.225 133.808 212.672C133.32 212.107 132.94 211.478 132.668 210.783C132.408 210.078 132.278 209.356 132.278 208.619C132.278 207.848 132.419 207.116 132.701 206.421C132.983 205.716 133.374 205.092 133.873 204.549C134.372 203.996 134.958 203.562 135.631 203.247C136.315 202.921 137.052 202.759 137.845 202.759C138.669 202.759 139.418 202.927 140.091 203.263C140.775 203.6 141.355 204.05 141.833 204.614C142.321 205.179 142.695 205.808 142.956 206.502C143.227 207.197 143.363 207.908 143.363 208.635C143.363 209.405 143.222 210.143 142.939 210.848C142.668 211.543 142.283 212.167 141.784 212.72C141.285 213.263 140.693 213.692 140.01 214.006C139.337 214.321 138.604 214.478 137.812 214.478ZM134.133 208.619C134.133 209.161 134.22 209.687 134.394 210.197C134.567 210.707 134.812 211.163 135.126 211.565C135.452 211.955 135.843 212.265 136.298 212.492C136.754 212.72 137.264 212.834 137.828 212.834C138.414 212.834 138.935 212.715 139.391 212.476C139.847 212.237 140.227 211.917 140.53 211.516C140.845 211.104 141.084 210.648 141.247 210.149C141.409 209.639 141.491 209.129 141.491 208.619C141.491 208.076 141.404 207.555 141.23 207.056C141.068 206.546 140.823 206.096 140.498 205.705C140.172 205.303 139.782 204.989 139.326 204.761C138.881 204.533 138.382 204.419 137.828 204.419C137.242 204.419 136.721 204.538 136.266 204.777C135.81 205.016 135.425 205.336 135.11 205.737C134.795 206.139 134.551 206.589 134.378 207.088C134.215 207.588 134.133 208.098 134.133 208.619ZM138.463 201.636L137.291 201.277L138.219 199.487H139.928L138.463 201.636Z" fill="#19888F"/>
<path d="M152.071 205.558C151.962 205.439 151.805 205.314 151.599 205.184C151.392 205.043 151.148 204.913 150.866 204.793C150.584 204.674 150.28 204.576 149.955 204.5C149.629 204.424 149.293 204.386 148.945 204.386C148.186 204.386 147.621 204.527 147.253 204.81C146.884 205.092 146.699 205.482 146.699 205.982C146.699 206.351 146.802 206.644 147.008 206.861C147.215 207.067 147.529 207.24 147.952 207.381C148.376 207.522 148.907 207.674 149.548 207.837C150.329 208.022 151.007 208.244 151.582 208.505C152.157 208.754 152.597 209.091 152.901 209.514C153.205 209.937 153.357 210.496 153.357 211.19C153.357 211.776 153.248 212.281 153.031 212.704C152.814 213.127 152.51 213.475 152.119 213.746C151.729 214.006 151.278 214.202 150.768 214.332C150.258 214.451 149.71 214.511 149.124 214.511C148.549 214.511 147.974 214.451 147.399 214.332C146.835 214.212 146.292 214.039 145.771 213.811C145.261 213.572 144.789 213.285 144.355 212.948L145.185 211.386C145.326 211.527 145.527 211.684 145.788 211.858C146.059 212.02 146.368 212.178 146.715 212.33C147.073 212.482 147.459 212.612 147.871 212.72C148.294 212.818 148.723 212.867 149.157 212.867C149.884 212.867 150.437 212.742 150.817 212.492C151.208 212.232 151.403 211.863 151.403 211.386C151.403 210.995 151.278 210.686 151.029 210.458C150.779 210.219 150.416 210.018 149.938 209.856C149.461 209.693 148.891 209.53 148.229 209.367C147.47 209.161 146.835 208.939 146.325 208.7C145.815 208.45 145.429 208.136 145.169 207.756C144.919 207.365 144.795 206.871 144.795 206.275C144.795 205.515 144.979 204.875 145.348 204.354C145.717 203.822 146.216 203.426 146.846 203.166C147.486 202.894 148.202 202.759 148.994 202.759C149.515 202.759 150.009 202.818 150.475 202.938C150.942 203.046 151.376 203.198 151.778 203.393C152.19 203.589 152.564 203.811 152.901 204.061L152.071 205.558Z" fill="#19888F"/>
<path d="M159.207 214.397V202.84H161.03V214.397H159.207Z" fill="#19888F"/>
<path d="M163.641 214.397V202.84H168.671C169.192 202.84 169.669 202.949 170.104 203.166C170.538 203.383 170.912 203.67 171.227 204.028C171.552 204.386 171.802 204.788 171.975 205.233C172.16 205.678 172.252 206.134 172.252 206.6C172.252 207.11 172.16 207.598 171.975 208.065C171.791 208.532 171.525 208.933 171.178 209.27C170.841 209.606 170.445 209.85 169.99 210.002L172.708 214.397H170.657L168.15 210.376H165.465V214.397H163.641ZM165.465 208.765H168.655C168.991 208.765 169.29 208.667 169.55 208.472C169.811 208.277 170.017 208.016 170.169 207.691C170.321 207.354 170.397 206.991 170.397 206.6C170.397 206.199 170.31 205.841 170.136 205.526C169.962 205.2 169.735 204.94 169.452 204.745C169.181 204.549 168.883 204.452 168.557 204.452H165.465V208.765Z" fill="#19888F"/>
<path d="M182.33 212.785V214.397H174.403V202.84H182.183V204.452H176.226V207.74H181.386V209.253H176.226V212.785H182.33Z" fill="#19888F"/>
<path d="M193.928 214.397V206.161L190.526 212.411H189.452L186.034 206.161V214.397H184.211V202.84H186.164L189.989 209.904L193.814 202.84H195.768V214.397H193.928Z" fill="#19888F"/>
<path d="M203.176 214.478C202.34 214.478 201.586 214.316 200.913 213.99C200.24 213.664 199.66 213.225 199.171 212.672C198.683 212.107 198.303 211.478 198.032 210.783C197.772 210.078 197.641 209.356 197.641 208.619C197.641 207.848 197.782 207.116 198.065 206.421C198.347 205.716 198.737 205.092 199.236 204.549C199.736 203.996 200.322 203.562 200.994 203.247C201.678 202.921 202.416 202.759 203.208 202.759C204.033 202.759 204.782 202.927 205.454 203.263C206.138 203.6 206.719 204.05 207.196 204.614C207.684 205.179 208.059 205.808 208.319 206.502C208.591 207.197 208.726 207.908 208.726 208.635C208.726 209.405 208.585 210.143 208.303 210.848C208.032 211.543 207.646 212.167 207.147 212.72C206.648 213.263 206.057 213.692 205.373 214.006C204.7 214.321 203.968 214.478 203.176 214.478ZM199.497 208.619C199.497 209.161 199.584 209.687 199.757 210.197C199.931 210.707 200.175 211.163 200.49 211.565C200.815 211.955 201.206 212.265 201.662 212.492C202.118 212.72 202.628 212.834 203.192 212.834C203.778 212.834 204.299 212.715 204.755 212.476C205.21 212.237 205.59 211.917 205.894 211.516C206.209 211.104 206.447 210.648 206.61 210.149C206.773 209.639 206.854 209.129 206.854 208.619C206.854 208.076 206.767 207.555 206.594 207.056C206.431 206.546 206.187 206.096 205.861 205.705C205.536 205.303 205.145 204.989 204.689 204.761C204.244 204.533 203.745 204.419 203.192 204.419C202.606 204.419 202.085 204.538 201.629 204.777C201.173 205.016 200.788 205.336 200.474 205.737C200.159 206.139 199.915 206.589 199.741 207.088C199.578 207.588 199.497 208.098 199.497 208.619Z" fill="#19888F"/>
<path d="M217.434 205.558C217.326 205.439 217.168 205.314 216.962 205.184C216.756 205.043 216.512 204.913 216.23 204.793C215.947 204.674 215.644 204.576 215.318 204.5C214.993 204.424 214.656 204.386 214.309 204.386C213.549 204.386 212.985 204.527 212.616 204.81C212.247 205.092 212.063 205.482 212.063 205.982C212.063 206.351 212.166 206.644 212.372 206.861C212.578 207.067 212.893 207.24 213.316 207.381C213.739 207.522 214.271 207.674 214.911 207.837C215.692 208.022 216.371 208.244 216.946 208.505C217.521 208.754 217.96 209.091 218.264 209.514C218.568 209.937 218.72 210.496 218.72 211.19C218.72 211.776 218.612 212.281 218.394 212.704C218.177 213.127 217.874 213.475 217.483 213.746C217.092 214.006 216.642 214.202 216.132 214.332C215.622 214.451 215.074 214.511 214.488 214.511C213.913 214.511 213.338 214.451 212.763 214.332C212.198 214.212 211.656 214.039 211.135 213.811C210.625 213.572 210.153 213.285 209.719 212.948L210.549 211.386C210.69 211.527 210.891 211.684 211.151 211.858C211.422 212.02 211.732 212.178 212.079 212.33C212.437 212.482 212.822 212.612 213.235 212.72C213.658 212.818 214.086 212.867 214.52 212.867C215.248 212.867 215.801 212.742 216.181 212.492C216.571 212.232 216.767 211.863 216.767 211.386C216.767 210.995 216.642 210.686 216.392 210.458C216.143 210.219 215.779 210.018 215.302 209.856C214.824 209.693 214.255 209.53 213.593 209.367C212.833 209.161 212.198 208.939 211.688 208.7C211.178 208.45 210.793 208.136 210.533 207.756C210.283 207.365 210.158 206.871 210.158 206.275C210.158 205.515 210.343 204.875 210.712 204.354C211.081 203.822 211.58 203.426 212.209 203.166C212.849 202.894 213.566 202.759 214.358 202.759C214.879 202.759 215.372 202.818 215.839 202.938C216.306 203.046 216.74 203.198 217.141 203.393C217.553 203.589 217.928 203.811 218.264 204.061L217.434 205.558Z" fill="#19888F"/>
<path d="M220.239 214.397V212.313H221.72V214.397H220.239Z" fill="#19888F"/>
<path d="M223.704 214.397V212.313H225.186V214.397H223.704Z" fill="#19888F"/>
<path d="M227.17 214.397V212.313H228.651V214.397H227.17Z" fill="#19888F"/>
</svg>
