<svg width="414" height="288" viewBox="0 0 414 288" fill="none" xmlns="http://www.w3.org/2000/svg">
<path d="M395.379 3.99339L19.3355 3.03962C10.7079 3.01774 3.69618 9.97437 3.67436 18.5777L3.03969 268.806C3.01787 277.409 9.99422 284.401 18.6218 284.423L394.665 285.377C403.292 285.399 410.304 278.442 410.326 269.839L410.961 19.6107C410.982 11.0074 404.006 4.01528 395.379 3.99339Z" fill="white" stroke="#F7C326" stroke-width="4.70636" stroke-linecap="round" stroke-linejoin="round"/>
<rect x="33.8398" y="22.8262" width="77.1021" height="74.8992" rx="11.0146" fill="#F7C326"/>
<rect x="126.363" y="22.8262" width="77.1021" height="74.8992" rx="11.0146" fill="#F7C326"/>
<rect x="214.479" y="22.8262" width="77.1021" height="74.8992" rx="11.0146" fill="#F7C326"/>
<rect x="302.596" y="22.8262" width="77.1021" height="74.8992" rx="11.0146" fill="#F7C326"/>
<rect x="33.8398" y="152.799" width="77.1021" height="74.8992" rx="11.0146" fill="#F7C326"/>
<rect x="126.363" y="152.799" width="77.1021" height="74.8992" rx="11.0146" fill="#F7C326"/>
<rect x="214.479" y="152.799" width="77.1021" height="74.8992" rx="11.0146" fill="#F7C326"/>
<rect x="302.596" y="152.799" width="77.1021" height="74.8992" rx="11.0146" fill="#F7C326"/>
<path d="M33.8398 108.74H110.942" stroke="#F7C326" stroke-width="3.30438" stroke-linecap="round"/>
<path d="M33.8398 120.856H110.942" stroke="#F7C326" stroke-width="3.30438" stroke-linecap="round"/>
<path d="M33.8398 131.871H110.942" stroke="#F7C326" stroke-width="3.30438" stroke-linecap="round"/>
<path d="M126.363 108.74H203.465" stroke="#F7C326" stroke-width="3.30438" stroke-linecap="round"/>
<path d="M126.363 119.755H203.465" stroke="#F7C326" stroke-width="3.30438" stroke-linecap="round"/>
<path d="M126.363 130.77H203.465" stroke="#F7C326" stroke-width="3.30438" stroke-linecap="round"/>
<path d="M214.479 108.74H291.581" stroke="#F7C326" stroke-width="3.30438" stroke-linecap="round"/>
<path d="M214.479 119.755H291.581" stroke="#F7C326" stroke-width="3.30438" stroke-linecap="round"/>
<path d="M214.479 130.77H291.581" stroke="#F7C326" stroke-width="3.30438" stroke-linecap="round"/>
<path d="M304.798 108.74H381.9" stroke="#F7C326" stroke-width="3.30438" stroke-linecap="round"/>
<path d="M304.798 119.755H381.9" stroke="#F7C326" stroke-width="3.30438" stroke-linecap="round"/>
<path d="M304.798 130.77H381.9" stroke="#F7C326" stroke-width="3.30438" stroke-linecap="round"/>
<path d="M302.596 245.321H379.698" stroke="#F7C326" stroke-width="3.30438" stroke-linecap="round"/>
<path d="M302.596 256.336H379.698" stroke="#F7C326" stroke-width="3.30438" stroke-linecap="round"/>
<path d="M302.596 267.35H379.698" stroke="#F7C326" stroke-width="3.30438" stroke-linecap="round"/>
<path d="M214.479 245.321H291.581" stroke="#F7C326" stroke-width="3.30438" stroke-linecap="round"/>
<path d="M214.479 256.336H291.581" stroke="#F7C326" stroke-width="3.30438" stroke-linecap="round"/>
<path d="M214.479 267.35H291.581" stroke="#F7C326" stroke-width="3.30438" stroke-linecap="round"/>
<path d="M126.363 245.321H203.465" stroke="#F7C326" stroke-width="3.30438" stroke-linecap="round"/>
<path d="M126.363 256.336H203.465" stroke="#F7C326" stroke-width="3.30438" stroke-linecap="round"/>
<path d="M126.363 267.35H203.465" stroke="#F7C326" stroke-width="3.30438" stroke-linecap="round"/>
<path d="M38.2461 245.321H115.348" stroke="#F7C326" stroke-width="3.30438" stroke-linecap="round"/>
<path d="M38.2461 256.336H115.348" stroke="#F7C326" stroke-width="3.30438" stroke-linecap="round"/>
<path d="M38.2461 267.35H115.348" stroke="#F7C326" stroke-width="3.30438" stroke-linecap="round"/>
</svg>
