<svg width="439" height="294" viewBox="0 0 439 294" fill="none" xmlns="http://www.w3.org/2000/svg">
<path d="M419.395 3H19.6049C10.4343 3 3 10.6633 3 20.1164V273.884C3 283.337 10.4343 291 19.6049 291H419.395C428.566 291 436 283.337 436 273.884V20.1164C436 10.6633 428.566 3 419.395 3Z" fill="#DCD6F0" stroke="#9882E3" stroke-width="4.11388" stroke-linecap="round" stroke-linejoin="round"/>
<path d="M2.04883 44.123L435.836 44.139Z" fill="#DCD6F0"/>
<path d="M2.04883 44.123L435.836 44.139" stroke="#9882E3" stroke-width="3.35364"/>
<path d="M2.04883 91.123L435.836 91.139Z" fill="#DCD6F0"/>
<path d="M2.04883 91.123L435.836 91.139" stroke="#9882E3" stroke-width="3.35364"/>
<path d="M293 244L293 47Z" fill="#DCD6F0"/>
<path d="M293 244L293 47" stroke="#9882E3" stroke-width="3.32839"/>
<path d="M152 244L152 44Z" fill="#DCD6F0"/>
<path d="M152 244L152 44" stroke="#9882E3" stroke-width="3.35364"/>
<line x1="2.60352" y1="242.787" x2="436.464" y2="242.787" stroke="#9882E3" stroke-width="3.00873"/>
<path d="M74.1454 149C72.4024 149 71 150.482 71 152.324V167.123C71 168.965 72.4024 170.447 74.1454 170.447H83.7972L87.5654 179L91.3938 170.447H120.855C122.598 170.447 124 168.965 124 167.123V152.324C124 150.482 122.598 149 120.855 149H74.1454Z" stroke="#9882E3" stroke-width="3" stroke-linecap="round" stroke-linejoin="round"/>
<path d="M216.323 190C214.482 190 213 191.477 213 193.312V208.059C213 209.895 214.482 211.372 216.323 211.372H226.522L230.503 219.895L234.548 211.372H265.677C267.518 211.372 269 209.895 269 208.059V193.312C269 191.477 267.518 190 265.677 190H216.323Z" stroke="#9882E3" stroke-width="3" stroke-linecap="round" stroke-linejoin="round"/>
<path d="M423.677 217.895C425.518 217.895 427 216.418 427 214.583V199.836C427 198 425.518 196.523 423.677 196.523H413.478L409.497 188L405.452 196.523H374.323C372.482 196.523 371 198 371 199.836V214.583C371 216.418 372.482 217.895 374.323 217.895H423.677Z" stroke="#9882E3" stroke-width="3" stroke-linecap="round" stroke-linejoin="round"/>
<path d="M2 197.249C2 197.249 27 178.231 62 178.231C97 178.231 178.5 229.5 229.5 229.5C280.5 229.5 338 201.769 366 190C394 178.231 418.842 174.721 436 178.231" stroke="#9882E3" stroke-width="2.89751"/>
<path d="M107.016 31.08C106.109 31.08 105.341 30.9253 104.712 30.616C104.093 30.3067 103.592 29.8853 103.208 29.352C102.835 28.8187 102.557 28.2107 102.376 27.528C102.205 26.8453 102.12 26.136 102.12 25.4V19.64H103.912V25.4C103.912 25.9227 103.965 26.4293 104.072 26.92C104.179 27.4 104.349 27.832 104.584 28.216C104.819 28.6 105.133 28.904 105.528 29.128C105.933 29.352 106.429 29.464 107.016 29.464C107.613 29.464 108.109 29.352 108.504 29.128C108.909 28.8933 109.224 28.584 109.448 28.2C109.683 27.8053 109.853 27.368 109.96 26.888C110.067 26.408 110.12 25.912 110.12 25.4V19.64H111.928V25.4C111.928 26.1787 111.832 26.9147 111.64 27.608C111.459 28.2907 111.171 28.8933 110.776 29.416C110.392 29.928 109.891 30.3333 109.272 30.632C108.653 30.9307 107.901 31.08 107.016 31.08ZM121.031 22.312C120.925 22.1947 120.77 22.072 120.567 21.944C120.365 21.8053 120.125 21.6773 119.847 21.56C119.57 21.4427 119.271 21.3467 118.951 21.272C118.631 21.1973 118.301 21.16 117.959 21.16C117.213 21.16 116.658 21.2987 116.295 21.576C115.933 21.8533 115.751 22.2373 115.751 22.728C115.751 23.0907 115.853 23.3787 116.055 23.592C116.258 23.7947 116.567 23.9653 116.983 24.104C117.399 24.2427 117.922 24.392 118.551 24.552C119.319 24.7333 119.986 24.952 120.551 25.208C121.117 25.4533 121.549 25.784 121.847 26.2C122.146 26.616 122.295 27.1653 122.295 27.848C122.295 28.424 122.189 28.92 121.975 29.336C121.762 29.752 121.463 30.0933 121.079 30.36C120.695 30.616 120.253 30.808 119.751 30.936C119.25 31.0533 118.711 31.112 118.135 31.112C117.57 31.112 117.005 31.0533 116.439 30.936C115.885 30.8187 115.351 30.648 114.839 30.424C114.338 30.1893 113.874 29.9067 113.447 29.576L114.263 28.04C114.402 28.1787 114.599 28.3333 114.855 28.504C115.122 28.664 115.426 28.8187 115.767 28.968C116.119 29.1173 116.498 29.2453 116.903 29.352C117.319 29.448 117.741 29.496 118.167 29.496C118.882 29.496 119.426 29.3733 119.799 29.128C120.183 28.872 120.375 28.5093 120.375 28.04C120.375 27.656 120.253 27.352 120.007 27.128C119.762 26.8933 119.405 26.696 118.935 26.536C118.466 26.376 117.906 26.216 117.255 26.056C116.509 25.8533 115.885 25.6347 115.383 25.4C114.882 25.1547 114.503 24.8453 114.247 24.472C114.002 24.088 113.879 23.6027 113.879 23.016C113.879 22.2693 114.061 21.64 114.423 21.128C114.786 20.6053 115.277 20.216 115.895 19.96C116.525 19.6933 117.229 19.56 118.007 19.56C118.519 19.56 119.005 19.6187 119.463 19.736C119.922 19.8427 120.349 19.992 120.743 20.184C121.149 20.376 121.517 20.5947 121.847 20.84L121.031 22.312ZM128.829 31.08C127.922 31.08 127.154 30.9253 126.525 30.616C125.906 30.3067 125.405 29.8853 125.021 29.352C124.647 28.8187 124.37 28.2107 124.189 27.528C124.018 26.8453 123.933 26.136 123.933 25.4V19.64H125.725V25.4C125.725 25.9227 125.778 26.4293 125.885 26.92C125.991 27.4 126.162 27.832 126.397 28.216C126.631 28.6 126.946 28.904 127.341 29.128C127.746 29.352 128.242 29.464 128.829 29.464C129.426 29.464 129.922 29.352 130.317 29.128C130.722 28.8933 131.037 28.584 131.26 28.2C131.495 27.8053 131.666 27.368 131.773 26.888C131.879 26.408 131.933 25.912 131.933 25.4V19.64H133.741V25.4C133.741 26.1787 133.645 26.9147 133.453 27.608C133.271 28.2907 132.983 28.8933 132.589 29.416C132.205 29.928 131.703 30.3333 131.085 30.632C130.466 30.9307 129.714 31.08 128.829 31.08ZM138.935 19.64H140.631L145.047 31H143.159L141.959 27.912H137.575L136.391 31H134.487L138.935 19.64ZM141.607 26.584L139.783 21.608L137.895 26.584H141.607ZM140.375 18.456L139.223 18.104L140.135 16.344H141.815L140.375 18.456ZM146.452 31V19.64H151.396C151.908 19.64 152.377 19.7467 152.804 19.96C153.231 20.1733 153.599 20.456 153.908 20.808C154.228 21.16 154.473 21.5547 154.644 21.992C154.825 22.4293 154.916 22.8773 154.916 23.336C154.916 23.8373 154.825 24.3173 154.644 24.776C154.463 25.2347 154.201 25.6293 153.86 25.96C153.529 26.2907 153.14 26.5307 152.692 26.68L155.364 31H153.348L150.884 27.048H148.244V31H146.452ZM148.244 25.464H151.38C151.711 25.464 152.004 25.368 152.26 25.176C152.516 24.984 152.719 24.728 152.868 24.408C153.017 24.0773 153.092 23.72 153.092 23.336C153.092 22.9413 153.007 22.5893 152.836 22.28C152.665 21.96 152.441 21.704 152.164 21.512C151.897 21.32 151.604 21.224 151.284 21.224H148.244V25.464ZM157.03 31V19.64H158.822V31H157.03ZM166.109 31.08C165.288 31.08 164.547 30.92 163.885 30.6C163.224 30.28 162.653 29.848 162.173 29.304C161.693 28.7493 161.32 28.1307 161.053 27.448C160.797 26.7547 160.669 26.0453 160.669 25.32C160.669 24.5627 160.808 23.8427 161.085 23.16C161.363 22.4667 161.747 21.8533 162.237 21.32C162.728 20.776 163.304 20.3493 163.965 20.04C164.637 19.72 165.363 19.56 166.141 19.56C166.952 19.56 167.688 19.7253 168.349 20.056C169.021 20.3867 169.592 20.8293 170.061 21.384C170.541 21.9387 170.909 22.5573 171.165 23.24C171.432 23.9227 171.565 24.6213 171.565 25.336C171.565 26.0933 171.427 26.8187 171.149 27.512C170.883 28.1947 170.504 28.808 170.013 29.352C169.523 29.8853 168.941 30.3067 168.269 30.616C167.608 30.9253 166.888 31.08 166.109 31.08ZM162.493 25.32C162.493 25.8533 162.579 26.3707 162.749 26.872C162.92 27.3733 163.16 27.8213 163.469 28.216C163.789 28.6 164.173 28.904 164.621 29.128C165.069 29.352 165.571 29.464 166.125 29.464C166.701 29.464 167.213 29.3467 167.661 29.112C168.109 28.8773 168.483 28.5627 168.781 28.168C169.091 27.7627 169.325 27.3147 169.485 26.824C169.645 26.3227 169.725 25.8213 169.725 25.32C169.725 24.7867 169.64 24.2747 169.469 23.784C169.309 23.2827 169.069 22.84 168.749 22.456C168.429 22.0613 168.045 21.752 167.597 21.528C167.16 21.304 166.669 21.192 166.125 21.192C165.549 21.192 165.037 21.3093 164.589 21.544C164.141 21.7787 163.763 22.0933 163.453 22.488C163.144 22.8827 162.904 23.3253 162.733 23.816C162.573 24.3067 162.493 24.808 162.493 25.32ZM182.014 24.616V26.024H180.238V27.96H178.654V26.024H176.878V24.616H178.654V22.68H180.238V24.616H182.014ZM187.31 25.24C187.31 24.5467 187.433 23.8693 187.678 23.208C187.923 22.536 188.281 21.928 188.75 21.384C189.23 20.8293 189.811 20.392 190.494 20.072C191.177 19.7413 191.95 19.576 192.814 19.576C193.838 19.576 194.723 19.8107 195.47 20.28C196.217 20.7387 196.771 21.3307 197.134 22.056L195.726 23C195.513 22.5413 195.241 22.1787 194.91 21.912C194.59 21.6453 194.238 21.4587 193.854 21.352C193.481 21.2453 193.113 21.192 192.75 21.192C192.153 21.192 191.63 21.3147 191.182 21.56C190.734 21.7947 190.355 22.1093 190.046 22.504C189.747 22.8987 189.518 23.3413 189.358 23.832C189.209 24.3227 189.134 24.8133 189.134 25.304C189.134 25.848 189.225 26.376 189.406 26.888C189.587 27.3893 189.838 27.8373 190.158 28.232C190.489 28.616 190.878 28.92 191.326 29.144C191.774 29.368 192.265 29.48 192.798 29.48C193.161 29.48 193.539 29.416 193.934 29.288C194.329 29.16 194.691 28.9627 195.022 28.696C195.363 28.4187 195.63 28.056 195.822 27.608L197.31 28.456C197.075 29.0213 196.707 29.5013 196.206 29.896C195.715 30.2907 195.161 30.5893 194.542 30.792C193.934 30.9947 193.331 31.096 192.734 31.096C191.934 31.096 191.203 30.9307 190.542 30.6C189.881 30.2587 189.31 29.8107 188.83 29.256C188.35 28.6907 187.977 28.0613 187.71 27.368C187.443 26.664 187.31 25.9547 187.31 25.24ZM206.76 29.416V31H198.968V19.64H206.616V21.224H200.76V24.456H205.832V25.944H200.76V29.416H206.76ZM210.4 22.968V31H208.608V19.64H210.08L216.512 27.848V19.656H218.32V31H216.752L210.4 22.968ZM224.154 19.64H225.85L230.266 31H228.378L227.178 27.912H222.794L221.61 31H219.706L224.154 19.64ZM226.826 26.584L225.002 21.608L223.114 26.584H226.826ZM225.594 18.456L224.442 18.104L225.354 16.344H227.034L225.594 18.456ZM231.671 31V19.64H236.615C237.127 19.64 237.596 19.7467 238.023 19.96C238.449 20.1733 238.817 20.456 239.127 20.808C239.447 21.16 239.692 21.5547 239.863 21.992C240.044 22.4293 240.135 22.8773 240.135 23.336C240.135 23.8373 240.044 24.3173 239.863 24.776C239.681 25.2347 239.42 25.6293 239.079 25.96C238.748 26.2907 238.359 26.5307 237.911 26.68L240.583 31H238.567L236.103 27.048H233.463V31H231.671ZM233.463 25.464H236.599C236.929 25.464 237.223 25.368 237.479 25.176C237.735 24.984 237.937 24.728 238.087 24.408C238.236 24.0773 238.311 23.72 238.311 23.336C238.311 22.9413 238.225 22.5893 238.055 22.28C237.884 21.96 237.66 21.704 237.383 21.512C237.116 21.32 236.823 21.224 236.503 21.224H233.463V25.464ZM242.249 31V19.64H244.041V31H242.249ZM251.328 31.08C250.507 31.08 249.765 30.92 249.104 30.6C248.443 30.28 247.872 29.848 247.392 29.304C246.912 28.7493 246.539 28.1307 246.272 27.448C246.016 26.7547 245.888 26.0453 245.888 25.32C245.888 24.5627 246.027 23.8427 246.304 23.16C246.581 22.4667 246.965 21.8533 247.456 21.32C247.947 20.776 248.523 20.3493 249.184 20.04C249.856 19.72 250.581 19.56 251.36 19.56C252.171 19.56 252.907 19.7253 253.568 20.056C254.24 20.3867 254.811 20.8293 255.28 21.384C255.76 21.9387 256.128 22.5573 256.384 23.24C256.651 23.9227 256.784 24.6213 256.784 25.336C256.784 26.0933 256.645 26.8187 256.368 27.512C256.101 28.1947 255.723 28.808 255.232 29.352C254.741 29.8853 254.16 30.3067 253.488 30.616C252.827 30.9253 252.107 31.08 251.328 31.08ZM247.712 25.32C247.712 25.8533 247.797 26.3707 247.968 26.872C248.139 27.3733 248.379 27.8213 248.688 28.216C249.008 28.6 249.392 28.904 249.84 29.128C250.288 29.352 250.789 29.464 251.344 29.464C251.92 29.464 252.432 29.3467 252.88 29.112C253.328 28.8773 253.701 28.5627 254 28.168C254.309 27.7627 254.544 27.3147 254.704 26.824C254.864 26.3227 254.944 25.8213 254.944 25.32C254.944 24.7867 254.859 24.2747 254.688 23.784C254.528 23.2827 254.288 22.84 253.968 22.456C253.648 22.0613 253.264 21.752 252.816 21.528C252.379 21.304 251.888 21.192 251.344 21.192C250.768 21.192 250.256 21.3093 249.808 21.544C249.36 21.7787 248.981 22.0933 248.672 22.488C248.363 22.8827 248.123 23.3253 247.952 23.816C247.792 24.3067 247.712 24.808 247.712 25.32ZM267.233 24.616V26.024H265.457V27.96H263.873V26.024H262.097V24.616H263.873V22.68H265.457V24.616H267.233ZM277.969 31.08C277.147 31.08 276.406 30.92 275.745 30.6C275.083 30.28 274.513 29.848 274.033 29.304C273.553 28.7493 273.179 28.1307 272.913 27.448C272.657 26.7547 272.529 26.0453 272.529 25.32C272.529 24.5627 272.667 23.8427 272.945 23.16C273.222 22.4667 273.606 21.8533 274.097 21.32C274.587 20.776 275.163 20.3493 275.825 20.04C276.497 19.72 277.222 19.56 278.001 19.56C278.811 19.56 279.547 19.7253 280.209 20.056C280.881 20.3867 281.451 20.8293 281.921 21.384C282.401 21.9387 282.769 22.5573 283.025 23.24C283.291 23.9227 283.425 24.6213 283.425 25.336C283.425 26.0933 283.286 26.8187 283.009 27.512C282.742 28.1947 282.363 28.808 281.873 29.352C281.382 29.8853 280.801 30.3067 280.129 30.616C279.467 30.9253 278.747 31.08 277.969 31.08ZM274.353 25.32C274.353 25.8533 274.438 26.3707 274.609 26.872C274.779 27.3733 275.019 27.8213 275.329 28.216C275.649 28.6 276.033 28.904 276.481 29.128C276.929 29.352 277.43 29.464 277.985 29.464C278.561 29.464 279.073 29.3467 279.521 29.112C279.969 28.8773 280.342 28.5627 280.641 28.168C280.95 27.7627 281.185 27.3147 281.345 26.824C281.505 26.3227 281.585 25.8213 281.585 25.32C281.585 24.7867 281.499 24.2747 281.329 23.784C281.169 23.2827 280.929 22.84 280.609 22.456C280.289 22.0613 279.905 21.752 279.457 21.528C279.019 21.304 278.529 21.192 277.985 21.192C277.409 21.192 276.897 21.3093 276.449 21.544C276.001 21.7787 275.622 22.0933 275.313 22.488C275.003 22.8827 274.763 23.3253 274.593 23.816C274.433 24.3067 274.353 24.808 274.353 25.32ZM294.208 28.072C294.208 28.68 294.048 29.2027 293.728 29.64C293.419 30.0773 292.997 30.4133 292.464 30.648C291.931 30.8827 291.344 31 290.704 31H285.28V19.64H291.136C291.669 19.64 292.128 19.784 292.512 20.072C292.907 20.3493 293.205 20.712 293.408 21.16C293.621 21.5973 293.728 22.056 293.728 22.536C293.728 23.0907 293.584 23.6133 293.296 24.104C293.019 24.584 292.619 24.9413 292.096 25.176C292.747 25.368 293.259 25.72 293.632 26.232C294.016 26.7333 294.208 27.3467 294.208 28.072ZM292.368 27.736C292.368 27.416 292.299 27.128 292.16 26.872C292.032 26.6053 291.851 26.392 291.616 26.232C291.392 26.0613 291.125 25.976 290.816 25.976H287.072V29.448H290.704C291.024 29.448 291.307 29.3733 291.552 29.224C291.808 29.064 292.005 28.856 292.144 28.6C292.293 28.3333 292.368 28.0453 292.368 27.736ZM287.072 21.192V24.536H290.368C290.667 24.536 290.933 24.4667 291.168 24.328C291.403 24.1787 291.589 23.9813 291.728 23.736C291.867 23.48 291.936 23.192 291.936 22.872C291.936 22.5413 291.872 22.2533 291.744 22.008C291.616 21.752 291.44 21.5547 291.216 21.416C291.003 21.2667 290.752 21.192 290.464 21.192H287.072ZM295.389 29C295.56 29.128 295.821 29.256 296.173 29.384C296.525 29.5013 296.941 29.56 297.421 29.56C297.89 29.56 298.269 29.4853 298.557 29.336C298.856 29.176 299.08 28.9413 299.229 28.632C299.389 28.312 299.496 27.9067 299.549 27.416C299.613 26.9253 299.645 26.344 299.645 25.672V19.64H301.453V25.416C301.453 26.2587 301.405 27.032 301.309 27.736C301.224 28.44 301.048 29.0533 300.781 29.576C300.514 30.088 300.114 30.4827 299.581 30.76C299.058 31.0373 298.354 31.176 297.469 31.176C296.946 31.176 296.482 31.1173 296.077 31C295.672 30.8827 295.298 30.7067 294.957 30.472L295.389 29ZM311.681 29.416V31H303.889V19.64H311.537V21.224H305.681V24.456H310.753V25.944H305.681V29.416H311.681ZM321.866 21.224H318.09V31H316.282V21.224H312.49V19.64H321.866V21.224ZM323.389 31V19.64H325.181V31H323.389ZM328.469 19.64L331.893 28.808L335.301 19.64H337.205L332.741 31H331.045L326.565 19.64H328.469ZM342.875 31.08C342.054 31.08 341.312 30.92 340.651 30.6C339.99 30.28 339.419 29.848 338.939 29.304C338.459 28.7493 338.086 28.1307 337.819 27.448C337.563 26.7547 337.435 26.0453 337.435 25.32C337.435 24.5627 337.574 23.8427 337.851 23.16C338.128 22.4667 338.512 21.8533 339.003 21.32C339.494 20.776 340.07 20.3493 340.731 20.04C341.403 19.72 342.128 19.56 342.907 19.56C343.718 19.56 344.454 19.7253 345.115 20.056C345.787 20.3867 346.358 20.8293 346.827 21.384C347.307 21.9387 347.675 22.5573 347.931 23.24C348.198 23.9227 348.331 24.6213 348.331 25.336C348.331 26.0933 348.192 26.8187 347.915 27.512C347.648 28.1947 347.27 28.808 346.779 29.352C346.288 29.8853 345.707 30.3067 345.035 30.616C344.374 30.9253 343.654 31.08 342.875 31.08ZM339.259 25.32C339.259 25.8533 339.344 26.3707 339.515 26.872C339.686 27.3733 339.926 27.8213 340.235 28.216C340.555 28.6 340.939 28.904 341.387 29.128C341.835 29.352 342.336 29.464 342.891 29.464C343.467 29.464 343.979 29.3467 344.427 29.112C344.875 28.8773 345.248 28.5627 345.547 28.168C345.856 27.7627 346.091 27.3147 346.251 26.824C346.411 26.3227 346.491 25.8213 346.491 25.32C346.491 24.7867 346.406 24.2747 346.235 23.784C346.075 23.2827 345.835 22.84 345.515 22.456C345.195 22.0613 344.811 21.752 344.363 21.528C343.926 21.304 343.435 21.192 342.891 21.192C342.315 21.192 341.803 21.3093 341.355 21.544C340.907 21.7787 340.528 22.0933 340.219 22.488C339.91 22.8827 339.67 23.3253 339.499 23.816C339.339 24.3067 339.259 24.808 339.259 25.32Z" fill="#4C3692"/>
<path d="M70 273.08C69.1787 273.08 68.4373 272.92 67.776 272.6C67.1147 272.28 66.544 271.848 66.064 271.304C65.584 270.749 65.2107 270.131 64.944 269.448C64.688 268.755 64.56 268.045 64.56 267.32C64.56 266.563 64.6987 265.843 64.976 265.16C65.2533 264.467 65.6373 263.853 66.128 263.32C66.6187 262.776 67.1947 262.349 67.856 262.04C68.528 261.72 69.2533 261.56 70.032 261.56C70.8427 261.56 71.5787 261.725 72.24 262.056C72.912 262.387 73.4827 262.829 73.952 263.384C74.432 263.939 74.8 264.557 75.056 265.24C75.3227 265.923 75.456 266.621 75.456 267.336C75.456 268.093 75.3173 268.819 75.04 269.512C74.7733 270.195 74.3947 270.808 73.904 271.352C73.4133 271.885 72.832 272.307 72.16 272.616C71.4987 272.925 70.7787 273.08 70 273.08ZM66.384 267.32C66.384 267.853 66.4693 268.371 66.64 268.872C66.8107 269.373 67.0507 269.821 67.36 270.216C67.68 270.6 68.064 270.904 68.512 271.128C68.96 271.352 69.4613 271.464 70.016 271.464C70.592 271.464 71.104 271.347 71.552 271.112C72 270.877 72.3733 270.563 72.672 270.168C72.9813 269.763 73.216 269.315 73.376 268.824C73.536 268.323 73.616 267.821 73.616 267.32C73.616 266.787 73.5307 266.275 73.36 265.784C73.2 265.283 72.96 264.84 72.64 264.456C72.32 264.061 71.936 263.752 71.488 263.528C71.0507 263.304 70.56 263.192 70.016 263.192C69.44 263.192 68.928 263.309 68.48 263.544C68.032 263.779 67.6533 264.093 67.344 264.488C67.0347 264.883 66.7947 265.325 66.624 265.816C66.464 266.307 66.384 266.808 66.384 267.32ZM77.3113 273V261.64H82.0793C82.5913 261.64 83.0606 261.747 83.4873 261.96C83.9139 262.173 84.2873 262.456 84.6073 262.808C84.9273 263.16 85.1726 263.555 85.3433 263.992C85.5139 264.429 85.5993 264.877 85.5993 265.336C85.5993 265.965 85.4553 266.568 85.1673 267.144C84.8899 267.709 84.4899 268.168 83.9673 268.52C83.4553 268.872 82.8579 269.048 82.1753 269.048H79.1033V273H77.3113ZM79.1033 267.464H82.0633C82.4046 267.464 82.7033 267.373 82.9593 267.192C83.2153 267 83.4126 266.744 83.5513 266.424C83.7006 266.104 83.7753 265.741 83.7753 265.336C83.7753 264.92 83.6899 264.552 83.5193 264.232C83.3486 263.912 83.1246 263.667 82.8473 263.496C82.5806 263.315 82.2873 263.224 81.9673 263.224H79.1033V267.464ZM92 273.08C91.1787 273.08 90.4373 272.92 89.776 272.6C89.1147 272.28 88.544 271.848 88.064 271.304C87.584 270.749 87.2107 270.131 86.944 269.448C86.688 268.755 86.56 268.045 86.56 267.32C86.56 266.563 86.6987 265.843 86.976 265.16C87.2533 264.467 87.6373 263.853 88.128 263.32C88.6187 262.776 89.1947 262.349 89.856 262.04C90.528 261.72 91.2533 261.56 92.032 261.56C92.8427 261.56 93.5787 261.725 94.24 262.056C94.912 262.387 95.4827 262.829 95.952 263.384C96.432 263.939 96.8 264.557 97.056 265.24C97.3227 265.923 97.456 266.621 97.456 267.336C97.456 268.093 97.3173 268.819 97.04 269.512C96.7733 270.195 96.3947 270.808 95.904 271.352C95.4133 271.885 94.832 272.307 94.16 272.616C93.4987 272.925 92.7787 273.08 92 273.08ZM88.384 267.32C88.384 267.853 88.4693 268.371 88.64 268.872C88.8107 269.373 89.0507 269.821 89.36 270.216C89.68 270.6 90.064 270.904 90.512 271.128C90.96 271.352 91.4613 271.464 92.016 271.464C92.592 271.464 93.104 271.347 93.552 271.112C94 270.877 94.3733 270.563 94.672 270.168C94.9813 269.763 95.216 269.315 95.376 268.824C95.536 268.323 95.616 267.821 95.616 267.32C95.616 266.787 95.5307 266.275 95.36 265.784C95.2 265.283 94.96 264.84 94.64 264.456C94.32 264.061 93.936 263.752 93.488 263.528C93.0507 263.304 92.56 263.192 92.016 263.192C91.44 263.192 90.928 263.309 90.48 263.544C90.032 263.779 89.6533 264.093 89.344 264.488C89.0347 264.883 88.7947 265.325 88.624 265.816C88.464 266.307 88.384 266.808 88.384 267.32ZM99.3113 273V261.64H104.255C104.767 261.64 105.237 261.747 105.663 261.96C106.09 262.173 106.458 262.456 106.767 262.808C107.087 263.16 107.333 263.555 107.503 263.992C107.685 264.429 107.775 264.877 107.775 265.336C107.775 265.837 107.685 266.317 107.503 266.776C107.322 267.235 107.061 267.629 106.719 267.96C106.389 268.291 105.999 268.531 105.551 268.68L108.223 273H106.207L103.743 269.048H101.103V273H99.3113ZM101.103 267.464H104.239C104.57 267.464 104.863 267.368 105.119 267.176C105.375 266.984 105.578 266.728 105.727 266.408C105.877 266.077 105.951 265.72 105.951 265.336C105.951 264.941 105.866 264.589 105.695 264.28C105.525 263.96 105.301 263.704 105.023 263.512C104.757 263.32 104.463 263.224 104.143 263.224H101.103V267.464ZM118.116 263.224H114.34V273H112.532V263.224H108.74V261.64H118.116V263.224ZM124.375 273.08C123.469 273.08 122.701 272.925 122.071 272.616C121.453 272.307 120.951 271.885 120.567 271.352C120.194 270.819 119.917 270.211 119.735 269.528C119.565 268.845 119.479 268.136 119.479 267.4V261.64H121.271V267.4C121.271 267.923 121.325 268.429 121.431 268.92C121.538 269.4 121.709 269.832 121.943 270.216C122.178 270.6 122.493 270.904 122.887 271.128C123.293 271.352 123.789 271.464 124.375 271.464C124.973 271.464 125.469 271.352 125.863 271.128C126.269 270.893 126.583 270.584 126.807 270.2C127.042 269.805 127.213 269.368 127.319 268.888C127.426 268.408 127.479 267.912 127.479 267.4V261.64H129.287V267.4C129.287 268.179 129.191 268.915 128.999 269.608C128.818 270.291 128.53 270.893 128.135 271.416C127.751 271.928 127.25 272.333 126.631 272.632C126.013 272.931 125.261 273.08 124.375 273.08ZM133.463 264.968V273H131.671V261.64H133.143L139.575 269.848V261.656H141.383V273H139.815L133.463 264.968ZM143.936 273V261.64H145.728V273H143.936ZM148.296 273V261.64H152.328C153.554 261.64 154.578 261.896 155.4 262.408C156.221 262.909 156.834 263.592 157.24 264.456C157.656 265.309 157.864 266.259 157.864 267.304C157.864 268.456 157.634 269.459 157.176 270.312C156.728 271.165 156.088 271.827 155.256 272.296C154.424 272.765 153.448 273 152.328 273H148.296ZM156.04 267.304C156.04 266.504 155.89 265.8 155.592 265.192C155.304 264.573 154.882 264.093 154.328 263.752C153.784 263.4 153.117 263.224 152.328 263.224H150.088V271.416H152.328C153.128 271.416 153.8 271.235 154.344 270.872C154.898 270.509 155.32 270.019 155.608 269.4C155.896 268.781 156.04 268.083 156.04 267.304ZM162.607 261.64H164.303L168.719 273H166.831L165.631 269.912H161.247L160.063 273H158.159L162.607 261.64ZM165.279 268.584L163.455 263.608L161.567 268.584H165.279ZM170.124 273V261.64H174.156C175.382 261.64 176.406 261.896 177.228 262.408C178.049 262.909 178.662 263.592 179.068 264.456C179.484 265.309 179.692 266.259 179.692 267.304C179.692 268.456 179.462 269.459 179.004 270.312C178.556 271.165 177.916 271.827 177.084 272.296C176.252 272.765 175.276 273 174.156 273H170.124ZM177.868 267.304C177.868 266.504 177.718 265.8 177.42 265.192C177.132 264.573 176.71 264.093 176.156 263.752C175.612 263.4 174.945 263.224 174.156 263.224H171.916V271.416H174.156C174.956 271.416 175.628 271.235 176.172 270.872C176.726 270.509 177.148 270.019 177.436 269.4C177.724 268.781 177.868 268.083 177.868 267.304ZM189.369 271.416V273H181.577V261.64H189.225V263.224H183.369V266.456H188.441V267.944H183.369V271.416H189.369ZM197.938 264.312C197.831 264.195 197.676 264.072 197.474 263.944C197.271 263.805 197.031 263.677 196.754 263.56C196.476 263.443 196.178 263.347 195.858 263.272C195.538 263.197 195.207 263.16 194.866 263.16C194.119 263.16 193.564 263.299 193.202 263.576C192.839 263.853 192.658 264.237 192.658 264.728C192.658 265.091 192.759 265.379 192.962 265.592C193.164 265.795 193.474 265.965 193.89 266.104C194.306 266.243 194.828 266.392 195.458 266.552C196.226 266.733 196.892 266.952 197.458 267.208C198.023 267.453 198.455 267.784 198.753 268.2C199.052 268.616 199.202 269.165 199.202 269.848C199.202 270.424 199.095 270.92 198.882 271.336C198.668 271.752 198.37 272.093 197.986 272.36C197.602 272.616 197.159 272.808 196.658 272.936C196.156 273.053 195.618 273.112 195.042 273.112C194.476 273.112 193.911 273.053 193.346 272.936C192.791 272.819 192.258 272.648 191.746 272.424C191.244 272.189 190.78 271.907 190.354 271.576L191.17 270.04C191.308 270.179 191.506 270.333 191.762 270.504C192.028 270.664 192.332 270.819 192.674 270.968C193.026 271.117 193.404 271.245 193.81 271.352C194.226 271.448 194.647 271.496 195.074 271.496C195.788 271.496 196.332 271.373 196.706 271.128C197.09 270.872 197.282 270.509 197.282 270.04C197.282 269.656 197.159 269.352 196.914 269.128C196.668 268.893 196.311 268.696 195.842 268.536C195.372 268.376 194.812 268.216 194.161 268.056C193.415 267.853 192.791 267.635 192.289 267.4C191.788 267.155 191.41 266.845 191.154 266.472C190.908 266.088 190.786 265.603 190.786 265.016C190.786 264.269 190.967 263.64 191.33 263.128C191.692 262.605 192.183 262.216 192.802 261.96C193.431 261.693 194.135 261.56 194.914 261.56C195.426 261.56 195.911 261.619 196.37 261.736C196.828 261.843 197.255 261.992 197.65 262.184C198.055 262.376 198.423 262.595 198.753 262.84L197.938 264.312ZM209.592 266.616V268.024H207.816V269.96H206.232V268.024H204.456V266.616H206.232V264.68H207.816V266.616H209.592ZM218.388 261.64H220.084L224.5 273H222.612L221.412 269.912H217.028L215.844 273H213.94L218.388 261.64ZM221.06 268.584L219.236 263.608L217.348 268.584H221.06ZM219.828 260.456L218.676 260.104L219.588 258.344H221.268L219.828 260.456ZM225.905 273V261.64H230.849C231.361 261.64 231.83 261.747 232.257 261.96C232.684 262.173 233.052 262.456 233.361 262.808C233.681 263.16 233.926 263.555 234.097 263.992C234.278 264.429 234.369 264.877 234.369 265.336C234.369 265.837 234.278 266.317 234.097 266.776C233.916 267.235 233.654 267.629 233.313 267.96C232.982 268.291 232.593 268.531 232.145 268.68L234.817 273H232.801L230.337 269.048H227.697V273H225.905ZM227.697 267.464H230.833C231.164 267.464 231.457 267.368 231.713 267.176C231.969 266.984 232.172 266.728 232.321 266.408C232.47 266.077 232.545 265.72 232.545 265.336C232.545 264.941 232.46 264.589 232.289 264.28C232.118 263.96 231.894 263.704 231.617 263.512C231.35 263.32 231.057 263.224 230.737 263.224H227.697V267.464ZM244.275 271.416V273H236.483V261.64H244.131V263.224H238.275V266.456H243.347V267.944H238.275V271.416H244.275ZM249.404 261.64H251.1L255.516 273H253.628L252.428 269.912H248.044L246.86 273H244.956L249.404 261.64ZM252.076 268.584L250.252 263.608L248.364 268.584H252.076ZM263.484 264.312C263.378 264.195 263.223 264.072 263.02 263.944C262.818 263.805 262.578 263.677 262.3 263.56C262.023 263.443 261.724 263.347 261.404 263.272C261.084 263.197 260.754 263.16 260.412 263.16C259.666 263.16 259.111 263.299 258.748 263.576C258.386 263.853 258.204 264.237 258.204 264.728C258.204 265.091 258.306 265.379 258.508 265.592C258.711 265.795 259.02 265.965 259.436 266.104C259.852 266.243 260.375 266.392 261.004 266.552C261.772 266.733 262.439 266.952 263.004 267.208C263.57 267.453 264.002 267.784 264.3 268.2C264.599 268.616 264.748 269.165 264.748 269.848C264.748 270.424 264.642 270.92 264.428 271.336C264.215 271.752 263.916 272.093 263.532 272.36C263.148 272.616 262.706 272.808 262.204 272.936C261.703 273.053 261.164 273.112 260.588 273.112C260.023 273.112 259.458 273.053 258.892 272.936C258.338 272.819 257.804 272.648 257.292 272.424C256.791 272.189 256.327 271.907 255.9 271.576L256.716 270.04C256.855 270.179 257.052 270.333 257.308 270.504C257.575 270.664 257.879 270.819 258.22 270.968C258.572 271.117 258.951 271.245 259.356 271.352C259.772 271.448 260.194 271.496 260.62 271.496C261.335 271.496 261.879 271.373 262.252 271.128C262.636 270.872 262.828 270.509 262.828 270.04C262.828 269.656 262.706 269.352 262.46 269.128C262.215 268.893 261.858 268.696 261.388 268.536C260.919 268.376 260.359 268.216 259.708 268.056C258.962 267.853 258.338 267.635 257.836 267.4C257.335 267.155 256.956 266.845 256.7 266.472C256.455 266.088 256.332 265.603 256.332 265.016C256.332 264.269 256.514 263.64 256.876 263.128C257.239 262.605 257.73 262.216 258.348 261.96C258.978 261.693 259.682 261.56 260.46 261.56C260.972 261.56 261.458 261.619 261.916 261.736C262.375 261.843 262.802 261.992 263.196 262.184C263.602 262.376 263.97 262.595 264.3 262.84L263.484 264.312ZM270.499 273V261.64H275.443C275.955 261.64 276.424 261.747 276.851 261.96C277.277 262.173 277.645 262.456 277.955 262.808C278.275 263.16 278.52 263.555 278.691 263.992C278.872 264.429 278.963 264.877 278.963 265.336C278.963 265.837 278.872 266.317 278.691 266.776C278.509 267.235 278.248 267.629 277.907 267.96C277.576 268.291 277.187 268.531 276.739 268.68L279.411 273H277.395L274.931 269.048H272.291V273H270.499ZM272.291 267.464H275.427C275.757 267.464 276.051 267.368 276.307 267.176C276.563 266.984 276.765 266.728 276.915 266.408C277.064 266.077 277.139 265.72 277.139 265.336C277.139 264.941 277.053 264.589 276.883 264.28C276.712 263.96 276.488 263.704 276.211 263.512C275.944 263.32 275.651 263.224 275.331 263.224H272.291V267.464ZM288.869 271.416V273H281.077V261.64H288.725V263.224H282.869V266.456H287.941V267.944H282.869V271.416H288.869ZM297.438 264.312C297.331 264.195 297.176 264.072 296.974 263.944C296.771 263.805 296.531 263.677 296.254 263.56C295.976 263.443 295.678 263.347 295.358 263.272C295.038 263.197 294.707 263.16 294.366 263.16C293.619 263.16 293.064 263.299 292.702 263.576C292.339 263.853 292.158 264.237 292.158 264.728C292.158 265.091 292.259 265.379 292.462 265.592C292.664 265.795 292.974 265.965 293.39 266.104C293.806 266.243 294.328 266.392 294.958 266.552C295.726 266.733 296.392 266.952 296.958 267.208C297.523 267.453 297.955 267.784 298.253 268.2C298.552 268.616 298.702 269.165 298.702 269.848C298.702 270.424 298.595 270.92 298.382 271.336C298.168 271.752 297.87 272.093 297.486 272.36C297.102 272.616 296.659 272.808 296.158 272.936C295.656 273.053 295.118 273.112 294.542 273.112C293.976 273.112 293.411 273.053 292.846 272.936C292.291 272.819 291.758 272.648 291.246 272.424C290.744 272.189 290.28 271.907 289.854 271.576L290.67 270.04C290.808 270.179 291.006 270.333 291.262 270.504C291.528 270.664 291.832 270.819 292.174 270.968C292.526 271.117 292.904 271.245 293.31 271.352C293.726 271.448 294.147 271.496 294.574 271.496C295.288 271.496 295.832 271.373 296.206 271.128C296.59 270.872 296.782 270.509 296.782 270.04C296.782 269.656 296.659 269.352 296.414 269.128C296.168 268.893 295.811 268.696 295.342 268.536C294.872 268.376 294.312 268.216 293.661 268.056C292.915 267.853 292.291 267.635 291.789 267.4C291.288 267.155 290.91 266.845 290.654 266.472C290.408 266.088 290.286 265.603 290.286 265.016C290.286 264.269 290.467 263.64 290.83 263.128C291.192 262.605 291.683 262.216 292.302 261.96C292.931 261.693 293.635 261.56 294.414 261.56C294.926 261.56 295.411 261.619 295.87 261.736C296.328 261.843 296.755 261.992 297.15 262.184C297.555 262.376 297.923 262.595 298.253 262.84L297.438 264.312ZM300.499 273V261.64H305.267C305.779 261.64 306.248 261.747 306.675 261.96C307.101 262.173 307.475 262.456 307.795 262.808C308.115 263.16 308.36 263.555 308.531 263.992C308.701 264.429 308.787 264.877 308.787 265.336C308.787 265.965 308.643 266.568 308.355 267.144C308.077 267.709 307.677 268.168 307.155 268.52C306.643 268.872 306.045 269.048 305.363 269.048H302.291V273H300.499ZM302.291 267.464H305.251C305.592 267.464 305.891 267.373 306.147 267.192C306.403 267 306.6 266.744 306.739 266.424C306.888 266.104 306.963 265.741 306.963 265.336C306.963 264.92 306.877 264.552 306.707 264.232C306.536 263.912 306.312 263.667 306.035 263.496C305.768 263.315 305.475 263.224 305.155 263.224H302.291V267.464ZM315.188 273.08C314.366 273.08 313.625 272.92 312.964 272.6C312.302 272.28 311.732 271.848 311.252 271.304C310.772 270.749 310.398 270.131 310.132 269.448C309.876 268.755 309.748 268.045 309.748 267.32C309.748 266.563 309.886 265.843 310.164 265.16C310.441 264.467 310.825 263.853 311.316 263.32C311.806 262.776 312.382 262.349 313.044 262.04C313.716 261.72 314.441 261.56 315.22 261.56C316.03 261.56 316.766 261.725 317.428 262.056C318.1 262.387 318.67 262.829 319.14 263.384C319.62 263.939 319.988 264.557 320.244 265.24C320.51 265.923 320.644 266.621 320.644 267.336C320.644 268.093 320.505 268.819 320.228 269.512C319.961 270.195 319.582 270.808 319.092 271.352C318.601 271.885 318.02 272.307 317.348 272.616C316.686 272.925 315.966 273.08 315.188 273.08ZM311.572 267.32C311.572 267.853 311.657 268.371 311.828 268.872C311.998 269.373 312.238 269.821 312.548 270.216C312.868 270.6 313.252 270.904 313.7 271.128C314.148 271.352 314.649 271.464 315.204 271.464C315.78 271.464 316.292 271.347 316.74 271.112C317.188 270.877 317.561 270.563 317.86 270.168C318.169 269.763 318.404 269.315 318.564 268.824C318.724 268.323 318.804 267.821 318.804 267.32C318.804 266.787 318.718 266.275 318.548 265.784C318.388 265.283 318.148 264.84 317.828 264.456C317.508 264.061 317.124 263.752 316.676 263.528C316.238 263.304 315.748 263.192 315.204 263.192C314.628 263.192 314.116 263.309 313.668 263.544C313.22 263.779 312.841 264.093 312.532 264.488C312.222 264.883 311.982 265.325 311.812 265.816C311.652 266.307 311.572 266.808 311.572 267.32ZM324.291 264.968V273H322.499V261.64H323.971L330.403 269.848V261.656H332.211V273H330.643L324.291 264.968ZM341.484 264.312C341.378 264.195 341.223 264.072 341.02 263.944C340.818 263.805 340.578 263.677 340.3 263.56C340.023 263.443 339.724 263.347 339.404 263.272C339.084 263.197 338.754 263.16 338.412 263.16C337.666 263.16 337.111 263.299 336.748 263.576C336.386 263.853 336.204 264.237 336.204 264.728C336.204 265.091 336.306 265.379 336.508 265.592C336.711 265.795 337.02 265.965 337.436 266.104C337.852 266.243 338.375 266.392 339.004 266.552C339.772 266.733 340.439 266.952 341.004 267.208C341.57 267.453 342.002 267.784 342.3 268.2C342.599 268.616 342.748 269.165 342.748 269.848C342.748 270.424 342.642 270.92 342.428 271.336C342.215 271.752 341.916 272.093 341.532 272.36C341.148 272.616 340.706 272.808 340.204 272.936C339.703 273.053 339.164 273.112 338.588 273.112C338.023 273.112 337.458 273.053 336.892 272.936C336.338 272.819 335.804 272.648 335.292 272.424C334.791 272.189 334.327 271.907 333.9 271.576L334.716 270.04C334.855 270.179 335.052 270.333 335.308 270.504C335.575 270.664 335.879 270.819 336.22 270.968C336.572 271.117 336.951 271.245 337.356 271.352C337.772 271.448 338.194 271.496 338.62 271.496C339.335 271.496 339.879 271.373 340.252 271.128C340.636 270.872 340.828 270.509 340.828 270.04C340.828 269.656 340.706 269.352 340.46 269.128C340.215 268.893 339.858 268.696 339.388 268.536C338.919 268.376 338.359 268.216 337.708 268.056C336.962 267.853 336.338 267.635 335.836 267.4C335.335 267.155 334.956 266.845 334.7 266.472C334.455 266.088 334.332 265.603 334.332 265.016C334.332 264.269 334.514 263.64 334.876 263.128C335.239 262.605 335.73 262.216 336.348 261.96C336.978 261.693 337.682 261.56 338.46 261.56C338.972 261.56 339.458 261.619 339.916 261.736C340.375 261.843 340.802 261.992 341.196 262.184C341.602 262.376 341.97 262.595 342.3 262.84L341.484 264.312ZM347.591 261.64H349.287L353.703 273H351.815L350.615 269.912H346.231L345.047 273H343.143L347.591 261.64ZM350.263 268.584L348.439 263.608L346.551 268.584H350.263ZM349.031 260.456L347.879 260.104L348.791 258.344H350.471L349.031 260.456ZM354.906 261.64L358.33 270.808L361.738 261.64H363.642L359.178 273H357.482L353.002 261.64H354.906ZM372.822 271.416V273H365.03V261.64H372.678V263.224H366.822V266.456H371.894V267.944H366.822V271.416H372.822ZM374.671 273V261.64H376.463V273H374.671ZM385.75 264.312C385.643 264.195 385.489 264.072 385.286 263.944C385.083 263.805 384.843 263.677 384.566 263.56C384.289 263.443 383.99 263.347 383.67 263.272C383.35 263.197 383.019 263.16 382.678 263.16C381.931 263.16 381.377 263.299 381.014 263.576C380.651 263.853 380.47 264.237 380.47 264.728C380.47 265.091 380.571 265.379 380.774 265.592C380.977 265.795 381.286 265.965 381.702 266.104C382.118 266.243 382.641 266.392 383.27 266.552C384.038 266.733 384.705 266.952 385.27 267.208C385.835 267.453 386.267 267.784 386.566 268.2C386.865 268.616 387.014 269.165 387.014 269.848C387.014 270.424 386.907 270.92 386.694 271.336C386.481 271.752 386.182 272.093 385.798 272.36C385.414 272.616 384.971 272.808 384.47 272.936C383.969 273.053 383.43 273.112 382.854 273.112C382.289 273.112 381.723 273.053 381.158 272.936C380.603 272.819 380.07 272.648 379.558 272.424C379.057 272.189 378.593 271.907 378.166 271.576L378.982 270.04C379.121 270.179 379.318 270.333 379.574 270.504C379.841 270.664 380.145 270.819 380.486 270.968C380.838 271.117 381.217 271.245 381.622 271.352C382.038 271.448 382.459 271.496 382.886 271.496C383.601 271.496 384.145 271.373 384.518 271.128C384.902 270.872 385.094 270.509 385.094 270.04C385.094 269.656 384.971 269.352 384.726 269.128C384.481 268.893 384.123 268.696 383.654 268.536C383.185 268.376 382.625 268.216 381.974 268.056C381.227 267.853 380.603 267.635 380.102 267.4C379.601 267.155 379.222 266.845 378.966 266.472C378.721 266.088 378.598 265.603 378.598 265.016C378.598 264.269 378.779 263.64 379.142 263.128C379.505 262.605 379.995 262.216 380.614 261.96C381.243 261.693 381.947 261.56 382.726 261.56C383.238 261.56 383.723 261.619 384.182 261.736C384.641 261.843 385.067 261.992 385.462 262.184C385.867 262.376 386.235 262.595 386.566 262.84L385.75 264.312Z" fill="#4C3692"/>
<path d="M50.36 75V63.64H55.096C55.5973 63.64 56.056 63.7467 56.472 63.96C56.888 64.1627 57.2507 64.44 57.56 64.792C57.8693 65.1333 58.1093 65.5227 58.28 65.96C58.4507 66.3867 58.536 66.824 58.536 67.272C58.536 67.8907 58.3973 68.4827 58.12 69.048C57.8427 69.6027 57.4533 70.056 56.952 70.408C56.4507 70.7493 55.864 70.92 55.192 70.92H51.8V75H50.36ZM51.8 69.64H55.112C55.5067 69.64 55.848 69.5333 56.136 69.32C56.4347 69.1067 56.664 68.8187 56.824 68.456C56.9947 68.0933 57.08 67.6987 57.08 67.272C57.08 66.824 56.984 66.424 56.792 66.072C56.6 65.7093 56.3493 65.4267 56.04 65.224C55.7307 65.0213 55.3893 64.92 55.016 64.92H51.8V69.64ZM62.9723 63.64H64.1883L68.8283 75H67.2923L65.9483 71.672H61.1803L59.8523 75H58.3163L62.9723 63.64ZM65.6283 70.552L63.5803 65.304L61.4683 70.552H65.6283ZM76.8601 66.024C76.7321 65.8747 76.5615 65.7307 76.3481 65.592C76.1348 65.4533 75.8948 65.3307 75.6281 65.224C75.3615 65.1067 75.0681 65.016 74.7481 64.952C74.4388 64.8773 74.1135 64.84 73.7721 64.84C72.8975 64.84 72.2521 65.0053 71.8361 65.336C71.4201 65.6667 71.2121 66.12 71.2121 66.696C71.2121 67.1013 71.3188 67.4213 71.5321 67.656C71.7455 67.8907 72.0708 68.0827 72.5081 68.232C72.9561 68.3813 73.5215 68.536 74.2041 68.696C74.9935 68.8667 75.6761 69.0747 76.2521 69.32C76.8281 69.5653 77.2708 69.896 77.5801 70.312C77.8895 70.7173 78.0441 71.2613 78.0441 71.944C78.0441 72.488 77.9375 72.9627 77.7241 73.368C77.5215 73.7627 77.2335 74.0933 76.8601 74.36C76.4868 74.616 76.0495 74.808 75.5481 74.936C75.0468 75.0533 74.5028 75.112 73.9161 75.112C73.3401 75.112 72.7748 75.0533 72.2201 74.936C71.6761 74.808 71.1588 74.6267 70.6681 74.392C70.1775 74.1573 69.7188 73.864 69.2921 73.512L69.9801 72.296C70.1508 72.4773 70.3695 72.6587 70.6361 72.84C70.9135 73.0107 71.2228 73.1707 71.5641 73.32C71.9161 73.4693 72.2948 73.592 72.7001 73.688C73.1055 73.7733 73.5215 73.816 73.9481 73.816C74.7588 73.816 75.3881 73.672 75.8361 73.384C76.2841 73.0853 76.5081 72.6533 76.5081 72.088C76.5081 71.6613 76.3801 71.32 76.1241 71.064C75.8788 70.808 75.5108 70.5947 75.0201 70.424C74.5295 70.2533 73.9321 70.0827 73.2281 69.912C72.4601 69.72 71.8148 69.512 71.2921 69.288C70.7695 69.0533 70.3748 68.7493 70.1081 68.376C69.8521 68.0027 69.7241 67.5173 69.7241 66.92C69.7241 66.1947 69.9001 65.5813 70.2521 65.08C70.6041 64.5787 71.0895 64.2 71.7081 63.944C72.3268 63.688 73.0255 63.56 73.8041 63.56C74.3161 63.56 74.7908 63.6133 75.2281 63.72C75.6761 63.8267 76.0921 63.976 76.4761 64.168C76.8601 64.36 77.2121 64.5893 77.5321 64.856L76.8601 66.024ZM86.6101 66.024C86.4821 65.8747 86.3115 65.7307 86.0981 65.592C85.8848 65.4533 85.6448 65.3307 85.3781 65.224C85.1115 65.1067 84.8181 65.016 84.4981 64.952C84.1888 64.8773 83.8635 64.84 83.5221 64.84C82.6475 64.84 82.0021 65.0053 81.5861 65.336C81.1701 65.6667 80.9621 66.12 80.9621 66.696C80.9621 67.1013 81.0688 67.4213 81.2821 67.656C81.4955 67.8907 81.8208 68.0827 82.2581 68.232C82.7061 68.3813 83.2715 68.536 83.9541 68.696C84.7435 68.8667 85.4261 69.0747 86.0021 69.32C86.5781 69.5653 87.0208 69.896 87.3301 70.312C87.6395 70.7173 87.7941 71.2613 87.7941 71.944C87.7941 72.488 87.6875 72.9627 87.4741 73.368C87.2715 73.7627 86.9835 74.0933 86.6101 74.36C86.2368 74.616 85.7995 74.808 85.2981 74.936C84.7968 75.0533 84.2528 75.112 83.6661 75.112C83.0901 75.112 82.5248 75.0533 81.9701 74.936C81.4261 74.808 80.9088 74.6267 80.4181 74.392C79.9275 74.1573 79.4688 73.864 79.0421 73.512L79.7301 72.296C79.9008 72.4773 80.1195 72.6587 80.3861 72.84C80.6635 73.0107 80.9728 73.1707 81.3141 73.32C81.6661 73.4693 82.0448 73.592 82.4501 73.688C82.8555 73.7733 83.2715 73.816 83.6981 73.816C84.5088 73.816 85.1381 73.672 85.5861 73.384C86.0341 73.0853 86.2581 72.6533 86.2581 72.088C86.2581 71.6613 86.1301 71.32 85.8741 71.064C85.6288 70.808 85.2608 70.5947 84.7701 70.424C84.2795 70.2533 83.6821 70.0827 82.9781 69.912C82.2101 69.72 81.5648 69.512 81.0421 69.288C80.5195 69.0533 80.1248 68.7493 79.8581 68.376C79.6021 68.0027 79.4741 67.5173 79.4741 66.92C79.4741 66.1947 79.6501 65.5813 80.0021 65.08C80.3541 64.5787 80.8395 64.2 81.4581 63.944C82.0768 63.688 82.7755 63.56 83.5541 63.56C84.0661 63.56 84.5408 63.6133 84.9781 63.72C85.4261 63.8267 85.8421 63.976 86.2261 64.168C86.6101 64.36 86.9621 64.5893 87.2821 64.856L86.6101 66.024ZM94.2961 75.08C93.4961 75.08 92.7708 74.92 92.1201 74.6C91.4695 74.28 90.9041 73.848 90.4241 73.304C89.9548 72.7493 89.5921 72.1307 89.3361 71.448C89.0801 70.7547 88.9521 70.0453 88.9521 69.32C88.9521 68.5627 89.0855 67.8427 89.3521 67.16C89.6295 66.4667 90.0081 65.8533 90.4881 65.32C90.9788 64.776 91.5495 64.3493 92.2001 64.04C92.8508 63.72 93.5601 63.56 94.3281 63.56C95.1281 63.56 95.8535 63.7253 96.5041 64.056C97.1548 64.3867 97.7148 64.8293 98.1841 65.384C98.6535 65.9387 99.0161 66.5573 99.2721 67.24C99.5281 67.9227 99.6561 68.6213 99.6561 69.336C99.6561 70.0933 99.5228 70.8187 99.2561 71.512C98.9895 72.1947 98.6108 72.808 98.1201 73.352C97.6401 73.8853 97.0748 74.3067 96.4241 74.616C95.7735 74.9253 95.0641 75.08 94.2961 75.08ZM90.4081 69.32C90.4081 69.896 90.4988 70.456 90.6801 71C90.8721 71.5333 91.1388 72.008 91.4801 72.424C91.8215 72.84 92.2321 73.1707 92.7121 73.416C93.1921 73.6613 93.7255 73.784 94.3121 73.784C94.9201 73.784 95.4641 73.656 95.9441 73.4C96.4241 73.144 96.8295 72.8027 97.1601 72.376C97.5015 71.9493 97.7575 71.4693 97.9281 70.936C98.1095 70.4027 98.2001 69.864 98.2001 69.32C98.2001 68.744 98.1041 68.1893 97.9121 67.656C97.7308 67.1227 97.4641 66.648 97.1121 66.232C96.7708 65.8053 96.3601 65.4747 95.8801 65.24C95.4108 64.9947 94.8881 64.872 94.3121 64.872C93.7041 64.872 93.1601 65 92.6801 65.256C92.2001 65.5013 91.7895 65.8373 91.4481 66.264C91.1175 66.6907 90.8615 67.1707 90.6801 67.704C90.4988 68.2267 90.4081 68.7653 90.4081 69.32ZM111.16 73.72V75H105.416V73.72H107.688V67.48C107.592 67.608 107.442 67.7467 107.24 67.896C107.037 68.0347 106.808 68.168 106.552 68.296C106.296 68.424 106.04 68.5307 105.784 68.616C105.528 68.6907 105.293 68.728 105.08 68.728V67.384C105.314 67.384 105.57 67.32 105.848 67.192C106.136 67.0533 106.413 66.8933 106.68 66.712C106.946 66.5307 107.17 66.36 107.352 66.2C107.544 66.04 107.656 65.928 107.688 65.864H109.128V73.72H111.16Z" fill="#4C3692"/>
<path d="M30.496 115.008V116H25.072V115.008H27.344V108.16C27.2587 108.288 27.1147 108.427 26.912 108.576C26.7093 108.725 26.4747 108.864 26.208 108.992C25.952 109.12 25.696 109.227 25.44 109.312C25.184 109.397 24.9493 109.44 24.736 109.44V108.384C24.9813 108.384 25.248 108.315 25.536 108.176C25.824 108.037 26.1013 107.877 26.368 107.696C26.6347 107.515 26.8587 107.344 27.04 107.184C27.2213 107.024 27.3227 106.917 27.344 106.864H28.464V115.008H30.496ZM31.8838 116V114.432H32.8278V116H31.8838Z" fill="#4C3692"/>
<path d="M166.696 118.032V115.184H161.368V114.224L167.048 106.864H167.784V114.192H169.192V115.184H167.784V118.032H166.696ZM162.52 114.192H166.808V108.576L162.52 114.192ZM170.774 116V114.432H171.718V116H170.774Z" fill="#4C3692"/>
<path d="M165.192 141.384C164.392 141.384 163.667 141.181 163.016 140.776C162.365 140.381 161.88 139.859 161.56 139.208L162.28 138.664C162.579 139.187 162.984 139.608 163.496 139.928C164.019 140.248 164.589 140.408 165.208 140.408C165.741 140.408 166.216 140.291 166.632 140.056C167.059 139.821 167.395 139.496 167.64 139.08C167.896 138.664 168.024 138.184 168.024 137.64C168.024 137.117 167.901 136.659 167.656 136.264C167.421 135.859 167.096 135.544 166.68 135.32C166.275 135.096 165.816 134.984 165.304 134.984C164.813 134.984 164.344 135.096 163.896 135.32C163.448 135.533 163.085 135.848 162.808 136.264H161.8L163.064 129.864H168.552V130.872H163.88L163.096 134.952C163.373 134.653 163.715 134.424 164.12 134.264C164.525 134.093 164.963 134.008 165.432 134.008C166.125 134.008 166.749 134.163 167.304 134.472C167.869 134.781 168.317 135.208 168.648 135.752C168.979 136.296 169.144 136.92 169.144 137.624C169.144 138.371 168.963 139.027 168.6 139.592C168.248 140.157 167.773 140.595 167.176 140.904C166.579 141.224 165.917 141.384 165.192 141.384ZM170.759 139V137.432H171.703V139H170.759Z" fill="#4C3692"/>
<path d="M169.944 156.256C169.944 156.971 169.763 157.627 169.4 158.224C169.048 158.811 168.568 159.28 167.96 159.632C167.352 159.984 166.669 160.16 165.912 160.16C165.123 160.16 164.419 159.973 163.8 159.6C163.192 159.216 162.712 158.667 162.36 157.952C162.008 157.237 161.832 156.389 161.832 155.408C161.832 153.861 162.008 152.587 162.36 151.584C162.712 150.571 163.203 149.813 163.832 149.312C164.461 148.811 165.192 148.56 166.024 148.56C166.781 148.56 167.459 148.752 168.056 149.136C168.653 149.509 169.107 150.021 169.416 150.672L168.712 151.312C168.488 150.768 168.131 150.336 167.64 150.016C167.16 149.685 166.621 149.52 166.024 149.52C165.395 149.52 164.845 149.717 164.376 150.112C163.907 150.507 163.539 151.072 163.272 151.808C163.016 152.544 162.888 153.435 162.888 154.48C163.048 154.064 163.283 153.701 163.592 153.392C163.901 153.083 164.264 152.843 164.68 152.672C165.107 152.501 165.56 152.416 166.04 152.416C166.765 152.416 167.421 152.587 168.008 152.928C168.605 153.269 169.075 153.733 169.416 154.32C169.768 154.896 169.944 155.541 169.944 156.256ZM165.944 159.2C166.477 159.2 166.968 159.067 167.416 158.8C167.864 158.533 168.221 158.176 168.488 157.728C168.765 157.28 168.904 156.789 168.904 156.256C168.904 155.723 168.765 155.232 168.488 154.784C168.221 154.336 167.864 153.979 167.416 153.712C166.968 153.445 166.477 153.312 165.944 153.312C165.4 153.312 164.899 153.445 164.44 153.712C163.992 153.979 163.635 154.336 163.368 154.784C163.101 155.221 162.968 155.712 162.968 156.256C162.968 156.789 163.101 157.28 163.368 157.728C163.645 158.176 164.008 158.533 164.456 158.8C164.904 159.067 165.4 159.2 165.944 159.2ZM171.681 160V158.432H172.625V160H171.681Z" fill="#4C3692"/>
<path d="M310.672 107.68H304.544V106.672H312.4L306.656 118.032H305.408L310.672 107.68ZM312.556 116V114.432H313.5V116H312.556Z" fill="#4C3692"/>
<path d="M309.688 135.848C309.688 136.509 309.501 137.085 309.128 137.576C308.765 138.067 308.28 138.451 307.672 138.728C307.075 138.995 306.419 139.128 305.704 139.128C304.947 139.128 304.275 138.979 303.688 138.68C303.101 138.371 302.637 137.965 302.296 137.464C301.965 136.963 301.8 136.403 301.8 135.784C301.8 135.304 301.912 134.872 302.136 134.488C302.371 134.093 302.659 133.763 303 133.496C303.352 133.229 303.709 133.037 304.072 132.92C303.741 132.781 303.432 132.6 303.144 132.376C302.856 132.141 302.627 131.869 302.456 131.56C302.285 131.251 302.2 130.909 302.2 130.536C302.2 130.067 302.301 129.656 302.504 129.304C302.717 128.941 302.995 128.637 303.336 128.392C303.677 128.136 304.056 127.949 304.472 127.832C304.899 127.704 305.325 127.64 305.752 127.64C306.168 127.64 306.584 127.704 307 127.832C307.427 127.949 307.811 128.131 308.152 128.376C308.504 128.621 308.781 128.925 308.984 129.288C309.197 129.64 309.304 130.051 309.304 130.52C309.304 130.893 309.213 131.24 309.032 131.56C308.861 131.869 308.632 132.141 308.344 132.376C308.056 132.6 307.741 132.781 307.4 132.92C307.816 133.059 308.195 133.272 308.536 133.56C308.888 133.837 309.165 134.168 309.368 134.552C309.581 134.936 309.688 135.368 309.688 135.848ZM308.584 135.768C308.584 135.384 308.499 135.048 308.328 134.76C308.168 134.461 307.944 134.211 307.656 134.008C307.379 133.805 307.069 133.651 306.728 133.544C306.397 133.437 306.061 133.384 305.72 133.384C305.261 133.384 304.813 133.485 304.376 133.688C303.949 133.88 303.597 134.157 303.32 134.52C303.053 134.872 302.92 135.293 302.92 135.784C302.92 136.157 303 136.488 303.16 136.776C303.331 137.064 303.555 137.315 303.832 137.528C304.109 137.731 304.413 137.885 304.744 137.992C305.085 138.099 305.427 138.152 305.768 138.152C306.227 138.152 306.669 138.056 307.096 137.864C307.533 137.661 307.891 137.379 308.168 137.016C308.445 136.653 308.584 136.237 308.584 135.768ZM303.288 130.584C303.288 130.989 303.411 131.341 303.656 131.64C303.912 131.928 304.232 132.147 304.616 132.296C305 132.445 305.373 132.52 305.736 132.52C306.12 132.52 306.499 132.445 306.872 132.296C307.256 132.136 307.571 131.912 307.816 131.624C308.072 131.325 308.2 130.968 308.2 130.552C308.2 130.147 308.083 129.8 307.848 129.512C307.613 129.224 307.304 129.005 306.92 128.856C306.547 128.707 306.147 128.632 305.72 128.632C305.315 128.632 304.92 128.712 304.536 128.872C304.163 129.021 303.859 129.245 303.624 129.544C303.4 129.832 303.288 130.179 303.288 130.584ZM311.524 139V137.432H312.468V139H311.524Z" fill="#4C3692"/>
<path d="M301.576 153.768C301.576 153.043 301.752 152.387 302.104 151.8C302.467 151.213 302.952 150.744 303.56 150.392C304.179 150.04 304.861 149.864 305.608 149.864C306.408 149.864 307.112 150.056 307.72 150.44C308.339 150.813 308.819 151.357 309.16 152.072C309.512 152.776 309.688 153.624 309.688 154.616C309.688 156.163 309.512 157.443 309.16 158.456C308.808 159.459 308.317 160.211 307.688 160.712C307.059 161.213 306.328 161.464 305.496 161.464C304.749 161.464 304.072 161.272 303.464 160.888C302.867 160.515 302.413 160.003 302.104 159.352L302.808 158.712C303.032 159.245 303.389 159.677 303.88 160.008C304.371 160.339 304.909 160.504 305.496 160.504C306.136 160.504 306.685 160.307 307.144 159.912C307.613 159.517 307.976 158.952 308.232 158.216C308.499 157.48 308.637 156.589 308.648 155.544C308.499 155.949 308.264 156.312 307.944 156.632C307.624 156.941 307.256 157.181 306.84 157.352C306.424 157.523 305.971 157.608 305.48 157.608C304.765 157.608 304.109 157.437 303.512 157.096C302.915 156.755 302.44 156.296 302.088 155.72C301.747 155.133 301.576 154.483 301.576 153.768ZM305.592 150.824C305.048 150.824 304.552 150.957 304.104 151.224C303.656 151.491 303.293 151.848 303.016 152.296C302.749 152.733 302.616 153.224 302.616 153.768C302.616 154.301 302.749 154.792 303.016 155.24C303.293 155.688 303.656 156.045 304.104 156.312C304.563 156.579 305.059 156.712 305.592 156.712C306.136 156.712 306.632 156.579 307.08 156.312C307.528 156.045 307.885 155.688 308.152 155.24C308.419 154.792 308.552 154.301 308.552 153.768C308.552 153.235 308.419 152.744 308.152 152.296C307.885 151.848 307.523 151.491 307.064 151.224C306.616 150.957 306.125 150.824 305.592 150.824ZM311.415 159V157.432H312.359V159H311.415Z" fill="#4C3692"/>
<path d="M24.704 139C24.704 138.637 24.736 138.275 24.8 137.912C24.864 137.539 24.9867 137.171 25.168 136.808C25.3493 136.445 25.616 136.099 25.968 135.768C26.32 135.427 26.784 135.107 27.36 134.808C27.6693 134.648 27.9893 134.493 28.32 134.344C28.6507 134.184 28.96 134.013 29.248 133.832C29.5467 133.64 29.7813 133.427 29.952 133.192C30.1333 132.947 30.224 132.659 30.224 132.328C30.224 132.061 30.144 131.8 29.984 131.544C29.8347 131.288 29.6 131.08 29.28 130.92C28.9707 130.76 28.5813 130.68 28.112 130.68C27.7707 130.68 27.4613 130.728 27.184 130.824C26.9067 130.92 26.6613 131.043 26.448 131.192C26.2347 131.331 26.0533 131.475 25.904 131.624C25.7547 131.763 25.632 131.88 25.536 131.976L24.848 131.224C24.9013 131.16 25.0187 131.048 25.2 130.888C25.392 130.717 25.632 130.541 25.92 130.36C26.2187 130.179 26.5653 130.024 26.96 129.896C27.3653 129.768 27.808 129.704 28.288 129.704C28.9387 129.704 29.4933 129.821 29.952 130.056C30.4213 130.28 30.7787 130.584 31.024 130.968C31.2693 131.352 31.392 131.768 31.392 132.216C31.392 132.653 31.296 133.032 31.104 133.352C30.9227 133.661 30.6827 133.933 30.384 134.168C30.096 134.392 29.792 134.589 29.472 134.76C29.1627 134.92 28.88 135.059 28.624 135.176C28.1227 135.411 27.7013 135.645 27.36 135.88C27.0187 136.115 26.7467 136.355 26.544 136.6C26.3413 136.835 26.1813 137.069 26.064 137.304C25.9573 137.528 25.8827 137.763 25.84 138.008H31.568V139H24.704ZM33.3838 139V137.432H34.3278V139H33.3838Z" fill="#4C3692"/>
<path d="M193.36 75V63.64H198.096C198.597 63.64 199.056 63.7467 199.472 63.96C199.888 64.1627 200.251 64.44 200.56 64.792C200.869 65.1333 201.109 65.5227 201.28 65.96C201.451 66.3867 201.536 66.824 201.536 67.272C201.536 67.8907 201.397 68.4827 201.12 69.048C200.843 69.6027 200.453 70.056 199.952 70.408C199.451 70.7493 198.864 70.92 198.192 70.92H194.8V75H193.36ZM194.8 69.64H198.112C198.507 69.64 198.848 69.5333 199.136 69.32C199.435 69.1067 199.664 68.8187 199.824 68.456C199.995 68.0933 200.08 67.6987 200.08 67.272C200.08 66.824 199.984 66.424 199.792 66.072C199.6 65.7093 199.349 65.4267 199.04 65.224C198.731 65.0213 198.389 64.92 198.016 64.92H194.8V69.64ZM205.972 63.64H207.188L211.828 75H210.292L208.948 71.672H204.18L202.852 75H201.316L205.972 63.64ZM208.628 70.552L206.58 65.304L204.468 70.552H208.628ZM219.86 66.024C219.732 65.8747 219.561 65.7307 219.348 65.592C219.135 65.4533 218.895 65.3307 218.628 65.224C218.361 65.1067 218.068 65.016 217.748 64.952C217.439 64.8773 217.113 64.84 216.772 64.84C215.897 64.84 215.252 65.0053 214.836 65.336C214.42 65.6667 214.212 66.12 214.212 66.696C214.212 67.1013 214.319 67.4213 214.532 67.656C214.745 67.8907 215.071 68.0827 215.508 68.232C215.956 68.3813 216.521 68.536 217.204 68.696C217.993 68.8667 218.676 69.0747 219.252 69.32C219.828 69.5653 220.271 69.896 220.58 70.312C220.889 70.7173 221.044 71.2613 221.044 71.944C221.044 72.488 220.937 72.9627 220.724 73.368C220.521 73.7627 220.233 74.0933 219.86 74.36C219.487 74.616 219.049 74.808 218.548 74.936C218.047 75.0533 217.503 75.112 216.916 75.112C216.34 75.112 215.775 75.0533 215.22 74.936C214.676 74.808 214.159 74.6267 213.668 74.392C213.177 74.1573 212.719 73.864 212.292 73.512L212.98 72.296C213.151 72.4773 213.369 72.6587 213.636 72.84C213.913 73.0107 214.223 73.1707 214.564 73.32C214.916 73.4693 215.295 73.592 215.7 73.688C216.105 73.7733 216.521 73.816 216.948 73.816C217.759 73.816 218.388 73.672 218.836 73.384C219.284 73.0853 219.508 72.6533 219.508 72.088C219.508 71.6613 219.38 71.32 219.124 71.064C218.879 70.808 218.511 70.5947 218.02 70.424C217.529 70.2533 216.932 70.0827 216.228 69.912C215.46 69.72 214.815 69.512 214.292 69.288C213.769 69.0533 213.375 68.7493 213.108 68.376C212.852 68.0027 212.724 67.5173 212.724 66.92C212.724 66.1947 212.9 65.5813 213.252 65.08C213.604 64.5787 214.089 64.2 214.708 63.944C215.327 63.688 216.025 63.56 216.804 63.56C217.316 63.56 217.791 63.6133 218.228 63.72C218.676 63.8267 219.092 63.976 219.476 64.168C219.86 64.36 220.212 64.5893 220.532 64.856L219.86 66.024ZM229.61 66.024C229.482 65.8747 229.311 65.7307 229.098 65.592C228.885 65.4533 228.645 65.3307 228.378 65.224C228.111 65.1067 227.818 65.016 227.498 64.952C227.189 64.8773 226.863 64.84 226.522 64.84C225.647 64.84 225.002 65.0053 224.586 65.336C224.17 65.6667 223.962 66.12 223.962 66.696C223.962 67.1013 224.069 67.4213 224.282 67.656C224.495 67.8907 224.821 68.0827 225.258 68.232C225.706 68.3813 226.271 68.536 226.954 68.696C227.743 68.8667 228.426 69.0747 229.002 69.32C229.578 69.5653 230.021 69.896 230.33 70.312C230.639 70.7173 230.794 71.2613 230.794 71.944C230.794 72.488 230.687 72.9627 230.474 73.368C230.271 73.7627 229.983 74.0933 229.61 74.36C229.237 74.616 228.799 74.808 228.298 74.936C227.797 75.0533 227.253 75.112 226.666 75.112C226.09 75.112 225.525 75.0533 224.97 74.936C224.426 74.808 223.909 74.6267 223.418 74.392C222.927 74.1573 222.469 73.864 222.042 73.512L222.73 72.296C222.901 72.4773 223.119 72.6587 223.386 72.84C223.663 73.0107 223.973 73.1707 224.314 73.32C224.666 73.4693 225.045 73.592 225.45 73.688C225.855 73.7733 226.271 73.816 226.698 73.816C227.509 73.816 228.138 73.672 228.586 73.384C229.034 73.0853 229.258 72.6533 229.258 72.088C229.258 71.6613 229.13 71.32 228.874 71.064C228.629 70.808 228.261 70.5947 227.77 70.424C227.279 70.2533 226.682 70.0827 225.978 69.912C225.21 69.72 224.565 69.512 224.042 69.288C223.519 69.0533 223.125 68.7493 222.858 68.376C222.602 68.0027 222.474 67.5173 222.474 66.92C222.474 66.1947 222.65 65.5813 223.002 65.08C223.354 64.5787 223.839 64.2 224.458 63.944C225.077 63.688 225.775 63.56 226.554 63.56C227.066 63.56 227.541 63.6133 227.978 63.72C228.426 63.8267 228.842 63.976 229.226 64.168C229.61 64.36 229.962 64.5893 230.282 64.856L229.61 66.024ZM237.296 75.08C236.496 75.08 235.771 74.92 235.12 74.6C234.469 74.28 233.904 73.848 233.424 73.304C232.955 72.7493 232.592 72.1307 232.336 71.448C232.08 70.7547 231.952 70.0453 231.952 69.32C231.952 68.5627 232.085 67.8427 232.352 67.16C232.629 66.4667 233.008 65.8533 233.488 65.32C233.979 64.776 234.549 64.3493 235.2 64.04C235.851 63.72 236.56 63.56 237.328 63.56C238.128 63.56 238.853 63.7253 239.504 64.056C240.155 64.3867 240.715 64.8293 241.184 65.384C241.653 65.9387 242.016 66.5573 242.272 67.24C242.528 67.9227 242.656 68.6213 242.656 69.336C242.656 70.0933 242.523 70.8187 242.256 71.512C241.989 72.1947 241.611 72.808 241.12 73.352C240.64 73.8853 240.075 74.3067 239.424 74.616C238.773 74.9253 238.064 75.08 237.296 75.08ZM233.408 69.32C233.408 69.896 233.499 70.456 233.68 71C233.872 71.5333 234.139 72.008 234.48 72.424C234.821 72.84 235.232 73.1707 235.712 73.416C236.192 73.6613 236.725 73.784 237.312 73.784C237.92 73.784 238.464 73.656 238.944 73.4C239.424 73.144 239.829 72.8027 240.16 72.376C240.501 71.9493 240.757 71.4693 240.928 70.936C241.109 70.4027 241.2 69.864 241.2 69.32C241.2 68.744 241.104 68.1893 240.912 67.656C240.731 67.1227 240.464 66.648 240.112 66.232C239.771 65.8053 239.36 65.4747 238.88 65.24C238.411 64.9947 237.888 64.872 237.312 64.872C236.704 64.872 236.16 65 235.68 65.256C235.2 65.5013 234.789 65.8373 234.448 66.264C234.117 66.6907 233.861 67.1707 233.68 67.704C233.499 68.2267 233.408 68.7653 233.408 69.32ZM248.032 75C248.032 74.5733 248.064 74.1733 248.128 73.8C248.202 73.4267 248.33 73.0693 248.512 72.728C248.704 72.3867 248.97 72.0613 249.312 71.752C249.653 71.432 250.096 71.1227 250.64 70.824C250.96 70.6427 251.28 70.472 251.6 70.312C251.93 70.152 252.234 69.9813 252.512 69.8C252.8 69.6187 253.029 69.4213 253.2 69.208C253.37 68.984 253.456 68.728 253.456 68.44C253.456 68.1947 253.381 67.96 253.232 67.736C253.093 67.5013 252.88 67.3147 252.592 67.176C252.314 67.0267 251.968 66.952 251.552 66.952C251.232 66.952 250.938 66.9947 250.672 67.08C250.416 67.1653 250.181 67.2773 249.968 67.416C249.765 67.544 249.584 67.6827 249.424 67.832C249.274 67.9707 249.146 68.0987 249.04 68.216L248.16 67.224C248.245 67.128 248.389 67 248.592 66.84C248.794 66.6693 249.05 66.4987 249.36 66.328C249.669 66.1573 250.026 66.0133 250.432 65.896C250.848 65.768 251.301 65.704 251.792 65.704C252.453 65.704 253.018 65.8213 253.488 66.056C253.968 66.28 254.336 66.5893 254.592 66.984C254.848 67.368 254.976 67.8 254.976 68.28C254.976 68.696 254.885 69.0587 254.704 69.368C254.533 69.6773 254.309 69.9493 254.032 70.184C253.765 70.4187 253.482 70.6213 253.184 70.792C252.896 70.952 252.634 71.0907 252.4 71.208C251.92 71.4427 251.509 71.656 251.168 71.848C250.826 72.04 250.544 72.232 250.32 72.424C250.106 72.6053 249.93 72.7973 249.792 73C249.664 73.2027 249.568 73.4427 249.504 73.72H255.152V75H248.032Z" fill="#4C3692"/>
<path d="M336.36 74V62.64H341.096C341.597 62.64 342.056 62.7467 342.472 62.96C342.888 63.1627 343.251 63.44 343.56 63.792C343.869 64.1333 344.109 64.5227 344.28 64.96C344.451 65.3867 344.536 65.824 344.536 66.272C344.536 66.8907 344.397 67.4827 344.12 68.048C343.843 68.6027 343.453 69.056 342.952 69.408C342.451 69.7493 341.864 69.92 341.192 69.92H337.8V74H336.36ZM337.8 68.64H341.112C341.507 68.64 341.848 68.5333 342.136 68.32C342.435 68.1067 342.664 67.8187 342.824 67.456C342.995 67.0933 343.08 66.6987 343.08 66.272C343.08 65.824 342.984 65.424 342.792 65.072C342.6 64.7093 342.349 64.4267 342.04 64.224C341.731 64.0213 341.389 63.92 341.016 63.92H337.8V68.64ZM348.972 62.64H350.188L354.828 74H353.292L351.948 70.672H347.18L345.852 74H344.316L348.972 62.64ZM351.628 69.552L349.58 64.304L347.468 69.552H351.628ZM362.86 65.024C362.732 64.8747 362.561 64.7307 362.348 64.592C362.135 64.4533 361.895 64.3307 361.628 64.224C361.361 64.1067 361.068 64.016 360.748 63.952C360.439 63.8773 360.113 63.84 359.772 63.84C358.897 63.84 358.252 64.0053 357.836 64.336C357.42 64.6667 357.212 65.12 357.212 65.696C357.212 66.1013 357.319 66.4213 357.532 66.656C357.745 66.8907 358.071 67.0827 358.508 67.232C358.956 67.3813 359.521 67.536 360.204 67.696C360.993 67.8667 361.676 68.0747 362.252 68.32C362.828 68.5653 363.271 68.896 363.58 69.312C363.889 69.7173 364.044 70.2613 364.044 70.944C364.044 71.488 363.937 71.9627 363.724 72.368C363.521 72.7627 363.233 73.0933 362.86 73.36C362.487 73.616 362.049 73.808 361.548 73.936C361.047 74.0533 360.503 74.112 359.916 74.112C359.34 74.112 358.775 74.0533 358.22 73.936C357.676 73.808 357.159 73.6267 356.668 73.392C356.177 73.1573 355.719 72.864 355.292 72.512L355.98 71.296C356.151 71.4773 356.369 71.6587 356.636 71.84C356.913 72.0107 357.223 72.1707 357.564 72.32C357.916 72.4693 358.295 72.592 358.7 72.688C359.105 72.7733 359.521 72.816 359.948 72.816C360.759 72.816 361.388 72.672 361.836 72.384C362.284 72.0853 362.508 71.6533 362.508 71.088C362.508 70.6613 362.38 70.32 362.124 70.064C361.879 69.808 361.511 69.5947 361.02 69.424C360.529 69.2533 359.932 69.0827 359.228 68.912C358.46 68.72 357.815 68.512 357.292 68.288C356.769 68.0533 356.375 67.7493 356.108 67.376C355.852 67.0027 355.724 66.5173 355.724 65.92C355.724 65.1947 355.9 64.5813 356.252 64.08C356.604 63.5787 357.089 63.2 357.708 62.944C358.327 62.688 359.025 62.56 359.804 62.56C360.316 62.56 360.791 62.6133 361.228 62.72C361.676 62.8267 362.092 62.976 362.476 63.168C362.86 63.36 363.212 63.5893 363.532 63.856L362.86 65.024ZM372.61 65.024C372.482 64.8747 372.311 64.7307 372.098 64.592C371.885 64.4533 371.645 64.3307 371.378 64.224C371.111 64.1067 370.818 64.016 370.498 63.952C370.189 63.8773 369.863 63.84 369.522 63.84C368.647 63.84 368.002 64.0053 367.586 64.336C367.17 64.6667 366.962 65.12 366.962 65.696C366.962 66.1013 367.069 66.4213 367.282 66.656C367.495 66.8907 367.821 67.0827 368.258 67.232C368.706 67.3813 369.271 67.536 369.954 67.696C370.743 67.8667 371.426 68.0747 372.002 68.32C372.578 68.5653 373.021 68.896 373.33 69.312C373.639 69.7173 373.794 70.2613 373.794 70.944C373.794 71.488 373.687 71.9627 373.474 72.368C373.271 72.7627 372.983 73.0933 372.61 73.36C372.237 73.616 371.799 73.808 371.298 73.936C370.797 74.0533 370.253 74.112 369.666 74.112C369.09 74.112 368.525 74.0533 367.97 73.936C367.426 73.808 366.909 73.6267 366.418 73.392C365.927 73.1573 365.469 72.864 365.042 72.512L365.73 71.296C365.901 71.4773 366.119 71.6587 366.386 71.84C366.663 72.0107 366.973 72.1707 367.314 72.32C367.666 72.4693 368.045 72.592 368.45 72.688C368.855 72.7733 369.271 72.816 369.698 72.816C370.509 72.816 371.138 72.672 371.586 72.384C372.034 72.0853 372.258 71.6533 372.258 71.088C372.258 70.6613 372.13 70.32 371.874 70.064C371.629 69.808 371.261 69.5947 370.77 69.424C370.279 69.2533 369.682 69.0827 368.978 68.912C368.21 68.72 367.565 68.512 367.042 68.288C366.519 68.0533 366.125 67.7493 365.858 67.376C365.602 67.0027 365.474 66.5173 365.474 65.92C365.474 65.1947 365.65 64.5813 366.002 64.08C366.354 63.5787 366.839 63.2 367.458 62.944C368.077 62.688 368.775 62.56 369.554 62.56C370.066 62.56 370.541 62.6133 370.978 62.72C371.426 62.8267 371.842 62.976 372.226 63.168C372.61 63.36 372.962 63.5893 373.282 63.856L372.61 65.024ZM380.296 74.08C379.496 74.08 378.771 73.92 378.12 73.6C377.469 73.28 376.904 72.848 376.424 72.304C375.955 71.7493 375.592 71.1307 375.336 70.448C375.08 69.7547 374.952 69.0453 374.952 68.32C374.952 67.5627 375.085 66.8427 375.352 66.16C375.629 65.4667 376.008 64.8533 376.488 64.32C376.979 63.776 377.549 63.3493 378.2 63.04C378.851 62.72 379.56 62.56 380.328 62.56C381.128 62.56 381.853 62.7253 382.504 63.056C383.155 63.3867 383.715 63.8293 384.184 64.384C384.653 64.9387 385.016 65.5573 385.272 66.24C385.528 66.9227 385.656 67.6213 385.656 68.336C385.656 69.0933 385.523 69.8187 385.256 70.512C384.989 71.1947 384.611 71.808 384.12 72.352C383.64 72.8853 383.075 73.3067 382.424 73.616C381.773 73.9253 381.064 74.08 380.296 74.08ZM376.408 68.32C376.408 68.896 376.499 69.456 376.68 70C376.872 70.5333 377.139 71.008 377.48 71.424C377.821 71.84 378.232 72.1707 378.712 72.416C379.192 72.6613 379.725 72.784 380.312 72.784C380.92 72.784 381.464 72.656 381.944 72.4C382.424 72.144 382.829 71.8027 383.16 71.376C383.501 70.9493 383.757 70.4693 383.928 69.936C384.109 69.4027 384.2 68.864 384.2 68.32C384.2 67.744 384.104 67.1893 383.912 66.656C383.731 66.1227 383.464 65.648 383.112 65.232C382.771 64.8053 382.36 64.4747 381.88 64.24C381.411 63.9947 380.888 63.872 380.312 63.872C379.704 63.872 379.16 64 378.68 64.256C378.2 64.5013 377.789 64.8373 377.448 65.264C377.117 65.6907 376.861 66.1707 376.68 66.704C376.499 67.2267 376.408 67.7653 376.408 68.32ZM396.072 70.224C396.53 70.2987 396.925 70.4693 397.256 70.736C397.586 70.992 397.842 71.3227 398.024 71.728C398.205 72.1227 398.296 72.5707 398.296 73.072C398.296 73.7227 398.136 74.2933 397.816 74.784C397.506 75.2853 397.064 75.6693 396.488 75.936C395.912 76.2133 395.24 76.352 394.472 76.352C393.661 76.352 392.946 76.1973 392.328 75.888C391.72 75.5893 391.245 75.1627 390.904 74.608L391.848 73.664C392.093 74.0907 392.424 74.432 392.84 74.688C393.266 74.944 393.81 75.072 394.472 75.072C395.208 75.072 395.784 74.9013 396.2 74.56C396.626 74.2293 396.84 73.7333 396.84 73.072C396.84 72.4 396.61 71.8667 396.152 71.472C395.704 71.0667 395.048 70.864 394.184 70.864H393.768V69.68H394.216C394.984 69.68 395.57 69.4933 395.976 69.12C396.392 68.7467 396.6 68.2827 396.6 67.728C396.6 67.344 396.509 67.0293 396.328 66.784C396.146 66.5387 395.901 66.3573 395.592 66.24C395.282 66.112 394.925 66.048 394.52 66.048C393.933 66.048 393.416 66.176 392.968 66.432C392.53 66.6773 392.189 67.024 391.944 67.472L391.08 66.576C391.272 66.2133 391.544 65.8987 391.896 65.632C392.258 65.3653 392.674 65.1573 393.144 65.008C393.624 64.8587 394.13 64.784 394.664 64.784C395.336 64.784 395.928 64.9013 396.44 65.136C396.962 65.3707 397.368 65.7013 397.656 66.128C397.944 66.5547 398.088 67.056 398.088 67.632C398.088 68.048 398.008 68.4427 397.848 68.816C397.688 69.1787 397.453 69.488 397.144 69.744C396.845 69.9893 396.488 70.1493 396.072 70.224Z" fill="#4C3692"/>
<line x1="41" y1="115" x2="138" y2="115" stroke="#9882E3" stroke-width="2" stroke-linecap="round"/>
<line x1="179" y1="115" x2="276" y2="115" stroke="#9882E3" stroke-width="2" stroke-linecap="round"/>
<line x1="319" y1="115" x2="416" y2="115" stroke="#9882E3" stroke-width="2" stroke-linecap="round"/>
<line x1="319" y1="158" x2="416" y2="158" stroke="#9882E3" stroke-width="2" stroke-linecap="round"/>
<line x1="178" y1="158" x2="275" y2="158" stroke="#9882E3" stroke-width="2" stroke-linecap="round"/>
<line x1="41" y1="138" x2="138" y2="138" stroke="#9882E3" stroke-width="2" stroke-linecap="round"/>
<line x1="178" y1="138" x2="275" y2="138" stroke="#9882E3" stroke-width="2" stroke-linecap="round"/>
<line x1="318" y1="138" x2="415" y2="138" stroke="#9882E3" stroke-width="2" stroke-linecap="round"/>
</svg>
