<svg width="101" height="101" viewBox="0 0 101 101" fill="none" xmlns="http://www.w3.org/2000/svg">
<path d="M50.4998 92.5833C27.2572 92.5833 8.4165 73.7426 8.4165 50.5C8.4165 27.2573 27.2572 8.41663 50.4998 8.41663C73.7425 8.41663 92.5832 27.2573 92.5832 50.5C92.5832 73.7426 73.7425 92.5833 50.4998 92.5833ZM50.4998 84.1666C59.4288 84.1666 67.992 80.6196 74.3058 74.3059C80.6195 67.9922 84.1665 59.4289 84.1665 50.5C84.1665 41.571 80.6195 33.0078 74.3058 26.694C67.992 20.3803 59.4288 16.8333 50.4998 16.8333C41.5709 16.8333 33.0076 20.3803 26.6939 26.694C20.3802 33.0078 16.8332 41.571 16.8332 50.5C16.8332 59.4289 20.3802 67.9922 26.6939 74.3059C33.0076 80.6196 41.5709 84.1666 50.4998 84.1666ZM50.4998 29.4583C51.616 29.4583 52.6864 29.9017 53.4756 30.6909C54.2648 31.4801 54.7082 32.5505 54.7082 33.6666V54.7083C54.7082 55.8244 54.2648 56.8948 53.4756 57.684C52.6864 58.4732 51.616 58.9166 50.4998 58.9166C49.3837 58.9166 48.3133 58.4732 47.5241 57.684C46.7349 56.8948 46.2915 55.8244 46.2915 54.7083V33.6666C46.2915 32.5505 46.7349 31.4801 47.5241 30.6909C48.3133 29.9017 49.3837 29.4583 50.4998 29.4583ZM50.4998 71.5416C49.3837 71.5416 48.3133 71.0982 47.5241 70.309C46.7349 69.5198 46.2915 68.4494 46.2915 67.3333C46.2915 66.2172 46.7349 65.1468 47.5241 64.3575C48.3133 63.5683 49.3837 63.125 50.4998 63.125C51.616 63.125 52.6864 63.5683 53.4756 64.3575C54.2648 65.1468 54.7082 66.2172 54.7082 67.3333C54.7082 68.4494 54.2648 69.5198 53.4756 70.309C52.6864 71.0982 51.616 71.5416 50.4998 71.5416Z" fill="#F46142"/>
</svg>
