<svg width="20" height="25" viewBox="0 0 20 25" fill="none" xmlns="http://www.w3.org/2000/svg">
<path d="M10.1962 10.8762C1.723 10.8762 0.936904 19.0835 1.00357 20.3392C1.06291 21.4583 1.12908 22.4844 2.21534 22.7698C3.4163 23.0474 7.62998 23.3061 10.0635 23.3061C12.3583 23.3061 16.3035 23.1273 17.9362 22.7698C19.1734 22.4382 19.0003 21.4344 18.9813 20.2988C18.9622 19.0113 18.0359 10.8762 10.1962 10.8762Z" fill="#FFDAD3" stroke="#F46142" stroke-width="1.5" stroke-linejoin="round"/>
<path d="M9.29377 1.04335C10.7398 0.860847 12.1992 1.25925 13.3519 2.1512C14.5047 3.04314 15.2566 4.35582 15.4429 5.80138C15.6292 7.24693 15.2347 8.70737 14.3458 9.86244C13.4568 11.0175 12.1461 11.7729 10.7011 11.963C9.25603 12.1531 7.79455 11.7624 6.63715 10.8765C5.47975 9.99068 4.72089 8.68198 4.52698 7.23742C4.33308 5.79287 4.71995 4.33037 5.60277 3.17064C6.48559 2.01091 7.79229 1.24861 9.23633 1.0509" fill="#FFDAD3"/>
<path d="M9.29377 1.04335C10.7398 0.860847 12.1992 1.25925 13.3519 2.1512C14.5047 3.04314 15.2566 4.35582 15.4429 5.80138C15.6292 7.24693 15.2347 8.70737 14.3458 9.86244C13.4568 11.0175 12.1461 11.7729 10.7011 11.963C9.25603 12.1531 7.79455 11.7624 6.63715 10.8765C5.47975 9.99068 4.72089 8.68198 4.52698 7.23742C4.33308 5.79287 4.71995 4.33037 5.60277 3.17064C6.48559 2.01091 7.79229 1.24861 9.23633 1.0509" stroke="#F46142" stroke-width="1.5" stroke-linecap="round" stroke-linejoin="round"/>
</svg>
