<svg width="26" height="25" viewBox="0 0 26 25" fill="none" xmlns="http://www.w3.org/2000/svg">
<path d="M9.16676 9.7706C1.64207 9.7706 0.943967 17.0592 1.00317 18.1743C1.05586 19.1681 1.11463 20.0793 2.07928 20.3328C3.1458 20.5793 6.88778 20.809 9.04892 20.809C11.0868 20.809 14.5903 20.6503 16.0403 20.3328C17.1389 20.0382 16.9853 19.1468 16.9683 18.1384C16.9514 16.995 16.1288 9.7706 9.16676 9.7706Z" fill="#FFDAD3" stroke="#F46142" stroke-width="1.5" stroke-linejoin="round"/>
<path d="M8.36527 1.03849C9.64943 0.876425 10.9455 1.23023 11.9691 2.02233C12.9928 2.81442 13.6606 3.98015 13.8261 5.26389C13.9915 6.54762 13.6411 7.84457 12.8517 8.87033C12.0623 9.8961 10.8983 10.5669 9.61504 10.7358C8.33175 10.9046 7.03388 10.5576 6.00604 9.77091C4.97821 8.98421 4.3043 7.82202 4.1321 6.53917C3.9599 5.25633 4.30347 3.95755 5.08746 2.92765C5.87145 1.89774 7.03187 1.22078 8.31426 1.04521" fill="#FFDAD3"/>
<path d="M8.36527 1.03849C9.64943 0.876425 10.9455 1.23023 11.9691 2.02233C12.9928 2.81442 13.6606 3.98015 13.8261 5.26389C13.9915 6.54762 13.6411 7.84457 12.8517 8.87033C12.0623 9.8961 10.8983 10.5669 9.61504 10.7358C8.33175 10.9046 7.03388 10.5576 6.00604 9.77091C4.97821 8.98421 4.3043 7.82202 4.1321 6.53917C3.9599 5.25633 4.30347 3.95755 5.08746 2.92765C5.87145 1.89774 7.03187 1.22078 8.31426 1.04521" stroke="#F46142" stroke-width="1.5" stroke-linecap="round" stroke-linejoin="round"/>
<path d="M16.8157 13.1701C9.29099 13.1701 8.59289 20.4587 8.6521 21.5738C8.70479 22.5676 8.76356 23.4789 9.72821 23.7323C10.7947 23.9788 14.5367 24.2085 16.6978 24.2085C18.7357 24.2085 22.2392 24.0498 23.6892 23.7323C24.7879 23.4377 24.6342 22.5464 24.6173 21.5379C24.6004 20.3945 23.7778 13.1701 16.8157 13.1701Z" fill="#FFDAD3" stroke="#F46142" stroke-width="1.5" stroke-linejoin="round"/>
<path d="M16.0142 4.43798C17.2984 4.27592 18.5944 4.62972 19.6181 5.42182C20.6417 6.21391 21.3095 7.37964 21.475 8.66338C21.6404 9.94711 21.29 11.2441 20.5006 12.2698C19.7112 13.2956 18.5473 13.9664 17.264 14.1353C15.9807 14.3041 14.6828 13.9571 13.655 13.1704C12.6271 12.3837 11.9532 11.2215 11.781 9.93866C11.6088 8.65582 11.9524 7.35704 12.7364 6.32714C13.5204 5.29723 14.6808 4.62027 15.9632 4.4447" fill="#FFDAD3"/>
<path d="M16.0142 4.43798C17.2984 4.27592 18.5944 4.62972 19.6181 5.42182C20.6417 6.21391 21.3095 7.37964 21.475 8.66338C21.6404 9.94711 21.29 11.2441 20.5006 12.2698C19.7112 13.2956 18.5473 13.9664 17.264 14.1353C15.9807 14.3041 14.6828 13.9571 13.655 13.1704C12.6271 12.3837 11.9532 11.2215 11.781 9.93866C11.6088 8.65582 11.9524 7.35704 12.7364 6.32714C13.5204 5.29723 14.6808 4.62027 15.9632 4.4447" stroke="#F46142" stroke-width="1.5" stroke-linecap="round" stroke-linejoin="round"/>
</svg>
