<svg width="8" height="13" viewBox="0 0 8 13" fill="none" xmlns="http://www.w3.org/2000/svg">
<path d="M7.69408 12.7138C7.88996 12.5306 8 12.282 8 12.0229C8 11.7637 7.88996 11.5152 7.69408 11.3319L2.52205 6.4941L7.69408 1.6563C7.88441 1.47197 7.98972 1.22509 7.98734 0.96884C7.98496 0.712587 7.87508 0.467459 7.68135 0.286254C7.48763 0.105048 7.22557 0.00226375 6.95161 3.69711e-05C6.67765 -0.0021898 6.41372 0.0963201 6.21666 0.274349L0.305919 5.80313C0.110039 5.9864 0 6.23495 0 6.4941C0 6.75325 0.110039 7.0018 0.305919 7.18507L6.21666 12.7138C6.4126 12.8971 6.67831 13 6.95537 13C7.23243 13 7.49814 12.8971 7.69408 12.7138Z" fill="#272727"/>
</svg>
