<svg width="98" height="107" viewBox="0 0 98 107" fill="none" xmlns="http://www.w3.org/2000/svg">
<path d="M38.9953 10.76C53.2673 10.76 60.4033 15.56 60.4033 25.16C60.4033 27.656 59.8593 29.96 58.7713 32.072C57.7473 34.184 56.4673 36.04 54.9313 37.64C53.3953 39.176 51.4113 41 48.9793 43.112C45.9073 45.736 43.6353 47.976 42.1633 49.832C40.6913 51.624 39.9553 53.64 39.9553 55.88C39.6353 56.136 39.0593 56.36 38.2273 56.552C37.4593 56.68 36.7233 56.744 36.0193 56.744C34.2913 56.744 32.9473 56.232 31.9873 55.208C31.0273 54.12 30.5473 52.648 30.5473 50.792C30.5473 49.064 31.0593 47.4 32.0833 45.8C33.1713 44.136 34.8353 42.024 37.0753 39.464C39.6993 36.52 41.7153 33.928 43.1233 31.688C44.5313 29.384 45.2353 26.888 45.2353 24.2C45.2353 21.896 44.6913 20.04 43.6033 18.632C42.5793 17.224 40.9473 16.52 38.7073 16.52C36.5313 16.52 34.8673 17.256 33.7153 18.728C32.5633 20.136 31.9873 22.056 31.9873 24.488C31.9873 26.216 32.2433 28.04 32.7553 29.96C31.6033 30.536 30.0673 30.824 28.1473 30.824C25.1393 30.824 22.7073 30.12 20.8513 28.712C19.0593 27.24 18.1633 25.096 18.1633 22.28C18.1633 18.12 20.2113 15.176 24.3073 13.448C28.4033 11.656 33.2993 10.76 38.9953 10.76ZM36.1153 64.136C38.6753 64.136 40.7233 64.744 42.2593 65.96C43.8593 67.176 44.6593 68.872 44.6593 71.048C44.6593 73.288 43.8273 74.984 42.1633 76.136C40.4993 77.352 38.3553 77.96 35.7313 77.96C33.1713 77.96 31.0913 77.384 29.4913 76.232C27.8913 75.08 27.0913 73.416 27.0913 71.24C27.0913 69 27.9233 67.272 29.5873 66.056C31.3153 64.776 33.4913 64.136 36.1153 64.136Z" fill="#272727"/>
<path d="M35.4284 9.04004C49.7004 9.04004 56.8364 13.84 56.8364 23.44C56.8364 25.936 56.2924 28.24 55.2044 30.352C54.1804 32.464 52.9004 34.32 51.3644 35.92C49.8284 37.456 47.8444 39.28 45.4124 41.392C42.3404 44.016 40.0684 46.256 38.5964 48.112C37.1244 49.904 36.3884 51.92 36.3884 54.16C36.0684 54.416 35.4924 54.64 34.6604 54.832C33.8924 54.96 33.1564 55.024 32.4524 55.024C30.7244 55.024 29.3804 54.512 28.4204 53.488C27.4604 52.4 26.9804 50.928 26.9804 49.072C26.9804 47.344 27.4924 45.68 28.5164 44.08C29.6044 42.416 31.2684 40.304 33.5084 37.744C36.1324 34.8 38.1484 32.208 39.5564 29.968C40.9644 27.664 41.6684 25.168 41.6684 22.48C41.6684 20.176 41.1244 18.32 40.0364 16.912C39.0124 15.504 37.3804 14.8 35.1404 14.8C32.9644 14.8 31.3004 15.536 30.1484 17.008C28.9964 18.416 28.4204 20.336 28.4204 22.768C28.4204 24.496 28.6764 26.32 29.1884 28.24C28.0364 28.816 26.5004 29.104 24.5804 29.104C21.5724 29.104 19.1404 28.4 17.2844 26.992C15.4924 25.52 14.5964 23.376 14.5964 20.56C14.5964 16.4 16.6444 13.456 20.7404 11.728C24.8364 9.93604 29.7324 9.04004 35.4284 9.04004ZM32.5484 62.416C35.1084 62.416 37.1564 63.024 38.6924 64.24C40.2924 65.456 41.0924 67.152 41.0924 69.328C41.0924 71.568 40.2604 73.264 38.5964 74.416C36.9324 75.632 34.7884 76.24 32.1644 76.24C29.6044 76.24 27.5244 75.664 25.9244 74.512C24.3244 73.36 23.5244 71.696 23.5244 69.52C23.5244 67.28 24.3564 65.552 26.0204 64.336C27.7484 63.056 29.9244 62.416 32.5484 62.416Z" fill="#9882E3"/>
<path d="M61.9953 30.76C76.2673 30.76 83.4033 35.56 83.4033 45.16C83.4033 47.656 82.8593 49.96 81.7713 52.072C80.7473 54.184 79.4673 56.04 77.9313 57.64C76.3953 59.176 74.4113 61 71.9793 63.112C68.9073 65.736 66.6353 67.976 65.1633 69.832C63.6913 71.624 62.9553 73.64 62.9553 75.88C62.6353 76.136 62.0593 76.36 61.2273 76.552C60.4593 76.68 59.7233 76.744 59.0193 76.744C57.2913 76.744 55.9473 76.232 54.9873 75.208C54.0273 74.12 53.5473 72.648 53.5473 70.792C53.5473 69.064 54.0593 67.4 55.0833 65.8C56.1713 64.136 57.8353 62.024 60.0753 59.464C62.6993 56.52 64.7153 53.928 66.1233 51.688C67.5313 49.384 68.2353 46.888 68.2353 44.2C68.2353 41.896 67.6913 40.04 66.6033 38.632C65.5793 37.224 63.9473 36.52 61.7073 36.52C59.5313 36.52 57.8673 37.256 56.7153 38.728C55.5633 40.136 54.9873 42.056 54.9873 44.488C54.9873 46.216 55.2433 48.04 55.7553 49.96C54.6033 50.536 53.0673 50.824 51.1473 50.824C48.1393 50.824 45.7073 50.12 43.8513 48.712C42.0593 47.24 41.1633 45.096 41.1633 42.28C41.1633 38.12 43.2113 35.176 47.3073 33.448C51.4033 31.656 56.2993 30.76 61.9953 30.76ZM59.1153 84.136C61.6753 84.136 63.7233 84.744 65.2593 85.96C66.8593 87.176 67.6593 88.872 67.6593 91.048C67.6593 93.288 66.8273 94.984 65.1633 96.136C63.4993 97.352 61.3553 97.96 58.7313 97.96C56.1713 97.96 54.0913 97.384 52.4913 96.232C50.8913 95.08 50.0913 93.416 50.0913 91.24C50.0913 89 50.9233 87.272 52.5873 86.056C54.3153 84.776 56.4913 84.136 59.1153 84.136Z" fill="#272727"/>
<path d="M58.4284 29.04C72.7004 29.04 79.8364 33.84 79.8364 43.44C79.8364 45.936 79.2924 48.24 78.2044 50.352C77.1804 52.464 75.9004 54.32 74.3644 55.92C72.8284 57.456 70.8444 59.28 68.4124 61.392C65.3404 64.016 63.0684 66.256 61.5964 68.112C60.1244 69.904 59.3884 71.92 59.3884 74.16C59.0684 74.416 58.4924 74.64 57.6604 74.832C56.8924 74.96 56.1564 75.024 55.4524 75.024C53.7244 75.024 52.3804 74.512 51.4204 73.488C50.4604 72.4 49.9804 70.928 49.9804 69.072C49.9804 67.344 50.4924 65.68 51.5164 64.08C52.6044 62.416 54.2684 60.304 56.5084 57.744C59.1324 54.8 61.1484 52.208 62.5564 49.968C63.9644 47.664 64.6684 45.168 64.6684 42.48C64.6684 40.176 64.1244 38.32 63.0364 36.912C62.0124 35.504 60.3804 34.8 58.1404 34.8C55.9644 34.8 54.3004 35.536 53.1484 37.008C51.9964 38.416 51.4204 40.336 51.4204 42.768C51.4204 44.496 51.6764 46.32 52.1884 48.24C51.0364 48.816 49.5004 49.104 47.5804 49.104C44.5724 49.104 42.1404 48.4 40.2844 46.992C38.4924 45.52 37.5964 43.376 37.5964 40.56C37.5964 36.4 39.6444 33.456 43.7404 31.728C47.8364 29.936 52.7324 29.04 58.4284 29.04ZM55.5484 82.416C58.1084 82.416 60.1564 83.024 61.6924 84.24C63.2924 85.456 64.0924 87.152 64.0924 89.328C64.0924 91.568 63.2604 93.264 61.5964 94.416C59.9324 95.632 57.7884 96.24 55.1644 96.24C52.6044 96.24 50.5244 95.664 48.9244 94.512C47.3244 93.36 46.5244 91.696 46.5244 89.52C46.5244 87.28 47.3564 85.552 49.0204 84.336C50.7484 83.056 52.9244 82.416 55.5484 82.416Z" fill="#F7C326"/>
</svg>
