<svg width="260" height="214" viewBox="0 0 260 214" fill="none" xmlns="http://www.w3.org/2000/svg">
<path d="M95.3191 181.92C95.3191 181.92 91.8189 181.92 91.4695 183.845C91.0633 186.083 93.0448 187.169 93.0448 187.169C93.0448 187.169 90.2454 188.569 89.8941 189.969C86.6262 188.129 82.667 188.108 79.5691 189.969C75.8347 192.216 73.9458 196.842 75.0206 201.348C75.1506 201.967 75.3871 202.56 75.7195 203.099C78.7418 207.936 89.1309 208.28 96.545 205.023C100.551 203.263 104.615 201.261 105.99 197.674C107.864 192.804 105.755 187.989 105.291 187.349C105.291 187.349 108.09 185.949 106.165 183.848C104.241 181.748 95.3191 181.92 95.3191 181.92Z" fill="#F7C326" stroke="black" stroke-width="0.755576" stroke-miterlimit="10"/>
<path d="M75.7195 203.099C74.8317 202.403 73.857 204.498 74.146 205.722C74.9715 209.23 84.4823 211.506 92.5198 209.748C95.5987 209.073 101.145 207.32 106.876 202.048C106.876 202.048 108.801 199.073 105.999 197.326C105.999 197.326 100.882 204.215 93.553 205.583C86.2239 206.95 79.7449 206.247 75.7195 203.099Z" fill="#F7C326" stroke="black" stroke-width="0.755576" stroke-miterlimit="10"/>
<path d="M90.3461 189.732C90.7909 190.045 91.2091 190.394 91.5966 190.775C92.358 191.511 93.0284 192.335 93.5932 193.231C93.8706 193.673 94.1228 194.131 94.3488 194.602C94.0657 194.165 93.7593 193.744 93.4307 193.34C93.1046 192.942 92.7551 192.564 92.3842 192.207C92.0168 191.849 91.6275 191.515 91.2188 191.206C91.0167 191.051 90.807 190.905 90.5973 190.766C90.3876 190.626 90.1629 190.492 89.9607 190.388L89.6245 190.218L90.0231 189.519L90.3461 189.732Z" fill="black"/>
<path d="M77.0773 198.165C77.0841 198.263 77.1078 198.359 77.1472 198.45C77.3266 198.816 77.9027 198.775 78.188 198.482C78.4732 198.189 78.545 197.759 78.6432 197.364C78.8855 196.409 79.3259 195.516 79.9357 194.743C80.5456 193.97 81.3113 193.334 82.1831 192.876C82.372 192.779 82.5968 192.638 82.5779 192.426C82.5646 192.277 82.4305 192.173 82.3077 192.086C81.0138 191.172 79.3667 192.73 78.5733 193.626C77.6062 194.712 76.9054 196.669 77.0773 198.165Z" fill="white"/>
<path d="M90.899 120.542C91.0993 145.369 108.398 165.356 136.611 165.121C164.19 164.899 181.804 144.63 181.604 119.804C181.404 94.9775 169.715 73.7761 134.993 74.0613C105.053 74.2974 90.6988 95.7161 90.899 120.542Z" fill="#ED744A" stroke="black" stroke-width="0.755576" stroke-miterlimit="10"/>
<path d="M85.9874 120.542C86.1876 145.369 103.487 165.356 131.7 165.121C159.278 164.899 176.893 144.63 176.692 119.804C176.492 94.9775 164.803 73.7761 130.081 74.0613C100.141 74.2974 85.7872 95.7161 85.9874 120.542Z" fill="#FFE7E2" stroke="black" stroke-width="0.755576" stroke-miterlimit="10"/>
<path d="M90.1756 119.874C90.3644 142.462 105.96 160.648 131.404 160.443C156.264 160.242 172.156 141.802 171.982 119.207C171.808 96.6115 161.251 77.3292 129.934 77.5804C102.935 77.7995 90.0018 97.2953 90.1756 119.874Z" stroke="black" stroke-width="0.755576" stroke-miterlimit="10"/>
<path d="M131.369 145.841C133.977 145.841 136.092 144.15 136.092 142.063C136.092 139.977 133.977 138.285 131.369 138.285C128.761 138.285 126.647 139.977 126.647 142.063C126.647 144.15 128.761 145.841 131.369 145.841Z" fill="black"/>
<path d="M122.14 124.895C126.781 123.232 131.57 126.923 131.413 131.852C131.396 133.018 131.143 134.17 130.671 135.237C127.333 142.53 113.196 144.538 106.902 138.151C103.88 135.087 103.444 130.884 103.395 128.744C103.813 129.641 104.461 130.411 105.272 130.977C108.483 133.174 112.828 131.124 115.726 129.364C117.803 128.104 119.367 126.122 121.619 125.108C121.785 125.031 121.961 124.959 122.14 124.895Z" fill="#474747" stroke="black" stroke-width="0.94447" stroke-miterlimit="10"/>
<path d="M128.005 91.1977C129.646 90.6264 131.429 90.6152 133.077 91.1656C133.248 91.2248 133.433 91.2357 133.61 91.1971C133.788 91.1585 133.951 91.0719 134.082 90.9467C134.214 90.8215 134.308 90.6626 134.355 90.4873C134.403 90.312 134.401 90.1272 134.35 89.9529L131.498 80.3628C131.436 80.1607 131.31 79.9838 131.14 79.8581C130.97 79.7324 130.765 79.6646 130.553 79.6646C130.342 79.6646 130.136 79.7324 129.966 79.8581C129.796 79.9838 129.671 80.1607 129.609 80.3628L126.749 89.9813C126.697 90.1541 126.695 90.3376 126.74 90.512C126.786 90.6864 126.879 90.8449 127.008 90.9703C127.138 91.0957 127.299 91.1833 127.475 91.2233C127.651 91.2634 127.834 91.2546 128.005 91.1977Z" fill="#B9432C" stroke="black" stroke-width="0.755576" stroke-miterlimit="10"/>
<path d="M128.671 146.714C130.246 147.251 131.954 147.251 133.529 146.714C133.693 146.655 133.87 146.642 134.04 146.677C134.211 146.712 134.368 146.794 134.495 146.913C134.622 147.032 134.714 147.184 134.76 147.352C134.806 147.519 134.805 147.697 134.757 147.864L132.101 157.073C132.045 157.269 131.927 157.441 131.765 157.564C131.602 157.688 131.405 157.755 131.201 157.757C130.997 157.759 130.798 157.695 130.634 157.574C130.47 157.453 130.349 157.283 130.29 157.088L127.475 147.898C127.422 147.732 127.416 147.555 127.457 147.386C127.499 147.217 127.586 147.062 127.71 146.94C127.834 146.817 127.989 146.731 128.158 146.691C128.328 146.651 128.505 146.659 128.671 146.714Z" fill="#8C7BC7" stroke="black" stroke-width="0.755576" stroke-miterlimit="10"/>
<path d="M136.19 123.646C135.96 124.438 135.546 125.165 134.981 125.767C134.626 126.125 134.224 126.434 133.787 126.687C131.375 128.009 128.372 127.037 127.078 124.504C125.784 121.97 126.7 118.837 129.105 117.514C129.543 117.272 130.017 117.101 130.508 117.006C131.299 116.854 132.115 116.906 132.879 117.159C133.496 117.384 134.061 117.731 134.541 118.179C135.069 118.642 135.516 119.189 135.863 119.798" fill="#FFDE72"/>
<path d="M136.19 123.646C135.96 124.438 135.546 125.165 134.981 125.767C134.626 126.125 134.224 126.434 133.787 126.687C131.375 128.009 128.372 127.037 127.078 124.504C125.784 121.97 126.7 118.837 129.105 117.514C129.543 117.272 130.017 117.101 130.508 117.006C131.299 116.854 132.115 116.906 132.879 117.159C133.496 117.384 134.061 117.731 134.541 118.179C135.069 118.642 135.516 119.189 135.863 119.798" stroke="black" stroke-width="0.755576" stroke-miterlimit="10" stroke-linecap="round"/>
<path d="M130.455 118.41C129.788 118.839 129.237 119.425 128.848 120.117C128.46 120.808 128.246 121.584 128.226 122.377" stroke="white" stroke-width="0.94447" stroke-miterlimit="10" stroke-linecap="round"/>
<path d="M139.838 125.117C135.047 123.954 130.674 128.128 131.349 133.011C131.489 134.17 131.861 135.288 132.442 136.3C136.53 143.202 150.799 143.71 156.387 136.699C159.065 133.336 159.061 129.107 158.884 126.976C158.562 127.911 158 128.745 157.254 129.394C154.29 131.914 149.745 130.338 146.689 128.89C144.498 127.853 142.722 126.056 140.38 125.274C140.206 125.216 140.025 125.163 139.838 125.117Z" fill="#474747" stroke="black" stroke-width="0.94447" stroke-miterlimit="10"/>
<path d="M126.129 73.6061C126.129 73.6061 129.937 73.0394 132.38 73.6061C132.38 73.6061 133.162 71.5982 132.38 70.8804C131.598 70.1626 127.008 70.3137 126.129 70.8804C125.251 71.4471 126.129 73.6061 126.129 73.6061Z" fill="#F7C326" stroke="black" stroke-width="0.755576" stroke-miterlimit="10"/>
<path d="M129.327 58.6457C126.626 58.6457 124.437 61.3714 124.437 64.7281C124.437 68.0847 126.626 70.8124 129.327 70.8124C132.029 70.8124 134.218 68.0885 134.218 64.7281C134.218 61.3676 132.029 58.6457 129.327 58.6457ZM129.327 69.1671C127.384 69.1671 125.806 67.2045 125.806 64.7866C125.806 62.3688 127.384 60.4062 129.327 60.4062C131.271 60.4062 132.848 62.3688 132.848 64.7866C132.848 67.2045 131.271 69.1671 129.327 69.1671Z" fill="#F7C326" stroke="black" stroke-width="0.755576" stroke-miterlimit="10"/>
<path d="M123.19 112.295C123.19 119.284 118.657 124.951 113.084 124.951C107.512 124.951 102.979 119.284 102.979 112.295C102.979 105.306 107.512 99.6395 113.084 99.6395C115.876 99.6395 118.402 101.056 120.23 103.346C122.059 105.635 123.19 108.801 123.19 112.295Z" fill="white" stroke="black" stroke-width="0.755576" stroke-miterlimit="10"/>
<path d="M113.221 121.487C109.482 121.145 106.401 117.841 106.377 113.298C106.352 111.535 106.827 109.8 107.746 108.295C110.896 107.3 114.217 106.959 117.503 107.295C118.506 108.499 119.222 109.915 119.598 111.436L115.618 112.858L119.615 114.237C119.756 118.412 116.636 121.801 113.221 121.487Z" fill="black"/>
<path d="M122.886 108.518C121.146 107.9 119.339 107.49 117.503 107.295C114.217 106.959 110.896 107.3 107.746 108.295C105.055 109.137 103.447 110.144 103.447 110.144" stroke="black" stroke-width="0.755576" stroke-miterlimit="10"/>
<path d="M157.947 112.295C157.947 119.284 153.413 124.951 147.841 124.951C142.268 124.951 137.735 119.284 137.735 112.295C137.735 105.306 142.268 99.6395 147.841 99.6395C150.633 99.6395 153.158 101.056 154.987 103.346C156.815 105.635 157.947 108.801 157.947 112.295Z" fill="white" stroke="black" stroke-width="0.755576" stroke-miterlimit="10"/>
<path d="M147.977 121.487C144.239 121.145 141.158 117.841 141.133 113.298C141.108 111.535 141.583 109.8 142.503 108.295C145.653 107.3 148.973 106.959 152.259 107.295C153.262 108.499 153.979 109.915 154.354 111.436L150.374 112.858L154.371 114.237C154.513 118.412 151.392 121.801 147.977 121.487Z" fill="black"/>
<path d="M157.643 108.518C155.902 107.9 154.095 107.49 152.259 107.295C148.973 106.959 145.653 107.3 142.503 108.295C139.811 109.137 138.204 110.144 138.204 110.144" stroke="black" stroke-width="0.755576" stroke-miterlimit="10"/>
<path d="M108.702 91.2507C108.702 91.2507 115.691 91.2507 118.336 97.2953C120.98 103.34 125.325 100.695 125.325 100.695" stroke="black" stroke-width="0.755576" stroke-miterlimit="10"/>
<path d="M151.014 91.2507C151.014 91.2507 144.025 91.2507 141.381 97.2953C138.736 103.34 134.392 100.695 134.392 100.695" stroke="black" stroke-width="0.755576" stroke-miterlimit="10"/>
<path d="M85.4552 117.681C84.5674 122.176 81.7906 125.012 76.5167 124.16C68.8099 122.917 70.0943 109.993 70.9311 104.534C71.7215 99.4071 73.0252 94.373 74.8224 89.5072C76.1144 86.0089 77.0985 82.3953 78.3887 78.8517C78.8911 77.4727 76.0917 76.5302 75.1284 76.0069C74.9111 75.8879 74.6429 75.7652 74.4295 75.8898C74.3123 75.9758 74.2245 76.0958 74.1782 76.2336C72.5103 79.8793 71.1559 83.5721 69.879 87.3783C67.2345 95.2609 64.913 103.98 64.8695 112.312C64.8336 119.22 67.242 128.055 74.9848 129.662C84.4182 131.617 85.9633 126.29 85.9633 126.29" fill="#19888F"/>
<path d="M85.4552 117.681C84.5674 122.176 81.7906 125.012 76.5167 124.16C68.8099 122.917 70.0943 109.993 70.9311 104.534C71.7215 99.4071 73.0252 94.373 74.8224 89.5072C76.1144 86.0089 77.0985 82.3953 78.3887 78.8517C78.8911 77.4727 76.0917 76.5302 75.1284 76.0069C74.9111 75.8879 74.6429 75.7652 74.4295 75.8898C74.3123 75.9758 74.2245 76.0958 74.1782 76.2336C72.5103 79.8793 71.1559 83.5721 69.879 87.3783C67.2345 95.2609 64.913 103.98 64.8695 112.312C64.8336 119.22 67.242 128.055 74.9848 129.662C84.4182 131.617 85.9633 126.29 85.9633 126.29" stroke="black" stroke-width="0.755576" stroke-miterlimit="10"/>
<path d="M81.3918 80.6797C82.337 78.5883 80.8684 75.8828 78.1115 74.6369C75.3546 73.3909 72.3534 74.0763 71.4082 76.1678C70.463 78.2592 71.9317 80.9647 74.6886 82.2106C77.4455 83.4566 80.4466 82.7712 81.3918 80.6797Z" fill="#FFFEFD" stroke="black" stroke-width="0.755576" stroke-miterlimit="10"/>
<path d="M92.9049 67.7484C92.9784 68.1552 93.0063 68.5689 92.988 68.9819C92.7406 74.5014 87.206 78.7836 81.9736 78.7836C79.0429 78.7836 76.2322 77.6194 74.1599 75.5471C72.0876 73.4747 70.9233 70.6641 70.9233 67.7333C70.9233 64.5108 71.3521 61.326 74.9883 60.7102C78.3393 60.1436 81.8206 59.8319 85.1074 60.6989C88.3186 61.5452 92.2684 64.2199 92.9049 67.7484Z" fill="#FFFEFD" stroke="black" stroke-width="0.755576" stroke-miterlimit="10"/>
<path d="M23.87 62.2271L203.527 61.9721V67.6389H23.8719C22.8387 67.6389 22 66.4281 22 64.9321C22 63.4398 22.8368 62.229 23.87 62.2271Z" fill="#828282" stroke="black" stroke-width="0.94447" stroke-miterlimit="10"/>
<path d="M50.4851 88.4172C48.4224 88.4172 46.3294 86.0693 44.7578 81.9741C43.1088 77.6956 42.1417 71.9627 42.0321 65.8369C41.9225 59.626 42.7046 53.7476 44.2346 49.2765C45.7042 44.9849 47.7518 42.4593 49.8504 42.346C49.9014 42.346 49.9543 42.346 50.0053 42.346C52.0662 42.346 54.161 44.6958 55.7326 48.7911C57.3797 53.0695 58.3488 58.8025 58.4564 64.9283C58.566 71.1372 57.784 77.0175 56.2539 81.4886C54.7843 85.7803 52.7386 88.3058 50.6381 88.4191C50.5871 88.4191 50.5361 88.4191 50.4851 88.4191V88.4172ZM52.0832 60.8142C50.9498 60.8142 50.3529 62.8561 50.3529 64.8735C50.3529 66.8909 50.9479 68.9347 52.0832 68.9347C53.2184 68.9347 53.8115 66.8909 53.8115 64.8735C53.8115 62.8561 53.2165 60.8066 52.0832 60.8066V60.8142Z" fill="#9B0B0B"/>
<path d="M50.0047 42.7049C51.8936 42.7049 53.86 44.9716 55.3787 48.9082C57.0127 53.1451 57.9704 58.8308 58.078 64.9151C58.1876 71.0824 57.4131 76.9193 55.8963 81.3488C54.4796 85.4875 52.5548 87.9205 50.6167 88.0263H50.4845C48.5861 88.0263 46.6273 85.7595 45.1086 81.8248C43.4765 77.588 42.5169 71.9023 42.4093 65.818C42.2997 59.6506 43.0761 53.8138 44.591 49.3842C46.0096 45.2455 47.9325 42.8126 49.8706 42.7068H50.0047M52.0825 69.3012C53.537 69.3012 54.1887 67.0722 54.1887 64.8622C54.1887 62.6521 53.537 60.4251 52.0825 60.4251C50.6281 60.4251 49.9745 62.654 49.9745 64.8622C49.9745 67.0704 50.6262 69.3012 52.0825 69.3012ZM50.0047 41.9493C49.9462 41.9493 49.8876 41.9493 49.8309 41.9493C45.0859 42.2062 41.4251 52.9052 41.6537 65.8255C41.8804 78.5967 45.8094 88.7762 50.4845 88.7762C50.5412 88.7762 50.5997 88.7762 50.6583 88.7762C55.4033 88.5193 59.0622 77.8203 58.8336 64.9C58.6069 52.1364 54.6779 41.9493 50.0047 41.9493ZM52.0825 68.5437C51.3364 68.5437 50.7301 66.8947 50.7301 64.8603C50.7301 62.8259 51.3364 61.1788 52.0825 61.1788C52.8287 61.1788 53.4331 62.8278 53.4331 64.8603C53.4331 66.8928 52.8268 68.5437 52.0825 68.5437Z" fill="black"/>
<path d="M52.4403 62.2271L215.616 61.9721C216.368 61.9721 217.088 62.2706 217.62 62.802C218.151 63.3334 218.45 64.054 218.45 64.8055C218.45 65.557 218.151 66.2777 217.62 66.809C217.088 67.3404 216.368 67.6389 215.616 67.6389H52.4422C51.4864 67.6389 50.7119 66.4281 50.7119 64.9321C50.7119 63.4398 51.4864 62.229 52.4403 62.2271Z" fill="#828282" stroke="black" stroke-width="0.94447" stroke-miterlimit="10"/>
<path d="M215.767 88.4172C213.705 88.4172 211.612 86.0693 210.04 81.9741C208.391 77.6956 207.424 71.9627 207.314 65.8369C207.205 59.626 207.987 53.7476 209.517 49.2765C210.986 44.9849 213.034 42.4593 215.133 42.346C215.184 42.346 215.237 42.346 215.288 42.346C217.348 42.346 219.443 44.6958 221.015 48.7911C222.662 53.0695 223.631 58.8025 223.739 64.9283C223.848 71.1372 223.066 77.0175 221.536 81.4886C220.067 85.7803 218.021 88.3058 215.92 88.4191C215.869 88.4191 215.818 88.4191 215.767 88.4191V88.4172ZM217.365 60.8142C216.232 60.8142 215.635 62.8561 215.635 64.8735C215.635 66.8909 216.23 68.9347 217.365 68.9347C218.501 68.9347 219.094 66.8909 219.094 64.8735C219.094 62.8561 218.499 60.8066 217.365 60.8066V60.8142Z" fill="#9B0B0B"/>
<path d="M215.287 42.7049C217.176 42.7049 219.142 44.9716 220.661 48.9063C222.295 53.1432 223.253 58.8289 223.36 64.9132C223.47 71.0806 222.695 76.9174 221.179 81.3469C219.762 85.4856 217.837 87.9186 215.889 88.0244H215.757C213.868 88.0244 211.9 85.7576 210.381 81.823C208.749 77.5861 207.79 71.9004 207.682 65.8161C207.572 59.6487 208.349 53.8119 209.864 49.3823C211.282 45.2436 213.205 42.8107 215.153 42.7049H215.287ZM217.365 69.2974C218.819 69.2974 219.471 67.0685 219.471 64.8584C219.471 62.6483 218.819 60.4213 217.365 60.4213C215.91 60.4213 215.257 62.6502 215.257 64.8584C215.257 67.0666 215.908 69.2974 217.365 69.2974ZM215.287 41.9493C215.228 41.9493 215.17 41.9493 215.113 41.9493C210.368 42.2062 206.707 52.9052 206.936 65.8255C207.163 78.5967 211.092 88.7762 215.767 88.7762C215.823 88.7762 215.882 88.7762 215.94 88.7762C220.686 88.5193 224.344 77.8203 224.116 64.9C223.889 52.1288 219.96 41.9493 215.287 41.9493ZM217.365 68.5418C216.609 68.5418 216.012 66.8928 216.012 64.8584C216.012 62.824 216.619 61.1769 217.365 61.1769C218.111 61.1769 218.715 62.8259 218.715 64.8584C218.715 66.8909 218.109 68.5418 217.365 68.5418Z" fill="black"/>
<path d="M71.3939 60.6065C71.307 61.8154 71.3184 63.0848 72.0532 64.1596C72.788 65.2344 74.4616 66.0277 75.9765 65.6575C77.9278 65.1834 78.4227 63.2944 78.587 61.7417C78.7853 59.8868 78.9157 55.6575 75.219 55.5517C72.0909 55.461 71.5129 58.9083 71.3939 60.6065Z" fill="#FFFEFD" stroke="black" stroke-width="0.755576" stroke-miterlimit="10"/>
<path d="M78.3827 60.6065C78.2958 61.8154 78.3071 63.0848 79.0419 64.1596C79.7767 65.2344 81.4503 66.0277 82.9653 65.6575C84.9165 65.1834 85.4209 63.2944 85.5758 61.7417C85.7647 59.8868 85.9044 55.6575 82.2078 55.5517C79.0797 55.461 78.5017 58.9083 78.3827 60.6065Z" fill="#FFFEFD" stroke="black" stroke-width="0.755576" stroke-miterlimit="10"/>
<path d="M85.7501 61.7606C85.6708 62.9695 85.6878 64.2389 86.4282 65.3099C87.1687 66.3809 88.848 67.1629 90.361 66.7852C92.3085 66.2997 92.7939 64.4089 92.9507 62.8543C93.1396 60.9993 93.2435 56.7681 89.5506 56.6831C86.4131 56.6113 85.8597 60.0624 85.7501 61.7606Z" fill="#FFFEFD" stroke="black" stroke-width="0.755576" stroke-miterlimit="10"/>
<path d="M89.7129 64.2389C90.2607 64.2899 90.7858 64.3673 91.2524 64.4466C92.3744 64.6355 93.5191 65.1437 94.1066 66.1183C94.7507 67.1894 94.5429 68.659 93.7288 69.6035C92.9146 70.5479 91.5848 70.9748 90.3438 70.8275C89.3993 70.716 88.5625 70.3024 87.6653 70.0436C86.9097 69.8301 86.0408 69.8547 85.3287 69.5525C83.9667 68.9858 83.8175 67.4841 84.4012 66.209C85.3041 64.2389 87.6672 64.05 89.7129 64.2389Z" fill="#FFFEFD" stroke="black" stroke-width="0.755576" stroke-miterlimit="10"/>
<path d="M178.737 118.814C179.624 123.31 182.399 126.145 187.675 125.293C195.382 124.05 194.097 111.126 193.261 105.667C192.47 100.54 191.167 95.5064 189.369 90.6405C188.077 87.1422 187.103 83.5287 185.803 79.985C185.301 78.6061 188.1 77.6635 189.063 77.1403C189.281 77.0213 189.549 76.8985 189.762 77.0232C189.879 77.1097 189.967 77.2295 190.014 77.367C191.681 81.0126 193.036 84.7055 194.313 88.5117C196.957 96.3943 199.279 105.114 199.322 113.446C199.358 120.354 196.95 129.188 189.205 130.796C179.774 132.751 178.227 127.424 178.227 127.424" fill="#19888F"/>
<path d="M178.737 118.814C179.624 123.31 182.399 126.145 187.675 125.293C195.382 124.05 194.097 111.126 193.261 105.667C192.47 100.54 191.167 95.5064 189.369 90.6405C188.077 87.1422 187.103 83.5287 185.803 79.985C185.301 78.6061 188.1 77.6635 189.063 77.1403C189.281 77.0213 189.549 76.8985 189.762 77.0232C189.879 77.1097 189.967 77.2295 190.014 77.367C191.681 81.0126 193.036 84.7055 194.313 88.5117C196.957 96.3943 199.279 105.114 199.322 113.446C199.358 120.354 196.95 129.188 189.205 130.796C179.774 132.751 178.227 127.424 178.227 127.424" stroke="black" stroke-width="0.755576" stroke-miterlimit="10"/>
<path d="M189.509 83.306C192.266 82.0601 193.735 79.3546 192.79 77.2631C191.845 75.1717 188.843 74.4863 186.087 75.7322C183.33 76.9782 181.861 79.6837 182.806 81.7751C183.751 83.8666 186.753 84.552 189.509 83.306Z" fill="#FFFEFD" stroke="black" stroke-width="0.755576" stroke-miterlimit="10"/>
<path d="M171.287 68.8818C171.213 69.2886 171.185 69.7023 171.204 70.1153C171.451 75.6348 176.986 79.917 182.218 79.917C185.149 79.917 187.959 78.7528 190.032 76.6804C192.104 74.6081 193.268 71.7974 193.268 68.8667C193.268 65.6442 192.84 62.4594 189.203 61.8436C185.852 61.2769 182.371 60.9653 179.084 61.8323C175.873 62.6785 171.925 65.3533 171.287 68.8818Z" fill="#FFFEFD" stroke="black" stroke-width="0.755576" stroke-miterlimit="10"/>
<path d="M192.797 61.7397C192.882 62.9486 192.873 64.218 192.138 65.2928C191.403 66.3676 189.73 67.161 188.215 66.7907C186.264 66.3166 185.759 64.4277 185.604 62.875C185.415 61.02 185.276 56.7907 188.972 56.6849C192.1 56.5943 192.676 60.0416 192.797 61.7397Z" fill="#FFFEFD" stroke="black" stroke-width="0.755576" stroke-miterlimit="10"/>
<path d="M185.809 61.7397C185.894 62.9486 185.884 64.218 185.149 65.2928C184.415 66.3676 182.741 67.161 181.226 66.7907C179.275 66.3166 178.77 64.4277 178.616 62.875C178.427 61.02 178.287 56.7907 181.983 56.6849C185.112 56.5943 185.688 60.0416 185.809 61.7397Z" fill="#FFFEFD" stroke="black" stroke-width="0.755576" stroke-miterlimit="10"/>
<path d="M178.442 62.8939C178.521 64.1028 178.503 65.3722 177.762 66.4432C177.022 67.5142 175.344 68.2962 173.831 67.9185C171.884 67.433 171.398 65.5422 171.241 63.9876C171.053 62.1326 170.949 57.9014 174.642 57.8164C177.773 57.7446 178.333 61.1957 178.442 62.8939Z" fill="#FFFEFD" stroke="black" stroke-width="0.755576" stroke-miterlimit="10"/>
<path d="M174.479 65.3722C173.932 65.4232 173.406 65.5007 172.938 65.58C171.818 65.7689 170.671 66.277 170.084 67.2517C169.44 68.3227 169.649 69.7923 170.462 70.7368C171.274 71.6813 172.606 72.1082 173.847 71.9608C174.791 71.8494 175.628 71.4357 176.525 71.1769C177.271 70.9635 178.15 70.988 178.862 70.6858C180.224 70.1191 180.373 68.6174 179.789 67.3424C178.888 65.3722 176.525 65.1833 174.479 65.3722Z" fill="#FFFEFD" stroke="black" stroke-width="0.755576" stroke-miterlimit="10"/>
<path d="M216.466 62.2554H235.355C236.056 62.2554 236.729 62.534 237.225 63.03C237.721 63.5259 238 64.1986 238 64.8999C238 65.6013 237.721 66.274 237.225 66.7699C236.729 67.2659 236.056 67.5445 235.355 67.5445L216.466 67.6276C216.466 67.6276 215.521 64.5222 216.466 62.2554Z" fill="#828282" stroke="black" stroke-width="0.94447" stroke-miterlimit="10"/>
<path d="M101.619 155.758C101.619 155.758 94.9829 163.442 95.4797 182.675C95.4944 183.384 95.761 184.064 96.2318 184.594C96.7025 185.124 97.3466 185.469 98.0486 185.567C98.9054 185.691 99.7731 185.722 100.636 185.66C101.405 185.588 102.116 185.22 102.619 184.634C103.122 184.048 103.377 183.289 103.33 182.519C103.09 178.123 103.171 167.819 108.23 159.727C108.23 159.725 104.263 157.647 101.619 155.758Z" fill="#19888F" stroke="black" stroke-width="0.755576" stroke-miterlimit="10"/>
<path d="M164.073 184.564C164.073 184.564 167.573 184.564 167.922 186.489C168.33 188.728 166.347 189.814 166.347 189.814C166.347 189.814 169.148 191.213 169.498 192.613C172.768 190.773 176.725 190.753 179.823 192.613C183.559 194.857 185.446 199.479 184.371 203.988C184.241 204.608 184.005 205.2 183.672 205.739C180.65 210.577 170.261 210.921 162.847 207.664C158.84 205.904 154.777 203.901 153.402 200.314C151.528 195.445 153.636 190.63 154.101 189.989C154.101 189.989 151.302 188.59 153.226 186.489C155.151 184.389 164.073 184.564 164.073 184.564Z" fill="#F7C326" stroke="black" stroke-width="0.755576" stroke-miterlimit="10"/>
<path d="M183.672 205.743C184.56 205.048 185.534 207.143 185.247 208.367C184.42 211.875 174.909 214.151 166.872 212.392C163.793 211.718 158.249 209.965 152.516 204.693C152.516 204.693 150.591 201.718 153.39 199.971C153.39 199.971 158.509 206.86 165.837 208.227C173.164 209.595 179.647 208.892 183.672 205.743Z" fill="#F7C326" stroke="black" stroke-width="0.755576" stroke-miterlimit="10"/>
<path d="M169.422 193.032C169.204 193.148 168.992 193.274 168.787 193.41C168.576 193.55 168.366 193.695 168.164 193.85C167.755 194.16 167.366 194.495 166.998 194.851C166.627 195.208 166.278 195.587 165.952 195.985C165.623 196.388 165.317 196.809 165.036 197.247C165.262 196.776 165.514 196.318 165.791 195.875C166.072 195.428 166.38 194.999 166.713 194.589C167.047 194.175 167.406 193.782 167.788 193.412C168.176 193.03 168.594 192.682 169.04 192.369L169.352 192.156L169.752 192.855L169.422 193.032Z" fill="black"/>
<path d="M182.314 200.809C182.307 200.908 182.284 201.004 182.244 201.094C182.065 201.461 181.489 201.419 181.203 201.127C180.918 200.834 180.846 200.403 180.748 200.008C180.506 199.054 180.066 198.161 179.456 197.388C178.846 196.615 178.08 195.979 177.208 195.522C177.02 195.426 176.795 195.284 176.814 195.072C176.832 195 176.866 194.932 176.913 194.873C176.96 194.815 177.019 194.767 177.086 194.732C178.378 193.818 180.027 195.377 180.82 196.272C181.785 197.356 182.486 199.313 182.314 200.809Z" fill="white"/>
<path d="M157.773 158.402C157.773 158.402 164.41 166.087 163.912 185.318C163.897 186.027 163.63 186.707 163.16 187.237C162.689 187.767 162.045 188.112 161.343 188.21C160.486 188.334 159.618 188.365 158.755 188.302C157.986 188.23 157.276 187.862 156.774 187.276C156.271 186.69 156.017 185.932 156.063 185.161C156.303 180.766 156.22 170.461 151.152 162.369C151.161 162.369 155.128 160.291 157.773 158.402Z" fill="#19888F" stroke="black" stroke-width="0.755576" stroke-miterlimit="10"/>
</svg>
