<svg width="1149" height="908" viewBox="0 0 1149 908" fill="none" xmlns="http://www.w3.org/2000/svg">
<path d="M391.15 741C391.15 741 372.62 741 370.77 751.19C368.62 763.04 379.11 768.79 379.11 768.79C379.11 768.79 364.29 776.2 362.43 783.61C345.13 773.87 324.17 773.76 307.77 783.61C288 795.51 278 820 283.69 843.85C284.379 847.131 285.631 850.267 287.39 853.12C303.39 878.73 358.39 880.55 397.64 863.31C418.85 853.99 440.36 843.39 447.64 824.4C457.56 798.62 446.4 773.13 443.94 769.74C443.94 769.74 458.76 762.33 448.57 751.21C438.38 740.09 391.15 741 391.15 741Z" fill="#F7C326" stroke="black" stroke-width="4" stroke-miterlimit="10"/>
<path d="M287.389 853.12C282.689 849.44 277.529 860.53 279.059 867.01C283.429 885.58 333.779 897.63 376.329 888.32C392.629 884.75 421.989 875.47 452.329 847.56C452.329 847.56 462.519 831.81 447.689 822.56C447.689 822.56 420.599 859.03 381.799 866.27C342.999 873.51 308.699 869.79 287.389 853.12Z" fill="#F7C326" stroke="black" stroke-width="4" stroke-miterlimit="10"/>
<path d="M364.82 782.36C367.175 784.015 369.389 785.861 371.44 787.88C375.471 791.775 379.02 796.139 382.01 800.88C383.478 803.223 384.814 805.647 386.01 808.14C384.512 805.827 382.889 803.597 381.15 801.46C379.423 799.352 377.573 797.349 375.61 795.46C373.664 793.568 371.604 791.798 369.44 790.16C368.37 789.34 367.26 788.57 366.15 787.83C365.04 787.09 363.85 786.38 362.78 785.83L361 784.93L363.11 781.23L364.82 782.36Z" fill="black"/>
<path d="M294.579 827C294.615 827.521 294.741 828.031 294.949 828.51C295.899 830.45 298.949 830.23 300.459 828.68C301.969 827.13 302.349 824.85 302.869 822.76C304.152 817.707 306.483 812.98 309.712 808.887C312.94 804.793 316.994 801.425 321.609 799C322.609 798.49 323.799 797.74 323.699 796.62C323.629 795.83 322.919 795.28 322.269 794.82C315.419 789.98 306.699 798.23 302.499 802.97C297.379 808.72 293.669 819.08 294.579 827Z" fill="white"/>
<path d="M367.749 416.07C368.809 547.5 460.389 653.31 609.749 652.07C755.749 650.89 848.999 543.59 847.939 412.16C846.879 280.73 784.999 168.49 601.179 170C442.679 171.25 366.689 284.64 367.749 416.07Z" fill="#ED744A" stroke="black" stroke-width="4" stroke-miterlimit="10"/>
<path d="M341.749 416.07C342.809 547.5 434.389 653.31 583.749 652.07C729.749 650.89 822.999 543.59 821.939 412.16C820.879 280.73 758.999 168.49 575.179 170C416.679 171.25 340.689 284.64 341.749 416.07Z" fill="#FFE7E2" stroke="black" stroke-width="4" stroke-miterlimit="10"/>
<path d="M363.919 412.53C364.919 532.11 447.479 628.39 582.179 627.3C713.789 626.24 797.919 528.62 796.959 409.04C795.999 289.46 740.189 187.3 574.399 188.63C431.469 189.79 362.999 293 363.919 412.53Z" stroke="black" stroke-width="4" stroke-miterlimit="10"/>
<path d="M582 550C595.807 550 607 541.046 607 530C607 518.954 595.807 510 582 510C568.193 510 557 518.954 557 530C557 541.046 568.193 550 582 550Z" fill="black"/>
<path d="M533.14 439.11C557.71 430.31 583.06 449.85 582.23 475.94C582.137 482.117 580.8 488.211 578.3 493.86C560.63 532.47 485.79 543.1 452.47 509.29C436.47 493.07 434.16 470.82 433.9 459.49C436.117 464.236 439.545 468.313 443.84 471.31C460.84 482.94 483.84 472.09 499.18 462.77C510.18 456.1 518.46 445.61 530.38 440.24C531.26 439.83 532.19 439.45 533.14 439.11Z" fill="#474747" stroke="black" stroke-width="5" stroke-miterlimit="10"/>
<path d="M564.19 260.72C572.875 257.696 582.318 257.636 591.04 260.55C591.949 260.864 592.926 260.921 593.865 260.717C594.803 260.512 595.668 260.054 596.364 259.391C597.06 258.728 597.56 257.887 597.81 256.959C598.059 256.031 598.049 255.052 597.78 254.13L582.68 203.36C582.352 202.29 581.689 201.354 580.789 200.688C579.889 200.023 578.8 199.664 577.68 199.664C576.561 199.664 575.471 200.023 574.571 200.688C573.671 201.354 573.009 202.29 572.68 203.36L557.54 254.28C557.269 255.195 557.253 256.167 557.495 257.09C557.737 258.013 558.227 258.852 558.913 259.516C559.598 260.18 560.453 260.643 561.383 260.856C562.314 261.068 563.285 261.021 564.19 260.72Z" fill="#B9432C" stroke="black" stroke-width="4" stroke-miterlimit="10"/>
<path d="M567.71 554.62C576.048 557.462 585.092 557.462 593.43 554.62C594.297 554.307 595.233 554.241 596.136 554.427C597.038 554.613 597.872 555.045 598.545 555.675C599.217 556.305 599.702 557.109 599.947 557.997C600.191 558.886 600.185 559.825 599.93 560.71L585.87 609.46C585.573 610.497 584.948 611.411 584.089 612.064C583.231 612.717 582.184 613.074 581.105 613.083C580.026 613.092 578.973 612.752 578.103 612.114C577.234 611.475 576.594 610.572 576.28 609.54L561.38 560.89C561.099 560.012 561.067 559.073 561.286 558.177C561.506 557.282 561.969 556.465 562.624 555.816C563.279 555.167 564.101 554.712 564.998 554.501C565.896 554.29 566.834 554.331 567.71 554.62Z" fill="#8C7BC7" stroke="black" stroke-width="4" stroke-miterlimit="10"/>
<path d="M607.519 432.5C606.301 436.695 604.108 440.543 601.119 443.73C599.236 445.624 597.111 447.262 594.799 448.6C582.029 455.6 566.129 450.45 559.279 437.04C552.429 423.63 557.279 407.04 570.009 400.04C572.329 398.758 574.836 397.85 577.439 397.35C581.623 396.542 585.944 396.821 589.989 398.16C593.256 399.349 596.25 401.186 598.789 403.56C601.583 406.007 603.949 408.904 605.789 412.13" fill="#FFDE72"/>
<path d="M607.519 432.5C606.301 436.695 604.108 440.543 601.119 443.73C599.236 445.624 597.111 447.262 594.799 448.6C582.029 455.6 566.129 450.45 559.279 437.04C552.429 423.63 557.279 407.04 570.009 400.04C572.329 398.758 574.836 397.85 577.439 397.35C581.623 396.542 585.944 396.821 589.989 398.16C593.256 399.349 596.25 401.186 598.789 403.56C601.583 406.007 603.949 408.904 605.789 412.13" stroke="black" stroke-width="4" stroke-miterlimit="10" stroke-linecap="round"/>
<path d="M577.159 404.78C573.63 407.054 570.71 410.156 568.654 413.816C566.597 417.476 565.466 421.583 565.359 425.78" stroke="white" stroke-width="5" stroke-miterlimit="10" stroke-linecap="round"/>
<path d="M626.829 440.29C601.469 434.13 578.319 456.23 581.889 482.08C582.629 488.214 584.598 494.135 587.679 499.49C609.319 536.03 684.859 538.72 714.439 501.6C728.619 483.8 728.599 461.41 727.659 450.13C725.953 455.079 722.977 459.493 719.029 462.93C703.339 476.27 679.279 467.93 663.099 460.26C651.499 454.77 642.099 445.26 629.699 441.12C628.779 440.81 627.819 440.53 626.829 440.29Z" fill="#474747" stroke="black" stroke-width="5" stroke-miterlimit="10"/>
<path d="M554.26 167.59C554.26 167.59 574.42 164.59 587.35 167.59C587.35 167.59 591.49 156.96 587.35 153.16C583.21 149.36 558.91 150.16 554.26 153.16C549.61 156.16 554.26 167.59 554.26 167.59Z" fill="#F7C326" stroke="black" stroke-width="4" stroke-miterlimit="10"/>
<path d="M571.191 88.39C556.891 88.39 545.301 102.82 545.301 120.59C545.301 138.36 556.891 152.8 571.191 152.8C585.491 152.8 597.081 138.38 597.081 120.59C597.081 102.8 585.491 88.39 571.191 88.39ZM571.191 144.09C560.901 144.09 552.551 133.7 552.551 120.9C552.551 108.1 560.901 97.71 571.191 97.71C581.481 97.71 589.831 108.1 589.831 120.9C589.831 133.7 581.481 144.09 571.191 144.09Z" fill="#F7C326" stroke="black" stroke-width="4" stroke-miterlimit="10"/>
<path d="M538.699 372.41C538.699 409.41 514.699 439.41 485.199 439.41C455.699 439.41 431.699 409.41 431.699 372.41C431.699 335.41 455.699 305.41 485.199 305.41C499.979 305.41 513.349 312.91 523.029 325.03C532.709 337.15 538.699 353.91 538.699 372.41Z" fill="white" stroke="black" stroke-width="4" stroke-miterlimit="10"/>
<path d="M485.921 421.07C466.131 419.26 449.821 401.77 449.691 377.72C449.557 368.382 452.071 359.198 456.941 351.23C473.616 345.962 491.193 344.162 508.591 345.94C513.901 352.311 517.693 359.807 519.681 367.86L498.611 375.39L519.771 382.69C520.521 404.79 504.001 422.73 485.921 421.07Z" fill="black"/>
<path d="M537.09 352.41C527.877 349.142 518.311 346.971 508.59 345.94C491.192 344.162 473.615 345.962 456.94 351.23C442.69 355.69 434.18 361.02 434.18 361.02" stroke="black" stroke-width="4" stroke-miterlimit="10"/>
<path d="M722.699 372.41C722.699 409.41 698.699 439.41 669.199 439.41C639.699 439.41 615.699 409.41 615.699 372.41C615.699 335.41 639.699 305.41 669.199 305.41C683.979 305.41 697.349 312.91 707.029 325.03C716.709 337.15 722.699 353.91 722.699 372.41Z" fill="white" stroke="black" stroke-width="4" stroke-miterlimit="10"/>
<path d="M669.921 421.07C650.131 419.26 633.821 401.77 633.691 377.72C633.557 368.382 636.071 359.198 640.941 351.23C657.616 345.962 675.193 344.162 692.591 345.94C697.901 352.311 701.693 359.807 703.681 367.86L682.611 375.39L703.771 382.69C704.521 404.79 688.001 422.73 669.921 421.07Z" fill="black"/>
<path d="M721.09 352.41C711.877 349.142 702.311 346.971 692.59 345.94C675.192 344.162 657.615 345.962 640.94 351.23C626.69 355.69 618.18 361.02 618.18 361.02" stroke="black" stroke-width="4" stroke-miterlimit="10"/>
<path d="M462 261C462 261 499 261 513 293C527 325 550 311 550 311" stroke="black" stroke-width="4" stroke-miterlimit="10"/>
<path d="M686 261C686 261 649 261 635 293C621 325 598 311 598 311" stroke="black" stroke-width="4" stroke-miterlimit="10"/>
<path d="M338.931 400.92C334.231 424.72 319.531 439.73 291.611 435.22C250.811 428.64 257.611 360.22 262.041 331.32C266.226 304.18 273.127 277.53 282.641 251.77C289.481 233.25 294.691 214.12 301.521 195.36C304.181 188.06 289.361 183.07 284.261 180.3C283.111 179.67 281.691 179.02 280.561 179.68C279.941 180.135 279.476 180.771 279.231 181.5C270.401 200.8 263.231 220.35 256.471 240.5C242.471 282.23 230.181 328.39 229.951 372.5C229.761 409.07 242.511 455.84 283.501 464.35C333.441 474.7 341.621 446.5 341.621 446.5" fill="#19888F"/>
<path d="M338.931 400.92C334.231 424.72 319.531 439.73 291.611 435.22C250.811 428.64 257.611 360.22 262.041 331.32C266.226 304.18 273.127 277.53 282.641 251.77C289.481 233.25 294.691 214.12 301.521 195.36C304.181 188.06 289.361 183.07 284.261 180.3C283.111 179.67 281.691 179.02 280.561 179.68C279.941 180.135 279.476 180.771 279.231 181.5C270.401 200.8 263.231 220.35 256.471 240.5C242.471 282.23 230.181 328.39 229.951 372.5C229.761 409.07 242.511 455.84 283.501 464.35C333.441 474.7 341.621 446.5 341.621 446.5" stroke="black" stroke-width="4" stroke-miterlimit="10"/>
<path d="M317.425 205.058C322.429 193.986 314.654 179.663 300.059 173.067C285.464 166.471 269.576 170.099 264.572 181.172C259.568 192.244 267.343 206.566 281.938 213.162C296.533 219.758 312.421 216.13 317.425 205.058Z" fill="#FFFEFD" stroke="black" stroke-width="4" stroke-miterlimit="10"/>
<path d="M378.37 136.58C378.759 138.734 378.906 140.924 378.81 143.11C377.5 172.33 348.2 195 320.5 195C304.985 195 290.105 188.837 279.134 177.866C268.163 166.895 262 152.015 262 136.5C262 119.44 264.27 102.58 283.52 99.3199C301.26 96.3199 319.69 94.67 337.09 99.26C354.09 103.74 375 117.9 378.37 136.58Z" fill="#FFFEFD" stroke="black" stroke-width="4" stroke-miterlimit="10"/>
<path d="M12.9 107.35L964 106V136H12.91C7.44 136 3 129.59 3 121.67C3 113.77 7.42999 107.36 12.9 107.35Z" fill="#828282" stroke="black" stroke-width="5" stroke-miterlimit="10"/>
<path d="M153.8 246C142.88 246 131.8 233.57 123.48 211.89C114.75 189.24 109.63 158.89 109.05 126.46C108.47 93.58 112.61 62.46 120.71 38.79C128.49 16.07 139.33 2.69998 150.44 2.09998C150.71 2.09998 150.99 2.09998 151.26 2.09998C162.17 2.09998 173.26 14.53 181.58 36.21C190.3 58.86 195.43 89.21 196 121.64C196.58 154.51 192.44 185.64 184.34 209.31C176.56 232.03 165.73 245.4 154.61 246C154.34 246 154.07 246 153.8 246ZM162.26 99.87C156.26 99.87 153.1 110.68 153.1 121.36C153.1 132.04 156.25 142.86 162.26 142.86C168.27 142.86 171.41 132.04 171.41 121.36C171.41 110.68 168.26 99.83 162.26 99.83V99.87Z" fill="#9B0B0B"/>
<path d="M151.259 4C161.259 4 171.669 16 179.709 36.83C188.359 59.26 193.429 89.3599 193.999 121.57C194.579 154.22 190.479 185.12 182.449 208.57C174.949 230.48 164.759 243.36 154.449 243.92H153.749C143.699 243.92 133.329 231.92 125.289 211.09C116.649 188.66 111.569 158.56 110.999 126.35C110.419 93.7 114.529 62.8 122.549 39.35C130.059 17.44 140.239 4.56 150.499 4H151.209M162.209 144.78C169.909 144.78 173.359 132.98 173.359 121.28C173.359 109.58 169.909 97.79 162.209 97.79C154.509 97.79 151.049 109.59 151.049 121.28C151.049 132.97 154.499 144.78 162.209 144.78ZM151.209 0C150.899 0 150.589 0 150.289 0C125.169 1.36 105.789 58 106.999 126.4C108.199 194.01 128.999 247.9 153.749 247.9C154.049 247.9 154.359 247.9 154.669 247.9C179.789 246.54 199.159 189.9 197.949 121.5C196.749 53.89 175.949 0 151.209 0ZM162.209 140.78C158.209 140.78 155.049 132.05 155.049 121.28C155.049 110.51 158.259 101.79 162.209 101.79C166.159 101.79 169.359 110.52 169.359 121.28C169.359 132.04 166.149 140.78 162.209 140.78Z" fill="black"/>
<path d="M164.15 107.35L1028 106C1031.98 106 1035.79 107.58 1038.61 110.393C1041.42 113.206 1043 117.022 1043 121C1043 124.978 1041.42 128.794 1038.61 131.607C1035.79 134.42 1031.98 136 1028 136H164.16C159.1 136 155 129.59 155 121.67C155 113.77 159.1 107.36 164.15 107.35Z" fill="#828282" stroke="black" stroke-width="5" stroke-miterlimit="10"/>
<path d="M1028.8 246C1017.88 246 1006.8 233.57 998.48 211.89C989.75 189.24 984.63 158.89 984.05 126.46C983.47 93.58 987.61 62.46 995.71 38.79C1003.49 16.07 1014.33 2.69998 1025.44 2.09998C1025.71 2.09998 1025.99 2.09998 1026.26 2.09998C1037.17 2.09998 1048.26 14.53 1056.58 36.21C1065.3 58.86 1070.43 89.21 1071 121.64C1071.58 154.51 1067.44 185.64 1059.34 209.31C1051.56 232.03 1040.73 245.4 1029.61 246C1029.34 246 1029.07 246 1028.8 246ZM1037.26 99.87C1031.26 99.87 1028.1 110.68 1028.1 121.36C1028.1 132.04 1031.25 142.86 1037.26 142.86C1043.27 142.86 1046.41 132.04 1046.41 121.36C1046.41 110.68 1043.26 99.83 1037.26 99.83V99.87Z" fill="#9B0B0B"/>
<path d="M1026.26 4C1036.26 4 1046.67 16 1054.71 36.83C1063.36 59.26 1068.43 89.3599 1069 121.57C1069.58 154.22 1065.48 185.12 1057.45 208.57C1049.95 230.48 1039.76 243.36 1029.45 243.92H1028.75C1018.75 243.92 1008.33 231.92 1000.29 211.09C991.65 188.66 986.57 158.56 986 126.35C985.42 93.7 989.53 62.8 997.55 39.35C1005.06 17.44 1015.24 4.56 1025.55 4H1026.26ZM1037.26 144.78C1044.96 144.78 1048.41 132.98 1048.41 121.28C1048.41 109.58 1044.96 97.79 1037.26 97.79C1029.56 97.79 1026.1 109.59 1026.1 121.28C1026.1 132.97 1029.55 144.78 1037.26 144.78ZM1026.26 0C1025.95 0 1025.64 0 1025.34 0C1000.22 1.36 980.84 58 982.05 126.4C983.25 194.01 1004.05 247.9 1028.8 247.9C1029.1 247.9 1029.41 247.9 1029.72 247.9C1054.84 246.54 1074.21 189.9 1073 121.5C1071.8 53.89 1051 0 1026.26 0ZM1037.26 140.78C1033.26 140.78 1030.1 132.05 1030.1 121.28C1030.1 110.51 1033.31 101.79 1037.26 101.79C1041.21 101.79 1044.41 110.52 1044.41 121.28C1044.41 132.04 1041.2 140.78 1037.26 140.78Z" fill="black"/>
<path d="M264.489 98.77C264.029 105.17 264.089 111.89 267.979 117.58C271.869 123.27 280.729 127.47 288.749 125.51C299.079 123 301.749 113 302.569 104.78C303.569 94.96 304.309 72.57 284.739 72.01C268.179 71.53 265.119 89.78 264.489 98.77Z" fill="#FFFEFD" stroke="black" stroke-width="4" stroke-miterlimit="10"/>
<path d="M301.489 98.77C301.029 105.17 301.089 111.89 304.979 117.58C308.869 123.27 317.729 127.47 325.749 125.51C336.079 123 338.749 113 339.569 104.78C340.569 94.96 341.309 72.57 321.739 72.01C305.179 71.53 302.119 89.78 301.489 98.77Z" fill="#FFFEFD" stroke="black" stroke-width="4" stroke-miterlimit="10"/>
<path d="M340.489 104.88C340.069 111.28 340.159 118 344.079 123.67C347.999 129.34 356.889 133.48 364.899 131.48C375.209 128.91 377.779 118.9 378.609 110.67C379.609 100.85 380.159 78.45 360.609 78C343.999 77.62 341.069 95.89 340.489 104.88Z" fill="#FFFEFD" stroke="black" stroke-width="4" stroke-miterlimit="10"/>
<path d="M361.471 118C364.371 118.27 367.151 118.68 369.621 119.1C375.561 120.1 381.621 122.79 384.731 127.95C388.141 133.62 387.041 141.4 382.731 146.4C378.421 151.4 371.381 153.66 364.811 152.88C359.811 152.29 355.381 150.1 350.631 148.73C346.631 147.6 342.031 147.73 338.261 146.13C331.051 143.13 330.261 135.18 333.351 128.43C338.131 118 350.641 117 361.471 118Z" fill="#FFFEFD" stroke="black" stroke-width="4" stroke-miterlimit="10"/>
<path d="M832.76 406.92C837.46 430.72 852.15 445.73 880.08 441.22C920.88 434.64 914.081 366.22 909.651 337.32C905.466 310.18 898.565 283.53 889.051 257.77C882.211 239.25 877.051 220.12 870.171 201.36C867.511 194.06 882.331 189.07 887.431 186.3C888.581 185.67 890 185.02 891.13 185.68C891.748 186.138 892.212 186.772 892.46 187.5C901.29 206.8 908.46 226.35 915.22 246.5C929.22 288.23 941.51 334.39 941.74 378.5C941.93 415.07 929.181 461.84 888.181 470.35C838.251 480.7 830.061 452.5 830.061 452.5" fill="#19888F"/>
<path d="M832.76 406.92C837.46 430.72 852.15 445.73 880.08 441.22C920.88 434.64 914.081 366.22 909.651 337.32C905.466 310.18 898.565 283.53 889.051 257.77C882.211 239.25 877.051 220.12 870.171 201.36C867.511 194.06 882.331 189.07 887.431 186.3C888.581 185.67 890 185.02 891.13 185.68C891.748 186.138 892.212 186.772 892.46 187.5C901.29 206.8 908.46 226.35 915.22 246.5C929.22 288.23 941.51 334.39 941.74 378.5C941.93 415.07 929.181 461.84 888.181 470.35C838.251 480.7 830.061 452.5 830.061 452.5" stroke="black" stroke-width="4" stroke-miterlimit="10"/>
<path d="M889.807 218.918C904.402 212.322 912.177 197.999 907.173 186.927C902.169 175.855 886.281 172.227 871.686 178.823C857.091 185.419 849.316 199.742 854.32 210.814C859.324 221.886 875.212 225.514 889.807 218.918Z" fill="#FFFEFD" stroke="black" stroke-width="4" stroke-miterlimit="10"/>
<path d="M793.32 142.58C792.931 144.734 792.784 146.924 792.88 149.11C794.19 178.33 823.49 201 851.19 201C866.705 201 881.585 194.837 892.556 183.866C903.527 172.895 909.69 158.015 909.69 142.5C909.69 125.44 907.42 108.58 888.17 105.32C870.43 102.32 852 100.67 834.6 105.26C817.6 109.74 796.7 123.9 793.32 142.58Z" fill="#FFFEFD" stroke="black" stroke-width="4" stroke-miterlimit="10"/>
<path d="M907.201 104.77C907.651 111.17 907.601 117.89 903.711 123.58C899.821 129.27 890.961 133.47 882.941 131.51C872.611 129 869.941 119 869.121 110.78C868.121 100.96 867.381 78.57 886.951 78.01C903.511 77.53 906.561 95.78 907.201 104.77Z" fill="#FFFEFD" stroke="black" stroke-width="4" stroke-miterlimit="10"/>
<path d="M870.201 104.77C870.651 111.17 870.601 117.89 866.711 123.58C862.821 129.27 853.961 133.47 845.941 131.51C835.611 129 832.941 119 832.121 110.78C831.121 100.96 830.381 78.57 849.951 78.01C866.511 77.53 869.561 95.78 870.201 104.77Z" fill="#FFFEFD" stroke="black" stroke-width="4" stroke-miterlimit="10"/>
<path d="M831.2 110.88C831.62 117.28 831.52 124 827.6 129.67C823.68 135.34 814.8 139.48 806.79 137.48C796.48 134.91 793.91 124.9 793.08 116.67C792.08 106.85 791.53 84.45 811.08 84C827.66 83.62 830.62 101.89 831.2 110.88Z" fill="#FFFEFD" stroke="black" stroke-width="4" stroke-miterlimit="10"/>
<path d="M810.219 124C807.319 124.27 804.539 124.68 802.059 125.1C796.129 126.1 790.059 128.79 786.949 133.95C783.539 139.62 784.649 147.4 788.949 152.4C793.249 157.4 800.299 159.66 806.869 158.88C811.869 158.29 816.299 156.1 821.049 154.73C825.049 153.6 829.649 153.73 833.419 152.13C840.629 149.13 841.419 141.18 838.329 134.43C833.559 124 821.049 123 810.219 124Z" fill="#FFFEFD" stroke="black" stroke-width="4" stroke-miterlimit="10"/>
<path d="M1032.5 107.5H1132.5C1136.21 107.5 1139.77 108.975 1142.4 111.6C1145.02 114.226 1146.5 117.787 1146.5 121.5C1146.5 125.213 1145.02 128.774 1142.4 131.4C1139.77 134.025 1136.21 135.5 1132.5 135.5L1032.5 135.94C1032.5 135.94 1027.5 119.5 1032.5 107.5Z" fill="#828282" stroke="black" stroke-width="5" stroke-miterlimit="10"/>
<path d="M424.5 602.5C424.5 602.5 389.37 643.18 392 745C392.078 748.752 393.489 752.353 395.982 755.159C398.474 757.964 401.884 759.79 405.6 760.31C410.136 760.966 414.729 761.13 419.3 760.8C423.37 760.421 427.134 758.474 429.795 755.37C432.456 752.267 433.806 748.251 433.56 744.17C432.29 720.9 432.72 666.35 459.5 623.51C459.5 623.5 438.5 612.5 424.5 602.5Z" fill="#19888F" stroke="black" stroke-width="4" stroke-miterlimit="10"/>
<path d="M755.13 755C755.13 755 773.66 755 775.51 765.19C777.67 777.04 767.17 782.79 767.17 782.79C767.17 782.79 782 790.2 783.85 797.61C801.16 787.87 822.11 787.76 838.51 797.61C858.29 809.49 868.28 833.96 862.59 857.83C861.901 861.111 860.65 864.247 858.89 867.1C842.89 892.71 787.89 894.53 748.64 877.29C727.43 867.97 705.92 857.37 698.64 838.38C688.72 812.6 699.88 787.11 702.34 783.72C702.34 783.72 687.52 776.31 697.71 765.19C707.9 754.07 755.15 755 755.15 755" fill="#F7C326"/>
<path d="M755.13 755C755.13 755 773.66 755 775.51 765.19C777.67 777.04 767.17 782.79 767.17 782.79C767.17 782.79 782 790.2 783.85 797.61C801.16 787.87 822.11 787.76 838.51 797.61C858.29 809.49 868.28 833.96 862.59 857.83C861.901 861.111 860.65 864.247 858.89 867.1C842.89 892.71 787.89 894.53 748.64 877.29C727.43 867.97 705.92 857.37 698.64 838.38C688.72 812.6 699.88 787.11 702.34 783.72C702.34 783.72 687.52 776.31 697.71 765.19C707.9 754.07 755.15 755 755.15 755" stroke="black" stroke-width="4" stroke-miterlimit="10"/>
<path d="M858.891 867.12C863.591 863.44 868.751 874.53 867.231 881.01C862.851 899.58 812.501 911.63 769.951 902.32C753.651 898.75 724.301 889.47 693.951 861.56C693.951 861.56 683.761 845.81 698.581 836.56C698.581 836.56 725.681 873.03 764.471 880.27C803.261 887.51 837.581 883.79 858.891 867.12Z" fill="#F7C326" stroke="black" stroke-width="4" stroke-miterlimit="10"/>
<path d="M783.45 799.83C782.298 800.44 781.176 801.108 780.09 801.83C778.97 802.57 777.861 803.34 776.791 804.16C774.629 805.8 772.568 807.57 770.62 809.46C768.657 811.349 766.807 813.352 765.08 815.46C763.341 817.595 761.722 819.825 760.23 822.14C761.426 819.647 762.762 817.223 764.23 814.88C765.717 812.513 767.347 810.239 769.11 808.07C770.88 805.88 772.78 803.8 774.801 801.84C776.853 799.819 779.071 797.972 781.431 796.32L783.08 795.19L785.2 798.89L783.45 799.83Z" fill="black"/>
<path d="M851.7 841C851.664 841.521 851.539 842.031 851.33 842.51C850.38 844.45 847.33 844.23 845.82 842.68C844.31 841.13 843.93 838.85 843.41 836.76C842.13 831.707 839.799 826.981 836.57 822.889C833.341 818.797 829.287 815.431 824.67 813.01C823.67 812.5 822.48 811.75 822.58 810.63C822.679 810.245 822.859 809.886 823.107 809.576C823.355 809.265 823.667 809.011 824.02 808.83C830.86 803.99 839.59 812.24 843.79 816.98C848.9 822.72 852.61 833.08 851.7 841Z" fill="white"/>
<path d="M721.781 616.5C721.781 616.5 756.921 657.18 754.281 758.99C754.203 762.742 752.791 766.343 750.299 769.149C747.807 771.954 744.397 773.78 740.681 774.3C736.145 774.956 731.551 775.12 726.98 774.79C722.912 774.408 719.151 772.46 716.492 769.357C713.833 766.254 712.484 762.239 712.73 758.16C714 734.89 713.56 680.34 686.73 637.5C686.78 637.5 707.781 626.5 721.781 616.5Z" fill="#19888F" stroke="black" stroke-width="4" stroke-miterlimit="10"/>
</svg>
