<svg width="251" height="212" viewBox="0 0 251 212" fill="none" xmlns="http://www.w3.org/2000/svg">
<path d="M18.5135 172.158C18.6115 172.243 18.702 172.332 18.7981 172.426C19.2004 172.874 19.5436 173.372 19.8194 173.907C20.0625 174.322 20.3847 174.632 20.6297 175.056C21.1651 176.077 21.5914 177.15 21.9016 178.26C22.2785 179.46 22.467 180.796 21.9544 181.946C21.4419 183.095 20.4657 183.949 18.9582 183.949C18.9771 185.338 18.9337 186.189 18.9582 187.578C21.8093 184.224 26.8595 183.043 30.9863 184.563C35.1131 186.084 38.1319 190.128 38.6652 194.496C38.8743 196.211 38.6934 198.076 37.6457 199.442C39.1777 199.912 39.4378 202.188 38.4485 203.449C37.4592 204.709 35.7707 205.158 34.1897 205.416C27.7508 206.462 20.7899 206.013 14.4319 204.662C10.9081 203.908 7.24112 202.687 4.97608 199.885C3.63063 198.221 2.90324 196.141 2.36619 194.07C1.13708 189.342 0.732928 184.437 1.17149 179.571C1.32978 177.815 1.81972 175.822 3.75875 175.324C4.71414 175.079 5.8787 175.512 6.22543 176.428C7.02806 175.577 7.99236 174.894 9.06202 174.419C10.1317 173.944 11.2852 173.688 12.4552 173.664C12.8509 172.469 13.9194 171.591 15.1235 171.284C16.3936 170.954 17.5581 171.327 18.5135 172.158Z" fill="#F7C326" stroke="black" stroke-width="0.753755" stroke-miterlimit="10" stroke-linecap="round"/>
<path d="M38.1544 198.952C38.0394 199.277 37.6833 199.435 37.3629 199.557C33.8749 200.897 30.5094 201.672 26.7482 201.702C21.4606 201.745 16.0072 201.485 11.2152 199.252C10.273 198.813 9.34962 198.287 8.65428 197.517C8.00039 196.793 7.58015 195.89 7.24285 194.975C6.13294 191.978 5.81638 188.756 5.74666 185.59C5.68259 182.656 5.48284 179.281 6.14426 176.411" stroke="black" stroke-width="0.753755" stroke-miterlimit="10"/>
<path d="M12.8645 173.886C12.2789 175.028 11.9978 176.301 12.0486 177.584C11.7441 176.27 11.7837 174.901 12.1635 173.607L12.8645 173.886Z" fill="black"/>
<path d="M15.6255 182.191C16.5119 182.983 17.6312 183.467 18.8157 183.57L18.6725 184.311C17.4544 183.952 16.3854 183.208 15.6255 182.191Z" fill="black"/>
<path d="M19.2658 187.746C18.829 188.234 18.4303 188.755 18.073 189.304C17.7379 189.874 17.4662 190.479 17.2627 191.108C17.3471 190.436 17.505 189.776 17.7338 189.139C17.9918 188.506 18.2986 187.895 18.6515 187.311L19.2658 187.746Z" fill="black"/>
<path d="M105.359 186.628C105.291 187.256 104.911 187.983 104.191 188.967C105.133 189.387 107.782 191.164 108.758 190.987C109.799 190.799 110.876 188.995 111.566 188.241C112.885 186.794 114.393 185.871 116.256 185.14C120.08 183.644 124.478 183.459 128.294 185.076C129.824 185.721 131.195 186.691 132.312 187.919C133.43 189.147 134.267 190.604 134.765 192.187C135.132 193.377 135.315 194.615 135.308 195.86C135.308 197.057 135.044 198.121 134.742 199.271C134.722 199.331 134.715 199.396 134.722 199.459C134.746 199.578 134.861 199.648 134.963 199.719C136.186 200.518 136.755 202.112 136.502 203.528C136.238 205.007 134.948 206.156 133.719 206.891C131.74 208.075 129.443 208.866 127.201 209.379C121.21 210.742 115.056 211.249 108.922 210.886C99.979 210.362 90.6608 208.333 84.0145 201.9C83.2306 201.146 82.4787 200.313 82.0416 199.312C81.6044 198.312 81.5234 197.102 82.0623 196.152C82.6012 195.202 83.8468 194.645 84.8493 195.069C84.1935 194.786 87.299 191.166 87.5949 190.883C89.1683 189.376 89.9371 187.256 91.6293 185.952C91.7309 185.883 91.8201 185.798 91.8932 185.699C92.0533 185.447 91.9553 185.121 91.8705 184.835C91.6368 184.044 91.5462 183.218 91.6029 182.396C91.6123 182.034 91.6977 181.678 91.8536 181.35C92.0134 181.069 92.2335 180.827 92.498 180.642C93.5401 179.867 94.9591 179.741 96.2272 180.031C98.4979 180.551 101.53 182.104 103.311 183.612C104.735 184.829 105.468 185.592 105.359 186.628Z" fill="#F7C326" stroke="black" stroke-width="0.753755" stroke-miterlimit="10"/>
<path d="M101.75 190.427C102.544 190.002 103.236 189.412 103.782 188.696L104.311 189.233C103.553 189.809 102.68 190.217 101.75 190.427Z" fill="black"/>
<path d="M106.916 194.153C107.32 192.945 107.915 191.809 108.676 190.787L109.241 191.294C108.319 192.117 107.534 193.082 106.916 194.153Z" fill="black"/>
<path d="M103.463 144.801C103.463 144.801 122.353 147.627 119.641 162.218C117.063 176.089 104.247 185.285 100.731 187.576C100.174 187.94 99.5078 188.098 98.8467 188.025L98.3473 187.968C97.6966 187.894 97.0909 187.6 96.631 187.133C96.1712 186.667 95.8851 186.057 95.8203 185.406C95.7713 184.906 95.8545 184.402 96.0615 183.945C96.2686 183.487 96.5922 183.092 97 182.799C100.769 180.103 111.24 171.885 113.394 162.701C116.032 151.46 103.333 150.303 103.333 150.303" fill="#19888F"/>
<path d="M103.463 144.801C103.463 144.801 122.353 147.627 119.641 162.218C117.063 176.089 104.247 185.285 100.731 187.576C100.174 187.94 99.5078 188.098 98.8467 188.025L98.3473 187.968C97.6966 187.894 97.0909 187.6 96.631 187.133C96.1712 186.667 95.8851 186.057 95.8203 185.406C95.7713 184.906 95.8545 184.402 96.0615 183.945C96.2686 183.487 96.5922 183.092 97 182.799C100.769 180.103 111.24 171.885 113.394 162.701C116.032 151.46 103.333 150.303 103.333 150.303" stroke="black" stroke-width="0.753755" stroke-miterlimit="10"/>
<path d="M53.7275 144.782L48.2627 151.211C43.4408 156.951 37.6053 161.755 31.047 165.386C30.7832 165.53 30.5181 165.673 30.2518 165.815L16.8726 172.92C16.4902 173.199 16.1676 173.552 15.9239 173.957C15.6802 174.363 15.5203 174.814 15.4537 175.283V175.324C15.3849 175.805 15.4157 176.294 15.5441 176.763C15.6725 177.231 15.8958 177.668 16.2001 178.046C16.5044 178.424 16.8832 178.736 17.313 178.962C17.7428 179.188 18.2144 179.323 18.6986 179.359C19.5416 179.421 20.379 179.179 21.0597 178.678L33.6361 172.205C35.8747 171.053 38.0453 169.773 40.1373 168.373C44.737 165.271 48.8921 161.557 52.4875 157.332L58.4384 150.435" fill="#19888F"/>
<path d="M53.7275 144.782L48.2627 151.211C43.4408 156.951 37.6053 161.755 31.047 165.386C30.7832 165.53 30.5181 165.673 30.2518 165.815L16.8726 172.92C16.4902 173.199 16.1676 173.552 15.9239 173.957C15.6802 174.363 15.5203 174.814 15.4537 175.283V175.324C15.3849 175.805 15.4157 176.294 15.5441 176.763C15.6725 177.231 15.8958 177.668 16.2001 178.046C16.5044 178.424 16.8832 178.736 17.313 178.962C17.7428 179.188 18.2144 179.323 18.6986 179.359C19.5416 179.421 20.379 179.179 21.0597 178.678L33.6361 172.205C35.8747 171.053 38.0453 169.773 40.1373 168.373C44.737 165.271 48.8921 161.557 52.4875 157.332L58.4384 150.435" stroke="black" stroke-width="0.753755" stroke-miterlimit="10"/>
<path d="M165.447 123.956C167.584 123.854 169.504 122.071 170.346 119.501C171.205 116.863 171.575 114.036 172.534 111.377C172.877 110.435 173.255 109.482 173.421 108.464C173.6 107.366 173.817 106.216 173.044 105.432C172.819 105.195 172.517 105.045 172.192 105.011C171.866 104.976 171.539 105.059 171.269 105.244C171.66 103.639 172.188 102.071 172.847 100.557C173.395 99.2476 173.623 97.4367 172.809 96.2966C172.498 95.8632 172.004 95.7784 171.558 95.8481C171.068 95.9235 170.653 96.3268 170.227 96.649C170.312 96.2405 170.276 95.8163 170.124 95.4279C169.496 94.0165 168.068 94.9267 167.367 95.8048C166.952 96.346 166.616 96.943 166.368 97.578C166.208 97.9737 165.727 99.0083 165.803 99.4624C165.661 98.6823 164.964 98.5202 164.427 98.8688C163.969 99.1741 163.658 99.7507 163.391 100.318C161.506 104.294 161.261 108.351 161.041 112.755C160.884 115.872 160.828 119.823 162.335 122.392C163.021 123.588 164.229 124.012 165.447 123.956Z" fill="white" stroke="black" stroke-width="0.753755" stroke-miterlimit="10"/>
<path d="M163.742 125.938C163.061 125.939 162.39 125.775 161.786 125.461C160.107 124.585 159.089 122.823 158.53 121.504C157.823 119.825 157.163 116.62 158.247 114.664C158.47 114.255 158.787 113.905 159.172 113.643C159.557 113.38 159.999 113.214 160.461 113.156C160.627 113.13 160.795 113.117 160.962 113.117C162.046 113.117 163.192 113.656 164.109 114.594C165.15 115.659 165.805 117.089 166.318 118.348C167.143 120.387 167.807 123.176 166.293 124.879C165.968 125.227 165.572 125.502 165.132 125.684C164.692 125.867 164.218 125.954 163.742 125.938Z" fill="white"/>
<path d="M160.962 113.501C161.946 113.501 162.993 113.999 163.839 114.863C164.834 115.883 165.473 117.272 165.969 118.497C166.611 120.085 167.476 122.995 166.01 124.636C165.722 124.945 165.371 125.189 164.981 125.351C164.591 125.514 164.171 125.591 163.749 125.578C163.129 125.578 162.517 125.429 161.966 125.145C160.389 124.319 159.419 122.635 158.883 121.365C158.066 119.424 157.681 116.48 158.584 114.854C158.777 114.494 159.055 114.185 159.394 113.956C159.733 113.726 160.122 113.582 160.528 113.535C160.674 113.511 160.822 113.499 160.969 113.499M160.969 112.745C160.78 112.745 160.591 112.76 160.404 112.791C156.358 113.439 157.037 118.922 158.186 121.647C158.904 123.343 160.014 124.966 161.614 125.793C162.272 126.134 163.003 126.313 163.745 126.313C164.273 126.326 164.799 126.228 165.286 126.023C165.773 125.818 166.211 125.513 166.572 125.126C168.168 123.332 167.576 120.456 166.666 118.203C166.101 116.795 165.422 115.397 164.376 114.326C163.464 113.384 162.224 112.736 160.96 112.736L160.969 112.745Z" fill="black"/>
<path d="M105.925 121.659C105.925 121.659 133.637 121.847 148.529 118.745L158.454 116.673C161.022 116.137 163.423 118.161 163.423 120.862C163.434 121.845 163.102 122.801 162.486 123.568C161.869 124.334 161.005 124.862 160.043 125.062C151.418 126.728 127.865 130.83 107.809 130.208" fill="#19888F"/>
<path d="M105.925 121.659C105.925 121.659 133.637 121.847 148.529 118.745L158.454 116.673C161.022 116.137 163.423 118.161 163.423 120.862C163.434 121.845 163.102 122.801 162.486 123.568C161.869 124.334 161.005 124.862 160.043 125.062C151.418 126.728 127.865 130.83 107.809 130.208" stroke="black" stroke-width="0.753755" stroke-miterlimit="10"/>
<path d="M135.254 117.611C135.201 143.804 115.844 165.003 84.0284 164.937C52.951 164.873 32.9445 143.595 32.9991 117.398C33.0538 91.2012 46.0805 68.7524 85.2306 68.8335C118.98 68.9032 135.308 91.4141 135.254 117.611Z" fill="#ED744A" stroke="black" stroke-width="0.753755" stroke-miterlimit="10"/>
<path d="M134.899 117.984C134.848 142.366 120.327 162.103 96.482 162.052C73.1872 162.005 58.1988 142.208 58.2496 117.826C58.3005 93.4436 68.0749 72.5439 97.4204 72.6004C122.718 72.6569 134.944 93.6019 134.899 117.984Z" fill="#FFE7E2" stroke="black" stroke-width="0.753755" stroke-miterlimit="10"/>
<path d="M134.662 117.407C134.615 139.813 121.388 157.948 99.6688 157.903C78.4506 157.86 64.7982 139.668 64.8453 117.262C64.8924 94.8569 73.7943 75.6512 100.524 75.7059C123.569 75.7549 134.709 95.002 134.662 117.407Z" stroke="black" stroke-width="0.753755" stroke-miterlimit="10"/>
<path d="M106.719 107.993C106.719 114.965 102.206 120.618 96.6371 120.618C91.0688 120.618 86.5557 114.965 86.5557 107.993C86.5557 101.021 91.0688 95.3676 96.6371 95.3676C99.4204 95.3676 101.942 96.7809 103.766 99.0648C105.59 101.349 106.719 104.507 106.719 107.993Z" fill="white" stroke="black" stroke-width="0.753755" stroke-miterlimit="10"/>
<path d="M97.2999 117.835C91.6373 116.201 91.1587 109.103 92.1518 104.288C92.2969 103.593 92.4665 102.884 92.8471 102.283C94.0324 100.414 96.0317 100.829 97.8087 101.428C98.9131 101.811 99.9845 102.284 101.012 102.841C101.547 103.124 102.075 103.425 102.595 103.738C103.336 104.179 104.072 104.631 104.83 105.033C104.898 105.063 104.959 105.11 105.005 105.168C105.04 105.231 105.059 105.3 105.062 105.372C105.205 106.433 105.268 107.504 105.25 108.575C105.214 109.329 105.082 109.233 104.308 109.354L101.278 109.825L104.935 111.926C104.282 116.043 100.581 118.777 97.2999 117.835Z" fill="black"/>
<path d="M106.701 105.977C105.312 104.877 103.805 103.935 102.207 103.169C99.3406 101.804 96.2385 101.004 93.0696 100.812C90.3731 100.642 88.6074 100.968 88.6074 100.968" stroke="black" stroke-width="0.753755" stroke-miterlimit="10"/>
<path d="M115.535 107.92C115.535 114.309 119.027 119.488 123.337 119.488C127.646 119.488 131.136 114.309 131.136 107.92C131.136 101.53 127.644 96.3531 123.337 96.3531C121.181 96.3531 119.232 97.6477 117.819 99.745C116.406 101.842 115.535 104.725 115.535 107.92Z" fill="white" stroke="black" stroke-width="0.753755" stroke-miterlimit="10"/>
<path d="M123.322 117.686C118.941 116.179 118.571 109.685 119.338 105.276C119.662 103.422 120.624 102.287 122.419 101.675C124.314 101.026 126.321 100.77 128.318 100.921C128.42 100.918 128.521 100.95 128.604 101.01C128.673 101.089 128.715 101.189 128.723 101.294C129.171 103.847 129.576 106.614 129.476 109.208C129.448 109.894 129.346 109.811 128.741 109.923L126.397 110.354L129.224 112.278C128.726 116.051 125.86 118.555 123.322 117.686Z" fill="black"/>
<path d="M115.548 106.075C116.601 105.083 117.768 104.219 119.025 103.501C121.192 102.265 123.607 101.528 126.095 101.341C127.247 101.236 128.408 101.285 129.547 101.484" stroke="black" stroke-width="0.753755" stroke-miterlimit="10"/>
<path d="M84.8198 195.472C84.8198 195.472 90.8499 205.459 107.998 206.778C125.146 208.097 135.321 199.618 135.321 199.618" stroke="black" stroke-width="0.753755" stroke-miterlimit="10"/>
<path d="M156.992 143.026C158.544 142.987 160.05 142.49 161.321 141.596C162.591 140.702 163.567 139.452 164.128 138.004C165.33 134.957 165.795 131.689 167.143 128.646C167.625 127.555 168.16 126.468 168.377 125.294C168.611 124.025 168.901 122.699 167.725 121.766C167.353 121.481 166.909 121.305 166.443 121.259C165.977 121.213 165.507 121.298 165.087 121.504C165.629 119.635 166.368 117.829 167.293 116.117C168.072 114.609 168.358 112.521 167.105 111.176C166.632 110.663 165.897 110.552 165.234 110.61C164.508 110.684 163.905 111.14 163.282 111.502C163.395 111.022 163.328 110.517 163.093 110.083C162.121 108.428 160.027 109.442 159.01 110.443C158.424 111.035 157.94 111.719 157.578 112.468C157.35 112.924 156.666 114.11 156.799 114.632C156.566 113.723 155.527 113.501 154.74 113.904C154.067 114.243 153.622 114.903 153.232 115.553C150.56 120.111 150.304 124.809 150.102 129.918C149.961 133.526 149.991 138.107 152.303 141.128C153.377 142.53 155.181 143.058 156.992 143.026Z" fill="white" stroke="black" stroke-width="0.753755" stroke-miterlimit="10"/>
<path d="M152.623 144.782C151.942 144.783 151.271 144.619 150.667 144.305C148.988 143.429 147.971 141.667 147.411 140.348C146.704 138.669 146.045 135.464 147.128 133.508C147.351 133.099 147.668 132.749 148.053 132.486C148.438 132.224 148.88 132.058 149.343 132C149.508 131.974 149.676 131.96 149.844 131.961C150.927 131.961 152.073 132.499 152.991 133.438C154.031 134.503 154.687 135.933 155.199 137.192C156.025 139.23 156.688 142.019 155.175 143.723C154.849 144.071 154.454 144.346 154.014 144.528C153.573 144.711 153.099 144.797 152.623 144.782Z" fill="white"/>
<path d="M149.844 132.345C150.828 132.345 151.876 132.842 152.722 133.707C153.717 134.727 154.355 136.116 154.851 137.34C155.494 138.929 156.359 141.838 154.892 143.48C154.604 143.789 154.254 144.033 153.864 144.195C153.474 144.358 153.053 144.435 152.631 144.422C152.011 144.422 151.4 144.273 150.849 143.989C149.271 143.163 148.301 141.479 147.766 140.208C146.948 138.268 146.563 135.324 147.466 133.698C147.66 133.337 147.938 133.029 148.276 132.799C148.615 132.57 149.004 132.425 149.411 132.379C149.557 132.355 149.704 132.343 149.852 132.343M149.852 131.589C149.662 131.589 149.473 131.604 149.286 131.634C145.241 132.283 145.919 137.766 147.069 140.491C147.786 142.187 148.896 143.81 150.496 144.637C151.155 144.978 151.886 145.157 152.627 145.157C153.156 145.17 153.681 145.071 154.168 144.867C154.656 144.662 155.094 144.356 155.454 143.97C157.05 142.176 156.458 139.3 155.548 137.046C154.983 135.639 154.305 134.241 153.259 133.17C152.347 132.228 151.107 131.58 149.842 131.58L149.852 131.589Z" fill="black"/>
<path d="M154.96 125.75C154.915 126.151 154.87 126.522 154.836 126.892C154.836 126.984 154.825 127.08 154.813 127.165L154.798 127.438C154.798 127.626 154.776 127.8 154.783 127.979C154.777 128.341 154.792 128.704 154.828 129.064C154.855 129.441 154.925 129.795 154.96 130.195L154.926 130.212C154.758 129.863 154.629 129.497 154.54 129.121C154.449 128.744 154.404 128.357 154.406 127.969C154.41 127.582 154.457 127.196 154.546 126.818C154.629 126.44 154.755 126.074 154.923 125.725L154.96 125.75Z" fill="black"/>
<path d="M156.28 125.75C156.235 126.151 156.189 126.522 156.155 126.892C156.155 126.984 156.144 127.08 156.133 127.165L156.118 127.438C156.118 127.626 156.095 127.8 156.103 127.979C156.096 128.341 156.111 128.704 156.148 129.064C156.174 129.441 156.246 129.795 156.282 130.195L156.248 130.212C156.078 129.864 155.948 129.498 155.86 129.121C155.769 128.744 155.724 128.357 155.728 127.969C155.731 127.582 155.777 127.196 155.865 126.818C155.948 126.44 156.075 126.074 156.242 125.725L156.28 125.75Z" fill="black"/>
<path d="M157.412 125.938C157.367 126.338 157.322 126.709 157.286 127.069C157.286 127.161 157.274 127.257 157.263 127.342L157.248 127.615C157.248 127.804 157.225 127.977 157.235 128.158C157.227 128.52 157.243 128.881 157.28 129.241C157.305 129.618 157.376 129.972 157.412 130.372L157.378 130.389C157.208 130.041 157.078 129.675 156.99 129.298C156.9 128.921 156.855 128.534 156.858 128.147C156.862 127.759 156.908 127.373 156.996 126.995C157.08 126.618 157.206 126.251 157.372 125.902L157.412 125.938Z" fill="black"/>
<path d="M165.36 121.278C163.578 123.916 162.911 124.858 162.457 128.011" stroke="black" stroke-width="0.753755" stroke-miterlimit="10"/>
<path d="M163.398 111.462C160.809 114.321 159.741 118.227 159.096 122.03" stroke="black" stroke-width="0.753755" stroke-miterlimit="10"/>
<path d="M156.803 114.129C156.013 116.61 155.541 119.181 155.399 121.781" stroke="black" stroke-width="0.753755" stroke-miterlimit="10"/>
<path d="M124.052 123.3C119.274 122.137 114.911 126.304 115.584 131.175C115.723 132.331 116.094 133.446 116.675 134.455C120.753 141.341 134.988 141.848 140.562 134.851C143.234 131.497 143.23 127.28 143.053 125.154C142.732 126.086 142.171 126.918 141.426 127.564C138.47 130.08 133.936 128.506 130.887 127.061C128.701 126.028 126.93 124.235 124.593 123.456C124.42 123.39 124.239 123.338 124.052 123.3Z" fill="#474747" stroke="black" stroke-width="0.942194" stroke-miterlimit="10"/>
<path d="M106.398 123.07C111.028 121.412 115.805 125.094 115.648 130.01C115.631 131.174 115.379 132.323 114.908 133.387C111.578 140.663 97.4754 142.664 91.1966 136.293C88.1816 133.238 87.7463 129.044 87.6973 126.91C88.1153 127.804 88.7613 128.573 89.5703 129.138C92.7738 131.327 97.1079 129.283 99.9986 127.528C102.062 126.272 103.632 124.295 105.878 123.281C106.044 123.204 106.219 123.134 106.398 123.07Z" fill="#474747" stroke="black" stroke-width="0.942194" stroke-miterlimit="10"/>
<path d="M55.4743 121.792C55.4743 121.792 68.6895 131.403 97.9541 133.853C120.058 135.703 140.411 135.189 149.047 134.825C151.427 134.725 153.412 136.521 153.412 138.782C153.412 140.887 151.684 142.624 149.469 142.739C139.429 143.288 112.518 144.471 96.0659 142.508C75.5261 140.058 53.3506 131.201 53.3506 131.201" fill="#19888F"/>
<path d="M55.4743 121.792C55.4743 121.792 68.6895 131.403 97.9541 133.853C120.058 135.703 140.411 135.189 149.047 134.825C151.427 134.725 153.412 136.521 153.412 138.782C153.412 140.887 151.684 142.624 149.469 142.739C139.429 143.288 112.518 144.471 96.0659 142.508C75.5261 140.058 53.3506 131.201 53.3506 131.201" stroke="black" stroke-width="0.753755" stroke-miterlimit="10"/>
<path d="M165.848 99.2815C165.371 101.122 165.107 103.012 165.062 104.914" stroke="black" stroke-width="0.753755" stroke-miterlimit="10"/>
<path d="M170.182 96.73C168.725 99.7978 167.512 103.391 167.116 106.764" stroke="black" stroke-width="0.753755" stroke-miterlimit="10"/>
<path d="M171.147 105.398C169.96 106.733 169.091 108.32 168.605 110.039" stroke="black" stroke-width="0.753755" stroke-miterlimit="10"/>
<path d="M230.212 85.8214C229.425 86.4281 228.931 87.2667 227.851 88.2108C227.314 88.6819 221.195 94.1391 221.256 94.1447C233.421 95.607 229.72 116.017 228.162 123.666C225.036 139.004 221.105 154.262 214.813 168.597C213.569 171.423 212.175 174.165 210.076 176.474C209.322 177.312 208.355 178.567 207.462 179.244C206.622 179.879 205.214 180.062 204.59 180.93C204.089 181.631 204.321 182.613 204.711 183.38C208.99 191.835 217.212 183.489 221.233 179.455C230.367 170.295 237.673 158.466 240.882 145.886C241.621 143.024 242.111 140.103 242.346 137.156C244.362 110.774 248.446 97.3802 244.042 90.2346C241.78 86.5487 236.566 84.2046 232.23 84.9866C231.499 85.0922 230.805 85.3792 230.212 85.8214Z" fill="#2D2D2D" stroke="black" stroke-width="0.753755" stroke-miterlimit="10"/>
<path d="M223.322 70.0564C193.886 63.2444 179.313 85.6554 170.688 122.412C162.063 159.169 164.092 190.133 192.699 197.788C220.362 205.192 237.32 176.82 245.945 140.067C254.569 103.314 248.918 75.9791 223.322 70.0564ZM236.012 136.886C233.067 149.64 229.871 164.788 221.485 175.266C217.669 180.033 209.484 183.857 206.24 176.617C203.014 169.407 204.33 159.672 205.11 152.095C205.766 145.722 206.649 139.281 208.091 133.023C210.034 124.621 212.35 116.252 215.568 108.234C217.807 102.656 220.918 94.4781 226.965 92.0397C235.782 88.482 238.94 99.3097 239.492 105.622C240.408 116.037 238.35 126.782 236.018 136.886H236.012Z" fill="#404040" stroke="black" stroke-width="0.753755" stroke-miterlimit="10"/>
<path d="M213.162 94.5083C210.239 99.9964 207.967 105.808 206.395 111.824" stroke="black" stroke-width="0.376878" stroke-miterlimit="10"/>
<path d="M201.26 130.527C198.355 141.393 196.587 152.532 195.983 163.763" stroke="black" stroke-width="0.376878" stroke-miterlimit="10"/>
<path d="M196.336 106.844C191.969 119.848 188.99 133.278 187.449 146.909" stroke="black" stroke-width="0.376878" stroke-miterlimit="10"/>
<path d="M177.81 137.998C176.197 150.365 174.606 163.093 177.693 175.177" stroke="black" stroke-width="0.376878" stroke-miterlimit="10"/>
<path d="M90.3525 73.6199C90.3525 73.6199 94.0007 72.4158 96.4994 72.5703C96.4994 72.5703 96.929 70.4635 96.0415 69.8907C95.1539 69.3178 90.6615 70.228 89.8946 70.9403C89.1276 71.6526 90.3525 73.6199 90.3525 73.6199Z" fill="#F7C326" stroke="black" stroke-width="0.753755" stroke-miterlimit="10"/>
<path d="M90.9836 58.3713C88.3266 58.8255 86.6326 61.8725 87.196 65.174C87.7595 68.4754 90.3712 70.7895 93.0263 70.3353C95.6814 69.8812 97.3773 66.836 96.8139 63.5327C96.2505 60.2293 93.6387 57.9115 90.9836 58.3713ZM92.7512 68.7166C90.8385 69.0445 88.9598 67.3806 88.5528 65.0025C88.1457 62.6244 89.3668 60.4291 91.2795 60.1031C93.1921 59.7771 95.0709 61.441 95.476 63.8191C95.8812 66.1972 94.662 68.3906 92.7512 68.7166Z" fill="#F7C326" stroke="black" stroke-width="0.753755" stroke-miterlimit="10"/>
<path d="M91.8652 89.445C93.2163 88.6573 94.9406 88.8099 96.3878 89.3847C97.835 89.9594 99.1126 90.9035 100.458 91.6987C101.804 92.4939 103.305 93.1629 104.868 93.0837" stroke="black" stroke-width="0.753755" stroke-miterlimit="10"/>
<path d="M114.941 92.0191C115.461 91.8812 115.944 91.6285 116.353 91.2795C116.762 90.9306 117.088 90.4943 117.306 90.0028C117.521 89.5072 117.621 88.9683 117.823 88.467C118.131 87.7358 118.643 87.1087 119.298 86.6606C119.953 86.2125 120.723 85.9624 121.516 85.9401" stroke="black" stroke-width="0.753755" stroke-miterlimit="10"/>
<path d="M106.113 90.3325C107.657 89.5445 109.418 89.2894 111.122 89.607C111.3 89.6424 111.484 89.6282 111.654 89.566C111.824 89.5037 111.973 89.3957 112.086 89.254C112.199 89.1122 112.27 88.9422 112.293 88.7624C112.315 88.5827 112.288 88.4003 112.213 88.2352L108.086 79.1468C107.999 78.9532 107.851 78.7931 107.666 78.6904C107.48 78.5877 107.266 78.5479 107.055 78.5769C106.845 78.606 106.649 78.7023 106.498 78.8516C106.347 79.0008 106.249 79.195 106.217 79.405L104.71 89.2999C104.683 89.4772 104.705 89.6584 104.774 89.8239C104.843 89.9894 104.956 90.133 105.1 90.2392C105.245 90.3454 105.415 90.4103 105.594 90.4267C105.772 90.4432 105.952 90.4106 106.113 90.3325Z" fill="#B9432C" stroke="black" stroke-width="0.753755" stroke-miterlimit="10"/>
<path d="M109.929 145.159C108.249 145.583 106.475 145.439 104.885 144.75C104.719 144.676 104.537 144.649 104.357 144.673C104.178 144.696 104.008 144.768 103.867 144.881C103.725 144.994 103.618 145.143 103.555 145.313C103.493 145.483 103.479 145.667 103.515 145.845L105.518 155.623C105.558 155.833 105.666 156.023 105.825 156.166C105.984 156.309 106.185 156.397 106.398 156.415C106.611 156.434 106.824 156.382 107.005 156.269C107.186 156.156 107.326 155.986 107.402 155.787L111.079 146.478C111.145 146.31 111.164 146.127 111.133 145.949C111.102 145.771 111.023 145.605 110.905 145.469C110.786 145.333 110.632 145.232 110.46 145.177C110.288 145.123 110.104 145.116 109.929 145.159Z" fill="#8C7BC7" stroke="black" stroke-width="0.753755" stroke-miterlimit="10"/>
<path d="M110.636 122.111C110.865 122.902 111.278 123.627 111.842 124.227C112.197 124.583 112.597 124.892 113.033 125.145C115.439 126.464 118.435 125.493 119.726 122.968C121.017 120.443 120.112 117.315 117.706 115.996C117.269 115.756 116.796 115.585 116.306 115.491C115.518 115.337 114.703 115.389 113.941 115.642C113.325 115.867 112.761 116.213 112.281 116.659C111.754 117.121 111.308 117.667 110.962 118.276" fill="#FFDE72"/>
<path d="M110.636 122.111C110.865 122.902 111.278 123.627 111.842 124.227C112.197 124.583 112.597 124.892 113.033 125.145C115.439 126.464 118.435 125.493 119.726 122.968C121.017 120.443 120.112 117.315 117.706 115.996C117.269 115.756 116.796 115.585 116.306 115.491C115.518 115.337 114.703 115.389 113.941 115.642C113.325 115.867 112.761 116.213 112.281 116.659C111.754 117.121 111.308 117.667 110.962 118.276" stroke="black" stroke-width="0.753755" stroke-miterlimit="10" stroke-linecap="round"/>
<path d="M116.363 116.893C117.028 117.321 117.578 117.906 117.966 118.596C118.353 119.285 118.566 120.059 118.586 120.85" stroke="white" stroke-width="0.942194" stroke-miterlimit="10" stroke-linecap="round"/>
<path d="M81.5696 119.427C81.5696 119.427 78.125 125.812 81.1381 126.01C84.3359 126.219 81.5696 119.427 81.5696 119.427Z" fill="#75B8BC" stroke="black" stroke-width="0.565316" stroke-miterlimit="10"/>
<path d="M54.3341 140.646C54.3341 140.646 53.0659 147.788 55.9905 147.028C59.0903 146.224 54.3341 140.646 54.3341 140.646Z" fill="#75B8BC" stroke="black" stroke-width="0.565316" stroke-miterlimit="10"/>
<path d="M50.4764 112.078C50.4764 112.078 47.0317 118.463 50.0449 118.66C53.2427 118.87 50.4764 112.078 50.4764 112.078Z" fill="#75B8BC" stroke="black" stroke-width="0.565316" stroke-miterlimit="10"/>
</svg>
