<svg width="236" height="209" viewBox="0 0 236 209" fill="none" xmlns="http://www.w3.org/2000/svg">
<path d="M42.8652 159.145C42.2525 159.926 41.9606 160.91 41.8761 162.175C41.6475 165.544 42.6059 168.183 44.9931 170.514C47.1788 172.648 49.8868 173.724 52.9616 173.501C55.6984 173.309 58.7925 171.388 60.6247 169.404C62.4012 167.484 63.5055 164.856 63.325 162.239C63.1906 160.264 61.0606 158.534 59.1209 159.316C60.0466 158.33 59.4262 156.75 58.6023 155.859C58.3395 155.583 58.0224 155.365 57.671 155.218C57.3196 155.071 56.9415 154.999 56.5607 155.006C52.5045 154.925 48.4674 156.024 44.7895 157.706C44.0408 158.022 43.3803 158.516 42.8652 159.145Z" fill="#FFFEFD" stroke="black" stroke-width="0.768229" stroke-miterlimit="10"/>
<path d="M54.7778 157.493C54.7778 157.493 59.5389 158.453 58.9628 165.367Z" fill="#FFFEFD"/>
<path d="M54.7778 157.493C54.7778 157.493 59.5389 158.453 58.9628 165.367" stroke="black" stroke-width="0.768229" stroke-miterlimit="10"/>
<path d="M47.87 169.933C47.4787 169.89 47.1116 169.722 46.8233 169.454C46.5452 169.207 46.3282 168.899 46.1895 168.554C46.0494 168.21 45.9877 167.839 46.009 167.469C46.0284 167.076 46.1716 166.699 46.4181 166.393H46.4949C46.5086 166.716 46.5478 167.037 46.612 167.353C46.6789 167.666 46.7753 167.971 46.9001 168.266C47.0175 168.564 47.1636 168.85 47.3361 169.12C47.5117 169.391 47.7082 169.648 47.9238 169.888L47.87 169.933Z" fill="black"/>
<path d="M50.3347 170.05C49.9708 170.07 49.6099 169.973 49.3052 169.773C49.0224 169.59 48.7852 169.344 48.6118 169.055C48.4384 168.765 48.3333 168.44 48.3046 168.104C48.2697 167.742 48.3533 167.378 48.5428 167.067L48.6177 167.054C48.6858 167.336 48.7724 167.614 48.877 167.885C48.9829 168.152 49.1114 168.409 49.2611 168.654C49.407 168.904 49.5747 169.141 49.7623 169.362C49.9523 169.583 50.157 169.79 50.375 169.983L50.3347 170.05Z" fill="black"/>
<path d="M53.0441 170.034C52.6623 170.076 52.2778 169.986 51.9532 169.781C51.6425 169.59 51.3828 169.326 51.1965 169.013C51.0062 168.704 50.8923 168.354 50.8643 167.993C50.8302 167.611 50.9241 167.228 51.1312 166.906H51.208C51.2603 167.209 51.3393 167.507 51.4443 167.797C51.6665 168.371 51.9919 168.9 52.4046 169.356C52.6143 169.582 52.8445 169.788 53.0921 169.971L53.0441 170.034Z" fill="black"/>
<path d="M47.4171 152.469C50.5784 151.486 53.7838 152.757 54.579 155.311C55.3741 157.866 53.9509 161.317 50.7916 162.3C47.6322 163.284 43.9294 161.426 43.1342 158.872C42.3391 156.318 44.2578 153.46 47.4171 152.469Z" fill="#FFFEFD" stroke="black" stroke-width="0.768229" stroke-miterlimit="10"/>
<path d="M92.5046 173.52C92.6044 173.607 92.6966 173.697 92.7946 173.791C93.2038 174.248 93.5535 174.756 93.8355 175.301C94.0833 175.723 94.4117 176.042 94.6614 176.472C95.2072 177.512 95.6418 178.606 95.9577 179.737C96.3419 180.961 96.5339 182.32 96.0115 183.492C95.4891 184.663 94.4943 185.533 92.9578 185.533C92.977 186.949 92.9328 187.817 92.9578 189.232C95.8636 185.814 101.011 184.608 105.217 186.16C109.423 187.711 112.5 191.829 113.043 196.283C113.256 198.031 113.072 199.932 112.004 201.324C113.566 201.803 113.831 204.121 112.822 205.406C111.814 206.69 110.093 207.149 108.482 207.411C101.919 208.479 94.8246 208.02 88.3446 206.642C84.7531 205.874 81.0138 204.63 78.7072 201.774C77.334 200.076 76.5945 197.958 76.0472 195.845C74.7947 191.027 74.3821 186.029 74.8276 181.07C74.9908 179.28 75.4902 177.248 77.4645 176.741C78.4402 176.491 79.6271 176.933 79.9805 177.867C80.7984 176.998 81.7812 176.302 82.8714 175.818C83.9616 175.334 85.1374 175.073 86.3299 175.049C86.7332 173.829 87.8222 172.936 89.0494 172.621C90.3439 172.293 91.5308 172.666 92.5046 173.52Z" fill="#F7C326" stroke="black" stroke-width="0.768229" stroke-miterlimit="10" stroke-linecap="round"/>
<path d="M145.687 104.153C150.911 128.85 138.098 152.477 110.027 158.413C82.6035 164.215 60.6686 147.936 55.4504 123.24C50.2322 98.543 57.2001 74.9315 91.7493 67.6237C121.532 61.3223 140.463 79.4564 145.687 104.153Z" fill="#ED744A" stroke="black" stroke-width="0.768229" stroke-miterlimit="10"/>
<path d="M117.157 155.38C116.682 164.908 112.668 173.666 103.632 177.659C100.488 179.048 96.2088 180.795 92.7595 180.962C91.9221 181.003 91.0521 180.999 90.2935 180.644C88.3902 179.749 87.9004 176.449 90.0054 175.65C95.7325 173.466 101.005 171.876 105.241 167.232C107.848 164.376 109.004 159.698 110.043 155.962" fill="#19888F"/>
<path d="M117.157 155.38C116.682 164.908 112.668 173.666 103.632 177.659C100.488 179.048 96.2088 180.795 92.7595 180.962C91.9221 181.003 91.0521 180.999 90.2935 180.644C88.3902 179.749 87.9004 176.449 90.0054 175.65C95.7325 173.466 101.005 171.876 105.241 167.232C107.848 164.376 109.004 159.698 110.043 155.962" stroke="black" stroke-width="0.768229" stroke-miterlimit="10"/>
<path d="M155.749 100.583C160.973 125.279 148.16 148.906 120.089 154.845C92.6655 160.645 70.7307 144.368 65.5125 119.671C60.2943 94.9746 67.2621 71.3611 101.811 64.0534C131.594 57.7539 150.525 75.886 155.749 100.583Z" fill="#FFE7E2" stroke="black" stroke-width="0.768229" stroke-miterlimit="10"/>
<path d="M151.444 100.836C156.198 123.307 144.678 144.773 119.371 150.126C94.6396 155.357 74.8327 140.523 70.0793 118.052C65.3259 95.5814 71.5774 74.1171 102.729 67.5276C129.583 61.8485 146.691 78.3654 151.444 100.836Z" stroke="black" stroke-width="0.768229" stroke-miterlimit="10"/>
<path d="M59.5218 120.063C59.5218 120.063 44.2052 122.796 42.2021 137.732C40.8692 147.677 43.8519 153.971 45.9933 157.067C46.4496 157.723 47.1448 158.175 47.9301 158.326C48.7154 158.477 49.5285 158.314 50.1955 157.873C50.8376 157.449 51.2971 156.799 51.4831 156.052C51.6691 155.305 51.568 154.516 51.2 153.84C49.3082 150.406 47.6316 144.291 48.976 137.707C50.91 128.237 60.4994 127.336 60.4994 127.336" fill="#19888F"/>
<path d="M59.5218 120.063C59.5218 120.063 44.2052 122.796 42.2021 137.732C40.8692 147.677 43.8519 153.971 45.9933 157.067C46.4496 157.723 47.1448 158.175 47.9301 158.326C48.7154 158.477 49.5285 158.314 50.1955 157.873C50.8376 157.449 51.2971 156.799 51.4831 156.052C51.6691 155.305 51.568 154.516 51.2 153.84C49.3082 150.406 47.6316 144.291 48.976 137.707C50.91 128.237 60.4994 127.336 60.4994 127.336" stroke="black" stroke-width="0.768229" stroke-miterlimit="10"/>
<path d="M132.5 179.165C132.733 179.948 132.675 180.893 132.613 181.892C133.652 181.731 136.904 181.798 137.643 181.108C138.12 180.665 138.254 178.518 138.446 177.751C139.226 174.613 140.259 172.088 142.76 169.877C145.224 167.701 148.097 166.852 151.245 166.228C154.936 165.504 158.946 165.97 162.204 167.924C164.7 169.416 166.529 172.266 166.141 175.143C166.759 174.859 167.531 175.095 168.008 175.583C170.768 178.408 165.549 184.725 163.59 186.722C159.202 191.194 154.203 195.021 148.74 198.09C144.131 200.685 137.232 204.697 131.674 203.737C130.311 203.502 128.962 202.653 128.538 201.338C128.415 200.954 128.371 200.548 128.19 200.186C127.923 199.652 127.393 199.308 126.919 198.945C125.792 198.076 124.867 196.972 124.209 195.711C123.537 194.426 122.596 192.369 122.452 190.94C122.455 190.787 122.408 190.637 122.317 190.514C122.233 190.44 122.13 190.389 122.02 190.368C121.604 190.257 121.196 190.116 120.8 189.947C120.126 189.633 119.538 189.162 119.086 188.572C118.634 187.982 118.331 187.291 118.203 186.559C117.552 182.605 122.844 179.618 125.809 178.137C127.224 177.431 128.845 176.906 130.376 177.306C131.663 177.659 132.25 178.318 132.5 179.165Z" fill="#F7C326" stroke="black" stroke-width="0.768229" stroke-miterlimit="10"/>
<path d="M104.548 155.427C113.382 162.709 120.807 171.202 126.523 180.569L126.809 181.039C127.066 181.321 127.262 181.654 127.384 182.016C127.506 182.378 127.551 182.761 127.517 183.141C127.482 183.521 127.369 183.89 127.185 184.224C127 184.558 126.748 184.851 126.444 185.082L126.369 185.142C124.868 186.319 122.528 186.133 121.295 184.746C115.039 175.269 107.521 166.688 98.9494 159.239L89.8843 152.307C89.8843 152.307 100.599 155.427 104.548 155.427Z" fill="#19888F" stroke="black" stroke-width="0.768229" stroke-miterlimit="10"/>
<path d="M128.488 200.13C130.891 200.466 133.557 199.926 135.907 199.398C139.082 198.687 142.305 197.575 145.115 195.929C147.195 194.712 149.254 193.454 151.261 192.106C155.814 189.033 160.287 185.458 163.395 180.874C164.606 179.128 165.53 177.2 166.132 175.162" fill="#F7C326"/>
<path d="M128.488 200.13C130.891 200.466 133.557 199.926 135.907 199.398C139.082 198.687 142.305 197.575 145.115 195.929C147.195 194.712 149.254 193.454 151.261 192.106C155.814 189.033 160.287 185.458 163.395 180.874C164.606 179.128 165.53 177.2 166.132 175.162" stroke="black" stroke-width="0.768229" stroke-miterlimit="10" stroke-linecap="round"/>
<path d="M112.523 200.827C112.406 201.157 112.043 201.319 111.716 201.445C108.161 202.811 104.731 203.598 100.898 203.631C95.5084 203.675 89.9503 203.41 85.0663 201.134C84.106 200.687 83.1649 200.151 82.4562 199.365C81.7898 198.628 81.3615 197.706 81.0158 196.774C79.8865 193.719 79.5639 190.437 79.4928 187.21C79.4275 184.22 79.2239 180.78 79.898 177.855" stroke="black" stroke-width="0.768229" stroke-miterlimit="10"/>
<path d="M86.7458 175.279C86.1492 176.443 85.8628 177.741 85.9142 179.048C85.604 177.71 85.6444 176.315 86.0314 174.997L86.7458 175.279Z" fill="black"/>
<path d="M89.5601 183.743C90.4634 184.552 91.6041 185.045 92.8116 185.151L92.6656 185.906C91.424 185.54 90.3345 184.781 89.5601 183.743Z" fill="black"/>
<path d="M93.2711 189.403C92.8264 189.901 92.42 190.432 92.0553 190.992C91.7134 191.573 91.4365 192.19 91.2295 192.832C91.3155 192.147 91.4765 191.474 91.7096 190.825C91.9722 190.18 92.2849 189.557 92.645 188.962L93.2711 189.403Z" fill="black"/>
<path d="M122.279 190.091C124.029 190.192 125.77 189.785 127.295 188.921C125.847 190.035 124.109 190.708 122.288 190.859L122.279 190.091Z" fill="black"/>
<path d="M131.329 184.483C131.776 183.682 132.045 182.795 132.118 181.88L132.867 182.049C132.534 182.961 132.009 183.791 131.329 184.483Z" fill="black"/>
<path d="M137.807 184.83C137.489 183.571 137.374 182.269 137.465 180.974L138.222 181.103C137.886 182.315 137.746 183.574 137.807 184.83Z" fill="black"/>
<path d="M156.102 121.217L165.488 119.297C169.102 118.555 172.775 118.091 176.456 118.45C181.233 118.915 187.482 119.819 187.171 125.873C187.083 127.58 186.073 129.522 185.554 131.16C185.474 131.37 185.432 131.592 185.429 131.817C185.481 132.969 187.678 133.676 188.502 134.183C189.816 134.994 190.786 134.705 191.504 133.223C192.257 131.686 193.01 130.133 193.511 128.492C194.323 125.829 194.542 122.658 193.138 120.176C190.814 116.078 186.094 113.575 181.65 112.508C175.963 111.142 169.934 111.603 164.213 112.552C161.071 113.074 159.148 113.427 157.299 113.896H156.914C156.897 113.896 156.192 120.534 156.102 121.217Z" fill="#19888F" stroke="black" stroke-width="0.768229" stroke-miterlimit="10"/>
<path d="M184.923 129.508C184.256 129.416 183.53 129.424 182.969 129.796C182.046 130.411 181.946 131.742 182.188 132.825C182.881 135.919 188.414 141.349 191.214 137.191C193.485 133.822 187.658 129.885 184.923 129.508Z" fill="#FFFEFD" stroke="black" stroke-width="0.768229" stroke-miterlimit="10"/>
<path d="M176.623 131.398C172.884 131.625 169.225 133.2 166.871 136.096C164.516 138.992 163.483 143.648 167.151 145.829C168.206 146.457 169.596 146.669 170.65 146.041C172.104 148.512 175.892 149.187 178.11 147.368C179.45 148.583 181.128 149.36 182.921 149.598C184.164 149.757 185.554 149.598 186.438 148.712C186.63 148.534 186.777 148.313 186.866 148.067C186.955 147.82 186.983 147.556 186.948 147.297C186.916 146.786 186.372 146.071 186.549 145.568C186.705 145.153 187.396 144.946 187.738 144.694C188.885 143.856 189.695 142.636 190.021 141.253C190.347 139.87 190.168 138.416 189.516 137.154C188.435 135.059 186.28 133.849 184.229 132.873C181.858 131.751 179.242 131.244 176.623 131.398Z" fill="#FFFEFD" stroke="black" stroke-width="0.768229" stroke-miterlimit="10"/>
<path d="M178.175 147.85C177.872 147.281 177.703 146.651 177.679 146.007C177.656 145.364 177.778 144.723 178.039 144.134C178.279 143.601 178.632 143.126 179.074 142.743" stroke="black" stroke-width="0.768229" stroke-miterlimit="10"/>
<path d="M170.549 145.76C170.488 144.804 170.666 143.847 171.065 142.976C171.465 142.104 172.074 141.345 172.838 140.767" stroke="black" stroke-width="0.768229" stroke-miterlimit="10"/>
<path d="M183.801 145.778C185.913 145.778 185.721 145.393 186.874 145.201" stroke="black" stroke-width="0.768229" stroke-miterlimit="10"/>
<path d="M109.055 81.3462C110.509 80.3433 112.254 79.8502 114.018 79.9442C114.203 79.9563 114.387 79.9172 114.551 79.8312C114.715 79.7453 114.852 79.6158 114.947 79.4569C115.042 79.2981 115.092 79.1161 115.09 78.931C115.089 78.7459 115.036 78.5648 114.938 78.4077L109.56 69.7786C109.446 69.5955 109.275 69.4543 109.074 69.376C108.872 69.2976 108.651 69.2863 108.443 69.3437C108.234 69.401 108.05 69.524 107.917 69.6944C107.784 69.8648 107.71 70.0735 107.705 70.2895L107.502 80.4896C107.499 80.6719 107.546 80.8516 107.637 81.0093C107.729 81.1671 107.861 81.2969 108.021 81.3849C108.181 81.473 108.361 81.5159 108.544 81.5091C108.726 81.5022 108.903 81.4459 109.055 81.3462Z" fill="#B9432C" stroke="black" stroke-width="0.768229" stroke-miterlimit="10"/>
<path d="M129.316 134.072C130.905 134.655 132.642 134.696 134.256 134.187C134.424 134.131 134.604 134.123 134.777 134.163C134.949 134.203 135.107 134.29 135.233 134.415C135.359 134.539 135.448 134.696 135.491 134.868C135.533 135.04 135.527 135.22 135.474 135.389L132.537 144.681C132.475 144.879 132.351 145.051 132.182 145.172C132.014 145.293 131.811 145.357 131.604 145.353C131.397 145.349 131.196 145.279 131.033 145.152C130.869 145.025 130.75 144.848 130.695 144.648L128.07 135.237C128.022 135.068 128.022 134.888 128.069 134.718C128.116 134.549 128.209 134.395 128.338 134.275C128.467 134.154 128.626 134.072 128.799 134.036C128.971 134 129.15 134.012 129.316 134.072Z" fill="#8C7BC7" stroke="black" stroke-width="0.768229" stroke-miterlimit="10"/>
<path d="M133.491 101.196C138.046 99.3339 139.678 92.7853 137.136 86.5696C134.594 80.3538 128.842 76.8247 124.287 78.6871C119.733 80.5495 118.101 87.0981 120.643 93.3139C123.184 99.5296 128.937 103.059 133.491 101.196Z" fill="white" stroke="black" stroke-width="0.768229" stroke-miterlimit="10"/>
<path d="M132.769 88.1603L136.261 88.2045C137.918 91.9573 136.837 95.9828 134.185 96.7318C131.269 97.5519 127.745 95.4816 126.038 91.3542C124.33 87.2269 125.212 82.9517 128.004 81.7955C130.294 80.8487 133.311 82.8327 135.208 85.6578L132.769 88.1603Z" fill="black"/>
<path d="M111.296 111.771C116.549 109.623 118.471 102.17 115.59 95.1234C112.709 88.0771 106.115 84.1061 100.862 86.2539C95.6096 88.4017 93.6873 95.8551 96.5686 102.901C99.4499 109.948 106.044 113.919 111.296 111.771Z" fill="white" stroke="black" stroke-width="0.768229" stroke-miterlimit="10"/>
<path d="M110.223 96.8029L114.22 96.8528C116.114 101.145 114.885 105.753 111.842 106.607C108.508 107.545 104.477 105.177 102.524 100.462C100.571 95.7466 101.579 90.8587 104.773 89.5297C107.392 88.4446 110.844 90.7147 113.016 93.947L110.223 96.8029Z" fill="black"/>
<path d="M122.895 107.46C123.257 108.215 123.794 108.874 124.46 109.381C124.875 109.68 125.327 109.923 125.805 110.105C128.446 111.036 131.296 109.558 132.173 106.803C133.051 104.049 131.624 101.063 128.983 100.131C128.359 99.9099 127.696 99.8195 127.035 99.8658C126.374 99.912 125.73 100.094 125.142 100.4C124.561 100.729 124.052 101.17 123.644 101.699C123.189 102.25 122.831 102.874 122.584 103.544" fill="#FFDE72"/>
<path d="M122.895 107.46C123.257 108.215 123.794 108.874 124.46 109.381C124.875 109.68 125.327 109.923 125.805 110.105C128.446 111.036 131.296 109.558 132.173 106.803C133.051 104.049 131.624 101.063 128.983 100.131C128.359 99.9099 127.696 99.8195 127.035 99.8658C126.374 99.912 125.73 100.094 125.142 100.4C124.561 100.729 124.052 101.17 123.644 101.699C123.189 102.25 122.831 102.874 122.584 103.544" stroke="black" stroke-width="0.768229" stroke-miterlimit="10" stroke-linecap="round"/>
<path d="M127.779 101.257C128.518 101.577 129.167 102.072 129.671 102.699C130.175 103.327 130.519 104.068 130.672 104.858" stroke="white" stroke-width="0.960286" stroke-miterlimit="10" stroke-linecap="round"/>
<path d="M90.3654 67.7081C90.3654 67.7081 93.8224 65.8548 96.3518 65.5705C96.3518 65.5705 96.4133 63.3792 95.4184 62.9605C94.4236 62.5418 90.0792 64.2473 89.4339 65.0962C88.7886 65.945 90.3654 67.7081 90.3654 67.7081Z" fill="#F7C326" stroke="black" stroke-width="0.768229" stroke-miterlimit="10"/>
<path d="M88.3127 52.2879C85.7276 53.2117 84.5618 56.5689 85.7103 59.7781C86.8588 62.9874 89.8856 64.8561 92.4726 63.9323C95.0596 63.0085 96.2235 59.6533 95.075 56.4421C93.9265 53.2309 90.8997 51.3641 88.3127 52.2879ZM91.9099 62.3632C90.0489 63.0277 87.8767 61.6872 87.0412 59.3729C86.2058 57.0586 87.0528 54.6387 88.9157 53.9742C90.7787 53.3096 92.9489 54.6483 93.7844 56.9664C94.6198 59.2845 93.7729 61.6987 91.9099 62.3632Z" fill="#F7C326" stroke="black" stroke-width="0.768229" stroke-miterlimit="10"/>
<path d="M134.346 126.764C136.415 126.764 138.091 125.087 138.091 123.019C138.091 120.95 136.415 119.274 134.346 119.274C132.278 119.274 130.601 120.95 130.601 123.019C130.601 125.087 132.278 126.764 134.346 126.764Z" fill="black"/>
<path d="M118.901 110.746C123.554 107.241 130.253 109.727 131.803 115.342C132.193 116.665 132.313 118.052 132.155 119.422C130.947 128.821 115.703 136.046 106.359 131.049C101.881 128.654 99.9063 124.064 99.1035 121.669C99.8902 122.532 100.89 123.173 102.004 123.528C106.398 124.872 110.589 121.031 113.231 118.041C115.123 115.893 116.202 113.105 118.386 111.169C118.547 111.015 118.72 110.883 118.901 110.746Z" fill="#474747" stroke="black" stroke-width="0.960286" stroke-miterlimit="10"/>
<path d="M136.499 105.013C132.01 105.298 129.331 110.12 131.244 114.192C131.68 115.163 132.306 116.036 133.086 116.76C138.517 121.665 151.086 118.242 154.055 110.614C155.478 106.965 154.329 103.277 153.596 101.468C153.569 102.37 153.304 103.25 152.828 104.017C150.93 107.015 146.543 106.871 143.488 106.438C141.298 106.131 139.263 105.038 137.012 105C136.846 105 136.676 105.004 136.499 105.013Z" fill="#474747" stroke="black" stroke-width="0.960286" stroke-miterlimit="10"/>
<path d="M161.714 82.2066C163.199 82.2066 164.403 81.0028 164.403 79.5178C164.403 78.0328 163.199 76.829 161.714 76.829C160.229 76.829 159.025 78.0328 159.025 79.5178C159.025 81.0028 160.229 82.2066 161.714 82.2066Z" fill="black"/>
<path d="M163.25 80.286C164.979 78.1734 164.595 68.1864 164.595 68.1864C164.614 69.1851 165.261 69.6844 166.047 70.299C166.832 70.9136 167.722 71.4687 168.209 72.3406C168.763 73.3335 168.686 74.555 168.448 75.6651" stroke="black" stroke-width="1.15234" stroke-miterlimit="10" stroke-linecap="round"/>
</svg>
