<svg width="69" height="84" viewBox="0 0 69 84" fill="none" xmlns="http://www.w3.org/2000/svg">
<path d="M36.7451 39.0925C7.49578 39.0925 4.78219 67.4239 5.01234 71.7584C5.21715 75.6214 5.44559 79.1637 9.1953 80.1488C13.341 81.1072 27.8865 82 36.287 82C44.2086 82 57.827 81.383 63.4633 80.1488C67.7339 79.0039 67.1365 75.539 67.0707 71.619C67.005 67.1747 63.8075 39.0925 36.7451 39.0925Z" fill="#272727" stroke="#272727" stroke-width="3.1644" stroke-linejoin="round"/>
<path d="M33.6326 5.14963C38.6243 4.51965 43.6621 5.89494 47.6412 8.9739C51.6204 12.0529 54.2162 16.5842 54.8593 21.5742C55.5024 26.5642 54.1403 31.6056 51.0719 35.5929C48.0034 39.5801 43.4789 42.1878 38.4906 42.844C33.5023 43.5002 28.4573 42.1515 24.462 39.0935C20.4667 36.0355 17.8471 31.5179 17.1778 26.5314C16.5084 21.5448 17.8439 16.4963 20.8914 12.493C23.9388 8.48963 28.4495 5.8582 33.4343 5.17572" fill="#272727"/>
<path d="M33.6326 5.14963C38.6243 4.51965 43.6621 5.89494 47.6412 8.9739C51.6204 12.0529 54.2162 16.5842 54.8593 21.5742C55.5024 26.5642 54.1403 31.6056 51.0719 35.5929C48.0034 39.5801 43.4789 42.1878 38.4906 42.844C33.5023 43.5002 28.4573 42.1515 24.462 39.0935C20.4667 36.0355 17.8471 31.5179 17.1778 26.5314C16.5084 21.5448 17.8439 16.4963 20.8914 12.493C23.9388 8.48963 28.4495 5.8582 33.4343 5.17572" stroke="#272727" stroke-width="3.1644" stroke-linecap="round" stroke-linejoin="round"/>
<path d="M33.7451 36.0925C4.49578 36.0925 1.78219 64.4239 2.01234 68.7584C2.21715 72.6214 2.44559 76.1637 6.1953 77.1488C10.341 78.1072 24.8865 79.0001 33.287 79.0001C41.2086 79.0001 54.827 78.383 60.4633 77.1488C64.7339 76.0039 64.1365 72.539 64.0707 68.619C64.005 64.1747 60.8075 36.0925 33.7451 36.0925Z" fill="#F7C326" stroke="#272727" stroke-width="3.1644" stroke-linejoin="round"/>
<path d="M30.6326 2.14963C35.6243 1.51965 40.6621 2.89494 44.6412 5.9739C48.6204 9.05286 51.2162 13.5842 51.8593 18.5742C52.5024 23.5642 51.1403 28.6056 48.0719 32.5929C45.0034 36.5801 40.4789 39.1878 35.4906 39.844C30.5023 40.5002 25.4573 39.1515 21.462 36.0935C17.4667 33.0355 14.8471 28.5179 14.1778 23.5314C13.5084 18.5448 14.8439 13.4963 17.8914 9.49298C20.9388 5.48963 25.4495 2.8582 30.4343 2.17572" fill="#F7C326"/>
<path d="M30.6326 2.14963C35.6243 1.51965 40.6621 2.89494 44.6412 5.9739C48.6204 9.05286 51.2162 13.5842 51.8593 18.5742C52.5024 23.5642 51.1403 28.6056 48.0719 32.5929C45.0034 36.5801 40.4789 39.1878 35.4906 39.844C30.5023 40.5002 25.4573 39.1515 21.462 36.0935C17.4667 33.0355 14.8471 28.5179 14.1778 23.5314C13.5084 18.5448 14.8439 13.4963 17.8914 9.49298C20.9388 5.48963 25.4495 2.8582 30.4343 2.17572" stroke="#272727" stroke-width="3.1644" stroke-linecap="round" stroke-linejoin="round"/>
</svg>
