<svg width="118" height="113" viewBox="0 0 118 113" fill="none" xmlns="http://www.w3.org/2000/svg">
<path d="M80.2189 77.64C62.511 77.64 60.8681 94.7923 61.0075 97.4164C61.1315 99.7551 61.2698 101.9 63.5399 102.496C66.0497 103.076 74.8558 103.617 79.9416 103.617C84.7374 103.617 92.9822 103.243 96.3945 102.496C98.9799 101.803 98.6182 99.7052 98.5784 97.332C98.5386 94.6413 96.6028 77.64 80.2189 77.64Z" fill="#272727" stroke="#272727" stroke-width="1.91577" stroke-linejoin="round"/>
<path d="M78.3345 57.0906C81.3565 56.7092 84.4065 57.5418 86.8155 59.4058C89.2246 61.2699 90.7961 64.0132 91.1854 67.0342C91.5748 70.0552 90.7502 73.1074 88.8925 75.5213C87.0348 77.9352 84.2956 79.514 81.2756 79.9112C78.2556 80.3085 75.2014 79.492 72.7825 77.6406C70.3637 75.7893 68.7778 73.0543 68.3726 70.0354C67.9673 67.0164 68.7759 63.96 70.6208 61.5363C72.4658 59.1127 75.1966 57.5196 78.2145 57.1064" fill="#272727"/>
<path d="M78.3345 57.0906C81.3565 56.7092 84.4065 57.5418 86.8155 59.4058C89.2246 61.2699 90.7961 64.0132 91.1854 67.0342C91.5748 70.0552 90.7502 73.1074 88.8925 75.5213C87.0348 77.9352 84.2956 79.514 81.2756 79.9112C78.2556 80.3085 75.2014 79.492 72.7825 77.6406C70.3637 75.7893 68.7778 73.0543 68.3726 70.0354C67.9673 67.0164 68.7759 63.96 70.6208 61.5363C72.4658 59.1127 75.1966 57.5196 78.2145 57.1064" stroke="#272727" stroke-width="1.91577" stroke-linecap="round" stroke-linejoin="round"/>
<path d="M98.2189 85.64C80.511 85.64 78.8681 102.792 79.0075 105.416C79.1315 107.755 79.2698 109.9 81.5399 110.496C84.0497 111.076 92.8558 111.617 97.9416 111.617C102.737 111.617 110.982 111.243 114.394 110.496C116.98 109.803 116.618 107.705 116.578 105.332C116.539 102.641 114.603 85.64 98.2189 85.64Z" fill="#272727" stroke="#272727" stroke-width="1.91577" stroke-linejoin="round"/>
<path d="M96.3345 65.0906C99.3565 64.7092 102.406 65.5418 104.816 67.4058C107.225 69.2699 108.796 72.0132 109.185 75.0342C109.575 78.0552 108.75 81.1074 106.892 83.5213C105.035 85.9352 102.296 87.514 99.2756 87.9112C96.2556 88.3085 93.2014 87.492 90.7825 85.6406C88.3637 83.7893 86.7778 81.0543 86.3726 78.0354C85.9673 75.0164 86.7759 71.96 88.6208 69.5363C90.4658 67.1127 93.1966 65.5196 96.2145 65.1064" fill="#272727"/>
<path d="M96.3345 65.0906C99.3565 64.7092 102.406 65.5418 104.816 67.4058C107.225 69.2699 108.796 72.0132 109.185 75.0342C109.575 78.0552 108.75 81.1074 106.892 83.5213C105.035 85.9352 102.296 87.514 99.2756 87.9112C96.2556 88.3085 93.2014 87.492 90.7825 85.6406C88.3637 83.7893 86.7778 81.0543 86.3726 78.0354C85.9673 75.0164 86.7759 71.96 88.6208 69.5363C90.4658 67.1127 93.1966 65.5196 96.2145 65.1064" stroke="#272727" stroke-width="1.91577" stroke-linecap="round" stroke-linejoin="round"/>
<path d="M78.2189 75.64C60.511 75.64 58.8681 92.7923 59.0075 95.4164C59.1315 97.7551 59.2698 99.8997 61.5399 100.496C64.0497 101.076 72.8558 101.617 77.9416 101.617C82.7374 101.617 90.9822 101.243 94.3945 100.496C96.9799 99.8029 96.6182 97.7052 96.5784 95.332C96.5386 92.6413 94.6028 75.64 78.2189 75.64Z" fill="#F7C326" stroke="#272727" stroke-width="1.91577" stroke-linejoin="round"/>
<path d="M76.3345 55.0906C79.3565 54.7092 82.4065 55.5418 84.8155 57.4058C87.2246 59.2699 88.7961 62.0132 89.1854 65.0342C89.5748 68.0552 88.7502 71.1074 86.8925 73.5213C85.0348 75.9352 82.2956 77.514 79.2756 77.9112C76.2556 78.3085 73.2014 77.492 70.7825 75.6406C68.3637 73.7893 66.7778 71.0543 66.3726 68.0354C65.9673 65.0164 66.7759 61.96 68.6208 59.5363C70.4658 57.1127 73.1966 55.5196 76.2145 55.1064" fill="#F7C326"/>
<path d="M76.3345 55.0906C79.3565 54.7092 82.4065 55.5418 84.8155 57.4058C87.2246 59.2699 88.7961 62.0132 89.1854 65.0342C89.5748 68.0552 88.7502 71.1074 86.8925 73.5213C85.0348 75.9352 82.2956 77.514 79.2756 77.9112C76.2556 78.3085 73.2014 77.492 70.7825 75.6406C68.3637 73.7893 66.7778 71.0543 66.3726 68.0354C65.9673 65.0164 66.7759 61.96 68.6208 59.5363C70.4658 57.1127 73.1966 55.5196 76.2145 55.1064" stroke="#272727" stroke-width="1.91577" stroke-linecap="round" stroke-linejoin="round"/>
<path d="M96.2189 83.64C78.511 83.64 76.8681 100.792 77.0075 103.416C77.1315 105.755 77.2698 107.9 79.5399 108.496C82.0497 109.076 90.8558 109.617 95.9416 109.617C100.737 109.617 108.982 109.243 112.394 108.496C114.98 107.803 114.618 105.705 114.578 103.332C114.539 100.641 112.603 83.64 96.2189 83.64Z" fill="#9882E3" stroke="#272727" stroke-width="1.91577" stroke-linejoin="round"/>
<path d="M94.3345 63.0906C97.3565 62.7092 100.406 63.5418 102.816 65.4058C105.225 67.2699 106.796 70.0132 107.185 73.0342C107.575 76.0552 106.75 79.1074 104.892 81.5213C103.035 83.9352 100.296 85.514 97.2756 85.9112C94.2556 86.3085 91.2014 85.492 88.7825 83.6406C86.3637 81.7893 84.7778 79.0543 84.3726 76.0354C83.9673 73.0164 84.7759 69.96 86.6208 67.5363C88.4658 65.1127 91.1966 63.5196 94.2145 63.1064" fill="#9882E3"/>
<path d="M94.3345 63.0906C97.3565 62.7092 100.406 63.5418 102.816 65.4058C105.225 67.2699 106.796 70.0132 107.185 73.0342C107.575 76.0552 106.75 79.1074 104.892 81.5213C103.035 83.9352 100.296 85.514 97.2756 85.9112C94.2556 86.3085 91.2014 85.492 88.7825 83.6406C86.3637 81.7893 84.7778 79.0543 84.3726 76.0354C83.9673 73.0164 84.7759 69.96 86.6208 67.5363C88.4658 65.1127 91.1966 63.5196 94.2145 63.1064" stroke="#272727" stroke-width="1.91577" stroke-linecap="round" stroke-linejoin="round"/>
<path d="M22.2189 33.64C4.51098 33.64 2.86814 50.7923 3.00747 53.4164C3.13146 55.7551 3.26977 57.8997 5.53989 58.496C8.04973 59.0763 16.8558 59.6168 21.9416 59.6168C26.7374 59.6168 34.9822 59.2432 38.3945 58.496C40.9799 57.8029 40.6182 55.7052 40.5784 53.332C40.5386 50.6413 38.6028 33.64 22.2189 33.64Z" fill="#272727" stroke="#272727" stroke-width="1.91577" stroke-linejoin="round"/>
<path d="M20.3345 13.0906C23.3565 12.7092 26.4065 13.5418 28.8155 15.4058C31.2246 17.2699 32.7961 20.0132 33.1854 23.0342C33.5748 26.0552 32.7502 29.1074 30.8925 31.5213C29.0348 33.9352 26.2956 35.514 23.2756 35.9112C20.2556 36.3085 17.2014 35.492 14.7825 33.6406C12.3637 31.7893 10.7778 29.0543 10.3726 26.0354C9.96734 23.0164 10.7759 19.96 12.6208 17.5363C14.4658 15.1127 17.1966 13.5196 20.2145 13.1064" fill="#272727"/>
<path d="M20.3345 13.0906C23.3565 12.7092 26.4065 13.5418 28.8155 15.4058C31.2246 17.2699 32.7961 20.0132 33.1854 23.0342C33.5748 26.0552 32.7502 29.1074 30.8925 31.5213C29.0348 33.9352 26.2956 35.514 23.2756 35.9112C20.2556 36.3085 17.2014 35.492 14.7825 33.6406C12.3637 31.7893 10.7778 29.0543 10.3726 26.0354C9.96734 23.0164 10.7759 19.96 12.6208 17.5363C14.4658 15.1127 17.1966 13.5196 20.2145 13.1064" stroke="#272727" stroke-width="1.91577" stroke-linecap="round" stroke-linejoin="round"/>
<path d="M40.2189 41.64C22.511 41.64 20.8681 58.7923 21.0075 61.4164C21.1315 63.7551 21.2698 65.8997 23.5399 66.496C26.0497 67.0763 34.8558 67.6168 39.9416 67.6168C44.7374 67.6168 52.9822 67.2432 56.3945 66.496C58.9799 65.8029 58.6182 63.7052 58.5784 61.332C58.5386 58.6413 56.6028 41.64 40.2189 41.64Z" fill="#272727" stroke="#272727" stroke-width="1.91577" stroke-linejoin="round"/>
<path d="M38.3345 21.0906C41.3565 20.7092 44.4065 21.5418 46.8155 23.4058C49.2246 25.2699 50.7961 28.0132 51.1854 31.0342C51.5748 34.0552 50.7502 37.1074 48.8925 39.5213C47.0348 41.9352 44.2956 43.514 41.2756 43.9112C38.2556 44.3085 35.2014 43.492 32.7825 41.6406C30.3637 39.7893 28.7778 37.0543 28.3726 34.0354C27.9673 31.0164 28.7759 27.96 30.6208 25.5363C32.4658 23.1127 35.1966 21.5196 38.2145 21.1064" fill="#272727"/>
<path d="M38.3345 21.0906C41.3565 20.7092 44.4065 21.5418 46.8155 23.4058C49.2246 25.2699 50.7961 28.0132 51.1854 31.0342C51.5748 34.0552 50.7502 37.1074 48.8925 39.5213C47.0348 41.9352 44.2956 43.514 41.2756 43.9112C38.2556 44.3085 35.2014 43.492 32.7825 41.6406C30.3637 39.7893 28.7778 37.0543 28.3726 34.0354C27.9673 31.0164 28.7759 27.96 30.6208 25.5363C32.4658 23.1127 35.1966 21.5196 38.2145 21.1064" stroke="#272727" stroke-width="1.91577" stroke-linecap="round" stroke-linejoin="round"/>
<path d="M20.2189 31.64C2.51098 31.64 0.868137 48.7923 1.00747 51.4164C1.13146 53.7551 1.26977 55.8997 3.53989 56.496C6.04973 57.0763 14.8558 57.6168 19.9416 57.6168C24.7374 57.6168 32.9822 57.2432 36.3945 56.496C38.9799 55.8029 38.6182 53.7052 38.5784 51.332C38.5386 48.6413 36.6028 31.64 20.2189 31.64Z" fill="#F7C326" stroke="#272727" stroke-width="1.91577" stroke-linejoin="round"/>
<path d="M18.3345 11.0906C21.3565 10.7092 24.4065 11.5418 26.8155 13.4058C29.2246 15.2699 30.7961 18.0132 31.1854 21.0342C31.5748 24.0552 30.7502 27.1074 28.8925 29.5213C27.0348 31.9352 24.2956 33.514 21.2756 33.9112C18.2556 34.3085 15.2014 33.492 12.7825 31.6406C10.3637 29.7893 8.77781 27.0543 8.37258 24.0354C7.96734 21.0164 8.77586 17.96 10.6208 15.5363C12.4658 13.1127 15.1966 11.5196 18.2145 11.1064" fill="#F7C326"/>
<path d="M18.3345 11.0906C21.3565 10.7092 24.4065 11.5418 26.8155 13.4058C29.2246 15.2699 30.7961 18.0132 31.1854 21.0342C31.5748 24.0552 30.7502 27.1074 28.8925 29.5213C27.0348 31.9352 24.2956 33.514 21.2756 33.9112C18.2556 34.3085 15.2014 33.492 12.7825 31.6406C10.3637 29.7893 8.77781 27.0543 8.37258 24.0354C7.96734 21.0164 8.77586 17.96 10.6208 15.5363C12.4658 13.1127 15.1966 11.5196 18.2145 11.1064" stroke="#272727" stroke-width="1.91577" stroke-linecap="round" stroke-linejoin="round"/>
<path d="M38.2189 39.64C20.511 39.64 18.8681 56.7923 19.0075 59.4164C19.1315 61.7551 19.2698 63.8997 21.5399 64.496C24.0497 65.0763 32.8558 65.6168 37.9416 65.6168C42.7374 65.6168 50.9822 65.2432 54.3945 64.496C56.9799 63.8029 56.6182 61.7052 56.5784 59.332C56.5386 56.6413 54.6028 39.64 38.2189 39.64Z" fill="#9882E3" stroke="#272727" stroke-width="1.91577" stroke-linejoin="round"/>
<path d="M36.3345 19.0906C39.3565 18.7092 42.4065 19.5418 44.8155 21.4058C47.2246 23.2699 48.7961 26.0132 49.1854 29.0342C49.5748 32.0552 48.7502 35.1074 46.8925 37.5213C45.0348 39.9352 42.2956 41.514 39.2756 41.9112C36.2556 42.3085 33.2014 41.492 30.7825 39.6406C28.3637 37.7893 26.7778 35.0543 26.3726 32.0354C25.9673 29.0164 26.7759 25.96 28.6208 23.5363C30.4658 21.1127 33.1966 19.5196 36.2145 19.1064" fill="#9882E3"/>
<path d="M36.3345 19.0906C39.3565 18.7092 42.4065 19.5418 44.8155 21.4058C47.2246 23.2699 48.7961 26.0132 49.1854 29.0342C49.5748 32.0552 48.7502 35.1074 46.8925 37.5213C45.0348 39.9352 42.2956 41.514 39.2756 41.9112C36.2556 42.3085 33.2014 41.492 30.7825 39.6406C28.3637 37.7893 26.7778 35.0543 26.3726 32.0354C25.9673 29.0164 26.7759 25.96 28.6208 23.5363C30.4658 21.1127 33.1966 19.5196 36.2145 19.1064" stroke="#272727" stroke-width="1.91577" stroke-linecap="round" stroke-linejoin="round"/>
<path d="M60.0597 19.6131C72.3537 14.9381 85.5938 20.9004 89.8066 36.7703" stroke="#272727" stroke-width="3" stroke-linecap="round"/>
<path d="M95.011 30.0323L90.9218 39.5993L80.2017 37.2906" stroke="#272727" stroke-width="3" stroke-linecap="round" stroke-linejoin="round"/>
<path d="M98.9789 11.48C99.2456 10.84 99.3789 10.3066 99.3789 9.87997C99.3789 9.21331 99.1789 8.69331 98.7789 8.31997C98.4056 7.94664 97.8722 7.75997 97.1789 7.75997H92.9389V2.67997C92.9389 1.93331 92.7256 1.34664 92.2989 0.919975C91.8989 0.493309 91.3256 0.279976 90.5789 0.279976C89.8856 0.279976 89.3122 0.413307 88.8589 0.679974V7.75997H83.0189C82.7522 8.39997 82.6189 8.93331 82.6189 9.35997C82.6189 10.0266 82.8056 10.5466 83.1789 10.92C83.5789 11.2933 84.1256 11.48 84.8189 11.48H88.8589V16.2C88.8589 16.9733 89.0589 17.56 89.4589 17.96C89.8589 18.3866 90.4322 18.6 91.1789 18.6C91.8989 18.6 92.4856 18.4666 92.9389 18.2V11.48H98.9789Z" fill="#272727"/>
</svg>
