<svg width="110" height="106" viewBox="0 0 110 106" fill="none" xmlns="http://www.w3.org/2000/svg">
<path d="M56.0961 38.615C34.9778 38.615 33.0185 59.0706 33.1847 62.2001C33.3326 64.9893 33.4975 67.5468 36.2048 68.2581C39.198 68.95 49.7 69.5947 55.7653 69.5947C61.4847 69.5947 71.3174 69.1492 75.3869 68.2581C78.4702 67.4315 78.0389 64.9297 77.9915 62.0995C77.944 58.8906 75.6353 38.615 56.0961 38.615Z" fill="#272727" stroke="#272727" stroke-width="2.51164" stroke-linejoin="round"/>
<path d="M53.8487 14.108C57.4528 13.6532 61.0901 14.6461 63.9631 16.8692C66.8361 19.0922 68.7103 22.3639 69.1746 25.9667C69.6389 29.5696 68.6555 33.2095 66.4401 36.0883C64.2246 38.9672 60.9579 40.8499 57.3563 41.3237C53.7547 41.7976 50.1121 40.8237 47.2275 38.6158C44.3428 36.4079 42.4515 33.1462 41.9682 29.5458C41.4849 25.9455 42.4491 22.3004 44.6494 19.41C46.8497 16.5195 50.1065 14.6196 53.7056 14.1269" fill="#272727"/>
<path d="M53.8487 14.108C57.4528 13.6532 61.0901 14.6461 63.9631 16.8692C66.8361 19.0922 68.7103 22.3639 69.1746 25.9667C69.6389 29.5696 68.6555 33.2095 66.4401 36.0883C64.2246 38.9672 60.9579 40.8499 57.3563 41.3237C53.7547 41.7976 50.1121 40.8237 47.2275 38.6158C44.3428 36.4079 42.4515 33.1462 41.9682 29.5458C41.4849 25.9455 42.4491 22.3004 44.6494 19.41C46.8497 16.5195 50.1065 14.6196 53.7056 14.1269" stroke="#272727" stroke-width="2.51164" stroke-linecap="round" stroke-linejoin="round"/>
<path d="M85.8671 62.1824C64.7488 62.1824 62.7895 82.638 62.9557 85.7675C63.1036 88.5566 63.2685 91.1142 65.9758 91.8254C68.969 92.5174 79.471 93.1621 85.5363 93.1621C91.2557 93.1621 101.088 92.7165 105.158 91.8254C108.241 90.9988 107.81 88.4971 107.762 85.6668C107.715 82.458 105.406 62.1824 85.8671 62.1824Z" fill="#272727" stroke="#272727" stroke-width="2.51164" stroke-linejoin="round"/>
<path d="M83.6197 37.6754C87.2238 37.2205 90.8611 38.2135 93.7341 40.4365C96.6071 42.6595 98.4813 45.9312 98.9456 49.534C99.4099 53.1369 98.4265 56.7768 96.2111 59.6557C93.9956 62.5345 90.7289 64.4173 87.1273 64.8911C83.5257 65.3649 79.8832 64.391 76.9985 62.1832C74.1138 59.9753 72.2225 56.7135 71.7392 53.1132C71.2559 49.5128 72.2201 45.8678 74.4204 42.9773C76.6207 40.0869 79.8775 38.1869 83.4766 37.6942" fill="#272727"/>
<path d="M83.6197 37.6754C87.2238 37.2205 90.8611 38.2135 93.7341 40.4365C96.6071 42.6595 98.4813 45.9312 98.9456 49.534C99.4099 53.1369 98.4265 56.7768 96.2111 59.6557C93.9956 62.5345 90.7289 64.4173 87.1273 64.8911C83.5257 65.3649 79.8832 64.391 76.9985 62.1832C74.1138 59.9753 72.2225 56.7135 71.7392 53.1132C71.2559 49.5128 72.2201 45.8678 74.4204 42.9773C76.6207 40.0869 79.8775 38.1869 83.4766 37.6942" stroke="#272727" stroke-width="2.51164" stroke-linecap="round" stroke-linejoin="round"/>
<path d="M26.9203 63.216C5.80198 63.216 3.84275 83.6716 4.00891 86.8011C4.15679 89.5903 4.32173 92.1478 7.02905 92.859C10.0223 93.551 20.5243 94.1957 26.5895 94.1957C32.3089 94.1957 42.1416 93.7502 46.2111 92.859C49.2945 92.0325 48.8632 89.5307 48.8157 86.7005C48.7682 83.4916 46.4596 63.216 26.9203 63.216Z" fill="#272727" stroke="#272727" stroke-width="2.51164" stroke-linejoin="round"/>
<path d="M24.6729 38.709C28.277 38.2542 31.9143 39.2472 34.7873 41.4702C37.6603 43.6932 39.5345 46.9649 39.9988 50.5677C40.4631 54.1706 39.4797 57.8105 37.2643 60.6894C35.0488 63.5682 31.7821 65.451 28.1805 65.9248C24.5789 66.3986 20.9364 65.4247 18.0517 63.2168C15.1671 61.009 13.2757 57.7472 12.7924 54.1469C12.3091 50.5465 13.2734 46.9015 15.4737 44.011C17.674 41.1206 20.9307 39.2206 24.5298 38.7279" fill="#272727"/>
<path d="M24.6729 38.709C28.277 38.2542 31.9143 39.2472 34.7873 41.4702C37.6603 43.6932 39.5345 46.9649 39.9988 50.5677C40.4631 54.1706 39.4797 57.8105 37.2643 60.6894C35.0488 63.5682 31.7821 65.451 28.1805 65.9248C24.5789 66.3986 20.9364 65.4247 18.0517 63.2168C15.1671 61.009 13.2757 57.7472 12.7924 54.1469C12.3091 50.5465 13.2734 46.9015 15.4737 44.011C17.674 41.1206 20.9307 39.2206 24.5298 38.7279" stroke="#272727" stroke-width="2.51164" stroke-linecap="round" stroke-linejoin="round"/>
<path d="M56.3448 72.9319C35.2265 72.9319 33.2673 93.3876 33.4335 96.5171C33.5813 99.3062 33.7463 101.864 36.4536 102.575C39.4468 103.267 49.9488 103.912 56.0141 103.912C61.7335 103.912 71.5662 103.466 75.6357 102.575C78.719 101.748 78.2877 99.2467 78.2402 96.4164C78.1928 93.2075 75.8841 72.9319 56.3448 72.9319Z" fill="#272727" stroke="#272727" stroke-width="2.51164" stroke-linejoin="round"/>
<path d="M54.098 48.4248C57.702 47.97 61.3394 48.9629 64.2124 51.186C67.0854 53.409 68.9595 56.6807 69.4239 60.2835C69.8882 63.8863 68.9048 67.5263 66.6893 70.4051C64.4739 73.284 61.2071 75.1667 57.6055 75.6405C54.0039 76.1143 50.3614 75.1405 47.4768 72.9326C44.5921 70.7247 42.7008 67.463 42.2175 63.8626C41.7342 60.2623 42.6984 56.6172 44.8987 53.7268C47.099 50.8363 50.3558 48.9364 53.9548 48.4436" fill="#272727"/>
<path d="M54.098 48.4248C57.702 47.97 61.3394 48.9629 64.2124 51.186C67.0854 53.409 68.9595 56.6807 69.4239 60.2835C69.8882 63.8863 68.9048 67.5263 66.6893 70.4051C64.4738 73.284 61.2071 75.1667 57.6055 75.6405C54.0039 76.1143 50.3614 75.1405 47.4768 72.9326C44.5921 70.7247 42.7008 67.463 42.2175 63.8626C41.7342 60.2623 42.6984 56.6172 44.8987 53.7268C47.099 50.8363 50.3558 48.9364 53.9548 48.4436" stroke="#272727" stroke-width="2.51164" stroke-linecap="round" stroke-linejoin="round"/>
<path d="M54.0961 36.615C32.9778 36.615 31.0185 57.0706 31.1847 60.2001C31.3326 62.9893 31.4975 65.5468 34.2048 66.2581C37.198 66.95 47.7 67.5947 53.7653 67.5947C59.4847 67.5947 69.3174 67.1492 73.3869 66.2581C76.4702 65.4315 76.0389 62.9297 75.9915 60.0995C75.944 56.8906 73.6353 36.615 54.0961 36.615Z" fill="#9882E3" stroke="#272727" stroke-width="2.51164" stroke-linejoin="round"/>
<path d="M51.8487 12.108C55.4528 11.6532 59.0901 12.6461 61.9631 14.8692C64.8361 17.0922 66.7103 20.3639 67.1746 23.9667C67.6389 27.5696 66.6555 31.2095 64.4401 34.0883C62.2246 36.9672 58.9579 38.8499 55.3563 39.3237C51.7547 39.7976 48.1121 38.8237 45.2275 36.6158C42.3428 34.4079 40.4515 31.1462 39.9682 27.5458C39.4849 23.9455 40.4491 20.3004 42.6494 17.41C44.8497 14.5195 48.1065 12.6196 51.7056 12.1269" fill="#9882E3"/>
<path d="M51.8487 12.108C55.4528 11.6532 59.0901 12.6461 61.9631 14.8692C64.8361 17.0922 66.7103 20.3639 67.1746 23.9667C67.6389 27.5696 66.6555 31.2095 64.4401 34.0883C62.2246 36.9672 58.9579 38.8499 55.3563 39.3237C51.7547 39.7976 48.1121 38.8237 45.2275 36.6158C42.3428 34.4079 40.4515 31.1462 39.9682 27.5458C39.4849 23.9455 40.4491 20.3004 42.6494 17.41C44.8497 14.5195 48.1065 12.6196 51.7056 12.1269" stroke="#272727" stroke-width="2.51164" stroke-linecap="round" stroke-linejoin="round"/>
<path d="M83.8671 60.1824C62.7488 60.1824 60.7895 80.638 60.9557 83.7675C61.1036 86.5566 61.2685 89.1142 63.9758 89.8254C66.969 90.5174 77.471 91.1621 83.5363 91.1621C89.2557 91.1621 99.0884 90.7165 103.158 89.8254C106.241 88.9988 105.81 86.4971 105.762 83.6668C105.715 80.458 103.406 60.1824 83.8671 60.1824Z" fill="#F7C326" stroke="#272727" stroke-width="2.51164" stroke-linejoin="round"/>
<path d="M81.6197 35.6754C85.2238 35.2205 88.8611 36.2135 91.7341 38.4365C94.6071 40.6595 96.4813 43.9312 96.9456 47.534C97.4099 51.1369 96.4265 54.7768 94.2111 57.6557C91.9956 60.5345 88.7289 62.4173 85.1273 62.8911C81.5257 63.3649 77.8832 62.391 74.9985 60.1832C72.1138 57.9753 70.2225 54.7135 69.7392 51.1132C69.2559 47.5128 70.2201 43.8678 72.4204 40.9773C74.6207 38.0869 77.8775 36.1869 81.4766 35.6942" fill="#F7C326"/>
<path d="M81.6197 35.6754C85.2238 35.2205 88.8611 36.2135 91.7341 38.4365C94.6071 40.6595 96.4813 43.9312 96.9456 47.534C97.4099 51.1369 96.4265 54.7768 94.2111 57.6557C91.9956 60.5345 88.7289 62.4173 85.1273 62.8911C81.5257 63.3649 77.8832 62.391 74.9985 60.1832C72.1138 57.9753 70.2225 54.7135 69.7392 51.1132C69.2559 47.5128 70.2201 43.8678 72.4204 40.9773C74.6207 38.0869 77.8775 36.1869 81.4766 35.6942" stroke="#272727" stroke-width="2.51164" stroke-linecap="round" stroke-linejoin="round"/>
<path d="M24.9203 61.216C3.80198 61.216 1.84275 81.6716 2.00891 84.8011C2.15679 87.5903 2.32173 90.1478 5.02905 90.859C8.02227 91.551 18.5243 92.1957 24.5895 92.1957C30.3089 92.1957 40.1416 91.7502 44.2111 90.859C47.2945 90.0325 46.8632 87.5307 46.8157 84.7005C46.7682 81.4916 44.4596 61.216 24.9203 61.216Z" fill="#F7C326" stroke="#272727" stroke-width="2.51164" stroke-linejoin="round"/>
<path d="M22.6729 36.709C26.277 36.2542 29.9143 37.2472 32.7873 39.4702C35.6603 41.6932 37.5345 44.9649 37.9988 48.5677C38.4631 52.1706 37.4797 55.8105 35.2643 58.6894C33.0488 61.5682 29.7821 63.451 26.1805 63.9248C22.5789 64.3986 18.9364 63.4247 16.0517 61.2168C13.1671 59.009 11.2757 55.7472 10.7924 52.1469C10.3091 48.5465 11.2734 44.9015 13.4737 42.011C15.674 39.1206 18.9307 37.2206 22.5298 36.7279" fill="#F7C326"/>
<path d="M22.6729 36.709C26.277 36.2542 29.9143 37.2472 32.7873 39.4702C35.6603 41.6932 37.5345 44.9649 37.9988 48.5677C38.4631 52.1706 37.4797 55.8105 35.2643 58.6894C33.0488 61.5682 29.7821 63.451 26.1805 63.9248C22.5789 64.3986 18.9364 63.4247 16.0517 61.2168C13.1671 59.009 11.2757 55.7472 10.7924 52.1469C10.3091 48.5465 11.2734 44.9015 13.4737 42.011C15.674 39.1206 18.9307 37.2206 22.5298 36.7279" stroke="#272727" stroke-width="2.51164" stroke-linecap="round" stroke-linejoin="round"/>
<path d="M54.3448 70.9319C33.2265 70.9319 31.2673 91.3876 31.4335 94.5171C31.5813 97.3062 31.7463 99.8638 34.4536 100.575C37.4468 101.267 47.9488 101.912 54.0141 101.912C59.7335 101.912 69.5662 101.466 73.6357 100.575C76.719 99.7484 76.2877 97.2467 76.2402 94.4164C76.1928 91.2075 73.8841 70.9319 54.3448 70.9319Z" fill="#9882E3" stroke="#272727" stroke-width="2.51164" stroke-linejoin="round"/>
<path d="M52.098 46.4248C55.702 45.97 59.3394 46.9629 62.2124 49.186C65.0854 51.409 66.9595 54.6807 67.4239 58.2835C67.8882 61.8863 66.9048 65.5263 64.6893 68.4051C62.4739 71.284 59.2071 73.1667 55.6055 73.6405C52.0039 74.1143 48.3614 73.1405 45.4768 70.9326C42.5921 68.7247 40.7008 65.463 40.2175 61.8626C39.7342 58.2623 40.6984 54.6172 42.8987 51.7268C45.099 48.8363 48.3558 46.9364 51.9548 46.4436" fill="#9882E3"/>
<path d="M52.098 46.4248C55.702 45.97 59.3394 46.9629 62.2124 49.186C65.0854 51.409 66.9595 54.6807 67.4239 58.2835C67.8882 61.8863 66.9048 65.5263 64.6893 68.4051C62.4738 71.284 59.2071 73.1667 55.6055 73.6405C52.0039 74.1143 48.3614 73.1405 45.4768 70.9326C42.5921 68.7247 40.7008 65.463 40.2175 61.8626C39.7342 58.2623 40.6984 54.6172 42.8987 51.7268C45.099 48.8363 48.3558 46.9364 51.9548 46.4436" stroke="#272727" stroke-width="2.51164" stroke-linecap="round" stroke-linejoin="round"/>
<path d="M104.979 11.48C105.246 10.84 105.379 10.3066 105.379 9.87997C105.379 9.21331 105.179 8.69331 104.779 8.31997C104.406 7.94664 103.872 7.75997 103.179 7.75997H98.9389V2.67997C98.9389 1.93331 98.7256 1.34664 98.2989 0.919975C97.8989 0.493309 97.3256 0.279976 96.5789 0.279976C95.8856 0.279976 95.3122 0.413307 94.8589 0.679974V7.75997H89.0189C88.7522 8.39997 88.6189 8.93331 88.6189 9.35997C88.6189 10.0266 88.8056 10.5466 89.1789 10.92C89.5789 11.2933 90.1256 11.48 90.8189 11.48H94.8589V16.2C94.8589 16.9733 95.0589 17.56 95.4589 17.96C95.8589 18.3866 96.4322 18.6 97.1789 18.6C97.8989 18.6 98.4856 18.4666 98.9389 18.2V11.48H104.979Z" fill="#272727"/>
</svg>
