<svg width="98" height="84" viewBox="0 0 98 84" fill="none" xmlns="http://www.w3.org/2000/svg">
<path d="M90.5476 3.00001C92.1281 2.99493 94.9999 5.38519 94.9999 8.27744V31.5177C94.9999 34.41 93.9929 36.7576 91.0107 36.7519L83.3953 36.7376L77.9572 47.7626L76.5067 36.7376H49.7915C48.211 36.7376 46.9392 34.4101 46.9392 31.5178V8.27749C46.9392 5.38525 49.39 3.05776 50.9705 3.05776H72.6317L90.5476 3.00001Z" fill="#272727" stroke="#272727" stroke-width="1.86389" stroke-linecap="round" stroke-linejoin="round"/>
<path d="M59.7824 20.1633C59.9541 20.141 60.1274 20.1896 60.2643 20.2984C60.4012 20.4073 60.4905 20.5674 60.5127 20.7438C60.5348 20.9202 60.4879 21.0984 60.3824 21.2393C60.2768 21.3803 60.1211 21.4725 59.9495 21.4957C59.7779 21.5189 59.6043 21.4712 59.4669 21.3631C59.3294 21.255 59.2393 21.0953 59.2163 20.9191C59.1932 20.7428 59.2392 20.5643 59.344 20.4228C59.4489 20.2813 59.6041 20.1883 59.7756 20.1642" fill="#272727"/>
<path d="M59.7824 20.1633C59.9541 20.141 60.1274 20.1896 60.2643 20.2984C60.4012 20.4073 60.4905 20.5674 60.5127 20.7438C60.5348 20.9202 60.4879 21.0984 60.3824 21.2393C60.2768 21.3803 60.1211 21.4725 59.9495 21.4957C59.7779 21.5189 59.6043 21.4712 59.4669 21.3631C59.3294 21.255 59.2393 21.0953 59.2163 20.9191C59.1932 20.7428 59.2392 20.5643 59.344 20.4228C59.4489 20.2813 59.6041 20.1883 59.7756 20.1642" stroke="#272727" stroke-width="5.62588" stroke-linecap="round" stroke-linejoin="round"/>
<path d="M71.2235 20.1633C71.3953 20.141 71.5686 20.1896 71.7055 20.2984C71.8424 20.4073 71.9317 20.5674 71.9538 20.7438C71.976 20.9202 71.9291 21.0984 71.8235 21.2393C71.718 21.3803 71.5623 21.4725 71.3907 21.4957C71.2191 21.5189 71.0455 21.4712 70.908 21.3631C70.7706 21.255 70.6805 21.0953 70.6574 20.9191C70.6344 20.7428 70.6803 20.5643 70.7852 20.4228C70.89 20.2813 71.0452 20.1883 71.2167 20.1642" fill="#272727"/>
<path d="M71.2235 20.1633C71.3953 20.141 71.5686 20.1896 71.7055 20.2984C71.8424 20.4073 71.9317 20.5674 71.9538 20.7438C71.976 20.9202 71.9291 21.0984 71.8235 21.2393C71.718 21.3803 71.5623 21.4725 71.3907 21.4957C71.2191 21.5189 71.0455 21.4712 70.908 21.3631C70.7706 21.255 70.6805 21.0953 70.6574 20.9191C70.6344 20.7428 70.6803 20.5643 70.7852 20.4228C70.89 20.2813 71.0452 20.1883 71.2167 20.1642" stroke="#272727" stroke-width="5.62588" stroke-linecap="round" stroke-linejoin="round"/>
<path d="M82.6649 20.1633C82.8367 20.141 83.01 20.1896 83.1469 20.2984C83.2838 20.4073 83.3731 20.5674 83.3952 20.7438C83.4174 20.9202 83.3705 21.0984 83.2649 21.2393C83.1594 21.3803 83.0037 21.4725 82.8321 21.4957C82.6605 21.5189 82.4869 21.4712 82.3494 21.3631C82.212 21.255 82.1219 21.0953 82.0988 20.9191C82.0758 20.7428 82.1217 20.5643 82.2266 20.4228C82.3314 20.2813 82.4866 20.1883 82.6581 20.1642" fill="#272727"/>
<path d="M82.6649 20.1633C82.8367 20.141 83.01 20.1896 83.1469 20.2984C83.2838 20.4073 83.3731 20.5674 83.3952 20.7438C83.4174 20.9202 83.3705 21.0984 83.2649 21.2393C83.1594 21.3803 83.0037 21.4725 82.8321 21.4957C82.6605 21.5189 82.4869 21.4712 82.3494 21.3631C82.212 21.255 82.1219 21.0953 82.0988 20.9191C82.0758 20.7428 82.1217 20.5643 82.2266 20.4228C82.3314 20.2813 82.4866 20.1883 82.6581 20.1642" stroke="#272727" stroke-width="5.62588" stroke-linecap="round" stroke-linejoin="round"/>
<path d="M8.45025 27.6269C6.51546 27.6205 3 30.5466 3 34.0871V62.5361C3 66.0766 4.23275 68.9504 7.88326 68.9434L17.2055 68.9258L23.8624 82.4218L25.638 68.9258H58.3407C60.2755 68.9258 61.8323 66.0766 61.8323 62.5361V34.0871C61.8323 30.5467 58.8323 27.6975 56.8975 27.6975H30.3814L8.45025 27.6269Z" fill="#272727" stroke="#272727" stroke-width="2.28164" stroke-linecap="round" stroke-linejoin="round"/>
<path d="M8.45025 27.627C6.51546 27.6206 3 30.5467 3 34.0872V62.5362C3 66.0767 4.23275 68.9504 7.88326 68.9435L17.2055 68.9259L23.8624 82.4219L25.638 68.9259H58.3407C60.2755 68.9259 61.8323 66.0767 61.8323 62.5362V34.0872C61.8323 30.5468 58.8323 27.6976 56.8975 27.6976H30.3814L8.45025 27.627Z" fill="#272727" stroke="#272727" stroke-width="2.28164" stroke-linecap="round" stroke-linejoin="round"/>
<path d="M34.691 34.2972C31.0186 33.821 27.3122 34.8605 24.3847 37.1879C21.4572 39.5152 19.5474 42.9403 19.0743 46.7121C18.6011 50.484 19.6032 54.2946 21.8607 57.3085C24.1182 60.3224 27.4469 62.2935 31.1169 62.7895C34.7868 63.2856 38.4985 62.2661 41.4379 59.9546C44.3773 57.6432 46.3046 54.2284 46.797 50.4592C47.2895 46.69 46.307 42.874 44.065 39.8479C41.8229 36.8219 38.5044 34.8328 34.837 34.3169" fill="#272727"/>
<path d="M34.691 34.2972C31.0186 33.821 27.3122 34.8605 24.3847 37.1879C21.4572 39.5152 19.5474 42.9403 19.0743 46.7121C18.6011 50.484 19.6032 54.2946 21.8607 57.3085C24.1182 60.3224 27.4469 62.2935 31.1169 62.7895C34.7868 63.2856 38.4985 62.2661 41.4379 59.9546C44.3773 57.6432 46.3046 54.2284 46.797 50.4592C47.2895 46.69 46.307 42.874 44.065 39.8479C41.8229 36.8219 38.5044 34.8328 34.837 34.3169" stroke="#272727" stroke-width="2.50575" stroke-linecap="round" stroke-linejoin="round"/>
<path d="M41.1472 46.4771C41.1472 46.4771 41.0827 44.0779 38.6537 44.0779C36.2643 44.0779 36.0811 46.4771 36.0811 46.4771" stroke="#272727" stroke-width="1.09088" stroke-linecap="round"/>
<path d="M24.366 46.4773C24.366 46.4773 24.4305 44.0782 26.8595 44.0782C29.2489 44.0782 29.4321 46.4773 29.4321 46.4773" stroke="#272727" stroke-width="1.09088" stroke-linecap="round"/>
<path d="M37.1674 52.6414C37.1674 52.6414 37.0562 56.46 32.8641 56.46C28.7403 56.46 28.4241 52.6414 28.4241 52.6414" stroke="#272727" stroke-width="1.02845" stroke-linecap="round"/>
<path d="M91.9467 1.00001C93.5705 0.994931 96.5211 3.38519 96.5211 6.27744V29.5177C96.5211 32.41 95.4864 34.7576 92.4226 34.7519L84.5985 34.7376L79.0113 45.7626L77.5211 34.7376H50.0738C48.4499 34.7376 47.1433 32.4101 47.1433 29.5178V6.27749C47.1433 3.38525 49.6612 1.05776 51.2851 1.05776H73.5399L91.9467 1.00001Z" fill="#F7C326" stroke="#272727" stroke-width="1.86389" stroke-linecap="round" stroke-linejoin="round"/>
<path d="M60.3383 18.1633C60.5148 18.141 60.6929 18.1896 60.8335 18.2984C60.9742 18.4073 61.0659 18.5674 61.0886 18.7438C61.1114 18.9202 61.0632 19.0984 60.9548 19.2393C60.8463 19.3803 60.6864 19.4725 60.5101 19.4957C60.3337 19.5189 60.1554 19.4712 60.0142 19.3631C59.873 19.255 59.7804 19.0953 59.7567 18.9191C59.733 18.7428 59.7803 18.5643 59.888 18.4228C59.9957 18.2813 60.1551 18.1883 60.3313 18.1642" fill="#272727"/>
<path d="M60.3383 18.1633C60.5148 18.141 60.6929 18.1896 60.8335 18.2984C60.9742 18.4073 61.0659 18.5674 61.0886 18.7438C61.1114 18.9202 61.0632 19.0984 60.9548 19.2393C60.8463 19.3803 60.6864 19.4725 60.5101 19.4957C60.3337 19.5189 60.1554 19.4712 60.0142 19.3631C59.873 19.255 59.7804 19.0953 59.7567 18.9191C59.733 18.7428 59.7803 18.5643 59.888 18.4228C59.9957 18.2813 60.1551 18.1883 60.3313 18.1642" stroke="#272727" stroke-width="5.62588" stroke-linecap="round" stroke-linejoin="round"/>
<path d="M72.0932 18.1633C72.2697 18.141 72.4477 18.1896 72.5884 18.2984C72.729 18.4073 72.8208 18.5674 72.8435 18.7438C72.8663 18.9202 72.8181 19.0984 72.7097 19.2393C72.6012 19.3803 72.4413 19.4725 72.2649 19.4957C72.0886 19.5189 71.9103 19.4712 71.7691 19.3631C71.6278 19.255 71.5352 19.0953 71.5116 18.9191C71.4879 18.7428 71.5351 18.5643 71.6429 18.4228C71.7506 18.2813 71.91 18.1883 72.0862 18.1642" fill="#272727"/>
<path d="M72.0932 18.1633C72.2697 18.141 72.4477 18.1896 72.5884 18.2984C72.729 18.4073 72.8208 18.5674 72.8435 18.7438C72.8663 18.9202 72.8181 19.0984 72.7097 19.2393C72.6012 19.3803 72.4413 19.4725 72.2649 19.4957C72.0886 19.5189 71.9103 19.4712 71.7691 19.3631C71.6278 19.255 71.5352 19.0953 71.5116 18.9191C71.4879 18.7428 71.5351 18.5643 71.6429 18.4228C71.7506 18.2813 71.91 18.1883 72.0862 18.1642" stroke="#272727" stroke-width="5.62588" stroke-linecap="round" stroke-linejoin="round"/>
<path d="M83.8481 18.1633C84.0245 18.141 84.2026 18.1896 84.3433 18.2984C84.4839 18.4073 84.5757 18.5674 84.5984 18.7438C84.6211 18.9202 84.573 19.0984 84.4645 19.2393C84.3561 19.3803 84.1961 19.4725 84.0198 19.4957C83.8435 19.5189 83.6652 19.4712 83.5239 19.3631C83.3827 19.255 83.2901 19.0953 83.2665 18.9191C83.2428 18.7428 83.29 18.5643 83.3977 18.4228C83.5055 18.2813 83.6649 18.1883 83.8411 18.1642" fill="#272727"/>
<path d="M83.8481 18.1633C84.0245 18.141 84.2026 18.1896 84.3433 18.2984C84.4839 18.4073 84.5757 18.5674 84.5984 18.7438C84.6211 18.9202 84.573 19.0984 84.4645 19.2393C84.3561 19.3803 84.1961 19.4725 84.0198 19.4957C83.8435 19.5189 83.6652 19.4712 83.5239 19.3631C83.3827 19.255 83.2901 19.0953 83.2665 18.9191C83.2428 18.7428 83.29 18.5643 83.3977 18.4228C83.5055 18.2813 83.6649 18.1883 83.8411 18.1642" stroke="#272727" stroke-width="5.62588" stroke-linecap="round" stroke-linejoin="round"/>
<path d="M7.5996 25.6269C5.6118 25.6205 2 28.5466 2 32.0871V60.5361C2 64.0766 3.26653 66.9504 7.01708 66.9434L16.5947 66.9258L23.4341 80.4218L25.2584 66.9258H58.8573C60.8451 66.9258 62.4445 64.0766 62.4445 60.5361V32.0871C62.4445 28.5467 59.3623 25.6975 57.3745 25.6975H30.1318L7.5996 25.6269Z" fill="#9882E3" stroke="#272727" stroke-width="2.28164" stroke-linecap="round" stroke-linejoin="round"/>
<path d="M7.5996 25.627C5.6118 25.6206 2 28.5467 2 32.0872V60.5362C2 64.0767 3.26653 66.9504 7.01708 66.9435L16.5947 66.9259L23.4341 80.4219L25.2584 66.9259H58.8573C60.8451 66.9259 62.4445 64.0767 62.4445 60.5362V32.0872C62.4445 28.5468 59.3623 25.6976 57.3745 25.6976H30.1318L7.5996 25.627Z" fill="#9882E3" stroke="#272727" stroke-width="2.28164" stroke-linecap="round" stroke-linejoin="round"/>
<path d="M34.5595 32.2972C30.7864 31.821 26.9785 32.8605 23.9707 35.1879C20.963 37.5152 19.0009 40.9403 18.5148 44.7121C18.0287 48.484 19.0582 52.2946 21.3776 55.3085C23.697 58.3224 27.1169 60.2935 30.8874 60.7895C34.6579 61.2856 38.4713 60.2661 41.4912 57.9546C44.5112 55.6432 46.4913 52.2284 46.9973 48.4592C47.5032 44.69 46.4938 40.874 44.1903 37.8479C41.8868 34.8219 38.4773 32.8328 34.7095 32.3169" fill="#F7C326"/>
<path d="M34.5595 32.2972C30.7864 31.821 26.9785 32.8605 23.9707 35.1879C20.963 37.5152 19.0009 40.9403 18.5148 44.7121C18.0287 48.484 19.0582 52.2946 21.3776 55.3085C23.697 58.3224 27.1169 60.2935 30.8874 60.7895C34.6579 61.2856 38.4713 60.2661 41.4912 57.9546C44.5112 55.6432 46.4913 52.2284 46.9973 48.4592C47.5032 44.69 46.4938 40.874 44.1903 37.8479C41.8868 34.8219 38.4773 32.8328 34.7095 32.3169" stroke="#272727" stroke-width="2.50575" stroke-linecap="round" stroke-linejoin="round"/>
<path d="M41.1926 44.4771C41.1926 44.4771 41.1263 42.0779 38.6307 42.0779C36.1758 42.0779 35.9875 44.4771 35.9875 44.4771" stroke="#272727" stroke-width="1.09088" stroke-linecap="round"/>
<path d="M23.9514 44.4773C23.9514 44.4773 24.0177 42.0782 26.5132 42.0782C28.9682 42.0782 29.1564 44.4773 29.1564 44.4773" stroke="#272727" stroke-width="1.09088" stroke-linecap="round"/>
<path d="M37.1038 50.6414C37.1038 50.6414 36.9895 54.46 32.6825 54.46C28.4457 54.46 28.1208 50.6414 28.1208 50.6414" stroke="#272727" stroke-width="1.02845" stroke-linecap="round"/>
</svg>
