<svg width="102" height="86" viewBox="0 0 102 86" fill="none" xmlns="http://www.w3.org/2000/svg">
<path d="M13.9981 24.3542H3.64949C3.29079 24.3542 3 24.6694 3 25.0582V69.1506C3 69.5394 3.29079 69.8545 3.64949 69.8545H13.9981C14.3568 69.8545 14.6476 69.5394 14.6476 69.1506V25.0582C14.6476 24.6694 14.3568 24.3542 13.9981 24.3542Z" fill="#272727" stroke="#272727" stroke-width="1.75711" stroke-linecap="round" stroke-linejoin="round"/>
<path d="M35.8483 35.1682H25.0059C24.6472 35.1682 24.3564 35.4834 24.3564 35.8721V69.1507C24.3564 69.5395 24.6472 69.8546 25.0059 69.8546H35.8483C36.207 69.8546 36.4978 69.5395 36.4978 69.1507V35.8721C36.4978 35.4834 36.207 35.1682 35.8483 35.1682Z" fill="#272727" stroke="#272727" stroke-width="1.75711" stroke-linecap="round" stroke-linejoin="round"/>
<path d="M56.6711 19.9353H46.4815C46.1228 19.9353 45.832 20.2505 45.832 20.6392V68.6434C45.832 69.0322 46.1228 69.3473 46.4815 69.3473H56.6711C57.0298 69.3473 57.3206 69.0322 57.3206 68.6434V20.6392C57.3206 20.2505 57.0298 19.9353 56.6711 19.9353Z" fill="#272727" stroke="#272727" stroke-width="1.75711" stroke-linecap="round" stroke-linejoin="round"/>
<path d="M79.7652 32.4014H69.0699C68.7112 32.4014 68.4204 32.7165 68.4204 33.1053V69.4029C68.4204 69.7917 68.7112 70.1068 69.0699 70.1068H79.7652C80.1239 70.1068 80.4147 69.7917 80.4147 69.4029V33.1053C80.4147 32.7165 80.1239 32.4014 79.7652 32.4014Z" fill="#272727" stroke="#272727" stroke-width="1.75711" stroke-linecap="round" stroke-linejoin="round"/>
<path d="M94.8121 34.0001C96.6538 33.9942 100 36.7051 100 39.9853V66.3424C100 69.6226 98.8266 72.285 95.3518 72.2786L86.4784 72.2622L80.142 84.7658L78.4519 72.2622H47.3235C45.4818 72.2622 44 69.6226 44 66.3424V39.9853C44 36.7052 46.8556 34.0655 48.6972 34.0655H73.9368L94.8121 34.0001Z" fill="#272727" stroke="#272727" stroke-width="2.11387" stroke-linecap="round" stroke-linejoin="round"/>
<path d="M69.8342 40.1799C73.3298 39.7387 76.8578 40.7018 79.6444 42.858C82.4309 45.0142 84.2487 48.1875 84.6991 51.6819C85.1495 55.1764 84.1957 58.7069 82.0468 61.4992C79.898 64.2914 76.7295 66.1176 73.2363 66.5772C69.743 67.0367 66.21 66.0922 63.4121 63.9507C60.6142 61.8092 58.7797 58.6456 58.311 55.1535C57.8422 51.6615 58.7774 48.126 60.9115 45.3225C63.0456 42.5189 66.2044 40.6761 69.6952 40.1982" fill="#272727"/>
<path d="M69.8342 40.1799C73.3298 39.7387 76.8578 40.7018 79.6444 42.858C82.4309 45.0142 84.2487 48.1875 84.6991 51.6819C85.1495 55.1764 84.1957 58.7069 82.0468 61.4992C79.898 64.2914 76.7295 66.1176 73.2363 66.5772C69.743 67.0367 66.21 66.0922 63.4121 63.9507C60.6142 61.8092 58.7797 58.6456 58.311 55.1535C57.8422 51.6615 58.7774 48.126 60.9115 45.3225C63.0456 42.5189 66.2044 40.6761 69.6952 40.1982" stroke="#272727" stroke-width="2.3215" stroke-linecap="round" stroke-linejoin="round"/>
<path d="M63.6892 51.4641C63.6892 51.4641 63.7506 49.2413 66.0627 49.2413C68.3371 49.2413 68.5115 51.4641 68.5115 51.4641" stroke="#272727" stroke-width="1.01066" stroke-linecap="round"/>
<path d="M79.6626 51.4643C79.6626 51.4643 79.6012 49.2416 77.2891 49.2416C75.0147 49.2416 74.8403 51.4643 74.8403 51.4643" stroke="#272727" stroke-width="1.01066" stroke-linecap="round"/>
<path d="M67.4769 57.1751C67.4769 57.1751 67.5828 60.7129 71.5731 60.7129C75.4983 60.7129 75.7993 57.1751 75.7993 57.1751" stroke="#272727" stroke-width="0.952828" stroke-linecap="round"/>
<path d="M11.9981 22.3542H1.64949C1.29079 22.3542 1 22.6694 1 23.0582V67.1506C1 67.5394 1.29079 67.8545 1.64949 67.8545H11.9981C12.3568 67.8545 12.6476 67.5394 12.6476 67.1506V23.0582C12.6476 22.6694 12.3568 22.3542 11.9981 22.3542Z" fill="#9882E3" stroke="#272727" stroke-width="1.75711" stroke-linecap="round" stroke-linejoin="round"/>
<path d="M33.8483 33.1682H23.0059C22.6472 33.1682 22.3564 33.4834 22.3564 33.8721V67.1507C22.3564 67.5395 22.6472 67.8546 23.0059 67.8546H33.8483C34.207 67.8546 34.4978 67.5395 34.4978 67.1507V33.8721C34.4978 33.4834 34.207 33.1682 33.8483 33.1682Z" fill="#9882E3" stroke="#272727" stroke-width="1.75711" stroke-linecap="round" stroke-linejoin="round"/>
<path d="M54.6711 17.9353H44.4815C44.1228 17.9353 43.832 18.2505 43.832 18.6392V66.6434C43.832 67.0322 44.1228 67.3473 44.4815 67.3473H54.6711C55.0298 67.3473 55.3206 67.0322 55.3206 66.6434V18.6392C55.3206 18.2505 55.0298 17.9353 54.6711 17.9353Z" fill="#9882E3" stroke="#272727" stroke-width="1.75711" stroke-linecap="round" stroke-linejoin="round"/>
<path d="M77.7652 30.4014H67.0699C66.7112 30.4014 66.4204 30.7165 66.4204 31.1053V67.4029C66.4204 67.7917 66.7112 68.1068 67.0699 68.1068H77.7652C78.1239 68.1068 78.4147 67.7917 78.4147 67.4029V31.1053C78.4147 30.7165 78.1239 30.4014 77.7652 30.4014Z" fill="#9882E3" stroke="#272727" stroke-width="1.75711" stroke-linecap="round" stroke-linejoin="round"/>
<path d="M28.0203 19.4076C28.4064 19.3588 28.7961 19.4652 29.104 19.7034C29.4118 19.9416 29.6126 20.2921 29.6623 20.6781C29.7121 21.0641 29.6067 21.4541 29.3693 21.7625C29.132 22.071 28.782 22.2727 28.3961 22.3234C28.0102 22.3742 27.62 22.2699 27.3109 22.0333C27.0019 21.7968 26.7992 21.4473 26.7474 21.0616C26.6957 20.6758 26.799 20.2853 27.0347 19.9756C27.2704 19.6659 27.6194 19.4624 28.005 19.4096" fill="#F7C326"/>
<path d="M28.0203 19.4076C28.4064 19.3588 28.7961 19.4652 29.104 19.7034C29.4118 19.9416 29.6126 20.2921 29.6623 20.6781C29.7121 21.0641 29.6067 21.4541 29.3693 21.7625C29.132 22.071 28.782 22.2727 28.3961 22.3234C28.0102 22.3742 27.62 22.2699 27.3109 22.0333C27.0019 21.7968 26.7992 21.4473 26.7474 21.0616C26.6957 20.6758 26.799 20.2853 27.0347 19.9756C27.2704 19.6659 27.6194 19.4624 28.005 19.4096" stroke="#F7C326" stroke-width="5.26268" stroke-linecap="round" stroke-linejoin="round"/>
<path d="M6.08379 4.8209C6.46992 4.77217 6.85962 4.87855 7.16743 5.11673C7.47524 5.3549 7.67604 5.70542 7.72579 6.09143C7.77554 6.47743 7.67018 6.86741 7.43281 7.17585C7.19545 7.48428 6.84546 7.686 6.45958 7.73676C6.07371 7.78753 5.68346 7.68319 5.3744 7.44664C5.06534 7.21009 4.8627 6.86063 4.81092 6.47489C4.75915 6.08916 4.86245 5.69863 5.09819 5.38895C5.33393 5.07927 5.68285 4.87571 6.06845 4.82292" fill="#F7C326"/>
<path d="M6.08379 4.8209C6.46992 4.77217 6.85962 4.87855 7.16743 5.11673C7.47524 5.3549 7.67604 5.70542 7.72579 6.09143C7.77554 6.47743 7.67018 6.86741 7.43281 7.17585C7.19545 7.48428 6.84546 7.686 6.45958 7.73676C6.07371 7.78753 5.68346 7.68319 5.3744 7.44664C5.06534 7.21009 4.8627 6.86063 4.81092 6.47489C4.75915 6.08916 4.86245 5.69863 5.09819 5.38895C5.33393 5.07927 5.68285 4.87571 6.06845 4.82292" stroke="#F7C326" stroke-width="5.26268" stroke-linecap="round" stroke-linejoin="round"/>
<path d="M48.7132 3.01157C49.0993 2.96284 49.489 3.06923 49.7968 3.3074C50.1046 3.54558 50.3054 3.8961 50.3552 4.2821C50.4049 4.66811 50.2996 5.05809 50.0622 5.36652C49.8248 5.67496 49.4748 5.87667 49.089 5.92744C48.7031 5.9782 48.3129 5.87387 48.0038 5.63732C47.6947 5.40077 47.4921 5.05131 47.4403 4.66557C47.3885 4.27983 47.4918 3.8893 47.7276 3.57962C47.9633 3.26994 48.3122 3.06639 48.6978 3.01359" fill="#F7C326"/>
<path d="M48.7132 3.01157C49.0993 2.96284 49.489 3.06923 49.7968 3.3074C50.1046 3.54558 50.3054 3.8961 50.3552 4.2821C50.4049 4.66811 50.2996 5.05809 50.0622 5.36652C49.8248 5.67496 49.4748 5.87667 49.089 5.92744C48.7031 5.9782 48.3129 5.87387 48.0038 5.63732C47.6947 5.40077 47.4921 5.05131 47.4403 4.66557C47.3885 4.27983 47.4918 3.8893 47.7276 3.57962C47.9633 3.26994 48.3122 3.06639 48.6978 3.01359" stroke="#F7C326" stroke-width="5.26268" stroke-linecap="round" stroke-linejoin="round"/>
<path d="M72.4598 19.2945C72.8459 19.2458 73.2356 19.3522 73.5434 19.5904C73.8512 19.8285 74.052 20.1791 74.1018 20.5651C74.1515 20.9511 74.0462 21.341 73.8088 21.6495C73.5714 21.9579 73.2214 22.1596 72.8356 22.2104C72.4497 22.2612 72.0594 22.1568 71.7504 21.9203C71.4413 21.6837 71.2387 21.3343 71.1869 20.9485C71.1351 20.5628 71.2384 20.1723 71.4742 19.8626C71.7099 19.5529 72.0588 19.3493 72.4444 19.2966" fill="#F7C326"/>
<path d="M72.4598 19.2945C72.8459 19.2458 73.2356 19.3522 73.5434 19.5904C73.8512 19.8285 74.052 20.1791 74.1018 20.5651C74.1515 20.9511 74.0462 21.341 73.8088 21.6495C73.5714 21.9579 73.2214 22.1596 72.8356 22.2104C72.4497 22.2612 72.0594 22.1568 71.7504 21.9203C71.4413 21.6837 71.2387 21.3343 71.1869 20.9485C71.1351 20.5628 71.2384 20.1723 71.4742 19.8626C71.7099 19.5529 72.0588 19.3493 72.4444 19.2966" stroke="#F7C326" stroke-width="5.26268" stroke-linecap="round" stroke-linejoin="round"/>
<path d="M28.0908 20.9793L48.8969 4.58325L72.5864 20.9511" stroke="#F7C326" stroke-width="2.11826"/>
<path d="M6.06689 6.29883L28.0911 20.9791" stroke="#F7C326" stroke-width="2.11826"/>
<path d="M94.8121 32.0001C96.6538 31.9942 100 34.7051 100 37.9853V64.3424C100 67.6226 98.8266 70.285 95.3518 70.2786L86.4784 70.2622L80.142 82.7658L78.4519 70.2622H47.3235C45.4818 70.2622 44 67.6226 44 64.3424V37.9853C44 34.7052 46.8556 32.0655 48.6972 32.0655H73.9368L94.8121 32.0001Z" fill="#9882E3" stroke="#272727" stroke-width="2.11387" stroke-linecap="round" stroke-linejoin="round"/>
<path d="M69.8342 38.1799C73.3298 37.7387 76.8578 38.7018 79.6444 40.858C82.4309 43.0142 84.2487 46.1875 84.6991 49.6819C85.1495 53.1764 84.1957 56.7069 82.0468 59.4992C79.898 62.2914 76.7295 64.1176 73.2363 64.5772C69.743 65.0367 66.21 64.0922 63.4121 61.9507C60.6142 59.8092 58.7797 56.6456 58.311 53.1535C57.8422 49.6615 58.7774 46.126 60.9115 43.3225C63.0456 40.5189 66.2044 38.6761 69.6952 38.1982" fill="#F7C326"/>
<path d="M69.8342 38.1799C73.3298 37.7387 76.8578 38.7018 79.6444 40.858C82.4309 43.0142 84.2487 46.1875 84.6991 49.6819C85.1495 53.1764 84.1957 56.7069 82.0468 59.4992C79.898 62.2914 76.7295 64.1176 73.2363 64.5772C69.743 65.0367 66.21 64.0922 63.4121 61.9507C60.6142 59.8092 58.7797 56.6456 58.311 53.1535C57.8422 49.6615 58.7774 46.126 60.9115 43.3225C63.0456 40.5189 66.2044 38.6761 69.6952 38.1982" stroke="#272727" stroke-width="2.3215" stroke-linecap="round" stroke-linejoin="round"/>
<path d="M63.6892 49.4641C63.6892 49.4641 63.7506 47.2413 66.0627 47.2413C68.3371 47.2413 68.5115 49.4641 68.5115 49.4641" stroke="#272727" stroke-width="1.01066" stroke-linecap="round"/>
<path d="M79.6626 49.4643C79.6626 49.4643 79.6012 47.2416 77.2891 47.2416C75.0147 47.2416 74.8403 49.4643 74.8403 49.4643" stroke="#272727" stroke-width="1.01066" stroke-linecap="round"/>
<path d="M67.4769 55.1751C67.4769 55.1751 67.5828 58.7129 71.5731 58.7129C75.4983 58.7129 75.7993 55.1751 75.7993 55.1751" stroke="#272727" stroke-width="0.952828" stroke-linecap="round"/>
</svg>
