<svg width="92" height="80" viewBox="0 0 92 80" fill="none" xmlns="http://www.w3.org/2000/svg">
<path d="M13.5184 25.0294H1.73927C1.33098 25.0294 1 25.3882 1 25.8307V76.0182C1 76.4607 1.33098 76.8194 1.73927 76.8194H13.5184C13.9267 76.8194 14.2576 76.4607 14.2576 76.0182V25.8307C14.2576 25.3882 13.9267 25.0294 13.5184 25.0294Z" fill="#9882E3" stroke="#272727" stroke-width="2" stroke-linecap="round" stroke-linejoin="round"/>
<path d="M38.389 37.3384H26.0479C25.6396 37.3384 25.3086 37.6972 25.3086 38.1397V76.0185C25.3086 76.461 25.6396 76.8197 26.0479 76.8197H38.389C38.7973 76.8197 39.1283 76.461 39.1283 76.0185V38.1397C39.1283 37.6972 38.7973 37.3384 38.389 37.3384Z" fill="#9882E3" stroke="#272727" stroke-width="2" stroke-linecap="round" stroke-linejoin="round"/>
<path d="M62.0903 20H50.4922C50.0839 20 49.7529 20.3587 49.7529 20.8012V75.4412C49.7529 75.8837 50.0839 76.2425 50.4922 76.2425H62.0903C62.4986 76.2425 62.8296 75.8837 62.8296 75.4412V20.8012C62.8296 20.3587 62.4986 20 62.0903 20Z" fill="#9882E3" stroke="#272727" stroke-width="2" stroke-linecap="round" stroke-linejoin="round"/>
<path d="M88.3766 34.1893H76.2029C75.7946 34.1893 75.4636 34.5481 75.4636 34.9906V76.3058C75.4636 76.7483 75.7946 77.107 76.2029 77.107H88.3766C88.7849 77.107 89.1159 76.7483 89.1159 76.3058V34.9906C89.1159 34.5481 88.7849 34.1893 88.3766 34.1893Z" fill="#9882E3" stroke="#272727" stroke-width="2" stroke-linecap="round" stroke-linejoin="round"/>
<path d="M31.7557 21.6758C32.1952 21.6203 32.6388 21.7414 32.9891 22.0125C33.3395 22.2836 33.568 22.6826 33.6247 23.1219C33.6813 23.5613 33.5614 24.0052 33.2912 24.3563C33.021 24.7073 32.6226 24.9369 32.1834 24.9947C31.7442 25.0525 31.3 24.9337 30.9482 24.6645C30.5965 24.3952 30.3658 23.9975 30.3069 23.5584C30.2479 23.1193 30.3655 22.6748 30.6338 22.3223C30.9022 21.9699 31.2993 21.7382 31.7382 21.6781" fill="#F7C326"/>
<path d="M31.7557 21.6758C32.1952 21.6203 32.6388 21.7414 32.9891 22.0125C33.3395 22.2836 33.568 22.6826 33.6247 23.1219C33.6813 23.5613 33.5614 24.0052 33.2912 24.3563C33.021 24.7073 32.6226 24.9369 32.1834 24.9947C31.7442 25.0525 31.3 24.9337 30.9482 24.6645C30.5965 24.3952 30.3658 23.9975 30.3069 23.5584C30.2479 23.1193 30.3655 22.6748 30.6338 22.3223C30.9022 21.9699 31.2993 21.7382 31.7382 21.6781" stroke="#F7C326" stroke-width="5.99016" stroke-linecap="round" stroke-linejoin="round"/>
<path d="M6.78645 5.07244C7.22596 5.01697 7.66953 5.13806 8.01989 5.40916C8.37025 5.68026 8.59881 6.07923 8.65543 6.5186C8.71206 6.95796 8.59213 7.40185 8.32196 7.75292C8.05178 8.10399 7.65341 8.33359 7.21419 8.39137C6.77498 8.44915 6.33078 8.3304 5.979 8.06115C5.62722 7.7919 5.39657 7.39413 5.33763 6.95507C5.2787 6.51601 5.39629 6.0715 5.66461 5.71901C5.93293 5.36652 6.33009 5.13483 6.76899 5.07474" fill="#F7C326"/>
<path d="M6.78645 5.07244C7.22596 5.01697 7.66953 5.13806 8.01989 5.40916C8.37025 5.68026 8.59881 6.07923 8.65543 6.5186C8.71206 6.95796 8.59213 7.40185 8.32196 7.75292C8.05178 8.10399 7.65341 8.33359 7.21419 8.39137C6.77498 8.44915 6.33078 8.3304 5.979 8.06115C5.62722 7.7919 5.39657 7.39413 5.33763 6.95507C5.2787 6.51601 5.39629 6.0715 5.66461 5.71901C5.93293 5.36652 6.33009 5.13483 6.76899 5.07474" stroke="#F7C326" stroke-width="5.99016" stroke-linecap="round" stroke-linejoin="round"/>
<path d="M55.3092 3.01317C55.7487 2.95771 56.1922 3.0788 56.5426 3.3499C56.893 3.62099 57.1215 4.01997 57.1781 4.45933C57.2348 4.8987 57.1148 5.34258 56.8447 5.69366C56.5745 6.04473 56.1761 6.27433 55.7369 6.33211C55.2977 6.38989 54.8535 6.27113 54.5017 6.00188C54.1499 5.73263 53.9193 5.33487 53.8603 4.89581C53.8014 4.45675 53.919 4.01223 54.1873 3.65975C54.4556 3.30726 54.8528 3.07556 55.2917 3.01547" fill="#F7C326"/>
<path d="M55.3092 3.01317C55.7487 2.95771 56.1922 3.0788 56.5426 3.3499C56.893 3.62099 57.1215 4.01997 57.1781 4.45933C57.2348 4.8987 57.1148 5.34258 56.8447 5.69366C56.5745 6.04473 56.1761 6.27433 55.7369 6.33211C55.2977 6.38989 54.8535 6.27113 54.5017 6.00188C54.1499 5.73263 53.9193 5.33487 53.8603 4.89581C53.8014 4.45675 53.919 4.01223 54.1873 3.65975C54.4556 3.30726 54.8528 3.07556 55.2917 3.01547" stroke="#F7C326" stroke-width="5.99016" stroke-linecap="round" stroke-linejoin="round"/>
<path d="M82.3375 21.547C82.777 21.4915 83.2206 21.6126 83.5709 21.8837C83.9213 22.1548 84.1498 22.5538 84.2065 22.9931C84.2631 23.4325 84.1432 23.8764 83.873 24.2275C83.6028 24.5785 83.2044 24.8081 82.7652 24.8659C82.326 24.9237 81.8818 24.8049 81.53 24.5357C81.1782 24.2664 80.9476 23.8687 80.8887 23.4296C80.8297 22.9905 80.9473 22.546 81.2156 22.1935C81.484 21.8411 81.8811 21.6094 82.32 21.5493" fill="#F7C326"/>
<path d="M82.3375 21.547C82.777 21.4915 83.2206 21.6126 83.5709 21.8837C83.9213 22.1548 84.1498 22.5538 84.2065 22.9931C84.2631 23.4325 84.1432 23.8764 83.873 24.2275C83.6028 24.5785 83.2044 24.8081 82.7652 24.8659C82.326 24.9237 81.8818 24.8049 81.53 24.5357C81.1782 24.2664 80.9476 23.8687 80.8887 23.4296C80.8297 22.9905 80.9473 22.546 81.2156 22.1935C81.484 21.8411 81.8811 21.6094 82.32 21.5493" stroke="#F7C326" stroke-width="5.99016" stroke-linecap="round" stroke-linejoin="round"/>
<path d="M31.8362 23.4645L55.5184 4.80191L82.4826 23.4323" stroke="#F7C326" stroke-width="2.41108"/>
<path d="M6.76782 6.75485L31.8365 23.4645" stroke="#F7C326" stroke-width="2.41108"/>
<path d="M15.5184 27.0294H3.73927C3.33098 27.0294 3 27.3882 3 27.8307V78.0182C3 78.4607 3.33098 78.8194 3.73927 78.8194H15.5184C15.9267 78.8194 16.2576 78.4607 16.2576 78.0182V27.8307C16.2576 27.3882 15.9267 27.0294 15.5184 27.0294Z" fill="#272727" stroke="#272727" stroke-width="2" stroke-linecap="round" stroke-linejoin="round"/>
<path d="M40.389 39.3384H28.0479C27.6396 39.3384 27.3086 39.6972 27.3086 40.1397V78.0185C27.3086 78.461 27.6396 78.8197 28.0479 78.8197H40.389C40.7973 78.8197 41.1283 78.461 41.1283 78.0185V40.1397C41.1283 39.6972 40.7973 39.3384 40.389 39.3384Z" fill="#272727" stroke="#272727" stroke-width="2" stroke-linecap="round" stroke-linejoin="round"/>
<path d="M64.0903 22H52.4922C52.0839 22 51.7529 22.3587 51.7529 22.8012V77.4412C51.7529 77.8837 52.0839 78.2425 52.4922 78.2425H64.0903C64.4986 78.2425 64.8296 77.8837 64.8296 77.4412V22.8012C64.8296 22.3587 64.4986 22 64.0903 22Z" fill="#272727" stroke="#272727" stroke-width="2" stroke-linecap="round" stroke-linejoin="round"/>
<path d="M89.913 36H77.7393C77.331 36 77 36.3587 77 36.8012V78.1164C77 78.5589 77.331 78.9176 77.7393 78.9176H89.913C90.3213 78.9176 90.6523 78.5589 90.6523 78.1164V36.8012C90.6523 36.3587 90.3213 36 89.913 36Z" fill="#272727" stroke="#272727" stroke-width="2" stroke-linecap="round" stroke-linejoin="round"/>
<path d="M13.5184 25.0294H1.73927C1.33098 25.0294 1 25.3882 1 25.8307V76.0182C1 76.4607 1.33098 76.8194 1.73927 76.8194H13.5184C13.9267 76.8194 14.2576 76.4607 14.2576 76.0182V25.8307C14.2576 25.3882 13.9267 25.0294 13.5184 25.0294Z" fill="#9882E3" stroke="#272727" stroke-width="2" stroke-linecap="round" stroke-linejoin="round"/>
<path d="M38.389 37.3384H26.0479C25.6396 37.3384 25.3086 37.6972 25.3086 38.1397V76.0185C25.3086 76.461 25.6396 76.8197 26.0479 76.8197H38.389C38.7973 76.8197 39.1283 76.461 39.1283 76.0185V38.1397C39.1283 37.6972 38.7973 37.3384 38.389 37.3384Z" fill="#9882E3" stroke="#272727" stroke-width="2" stroke-linecap="round" stroke-linejoin="round"/>
<path d="M62.0903 20H50.4922C50.0839 20 49.7529 20.3587 49.7529 20.8012V75.4412C49.7529 75.8837 50.0839 76.2425 50.4922 76.2425H62.0903C62.4986 76.2425 62.8296 75.8837 62.8296 75.4412V20.8012C62.8296 20.3587 62.4986 20 62.0903 20Z" fill="#9882E3" stroke="#272727" stroke-width="2" stroke-linecap="round" stroke-linejoin="round"/>
<path d="M88.3766 34.1893H76.2029C75.7946 34.1893 75.4636 34.5481 75.4636 34.9906V76.3058C75.4636 76.7483 75.7946 77.107 76.2029 77.107H88.3766C88.7849 77.107 89.1159 76.7483 89.1159 76.3058V34.9906C89.1159 34.5481 88.7849 34.1893 88.3766 34.1893Z" fill="#9882E3" stroke="#272727" stroke-width="2" stroke-linecap="round" stroke-linejoin="round"/>
<path d="M31.7557 21.6758C32.1952 21.6203 32.6388 21.7414 32.9891 22.0125C33.3395 22.2836 33.568 22.6826 33.6247 23.1219C33.6813 23.5613 33.5614 24.0052 33.2912 24.3563C33.021 24.7073 32.6226 24.9369 32.1834 24.9947C31.7442 25.0525 31.3 24.9337 30.9482 24.6645C30.5965 24.3952 30.3658 23.9975 30.3069 23.5584C30.2479 23.1193 30.3655 22.6748 30.6338 22.3223C30.9022 21.9699 31.2993 21.7382 31.7382 21.6781" fill="#F7C326"/>
<path d="M31.7557 21.6758C32.1952 21.6203 32.6388 21.7414 32.9891 22.0125C33.3395 22.2836 33.568 22.6826 33.6247 23.1219C33.6813 23.5613 33.5614 24.0052 33.2912 24.3563C33.021 24.7073 32.6226 24.9369 32.1834 24.9947C31.7442 25.0525 31.3 24.9337 30.9482 24.6645C30.5965 24.3952 30.3658 23.9975 30.3069 23.5584C30.2479 23.1193 30.3655 22.6748 30.6338 22.3223C30.9022 21.9699 31.2993 21.7382 31.7382 21.6781" stroke="#F7C326" stroke-width="5.99016" stroke-linecap="round" stroke-linejoin="round"/>
<path d="M6.78645 5.07244C7.22596 5.01697 7.66953 5.13806 8.01989 5.40916C8.37025 5.68026 8.59881 6.07923 8.65543 6.5186C8.71206 6.95796 8.59213 7.40185 8.32196 7.75292C8.05178 8.10399 7.65341 8.33359 7.21419 8.39137C6.77498 8.44915 6.33078 8.3304 5.979 8.06115C5.62722 7.7919 5.39657 7.39413 5.33763 6.95507C5.2787 6.51601 5.39629 6.0715 5.66461 5.71901C5.93293 5.36652 6.33009 5.13483 6.76899 5.07474" fill="#F7C326"/>
<path d="M6.78645 5.07244C7.22596 5.01697 7.66953 5.13806 8.01989 5.40916C8.37025 5.68026 8.59881 6.07923 8.65543 6.5186C8.71206 6.95796 8.59213 7.40185 8.32196 7.75292C8.05178 8.10399 7.65341 8.33359 7.21419 8.39137C6.77498 8.44915 6.33078 8.3304 5.979 8.06115C5.62722 7.7919 5.39657 7.39413 5.33763 6.95507C5.2787 6.51601 5.39629 6.0715 5.66461 5.71901C5.93293 5.36652 6.33009 5.13483 6.76899 5.07474" stroke="#F7C326" stroke-width="5.99016" stroke-linecap="round" stroke-linejoin="round"/>
<path d="M55.3092 3.01317C55.7487 2.95771 56.1922 3.0788 56.5426 3.3499C56.893 3.62099 57.1215 4.01997 57.1781 4.45933C57.2348 4.8987 57.1148 5.34258 56.8447 5.69366C56.5745 6.04473 56.1761 6.27433 55.7369 6.33211C55.2977 6.38989 54.8535 6.27113 54.5017 6.00188C54.1499 5.73263 53.9193 5.33487 53.8603 4.89581C53.8014 4.45675 53.919 4.01223 54.1873 3.65975C54.4556 3.30726 54.8528 3.07556 55.2917 3.01547" fill="#F7C326"/>
<path d="M55.3092 3.01317C55.7487 2.95771 56.1922 3.0788 56.5426 3.3499C56.893 3.62099 57.1215 4.01997 57.1781 4.45933C57.2348 4.8987 57.1148 5.34258 56.8447 5.69366C56.5745 6.04473 56.1761 6.27433 55.7369 6.33211C55.2977 6.38989 54.8535 6.27113 54.5017 6.00188C54.1499 5.73263 53.9193 5.33487 53.8603 4.89581C53.8014 4.45675 53.919 4.01223 54.1873 3.65975C54.4556 3.30726 54.8528 3.07556 55.2917 3.01547" stroke="#F7C326" stroke-width="5.99016" stroke-linecap="round" stroke-linejoin="round"/>
<path d="M82.3375 21.547C82.777 21.4915 83.2206 21.6126 83.5709 21.8837C83.9213 22.1548 84.1498 22.5538 84.2065 22.9931C84.2631 23.4325 84.1432 23.8764 83.873 24.2275C83.6028 24.5785 83.2044 24.8081 82.7652 24.8659C82.326 24.9237 81.8818 24.8049 81.53 24.5357C81.1782 24.2664 80.9476 23.8687 80.8887 23.4296C80.8297 22.9905 80.9473 22.546 81.2156 22.1935C81.484 21.8411 81.8811 21.6094 82.32 21.5493" fill="#F7C326"/>
<path d="M82.3375 21.547C82.777 21.4915 83.2206 21.6126 83.5709 21.8837C83.9213 22.1548 84.1498 22.5538 84.2065 22.9931C84.2631 23.4325 84.1432 23.8764 83.873 24.2275C83.6028 24.5785 83.2044 24.8081 82.7652 24.8659C82.326 24.9237 81.8818 24.8049 81.53 24.5357C81.1782 24.2664 80.9476 23.8687 80.8887 23.4296C80.8297 22.9905 80.9473 22.546 81.2156 22.1935C81.484 21.8411 81.8811 21.6094 82.32 21.5493" stroke="#F7C326" stroke-width="5.99016" stroke-linecap="round" stroke-linejoin="round"/>
<path d="M31.8362 23.4645L55.5184 4.80191L82.4826 23.4323" stroke="#F7C326" stroke-width="2.41108"/>
<path d="M6.76782 6.75485L31.8365 23.4645" stroke="#F7C326" stroke-width="2.41108"/>
<circle cx="7" cy="7" r="5" fill="#F7C326"/>
</svg>
