<svg width="93" height="91" viewBox="0 0 93 91" fill="none" xmlns="http://www.w3.org/2000/svg">
<path d="M39.7818 14.0305C49.5822 13.5653 59.1839 17.0093 66.4812 23.6072C73.7786 30.2051 78.1759 39.4185 78.7091 49.2268C79.2422 59.0351 75.8676 68.6379 69.3252 75.9293C62.7829 83.2207 53.6067 87.6056 43.8091 88.1224C34.0115 88.6392 24.3921 85.2458 17.0603 78.6862C9.72854 72.1266 5.28286 62.9364 4.69816 53.1308C4.11347 43.3251 7.43749 33.7045 13.9413 26.3786C20.4451 19.0527 29.5978 14.6194 39.3923 14.051" fill="#272727"/>
<path d="M39.7818 14.0305C49.5822 13.5653 59.1839 17.0093 66.4812 23.6072C73.7786 30.2051 78.1759 39.4185 78.7091 49.2268C79.2422 59.0351 75.8676 68.6379 69.3252 75.9293C62.7829 83.2207 53.6067 87.6056 43.8091 88.1224C34.0115 88.6392 24.3921 85.2458 17.0603 78.6862C9.72854 72.1266 5.28286 62.9364 4.69816 53.1308C4.11347 43.3251 7.43749 33.7045 13.9413 26.3786C20.4451 19.0527 29.5978 14.6194 39.3923 14.051" stroke="#272727" stroke-width="2.63662" stroke-linecap="round" stroke-linejoin="round" stroke-dasharray="0.26 0.26"/>
<path d="M37.7818 13.0306C47.5822 12.5654 57.1839 16.0094 64.4812 22.6073C71.7786 29.2053 76.1759 38.4186 76.7091 48.2269C77.2422 58.0353 73.8676 67.638 67.3252 74.9294C60.7829 82.2208 51.6067 86.6057 41.8091 87.1225C32.0115 87.6393 22.3921 84.2459 15.0603 77.6863C7.72854 71.1268 3.28286 61.9365 2.69816 52.1309C2.11347 42.3253 5.43749 32.7046 11.9413 25.3787C18.4451 18.0528 27.5978 13.6196 37.3923 13.0512" fill="#9882E3"/>
<path d="M37.7818 13.0306C47.5822 12.5654 57.1839 16.0094 64.4812 22.6073C71.7786 29.2053 76.1759 38.4186 76.7091 48.2269C77.2422 58.0353 73.8676 67.638 67.3252 74.9294C60.7829 82.2208 51.6067 86.6057 41.8091 87.1225C32.0115 87.6393 22.3921 84.2459 15.0603 77.6863C7.72854 71.1268 3.28286 61.9365 2.69816 52.1309C2.11347 42.3253 5.43749 32.7046 11.9413 25.3787C18.4451 18.0528 27.5978 13.6196 37.3923 13.0512" stroke="#272727" stroke-width="2.63662" stroke-linecap="round" stroke-linejoin="round" stroke-dasharray="0.26 0.26"/>
<path d="M41.8164 2.00023C41.8164 2.00023 41.8426 1.99842 41.8917 2.00495C44.0046 2.28125 61.4688 3.50209 74.9881 15.8145C89.02 28.5938 89.064 48.1431 89.064 48.1431" stroke="#272727" stroke-width="2.07769" stroke-linecap="round" stroke-dasharray="6.23 6.23"/>
<path d="M86.0371 46.874L89.1949 50.615L91.7369 46.6498" stroke="#272727" stroke-width="1.98963" stroke-linecap="round" stroke-linejoin="round"/>
<path d="M42.7731 25.6884C42.7782 24.4301 41.7622 23.4058 40.5038 23.4007C39.2455 23.3956 38.2212 24.4116 38.2161 25.67L42.7731 25.6884ZM38.1395 44.5459L38.1302 46.8244L42.6872 46.8429L42.6964 44.5644L38.1395 44.5459ZM38.2161 25.67L38.1395 44.5459L42.6964 44.5644L42.7731 25.6884L38.2161 25.67Z" fill="#272727"/>
<path d="M61.7887 52.0907C63.0448 52.0988 64.0696 51.0872 64.0777 49.8311C64.0858 48.5751 63.0742 47.5503 61.8182 47.5422L61.7887 52.0907ZM45.2667 47.435L42.9924 47.4202L42.963 51.9688L45.2372 51.9835L45.2667 47.435ZM61.8182 47.5422L45.2667 47.435L45.2372 51.9835L61.7887 52.0907L61.8182 47.5422Z" fill="#272727"/>
<path d="M39.8816 46.2141C40.7979 46.0985 41.7226 46.3509 42.453 46.9161C43.1835 47.4813 43.6599 48.3132 43.778 49.2292C43.896 50.1452 43.646 51.0706 43.0828 51.8026C42.5195 52.5345 41.689 53.0132 40.7733 53.1336C39.8577 53.2541 38.9316 53.0065 38.1982 52.4452C37.4648 51.8838 36.984 51.0545 36.8611 50.1392C36.7382 49.2238 36.9834 48.297 37.5428 47.5621C38.1022 46.8272 38.9302 46.3442 39.8452 46.2189" fill="#F7C326"/>
<path d="M39.8816 46.2141C40.7979 46.0985 41.7226 46.3509 42.453 46.9161C43.1835 47.4813 43.6599 48.3132 43.778 49.2292C43.896 50.1452 43.646 51.0706 43.0828 51.8026C42.5195 52.5345 41.689 53.0132 40.7733 53.1336C39.8577 53.2541 38.9316 53.0065 38.1982 52.4452C37.4648 51.8838 36.984 51.0545 36.8611 50.1392C36.7382 49.2238 36.9834 48.297 37.5428 47.5621C38.1022 46.8272 38.9302 46.3442 39.8452 46.2189" stroke="#272727" stroke-width="1.54058" stroke-linecap="round" stroke-linejoin="round" stroke-dasharray="0.15 0.15"/>
</svg>
