<svg width="103" height="99" viewBox="0 0 103 99" fill="none" xmlns="http://www.w3.org/2000/svg">
<path d="M53.1256 2C72.2644 2.12556 99.9262 15.1573 101 48.8568C101 77.9828 81.1893 97 52.2638 97C16.8393 97 7.23893 67.7644 5.72285 54.4816L5 48.1484" stroke="#272727" stroke-width="2.10148" stroke-linecap="round" stroke-dasharray="6.3 6.3"/>
<path d="M52.6703 13.7509C62.4713 13.2857 72.0735 16.7297 79.3713 23.3277C86.669 29.9256 91.0667 39.139 91.5999 48.9474C92.1331 58.7557 88.7583 68.3584 82.2156 75.6498C75.6729 82.9412 66.4963 87.326 56.6982 87.8428C46.9 88.3596 37.2801 84.9661 29.9479 78.4065C22.6156 71.8469 18.1697 62.6566 17.5849 52.851C17.0001 43.0454 20.3243 33.4248 26.8284 26.0989C33.3326 18.773 42.4858 14.3398 52.2808 13.7714" fill="#272727"/>
<path d="M52.6703 13.7509C62.4713 13.2857 72.0735 16.7297 79.3713 23.3277C86.669 29.9256 91.0667 39.139 91.5999 48.9474C92.1331 58.7557 88.7583 68.3584 82.2156 75.6498C75.6729 82.9412 66.4963 87.326 56.6982 87.8428C46.9 88.3596 37.2801 84.9661 29.9479 78.4065C22.6156 71.8469 18.1697 62.6566 17.5849 52.851C17.0001 43.0454 20.3243 33.4248 26.8284 26.0989C33.3326 18.773 42.4858 14.3398 52.2808 13.7714" stroke="#272727" stroke-width="2.66681" stroke-linecap="round" stroke-linejoin="round" stroke-dasharray="0.27 0.27"/>
<path d="M50.6703 12.7509C60.4713 12.2857 70.0735 15.7297 77.3713 22.3277C84.669 28.9256 89.0667 38.139 89.5999 47.9474C90.1331 57.7557 86.7583 67.3584 80.2156 74.6498C73.6729 81.9412 64.4963 86.326 54.6982 86.8428C44.9 87.3596 35.2801 83.9661 27.9479 77.4065C20.6156 70.8469 16.1697 61.6566 15.5849 51.851C15.0001 42.0454 18.3243 32.4248 24.8284 25.0989C31.3326 17.773 40.4858 13.3398 50.2808 12.7714" fill="#9882E3"/>
<path d="M50.6703 12.7509C60.4713 12.2857 70.0735 15.7297 77.3713 22.3277C84.669 28.9256 89.0667 38.139 89.5999 47.9474C90.1331 57.7557 86.7583 67.3584 80.2156 74.6498C73.6729 81.9412 64.4963 86.326 54.6982 86.8428C44.9 87.3596 35.2801 83.9661 27.9479 77.4065C20.6156 70.8469 16.1697 61.6566 15.5849 51.851C15.0001 42.0454 18.3243 32.4248 24.8284 25.0989C31.3326 17.773 40.4858 13.3398 50.2808 12.7714" stroke="#272727" stroke-width="2.66681" stroke-linecap="round" stroke-linejoin="round" stroke-dasharray="0.27 0.27"/>
<path d="M56.0852 25.0376C56.0904 23.7648 55.0628 22.7288 53.79 22.7236C52.5172 22.7185 51.4812 23.7461 51.476 25.0188L56.0852 25.0376ZM51.3986 44.1109L51.3892 46.4155L55.9983 46.4342L56.0077 44.1296L51.3986 44.1109ZM51.476 25.0188L51.3986 44.1109L56.0077 44.1296L56.0852 25.0376L51.476 25.0188Z" fill="#272727"/>
<path d="M30.9973 47.5813C29.7269 47.5731 28.6903 48.5963 28.6821 49.8667C28.6739 51.1371 29.6971 52.1737 30.9675 52.1819L30.9973 47.5813ZM47.7086 52.2903L50.0089 52.3052L50.0386 47.7046L47.7383 47.6897L47.7086 52.2903ZM30.9675 52.1819L47.7086 52.2903L47.7383 47.6897L30.9973 47.5813L30.9675 52.1819Z" fill="#272727"/>
<path d="M53.1587 46.3464C54.0855 46.2294 55.0208 46.4848 55.7596 47.0564C56.4984 47.6281 56.9803 48.4694 57.0997 49.3959C57.2192 50.3225 56.9663 51.2585 56.3966 51.9988C55.8269 52.7391 54.9868 53.2233 54.0607 53.3451C53.1345 53.467 52.1979 53.2166 51.4561 52.6488C50.7143 52.081 50.2279 51.2422 50.1036 50.3163C49.9794 49.3905 50.2273 48.4531 50.7931 47.7098C51.3589 46.9665 52.1964 46.4779 53.1219 46.3512" fill="#F7C326"/>
<path d="M53.1587 46.3464C54.0855 46.2294 55.0208 46.4848 55.7596 47.0564C56.4984 47.6281 56.9803 48.4694 57.0997 49.3959C57.2192 50.3225 56.9663 51.2585 56.3966 51.9988C55.8269 52.7391 54.9868 53.2233 54.0607 53.3451C53.1345 53.467 52.1979 53.2166 51.4561 52.6488C50.7143 52.081 50.2279 51.2422 50.1036 50.3163C49.9794 49.3905 50.2273 48.4531 50.7931 47.7098C51.3589 46.9665 52.1964 46.4779 53.1219 46.3512" stroke="#272727" stroke-width="1.55822" stroke-linecap="round" stroke-linejoin="round" stroke-dasharray="0.16 0.16"/>
<path d="M8 49.7558L4.66285 46L2 50" stroke="#272727" stroke-width="2.01241" stroke-linecap="round" stroke-linejoin="round"/>
</svg>
