<svg width="87" height="98" viewBox="0 0 87 98" fill="none" xmlns="http://www.w3.org/2000/svg">
<path d="M39.7836 9.99987C49.5846 9.53472 59.1868 12.9788 66.4845 19.5767C73.7823 26.1747 78.18 35.388 78.7132 45.1964C79.2464 55.0047 75.8716 64.6075 69.3289 71.8988C62.7862 79.1902 53.6096 83.5751 43.8114 84.0918C34.0133 84.6086 24.3933 81.2151 17.0611 74.6555C9.72893 68.0959 5.28296 58.9056 4.69818 49.1C4.11341 39.2944 7.43758 29.6738 13.9417 22.3479C20.4458 15.022 29.599 10.5888 39.3941 10.0204" fill="#272727"/>
<path d="M39.7836 9.99987C49.5846 9.53472 59.1868 12.9788 66.4845 19.5767C73.7823 26.1747 78.18 35.388 78.7132 45.1964C79.2464 55.0047 75.8716 64.6075 69.3289 71.8988C62.7862 79.1902 53.6096 83.5751 43.8114 84.0918C34.0133 84.6086 24.3933 81.2151 17.0611 74.6555C9.72893 68.0959 5.28296 58.9056 4.69818 49.1C4.11341 39.2944 7.43758 29.6738 13.9417 22.3479C20.4458 15.022 29.599 10.5888 39.3941 10.0204" stroke="#272727" stroke-width="2.66311" stroke-linecap="round" stroke-linejoin="round" stroke-dasharray="0.27 0.27"/>
<path d="M37.7836 8.99987C47.5846 8.53472 57.1868 11.9788 64.4845 18.5767C71.7823 25.1747 76.18 34.388 76.7132 44.1964C77.2464 54.0047 73.8716 63.6075 67.3289 70.8988C60.7862 78.1902 51.6096 82.5751 41.8114 83.0918C32.0133 83.6086 22.3933 80.2151 15.0611 73.6555C7.72893 67.0959 3.28296 57.9056 2.69818 48.1C2.11341 38.2944 5.43758 28.6738 11.9417 21.3479C18.4458 14.022 27.599 9.58879 37.3941 9.02043" fill="#9882E3"/>
<path d="M37.7836 8.99987C47.5846 8.53472 57.1868 11.9788 64.4845 18.5767C71.7823 25.1747 76.18 34.388 76.7132 44.1964C77.2464 54.0047 73.8716 63.6075 67.3289 70.8988C60.7862 78.1902 51.6096 82.5751 41.8114 83.0918C32.0133 83.6086 22.3933 80.2151 15.0611 73.6555C7.72893 67.0959 3.28296 57.9056 2.69818 48.1C2.11341 38.2944 5.43758 28.6738 11.9417 21.3479C18.4458 14.022 27.599 9.58879 37.3941 9.02043" stroke="#272727" stroke-width="2.66311" stroke-linecap="round" stroke-linejoin="round" stroke-dasharray="0.27 0.27"/>
<path d="M43.1483 21.8132C43.1535 20.5422 42.1273 19.5076 40.8563 19.5025C39.5852 19.4973 38.5507 20.5235 38.5455 21.7945L43.1483 21.8132ZM38.4682 40.8601L38.4588 43.1615L43.0616 43.1802L43.0709 40.8788L38.4682 40.8601ZM38.5455 21.7945L38.4682 40.8601L43.0709 40.8788L43.1483 21.8132L38.5455 21.7945Z" fill="#272727"/>
<path d="M38.4666 67.8874C38.4583 69.156 39.4801 70.1911 40.7488 70.1994C42.0174 70.2076 43.0526 69.1858 43.0608 67.9171L38.4666 67.8874ZM43.1691 51.1993L43.184 48.9022L38.5898 48.8725L38.5749 51.1696L43.1691 51.1993ZM43.0608 67.9171L43.1691 51.1993L38.5749 51.1696L38.4666 67.8874L43.0608 67.9171Z" fill="#272727"/>
<path d="M40.2267 42.5451C41.1522 42.4283 42.0862 42.6833 42.824 43.2541C43.5617 43.825 44.043 44.6652 44.1623 45.5904C44.2815 46.5156 44.029 47.4504 43.46 48.1897C42.8911 48.929 42.0523 49.4124 41.1274 49.5341C40.2025 49.6558 39.2672 49.4057 38.5264 48.8387C37.7857 48.2717 37.3 47.4341 37.1759 46.5095C37.0518 45.5849 37.2994 44.6489 37.8644 43.9066C38.4294 43.1644 39.2657 42.6764 40.1899 42.5499" fill="#F7C326"/>
<path d="M40.2267 42.5451C41.1522 42.4283 42.0862 42.6833 42.824 43.2541C43.5617 43.825 44.043 44.6652 44.1623 45.5904C44.2815 46.5156 44.029 47.4504 43.46 48.1897C42.8911 48.929 42.0523 49.4124 41.1274 49.5341C40.2025 49.6558 39.2672 49.4057 38.5264 48.8387C37.7857 48.2717 37.3 47.4341 37.1759 46.5095C37.0518 45.5849 37.2994 44.6489 37.8644 43.9066C38.4294 43.1644 39.2657 42.6764 40.1899 42.5499" stroke="#272727" stroke-width="1.55606" stroke-linecap="round" stroke-linejoin="round" stroke-dasharray="0.16 0.16"/>
<path d="M40.7862 90L37 93.3151L41 96" stroke="#272727" stroke-width="2.00962" stroke-linecap="round" stroke-linejoin="round"/>
<path d="M37 2.01633C37 2.01633 37.1288 1.98549 37.3706 2.00858C41.1568 2.31661 59.4196 2.13316 72.5118 15.2525C78.994 21.7481 84.9086 31.095 84.9986 45.7272C85.2858 92.3937 39.6895 93 39.6895 93" stroke="#272727" stroke-width="2.09857" stroke-linecap="round" stroke-dasharray="6.3 6.3"/>
</svg>
