<svg width="178" height="178" viewBox="0 0 178 178" fill="none" xmlns="http://www.w3.org/2000/svg">
<circle cx="89" cy="88" r="84" fill="white"/>
<path d="M89 99.2692C94.6715 99.2692 99.2692 94.6715 99.2692 89C99.2692 83.3285 94.6715 78.7308 89 78.7308C83.3285 78.7308 78.7308 83.3285 78.7308 89C78.7308 94.6715 83.3285 99.2692 89 99.2692Z" fill="#F46142"/>
<path d="M89 0C39.9259 0 0 39.9259 0 89C0 138.074 39.9259 178 89 178C138.074 178 178 138.074 178 89C178 39.9259 138.074 0 89 0ZM133.958 48.4922L113.899 98.6402C112.521 102.084 110.459 105.213 107.836 107.836C105.213 110.459 102.084 112.521 98.6402 113.899L48.4922 133.958C47.8701 134.207 47.1886 134.268 46.5322 134.133C45.8759 133.998 45.2734 133.674 44.7996 133.2C44.3258 132.727 44.0015 132.124 43.8669 131.468C43.7322 130.811 43.7932 130.13 44.0422 129.508L64.1014 79.3598C65.4787 75.9156 67.5414 72.7872 70.1643 70.1643C72.7872 67.5414 75.9156 65.4787 79.3598 64.1014L129.508 44.0422C130.13 43.7932 130.811 43.7322 131.468 43.8669C132.124 44.0015 132.727 44.3258 133.2 44.7996C133.674 45.2734 133.998 45.8759 134.133 46.5322C134.268 47.1886 134.207 47.8701 133.958 48.4922Z" fill="#F46142"/>
</svg>
