<svg width="176" height="114" viewBox="0 0 176 114" fill="none" xmlns="http://www.w3.org/2000/svg">
<rect x="1" y="1" width="174" height="111.857" rx="5" fill="white" stroke="#EA9B1D" stroke-width="2"/>
<path d="M157.699 99.5056H136.221C135.673 99.5056 135.229 99.0856 135.229 98.5675V78.9954C135.229 78.4773 135.673 78.0572 136.221 78.0572H157.699C158.247 78.0572 158.691 78.4773 158.691 78.9954V98.5675C158.691 99.0856 158.247 99.5056 157.699 99.5056Z" fill="white" stroke="#EA9B1D" stroke-width="2" stroke-linecap="round" stroke-linejoin="round"/>
<path d="M19.3917 99.5056H40.8701C41.4181 99.5056 41.8623 99.0856 41.8623 98.5675V78.9954C41.8623 78.4773 41.4181 78.0572 40.8701 78.0572H19.3917C18.8438 78.0572 18.3995 78.4773 18.3995 78.9954V98.5675C18.3995 99.0856 18.8438 99.5056 19.3917 99.5056Z" fill="white" stroke="#EA9B1D" stroke-width="2" stroke-linecap="round" stroke-linejoin="round"/>
<path d="M19.3927 13.4285H40.8711C41.4191 13.4285 41.8633 13.8485 41.8633 14.3666V33.9387C41.8633 34.4568 41.4191 34.8768 40.8711 34.8768H19.3927C18.8447 34.8768 18.4005 34.4568 18.4005 33.9387V14.3666C18.4005 13.8485 18.8447 13.4285 19.3927 13.4285Z" fill="white" stroke="#EA9B1D" stroke-width="2" stroke-linecap="round" stroke-linejoin="round"/>
<path d="M38.6686 20.7566L22.4658 20.8282" stroke="#EA9B1D" stroke-width="2" stroke-linecap="round"/>
<path d="M35.8928 25.1104L22.8291 25.1967" stroke="#EA9B1D" stroke-width="2" stroke-linecap="round"/>
<path d="M157.699 13.4285H136.221C135.673 13.4285 135.229 13.8485 135.229 14.3666V33.9387C135.229 34.4568 135.673 34.8768 136.221 34.8768H157.699C158.247 34.8768 158.691 34.4568 158.691 33.9387V14.3666C158.691 13.8485 158.247 13.4285 157.699 13.4285Z" fill="white" stroke="#EA9B1D" stroke-width="2" stroke-linecap="round" stroke-linejoin="round"/>
<path d="M138.423 20.7566L154.626 20.8282" stroke="#EA9B1D" stroke-width="2" stroke-linecap="round"/>
<path d="M141.199 25.1104L154.263 25.1967" stroke="#EA9B1D" stroke-width="2" stroke-linecap="round"/>
<path d="M94.0263 78.8066H82.4688C81.6204 78.8066 80.9326 79.6254 80.9326 80.6355V86.9975C80.9326 88.0075 81.6204 88.8263 82.4688 88.8263H94.0263C94.8747 88.8263 95.5625 88.0075 95.5625 86.9975V80.6355C95.5625 79.6254 94.8747 78.8066 94.0263 78.8066Z" fill="white" stroke="#EA9B1D" stroke-width="2" stroke-linecap="round" stroke-linejoin="round"/>
<path d="M81.5342 84.7417L89.4873 84.82" stroke="#EA9B1D" stroke-width="2" stroke-linecap="round"/>
<path d="M92.3564 84.7766L95.4761 84.8008" stroke="#EA9B1D" stroke-width="2" stroke-linecap="round"/>
<path d="M87.8747 30.8288C104.611 30.8919 110.012 46.2212 108.908 54.7781C107.805 63.3349 101.024 68.4765 98.4281 71.9537C95.832 75.431 96.2613 77.8411 94.6329 78.4422C93.6425 78.7858 90.9833 78.6515 88.2634 78.6516C84.8906 78.6516 81.4245 78.6977 80.9324 78.2217C79.8605 77.0391 80.1751 74.128 78.0105 71.9537C75.8459 69.7796 69.0507 62.9132 67.3247 55.925C65.5987 48.9368 68.0551 30.7542 87.8747 30.8288Z" fill="white" stroke="#EA9B1D" stroke-width="2" stroke-linecap="round"/>
<path d="M29.5859 35.8V45.2286C29.5859 46.8855 30.9291 48.2286 32.5859 48.2286H66.8717" stroke="#EA9B1D" stroke-width="2" stroke-linecap="round" stroke-linejoin="round"/>
<path d="M146.414 35.8V45.2286C146.414 46.8855 145.071 48.2286 143.414 48.2286H109.128" stroke="#EA9B1D" stroke-width="2" stroke-linecap="round" stroke-linejoin="round"/>
</svg>
