<svg width="228" height="115" viewBox="0 0 228 115" fill="none" xmlns="http://www.w3.org/2000/svg">
<path d="M194.903 2H31.7479C28.753 2 26.3252 4.33214 26.3252 7.20898V108.648C26.3252 111.525 28.753 113.857 31.7479 113.857H194.903C197.897 113.857 200.325 111.525 200.325 108.648V7.20898C200.325 4.33214 197.897 2 194.903 2Z" fill="white" stroke="#5C45A5" stroke-width="2.12167" stroke-linecap="round" stroke-linejoin="round"/>
<path d="M89.585 16.2339V101.291" stroke="#5C45A5" stroke-width="1.5" stroke-linecap="round"/>
<path d="M143.687 16.2397V101.291" stroke="#5C45A5" stroke-width="1.5" stroke-linecap="round"/>
<path d="M105.385 16.2578H126.828" stroke="#5C45A5" stroke-width="1.5" stroke-linecap="round"/>
<path d="M106.029 23.1753H122.659" stroke="#5C45A5" stroke-width="1.5" stroke-linecap="round"/>
<path d="M158.802 16.2578H180.245" stroke="#5C45A5" stroke-width="1.5" stroke-linecap="round"/>
<path d="M159.446 23.1753H176.076" stroke="#5C45A5" stroke-width="1.5" stroke-linecap="round"/>
<path d="M66.7884 29.6704H51.8132C49.9661 29.6704 48.4688 31.1921 48.4688 33.0691V44.8763C48.4688 46.7534 49.9661 48.275 51.8132 48.275H66.7884C68.6355 48.275 70.1328 46.7534 70.1328 44.8763V33.0691C70.1328 31.1921 68.6355 29.6704 66.7884 29.6704Z" fill="white" stroke="#5C45A5" stroke-width="1.5" stroke-linecap="round" stroke-linejoin="round"/>
<path d="M66.9475 56.3984H51.9724C50.1253 56.3984 48.6279 57.9201 48.6279 59.7971V71.6044C48.6279 73.4814 50.1253 75.0031 51.9724 75.0031H66.9475C68.7946 75.0031 70.292 73.4814 70.292 71.6044V59.7971C70.292 57.9201 68.7946 56.3984 66.9475 56.3984Z" fill="white" stroke="#5C45A5" stroke-width="1.5" stroke-linecap="round" stroke-linejoin="round"/>
<path d="M67.4261 82.3062H52.4509C50.6038 82.3062 49.1064 83.8278 49.1064 85.7048V97.5121C49.1064 99.3891 50.6038 100.911 52.4509 100.911H67.4261C69.2731 100.911 70.7705 99.3891 70.7705 97.5121V85.7048C70.7705 83.8278 69.2731 82.3062 67.4261 82.3062Z" fill="white" stroke="#5C45A5" stroke-width="1.5" stroke-linecap="round" stroke-linejoin="round"/>
<path d="M123.302 29.6704H108.327C106.48 29.6704 104.982 31.1921 104.982 33.0691V44.8763C104.982 46.7534 106.48 48.275 108.327 48.275H123.302C125.149 48.275 126.646 46.7534 126.646 44.8763V33.0691C126.646 31.1921 125.149 29.6704 123.302 29.6704Z" fill="white" stroke="#5C45A5" stroke-width="1.5" stroke-linecap="round" stroke-linejoin="round"/>
<path d="M123.46 56.3984H108.485C106.638 56.3984 105.141 57.9201 105.141 59.7971V71.6044C105.141 73.4814 106.638 75.0031 108.485 75.0031H123.46C125.307 75.0031 126.805 73.4814 126.805 71.6044V59.7971C126.805 57.9201 125.307 56.3984 123.46 56.3984Z" fill="white" stroke="#5C45A5" stroke-width="1.5" stroke-linecap="round" stroke-linejoin="round"/>
<path d="M123.939 82.3062H108.964C107.117 82.3062 105.619 83.8278 105.619 85.7048V97.5121C105.619 99.3891 107.117 100.911 108.964 100.911H123.939C125.786 100.911 127.283 99.3891 127.283 97.5121V85.7048C127.283 83.8278 125.786 82.3062 123.939 82.3062Z" fill="white" stroke="#5C45A5" stroke-width="1.5" stroke-linecap="round" stroke-linejoin="round"/>
<path d="M178.009 29.6704H163.034C161.187 29.6704 159.689 31.1921 159.689 33.0691V44.8763C159.689 46.7534 161.187 48.275 163.034 48.275H178.009C179.856 48.275 181.354 46.7534 181.354 44.8763V33.0691C181.354 31.1921 179.856 29.6704 178.009 29.6704Z" fill="white" stroke="#5C45A5" stroke-width="1.5" stroke-linecap="round" stroke-linejoin="round"/>
<path d="M178.167 56.3984H163.192C161.345 56.3984 159.848 57.9201 159.848 59.7971V71.6044C159.848 73.4814 161.345 75.0031 163.192 75.0031H178.167C180.014 75.0031 181.512 73.4814 181.512 71.6044V59.7971C181.512 57.9201 180.014 56.3984 178.167 56.3984Z" fill="white" stroke="#5C45A5" stroke-width="1.5" stroke-linecap="round" stroke-linejoin="round"/>
<path d="M178.647 82.3062H163.672C161.825 82.3062 160.327 83.8278 160.327 85.7048V97.5121C160.327 99.3891 161.825 100.911 163.672 100.911H178.647C180.494 100.911 181.991 99.3891 181.991 97.5121V85.7048C181.991 83.8278 180.494 82.3062 178.647 82.3062Z" fill="white" stroke="#5C45A5" stroke-width="1.5" stroke-linecap="round" stroke-linejoin="round"/>
<path d="M48.5684 16.2578H70.0116" stroke="#5C45A5" stroke-width="1.5" stroke-linecap="round"/>
<path d="M49.2129 23.1753H65.8427" stroke="#5C45A5" stroke-width="1.5" stroke-linecap="round"/>
<path d="M216.365 74.4468L227 90.6918" stroke="#5C45A5" stroke-width="2" stroke-linecap="round"/>
<path d="M209.322 76.2878C216.5 76.4504 222.45 70.7635 222.613 63.5856C222.776 56.4078 217.089 50.4571 209.911 50.2945C202.733 50.1318 196.782 55.8188 196.62 62.9967C196.457 70.1745 202.144 76.1252 209.322 76.2878Z" fill="white" stroke="#5C45A5" stroke-width="2" stroke-linejoin="round"/>
</svg>
