<svg width="243" height="114" viewBox="0 0 243 114" fill="none" xmlns="http://www.w3.org/2000/svg">
<path d="M198.327 1H37.6727C33.9875 1 31 3.97636 31 7.64787V106.209C31 109.881 33.9875 112.857 37.6727 112.857H198.327C202.013 112.857 205 109.881 205 106.209V7.64787C205 3.97636 202.013 1 198.327 1Z" fill="white" stroke="#5C45A5" stroke-width="1.76325" stroke-linecap="round" stroke-linejoin="round"/>
<path d="M45.373 25.4864L191.558 25.503" stroke="#4E3894" stroke-width="2" stroke-linecap="round"/>
<path d="M45.8153 36.5426L192 36.5426" stroke="#4E3894" stroke-width="2" stroke-linecap="round"/>
<path d="M45.8143 47.2478L191.999 47.2478" stroke="#4E3894" stroke-width="2" stroke-linecap="round"/>
<path d="M45.8143 57.5179L191.999 57.5179" stroke="#4E3894" stroke-width="2" stroke-linecap="round"/>
<path d="M182.597 72.1367C184.169 70.4956 217.907 44.1179 219.994 42.3575C222.08 40.5972 223.922 39.2168 225.837 39.7565C227.751 40.2962 230.347 43.3938 230.075 45.4862C229.802 47.5787 228.182 48.3181 225.848 50.2379C223.515 52.1577 189.956 77.744 187.803 79.4775C184.688 79.8402 178.983 79.711 179.001 79.6737C179.001 79.6737 181.035 74.5443 182.597 72.1367Z" fill="white" stroke="#5C45A5" stroke-width="1.79345" stroke-linecap="round"/>
<path d="M182.597 72.1367L187.802 79.4776" stroke="#5C45A5" stroke-width="1.48861"/>
<path d="M219.806 42.8459L225.011 50.1868" stroke="#5C45A5" stroke-width="1.48861"/>
</svg>
