<svg width="176" height="115" viewBox="0 0 176 115" fill="none" xmlns="http://www.w3.org/2000/svg">
<path d="M168.337 1.4237L7.94617 1.0169C4.26632 1.00757 1.27618 3.76798 1.26752 7.18245L1.01564 106.493C1.00698 109.907 3.98307 112.683 7.66292 112.692L168.054 113.099C171.734 113.108 174.724 110.348 174.732 106.933L174.984 7.62306C174.993 4.20858 172.017 1.43304 168.337 1.4237Z" fill="white" stroke="#503A95" stroke-width="2" stroke-linecap="round" stroke-linejoin="round"/>
<path d="M3.17651 3.5368C171.663 111.49 171.663 111.49 171.663 111.49Z" fill="white"/>
<path d="M3.17651 3.5368C171.663 111.49 171.663 111.49 171.663 111.49" stroke="#503A95" stroke-width="2" stroke-linecap="round" stroke-dasharray="0.79 0.79"/>
<path d="M171.663 3.5368C3.17641 111.49 3.1764 111.49 3.1764 111.49Z" fill="white"/>
<path d="M171.663 3.5368C3.17641 111.49 3.1764 111.49 3.1764 111.49" stroke="#503A95" stroke-width="2" stroke-linecap="round" stroke-dasharray="0.79 0.79"/>
<path d="M88.5395 37.2518C94.1037 36.5697 99.7136 38.1037 104.139 41.5172C108.565 44.9308 111.444 49.9453 112.147 55.4611C112.85 60.9769 111.318 66.5439 107.887 70.9412C104.457 75.3385 99.4079 78.2073 93.8474 78.9183C88.2869 79.6294 82.6689 78.1248 78.2253 74.7344C73.7817 71.344 70.8753 66.3446 70.1434 60.8325C69.4114 55.3204 70.9137 49.7455 74.3208 45.3303C77.7279 40.9152 82.7617 38.0201 88.3183 37.28" fill="white"/>
<path d="M88.5395 37.2518C94.1037 36.5697 99.7136 38.1037 104.139 41.5172C108.565 44.9308 111.444 49.9453 112.147 55.4611C112.85 60.9769 111.318 66.5439 107.887 70.9412C104.457 75.3385 99.4079 78.2073 93.8474 78.9183C88.2869 79.6294 82.6689 78.1248 78.2253 74.7344C73.7817 71.344 70.8753 66.3446 70.1434 60.8325C69.4114 55.3204 70.9137 49.7455 74.3208 45.3303C77.7279 40.9152 82.7617 38.0201 88.3183 37.28" stroke="#503A95" stroke-width="2" stroke-linecap="round" stroke-linejoin="round"/>
<path d="M78.7157 55.0335C78.7157 55.0335 78.8223 51.526 82.5018 51.5353C86.1213 51.5445 86.39 55.053 86.39 55.053" fill="white"/>
<path d="M78.7157 55.0335C78.7157 55.0335 78.8223 51.526 82.5018 51.5353C86.1213 51.5445 86.39 55.053 86.39 55.053" stroke="#503A95" stroke-width="2" stroke-linecap="round"/>
<path d="M104.134 55.0984C104.134 55.0984 104.046 51.5904 100.366 51.5811C96.7466 51.5719 96.4601 55.0789 96.4601 55.0789" fill="white"/>
<path d="M104.134 55.0984C104.134 55.0984 104.046 51.5904 100.366 51.5811C96.7466 51.5719 96.4601 55.0789 96.4601 55.0789" stroke="#503A95" stroke-width="2" stroke-linecap="round"/>
<path d="M84.7202 64.0599C84.7202 64.0599 84.8747 69.6431 91.2246 69.6592C97.4711 69.6751 97.9643 64.0934 97.9643 64.0934" fill="white"/>
<path d="M84.7202 64.0599C84.7202 64.0599 84.8747 69.6431 91.2246 69.6592C97.4711 69.6751 97.9643 64.0934 97.9643 64.0934" stroke="#503A95" stroke-width="2" stroke-linecap="round"/>
<path d="M90.596 16.0358L79.6356 16.008C78.1126 16.0041 76.8739 17.5979 76.8689 19.5678L76.8486 27.5474C76.8436 29.5173 78.0742 31.1173 79.5972 31.1212L90.5577 31.149C92.0807 31.1529 93.3194 29.5591 93.3244 27.5892L93.3446 19.6096C93.3496 17.6397 92.119 16.0397 90.596 16.0358Z" fill="white" stroke="#503A95" stroke-width="2" stroke-linecap="round" stroke-linejoin="round"/>
<path d="M116.311 8.91297L104.658 8.88341C103.135 8.87955 101.896 10.4733 101.891 12.4432L101.869 21.0587C101.864 23.0286 103.095 24.6287 104.618 24.6325L116.271 24.6621C117.794 24.666 119.033 23.0722 119.038 21.1023L119.06 12.4868C119.065 10.5169 117.834 8.91683 116.311 8.91297Z" fill="white" stroke="#503A95" stroke-width="2" stroke-linecap="round" stroke-linejoin="round"/>
<path d="M43.8791 61.6801L32.2254 61.6505C30.7024 61.6467 29.4637 63.2404 29.4587 65.2103L29.4369 73.8259C29.4319 75.7958 30.6625 77.3958 32.1855 77.3997L43.8392 77.4292C45.3622 77.4331 46.6009 75.8393 46.6059 73.8694L46.6277 65.2539C46.6327 63.284 45.4021 61.6839 43.8791 61.6801Z" fill="white" stroke="#503A95" stroke-width="2" stroke-linecap="round" stroke-linejoin="round"/>
<path d="M111.907 90.625L100.254 90.5954C98.7307 90.5916 97.492 92.1854 97.487 94.1552L97.4652 102.771C97.4602 104.741 98.6908 106.341 100.214 106.345L111.867 106.374C113.39 106.378 114.629 104.784 114.634 102.814L114.656 94.1988C114.661 92.2289 113.43 90.6289 111.907 90.625Z" fill="white" stroke="#503A95" stroke-width="2" stroke-linecap="round" stroke-linejoin="round"/>
<path d="M84.5874 84.1354L72.9337 84.1059C71.4107 84.102 70.172 85.6958 70.167 87.6657L70.1451 96.2812C70.1401 98.2511 71.3707 99.8511 72.8937 99.855L84.5474 99.8846C86.0704 99.8884 87.3091 98.2946 87.3141 96.3248L87.336 87.7092C87.341 85.7393 86.1104 84.1393 84.5874 84.1354Z" fill="white" stroke="#503A95" stroke-width="2" stroke-linecap="round" stroke-linejoin="round"/>
<path d="M53.9799 50.054L42.3262 50.0245C40.8032 50.0206 39.5646 51.6144 39.5596 53.5843L39.5377 62.1998C39.5327 64.1697 40.7633 65.7698 42.2863 65.7736L53.94 65.8032C55.463 65.807 56.7017 64.2133 56.7067 62.2434L56.7285 53.6278C56.7335 51.6579 55.5029 50.0579 53.9799 50.054Z" fill="white" stroke="#503A95" stroke-width="2" stroke-linecap="round" stroke-linejoin="round"/>
</svg>
