<svg width="176" height="115" viewBox="0 0 176 115" fill="none" xmlns="http://www.w3.org/2000/svg">
<path d="M168.337 1.4237L7.94617 1.0169C4.26632 1.00757 1.27618 3.76798 1.26752 7.18245L1.01564 106.493C1.00698 109.907 3.98307 112.683 7.66292 112.692L168.054 113.099C171.734 113.108 174.724 110.348 174.732 106.933L174.984 7.62306C174.993 4.20858 172.017 1.43304 168.337 1.4237Z" fill="white" stroke="#503A95" stroke-width="2" stroke-linecap="round" stroke-linejoin="round"/>
<path d="M3.17676 3.53662C171.663 111.49 171.663 111.49 171.663 111.49L3.17676 3.53662Z" fill="white"/>
<path d="M3.17676 3.53662C171.663 111.49 171.663 111.49 171.663 111.49" stroke="#503A95" stroke-width="2" stroke-linecap="round" stroke-dasharray="0.79 0.79"/>
<path d="M171.663 3.53662C3.17666 111.49 3.17664 111.49 3.17664 111.49L171.663 3.53662Z" fill="white"/>
<path d="M171.663 3.53662C3.17665 111.49 3.17664 111.49 3.17664 111.49" stroke="#503A95" stroke-width="2" stroke-linecap="round" stroke-dasharray="0.79 0.79"/>
<path d="M88.5397 37.2519C94.1039 36.5699 99.7139 38.1038 104.139 41.5173C108.565 44.9309 111.445 49.9454 112.147 55.4612C112.85 60.9771 111.318 66.544 107.888 70.9413C104.457 75.3386 99.4081 78.2074 93.8476 78.9184C88.2871 79.6295 82.6691 78.1249 78.2255 74.7345C73.782 71.3441 70.8756 66.3447 70.1436 60.8326C69.4117 55.3205 70.914 49.7456 74.3211 45.3304C77.7282 40.9153 82.7619 38.0202 88.3186 37.2802" fill="white"/>
<path d="M88.5397 37.2519C94.1039 36.5699 99.7139 38.1038 104.139 41.5173C108.565 44.9309 111.445 49.9454 112.147 55.4612C112.85 60.9771 111.318 66.544 107.888 70.9413C104.457 75.3386 99.4081 78.2074 93.8476 78.9184C88.2871 79.6295 82.6691 78.1249 78.2255 74.7345C73.782 71.3441 70.8756 66.3447 70.1436 60.8326C69.4117 55.3205 70.914 49.7456 74.3211 45.3304C77.7282 40.9153 82.7619 38.0202 88.3186 37.2802" stroke="#503A95" stroke-width="2" stroke-linecap="round" stroke-linejoin="round"/>
<path d="M78.7157 55.0336C78.7157 55.0336 78.8223 51.5261 82.5018 51.5355C86.1213 51.5446 86.39 55.0531 86.39 55.0531" fill="white"/>
<path d="M78.7157 55.0336C78.7157 55.0336 78.8223 51.5261 82.5018 51.5355C86.1213 51.5446 86.39 55.0531 86.39 55.0531" stroke="#503A95" stroke-width="2" stroke-linecap="round"/>
<path d="M104.134 55.0985C104.134 55.0985 104.045 51.5905 100.366 51.5812C96.7463 51.572 96.4599 55.079 96.4599 55.079" fill="white"/>
<path d="M104.134 55.0985C104.134 55.0985 104.045 51.5905 100.366 51.5812C96.7463 51.572 96.4599 55.079 96.4599 55.079" stroke="#503A95" stroke-width="2" stroke-linecap="round"/>
<path d="M84.7207 64.0601C84.7207 64.0601 84.8752 69.6433 91.2251 69.6594C97.4716 69.6753 97.9648 64.0936 97.9648 64.0936" fill="white"/>
<path d="M84.7207 64.0601C84.7207 64.0601 84.8752 69.6433 91.2251 69.6594C97.4716 69.6753 97.9648 64.0936 97.9648 64.0936" stroke="#503A95" stroke-width="2" stroke-linecap="round"/>
<path d="M90.596 16.0358L79.6356 16.008C78.1126 16.0041 76.8739 17.5979 76.8689 19.5678L76.8486 27.5474C76.8436 29.5173 78.0742 31.1173 79.5972 31.1212L90.5577 31.149C92.0807 31.1528 93.3194 29.5591 93.3244 27.5892L93.3446 19.6096C93.3496 17.6397 92.119 16.0396 90.596 16.0358Z" fill="white" stroke="#503A95" stroke-width="2" stroke-linecap="round" stroke-linejoin="round"/>
<path d="M116.312 8.91302L104.658 8.88346C103.135 8.8796 101.896 10.4734 101.891 12.4433L101.869 21.0588C101.864 23.0287 103.095 24.6287 104.618 24.6326L116.272 24.6621C117.795 24.666 119.033 23.0722 119.038 21.1023L119.06 12.4868C119.065 10.5169 117.835 8.91688 116.312 8.91302Z" fill="white" stroke="#503A95" stroke-width="2" stroke-linecap="round" stroke-linejoin="round"/>
<path d="M43.8791 61.6801L32.2254 61.6505C30.7024 61.6467 29.4637 63.2405 29.4587 65.2104L29.4369 73.8259C29.4319 75.7958 30.6625 77.3958 32.1855 77.3997L43.8392 77.4292C45.3622 77.4331 46.6009 75.8393 46.6059 73.8694L46.6277 65.2539C46.6327 63.284 45.4021 61.684 43.8791 61.6801Z" fill="white" stroke="#503A95" stroke-width="2" stroke-linecap="round" stroke-linejoin="round"/>
<path d="M111.907 90.6249L100.254 90.5954C98.7307 90.5915 97.492 92.1853 97.487 94.1552L97.4652 102.771C97.4602 104.741 98.6908 106.341 100.214 106.345L111.867 106.374C113.39 106.378 114.629 104.784 114.634 102.814L114.656 94.1987C114.661 92.2288 113.43 90.6288 111.907 90.6249Z" fill="white" stroke="#503A95" stroke-width="2" stroke-linecap="round" stroke-linejoin="round"/>
<path d="M84.5871 84.1357L72.9334 84.1061C71.4104 84.1023 70.1717 85.696 70.1667 87.6659L70.1449 96.2814C70.1399 98.2513 71.3705 99.8514 72.8935 99.8552L84.5472 99.8848C86.0702 99.8887 87.3089 98.2949 87.3139 96.325L87.3357 87.7095C87.3407 85.7396 86.1101 84.1395 84.5871 84.1357Z" fill="white" stroke="#503A95" stroke-width="2" stroke-linecap="round" stroke-linejoin="round"/>
<path d="M53.9797 50.0541L42.326 50.0246C40.803 50.0207 39.5643 51.6145 39.5593 53.5844L39.5375 62.1999C39.5325 64.1698 40.7631 65.7698 42.2861 65.7737L53.9398 65.8033C55.4628 65.8071 56.7014 64.2133 56.7064 62.2435L56.7283 53.6279C56.7333 51.658 55.5027 50.058 53.9797 50.0541Z" fill="white" stroke="#503A95" stroke-width="2" stroke-linecap="round" stroke-linejoin="round"/>
</svg>
