<svg width="178" height="115" viewBox="0 0 178 115" fill="none" xmlns="http://www.w3.org/2000/svg">
<path d="M171.269 2H6.73109C4.11818 2 2 4.11817 2 6.73108V109.126C2 111.739 4.11819 113.857 6.7311 113.857H171.269C173.882 113.857 176 111.739 176 109.126V6.73109C176 4.11818 173.882 2 171.269 2Z" fill="white" stroke="#19888F" stroke-width="2.15018" stroke-linejoin="round"/>
<path fill-rule="evenodd" clip-rule="evenodd" d="M148.921 13.3827C148.919 13.381 148.916 13.3794 148.913 13.3778C148.819 13.3215 148.713 13.2999 148.612 13.3092C148.579 13.3122 148.545 13.3186 148.513 13.3285C148.42 13.3564 148.335 13.4111 148.271 13.4895C148.254 13.5101 148.239 13.532 148.225 13.5548L144.645 19.557H138.093C137.896 19.557 137.717 19.6729 137.636 19.8529C137.556 20.0329 137.589 20.2434 137.72 20.3904L142.503 25.7372L140.101 33.5459C140.042 33.7366 140.102 33.944 140.254 34.0734C140.406 34.2029 140.62 34.2296 140.799 34.1415L148.648 30.2776L155.879 34.1341C156.058 34.2294 156.276 34.2075 156.432 34.0786C156.589 33.9498 156.652 33.7394 156.592 33.5459L154.189 25.7372L158.973 20.3905C159.104 20.2435 159.137 20.033 159.056 19.853C158.976 19.673 158.797 19.5571 158.6 19.5571H152.272L149.104 13.5821C149.071 13.5166 149.023 13.4578 148.962 13.411C148.949 13.4008 148.935 13.3914 148.921 13.3827ZM148.631 14.8261L145.358 20.3132C145.268 20.4644 145.105 20.557 144.928 20.557H139.211L143.437 25.281C143.554 25.4116 143.594 25.5939 143.542 25.7614L141.397 32.7326L148.436 29.2672C148.526 29.2228 148.624 29.2081 148.717 29.2193C148.782 29.2271 148.845 29.2477 148.902 29.2797L155.28 32.6812L153.151 25.7614C153.099 25.5939 153.139 25.4116 153.256 25.281L157.482 20.5571H151.971C151.786 20.5571 151.616 20.4549 151.53 20.2913L148.631 14.8261Z" fill="#19888F"/>
<path d="M25.6143 28.7214H111.993" stroke="#19888F" stroke-width="2" stroke-linecap="round"/>
<path d="M25.6143 39.2856H121.314" stroke="#19888F" stroke-width="2" stroke-linecap="round"/>
<path d="M25.6143 50.4714H96.4571" stroke="#19888F" stroke-width="2" stroke-linecap="round"/>
<path d="M25.6143 60.4143H111.993" stroke="#19888F" stroke-width="2" stroke-linecap="round"/>
<path d="M25.6143 71.6001H137.471" stroke="#19888F" stroke-width="2" stroke-linecap="round"/>
<path d="M25.6143 82.7856H100.186" stroke="#19888F" stroke-width="2" stroke-linecap="round"/>
</svg>
