<svg width="205" height="117" viewBox="0 0 205 117" fill="none" xmlns="http://www.w3.org/2000/svg">
<path d="M183.5 115.857H19.5C16.7386 115.857 14.5 113.619 14.5 110.857V9.00004C14.5 6.23861 16.7386 4.00004 19.5 4.00004H183.5C186.261 4.00004 188.5 6.23861 188.5 9.00003V110.857C188.5 113.619 186.261 115.857 183.5 115.857Z" fill="white" stroke="#EA9B1D" stroke-width="2" stroke-linejoin="round"/>
<path d="M53.6683 66.1428L46.2602 66.3395L45.9982 71.2565C45.9982 71.2565 45.867 71.1251 41.6713 73.0919L38.5901 69.4864L33.3454 74.731L36.6859 77.7782C36.6859 77.7782 36.5576 77.8776 34.5908 82.5978L30.6572 82.5325V89.6783L34.5908 89.5473C34.5908 89.5473 34.3944 89.4816 36.2956 94.7262L33.8041 97.1521L38.7868 102.528L41.8023 99.3809C41.8023 99.3809 42.0647 99.4467 46.5883 101.282L46.5226 105.675L53.2097 105.544L53.4063 101.217C53.4063 101.217 53.4719 101.282 58.2576 99.3155L61.0765 102.266L66.2558 97.2174L63.3713 94.3986C63.3713 94.3986 63.8303 94.2017 65.7315 89.4159L69.7304 89.5473L69.796 82.5325L64.6167 82.4011C64.6167 82.4011 64.9447 81.8769 62.7813 77.4845L66.1901 74.5343L61.2078 69.683L57.6676 73.1576C57.6676 73.1576 55.8318 71.7151 53.6683 71.3218V66.1428ZM50.1804 77.3761C51.3723 77.3761 52.5524 77.6109 53.6536 78.067C54.7547 78.5231 55.7551 79.1916 56.5979 80.0344C57.4406 80.8772 58.1091 81.8777 58.5652 82.9788C59.0213 84.08 59.256 85.2601 59.2559 86.452C59.2559 88.8589 58.2997 91.1673 56.5978 92.8693C54.8958 94.5713 52.5874 95.5275 50.1804 95.5275C47.7735 95.5275 45.4651 94.5713 43.7631 92.8693C42.0611 91.1673 41.1049 88.8589 41.1049 86.452C41.1049 85.2601 41.3396 84.08 41.7957 82.9788C42.2517 81.8777 42.9202 80.8772 43.763 80.0344C44.6057 79.1916 45.6062 78.5231 46.7073 78.067C47.8084 77.6109 48.9886 77.3761 50.1804 77.3761Z" stroke="#EA9B1D" stroke-width="2" stroke-linejoin="round"/>
<path d="M35.6289 35.7729H105.229" stroke="#EA9B1D" stroke-width="2" stroke-linecap="round"/>
<path d="M35.6289 48.2017H125.115" stroke="#EA9B1D" stroke-width="2" stroke-linecap="round"/>
<path d="M35.6289 23.3445H131.329" stroke="#EA9B1D" stroke-width="2" stroke-linecap="round"/>
<path d="M161.298 40.824C162.654 39.1448 192.461 11.4738 194.294 9.64042C196.127 7.80704 197.759 6.35284 199.614 6.70974C201.469 7.06663 204.175 9.78938 204.085 11.7913C203.995 13.7932 202.521 14.6231 200.467 16.6273C198.413 18.6314 168.712 45.5391 166.814 47.3525C163.895 47.9459 158.486 48.2819 158.5 48.2452C158.5 48.2452 160.013 43.2278 161.298 40.824Z" fill="white" stroke="#EA9B1D" stroke-width="1.79345" stroke-linecap="round"/>
<path d="M161.298 40.824L166.814 47.3524" stroke="#EA9B1D" stroke-width="1.48861"/>
<path d="M194.155 10.1177L199.671 16.6461" stroke="#EA9B1D" stroke-width="1.48861"/>
<rect x="137.346" y="68.8462" width="21.1538" height="20.3077" rx="0.846154" fill="white" stroke="#EA9B1D" stroke-width="1.69231"/>
</svg>
