<svg width="216" height="114" viewBox="0 0 216 114" fill="none" xmlns="http://www.w3.org/2000/svg">
<rect x="18.7504" y="1.13227" width="173.521" height="110.741" rx="4.52908" fill="white" stroke="#EA9B1D" stroke-width="2.26454"/>
<path d="M74.8235 12.5562L36.6669 12.5562C35.8547 12.5562 35.1963 13.1082 35.1963 13.7893L35.1963 51.5026C35.1963 52.1837 35.8547 52.7358 36.6669 52.7358L74.8235 52.7358C75.6357 52.7358 76.2942 52.1837 76.2942 51.5026L76.2942 13.7893C76.2942 13.1082 75.6357 12.5562 74.8235 12.5562Z" fill="white" stroke="#EA9B1D" stroke-width="2.26454" stroke-linecap="round" stroke-linejoin="round"/>
<path d="M74.8235 61.5251L36.6669 61.5251C35.8547 61.5251 35.1963 62.0772 35.1963 62.7583L35.1963 100.472C35.1963 101.153 35.8547 101.705 36.6669 101.705L74.8235 101.705C75.6357 101.705 76.2942 101.153 76.2942 100.472L76.2942 62.7583C76.2942 62.0772 75.6357 61.5251 74.8235 61.5251Z" fill="white" stroke="#EA9B1D" stroke-width="2.26454" stroke-linecap="round" stroke-linejoin="round"/>
<path d="M124.71 12.5562L86.5537 12.5562C85.7414 12.5562 85.083 13.1082 85.083 13.7893L85.083 51.5026C85.083 52.1837 85.7414 52.7358 86.5537 52.7358L124.71 52.7358C125.522 52.7358 126.181 52.1837 126.181 51.5026L126.181 13.7893C126.181 13.1082 125.522 12.5562 124.71 12.5562Z" fill="white" stroke="#EA9B1D" stroke-width="2.26454" stroke-linecap="round" stroke-linejoin="round"/>
<path d="M124.71 61.5251L86.5537 61.5251C85.7414 61.5251 85.083 62.0772 85.083 62.7583L85.083 100.472C85.083 101.153 85.7414 101.705 86.5537 101.705L124.71 101.705C125.522 101.705 126.181 101.153 126.181 100.472L126.181 62.7583C126.181 62.0772 125.522 61.5251 124.71 61.5251Z" fill="white" stroke="#EA9B1D" stroke-width="2.26454" stroke-linecap="round" stroke-linejoin="round"/>
<path d="M174.598 12.5562L136.441 12.5562C135.629 12.5562 134.971 13.1082 134.971 13.7893L134.971 51.5026C134.971 52.1837 135.629 52.7358 136.441 52.7358L174.598 52.7358C175.41 52.7358 176.069 52.1837 176.069 51.5026L176.069 13.7893C176.069 13.1082 175.41 12.5562 174.598 12.5562Z" fill="white" stroke="#EA9B1D" stroke-width="2.26454" stroke-linecap="round" stroke-linejoin="round"/>
<path d="M174.598 61.5251L136.441 61.5251C135.629 61.5251 134.971 62.0772 134.971 62.7583L134.971 100.472C134.971 101.153 135.629 101.705 136.441 101.705L174.598 101.705C175.41 101.705 176.069 101.153 176.069 100.472L176.069 62.7583C176.069 62.0772 175.41 61.5251 174.598 61.5251Z" fill="white" stroke="#EA9B1D" stroke-width="2.26454" stroke-linecap="round" stroke-linejoin="round"/>
<path d="M54.8359 32.8684C54.5233 32.8684 54.2698 33.1219 54.2698 33.4346C54.2698 33.7472 54.5233 34.0007 54.8359 34.0007L54.8359 32.8684ZM166.836 33.8349C167.057 33.6138 167.057 33.2553 166.836 33.0343L163.233 29.4314C163.012 29.2103 162.654 29.2103 162.433 29.4314C162.212 29.6525 162.212 30.0109 162.433 30.232L165.635 33.4346L162.433 36.6371C162.212 36.8582 162.212 37.2167 162.433 37.4378C162.654 37.6588 163.012 37.6588 163.233 37.4378L166.836 33.8349ZM57.9359 34.0007C58.2486 34.0007 58.5021 33.7472 58.5021 33.4346C58.5021 33.1219 58.2486 32.8684 57.9359 32.8684L57.9359 34.0007ZM64.1359 32.8684C63.8233 32.8684 63.5698 33.1219 63.5698 33.4346C63.5698 33.7472 63.8233 34.0007 64.1359 34.0007L64.1359 32.8684ZM70.3359 34.0007C70.6486 34.0007 70.9021 33.7472 70.9021 33.4346C70.9021 33.1219 70.6486 32.8684 70.3359 32.8684L70.3359 34.0007ZM76.5359 32.8684C76.2233 32.8684 75.9698 33.1219 75.9698 33.4346C75.9698 33.7472 76.2233 34.0007 76.5359 34.0007L76.5359 32.8684ZM82.7359 34.0007C83.0486 34.0007 83.3021 33.7472 83.3021 33.4346C83.3021 33.1219 83.0486 32.8684 82.7359 32.8684L82.7359 34.0007ZM88.9359 32.8684C88.6232 32.8684 88.3698 33.1219 88.3698 33.4346C88.3698 33.7472 88.6232 34.0007 88.9359 34.0007L88.9359 32.8684ZM95.1359 34.0007C95.4486 34.0007 95.702 33.7472 95.702 33.4346C95.702 33.1219 95.4486 32.8684 95.1359 32.8684L95.1359 34.0007ZM101.336 32.8684C101.023 32.8684 100.77 33.1219 100.77 33.4346C100.77 33.7472 101.023 34.0007 101.336 34.0007L101.336 32.8684ZM107.536 34.0007C107.849 34.0007 108.102 33.7472 108.102 33.4346C108.102 33.1219 107.849 32.8684 107.536 32.8684L107.536 34.0007ZM113.736 32.8684C113.423 32.8684 113.17 33.1219 113.17 33.4346C113.17 33.7472 113.423 34.0007 113.736 34.0007L113.736 32.8684ZM119.936 34.0007C120.249 34.0007 120.502 33.7472 120.502 33.4346C120.502 33.1219 120.249 32.8684 119.936 32.8684L119.936 34.0007ZM126.136 32.8684C125.823 32.8684 125.57 33.1219 125.57 33.4346C125.57 33.7472 125.823 34.0007 126.136 34.0007L126.136 32.8684ZM132.336 34.0007C132.649 34.0007 132.902 33.7472 132.902 33.4346C132.902 33.1219 132.649 32.8684 132.336 32.8684L132.336 34.0007ZM138.536 32.8684C138.223 32.8684 137.97 33.1219 137.97 33.4346C137.97 33.7472 138.223 34.0007 138.536 34.0007L138.536 32.8684ZM144.736 34.0007C145.049 34.0007 145.302 33.7472 145.302 33.4346C145.302 33.1219 145.049 32.8684 144.736 32.8684L144.736 34.0007ZM150.936 32.8684C150.623 32.8684 150.37 33.1219 150.37 33.4346C150.37 33.7472 150.623 34.0007 150.936 34.0007L150.936 32.8684ZM157.136 34.0007C157.449 34.0007 157.702 33.7472 157.702 33.4346C157.702 33.1219 157.449 32.8684 157.136 32.8684L157.136 34.0007ZM163.336 32.8684C163.023 32.8684 162.77 33.1219 162.77 33.4346C162.77 33.7472 163.023 34.0007 163.336 34.0007L163.336 32.8684ZM54.8359 34.0007L57.9359 34.0007L57.9359 32.8684L54.8359 32.8684L54.8359 34.0007ZM64.1359 34.0007L70.3359 34.0007L70.3359 32.8684L64.1359 32.8684L64.1359 34.0007ZM76.5359 34.0007L82.7359 34.0007L82.7359 32.8684L76.5359 32.8684L76.5359 34.0007ZM88.9359 34.0007L95.1359 34.0007L95.1359 32.8684L88.9359 32.8684L88.9359 34.0007ZM101.336 34.0007L107.536 34.0007L107.536 32.8684L101.336 32.8684L101.336 34.0007ZM113.736 34.0007L119.936 34.0007L119.936 32.8684L113.736 32.8684L113.736 34.0007ZM126.136 34.0007L132.336 34.0007L132.336 32.8684L126.136 32.8684L126.136 34.0007ZM138.536 34.0007L144.736 34.0007L144.736 32.8684L138.536 32.8684L138.536 34.0007ZM150.936 34.0007L157.136 34.0007L157.136 32.8684L150.936 32.8684L150.936 34.0007ZM163.336 34.0007L166.436 34.0007L166.436 32.8684L163.336 32.8684L163.336 34.0007ZM54.8359 32.3023C54.2106 32.3023 53.7037 32.8092 53.7037 33.4346C53.7037 34.0599 54.2106 34.5668 54.8359 34.5668L54.8359 32.3023ZM167.236 34.2352C167.679 33.793 167.679 33.0761 167.236 32.6339L160.031 25.4282C159.589 24.986 158.872 24.986 158.429 25.4282C157.987 25.8704 157.987 26.5873 158.429 27.0295L164.835 33.4346L158.429 39.8397C157.987 40.2818 157.987 40.9988 158.429 41.4409C158.872 41.8831 159.589 41.8831 160.031 41.4409L167.236 34.2352ZM57.9359 34.5668C58.5613 34.5668 59.0682 34.0599 59.0682 33.4346C59.0682 32.8092 58.5613 32.3023 57.9359 32.3023L57.9359 34.5668ZM64.1359 32.3023C63.5106 32.3023 63.0037 32.8092 63.0037 33.4346C63.0037 34.0599 63.5106 34.5668 64.1359 34.5668L64.1359 32.3023ZM70.3359 34.5668C70.9613 34.5668 71.4682 34.0599 71.4682 33.4346C71.4682 32.8092 70.9613 32.3023 70.3359 32.3023L70.3359 34.5668ZM76.5359 32.3023C75.9106 32.3023 75.4036 32.8092 75.4036 33.4346C75.4036 34.0599 75.9106 34.5668 76.5359 34.5668L76.5359 32.3023ZM82.7359 34.5668C83.3613 34.5668 83.8682 34.0599 83.8682 33.4346C83.8682 32.8092 83.3613 32.3023 82.7359 32.3023L82.7359 34.5668ZM88.9359 32.3023C88.3106 32.3023 87.8036 32.8092 87.8036 33.4346C87.8036 34.0599 88.3106 34.5668 88.9359 34.5668L88.9359 32.3023ZM95.1359 34.5668C95.7612 34.5668 96.2682 34.0599 96.2682 33.4346C96.2682 32.8092 95.7612 32.3023 95.1359 32.3023L95.1359 34.5668ZM101.336 32.3023C100.711 32.3023 100.204 32.8092 100.204 33.4346C100.204 34.0599 100.711 34.5668 101.336 34.5668L101.336 32.3023ZM107.536 34.5668C108.161 34.5668 108.668 34.0599 108.668 33.4346C108.668 32.8092 108.161 32.3023 107.536 32.3023L107.536 34.5668ZM113.736 32.3023C113.111 32.3023 112.604 32.8092 112.604 33.4346C112.604 34.0599 113.111 34.5668 113.736 34.5668L113.736 32.3023ZM119.936 34.5668C120.561 34.5668 121.068 34.0599 121.068 33.4346C121.068 32.8092 120.561 32.3023 119.936 32.3023L119.936 34.5668ZM126.136 32.3023C125.511 32.3023 125.004 32.8092 125.004 33.4346C125.004 34.0599 125.511 34.5668 126.136 34.5668L126.136 32.3023ZM132.336 34.5668C132.961 34.5668 133.468 34.0599 133.468 33.4346C133.468 32.8092 132.961 32.3023 132.336 32.3023L132.336 34.5668ZM138.536 32.3023C137.911 32.3023 137.404 32.8092 137.404 33.4346C137.404 34.0599 137.911 34.5668 138.536 34.5668L138.536 32.3023ZM144.736 34.5668C145.361 34.5668 145.868 34.0599 145.868 33.4346C145.868 32.8092 145.361 32.3023 144.736 32.3023L144.736 34.5668ZM150.936 32.3023C150.311 32.3023 149.804 32.8092 149.804 33.4346C149.804 34.0599 150.311 34.5668 150.936 34.5668L150.936 32.3023ZM157.136 34.5668C157.761 34.5668 158.268 34.0599 158.268 33.4346C158.268 32.8092 157.761 32.3023 157.136 32.3023L157.136 34.5668ZM163.336 32.3023C162.711 32.3023 162.204 32.8092 162.204 33.4346C162.204 34.0599 162.711 34.5668 163.336 34.5668L163.336 32.3023ZM54.8359 34.5668L57.9359 34.5668L57.9359 32.3023L54.8359 32.3023L54.8359 34.5668ZM64.1359 34.5668L70.3359 34.5668L70.3359 32.3023L64.1359 32.3023L64.1359 34.5668ZM76.5359 34.5668L82.7359 34.5668L82.7359 32.3023L76.5359 32.3023L76.5359 34.5668ZM88.9359 34.5668L95.1359 34.5668L95.1359 32.3023L88.9359 32.3023L88.9359 34.5668ZM101.336 34.5668L107.536 34.5668L107.536 32.3023L101.336 32.3023L101.336 34.5668ZM113.736 34.5668L119.936 34.5668L119.936 32.3023L113.736 32.3023L113.736 34.5668ZM126.136 34.5668L132.336 34.5668L132.336 32.3023L126.136 32.3023L126.136 34.5668ZM138.536 34.5668L144.736 34.5668L144.736 32.3023L138.536 32.3023L138.536 34.5668ZM150.936 34.5668L157.136 34.5668L157.136 32.3023L150.936 32.3023L150.936 34.5668ZM163.336 34.5668L166.436 34.5668L166.436 32.3023L163.336 32.3023L163.336 34.5668Z" fill="#EA9B1D"/>
<path d="M148.923 44.0026C149.212 43.8831 149.35 43.552 149.23 43.2631C149.111 42.9742 148.78 42.8368 148.491 42.9563L148.923 44.0026ZM45.3736 85.7859C45.2538 86.0747 45.3908 86.4059 45.6796 86.5257L50.386 88.478C50.6748 88.5978 51.0061 88.4608 51.1259 88.172C51.2457 87.8832 51.1087 87.552 50.8198 87.4322L46.6364 85.6968L48.3718 81.5134C48.4916 81.2246 48.3546 80.8933 48.0658 80.7735C47.777 80.6537 47.4457 80.7907 47.3259 81.0795L45.3736 85.7859ZM145.635 44.1375C145.346 44.257 145.209 44.5881 145.328 44.8771C145.448 45.166 145.779 45.3034 146.068 45.1838L145.635 44.1375ZM140.356 47.5463C140.645 47.4268 140.782 47.0957 140.663 46.8067C140.543 46.5178 140.212 46.3804 139.923 46.4999L140.356 47.5463ZM134.211 48.8624C133.922 48.9819 133.785 49.313 133.905 49.6019C134.024 49.8908 134.355 50.0282 134.644 49.9087L134.211 48.8624ZM128.932 52.2711C129.221 52.1516 129.359 51.8205 129.239 51.5315C129.12 51.2426 128.789 51.1053 128.5 51.2248L128.932 52.2711ZM122.788 53.5872C122.499 53.7067 122.362 54.0378 122.481 54.3267C122.601 54.6156 122.932 54.753 123.221 54.6335L122.788 53.5872ZM117.509 56.9959C117.798 56.8764 117.935 56.5453 117.816 56.2564C117.696 55.9674 117.365 55.8301 117.076 55.9496L117.509 56.9959ZM111.365 58.312C111.076 58.4315 110.938 58.7626 111.058 59.0515C111.177 59.3404 111.508 59.4778 111.797 59.3583L111.365 58.312ZM106.086 61.7207C106.375 61.6012 106.512 61.2701 106.392 60.9812C106.273 60.6922 105.942 60.5549 105.653 60.6744L106.086 61.7207ZM99.9413 63.0368C99.6523 63.1563 99.515 63.4874 99.6345 63.7763C99.754 64.0653 100.085 64.2026 100.374 64.0831L99.9413 63.0368ZM94.6623 66.4455C94.9513 66.326 95.0886 65.9949 94.9691 65.706C94.8496 65.417 94.5185 65.2797 94.2296 65.3992L94.6623 66.4455ZM88.5179 67.7616C88.229 67.8811 88.0916 68.2122 88.2111 68.5011C88.3306 68.7901 88.6617 68.9274 88.9506 68.8079L88.5179 67.7616ZM83.239 71.1703C83.5279 71.0508 83.6652 70.7197 83.5457 70.4308C83.4262 70.1419 83.0951 70.0045 82.8062 70.124L83.239 71.1703ZM77.0945 72.4864C76.8056 72.6059 76.6682 72.937 76.7877 73.226C76.9072 73.5149 77.2383 73.6522 77.5273 73.5327L77.0945 72.4864ZM71.8156 75.8951C72.1045 75.7756 72.2418 75.4445 72.1223 75.1556C72.0028 74.8667 71.6717 74.7293 71.3828 74.8488L71.8156 75.8951ZM65.6711 77.2112C65.3822 77.3307 65.2448 77.6618 65.3643 77.9508C65.4839 78.2397 65.8149 78.377 66.1039 78.2575L65.6711 77.2112ZM60.3922 80.6199C60.6811 80.5004 60.8185 80.1693 60.699 79.8804C60.5795 79.5915 60.2484 79.4541 59.9594 79.5736L60.3922 80.6199ZM54.2477 81.936C53.9588 82.0556 53.8215 82.3867 53.941 82.6756C54.0605 82.9645 54.3916 83.1019 54.6805 82.9824L54.2477 81.936ZM48.9688 85.3448C49.2577 85.2253 49.3951 84.8942 49.2756 84.6052C49.1561 84.3163 48.825 84.179 48.536 84.2985L48.9688 85.3448ZM148.491 42.9563L145.635 44.1375L146.068 45.1838L148.923 44.0026L148.491 42.9563ZM139.923 46.4999L134.211 48.8624L134.644 49.9087L140.356 47.5463L139.923 46.4999ZM128.5 51.2248L122.788 53.5872L123.221 54.6335L128.932 52.2711L128.5 51.2248ZM117.076 55.9496L111.365 58.312L111.797 59.3583L117.509 56.9959L117.076 55.9496ZM105.653 60.6744L99.9413 63.0368L100.374 64.0831L106.086 61.7207L105.653 60.6744ZM94.2296 65.3992L88.5179 67.7616L88.9506 68.8079L94.6623 66.4455L94.2296 65.3992ZM82.8062 70.124L77.0945 72.4864L77.5273 73.5327L83.239 71.1703L82.8062 70.124ZM71.3828 74.8488L65.6711 77.2112L66.1039 78.2575L71.8156 75.8951L71.3828 74.8488ZM59.9594 79.5736L54.2477 81.936L54.6805 82.9824L60.3922 80.6199L59.9594 79.5736ZM48.536 84.2985L45.6802 85.4797L46.1129 86.526L48.9688 85.3448L48.536 84.2985ZM149.14 44.5258C149.718 44.2868 149.992 43.6246 149.753 43.0467C149.514 42.4689 148.852 42.1942 148.274 42.4332L149.14 44.5258ZM44.8507 85.569C44.6111 86.1466 44.8851 86.8091 45.4627 87.0487L54.8754 90.9532C55.4531 91.1928 56.1155 90.9188 56.3551 90.3412C56.5948 89.7636 56.3207 89.1011 55.7431 88.8615L47.3763 85.3908L50.847 77.0239C51.0866 76.4463 50.8126 75.7838 50.235 75.5442C49.6574 75.3046 48.9949 75.5786 48.7553 76.1563L44.8507 85.569ZM145.418 43.6144C144.841 43.8534 144.566 44.5156 144.805 45.0935C145.044 45.6713 145.706 45.946 146.284 45.707L145.418 43.6144ZM140.572 48.0694C141.15 47.8304 141.425 47.1682 141.186 46.5903C140.947 46.0125 140.285 45.7378 139.707 45.9768L140.572 48.0694ZM133.995 48.3392C133.417 48.5782 133.142 49.2404 133.381 49.8183C133.621 50.3961 134.283 50.6708 134.861 50.4318L133.995 48.3392ZM129.149 52.7942C129.727 52.5552 130.001 51.893 129.762 51.3152C129.523 50.7373 128.861 50.4626 128.283 50.7016L129.149 52.7942ZM122.572 53.064C121.994 53.303 121.719 53.9652 121.958 54.5431C122.197 55.1209 122.859 55.3956 123.437 55.1566L122.572 53.064ZM117.725 57.519C118.303 57.28 118.578 56.6178 118.339 56.04C118.1 55.4621 117.438 55.1874 116.86 55.4264L117.725 57.519ZM111.148 57.7888C110.57 58.0278 110.296 58.69 110.535 59.2679C110.774 59.8458 111.436 60.1205 112.014 59.8814L111.148 57.7888ZM106.302 62.2439C106.88 62.0048 107.155 61.3426 106.916 60.7648C106.677 60.1869 106.014 59.9122 105.437 60.1512L106.302 62.2439ZM99.7249 62.5136C99.147 62.7527 98.8723 63.4149 99.1113 63.9927C99.3503 64.5706 100.013 64.8453 100.59 64.6063L99.7249 62.5136ZM94.8787 66.9687C95.4566 66.7297 95.7313 66.0675 95.4923 65.4896C95.2532 64.9117 94.591 64.637 94.0132 64.8761L94.8787 66.9687ZM88.3015 67.2385C87.7236 67.4775 87.4489 68.1397 87.688 68.7175C87.927 69.2954 88.5892 69.5701 89.167 69.3311L88.3015 67.2385ZM83.4553 71.6935C84.0332 71.4545 84.3079 70.7923 84.0689 70.2144C83.8299 69.6366 83.1677 69.3619 82.5898 69.6009L83.4553 71.6935ZM76.8781 71.9633C76.3003 72.2023 76.0256 72.8645 76.2646 73.4423C76.5036 74.0202 77.1658 74.2949 77.7436 74.0559L76.8781 71.9633ZM72.032 76.4183C72.6098 76.1793 72.8845 75.5171 72.6455 74.9392C72.4065 74.3614 71.7443 74.0867 71.1664 74.3257L72.032 76.4183ZM65.4547 76.6881C64.8769 76.9271 64.6022 77.5893 64.8412 78.1671C65.0802 78.745 65.7424 79.0197 66.3203 78.7807L65.4547 76.6881ZM60.6086 81.1431C61.1864 80.9041 61.4611 80.2419 61.2221 79.664C60.9831 79.0862 60.3209 78.8115 59.743 79.0505L60.6086 81.1431ZM54.0314 81.4129C53.4535 81.6519 53.1788 82.3141 53.4178 82.892C53.6568 83.4698 54.319 83.7445 54.8969 83.5055L54.0314 81.4129ZM49.1852 85.8679C49.763 85.6289 50.0377 84.9667 49.7987 84.3888C49.5597 83.811 48.8975 83.5363 48.3197 83.7753L49.1852 85.8679ZM148.274 42.4332L145.418 43.6144L146.284 45.707L149.14 44.5258L148.274 42.4332ZM139.707 45.9768L133.995 48.3392L134.861 50.4318L140.572 48.0694L139.707 45.9768ZM128.283 50.7016L122.572 53.064L123.437 55.1566L129.149 52.7942L128.283 50.7016ZM116.86 55.4264L111.148 57.7888L112.014 59.8814L117.725 57.519L116.86 55.4264ZM105.437 60.1512L99.7249 62.5136L100.59 64.6063L106.302 62.2439L105.437 60.1512ZM94.0132 64.8761L88.3015 67.2385L89.167 69.3311L94.8787 66.9687L94.0132 64.8761ZM82.5898 69.6009L76.8781 71.9633L77.7436 74.0559L83.4553 71.6935L82.5898 69.6009ZM71.1664 74.3257L65.4547 76.6881L66.3203 78.7807L72.032 76.4183L71.1664 74.3257ZM59.743 79.0505L54.0314 81.4129L54.8969 83.5055L60.6086 81.1431L59.743 79.0505ZM48.3197 83.7753L45.4638 84.9565L46.3293 87.0491L49.1852 85.8679L48.3197 83.7753Z" fill="#EA9B1D"/>
<path d="M54.6865 85.0435C54.3739 85.0435 54.1204 85.297 54.1204 85.6096C54.1204 85.9223 54.3739 86.1758 54.6865 86.1758L54.6865 85.0435ZM162.442 86.0099C162.663 85.7888 162.663 85.4304 162.442 85.2093L158.839 81.6064C158.618 81.3853 158.259 81.3853 158.038 81.6064C157.817 81.8275 157.817 82.186 158.038 82.4071L161.241 85.6096L158.038 88.8122C157.817 89.0333 157.817 89.3917 158.038 89.6128C158.259 89.8339 158.618 89.8339 158.839 89.6128L162.442 86.0099ZM57.6686 86.1758C57.9813 86.1758 58.2347 85.9223 58.2347 85.6096C58.2347 85.297 57.9813 85.0435 57.6686 85.0435L57.6686 86.1758ZM63.6328 85.0435C63.3201 85.0435 63.0666 85.297 63.0666 85.6096C63.0666 85.9223 63.3201 86.1758 63.6328 86.1758L63.6328 85.0435ZM69.5969 86.1758C69.9096 86.1758 70.1631 85.9223 70.1631 85.6096C70.1631 85.297 69.9096 85.0435 69.5969 85.0435L69.5969 86.1758ZM75.5611 85.0435C75.2484 85.0435 74.9949 85.297 74.9949 85.6096C74.9949 85.9223 75.2484 86.1758 75.5611 86.1758L75.5611 85.0435ZM81.5252 86.1758C81.8379 86.1758 82.0914 85.9223 82.0914 85.6096C82.0914 85.297 81.8379 85.0435 81.5252 85.0435L81.5252 86.1758ZM87.4894 85.0435C87.1767 85.0435 86.9233 85.297 86.9233 85.6096C86.9233 85.9223 87.1767 86.1758 87.4894 86.1758L87.4894 85.0435ZM93.4536 86.1758C93.7662 86.1758 94.0197 85.9223 94.0197 85.6096C94.0197 85.297 93.7662 85.0435 93.4536 85.0435L93.4536 86.1758ZM99.4177 85.0435C99.1051 85.0435 98.8516 85.297 98.8516 85.6096C98.8516 85.9223 99.1051 86.1758 99.4177 86.1758L99.4177 85.0435ZM105.382 86.1758C105.695 86.1758 105.948 85.9223 105.948 85.6096C105.948 85.297 105.695 85.0435 105.382 85.0435L105.382 86.1758ZM111.346 85.0435C111.033 85.0435 110.78 85.297 110.78 85.6096C110.78 85.9223 111.033 86.1758 111.346 86.1758L111.346 85.0435ZM117.31 86.1758C117.623 86.1758 117.876 85.9223 117.876 85.6096C117.876 85.297 117.623 85.0435 117.31 85.0435L117.31 86.1758ZM123.274 85.0435C122.962 85.0435 122.708 85.297 122.708 85.6096C122.708 85.9223 122.962 86.1758 123.274 86.1758L123.274 85.0435ZM129.239 86.1758C129.551 86.1758 129.805 85.9223 129.805 85.6096C129.805 85.2969 129.551 85.0435 129.239 85.0435L129.239 86.1758ZM135.203 85.0435C134.89 85.0435 134.637 85.2969 134.637 85.6096C134.637 85.9223 134.89 86.1758 135.203 86.1758L135.203 85.0435ZM141.167 86.1758C141.48 86.1758 141.733 85.9223 141.733 85.6096C141.733 85.2969 141.48 85.0435 141.167 85.0435L141.167 86.1758ZM147.131 85.0435C146.818 85.0435 146.565 85.2969 146.565 85.6096C146.565 85.9223 146.818 86.1758 147.131 86.1758L147.131 85.0435ZM153.095 86.1758C153.408 86.1758 153.661 85.9223 153.661 85.6096C153.661 85.2969 153.408 85.0435 153.095 85.0435L153.095 86.1758ZM159.059 85.0435C158.747 85.0435 158.493 85.2969 158.493 85.6096C158.493 85.9223 158.747 86.1758 159.059 86.1758L159.059 85.0435ZM54.6865 86.1758L57.6686 86.1758L57.6686 85.0435L54.6865 85.0435L54.6865 86.1758ZM63.6328 86.1758L69.5969 86.1758L69.5969 85.0435L63.6328 85.0435L63.6328 86.1758ZM75.5611 86.1758L81.5252 86.1758L81.5252 85.0435L75.5611 85.0435L75.5611 86.1758ZM87.4894 86.1758L93.4536 86.1758L93.4536 85.0435L87.4894 85.0435L87.4894 86.1758ZM99.4177 86.1758L105.382 86.1758L105.382 85.0435L99.4177 85.0435L99.4177 86.1758ZM111.346 86.1758L117.31 86.1758L117.31 85.0435L111.346 85.0435L111.346 86.1758ZM123.274 86.1758L129.239 86.1758L129.239 85.0435L123.274 85.0435L123.274 86.1758ZM135.203 86.1758L141.167 86.1758L141.167 85.0435L135.203 85.0435L135.203 86.1758ZM147.131 86.1758L153.095 86.1758L153.095 85.0435L147.131 85.0435L147.131 86.1758ZM159.059 86.1758L162.041 86.1758L162.041 85.0435L159.059 85.0435L159.059 86.1758ZM54.6865 84.4773C54.0612 84.4773 53.5543 84.9843 53.5543 85.6096C53.5543 86.235 54.0612 86.7419 54.6865 86.7419L54.6865 84.4773ZM162.842 86.4103C163.284 85.9681 163.284 85.2512 162.842 84.809L155.636 77.6033C155.194 77.1611 154.477 77.1611 154.035 77.6033C153.593 78.0454 153.593 78.7623 154.035 79.2045L160.44 85.6096L154.035 92.0147C153.593 92.4569 153.593 93.1738 154.035 93.616C154.477 94.0582 155.194 94.0582 155.636 93.616L162.842 86.4103ZM57.6686 86.7419C58.2939 86.7419 58.8009 86.235 58.8009 85.6096C58.8009 84.9843 58.2939 84.4773 57.6686 84.4773L57.6686 86.7419ZM63.6328 84.4773C63.0074 84.4773 62.5005 84.9843 62.5005 85.6096C62.5005 86.235 63.0074 86.7419 63.6328 86.7419L63.6328 84.4773ZM69.5969 86.7419C70.2223 86.7419 70.7292 86.235 70.7292 85.6096C70.7292 84.9843 70.2223 84.4773 69.5969 84.4773L69.5969 86.7419ZM75.5611 84.4773C74.9357 84.4773 74.4288 84.9843 74.4288 85.6096C74.4288 86.235 74.9357 86.7419 75.5611 86.7419L75.5611 84.4773ZM81.5252 86.7419C82.1506 86.7419 82.6575 86.235 82.6575 85.6096C82.6575 84.9843 82.1506 84.4773 81.5252 84.4773L81.5252 86.7419ZM87.4894 84.4773C86.8641 84.4773 86.3571 84.9843 86.3571 85.6096C86.3571 86.235 86.8641 86.7419 87.4894 86.7419L87.4894 84.4773ZM93.4536 86.7419C94.0789 86.7419 94.5858 86.235 94.5858 85.6096C94.5858 84.9843 94.0789 84.4773 93.4536 84.4773L93.4536 86.7419ZM99.4177 84.4773C98.7924 84.4773 98.2855 84.9843 98.2855 85.6096C98.2855 86.235 98.7924 86.7419 99.4177 86.7419L99.4177 84.4773ZM105.382 86.7419C106.007 86.7419 106.514 86.235 106.514 85.6096C106.514 84.9843 106.007 84.4773 105.382 84.4773L105.382 86.7419ZM111.346 84.4773C110.721 84.4773 110.214 84.9843 110.214 85.6096C110.214 86.235 110.721 86.7419 111.346 86.7419L111.346 84.4773ZM117.31 86.7419C117.936 86.7419 118.442 86.235 118.442 85.6096C118.442 84.9843 117.936 84.4773 117.31 84.4773L117.31 86.7419ZM123.274 84.4773C122.649 84.4773 122.142 84.9843 122.142 85.6096C122.142 86.235 122.649 86.7419 123.274 86.7419L123.274 84.4773ZM129.239 86.7419C129.864 86.7419 130.371 86.235 130.371 85.6096C130.371 84.9843 129.864 84.4773 129.239 84.4773L129.239 86.7419ZM135.203 84.4773C134.577 84.4773 134.07 84.9843 134.07 85.6096C134.07 86.235 134.577 86.7419 135.203 86.7419L135.203 84.4773ZM141.167 86.7419C141.792 86.7419 142.299 86.235 142.299 85.6096C142.299 84.9843 141.792 84.4773 141.167 84.4773L141.167 86.7419ZM147.131 84.4773C146.506 84.4773 145.999 84.9843 145.999 85.6096C145.999 86.235 146.506 86.7419 147.131 86.7419L147.131 84.4773ZM153.095 86.7419C153.72 86.7419 154.227 86.235 154.227 85.6096C154.227 84.9843 153.72 84.4773 153.095 84.4773L153.095 86.7419ZM159.059 84.4773C158.434 84.4773 157.927 84.9843 157.927 85.6096C157.927 86.235 158.434 86.7419 159.059 86.7419L159.059 84.4773ZM54.6865 86.7419L57.6686 86.7419L57.6686 84.4773L54.6865 84.4773L54.6865 86.7419ZM63.6328 86.7419L69.5969 86.7419L69.5969 84.4773L63.6328 84.4773L63.6328 86.7419ZM75.5611 86.7419L81.5252 86.7419L81.5252 84.4773L75.5611 84.4773L75.5611 86.7419ZM87.4894 86.7419L93.4536 86.7419L93.4536 84.4773L87.4894 84.4773L87.4894 86.7419ZM99.4177 86.7419L105.382 86.7419L105.382 84.4773L99.4177 84.4773L99.4177 86.7419ZM111.346 86.7419L117.31 86.7419L117.31 84.4773L111.346 84.4773L111.346 86.7419ZM123.274 86.7419L129.239 86.7419L129.239 84.4773L123.274 84.4773L123.274 86.7419ZM135.203 86.7419L141.167 86.7419L141.167 84.4773L135.203 84.4773L135.203 86.7419ZM147.131 86.7419L153.095 86.7419L153.095 84.4773L147.131 84.4773L147.131 86.7419ZM159.059 86.7419L162.041 86.7419L162.041 84.4773L159.059 84.4773L159.059 86.7419Z" fill="#EA9B1D"/>
<path d="M203.902 28.9614C201.819 31.0177 168.054 61.9727 166.202 63.6779L163.476 72.8329L172.959 71.0067C175.115 68.9735 208.486 39.1409 210.819 36.8935C213.153 34.6461 214.822 33.7201 214.938 31.4609C215.054 29.2017 212.02 26.1084 209.928 25.692C207.837 25.2756 205.984 26.9052 203.902 28.9614Z" fill="white" stroke="#EA9B1D" stroke-width="2.03067" stroke-linecap="round"/>
<path d="M166.687 62.9714L173.218 70.0562" stroke="#EA9B1D" stroke-width="1.68551"/>
<path d="M203.104 28.7988L210.686 37.0319" stroke="#EA9B1D" stroke-width="1.68551"/>
</svg>
