<svg width="221" height="116" viewBox="0 0 221 116" fill="none" xmlns="http://www.w3.org/2000/svg">
<path d="M179.044 75.5732V107.666C179.044 111.086 176.551 113.857 173.48 113.857H39.5642C36.4935 113.857 34 111.086 34 107.666V8.19389C34 4.77448 36.4935 2 39.5642 2H173.48C176.551 2 179.044 4.77448 179.044 8.19389V15.0646" fill="white"/>
<path d="M179.044 75.5732V107.666C179.044 111.086 176.551 113.857 173.48 113.857H39.5642C36.4935 113.857 34 111.086 34 107.666V8.19389C34 4.77448 36.4935 2 39.5642 2H173.48C176.551 2 179.044 4.77448 179.044 8.19389V15.0646" stroke="#4C3692" stroke-width="2.48571" stroke-linecap="round" stroke-linejoin="round"/>
<path d="M34.335 25.5076L55.5961 25.5587H55.862" fill="white"/>
<path d="M34.335 25.5076L55.5961 25.5587H55.862" stroke="#4C3692" stroke-width="2.48571" stroke-miterlimit="11.34" stroke-linecap="round"/>
<path d="M65.2559 25.5434L153.88 25.0225" stroke="#4C3692" stroke-width="2.48571" stroke-miterlimit="11.34" stroke-linecap="round"/>
<path d="M51.3702 16.1278C52.5557 16.1278 53.5167 15.1815 53.5167 14.0142C53.5167 12.8469 52.5557 11.9006 51.3702 11.9006C50.1847 11.9006 49.2236 12.8469 49.2236 14.0142C49.2236 15.1815 50.1847 16.1278 51.3702 16.1278Z" fill="#4E3994"/>
<path d="M60.3672 16.1757C61.5528 16.1757 62.5138 15.2294 62.5138 14.0621C62.5138 12.8948 61.5528 11.9485 60.3672 11.9485C59.1817 11.9485 58.2207 12.8948 58.2207 14.0621C58.2207 15.2294 59.1817 16.1757 60.3672 16.1757Z" fill="#4E3994"/>
<path d="M69.2725 16.1278C70.458 16.1278 71.4191 15.1815 71.4191 14.0142C71.4191 12.8469 70.458 11.9006 69.2725 11.9006C68.087 11.9006 67.126 12.8469 67.126 14.0142C67.126 15.1815 68.087 16.1278 69.2725 16.1278Z" fill="#4E3994"/>
<path d="M70.9968 40.0796H54.8102C54.2085 40.0796 53.7207 40.5599 53.7207 41.1523V57.0904C53.7207 57.6829 54.2085 58.1632 54.8102 58.1632H70.9968C71.5985 58.1632 72.0863 57.6829 72.0863 57.0904V41.1523C72.0863 40.5599 71.5985 40.0796 70.9968 40.0796Z" stroke="#4C3692" stroke-width="2.48571" stroke-linecap="round" stroke-linejoin="round"/>
<path d="M57.8818 48.7386L63.0115 53.5277C67.1403 49.0578 71.2669 44.5987 75.3914 40.1501" stroke="#4C3692" stroke-width="2.48571" stroke-linecap="round" stroke-linejoin="round"/>
<path d="M70.9968 77.4666H54.8102C54.2085 77.4666 53.7207 77.9468 53.7207 78.5393V94.4774C53.7207 95.0699 54.2085 95.5501 54.8102 95.5501H70.9968C71.5985 95.5501 72.0863 95.0699 72.0863 94.4774V78.5393C72.0863 77.9468 71.5985 77.4666 70.9968 77.4666Z" stroke="#4C3692" stroke-width="2.48571" stroke-linecap="round" stroke-linejoin="round"/>
<path d="M57.8818 86.1251L63.0115 90.9142L75.3914 77.5334" stroke="#4C3692" stroke-width="2.48571" stroke-linecap="round" stroke-linejoin="round"/>
<path d="M86.5117 43.9879L147.773 43.7227" stroke="#4C3692" stroke-width="2.48571" stroke-miterlimit="11.34" stroke-linecap="round"/>
<path d="M86.4775 50.8457L144.687 50.5261H147.369" stroke="#4C3692" stroke-width="2.48571" stroke-miterlimit="11.34" stroke-linecap="round"/>
<path d="M86.4736 81.5918L143.389 81.2722H146.009" stroke="#4C3692" stroke-width="2.48571" stroke-miterlimit="11.34" stroke-linecap="round"/>
<path d="M86.3896 89.2924L118.325 89.2317H119.797" stroke="#4C3692" stroke-width="2.48571" stroke-miterlimit="11.34" stroke-linecap="round"/>
<path d="M177.504 75.573C194.346 75.573 208 62.1292 208 45.5454C208 28.9616 194.346 15.5178 177.504 15.5178C160.661 15.5178 147.008 28.9616 147.008 45.5454C147.008 62.1292 160.661 75.573 177.504 75.573Z" fill="white" stroke="#4C3692" stroke-width="2.48571" stroke-linecap="round" stroke-linejoin="round"/>
<path d="M176.955 52.5856C176.922 51.3899 177.116 50.1987 177.529 49.0736C177.885 48.1675 178.387 47.3244 179.017 46.5768C179.621 45.8624 180.261 45.1793 180.937 44.5303C181.605 43.8918 182.245 43.2287 182.856 42.5412C183.488 41.8257 183.991 41.0094 184.345 40.1275C184.749 39.0658 184.944 37.9377 184.918 36.8039C184.931 36.0039 184.775 35.2101 184.458 34.4732C184.152 33.7916 183.702 33.1821 183.138 32.6853C182.548 32.165 181.856 31.7685 181.105 31.52C180.284 31.2497 179.423 31.1159 178.557 31.124C177.261 31.0922 175.97 31.2968 174.75 31.7275C173.631 32.1627 172.623 32.8365 171.799 33.7006C171.507 34.0417 171.265 34.4223 171.083 34.8308C170.986 35.102 170.956 35.392 170.995 35.6769L170.768 36.0153L170.308 35.6769L167.675 33.5314C168.446 32.3723 169.36 31.3117 170.395 30.3738C171.412 29.4826 172.601 28.8018 173.891 28.3719C175.453 27.8705 177.089 27.632 178.732 27.6663C180.567 27.6266 182.389 27.9954 184.059 28.7455C185.525 29.4044 186.765 30.4695 187.626 31.8105C188.487 33.2308 188.919 34.8632 188.871 36.5166C188.902 37.8375 188.698 39.1536 188.268 40.4053C187.91 41.4035 187.398 42.3414 186.751 43.1862C186.157 43.9425 185.506 44.6543 184.805 45.3157C184.118 45.9543 183.469 46.6066 182.86 47.2729C182.244 47.9404 181.732 48.6934 181.339 49.5078C180.912 50.4735 180.707 51.5201 180.739 52.5728V54.9003H176.955V52.5856ZM178.959 65.9695C178.522 65.9759 178.088 65.8943 177.684 65.7295C177.281 65.5648 176.915 65.3205 176.611 65.0116C176.303 64.7194 176.057 64.3689 175.89 63.981C175.722 63.5931 175.635 63.1759 175.635 62.7544C175.635 62.3328 175.722 61.9157 175.89 61.5278C176.057 61.1399 176.303 60.7894 176.611 60.4971C176.915 60.1883 177.281 59.944 177.684 59.7792C178.088 59.6145 178.522 59.5329 178.959 59.5393C179.825 59.5393 180.655 59.878 181.268 60.481C181.88 61.0839 182.224 61.9017 182.224 62.7544C182.224 63.6071 181.88 64.4248 181.268 65.0278C180.655 65.6307 179.825 65.9695 178.959 65.9695Z" fill="#4E3994"/>
</svg>
