<svg width="176" height="114" viewBox="0 0 176 114" fill="none" xmlns="http://www.w3.org/2000/svg">
<path d="M168.327 1H7.67266C3.98745 1 1 3.97636 1 7.64787V106.209C1 109.881 3.98745 112.857 7.67266 112.857H168.327C172.013 112.857 175 109.881 175 106.209V7.64787C175 3.97636 172.013 1 168.327 1Z" fill="white" stroke="#EA9B1D" stroke-width="2" stroke-linecap="round" stroke-linejoin="round"/>
<path d="M46.3172 28.8522H27.6768V47.3336H46.3172V28.8522Z" fill="white" stroke="#EA9B1D" stroke-width="1.5" stroke-linejoin="round"/>
<path d="M46.3172 51.4825H27.6768V69.9639H46.3172V51.4825Z" fill="white" stroke="#EA9B1D" stroke-width="1.5" stroke-linejoin="round"/>
<path d="M46.3172 74.49H27.6768V92.9714H46.3172V74.49Z" fill="white" stroke="#EA9B1D" stroke-width="1.5" stroke-linejoin="round"/>
<path d="M71.9021 28.8522H53.2617V47.3336H71.9021V28.8522Z" fill="white" stroke="#EA9B1D" stroke-width="1.5" stroke-linejoin="round"/>
<path d="M97.1219 28.8522H78.4814V47.3336H97.1219V28.8522Z" fill="white" stroke="#EA9B1D" stroke-width="1.5" stroke-linejoin="round"/>
<path d="M97.1219 51.4825H78.4814V69.9639H97.1219V51.4825Z" fill="white" stroke="#EA9B1D" stroke-width="1.5" stroke-linejoin="round"/>
<path d="M122.707 28.475H104.066V46.9565H122.707V28.475Z" fill="white" stroke="#EA9B1D" stroke-width="1.5" stroke-linejoin="round"/>
<path d="M122.707 51.1053H104.066V69.5868H122.707V51.1053Z" fill="white" stroke="#EA9B1D" stroke-width="1.5" stroke-linejoin="round"/>
<path d="M122.707 74.1129H104.066V92.5943H122.707V74.1129Z" fill="white" stroke="#EA9B1D" stroke-width="1.5" stroke-linejoin="round"/>
<path d="M149.388 28.0978H130.748V46.5792H149.388V28.0978Z" fill="white" stroke="#EA9B1D" stroke-width="1.5" stroke-linejoin="round"/>
<path d="M27.0996 21.4285L46.0631 21.3962Z" fill="white"/>
<path d="M27.0996 21.4285L46.0631 21.3962" stroke="#EA9B1D" stroke-width="1.5" stroke-linecap="round" stroke-linejoin="round"/>
<path d="M27.0996 25.4059L46.0631 25.3736Z" fill="white"/>
<path d="M27.0996 25.4059L46.0631 25.3736" stroke="#EA9B1D" stroke-width="1.5" stroke-linecap="round" stroke-linejoin="round"/>
<path d="M53.0732 21.4285L72.0367 21.3962Z" fill="white"/>
<path d="M53.0732 21.4285L72.0367 21.3962" stroke="#EA9B1D" stroke-width="1.5" stroke-linecap="round" stroke-linejoin="round"/>
<path d="M53.0732 25.4059L72.0367 25.3736Z" fill="white"/>
<path d="M53.0732 25.4059L72.0367 25.3736" stroke="#EA9B1D" stroke-width="1.5" stroke-linecap="round" stroke-linejoin="round"/>
<path d="M78.4014 21.4285L97.3649 21.3962Z" fill="white"/>
<path d="M78.4014 21.4285L97.3649 21.3962" stroke="#EA9B1D" stroke-width="1.5" stroke-linecap="round" stroke-linejoin="round"/>
<path d="M78.4014 25.4059L97.3649 25.3736Z" fill="white"/>
<path d="M78.4014 25.4059L97.3649 25.3736" stroke="#EA9B1D" stroke-width="1.5" stroke-linecap="round" stroke-linejoin="round"/>
<path d="M103.471 21.2952L122.434 21.2629Z" fill="white"/>
<path d="M103.471 21.2952L122.434 21.2629" stroke="#EA9B1D" stroke-width="1.5" stroke-linecap="round" stroke-linejoin="round"/>
<path d="M103.471 25.2725L122.434 25.2402Z" fill="white"/>
<path d="M103.471 25.2725L122.434 25.2402" stroke="#EA9B1D" stroke-width="1.5" stroke-linecap="round" stroke-linejoin="round"/>
<path d="M130.518 20.918L149.481 20.8857Z" fill="white"/>
<path d="M130.518 20.918L149.481 20.8857" stroke="#EA9B1D" stroke-width="1.5" stroke-linecap="round" stroke-linejoin="round"/>
<path d="M130.518 24.8953L149.481 24.863Z" fill="white"/>
<path d="M130.518 24.8953L149.481 24.863" stroke="#EA9B1D" stroke-width="1.5" stroke-linecap="round" stroke-linejoin="round"/>
</svg>
