<svg width="176" height="114" viewBox="0 0 176 114" fill="none" xmlns="http://www.w3.org/2000/svg">
<path d="M168.327 1H7.67266C3.98745 1 1 3.97636 1 7.64787V106.209C1 109.881 3.98745 112.857 7.67266 112.857H168.327C172.013 112.857 175 109.881 175 106.209V7.64787C175 3.97636 172.013 1 168.327 1Z" fill="white" stroke="#5C45A5" stroke-width="1.76325" stroke-linecap="round" stroke-linejoin="round"/>
<path d="M1 37.0428H175H1Z" fill="white"/>
<path d="M1 37.0428H175" stroke="#5C45A5" stroke-width="1.76325"/>
<path d="M2.24316 70.5454C2.24316 70.5454 14.2467 70.9684 36.6063 82.3895C58.9659 93.8106 63.4378 73.9294 77.3243 69.4879C91.2107 65.0463 107.033 85.2972 119.507 88.6812C131.982 92.0652 148.404 79.217 155.465 75.1984C162.526 71.1799 175 63.1428 175 63.1428" stroke="#5C45A5" stroke-width="1.96457"/>
<path d="M30.5021 55.5909C29.6064 55.5909 28.8857 56.3392 28.8857 57.269V64.7402C28.8857 65.67 29.6064 66.4183 30.5021 66.4183H35.462L37.3984 70.7363L39.3657 66.4183H54.5051C55.4008 66.4183 56.1215 65.67 56.1215 64.7402V57.269C56.1215 56.3392 55.4008 55.5909 54.5051 55.5909H30.5021Z" fill="white" stroke="#5C45A5" stroke-width="1.76325" stroke-linecap="round" stroke-linejoin="round"/>
<path d="M151.909 59.6255C152.805 59.6255 153.526 60.3737 153.526 61.3035V68.7748C153.526 69.7046 152.805 70.4528 151.909 70.4528H146.95L145.013 74.7709L143.046 70.4528H127.906C127.011 70.4528 126.29 69.7046 126.29 68.7748V61.3035C126.29 60.3737 127.011 59.6255 127.906 59.6255H151.909Z" fill="white" stroke="#5C45A5" stroke-width="1.76325" stroke-linecap="round" stroke-linejoin="round"/>
<path d="M71.1935 96.3387C70.2978 96.3387 69.5771 95.5905 69.5771 94.6607V87.1895C69.5771 86.2597 70.2978 85.5114 71.1935 85.5114H76.1534L78.0898 81.1934L80.0571 85.5114H95.1965C96.0922 85.5114 96.8129 86.2597 96.8129 87.1895V94.6607C96.8129 95.5905 96.0922 96.3387 95.1965 96.3387H71.1935Z" fill="white" stroke="#5C45A5" stroke-width="1.76325" stroke-linecap="round" stroke-linejoin="round"/>
<path d="M46.2842 16.4089H88.9333H46.2842Z" fill="white"/>
<path d="M46.2842 16.4089H88.9333" stroke="#5C45A5" stroke-width="1.76325" stroke-linecap="round"/>
<path d="M46.3916 23.537C57.6988 23.537 60.9718 23.537 80.3132 23.537H46.3916Z" fill="white"/>
<path d="M46.3916 23.537C57.6988 23.537 60.9718 23.537 80.3132 23.537" stroke="#5C45A5" stroke-width="1.76325" stroke-linecap="round"/>
<path d="M26.2429 7.3072C29.3444 6.91578 32.4745 7.77029 34.9469 9.68334C37.4193 11.5964 39.0321 14.4118 39.4317 17.5123C39.8313 20.6128 38.985 23.7451 37.0785 26.2225C35.172 28.7 32.3608 30.3202 29.2614 30.7279C26.162 31.1357 23.0274 30.2977 20.545 28.3977C18.0626 26.4977 16.435 23.6907 16.0191 20.5924C15.6032 17.4941 16.4329 14.3573 18.3264 11.8699C20.2199 9.38249 23.0225 7.74748 26.1197 7.32342" stroke="#5C45A5" stroke-width="1.75" stroke-linecap="round" stroke-linejoin="round"/>
<path d="M26.9925 10.7062C28.0652 10.5708 29.1479 10.8664 30.003 11.5281C30.8582 12.1898 31.416 13.1636 31.5542 14.236C31.6924 15.3084 31.3997 16.3918 30.7403 17.2487C30.0808 18.1056 29.1085 18.666 28.0365 18.807C26.9645 18.948 25.8803 18.6582 25.0217 18.001C24.1631 17.3438 23.6001 16.373 23.4562 15.3013C23.3124 14.2297 23.5994 13.1447 24.2543 12.2844C24.9092 11.424 25.8786 10.8585 26.9498 10.7118" stroke="#5C45A5" stroke-width="1.75" stroke-linecap="round" stroke-linejoin="round"/>
<path d="M18.9316 26.4992C18.993 24.4363 22.7267 20.2023 27.9179 20.2023C33.1092 20.2023 36.1109 25.3595 36.3631 26.9912C34.5164 29.3116 30.9261 30.8879 27.6884 30.7956C24.3842 30.7014 19.6574 28.9558 18.9316 26.4992Z" stroke="#5C45A5" stroke-width="1.75"/>
</svg>

