<svg width="176" height="114" viewBox="0 0 176 114" fill="none" xmlns="http://www.w3.org/2000/svg">
<path d="M168.327 1H7.67266C3.98745 1 1 3.97636 1 7.64787V106.209C1 109.881 3.98745 112.857 7.67266 112.857H168.327C172.013 112.857 175 109.881 175 106.209V7.64787C175 3.97636 172.013 1 168.327 1Z" fill="white" stroke="#EA9B1D" stroke-width="2" stroke-linecap="round" stroke-linejoin="round"/>
<path d="M86.1587 24.6143H27.9713C24.7447 24.6143 22.1289 27.2235 22.1289 30.4423V83.0936C22.1289 86.3123 24.7447 88.9216 27.9713 88.9216H86.1587C89.3854 88.9216 92.0012 86.3123 92.0012 83.0936V30.4423C92.0012 27.2235 89.3854 24.6143 86.1587 24.6143Z" fill="white" stroke="#EA9B1D" stroke-width="2" stroke-linecap="round" stroke-linejoin="round"/>
<path d="M122.332 28.8188C129.552 27.9165 136.839 29.8863 142.594 34.2961C148.349 38.7058 152.103 45.1956 153.033 52.3422C153.963 59.4888 151.992 66.7087 147.553 72.4187C143.114 78.1286 136.57 81.8625 129.355 82.8013C122.139 83.7402 114.842 81.8075 109.064 77.427C103.286 73.0465 99.4985 66.5758 98.5318 59.4341C97.5651 52.2923 99.4983 45.0624 103.908 39.33C108.317 33.5976 114.842 29.8306 122.052 28.8551" fill="white"/>
<path d="M122.332 28.8188C129.552 27.9165 136.839 29.8863 142.594 34.2961C148.349 38.7058 152.103 45.1956 153.033 52.3422C153.963 59.4888 151.992 66.7087 147.553 72.4187C143.114 78.1286 136.57 81.8625 129.355 82.8013C122.139 83.7402 114.842 81.8075 109.064 77.427C103.286 73.0465 99.4985 66.5758 98.5318 59.4341C97.5651 52.2923 99.4983 45.0624 103.908 39.33C108.317 33.5976 114.842 29.8306 122.052 28.8551" stroke="#EA9B1D" stroke-width="2" stroke-linecap="round" stroke-linejoin="round"/>
<path d="M23.6035 25.7991L43.6233 46.4923L23.6035 25.7991Z" fill="white"/>
<path d="M23.6035 25.7991L43.6233 46.4923" stroke="#EA9B1D" stroke-width="2"/>
<path d="M23.7236 87.195L42.1562 70.0837L23.7236 87.195Z" fill="white"/>
<path d="M23.7236 87.195L42.1562 70.0837" stroke="#EA9B1D" stroke-width="2"/>
<path d="M70.8018 56.7678L98.7163 56.8741L70.8018 56.7678Z" fill="white"/>
<path d="M70.8018 56.7678L98.7163 56.8741" stroke="#EA9B1D" stroke-width="2"/>
<path d="M144.541 35.0471L132.966 48.4654L144.541 35.0471Z" fill="white"/>
<path d="M144.541 35.0471L132.966 48.4654" stroke="#EA9B1D" stroke-width="2"/>
<path d="M143.084 76.8637L131.912 63.8687L143.084 76.8637Z" fill="white"/>
<path d="M143.084 76.8637L131.912 63.8687" stroke="#EA9B1D" stroke-width="2"/>
<path d="M116.384 56.7678L98.5537 56.8316L116.384 56.7678Z" fill="white"/>
<path d="M116.384 56.7678L98.5537 56.8316" stroke="#EA9B1D" stroke-width="2"/>
<path d="M124.892 45.9524C127.516 45.6245 130.164 46.3403 132.255 47.9428C134.347 49.5453 135.711 51.9038 136.049 54.5009C136.388 57.0981 135.672 59.7221 134.059 61.7973C132.446 63.8726 130.067 65.2298 127.445 65.5714C124.823 65.9129 122.171 65.2109 120.071 63.6194C117.971 62.0278 116.594 59.6765 116.242 57.0811C115.89 54.4857 116.592 51.8581 118.194 49.7744C119.796 47.6908 122.167 46.3212 124.787 45.966" fill="white"/>
<path d="M124.892 45.9524C127.516 45.6245 130.164 46.3403 132.255 47.9428C134.347 49.5453 135.711 51.9038 136.049 54.5009C136.388 57.0981 135.672 59.7221 134.059 61.7973C132.446 63.8726 130.067 65.2298 127.445 65.5714C124.823 65.9129 122.171 65.2109 120.071 63.6194C117.971 62.0278 116.594 59.6765 116.242 57.0811C115.89 54.4857 116.592 51.8581 118.194 49.7744C119.796 47.6908 122.167 46.3212 124.787 45.966" stroke="#EA9B1D" stroke-width="2" stroke-linecap="round" stroke-linejoin="round"/>
<path d="M120.2 54.3393C120.2 54.3393 120.246 52.6873 121.982 52.6873C123.689 52.6873 123.82 54.3393 123.82 54.3393" fill="white"/>
<path d="M120.2 54.3393C120.2 54.3393 120.246 52.6873 121.982 52.6873C123.689 52.6873 123.82 54.3393 123.82 54.3393" stroke="#EA9B1D" stroke-width="1.5" stroke-linecap="round"/>
<path d="M132.191 54.3395C132.191 54.3395 132.145 52.6875 130.409 52.6875C128.702 52.6875 128.571 54.3395 128.571 54.3395" fill="white"/>
<path d="M132.191 54.3395C132.191 54.3395 132.145 52.6875 130.409 52.6875C128.702 52.6875 128.571 54.3395 128.571 54.3395" stroke="#EA9B1D" stroke-width="1.5" stroke-linecap="round"/>
<path d="M123.044 58.5837C123.044 58.5837 123.123 61.2131 126.119 61.2131C129.065 61.2131 129.291 58.5837 129.291 58.5837" fill="white"/>
<path d="M123.044 58.5837C123.044 58.5837 123.123 61.2131 126.119 61.2131C129.065 61.2131 129.291 58.5837 129.291 58.5837" stroke="#EA9B1D" stroke-width="1.5" stroke-linecap="round"/>
<path d="M70.5363 50.7959H42.6268C42.3664 50.7959 42.1553 51.0845 42.1553 51.4406V69.4389C42.1553 69.795 42.3664 70.0837 42.6268 70.0837H70.5363C70.7967 70.0837 71.0078 69.795 71.0078 69.4389V51.4406C71.0078 51.0845 70.7967 50.7959 70.5363 50.7959Z" fill="white" stroke="#EA9B1D" stroke-width="2" stroke-linecap="round" stroke-linejoin="round"/>
<path d="M72.1832 46.5247H40.7684C40.2701 46.5247 39.8662 46.8402 39.8662 47.2293V49.9007C39.8662 50.2899 40.2701 50.6054 40.7684 50.6054H72.1832C72.6815 50.6054 73.0854 50.2899 73.0854 49.9007V47.2293C73.0854 46.8402 72.6815 46.5247 72.1832 46.5247Z" fill="white" stroke="#EA9B1D" stroke-width="2" stroke-linecap="round" stroke-linejoin="round"/>
<path d="M57.0645 46.3756C57.0645 46.3756 57.9005 42.5382 60.1091 41.0673C62.3176 39.5963 65.1897 42.5823 63.3553 44.3986C61.5209 46.215 57.0645 46.3756 57.0645 46.3756Z" fill="white" stroke="#EA9B1D" stroke-width="2"/>
<path d="M57.0639 46.3756C57.0639 46.3756 56.2279 42.5382 54.0193 41.0673C51.8108 39.5963 48.9387 42.5823 50.7731 44.3986C52.6075 46.215 57.0639 46.3756 57.0639 46.3756Z" fill="white" stroke="#EA9B1D" stroke-width="2"/>
<path d="M58.1446 50.6877H55.8428C55.818 50.6877 55.7979 50.7077 55.7979 50.7322V69.917C55.7979 69.9415 55.818 69.9614 55.8428 69.9614H58.1446C58.1694 69.9614 58.1895 69.9415 58.1895 69.917V50.7322C58.1895 50.7077 58.1694 50.6877 58.1446 50.6877Z" fill="white" stroke="#EA9B1D" stroke-width="2" stroke-linecap="round" stroke-linejoin="round"/>
</svg>
