<svg width="316" height="337" viewBox="0 0 316 337" fill="none" xmlns="http://www.w3.org/2000/svg">
<path d="M66.6733 124.756C67.0737 174.394 101.661 214.356 158.07 213.887C213.203 213.457 248.429 172.932 248.051 123.295C247.674 73.6569 224.258 31.2517 154.834 31.822C94.9724 32.2941 66.273 75.1185 66.6733 124.756Z" fill="#ED744A" stroke="black" stroke-width="1.5107" stroke-miterlimit="10"/>
<path d="M56.8537 124.756C57.2541 174.394 91.8415 214.356 148.251 213.887C203.384 213.457 238.609 172.932 238.232 123.295C237.854 73.6569 214.438 31.2517 145.014 31.822C85.1528 32.2941 56.4534 75.1185 56.8537 124.756Z" fill="#FFE7E2" stroke="black" stroke-width="1.5107" stroke-miterlimit="10"/>
<path d="M65.2268 123.419C65.6045 168.582 96.7853 204.944 147.658 204.532C197.364 204.132 229.137 167.263 228.79 122.086C228.443 76.9087 207.334 38.3558 144.72 38.8581C90.7387 39.2962 64.8794 78.2759 65.2268 123.419Z" stroke="black" stroke-width="1.5107" stroke-miterlimit="10"/>
<path d="M131.18 136.785C140.331 133.122 150.173 140.143 150.222 150.004C150.273 152.336 149.855 154.654 148.991 156.821C142.861 171.641 114.766 176.698 101.717 164.404C95.4594 158.509 94.2659 150.144 94.0128 145.872C94.9161 147.632 96.2669 149.124 97.9293 150.196C104.505 154.351 113.036 149.924 118.701 146.197C122.743 143.527 125.738 139.452 130.16 137.253C130.481 137.084 130.825 136.929 131.18 136.785Z" fill="#474747" stroke="black" stroke-width="1.88837" stroke-miterlimit="10"/>
<g opacity="0.74">
<path d="M105.819 147C120.233 147 131.919 130.772 131.919 110.753C131.919 90.7347 120.233 79 105.819 79C91.4046 79 77.9186 90.7347 77.9186 110.753C77.9186 130.772 91.4046 147 105.819 147Z" fill="white" stroke="black" stroke-width="2.1021" stroke-miterlimit="10"/>
<path d="M114.11 110.049L126.351 113.756C127.443 126.724 118.583 137.749 108.277 137.305C96.9797 136.81 87.1841 127.006 86.3778 112.864C85.5715 98.7212 94.0689 86.7476 105.358 86.104C114.615 85.5762 122.736 94.6077 125.854 105.032L114.11 110.049Z" fill="black"/>
<path d="M101.961 141.041C97.567 141.044 93.2301 140.05 89.2768 138.133C85.3235 136.216 81.8571 133.426 79.139 129.974C76.4208 126.523 74.5219 122.499 73.5854 118.206C72.649 113.913 72.6994 109.464 73.7329 105.194C74.7665 100.924 76.7561 96.9437 79.5518 93.5544C82.3474 90.165 85.8761 87.4547 89.8719 85.6278C93.8676 83.8009 98.226 82.9051 102.618 83.008C107.011 83.1108 111.322 84.2096 115.228 86.2215C121.012 89.2007 125.626 94.0367 128.332 99.9533C131.037 105.87 131.676 112.524 130.145 118.847C128.615 125.17 125.004 130.796 119.893 134.821C114.782 138.845 108.466 141.036 101.961 141.041Z" fill="#C9E2DE" fill-opacity="0.6"/>
<path d="M102.677 82.9855C108.922 82.9894 114.995 85.0342 119.971 88.8085C124.947 92.5828 128.553 97.8799 130.24 103.893C131.928 109.906 131.603 116.306 129.317 122.118C127.031 127.93 122.908 132.836 117.577 136.088C112.245 139.34 105.996 140.761 99.7825 140.134C93.5687 139.507 87.73 136.866 83.1556 132.614C78.5812 128.362 75.5217 122.732 74.443 116.58C73.3642 110.428 74.3254 104.093 77.1801 98.5381C79.5574 93.8264 83.2046 89.8732 87.7101 87.125C92.2155 84.3768 97.3996 82.9429 102.677 82.9855ZM102.677 82.2301C95.4807 82.2212 88.5311 84.8517 83.1444 89.6234C77.7577 94.3951 74.308 100.977 73.4487 108.121C72.5894 115.266 74.3803 122.478 78.4819 128.391C82.5836 134.303 88.7114 138.507 95.7045 140.204C102.698 141.902 110.07 140.976 116.426 137.602C122.783 134.227 127.681 128.639 130.193 121.896C132.705 115.152 132.656 107.722 130.057 101.011C127.458 94.301 122.487 88.7771 116.088 85.4857C111.94 83.3512 107.342 82.2352 102.677 82.2301Z" fill="black"/>
</g>
<path d="M119.087 79.7866C112.775 76.5474 105.645 75.2521 98.5973 76.0643C91.5496 76.8765 84.9009 79.7598 79.4915 84.3498C74.0822 88.9397 70.1549 95.0303 68.2061 101.852C66.2574 108.673 66.3746 115.919 68.543 122.674C70.7114 129.429 74.8336 135.389 80.3886 139.802C85.9437 144.214 92.6822 146.881 99.7524 147.465C106.823 148.049 113.907 146.523 120.111 143.082C126.314 139.64 131.359 134.437 134.606 128.129C136.764 123.936 138.074 119.359 138.462 114.66C138.85 109.961 138.308 105.231 136.867 100.741C135.426 96.2511 133.113 92.0895 130.063 88.494C127.012 84.8985 123.282 81.9396 119.087 79.7866ZM89.1826 137.975C83.9891 135.305 79.7037 131.155 76.8686 126.05C74.0334 120.945 72.7758 115.114 73.2547 109.294C73.7335 103.474 75.9273 97.9266 79.5587 93.3534C83.1901 88.7803 88.096 85.3866 93.6561 83.6016C99.2162 81.8165 105.181 81.7202 110.795 83.3249C116.41 84.9296 121.423 88.1631 125.2 92.6167C128.977 97.0702 131.349 102.544 132.015 108.345C132.682 114.147 131.613 120.015 128.944 125.209C127.172 128.659 124.738 131.726 121.781 134.235C118.824 136.744 115.402 138.646 111.709 139.832C108.017 141.019 104.127 141.466 100.262 141.148C96.3967 140.831 92.632 139.755 89.1826 137.982V137.975Z" fill="#DBAA0F" stroke="black" stroke-width="1.5107" stroke-linejoin="round"/>
<path d="M140.864 66.0846C144.144 64.9423 147.71 64.9198 151.004 66.0204C151.347 66.1388 151.716 66.1605 152.071 66.0833C152.425 66.0061 152.752 65.8329 153.015 65.5826C153.277 65.3323 153.466 65.0146 153.561 64.6641C153.655 64.3137 153.651 63.9441 153.55 63.5957L147.847 44.4212C147.723 44.0171 147.472 43.6634 147.133 43.4121C146.793 43.1609 146.381 43.0253 145.958 43.0253C145.536 43.0253 145.124 43.1609 144.784 43.4121C144.444 43.6634 144.194 44.0171 144.07 44.4212L138.352 63.6524C138.249 63.9979 138.243 64.3649 138.335 64.7136C138.426 65.0622 138.612 65.3792 138.87 65.6299C139.129 65.8807 139.452 66.0556 139.803 66.1358C140.155 66.216 140.522 66.1982 140.864 66.0846Z" fill="#F5816A" stroke="black" stroke-width="1.5107" stroke-miterlimit="10"/>
<path d="M144.837 176.705C147.986 177.779 151.401 177.779 154.55 176.705C154.878 176.587 155.231 176.562 155.572 176.632C155.913 176.703 156.228 176.866 156.482 177.104C156.736 177.342 156.919 177.645 157.012 177.981C157.104 178.316 157.102 178.671 157.005 179.005L151.695 197.417C151.583 197.809 151.347 198.154 151.023 198.4C150.698 198.647 150.303 198.782 149.896 198.785C149.488 198.789 149.09 198.66 148.762 198.419C148.434 198.178 148.192 197.837 148.073 197.447L142.446 179.073C142.34 178.742 142.328 178.387 142.411 178.049C142.494 177.711 142.668 177.402 142.916 177.157C143.163 176.912 143.474 176.74 143.813 176.66C144.152 176.581 144.506 176.596 144.837 176.705Z" fill="#8C7BC7" stroke="black" stroke-width="1.5107" stroke-miterlimit="10"/>
<path d="M157.228 130.961C156.768 132.546 155.94 133.999 154.811 135.203C154.1 135.918 153.297 136.537 152.424 137.042C147.601 139.686 141.596 137.741 139.009 132.676C136.422 127.611 138.235 121.346 143.062 118.702C143.938 118.218 144.885 117.875 145.868 117.686C147.448 117.381 149.08 117.486 150.608 117.992C151.842 118.441 152.972 119.135 153.931 120.032C154.986 120.956 155.88 122.05 156.575 123.268" fill="#FFDE72"/>
<path d="M157.228 130.961C156.768 132.546 155.94 133.999 154.811 135.203C154.1 135.918 153.297 136.537 152.424 137.042C147.601 139.686 141.596 137.741 139.009 132.676C136.422 127.611 138.235 121.346 143.062 118.702C143.938 118.218 144.885 117.875 145.868 117.686C147.448 117.381 149.08 117.486 150.608 117.992C151.842 118.441 152.972 119.135 153.931 120.032C154.986 120.956 155.88 122.05 156.575 123.268" stroke="black" stroke-width="1.5107" stroke-miterlimit="10" stroke-linecap="round"/>
<path d="M145.762 120.492C144.429 121.351 143.326 122.523 142.55 123.905C141.773 125.287 141.346 126.838 141.306 128.423" stroke="white" stroke-width="1.88837" stroke-miterlimit="10" stroke-linecap="round"/>
<path d="M167.845 134.632C158.38 131.868 149.267 139.807 150.169 149.622C150.344 151.95 150.987 154.218 152.058 156.292C159.592 170.451 188.043 172.766 199.845 159.268C205.51 152.799 205.888 144.354 205.722 140.078C204.991 141.917 203.79 143.53 202.239 144.758C196.095 149.524 187.163 145.955 181.184 142.786C176.905 140.52 173.532 136.744 168.917 134.995C168.57 134.859 168.211 134.738 167.845 134.632Z" fill="#474747" stroke="black" stroke-width="1.88837" stroke-miterlimit="10"/>
<path d="M17.1124 149L69.385 127.793L65.8652 117.705L15.0453 138.507C15.0453 138.507 11.7759 142.859 17.1124 149Z" fill="#7C3903" stroke="black" stroke-width="1.5107" stroke-miterlimit="10"/>
<path d="M46.9851 132.034C48.1181 136.389 47.223 141.28 42.4983 142.348C37.411 143.481 34.5671 139.807 33.4341 134.719C32.4899 130.542 33.4341 123.869 39.0992 124.073C40.8101 124.133 42.4227 124.979 43.6992 126.12C45.1722 127.468 46.3733 129.67 46.9851 132.034Z" fill="#FFFEFD" stroke="black" stroke-width="1.5107" stroke-miterlimit="10"/>
<path d="M36.1192 136.385C36.3977 137.167 36.6186 137.969 36.7802 138.783C37.4487 142.307 36.2703 145.536 32.5124 146.386C27.478 147.519 24.653 143.825 23.5049 138.738C22.7911 135.58 23.3236 130.304 26.598 128.646C31.1414 126.346 34.6274 132.091 36.1192 136.385Z" fill="#FFFEFD" stroke="black" stroke-width="1.5107" stroke-miterlimit="10"/>
<path d="M25.1063 140.943C26.7643 145.887 26.9947 149.864 22.7609 151.284C15.7022 153.648 10.4488 140.781 14.5579 135.898C15.0844 135.286 15.757 134.818 16.513 134.536C17.269 134.254 18.0839 134.168 18.8822 134.285C22.3115 134.825 24.1205 137.99 25.1063 140.943Z" fill="#FFFEFD" stroke="black" stroke-width="1.5107" stroke-miterlimit="10"/>
<path d="M137.113 30.9118C137.113 30.9118 144.727 29.7788 149.61 30.9118C149.61 30.9118 151.174 26.8971 149.61 25.462C148.047 24.0268 138.869 24.3289 137.113 25.462C135.357 26.595 137.113 30.9118 137.113 30.9118Z" fill="#F7C326" stroke="black" stroke-width="1.5107" stroke-miterlimit="10"/>
<path d="M143.507 1C138.106 1 133.729 6.44983 133.729 13.1611C133.729 19.8724 138.106 25.326 143.507 25.326C148.908 25.326 153.285 19.8799 153.285 13.1611C153.285 6.44228 148.908 1 143.507 1ZM143.507 22.0364C139.621 22.0364 136.467 18.1124 136.467 13.2782C136.467 8.44395 139.621 4.51991 143.507 4.51991C147.393 4.51991 150.547 8.44395 150.547 13.2782C150.547 18.1124 147.393 22.0364 143.507 22.0364Z" fill="#F7C326" stroke="black" stroke-width="1.5107" stroke-miterlimit="10"/>
<path d="M205.374 100.181C198.806 89.0283 184.844 85.074 174.193 91.3472C166.602 95.8189 162.738 104.279 163.524 112.807" stroke="black" stroke-width="2.26604" stroke-miterlimit="10" stroke-linecap="round"/>
<path d="M158.248 88.2881C160.127 88.7154 162.089 88.6048 163.908 87.9689C165.728 87.333 167.332 86.1976 168.536 84.6926C170.915 81.6334 171.327 77.5168 172.992 74.0157C174.283 71.3927 176.254 69.1638 178.699 67.5616C181.144 65.9594 183.974 65.0424 186.894 64.9062" stroke="black" stroke-width="2.26604" stroke-miterlimit="10" stroke-linecap="round"/>
<path d="M144.327 170.647C144.652 169.575 145.215 168.59 145.973 167.766C146.732 166.941 147.667 166.299 148.708 165.885C149.749 165.472 150.87 165.299 151.988 165.378C153.105 165.458 154.19 165.789 155.162 166.346L154.558 165.968" stroke="black" stroke-width="1.5107" stroke-miterlimit="10" stroke-linecap="round"/>
<path d="M244.607 161.806C243.039 160.639 241.091 160.114 238.598 160.012C231.962 159.729 226.826 161.746 222.358 166.557C218.272 170.957 216.293 176.335 216.886 182.37C217.414 187.737 221.312 193.727 225.319 197.232C229.205 200.631 234.383 202.659 239.538 202.179C243.413 201.802 246.714 197.542 245.079 193.769C247.062 195.536 250.136 194.241 251.832 192.579C252.361 192.048 252.775 191.414 253.046 190.715C253.317 190.016 253.44 189.268 253.407 188.519C253.361 180.543 251.001 172.657 247.511 165.515C246.858 164.061 245.861 162.788 244.607 161.806Z" fill="#FFFEFD" stroke="black" stroke-width="1.5107" stroke-miterlimit="10"/>
<path d="M248.452 185.158C248.452 185.158 249.94 191.956 238.232 196.866Z" fill="#FFFEFD"/>
<path d="M248.452 185.158C248.452 185.158 249.94 191.956 238.232 196.866" stroke="black" stroke-width="1.5107" stroke-miterlimit="10"/>
<path d="M223.65 172.181C223.715 171.411 224.025 170.682 224.533 170.1C225.01 169.546 225.605 169.105 226.274 168.812C226.944 168.518 227.67 168.379 228.401 168.404C229.174 168.424 229.921 168.688 230.535 169.159V169.31C229.905 169.352 229.28 169.446 228.665 169.59C228.052 169.735 227.455 169.94 226.883 170.202C226.304 170.448 225.75 170.749 225.228 171.101C224.707 171.458 224.216 171.857 223.759 172.294L223.65 172.181Z" fill="black"/>
<path d="M223.544 177.03C223.483 176.318 223.654 175.605 224.031 174.998C224.376 174.43 224.848 173.949 225.41 173.593C225.971 173.237 226.607 173.015 227.268 172.944C227.977 172.859 228.695 173.004 229.315 173.359L229.349 173.506C228.795 173.655 228.253 173.84 227.725 174.062C227.198 174.285 226.692 174.555 226.214 174.87C225.728 175.169 225.269 175.51 224.843 175.89C224.42 176.273 224.024 176.684 223.657 177.121L223.544 177.03Z" fill="black"/>
<path d="M223.706 182.359C223.608 181.611 223.764 180.852 224.148 180.203C224.507 179.586 225.005 179.064 225.604 178.676C226.202 178.289 226.884 178.049 227.593 177.974C228.341 177.888 229.097 178.053 229.742 178.443L229.764 178.594C229.174 178.718 228.595 178.892 228.035 179.115C227.475 179.342 226.94 179.624 226.437 179.957C225.925 180.284 225.449 180.663 225.017 181.09C224.586 181.515 224.194 181.977 223.846 182.472L223.706 182.359Z" fill="black"/>
<path d="M41.0857 164.34C42.38 163.924 43.7693 163.906 45.074 164.288C46.3787 164.67 47.539 165.434 48.405 166.482C50.2632 168.77 53.1902 170.972 56.9632 169.295C63.7613 166.274 61.7747 155.223 61.7747 155.223C61.7747 155.223 66.405 168.54 71.073 174.862C71.073 174.862 68.6711 183.262 58.0962 185.528C49.5457 187.359 43.3895 184.017 37.3807 174.575C36.8151 173.688 36.4606 172.684 36.3449 171.638C36.2292 170.593 36.3552 169.535 36.7133 168.546C37.0713 167.556 37.6517 166.663 38.4099 165.934C39.168 165.205 40.0835 164.659 41.0857 164.34Z" fill="#19888F" stroke="black" stroke-width="1.13302" stroke-miterlimit="10"/>
<ellipse cx="158" cy="302.588" rx="144.499" ry="31.4441" transform="rotate(0.851505 158 302.588)" fill="#9882E3" fill-opacity="0.59"/>
<path d="M257.958 170.428C260.046 176.592 257.708 182.96 252.727 184.648C247.745 186.336 240.891 183.715 238.798 177.551C236.706 171.388 240.173 164.015 245.155 162.327C250.136 160.639 255.865 164.257 257.958 170.428Z" fill="#FFFEFD" stroke="black" stroke-width="1.5107" stroke-miterlimit="10"/>
<path d="M40.732 169.631C46.1539 167.752 49.462 163.091 48.1209 159.22C46.7797 155.35 41.2972 153.735 35.8753 155.613C30.4534 157.492 27.1453 162.152 28.4865 166.023C29.8276 169.894 35.3101 171.509 40.732 169.631Z" fill="#FFFEFD" stroke="black" stroke-width="1.5107" stroke-miterlimit="10"/>
<path d="M244.652 125.863C258.566 124.802 270.965 133.669 274.111 145.88C277.759 160.046 268.238 175.954 252.206 179.493C252.206 179.493 245.03 181.381 244.652 174.583C244.275 167.785 248.807 167.029 248.807 167.029C248.807 167.029 261.648 165.141 263.158 155.321C264.669 145.502 253.716 136.438 245.408 138.326" fill="#19888F"/>
<path d="M244.652 125.863C258.566 124.802 270.965 133.669 274.111 145.88C277.759 160.046 268.238 175.954 252.206 179.493C252.206 179.493 245.03 181.381 244.652 174.583C244.275 167.785 248.807 167.029 248.807 167.029C248.807 167.029 261.648 165.141 263.158 155.321C264.669 145.502 253.716 136.438 245.408 138.326" stroke="black" stroke-width="1.13302" stroke-miterlimit="10"/>
<path d="M197.114 257.293C197.114 257.293 204.113 257.293 204.811 261.142C205.627 265.617 201.661 267.789 201.661 267.789C201.661 267.789 207.262 270.588 207.961 273.386C214.499 269.708 222.411 269.666 228.605 273.386C236.075 277.873 239.848 287.115 237.699 296.13C237.439 297.369 236.966 298.553 236.302 299.631C230.259 309.303 209.487 309.99 194.663 303.479C186.653 299.959 178.529 295.956 175.779 288.784C172.033 279.047 176.248 269.421 177.177 268.14C177.177 268.14 171.58 265.342 175.428 261.142C179.277 256.942 197.114 257.293 197.114 257.293Z" fill="#F7C326" stroke="black" stroke-width="1.5107" stroke-miterlimit="10"/>
<path d="M236.302 299.638C238.077 298.248 240.026 302.437 239.452 304.884C237.797 311.898 218.781 316.449 202.711 312.932C196.555 311.584 185.471 308.079 174.008 297.538C174.008 297.538 170.16 291.59 175.757 288.097C175.757 288.097 185.992 301.87 200.642 304.605C215.292 307.339 228.253 305.934 236.302 299.638Z" fill="#F7C326" stroke="black" stroke-width="1.5107" stroke-miterlimit="10"/>
<path d="M207.81 274.225C207.375 274.455 206.951 274.707 206.541 274.98C206.118 275.259 205.699 275.55 205.295 275.86C204.478 276.479 203.7 277.148 202.965 277.862C202.223 278.575 201.524 279.332 200.872 280.128C200.215 280.934 199.604 281.776 199.04 282.651C199.492 281.709 199.997 280.793 200.551 279.909C201.113 279.015 201.728 278.156 202.394 277.337C203.062 276.51 203.78 275.724 204.543 274.984C205.318 274.22 206.156 273.523 207.047 272.899L207.67 272.472L208.471 273.87L207.81 274.225Z" fill="black"/>
<path d="M233.586 289.773C233.573 289.97 233.525 290.163 233.447 290.344C233.088 291.076 231.936 290.993 231.366 290.408C230.795 289.823 230.652 288.961 230.455 288.172C229.972 286.264 229.092 284.479 227.872 282.933C226.653 281.388 225.121 280.117 223.378 279.202C223 279.01 222.551 278.726 222.589 278.303C222.626 278.158 222.694 278.022 222.788 277.905C222.881 277.788 222.999 277.692 223.132 277.624C225.716 275.796 229.013 278.912 230.599 280.702C232.529 282.87 233.93 286.782 233.586 289.773Z" fill="white"/>
<path d="M184.98 207.44C184.98 207.44 198.198 224.436 196.793 258.804C196.756 260.219 196.221 261.575 195.281 262.633C194.341 263.691 193.057 264.383 191.657 264.586C190.063 264.802 190.146 265.002 188.379 264.851C185.187 264.579 182.54 261.629 182.714 258.43C183.193 249.642 181.498 227.778 171.383 211.599C171.383 211.595 178.937 210.462 184.98 207.44Z" fill="#19888F" stroke="black" stroke-width="1.5107" stroke-miterlimit="10"/>
<path d="M117.81 256.247C117.81 256.247 110.831 256.247 110.132 260.084C109.32 264.549 113.271 266.716 113.271 266.716C113.271 266.716 107.689 269.507 106.99 272.298C100.471 268.627 92.5816 268.59 86.4029 272.298C78.9514 276.774 75.1897 285.989 77.3387 294.959C77.5978 296.195 78.0707 297.376 78.7361 298.449C84.7562 308.098 105.472 308.782 120.258 302.29C128.249 298.781 136.35 294.789 139.1 287.632C142.835 277.926 138.631 268.322 137.706 267.045C137.706 267.045 143.288 264.254 139.451 260.066C135.614 255.877 117.818 256.228 117.818 256.228" fill="#F7C326"/>
<path d="M117.81 256.247C117.81 256.247 110.831 256.247 110.132 260.084C109.32 264.549 113.271 266.716 113.271 266.716C113.271 266.716 107.689 269.507 106.99 272.298C100.471 268.627 92.5816 268.59 86.4029 272.298C78.9514 276.774 75.1897 285.989 77.3387 294.959C77.5978 296.195 78.0707 297.376 78.7361 298.449C84.7562 308.098 105.472 308.782 120.258 302.29C128.249 298.781 136.35 294.789 139.1 287.632C142.835 277.926 138.631 268.322 137.706 267.045C137.706 267.045 143.288 264.254 139.451 260.066C135.614 255.877 117.818 256.228 117.818 256.228" stroke="black" stroke-width="1.5107" stroke-miterlimit="10"/>
<path d="M78.7285 298.46C76.9572 297.074 75.0122 301.255 75.5863 303.694C77.2329 310.689 96.1997 315.229 112.221 311.72C118.362 310.379 129.42 306.882 140.833 296.368C140.833 296.368 144.674 290.434 139.088 286.926C139.088 286.926 128.891 300.662 114.271 303.389C99.6517 306.115 86.754 304.748 78.7285 298.46Z" fill="#F7C326" stroke="black" stroke-width="1.5107" stroke-miterlimit="10"/>
<path d="M107.889 271.815C108.777 272.438 109.613 273.134 110.385 273.896C111.147 274.634 111.863 275.417 112.53 276.241C113.193 277.06 113.806 277.918 114.366 278.809C114.92 279.692 115.424 280.605 115.877 281.544C115.315 280.671 114.705 279.832 114.049 279.029C113.398 278.233 112.7 277.476 111.96 276.763C111.228 276.05 110.452 275.384 109.637 274.768C109.233 274.459 108.818 274.168 108.395 273.888C107.972 273.609 107.53 273.345 107.13 273.133L106.454 272.789L107.254 271.392L107.889 271.815Z" fill="black"/>
<path d="M113.546 266.059C114.153 266.458 114.784 266.82 115.435 267.143C116.095 267.479 116.771 267.78 117.463 268.046C118.159 268.309 118.872 268.526 119.597 268.695C120.331 268.86 121.08 268.956 121.832 268.982C121.076 269.113 120.308 269.174 119.54 269.164C118.763 269.147 117.988 269.078 117.221 268.956C116.45 268.835 115.686 268.672 114.932 268.469C114.163 268.261 113.406 268.009 112.666 267.713L111.783 267.358L112.772 265.519L113.546 266.059Z" fill="black"/>
<path d="M137.325 268.582C136.79 268.776 136.242 268.931 135.685 269.047C135.148 269.163 134.605 269.247 134.058 269.3C133.518 269.354 132.976 269.37 132.434 269.349C131.902 269.33 131.373 269.268 130.851 269.164C131.369 269.112 131.882 269.017 132.385 268.88C132.879 268.748 133.363 268.581 133.835 268.382C134.3 268.186 134.754 267.964 135.194 267.717C135.619 267.483 136.026 267.219 136.414 266.928L137.17 266.339L138.22 268.254L137.325 268.582Z" fill="black"/>
<path d="M81.4365 288.618C81.449 288.813 81.495 289.005 81.5724 289.184C81.9501 289.917 83.0831 289.834 83.6496 289.248C84.2161 288.663 84.3635 287.806 84.5561 287.016C85.039 285.114 85.9171 283.335 87.1333 281.795C88.3494 280.254 89.8765 278.988 91.6148 278.077C91.9925 277.88 92.4419 277.601 92.4004 277.178C92.374 276.88 92.1095 276.672 91.864 276.498C89.2845 274.678 85.9988 277.786 84.4163 279.572C82.4902 281.744 81.0928 285.649 81.4365 288.618Z" fill="white"/>
<path d="M118.887 210.084L117.81 259.386C117.81 259.386 118.856 263.227 124.438 263.574C130.02 263.922 131.418 260.436 131.418 260.436L132.861 213.106C132.861 213.106 123.419 212.875 118.887 210.084Z" fill="#19888F" stroke="black" stroke-width="1.5107" stroke-miterlimit="10"/>
<path d="M9.03925 148.687C7.68896 150.4 9.29863 152.951 10.6036 154.874C11.9786 156.904 13.4112 158.934 15.2884 160.586C18.4716 163.361 22.7014 164.875 27.0747 164.805C31.8593 164.684 36.4336 162.96 39.9478 159.954C44.0892 156.359 45.1925 151.775 44.9867 146.684C44.8755 143.866 44.715 138.577 41.5739 137.115C40.3389 136.536 38.8609 137.145 37.6341 137.751C34.0814 139.502 30.6892 141.136 26.9306 142.411L17.5403 145.576C15.1937 146.364 12.6455 146.672 10.3896 147.708C9.85918 147.926 9.39533 148.263 9.03925 148.687Z" fill="#FFFEFD" stroke="black" stroke-width="1.5107" stroke-miterlimit="10"/>
<path d="M32.1999 142.252C36.7695 141.182 42.0801 141.022 43.5004 145.054C45.003 149.307 40.9027 152.639 37.6546 153.926C34.81 155.069 31.8212 156.242 28.4949 156.131C27.5528 156.067 26.6436 155.783 25.8519 155.306C25.0601 154.83 24.4116 154.175 23.9665 153.405C23.0966 151.838 22.8643 150.034 23.3119 148.321C24.2752 144.232 28.2767 143.169 32.1999 142.252Z" fill="#FFFEFD" stroke="black" stroke-width="1.5107" stroke-miterlimit="10"/>
</svg>
