<svg width="290" height="334" viewBox="0 0 290 334" fill="none" xmlns="http://www.w3.org/2000/svg">
<ellipse cx="144.951" cy="299.851" rx="144.499" ry="31.4441" transform="rotate(0.851505 144.951 299.851)" fill="#9882E3" fill-opacity="0.59"/>
<path d="M8.29273 147.481C7.05396 149.18 8.53068 151.711 9.72791 153.618C10.9893 155.631 12.3036 157.644 14.0258 159.283C16.9461 162.035 20.8265 163.537 24.8387 163.468C29.2281 163.347 33.4246 161.637 36.6485 158.656C40.4479 155.091 41.4601 150.544 41.2713 145.494C41.1693 142.699 41.022 137.454 38.1403 136.003C37.0073 135.429 35.6514 136.034 34.526 136.634C31.2666 138.371 28.1546 139.992 24.7064 141.257L16.0917 144.395C13.9389 145.177 11.6012 145.483 9.53151 146.51C9.04494 146.727 8.6194 147.06 8.29273 147.481Z" fill="#FFFEFD" stroke="black" stroke-width="1.5107" stroke-miterlimit="10"/>
<path d="M29.5406 141.098C33.7328 140.037 38.6048 139.878 39.9078 143.878C41.2863 148.096 37.5247 151.401 34.5448 152.678C31.9351 153.811 29.1932 154.974 26.1416 154.864C25.2773 154.8 24.4432 154.519 23.7168 154.046C22.9905 153.573 22.3955 152.925 21.9872 152.16C21.1892 150.606 20.976 148.817 21.3866 147.118C22.2704 143.062 25.9414 142.008 29.5406 141.098Z" fill="#FFFEFD" stroke="black" stroke-width="1.5107" stroke-miterlimit="10"/>
<path d="M59.7547 124.756C60.155 174.394 94.7424 214.356 151.152 213.887C206.285 213.457 241.51 172.932 241.133 123.295C240.755 73.657 217.339 31.2517 147.915 31.822C88.0538 32.2941 59.3543 75.1186 59.7547 124.756Z" fill="#ED744A" stroke="black" stroke-width="1.5107" stroke-miterlimit="10"/>
<path d="M49.9352 124.756C50.3355 174.394 84.9229 214.356 141.332 213.887C196.465 213.457 231.691 172.932 231.313 123.295C230.935 73.657 207.52 31.2517 138.096 31.822C78.2343 32.2941 49.5348 75.1186 49.9352 124.756Z" fill="#FFE7E2" stroke="black" stroke-width="1.5107" stroke-miterlimit="10"/>
<path d="M58.3083 123.419C58.6859 168.582 89.8667 204.944 140.739 204.532C190.445 204.132 222.219 167.263 221.871 122.086C221.524 76.9087 200.416 38.3557 137.801 38.8581C83.8201 39.2962 57.9608 78.2759 58.3083 123.419Z" stroke="black" stroke-width="1.5107" stroke-miterlimit="10"/>
<path d="M124.261 136.785C133.412 133.122 143.254 140.143 143.304 150.004C143.355 152.336 142.936 154.654 142.072 156.821C135.943 171.641 107.848 176.698 94.7989 164.404C88.5408 158.509 87.3473 150.144 87.0943 145.872C87.9976 147.632 89.3484 149.124 91.0108 150.196C97.5861 154.351 106.118 149.924 111.783 146.197C115.824 143.527 118.819 139.452 123.242 137.253C123.563 137.084 123.906 136.929 124.261 136.785Z" fill="#474747" stroke="black" stroke-width="1.88837" stroke-miterlimit="10"/>
<g opacity="0.74">
<path d="M98.9004 147C113.315 147 125 130.772 125 110.753C125 90.7347 113.315 79 98.9004 79C84.4861 79 71 90.7347 71 110.753C71 130.772 84.4861 147 98.9004 147Z" fill="white" stroke="black" stroke-width="2.1021" stroke-miterlimit="10"/>
<path d="M107.191 110.049L119.433 113.756C120.524 126.724 111.665 137.749 101.358 137.305C90.0612 136.81 80.2655 127.006 79.4592 112.864C78.6529 98.7212 87.1503 86.7476 98.4391 86.104C107.696 85.5762 115.818 94.6077 118.935 105.032L107.191 110.049Z" fill="black"/>
<path d="M95.042 141.041C90.6484 141.044 86.3115 140.05 82.3582 138.133C78.4049 136.216 74.9385 133.426 72.2204 129.974C69.5022 126.523 67.6033 122.499 66.6668 118.206C65.7304 113.913 65.7809 109.464 66.8144 105.194C67.8479 100.924 69.8375 96.9437 72.6332 93.5544C75.4289 90.165 78.9576 87.4547 82.9533 85.6278C86.949 83.8009 91.3074 82.9051 95.6998 83.008C100.092 83.1108 104.404 84.2096 108.31 86.2215C114.093 89.2007 118.708 94.0367 121.413 99.9533C124.118 105.87 124.757 112.524 123.227 118.847C121.696 125.17 118.086 130.796 112.974 134.821C107.863 138.845 101.548 141.036 95.042 141.041Z" fill="#C9E2DE" fill-opacity="0.6"/>
<path d="M95.7582 82.9855C102.004 82.9894 108.077 85.0342 113.052 88.8085C118.028 92.5829 121.635 97.8799 123.322 103.893C125.009 109.906 124.685 116.306 122.399 122.118C120.113 127.93 115.99 132.836 110.658 136.088C105.326 139.34 99.0777 140.761 92.8639 140.134C86.6501 139.507 80.8113 136.866 76.2369 132.614C71.6625 128.362 68.6031 122.732 67.5243 116.58C66.4456 110.428 67.4068 104.093 70.2614 98.5381C72.6387 93.8264 76.286 89.8732 80.7914 87.125C85.2968 84.3768 90.4809 82.943 95.7582 82.9855ZM95.7582 82.2301C88.562 82.2212 81.6124 84.8517 76.2258 89.6234C70.8391 94.3951 67.3893 100.977 66.5301 108.121C65.6708 115.266 67.4616 122.478 71.5633 128.391C75.665 134.303 81.7927 138.507 88.7858 140.204C95.7789 141.902 103.152 140.976 109.508 137.602C115.864 134.227 120.762 128.639 123.274 121.896C125.786 115.152 125.738 107.722 123.138 101.011C120.539 94.3011 115.569 88.7771 109.169 85.4857C105.021 83.3512 100.424 82.2352 95.7582 82.2301Z" fill="black"/>
</g>
<path d="M112.168 79.7866C105.857 76.5474 98.7264 75.2521 91.6787 76.0643C84.631 76.8765 77.9824 79.7598 72.573 84.3498C67.1636 88.9397 63.2363 95.0303 61.2876 101.852C59.3388 108.673 59.456 115.919 61.6244 122.674C63.7928 129.429 67.915 135.389 73.47 139.802C79.0251 144.214 85.7636 146.881 92.8339 147.465C99.9041 148.049 106.989 146.523 113.192 143.082C119.396 139.64 124.44 134.437 127.687 128.129C129.845 123.936 131.156 119.359 131.544 114.66C131.932 109.961 131.39 105.231 129.948 100.741C128.507 96.2511 126.195 92.0895 123.144 88.494C120.093 84.8985 116.364 81.9396 112.168 79.7866ZM82.2641 137.975C77.0705 135.305 72.7851 131.155 69.95 126.05C67.1149 120.945 65.8573 115.114 66.3361 109.294C66.8149 103.474 69.0087 97.9266 72.6401 93.3534C76.2715 88.7803 81.1774 85.3866 86.7375 83.6016C92.2976 81.8165 98.2621 81.7202 103.877 83.3249C109.492 84.9296 114.504 88.1631 118.282 92.6167C122.059 97.0702 124.43 102.544 125.097 108.345C125.763 114.147 124.694 120.015 122.026 125.209C120.254 128.659 117.82 131.726 114.863 134.235C111.906 136.744 108.483 138.646 104.791 139.832C101.098 141.019 97.2085 141.466 93.3433 141.148C89.4781 140.831 85.7134 139.755 82.2641 137.982V137.975Z" fill="#DBAA0F" stroke="black" stroke-width="1.5107" stroke-linejoin="round"/>
<path d="M133.945 66.0846C137.225 64.9423 140.791 64.9198 144.086 66.0204C144.429 66.1388 144.798 66.1605 145.152 66.0833C145.507 66.0061 145.833 65.8329 146.096 65.5826C146.359 65.3323 146.548 65.0146 146.642 64.6641C146.737 64.3137 146.733 63.9441 146.631 63.5957L140.928 44.4212C140.804 44.0171 140.554 43.6634 140.214 43.4121C139.874 43.1609 139.463 43.0253 139.04 43.0253C138.617 43.0253 138.206 43.1609 137.866 43.4121C137.526 43.6634 137.275 44.0171 137.152 44.4212L131.434 63.6524C131.331 63.9979 131.325 64.3649 131.416 64.7136C131.508 65.0622 131.693 65.3792 131.952 65.6299C132.211 65.8807 132.534 66.0556 132.885 66.1358C133.236 66.216 133.603 66.1982 133.945 66.0846Z" fill="#F5816A" stroke="black" stroke-width="1.5107" stroke-miterlimit="10"/>
<path d="M137.918 176.705C141.067 177.779 144.483 177.779 147.632 176.705C147.959 176.587 148.313 176.562 148.654 176.632C148.995 176.703 149.31 176.866 149.563 177.104C149.817 177.342 150.001 177.645 150.093 177.981C150.185 178.316 150.183 178.671 150.087 179.005L144.777 197.417C144.664 197.809 144.429 198.154 144.104 198.4C143.78 198.647 143.384 198.782 142.977 198.785C142.57 198.789 142.172 198.66 141.843 198.419C141.515 198.178 141.273 197.837 141.155 197.447L135.527 179.073C135.421 178.742 135.409 178.387 135.492 178.049C135.575 177.711 135.75 177.402 135.997 177.157C136.245 176.912 136.555 176.74 136.894 176.66C137.233 176.581 137.587 176.596 137.918 176.705Z" fill="#8C7BC7" stroke="black" stroke-width="1.5107" stroke-miterlimit="10"/>
<path d="M150.31 130.961C149.849 132.546 149.021 133.999 147.893 135.203C147.181 135.918 146.379 136.537 145.506 137.042C140.683 139.686 134.678 137.741 132.091 132.676C129.504 127.611 131.316 121.346 136.143 118.702C137.019 118.218 137.966 117.875 138.949 117.686C140.529 117.381 142.161 117.486 143.689 117.992C144.923 118.441 146.053 119.135 147.013 120.032C148.068 120.956 148.961 122.05 149.656 123.268" fill="#FFDE72"/>
<path d="M150.31 130.961C149.849 132.546 149.021 133.999 147.893 135.203C147.181 135.918 146.379 136.537 145.506 137.042C140.683 139.686 134.678 137.741 132.091 132.676C129.504 127.611 131.316 121.346 136.143 118.702C137.019 118.218 137.966 117.875 138.949 117.686C140.529 117.381 142.161 117.486 143.689 117.992C144.923 118.441 146.053 119.135 147.013 120.032C148.068 120.956 148.961 122.05 149.656 123.268" stroke="black" stroke-width="1.5107" stroke-miterlimit="10" stroke-linecap="round"/>
<path d="M138.843 120.492C137.511 121.351 136.408 122.523 135.631 123.905C134.854 125.287 134.427 126.838 134.387 128.423" stroke="white" stroke-width="1.88837" stroke-miterlimit="10" stroke-linecap="round"/>
<path d="M160.926 134.632C151.461 131.868 142.348 139.807 143.251 149.622C143.426 151.95 144.068 154.218 145.139 156.292C152.674 170.451 181.124 172.766 192.926 159.268C198.591 152.799 198.969 144.354 198.803 140.078C198.073 141.917 196.872 143.53 195.321 144.758C189.176 149.524 180.244 145.955 174.265 142.786C169.986 140.52 166.614 136.744 161.998 134.995C161.651 134.859 161.292 134.738 160.926 134.632Z" fill="#474747" stroke="black" stroke-width="1.88837" stroke-miterlimit="10"/>
<path d="M10.1939 149L62.4664 127.793L58.9466 117.705L8.12673 138.507C8.12673 138.507 4.85732 142.859 10.1939 149Z" fill="#7C3903" stroke="black" stroke-width="1.5107" stroke-miterlimit="10"/>
<path d="M40.0665 132.034C41.1995 136.389 40.3044 141.28 35.5797 142.348C30.4924 143.481 27.6485 139.807 26.5155 134.719C25.5713 130.542 26.5155 123.869 32.1806 124.073C33.8915 124.133 35.5041 124.979 36.7807 126.12C38.2536 127.468 39.4547 129.67 40.0665 132.034Z" fill="#FFFEFD" stroke="black" stroke-width="1.5107" stroke-miterlimit="10"/>
<path d="M29.2008 136.385C29.4792 137.167 29.7001 137.969 29.8617 138.783C30.5302 142.307 29.3518 145.536 25.594 146.386C20.5596 147.519 17.7345 143.825 16.5864 138.738C15.8726 135.58 16.4051 130.304 19.6795 128.646C24.223 126.346 27.709 132.091 29.2008 136.385Z" fill="#FFFEFD" stroke="black" stroke-width="1.5107" stroke-miterlimit="10"/>
<path d="M18.1877 140.943C19.8457 145.887 20.0761 149.864 15.8423 151.284C8.78362 153.648 3.53018 140.781 7.63927 135.898C8.16586 135.286 8.8384 134.818 9.5944 134.536C10.3504 134.254 11.1653 134.168 11.9636 134.285C15.3929 134.825 17.202 137.99 18.1877 140.943Z" fill="#FFFEFD" stroke="black" stroke-width="1.5107" stroke-miterlimit="10"/>
<path d="M130.195 30.9118C130.195 30.9118 137.809 29.7788 142.692 30.9118C142.692 30.9118 144.255 26.8971 142.692 25.4619C141.128 24.0268 131.951 24.3289 130.195 25.4619C128.438 26.595 130.195 30.9118 130.195 30.9118Z" fill="#F7C326" stroke="black" stroke-width="1.5107" stroke-miterlimit="10"/>
<path d="M136.589 1C131.188 1 126.811 6.44983 126.811 13.1611C126.811 19.8724 131.188 25.326 136.589 25.326C141.989 25.326 146.367 19.8799 146.367 13.1611C146.367 6.44228 141.989 1 136.589 1ZM136.589 22.0364C132.702 22.0364 129.549 18.1124 129.549 13.2782C129.549 8.44395 132.702 4.51991 136.589 4.51991C140.475 4.51991 143.628 8.44395 143.628 13.2782C143.628 18.1124 140.475 22.0364 136.589 22.0364Z" fill="#F7C326" stroke="black" stroke-width="1.5107" stroke-miterlimit="10"/>
<path d="M198.455 100.181C191.888 89.0283 177.925 85.074 167.275 91.3472C159.683 95.8189 155.82 104.279 156.605 112.807" stroke="black" stroke-width="2.26604" stroke-miterlimit="10" stroke-linecap="round"/>
<path d="M151.329 88.288C153.209 88.7154 155.17 88.6048 156.99 87.9689C158.809 87.333 160.413 86.1976 161.617 84.6926C163.996 81.6334 164.408 77.5168 166.074 74.0157C167.364 71.3927 169.335 69.1638 171.78 67.5616C174.225 65.9593 177.056 65.0424 179.976 64.9062" stroke="black" stroke-width="2.26604" stroke-miterlimit="10" stroke-linecap="round"/>
<path d="M137.408 170.647C137.734 169.575 138.296 168.59 139.055 167.766C139.813 166.941 140.748 166.299 141.789 165.885C142.831 165.472 143.952 165.299 145.069 165.378C146.187 165.458 147.272 165.789 148.244 166.346L147.639 165.968" stroke="black" stroke-width="1.5107" stroke-miterlimit="10" stroke-linecap="round"/>
<path d="M237.688 161.806C236.121 160.639 234.172 160.114 231.679 160.012C225.044 159.729 219.907 161.746 215.439 166.557C211.353 170.957 209.374 176.335 209.967 182.37C210.496 187.737 214.393 193.727 218.4 197.232C222.287 200.631 227.465 202.659 232.62 202.179C236.495 201.802 239.796 197.542 238.16 193.769C240.143 195.536 243.217 194.241 244.913 192.579C245.443 192.048 245.856 191.414 246.128 190.715C246.399 190.016 246.521 189.268 246.488 188.519C246.443 180.542 244.082 172.657 240.593 165.515C239.94 164.061 238.943 162.788 237.688 161.806Z" fill="#FFFEFD" stroke="black" stroke-width="1.5107" stroke-miterlimit="10"/>
<path d="M241.533 185.158C241.533 185.158 243.021 191.956 231.313 196.866L241.533 185.158Z" fill="#FFFEFD"/>
<path d="M241.533 185.158C241.533 185.158 243.021 191.956 231.313 196.866" stroke="black" stroke-width="1.5107" stroke-miterlimit="10"/>
<path d="M216.731 172.181C216.796 171.411 217.106 170.682 217.615 170.1C218.091 169.546 218.686 169.105 219.355 168.812C220.025 168.518 220.752 168.379 221.482 168.404C222.255 168.424 223.003 168.688 223.616 169.159V169.31C222.986 169.352 222.361 169.446 221.746 169.59C221.134 169.735 220.536 169.94 219.964 170.202C219.385 170.448 218.831 170.749 218.31 171.101C217.789 171.458 217.297 171.857 216.84 172.294L216.731 172.181Z" fill="black"/>
<path d="M216.625 177.03C216.565 176.318 216.735 175.605 217.112 174.998C217.457 174.43 217.929 173.949 218.491 173.593C219.053 173.237 219.688 173.015 220.349 172.944C221.058 172.859 221.776 173.004 222.396 173.359L222.43 173.506C221.877 173.655 221.334 173.84 220.806 174.062C220.279 174.285 219.773 174.555 219.295 174.87C218.809 175.169 218.351 175.51 217.924 175.89C217.502 176.273 217.106 176.684 216.739 177.121L216.625 177.03Z" fill="black"/>
<path d="M216.788 182.359C216.69 181.611 216.845 180.852 217.23 180.203C217.588 179.586 218.087 179.064 218.685 178.676C219.284 178.289 219.965 178.049 220.674 177.974C221.422 177.888 222.178 178.053 222.823 178.443L222.846 178.594C222.255 178.718 221.677 178.892 221.116 179.115C220.557 179.342 220.022 179.624 219.518 179.957C219.006 180.284 218.53 180.663 218.098 181.09C217.667 181.515 217.275 181.977 216.927 182.472L216.788 182.359Z" fill="black"/>
<path d="M34.1672 164.34C35.4614 163.924 36.8507 163.906 38.1554 164.288C39.4602 164.67 40.6204 165.434 41.4864 166.482C43.3446 168.77 46.2716 170.972 50.0446 169.295C56.8427 166.274 54.8562 155.223 54.8562 155.223C54.8562 155.223 59.4864 168.54 64.1545 174.862C64.1545 174.862 61.7525 183.262 51.1776 185.528C42.6271 187.36 36.471 184.017 30.4622 174.575C29.8965 173.688 29.5421 172.684 29.4263 171.638C29.3106 170.593 29.4367 169.535 29.7947 168.546C30.1527 167.556 30.7331 166.663 31.4913 165.934C32.2494 165.205 33.1649 164.659 34.1672 164.34Z" fill="#19888F" stroke="black" stroke-width="1.13302" stroke-miterlimit="10"/>
<path d="M251.039 170.428C253.128 176.592 250.79 182.96 245.808 184.648C240.827 186.336 233.972 183.715 231.88 177.551C229.787 171.388 233.254 164.015 238.236 162.327C243.217 160.639 248.947 164.257 251.039 170.428Z" fill="#FFFEFD" stroke="black" stroke-width="1.5107" stroke-miterlimit="10"/>
<path d="M33.8134 169.631C39.2353 167.752 42.5435 163.091 41.2023 159.22C39.8612 155.35 34.3786 153.735 28.9567 155.613C23.5348 157.492 20.2267 162.152 21.5679 166.023C22.909 169.894 28.3915 171.509 33.8134 169.631Z" fill="#FFFEFD" stroke="black" stroke-width="1.5107" stroke-miterlimit="10"/>
<path d="M237.734 125.863C251.647 124.802 264.046 133.669 267.192 145.88C270.841 160.046 261.319 175.954 245.287 179.493C245.287 179.493 238.111 181.381 237.734 174.583C237.356 167.785 241.888 167.029 241.888 167.029C241.888 167.029 254.729 165.141 256.24 155.321C257.75 145.502 246.798 136.438 238.489 138.326" fill="#19888F"/>
<path d="M237.734 125.863C251.647 124.802 264.046 133.669 267.192 145.88C270.841 160.046 261.319 175.954 245.287 179.493C245.287 179.493 238.111 181.381 237.734 174.583C237.356 167.785 241.888 167.029 241.888 167.029C241.888 167.029 254.729 165.141 256.24 155.321C257.75 145.502 246.798 136.438 238.489 138.326" stroke="black" stroke-width="1.13302" stroke-miterlimit="10"/>
<path d="M190.196 257.293C190.196 257.293 197.194 257.293 197.893 261.142C198.708 265.617 194.743 267.789 194.743 267.789C194.743 267.789 200.344 270.588 201.042 273.386C207.58 269.708 215.492 269.666 221.686 273.386C229.156 277.873 232.929 287.115 230.781 296.13C230.521 297.369 230.048 298.553 229.383 299.631C223.34 309.303 202.568 309.99 187.744 303.479C179.734 299.959 171.61 295.956 168.861 288.784C165.114 279.047 169.329 269.421 170.258 268.14C170.258 268.14 164.661 265.342 168.51 261.142C172.358 256.942 190.196 257.293 190.196 257.293Z" fill="#F7C326" stroke="black" stroke-width="1.5107" stroke-miterlimit="10"/>
<path d="M229.383 299.638C231.158 298.248 233.107 302.437 232.533 304.884C230.879 311.898 211.863 316.449 195.793 312.932C189.637 311.584 178.552 308.079 167.09 297.538C167.09 297.538 163.241 291.59 168.838 288.097C168.838 288.097 179.073 301.87 193.723 304.605C208.373 307.339 221.335 305.934 229.383 299.638Z" fill="#F7C326" stroke="black" stroke-width="1.5107" stroke-miterlimit="10"/>
<path d="M200.891 274.225C200.456 274.455 200.033 274.707 199.622 274.98C199.199 275.259 198.78 275.55 198.376 275.86C197.56 276.479 196.782 277.148 196.046 277.862C195.304 278.575 194.606 279.332 193.954 280.128C193.297 280.934 192.685 281.776 192.122 282.65C192.574 281.709 193.078 280.793 193.633 279.909C194.194 279.015 194.81 278.156 195.476 277.337C196.144 276.51 196.861 275.724 197.625 274.984C198.4 274.22 199.237 273.523 200.128 272.899L200.752 272.472L201.552 273.87L200.891 274.225Z" fill="black"/>
<path d="M226.668 289.773C226.654 289.97 226.607 290.163 226.528 290.344C226.169 291.076 225.017 290.993 224.447 290.408C223.877 289.823 223.733 288.961 223.537 288.172C223.053 286.264 222.173 284.479 220.954 282.933C219.734 281.388 218.203 280.116 216.459 279.202C216.081 279.01 215.632 278.726 215.67 278.303C215.707 278.158 215.775 278.022 215.869 277.905C215.963 277.788 216.08 277.692 216.214 277.624C218.797 275.796 222.094 278.911 223.68 280.702C225.61 282.87 227.011 286.782 226.668 289.773Z" fill="white"/>
<path d="M178.061 207.44C178.061 207.44 191.28 224.436 189.875 258.804C189.838 260.219 189.302 261.575 188.362 262.633C187.422 263.691 186.139 264.383 184.738 264.586C183.145 264.802 183.228 265.002 181.46 264.851C178.269 264.579 175.621 261.629 175.795 258.43C176.275 249.642 174.579 227.778 164.465 211.599C164.465 211.595 172.018 210.462 178.061 207.44Z" fill="#19888F" stroke="black" stroke-width="1.5107" stroke-miterlimit="10"/>
<path d="M110.892 256.247C110.892 256.247 103.912 256.247 103.214 260.084C102.402 264.549 106.352 266.716 106.352 266.716C106.352 266.716 100.77 269.507 100.071 272.298C93.5528 268.627 85.6632 268.59 79.4844 272.298C72.0329 276.774 68.2713 285.989 70.4203 294.959C70.6793 296.195 71.1522 297.376 71.8176 298.449C77.8378 308.098 98.5532 308.782 113.339 302.29C121.331 298.781 129.432 294.789 132.181 287.632C135.917 277.926 131.713 268.322 130.788 267.045C130.788 267.045 136.37 264.254 132.533 260.066C128.695 255.877 110.899 256.228 110.899 256.228" fill="#F7C326"/>
<path d="M110.892 256.247C110.892 256.247 103.912 256.247 103.214 260.084C102.402 264.549 106.352 266.716 106.352 266.716C106.352 266.716 100.77 269.507 100.071 272.298C93.5528 268.627 85.6632 268.59 79.4844 272.298C72.0329 276.774 68.2713 285.989 70.4203 294.959C70.6793 296.195 71.1522 297.376 71.8176 298.449C77.8378 308.098 98.5532 308.782 113.339 302.29C121.331 298.781 129.432 294.789 132.181 287.632C135.917 277.926 131.713 268.322 130.788 267.045C130.788 267.045 136.37 264.254 132.533 260.066C128.695 255.877 110.899 256.228 110.899 256.228" stroke="black" stroke-width="1.5107" stroke-miterlimit="10"/>
<path d="M71.8099 298.46C70.0387 297.074 68.0937 301.255 68.6678 303.694C70.3144 310.689 89.2812 315.229 105.302 311.72C111.443 310.379 122.501 306.882 133.915 296.368C133.915 296.368 137.756 290.434 132.17 286.926C132.17 286.926 121.973 300.662 107.353 303.389C92.7331 306.115 79.8355 304.748 71.8099 298.46Z" fill="#F7C326" stroke="black" stroke-width="1.5107" stroke-miterlimit="10"/>
<path d="M100.97 271.815C101.859 272.438 102.694 273.134 103.467 273.896C104.229 274.634 104.945 275.417 105.612 276.241C106.274 277.06 106.887 277.918 107.447 278.81C108.001 279.692 108.506 280.605 108.958 281.544C108.397 280.672 107.787 279.832 107.13 279.029C106.479 278.233 105.782 277.476 105.042 276.763C104.309 276.05 103.534 275.384 102.719 274.768C102.315 274.459 101.899 274.168 101.476 273.888C101.053 273.609 100.611 273.345 100.211 273.133L99.5351 272.789L100.336 271.392L100.97 271.815Z" fill="black"/>
<path d="M106.628 266.059C107.235 266.458 107.865 266.82 108.516 267.143C109.176 267.479 109.853 267.781 110.544 268.046C111.241 268.309 111.953 268.526 112.678 268.695C113.413 268.86 114.161 268.956 114.914 268.982C114.157 269.113 113.39 269.174 112.621 269.164C111.845 269.147 111.07 269.078 110.303 268.956C109.532 268.835 108.767 268.672 108.014 268.469C107.245 268.261 106.488 268.009 105.748 267.713L104.864 267.358L105.854 265.519L106.628 266.059Z" fill="black"/>
<path d="M130.406 268.582C129.872 268.776 129.324 268.931 128.767 269.047C128.23 269.163 127.686 269.247 127.139 269.3C126.6 269.354 126.057 269.37 125.515 269.349C124.984 269.329 124.454 269.268 123.933 269.164C124.451 269.112 124.964 269.017 125.466 268.88C125.96 268.748 126.445 268.581 126.916 268.382C127.382 268.186 127.836 267.964 128.276 267.717C128.7 267.483 129.108 267.219 129.496 266.928L130.251 266.339L131.301 268.254L130.406 268.582Z" fill="black"/>
<path d="M74.5179 288.618C74.5305 288.813 74.5764 289.005 74.6538 289.184C75.0315 289.917 76.1645 289.834 76.7311 289.248C77.2976 288.663 77.4449 287.806 77.6375 287.016C78.1204 285.114 78.9985 283.335 80.2147 281.795C81.4309 280.255 82.9579 278.988 84.6962 278.077C85.0739 277.88 85.5234 277.601 85.4818 277.178C85.4554 276.88 85.191 276.672 84.9455 276.498C82.366 274.678 79.0802 277.786 77.4977 279.572C75.5716 281.744 74.1742 285.649 74.5179 288.618Z" fill="white"/>
<path d="M111.968 210.084L110.892 259.386C110.892 259.386 111.938 263.227 117.52 263.574C123.102 263.922 124.499 260.436 124.499 260.436L125.942 213.106C125.942 213.106 116.5 212.875 111.968 210.084Z" fill="#19888F" stroke="black" stroke-width="1.5107" stroke-miterlimit="10"/>
</svg>
