<svg width="291" height="334" viewBox="0 0 291 334" fill="none" xmlns="http://www.w3.org/2000/svg">
<ellipse cx="145.757" cy="299.851" rx="144.499" ry="31.4441" transform="rotate(0.851505 145.757 299.851)" fill="#9882E3" fill-opacity="0.59"/>
<path d="M9.09888 147.481C7.86011 149.18 9.33683 151.711 10.5341 153.618C11.7955 155.631 13.1098 157.644 14.8319 159.283C17.7522 162.035 21.6326 163.537 25.6448 163.468C30.0342 163.347 34.2307 161.637 37.4547 158.656C41.2541 155.091 42.2662 150.544 42.0774 145.494C41.9754 142.699 41.8281 137.454 38.9465 136.003C37.8135 135.429 36.4576 136.034 35.3321 136.634C32.0728 138.371 28.9607 139.992 25.5126 141.257L16.8978 144.395C14.7451 145.177 12.4073 145.483 10.3377 146.51C9.85109 146.727 9.42555 147.06 9.09888 147.481Z" fill="#FFFEFD" stroke="black" stroke-width="1.5107" stroke-miterlimit="10"/>
<path d="M30.3467 141.098C34.5389 140.037 39.4109 139.878 40.7139 143.878C42.0924 148.096 38.3308 151.401 35.3509 152.678C32.7412 153.811 29.9993 154.974 26.9477 154.864C26.0834 154.8 25.2493 154.519 24.5229 154.046C23.7966 153.573 23.2016 152.925 22.7932 152.16C21.9953 150.606 21.7821 148.817 22.1927 147.118C23.0765 143.062 26.7475 142.008 30.3467 141.098Z" fill="#FFFEFD" stroke="black" stroke-width="1.5107" stroke-miterlimit="10"/>
<path d="M40.8727 132.034C42.0057 136.389 41.1105 141.28 36.3858 142.348C31.2986 143.481 28.4547 139.807 27.3217 134.719C26.3775 130.542 27.3217 123.869 32.9868 124.073C34.6976 124.133 36.3103 124.979 37.5868 126.12C39.0598 127.468 40.2608 129.67 40.8727 132.034Z" fill="#FFFEFD" stroke="black" stroke-width="1.5107" stroke-miterlimit="10"/>
<path d="M30.0069 136.385C30.2853 137.167 30.5062 137.969 30.6678 138.783C31.3363 142.307 30.1579 145.536 26.4001 146.386C21.3657 147.519 18.5406 143.825 17.3925 138.738C16.6787 135.58 17.2112 130.304 20.4856 128.646C25.0291 126.346 28.5151 132.091 30.0069 136.385Z" fill="#FFFEFD" stroke="black" stroke-width="1.5107" stroke-miterlimit="10"/>
<path d="M18.9938 140.943C20.6518 145.887 20.8822 149.864 16.6485 151.284C9.58977 153.648 4.33633 140.781 8.44543 135.898C8.97201 135.286 9.64455 134.818 10.4006 134.536C11.1566 134.254 11.9715 134.168 12.7698 134.285C16.1991 134.825 18.0081 137.99 18.9938 140.943Z" fill="#FFFEFD" stroke="black" stroke-width="1.5107" stroke-miterlimit="10"/>
<path d="M60.5608 124.756C60.9612 174.394 95.5486 214.356 151.958 213.887C207.091 213.457 242.317 172.932 241.939 123.295C241.561 73.657 218.145 31.2517 148.721 31.822C88.8599 32.2941 60.1605 75.1186 60.5608 124.756Z" fill="#ED744A" stroke="black" stroke-width="1.5107" stroke-miterlimit="10"/>
<path d="M50.7413 124.756C51.1416 174.394 85.729 214.356 142.138 213.887C197.271 213.457 232.497 172.932 232.119 123.295C231.742 73.657 208.326 31.2517 138.902 31.822C79.0404 32.2941 50.341 75.1186 50.7413 124.756Z" fill="#FFE7E2" stroke="black" stroke-width="1.5107" stroke-miterlimit="10"/>
<path d="M59.1144 123.419C59.492 168.582 90.6728 204.944 141.546 204.532C191.251 204.132 223.025 167.263 222.678 122.086C222.33 76.9087 201.222 38.3557 138.607 38.8581C84.6262 39.2962 58.7669 78.2759 59.1144 123.419Z" stroke="black" stroke-width="1.5107" stroke-miterlimit="10"/>
<path d="M125.067 136.785C134.218 133.122 144.061 140.143 144.11 150.004C144.161 152.336 143.742 154.654 142.878 156.821C136.749 171.641 108.654 176.698 95.6051 164.404C89.347 158.509 88.1535 150.144 87.9005 145.872C88.8037 147.632 90.1545 149.124 91.817 150.196C98.3923 154.351 106.924 149.924 112.589 146.197C116.63 143.527 119.625 139.452 124.048 137.253C124.369 137.084 124.712 136.929 125.067 136.785Z" fill="#474747" stroke="black" stroke-width="1.88837" stroke-miterlimit="10"/>
<path d="M112.974 79.7866C106.663 76.5474 99.5325 75.2521 92.4848 76.0643C85.4371 76.8765 78.7884 79.7598 73.3791 84.3498C67.9697 88.9397 64.0424 95.0303 62.0936 101.852C60.1449 108.673 60.2621 115.919 62.4305 122.674C64.5989 129.429 68.7211 135.389 74.2761 139.802C79.8312 144.214 86.5697 146.881 93.64 147.465C100.71 148.049 107.795 146.523 113.998 143.082C120.202 139.64 125.246 134.437 128.493 128.129C130.651 123.936 131.962 119.359 132.35 114.66C132.738 109.961 132.196 105.231 130.754 100.741C129.313 96.2511 127.001 92.0895 123.95 88.494C120.899 84.8985 117.17 81.9396 112.974 79.7866ZM83.0701 137.975C77.8766 135.305 73.5912 131.155 70.7561 126.05C67.9209 120.945 66.6634 115.114 67.1422 109.294C67.621 103.474 69.8148 97.9266 73.4462 93.3534C77.0776 88.7803 81.9835 85.3866 87.5436 83.6016C93.1037 81.8165 99.0682 81.7202 104.683 83.3249C110.298 84.9296 115.311 88.1631 119.088 92.6167C122.865 97.0702 125.237 102.544 125.903 108.345C126.569 114.147 125.5 120.015 122.832 125.209C121.06 128.659 118.626 131.726 115.669 134.235C112.712 136.744 109.289 138.646 105.597 139.832C101.904 141.019 98.0146 141.466 94.1494 141.148C90.2842 140.831 86.5195 139.755 83.0701 137.982V137.975Z" fill="#DBAA0F" stroke="black" stroke-width="1.5107" stroke-linejoin="round"/>
<g opacity="0.74">
<path d="M96.534 140.649C92.1405 140.652 87.8035 139.658 83.8502 137.741C79.8969 135.824 76.4306 133.034 73.7124 129.582C70.9943 126.13 69.0953 122.106 68.1589 117.814C67.2224 113.521 67.2729 109.072 68.3064 104.802C69.3399 100.531 71.3295 96.5516 74.1252 93.1622C76.9209 89.7729 80.4496 87.0626 84.4453 85.2357C88.4411 83.4087 92.7995 82.5129 97.1918 82.6158C101.584 82.7186 105.896 83.8175 109.802 85.8294C115.585 88.8085 120.2 93.6446 122.905 99.5612C125.61 105.478 126.249 112.132 124.719 118.455C123.188 124.778 119.578 130.404 114.466 134.428C109.355 138.453 103.04 140.644 96.534 140.649Z" fill="#C9E2DE" fill-opacity="0.6"/>
<path d="M96.5644 82.9855C102.81 82.9894 108.883 85.0342 113.859 88.8085C118.835 92.5829 122.441 97.8799 124.128 103.893C125.815 109.906 125.491 116.306 123.205 122.118C120.919 127.93 116.796 132.836 111.464 136.088C106.132 139.34 99.8839 140.761 93.67 140.134C87.4562 139.507 81.6175 136.866 77.0431 132.614C72.4687 128.362 69.4092 122.732 68.3305 116.58C67.2517 110.428 68.2129 104.093 71.0676 98.5381C73.4449 93.8264 77.0922 89.8732 81.5976 87.125C86.103 84.3768 91.2871 82.943 96.5644 82.9855ZM96.5644 82.2301C89.3682 82.2212 82.4186 84.8517 77.0319 89.6234C71.6452 94.3951 68.1955 100.977 67.3362 108.121C66.4769 115.266 68.2678 122.478 72.3694 128.391C76.4711 134.303 82.5989 138.507 89.592 140.204C96.5851 141.902 103.958 140.976 110.314 137.602C116.67 134.227 121.568 128.639 124.08 121.896C126.592 115.152 126.544 107.722 123.944 101.011C121.345 94.3011 116.375 88.7771 109.976 85.4857C105.827 83.3512 101.23 82.2352 96.5644 82.2301Z" fill="black"/>
</g>
<path d="M134.751 66.0846C138.031 64.9423 141.597 64.9198 144.892 66.0204C145.235 66.1388 145.604 66.1605 145.958 66.0833C146.313 66.0061 146.64 65.8329 146.902 65.5826C147.165 65.3323 147.354 65.0146 147.448 64.6641C147.543 64.3137 147.539 63.9441 147.437 63.5957L141.734 44.4212C141.61 44.0171 141.36 43.6634 141.02 43.4121C140.68 43.1609 140.269 43.0253 139.846 43.0253C139.423 43.0253 139.012 43.1609 138.672 43.4121C138.332 43.6634 138.082 44.0171 137.958 44.4212L132.24 63.6524C132.137 63.9979 132.131 64.3649 132.222 64.7136C132.314 65.0622 132.499 65.3792 132.758 65.6299C133.017 65.8807 133.34 66.0556 133.691 66.1358C134.042 66.216 134.409 66.1982 134.751 66.0846Z" fill="#B9432C" stroke="black" stroke-width="1.5107" stroke-miterlimit="10"/>
<path d="M138.724 176.705C141.873 177.779 145.289 177.779 148.438 176.705C148.765 176.587 149.119 176.562 149.46 176.632C149.801 176.703 150.116 176.866 150.37 177.104C150.624 177.342 150.807 177.645 150.899 177.981C150.992 178.316 150.989 178.671 150.893 179.005L145.583 197.417C145.471 197.809 145.235 198.154 144.91 198.4C144.586 198.647 144.191 198.782 143.783 198.785C143.376 198.789 142.978 198.66 142.649 198.419C142.321 198.178 142.079 197.837 141.961 197.447L136.333 179.073C136.227 178.742 136.215 178.387 136.298 178.049C136.381 177.711 136.556 177.402 136.803 177.157C137.051 176.912 137.361 176.74 137.7 176.66C138.039 176.581 138.393 176.596 138.724 176.705Z" fill="#8C7BC7" stroke="black" stroke-width="1.5107" stroke-miterlimit="10"/>
<path d="M151.116 130.961C150.656 132.546 149.827 133.999 148.699 135.203C147.987 135.918 147.185 136.537 146.312 137.042C141.489 139.686 135.484 137.741 132.897 132.676C130.31 127.611 132.123 121.346 136.949 118.702C137.825 118.218 138.772 117.875 139.755 117.686C141.335 117.381 142.967 117.486 144.495 117.992C145.729 118.441 146.86 119.135 147.819 120.032C148.874 120.956 149.768 122.05 150.462 123.268" fill="#FFDE72"/>
<path d="M151.116 130.961C150.656 132.546 149.827 133.999 148.699 135.203C147.987 135.918 147.185 136.537 146.312 137.042C141.489 139.686 135.484 137.741 132.897 132.676C130.31 127.611 132.123 121.346 136.949 118.702C137.825 118.218 138.772 117.875 139.755 117.686C141.335 117.381 142.967 117.486 144.495 117.992C145.729 118.441 146.86 119.135 147.819 120.032C148.874 120.956 149.768 122.05 150.462 123.268" stroke="black" stroke-width="1.5107" stroke-miterlimit="10" stroke-linecap="round"/>
<path d="M139.65 120.492C138.317 121.351 137.214 122.523 136.437 123.905C135.66 125.287 135.233 126.838 135.193 128.423" stroke="white" stroke-width="1.88837" stroke-miterlimit="10" stroke-linecap="round"/>
<path d="M161.732 134.632C152.267 131.868 143.154 139.807 144.057 149.622C144.232 151.95 144.874 154.218 145.945 156.292C153.48 170.451 181.93 172.766 193.732 159.268C199.398 152.799 199.775 144.354 199.609 140.078C198.879 141.917 197.678 143.53 196.127 144.758C189.982 149.524 181.05 145.955 175.071 142.786C170.792 140.52 167.42 136.744 162.805 134.995C162.457 134.859 162.098 134.738 161.732 134.632Z" fill="#474747" stroke="black" stroke-width="1.88837" stroke-miterlimit="10"/>
<path d="M10.5001 149.505L63.2725 127.793L59.7527 117.705L8.93283 138.507C8.93283 138.507 5.16361 143.364 10.5001 149.505Z" fill="#7C3903" stroke="black" stroke-width="1.5107" stroke-miterlimit="10"/>
<path d="M131.001 30.9118C131.001 30.9118 138.615 29.7788 143.498 30.9118C143.498 30.9118 145.062 26.8971 143.498 25.4619C141.934 24.0268 132.757 24.3289 131.001 25.4619C129.245 26.595 131.001 30.9118 131.001 30.9118Z" fill="#F7C326" stroke="black" stroke-width="1.5107" stroke-miterlimit="10"/>
<path d="M137.395 1C131.994 1 127.617 6.44983 127.617 13.1611C127.617 19.8724 131.994 25.326 137.395 25.326C142.795 25.326 147.173 19.8799 147.173 13.1611C147.173 6.44228 142.795 1 137.395 1ZM137.395 22.0364C133.508 22.0364 130.355 18.1124 130.355 13.2782C130.355 8.44395 133.508 4.51991 137.395 4.51991C141.281 4.51991 144.435 8.44395 144.435 13.2782C144.435 18.1124 141.281 22.0364 137.395 22.0364Z" fill="#F7C326" stroke="black" stroke-width="1.5107" stroke-miterlimit="10"/>
<path d="M199.262 100.181C192.694 89.0283 178.731 85.074 168.081 91.3472C160.489 95.8189 156.626 104.279 157.411 112.807" stroke="black" stroke-width="2.26604" stroke-miterlimit="10" stroke-linecap="round"/>
<path d="M152.135 88.288C154.015 88.7154 155.977 88.6048 157.796 87.9689C159.615 87.333 161.219 86.1976 162.423 84.6926C164.803 81.6334 165.214 77.5168 166.88 74.0157C168.17 71.3927 170.141 69.1638 172.586 67.5616C175.031 65.9593 177.862 65.0424 180.782 64.9062" stroke="black" stroke-width="2.26604" stroke-miterlimit="10" stroke-linecap="round"/>
<path d="M138.214 170.647C138.54 169.575 139.102 168.59 139.861 167.766C140.619 166.941 141.554 166.299 142.595 165.885C143.637 165.472 144.758 165.299 145.875 165.378C146.993 165.458 148.078 165.789 149.05 166.346L148.446 165.968" stroke="black" stroke-width="1.5107" stroke-miterlimit="10" stroke-linecap="round"/>
<path d="M238.494 161.806C236.927 160.639 234.978 160.114 232.486 160.012C225.85 159.729 220.713 161.746 216.246 166.557C212.159 170.957 210.18 176.335 210.773 182.37C211.302 187.737 215.199 193.727 219.207 197.232C223.093 200.631 228.271 202.659 233.426 202.179C237.301 201.802 240.602 197.542 238.966 193.769C240.949 195.536 244.023 194.241 245.719 192.579C246.249 192.048 246.663 191.414 246.934 190.715C247.205 190.016 247.328 189.268 247.294 188.519C247.249 180.542 244.888 172.657 241.399 165.515C240.746 164.061 239.749 162.788 238.494 161.806Z" fill="#FFFEFD" stroke="black" stroke-width="1.5107" stroke-miterlimit="10"/>
<path d="M242.339 185.158C242.339 185.158 243.827 191.956 232.119 196.866Z" fill="#FFFEFD"/>
<path d="M242.339 185.158C242.339 185.158 243.827 191.956 232.119 196.866" stroke="black" stroke-width="1.5107" stroke-miterlimit="10"/>
<path d="M217.537 172.181C217.602 171.411 217.912 170.682 218.421 170.1C218.897 169.546 219.492 169.105 220.162 168.812C220.831 168.518 221.558 168.379 222.288 168.404C223.062 168.424 223.809 168.688 224.422 169.159V169.31C223.792 169.352 223.167 169.446 222.553 169.59C221.94 169.735 221.343 169.94 220.77 170.202C220.191 170.448 219.637 170.749 219.116 171.101C218.595 171.458 218.103 171.857 217.647 172.294L217.537 172.181Z" fill="black"/>
<path d="M217.431 177.03C217.371 176.318 217.541 175.605 217.919 174.998C218.263 174.43 218.735 173.949 219.297 173.593C219.859 173.237 220.494 173.015 221.155 172.944C221.865 172.859 222.582 173.004 223.202 173.359L223.236 173.506C222.683 173.655 222.14 173.84 221.612 174.062C221.085 174.285 220.58 174.555 220.102 174.87C219.615 175.169 219.157 175.51 218.731 175.89C218.308 176.273 217.912 176.684 217.545 177.121L217.431 177.03Z" fill="black"/>
<path d="M217.594 182.359C217.496 181.611 217.651 180.852 218.036 180.203C218.394 179.586 218.893 179.064 219.491 178.676C220.09 178.289 220.771 178.049 221.48 177.974C222.229 177.888 222.985 178.053 223.629 178.443L223.652 178.594C223.061 178.718 222.483 178.892 221.922 179.115C221.363 179.342 220.828 179.624 220.324 179.957C219.813 180.284 219.336 180.663 218.904 181.09C218.473 181.515 218.081 181.977 217.734 182.472L217.594 182.359Z" fill="black"/>
<path d="M34.9734 164.34C36.2676 163.924 37.6569 163.906 38.9616 164.288C40.2663 164.67 41.4266 165.434 42.2926 166.482C44.1508 168.77 47.0778 170.972 50.8508 169.295C57.6489 166.274 55.6624 155.223 55.6624 155.223C55.6624 155.223 60.2926 168.54 64.9606 174.862C64.9606 174.862 62.5587 183.262 51.9838 185.528C43.4333 187.36 37.2771 184.017 31.2683 174.575C30.7027 173.688 30.3482 172.684 30.2325 171.638C30.1168 170.593 30.2428 169.535 30.6009 168.546C30.9589 167.556 31.5393 166.663 32.2975 165.934C33.0556 165.205 33.9711 164.659 34.9734 164.34Z" fill="#19888F" stroke="black" stroke-width="1.13302" stroke-miterlimit="10"/>
<path d="M251.845 170.428C253.934 176.592 251.596 182.96 246.614 184.648C241.633 186.336 234.778 183.715 232.686 177.551C230.593 171.388 234.061 164.015 239.042 162.327C244.024 160.639 249.753 164.257 251.845 170.428Z" fill="#FFFEFD" stroke="black" stroke-width="1.5107" stroke-miterlimit="10"/>
<path d="M34.6196 169.631C40.0415 167.752 43.3496 163.091 42.0085 159.22C40.6673 155.35 35.1848 153.735 29.7628 155.613C24.3409 157.492 21.0329 162.152 22.374 166.023C23.7152 169.894 29.1977 171.509 34.6196 169.631Z" fill="#FFFEFD" stroke="black" stroke-width="1.5107" stroke-miterlimit="10"/>
<path d="M238.54 125.863C252.453 124.802 264.852 133.669 267.998 145.88C271.647 160.046 262.125 175.954 246.093 179.493C246.093 179.493 238.917 181.381 238.54 174.583C238.162 167.785 242.694 167.029 242.694 167.029C242.694 167.029 255.535 165.141 257.046 155.321C258.556 145.502 247.604 136.438 239.295 138.326" fill="#19888F"/>
<path d="M238.54 125.863C252.453 124.802 264.852 133.669 267.998 145.88C271.647 160.046 262.125 175.954 246.093 179.493C246.093 179.493 238.917 181.381 238.54 174.583C238.162 167.785 242.694 167.029 242.694 167.029C242.694 167.029 255.535 165.141 257.046 155.321C258.556 145.502 247.604 136.438 239.295 138.326" stroke="black" stroke-width="1.13302" stroke-miterlimit="10"/>
<path d="M191.002 257.293C191.002 257.293 198 257.293 198.699 261.142C199.515 265.617 195.549 267.789 195.549 267.789C195.549 267.789 201.15 270.588 201.849 273.386C208.386 269.708 216.298 269.666 222.492 273.386C229.963 277.873 233.736 287.115 231.587 296.13C231.327 297.369 230.854 298.553 230.189 299.631C224.146 309.303 203.374 309.99 188.551 303.479C180.54 299.959 172.416 295.956 169.667 288.784C165.92 279.047 170.135 269.421 171.064 268.14C171.064 268.14 165.467 265.342 169.316 261.142C173.164 256.942 191.002 257.293 191.002 257.293Z" fill="#F7C326" stroke="black" stroke-width="1.5107" stroke-miterlimit="10"/>
<path d="M230.189 299.638C231.964 298.248 233.913 302.437 233.339 304.884C231.685 311.898 212.669 316.449 196.599 312.932C190.443 311.584 179.358 308.079 167.896 297.538C167.896 297.538 164.047 291.59 169.644 288.097C169.644 288.097 179.879 301.87 194.529 304.605C209.179 307.339 222.141 305.934 230.189 299.638Z" fill="#F7C326" stroke="black" stroke-width="1.5107" stroke-miterlimit="10"/>
<path d="M201.698 274.225C201.262 274.455 200.839 274.707 200.429 274.98C200.006 275.259 199.586 275.55 199.182 275.86C198.366 276.479 197.588 277.148 196.852 277.862C196.11 278.575 195.412 279.332 194.76 280.128C194.103 280.934 193.491 281.776 192.928 282.65C193.38 281.709 193.884 280.793 194.439 279.909C195 279.015 195.616 278.156 196.282 277.337C196.95 276.51 197.668 275.724 198.431 274.984C199.206 274.22 200.043 273.523 200.935 272.899L201.558 272.472L202.358 273.87L201.698 274.225Z" fill="black"/>
<path d="M227.474 289.773C227.46 289.97 227.413 290.163 227.334 290.344C226.975 291.076 225.823 290.993 225.253 290.408C224.683 289.823 224.539 288.961 224.343 288.172C223.859 286.264 222.979 284.479 221.76 282.933C220.54 281.388 219.009 280.116 217.265 279.202C216.888 279.01 216.438 278.726 216.476 278.303C216.513 278.158 216.581 278.022 216.675 277.905C216.769 277.788 216.886 277.692 217.02 277.624C219.603 275.796 222.9 278.911 224.486 280.702C226.416 282.87 227.818 286.782 227.474 289.773Z" fill="white"/>
<path d="M178.867 207.44C178.867 207.44 192.086 224.436 190.681 258.804C190.644 260.219 190.108 261.575 189.168 262.633C188.228 263.691 186.945 264.383 185.544 264.586C183.951 264.802 184.034 265.002 182.266 264.851C179.075 264.579 176.427 261.629 176.601 258.43C177.081 249.642 175.385 227.778 165.271 211.599C165.271 211.595 172.824 210.462 178.867 207.44Z" fill="#19888F" stroke="black" stroke-width="1.5107" stroke-miterlimit="10"/>
<path d="M111.698 256.247C111.698 256.247 104.719 256.247 104.02 260.084C103.208 264.549 107.158 266.716 107.158 266.716C107.158 266.716 101.576 269.507 100.878 272.298C94.3589 268.627 86.4693 268.59 80.2905 272.298C72.839 276.774 69.0774 285.989 71.2263 294.959C71.4854 296.195 71.9583 297.376 72.6237 298.449C78.6438 308.098 99.3592 308.782 114.145 302.29C122.137 298.781 130.238 294.789 132.987 287.632C136.723 277.926 132.519 268.322 131.594 267.045C131.594 267.045 137.176 264.254 133.339 260.066C129.501 255.877 111.705 256.228 111.705 256.228" fill="#F7C326"/>
<path d="M111.698 256.247C111.698 256.247 104.719 256.247 104.02 260.084C103.208 264.549 107.158 266.716 107.158 266.716C107.158 266.716 101.576 269.507 100.878 272.298C94.3589 268.627 86.4693 268.59 80.2905 272.298C72.839 276.774 69.0774 285.989 71.2263 294.959C71.4854 296.195 71.9583 297.376 72.6237 298.449C78.6438 308.098 99.3592 308.782 114.145 302.29C122.137 298.781 130.238 294.789 132.987 287.632C136.723 277.926 132.519 268.322 131.594 267.045C131.594 267.045 137.176 264.254 133.339 260.066C129.501 255.877 111.705 256.228 111.705 256.228" stroke="black" stroke-width="1.5107" stroke-miterlimit="10"/>
<path d="M72.6161 298.46C70.8448 297.074 68.8998 301.255 69.4739 303.694C71.1205 310.689 90.0873 315.229 106.108 311.72C112.249 310.379 123.308 306.882 134.721 296.368C134.721 296.368 138.562 290.434 132.976 286.926C132.976 286.926 122.779 300.662 108.159 303.389C93.5393 306.115 80.6416 304.748 72.6161 298.46Z" fill="#F7C326" stroke="black" stroke-width="1.5107" stroke-miterlimit="10"/>
<path d="M101.776 271.815C102.665 272.438 103.5 273.134 104.273 273.896C105.035 274.634 105.751 275.417 106.418 276.241C107.08 277.06 107.693 277.918 108.253 278.81C108.807 279.692 109.312 280.605 109.764 281.544C109.203 280.672 108.593 279.832 107.936 279.029C107.285 278.233 106.588 277.476 105.848 276.763C105.115 276.05 104.34 275.384 103.525 274.768C103.121 274.459 102.705 274.168 102.282 273.888C101.859 273.609 101.418 273.345 101.017 273.133L100.341 272.789L101.142 271.392L101.776 271.815Z" fill="black"/>
<path d="M107.434 266.059C108.041 266.458 108.671 266.82 109.322 267.143C109.982 267.479 110.659 267.781 111.35 268.046C112.047 268.309 112.759 268.526 113.484 268.695C114.219 268.86 114.968 268.956 115.72 268.982C114.963 269.113 114.196 269.174 113.428 269.164C112.651 269.147 111.876 269.078 111.109 268.956C110.338 268.835 109.574 268.672 108.82 268.469C108.051 268.261 107.294 268.009 106.554 267.713L105.67 267.358L106.66 265.519L107.434 266.059Z" fill="black"/>
<path d="M131.212 268.582C130.678 268.776 130.13 268.931 129.573 269.047C129.036 269.163 128.492 269.247 127.945 269.3C127.406 269.354 126.863 269.37 126.321 269.349C125.79 269.329 125.26 269.268 124.739 269.164C125.257 269.112 125.77 269.017 126.272 268.88C126.766 268.748 127.251 268.581 127.722 268.382C128.188 268.186 128.642 267.964 129.082 267.717C129.506 267.483 129.914 267.219 130.302 266.928L131.057 266.339L132.107 268.254L131.212 268.582Z" fill="black"/>
<path d="M75.3241 288.618C75.3366 288.813 75.3825 289.005 75.46 289.184C75.8377 289.917 76.9707 289.834 77.5372 289.248C78.1037 288.663 78.2511 287.806 78.4437 287.016C78.9265 285.114 79.8046 283.335 81.0208 281.795C82.237 280.255 83.764 278.988 85.5024 278.077C85.8801 277.88 86.3295 277.601 86.288 277.178C86.2615 276.88 85.9971 276.672 85.7516 276.498C83.1721 274.678 79.8863 277.786 78.3039 279.572C76.3778 281.744 74.9804 285.649 75.3241 288.618Z" fill="white"/>
<path d="M112.774 210.084L111.698 259.386C111.698 259.386 112.744 263.227 118.326 263.574C123.908 263.922 125.305 260.436 125.305 260.436L126.748 213.106C126.748 213.106 117.306 212.875 112.774 210.084Z" fill="#19888F" stroke="black" stroke-width="1.5107" stroke-miterlimit="10"/>
</svg>
