<svg width="293" height="247" viewBox="0 0 293 247" fill="none" xmlns="http://www.w3.org/2000/svg">
<g filter="url(#filter0_d_855_2353)">
<path d="M285.384 112.078C285.384 134.817 280.988 151.72 272.196 162.786C263.555 173.852 248.699 179.385 227.628 179.385C206.405 179.385 190.715 174.61 180.558 165.06C170.553 155.509 165.551 140.35 165.551 119.582V24.3064H214.212V117.081C214.212 127.541 214.667 135.802 215.576 141.866C216.486 147.778 218.229 152.326 220.806 155.509C223.383 158.693 227.249 160.285 232.403 160.285C237.557 160.285 241.498 158.693 244.227 155.509C246.956 152.174 248.775 147.323 249.684 140.957C250.594 134.438 251.049 125.646 251.049 114.58V24.3064H285.384V112.078Z" fill="#9882E3"/>
</g>
<g filter="url(#filter1_d_855_2353)">
<path d="M141.174 96.8463C132.988 96.8463 127.682 102.304 125.257 113.218C122.983 123.981 121.846 136.791 121.846 151.647C121.846 168.777 124.423 182.193 129.577 191.895C134.732 201.445 143.524 206.22 155.954 206.22C169.295 206.22 179.603 199.853 186.879 187.119C192.791 190.758 195.747 196.291 195.747 203.719C195.747 211.45 193.17 218.044 188.016 223.501C182.862 228.959 176.192 232.976 168.006 235.553C159.972 238.282 151.634 239.646 142.993 239.646C126.318 239.646 112.447 236.235 101.381 229.414C90.4666 222.44 82.4322 213.042 77.2781 201.217C72.1239 189.393 69.5469 175.826 69.5469 160.515C69.5469 134.744 75.7622 114.886 88.1927 100.939C100.775 86.9928 119.496 80.0195 144.358 80.0195C158.759 80.0195 170.81 82.3692 180.512 87.0686C190.366 91.7679 195.293 99.6507 195.293 110.717C195.293 118.6 192.564 124.891 187.107 129.59C181.649 134.138 174.903 136.412 166.869 136.412C161.866 136.412 157.925 135.957 155.045 135.047C155.954 130.5 156.409 126.331 156.409 122.541C156.409 114.81 155.348 108.595 153.226 103.895C151.103 99.1959 147.086 96.8463 141.174 96.8463Z" fill="#F46142"/>
</g>
<g filter="url(#filter2_d_855_2353)">
<path d="M0.369141 3.51552C21.1373 1.69642 41.2232 0.786865 60.627 0.786865C86.0945 0.786865 104.968 6.85055 117.247 18.9779C129.526 30.9537 135.665 49.5995 135.665 74.9154C135.665 100.838 129.071 120.545 115.882 134.036C102.694 147.528 83.2143 154.274 57.4436 154.274C40.1621 154.274 21.1373 153.213 0.369141 151.09V3.51552ZM60.8544 137.447C69.6468 137.447 75.5589 131.687 78.5907 120.166C81.6225 108.493 83.1385 93.8645 83.1385 76.2798C83.1385 58.9983 81.6225 44.9002 78.5907 33.9855C75.5589 23.0709 69.571 17.6136 60.627 17.6136C58.3531 17.6136 56.3824 17.7652 54.7149 18.0684C53.0474 18.3716 51.1525 18.8263 49.0302 19.4327V135.855C52.82 136.917 56.7614 137.447 60.8544 137.447Z" fill="#F7C326"/>
</g>
<defs>
<filter id="filter0_d_855_2353" x="165.551" y="24.3064" width="126.94" height="162.185" filterUnits="userSpaceOnUse" color-interpolation-filters="sRGB">
<feFlood flood-opacity="0" result="BackgroundImageFix"/>
<feColorMatrix in="SourceAlpha" type="matrix" values="0 0 0 0 0 0 0 0 0 0 0 0 0 0 0 0 0 0 127 0" result="hardAlpha"/>
<feOffset dx="7.10588" dy="7.10588"/>
<feComposite in2="hardAlpha" operator="out"/>
<feColorMatrix type="matrix" values="0 0 0 0 0.152941 0 0 0 0 0.152941 0 0 0 0 0.152941 0 0 0 1 0"/>
<feBlend mode="normal" in2="BackgroundImageFix" result="effect1_dropShadow_855_2353"/>
<feBlend mode="normal" in="SourceGraphic" in2="effect1_dropShadow_855_2353" result="shape"/>
</filter>
<filter id="filter1_d_855_2353" x="69.5469" y="80.0195" width="133.307" height="166.732" filterUnits="userSpaceOnUse" color-interpolation-filters="sRGB">
<feFlood flood-opacity="0" result="BackgroundImageFix"/>
<feColorMatrix in="SourceAlpha" type="matrix" values="0 0 0 0 0 0 0 0 0 0 0 0 0 0 0 0 0 0 127 0" result="hardAlpha"/>
<feOffset dx="7.10588" dy="7.10588"/>
<feComposite in2="hardAlpha" operator="out"/>
<feColorMatrix type="matrix" values="0 0 0 0 0.152941 0 0 0 0 0.152941 0 0 0 0 0.152941 0 0 0 1 0"/>
<feBlend mode="normal" in2="BackgroundImageFix" result="effect1_dropShadow_855_2353"/>
<feBlend mode="normal" in="SourceGraphic" in2="effect1_dropShadow_855_2353" result="shape"/>
</filter>
<filter id="filter2_d_855_2353" x="0.369141" y="0.786865" width="142.403" height="160.593" filterUnits="userSpaceOnUse" color-interpolation-filters="sRGB">
<feFlood flood-opacity="0" result="BackgroundImageFix"/>
<feColorMatrix in="SourceAlpha" type="matrix" values="0 0 0 0 0 0 0 0 0 0 0 0 0 0 0 0 0 0 127 0" result="hardAlpha"/>
<feOffset dx="7.10588" dy="7.10588"/>
<feComposite in2="hardAlpha" operator="out"/>
<feColorMatrix type="matrix" values="0 0 0 0 0.152941 0 0 0 0 0.152941 0 0 0 0 0.152941 0 0 0 1 0"/>
<feBlend mode="normal" in2="BackgroundImageFix" result="effect1_dropShadow_855_2353"/>
<feBlend mode="normal" in="SourceGraphic" in2="effect1_dropShadow_855_2353" result="shape"/>
</filter>
</defs>
</svg>
