<svg width="340" height="374" viewBox="0 0 340 374" fill="none" xmlns="http://www.w3.org/2000/svg">
<ellipse cx="167" cy="187" rx="149" ry="146" fill="white"/>
<path d="M172.029 175.32C118.562 175.32 113.602 227.109 114.023 235.032C114.397 242.094 114.815 248.569 121.669 250.37C129.247 252.122 155.836 253.754 171.192 253.754C185.672 253.754 210.566 252.626 220.869 250.37C228.676 248.277 227.584 241.943 227.463 234.778C227.343 226.653 221.498 175.32 172.029 175.32Z" fill="#272727" stroke="#272727" stroke-width="3.52901" stroke-linejoin="round"/>
<path d="M166.341 113.274C175.465 112.122 184.674 114.636 191.948 120.264C199.222 125.892 203.967 134.176 205.142 143.297C206.318 152.419 203.828 161.634 198.219 168.923C192.61 176.211 184.339 180.978 175.221 182.178C166.102 183.377 156.88 180.912 149.577 175.322C142.274 169.732 137.485 161.474 136.262 152.359C135.038 143.243 137.479 134.015 143.05 126.697C148.621 119.379 156.866 114.569 165.978 113.321" fill="#272727"/>
<path d="M166.341 113.274C175.465 112.122 184.674 114.636 191.948 120.264C199.222 125.892 203.967 134.176 205.142 143.297C206.318 152.419 203.828 161.634 198.219 168.923C192.61 176.211 184.339 180.978 175.221 182.178C166.102 183.377 156.88 180.912 149.577 175.322C142.274 169.732 137.485 161.474 136.262 152.359C135.038 143.243 137.479 134.015 143.05 126.697C148.621 119.379 156.866 114.569 165.978 113.321" stroke="#272727" stroke-width="3.52901" stroke-linecap="round" stroke-linejoin="round"/>
<path d="M167.029 172.32C113.562 172.32 108.602 224.109 109.023 232.032C109.397 239.094 109.815 245.569 116.669 247.37C124.247 249.122 150.836 250.754 166.192 250.754C180.672 250.754 205.566 249.626 215.869 247.37C223.676 245.277 222.584 238.943 222.463 231.778C222.343 223.653 216.498 172.32 167.029 172.32Z" fill="#F46142" stroke="#272727" stroke-width="3.52901" stroke-linejoin="round"/>
<path d="M161.341 110.274C170.465 109.122 179.674 111.636 186.948 117.264C194.222 122.892 198.967 131.176 200.142 140.297C201.318 149.419 198.828 158.634 193.219 165.923C187.61 173.211 179.339 177.978 170.221 179.178C161.102 180.377 151.88 177.912 144.577 172.322C137.274 166.732 132.485 158.474 131.262 149.359C130.038 140.243 132.479 131.015 138.05 123.697C143.621 116.379 151.866 111.569 160.978 110.321" fill="#F46142"/>
<path d="M161.341 110.274C170.465 109.122 179.674 111.636 186.948 117.264C194.222 122.892 198.967 131.176 200.142 140.297C201.318 149.419 198.828 158.634 193.219 165.923C187.61 173.211 179.339 177.978 170.221 179.178C161.102 180.377 151.88 177.912 144.577 172.322C137.274 166.732 132.485 158.474 131.262 149.359C130.038 140.243 132.479 131.015 138.05 123.697C143.621 116.379 151.866 111.569 160.978 110.321" stroke="#272727" stroke-width="3.52901" stroke-linecap="round" stroke-linejoin="round"/>
<circle cx="168.121" cy="187.295" r="148.018" stroke="#272727" stroke-width="7.05802"/>
<path d="M20.6411 286.803C22.6828 284.672 66.4939 250.418 69.2033 248.133C71.9127 245.847 74.304 244.054 76.7906 244.755C79.2771 245.456 82.6478 249.478 82.294 252.195C81.9406 254.913 79.8364 255.873 76.8058 258.366C73.7752 260.859 30.1973 294.084 27.401 296.335C23.3558 296.806 15.9476 296.639 15.971 296.59C15.971 296.59 18.6124 289.929 20.6411 286.803Z" fill="#272727" stroke="#272727" stroke-width="4.00179" stroke-linecap="round"/>
<path d="M20.6417 286.803L27.4016 296.335" stroke="#272727" stroke-width="4.00179"/>
<path d="M68.9576 248.767L75.7175 258.3" stroke="#272727" stroke-width="4.00179"/>
<path d="M17.6702 284.717C19.7119 282.586 63.523 248.333 66.2324 246.047C68.9418 243.761 71.3331 241.969 73.8197 242.669C76.3062 243.37 79.6769 247.393 79.3231 250.11C78.9696 252.827 76.8655 253.787 73.8349 256.28C70.8043 258.773 27.2264 291.999 24.43 294.25C20.3849 294.721 12.9767 294.553 13.0001 294.505C13.0001 294.505 15.6415 287.844 17.6702 284.717Z" fill="#F7C326" stroke="#272727" stroke-width="4.00179" stroke-linecap="round"/>
<path d="M17.6708 284.717L24.4306 294.25" stroke="#272727" stroke-width="4.00179"/>
<path d="M65.9867 246.682L72.7466 256.214" stroke="#272727" stroke-width="4.00179"/>
<path d="M175.59 73.0784H159.191C157.987 73.0784 157.011 74.2402 157.011 75.6734V84.7007C157.011 86.1339 157.987 87.2957 159.191 87.2957H175.59C176.794 87.2957 177.77 86.1339 177.77 84.7007V75.6734C177.77 74.2402 176.794 73.0784 175.59 73.0784Z" fill="#272727" stroke="#272727" stroke-width="2.51009" stroke-linecap="round" stroke-linejoin="round"/>
<path d="M157.865 81.4996L169.15 81.6108" stroke="#272727" stroke-width="2.51009" stroke-linecap="round"/>
<path d="M173.222 81.5496L177.649 81.5839" stroke="#272727" stroke-width="2.51009" stroke-linecap="round"/>
<path d="M166.862 5.00032C190.61 5.08979 198.273 26.8413 196.708 38.9829C195.142 51.1247 185.52 58.4203 181.837 63.3543C178.153 68.2883 178.762 71.7081 176.451 72.5611C175.046 73.0486 171.273 72.8581 167.414 72.8582C162.628 72.8582 157.709 72.9236 157.011 72.2481C155.49 70.5702 155.937 66.4394 152.865 63.3543C149.794 60.2692 140.152 50.5263 137.703 40.6104C135.253 30.6945 138.739 4.89446 166.862 5.00032Z" fill="#272727" stroke="#272727" stroke-width="2.51009" stroke-linecap="round"/>
<path d="M172.531 70.0784H156.131C154.928 70.0784 153.952 71.2402 153.952 72.6734V81.7007C153.952 83.1339 154.928 84.2957 156.131 84.2957H172.531C173.735 84.2957 174.711 83.1339 174.711 81.7007V72.6734C174.711 71.2402 173.735 70.0784 172.531 70.0784Z" fill="#F7C326" stroke="#272727" stroke-width="2.51009" stroke-linecap="round" stroke-linejoin="round"/>
<path d="M154.806 78.4996L166.091 78.6108" stroke="#272727" stroke-width="2.51009" stroke-linecap="round"/>
<path d="M170.163 78.5496L174.589 78.5839" stroke="#272727" stroke-width="2.51009" stroke-linecap="round"/>
<path d="M163.803 2.00032C187.551 2.08979 195.214 23.8413 193.648 35.9829C192.083 48.1247 182.461 55.4203 178.777 60.3543C175.094 65.2883 175.703 68.7081 173.392 69.5611C171.987 70.0486 168.214 69.8581 164.354 69.8582C159.568 69.8582 154.65 69.9236 153.952 69.2481C152.431 67.5702 152.877 63.4394 149.806 60.3543C146.735 57.2692 137.093 47.5263 134.643 37.6104C132.194 27.6945 135.68 1.89446 163.803 2.00032Z" fill="#F7C326" stroke="#272727" stroke-width="2.51009" stroke-linecap="round"/>
<path d="M10.9288 95C8.82404 94.9938 4.9998 97.9307 4.9998 101.484V130.04C4.9998 133.594 6.34083 136.478 10.312 136.471L20.453 136.454L27.6947 150L29.6263 136.454H65.2016C67.3063 136.454 68.9998 133.594 68.9998 130.04V101.484C68.9998 97.9308 65.7363 95.071 63.6316 95.071H34.7864L10.9288 95Z" fill="#272727" stroke="#272727" stroke-width="3.52901" stroke-linecap="round" stroke-linejoin="round"/>
<path d="M51.8977 116.089C51.669 116.061 51.4382 116.121 51.2559 116.255C51.0736 116.388 50.9546 116.585 50.9252 116.802C50.8957 117.019 50.9581 117.238 51.0987 117.411C51.2393 117.584 51.4466 117.697 51.6751 117.726C51.9036 117.754 52.1348 117.696 52.3178 117.563C52.5009 117.43 52.6209 117.234 52.6515 117.017C52.6822 116.801 52.621 116.581 52.4814 116.408C52.3418 116.234 52.1351 116.119 51.9068 116.09" fill="#272727"/>
<path d="M51.8977 116.089C51.669 116.061 51.4382 116.121 51.2559 116.255C51.0736 116.388 50.9546 116.585 50.9252 116.802C50.8957 117.019 50.9581 117.238 51.0987 117.411C51.2393 117.584 51.4466 117.697 51.6751 117.726C51.9036 117.754 52.1348 117.696 52.3178 117.563C52.5009 117.43 52.6209 117.234 52.6515 117.017C52.6822 116.801 52.621 116.581 52.4814 116.408C52.3418 116.234 52.1351 116.119 51.9068 116.09" stroke="#272727" stroke-width="8.23435" stroke-linecap="round" stroke-linejoin="round"/>
<path d="M36.6622 116.089C36.4336 116.061 36.2027 116.121 36.0204 116.255C35.8381 116.388 35.7192 116.585 35.6898 116.802C35.6603 117.019 35.7227 117.238 35.8633 117.411C36.0038 117.584 36.2111 117.697 36.4397 117.726C36.6682 117.754 36.8993 117.696 37.0824 117.563C37.2654 117.43 37.3854 117.234 37.4161 117.017C37.4468 116.801 37.3856 116.581 37.246 116.408C37.1064 116.234 36.8997 116.119 36.6713 116.09" fill="#272727"/>
<path d="M36.6622 116.089C36.4336 116.061 36.2027 116.121 36.0204 116.255C35.8381 116.388 35.7192 116.585 35.6898 116.802C35.6603 117.019 35.7227 117.238 35.8633 117.411C36.0038 117.584 36.2111 117.697 36.4397 117.726C36.6682 117.754 36.8993 117.696 37.0824 117.563C37.2654 117.43 37.3854 117.234 37.4161 117.017C37.4468 116.801 37.3856 116.581 37.246 116.408C37.1064 116.234 36.8997 116.119 36.6713 116.09" stroke="#272727" stroke-width="8.23435" stroke-linecap="round" stroke-linejoin="round"/>
<path d="M21.4268 116.089C21.1981 116.061 20.9673 116.121 20.785 116.255C20.6027 116.388 20.4837 116.585 20.4543 116.802C20.4248 117.019 20.4872 117.238 20.6278 117.411C20.7684 117.584 20.9756 117.697 21.2042 117.726C21.4327 117.754 21.6639 117.696 21.8469 117.563C22.0299 117.43 22.15 117.234 22.1806 117.017C22.2113 116.801 22.1501 116.581 22.0105 116.408C21.8709 116.234 21.6642 116.119 21.4358 116.09" fill="#272727"/>
<path d="M21.4268 116.089C21.1981 116.061 20.9673 116.121 20.785 116.255C20.6027 116.388 20.4837 116.585 20.4543 116.802C20.4248 117.019 20.4872 117.238 20.6278 117.411C20.7684 117.584 20.9756 117.697 21.2042 117.726C21.4327 117.754 21.6639 117.696 21.8469 117.563C22.0299 117.43 22.15 117.234 22.1806 117.017C22.2113 116.801 22.1501 116.581 22.0105 116.408C21.8709 116.234 21.6642 116.119 21.4358 116.09" stroke="#272727" stroke-width="8.23435" stroke-linecap="round" stroke-linejoin="round"/>
<path d="M295.549 248.221C288.184 247.292 280.751 249.321 274.88 253.864C269.009 258.407 265.179 265.092 264.23 272.455C263.281 279.818 265.291 287.256 269.818 293.139C274.346 299.022 281.021 302.87 288.381 303.838C295.742 304.806 303.185 302.816 309.08 298.304C314.975 293.792 318.84 287.127 319.828 279.769C320.815 272.412 318.845 264.963 314.349 259.056C309.852 253.149 303.197 249.267 295.842 248.26" fill="#272727"/>
<path d="M295.549 248.221C288.184 247.292 280.751 249.321 274.88 253.864C269.009 258.407 265.179 265.092 264.23 272.455C263.281 279.818 265.291 287.256 269.818 293.139C274.346 299.022 281.021 302.87 288.381 303.838C295.742 304.806 303.185 302.816 309.08 298.304C314.975 293.792 318.84 287.127 319.828 279.769C320.815 272.412 318.845 264.963 314.349 259.056C309.852 253.149 303.197 249.267 295.842 248.26" stroke="#272727" stroke-width="3.13761" stroke-linecap="round" stroke-linejoin="round"/>
<path d="M308.498 271.996C308.498 271.996 308.369 267.313 303.497 267.313C298.705 267.313 298.338 271.996 298.338 271.996" fill="#272727"/>
<path d="M308.498 271.996C308.498 271.996 308.369 267.313 303.497 267.313C298.705 267.313 298.338 271.996 298.338 271.996" stroke="#272727" stroke-width="3.52901" stroke-linecap="round"/>
<path d="M274.843 271.997C274.843 271.997 274.973 267.313 279.844 267.313C284.636 267.313 285.004 271.997 285.004 271.997" fill="#272727"/>
<path d="M274.843 271.997C274.843 271.997 274.973 267.313 279.844 267.313C284.636 267.313 285.004 271.997 285.004 271.997" stroke="#272727" stroke-width="3.52901" stroke-linecap="round"/>
<path d="M300.516 284.029C300.516 284.029 300.293 291.483 291.886 291.483C283.615 291.483 282.981 284.029 282.981 284.029" fill="#272727"/>
<path d="M300.516 284.029C300.516 284.029 300.293 291.483 291.886 291.483C283.615 291.483 282.981 284.029 282.981 284.029" stroke="#272727" stroke-width="3.52901" stroke-linecap="round"/>
<path d="M293.549 246.221C286.184 245.291 278.751 247.321 272.88 251.863C267.009 256.406 263.179 263.092 262.23 270.455C261.281 277.817 263.291 285.256 267.818 291.139C272.345 297.022 279.021 300.87 286.381 301.838C293.741 302.806 301.185 300.816 307.08 296.304C312.975 291.792 316.84 285.127 317.828 277.769C318.815 270.412 316.845 262.963 312.348 257.056C307.852 251.149 301.197 247.266 293.842 246.259" fill="#A3E8EC"/>
<path d="M293.549 246.221C286.184 245.291 278.751 247.321 272.88 251.863C267.009 256.406 263.179 263.092 262.23 270.455C261.281 277.817 263.291 285.256 267.818 291.139C272.345 297.022 279.021 300.87 286.381 301.838C293.741 302.806 301.185 300.816 307.08 296.304C312.975 291.792 316.84 285.127 317.828 277.769C318.815 270.412 316.845 262.963 312.348 257.056C307.852 251.149 301.197 247.266 293.842 246.259" stroke="#272727" stroke-width="3.13761" stroke-linecap="round" stroke-linejoin="round"/>
<path d="M306.498 269.996C306.498 269.996 306.369 265.313 301.497 265.313C296.705 265.313 296.338 269.996 296.338 269.996" fill="#A3E8EC"/>
<path d="M306.498 269.996C306.498 269.996 306.369 265.313 301.497 265.313C296.705 265.313 296.338 269.996 296.338 269.996" stroke="#272727" stroke-width="3.52901" stroke-linecap="round"/>
<path d="M272.843 269.997C272.843 269.997 272.973 265.313 277.844 265.313C282.636 265.313 283.003 269.997 283.003 269.997" fill="#A3E8EC"/>
<path d="M272.843 269.997C272.843 269.997 272.973 265.313 277.844 265.313C282.636 265.313 283.003 269.997 283.003 269.997" stroke="#272727" stroke-width="3.52901" stroke-linecap="round"/>
<path d="M298.516 282.029C298.516 282.029 298.293 289.483 289.885 289.483C281.615 289.483 280.981 282.029 280.981 282.029" fill="#A3E8EC"/>
<path d="M298.516 282.029C298.516 282.029 298.293 289.483 289.885 289.483C281.615 289.483 280.981 282.029 280.981 282.029" stroke="#272727" stroke-width="3.52901" stroke-linecap="round"/>
<circle cx="298.513" cy="125.339" r="17.5349" fill="#FFDAD3"/>
<path d="M311.864 89L300.318 89.2985L299.91 96.7613C299.91 96.7613 299.705 96.562 293.166 99.5471L288.364 94.0747L280.19 102.035L285.396 106.66C285.396 106.66 285.196 106.811 282.131 113.975L276 113.876V124.721L282.131 124.522C282.131 124.522 281.824 124.423 284.788 132.383L280.904 136.065L288.67 144.224L293.37 139.448C293.37 139.448 293.779 139.548 300.829 142.334L300.727 149L311.149 148.801L311.456 142.234C311.456 142.234 311.558 142.333 319.017 139.348L323.41 143.826L331.482 136.164L326.987 131.886C326.987 131.886 327.702 131.587 330.665 124.323L336.897 124.522L337 113.876L328.928 113.676C328.928 113.676 329.439 112.881 326.067 106.214L331.38 101.736L323.615 94.3732L318.097 99.6467C318.097 99.6467 315.236 97.4574 311.864 96.8604V89ZM306.428 106.049C308.285 106.049 310.125 106.406 311.841 107.098C313.557 107.79 315.116 108.805 316.43 110.084C317.743 111.363 318.785 112.882 319.496 114.553C320.207 116.224 320.573 118.016 320.573 119.825C320.572 123.478 319.082 126.981 316.43 129.565C313.777 132.148 310.179 133.599 306.428 133.599C302.676 133.599 299.079 132.148 296.426 129.565C293.773 126.981 292.283 123.478 292.283 119.825C292.283 118.016 292.649 116.224 293.36 114.553C294.071 112.882 295.112 111.363 296.426 110.084C297.739 108.805 299.299 107.79 301.015 107.098C302.731 106.406 304.57 106.049 306.428 106.049Z" fill="#272727" stroke="#272727" stroke-width="4.04651" stroke-linejoin="round"/>
<path d="M310.959 84L299.382 84.3114L298.973 92.0977C298.973 92.0977 298.768 91.8897 292.211 95.0042L287.396 89.2947L279.201 97.5998L284.421 102.425C284.421 102.425 284.22 102.583 281.147 110.057L275 109.954V121.269L281.147 121.062C281.147 121.062 280.84 120.958 283.811 129.263L279.917 133.104L287.704 141.617L292.416 136.634C292.416 136.634 292.826 136.738 299.895 139.645L299.792 146.6L310.242 146.393L310.549 139.541C310.549 139.541 310.652 139.645 318.13 136.53L322.535 141.202L330.629 133.208L326.121 128.744C326.121 128.744 326.838 128.432 329.809 120.854L336.058 121.062L336.161 109.954L328.067 109.746C328.067 109.746 328.58 108.916 325.199 101.96L330.526 97.2883L322.74 89.6061L317.208 95.1082C317.208 95.1082 314.339 92.824 310.959 92.2011V84ZM305.508 101.788C307.371 101.788 309.215 102.16 310.936 102.882C312.656 103.605 314.22 104.663 315.537 105.998C316.854 107.332 317.898 108.917 318.611 110.661C319.324 112.404 319.69 114.273 319.69 116.16C319.69 119.972 318.196 123.627 315.536 126.323C312.877 129.018 309.27 130.532 305.508 130.532C301.747 130.532 298.14 129.018 295.48 126.323C292.82 123.627 291.326 119.972 291.326 116.16C291.326 114.273 291.693 112.404 292.406 110.661C293.118 108.917 294.163 107.332 295.48 105.998C296.797 104.663 298.36 103.605 300.081 102.882C301.802 102.16 303.646 101.788 305.508 101.788Z" fill="#9882E3" stroke="#272727" stroke-width="4.04651" stroke-linejoin="round"/>
<path d="M210.573 359.938C210.573 359.938 180.852 330.221 180.179 330.305L176.545 334.035L207.103 363.647C207.103 363.647 209.361 365.987 211.056 363.81C212.75 361.633 210.573 359.938 210.573 359.938Z" fill="#272727" stroke="#272727" stroke-width="1.30056"/>
<circle cx="28.5749" cy="28.5749" r="27.1779" transform="matrix(0.123666 0.992324 0.992324 -0.123666 130.753 291.325)" fill="#272727" stroke="#272727" stroke-width="2.79412"/>
<path d="M151.275 298.549C141.802 304.367 138.836 316.753 144.646 326.212C150.456 335.671 162.845 338.627 172.317 332.809C181.79 326.99 184.756 314.605 178.946 305.145C173.136 295.686 160.748 292.731 151.275 298.549Z" fill="white" stroke="#272727" stroke-width="2.79412"/>
<path d="M210.573 355.938C210.573 355.938 180.852 326.221 180.179 326.305L176.545 330.035L207.103 359.647C207.103 359.647 209.361 361.987 211.056 359.81C212.75 357.633 210.573 355.938 210.573 355.938Z" fill="#9882E3" stroke="#272727" stroke-width="1.30056"/>
<circle cx="28.5749" cy="28.5749" r="27.1779" transform="matrix(0.123666 0.992324 0.992324 -0.123666 130.753 287.325)" fill="#9882E3" stroke="#272727" stroke-width="2.79412"/>
<path d="M151.275 294.549C141.802 300.367 138.836 312.753 144.646 322.212C150.456 331.671 162.845 334.627 172.317 328.809C181.79 322.99 184.756 310.605 178.946 301.145C173.136 291.686 160.748 288.731 151.275 294.549Z" fill="white" stroke="#272727" stroke-width="2.79412"/>
<path d="M7.92968 91.6179C5.8247 91.6113 2.00001 94.7098 2.00001 98.459V128.585C2.00001 132.334 3.34119 135.377 7.3128 135.37L17.455 135.351L24.6975 149.643L26.6293 135.351H62.2087C64.3137 135.351 66.0074 132.334 66.0074 128.585V98.459C66.0074 94.7099 62.7435 91.6928 60.6386 91.6928H31.79L7.92968 91.6179Z" fill="#9BE2E6" stroke="#272727" stroke-width="3.52901" stroke-linecap="round" stroke-linejoin="round"/>
<path d="M48.9034 113.866C48.6746 113.837 48.4438 113.9 48.2615 114.042C48.0792 114.183 47.9602 114.39 47.9307 114.619C47.9013 114.848 47.9637 115.079 48.1043 115.261C48.2449 115.444 48.4522 115.563 48.6808 115.594C48.9093 115.624 49.1405 115.562 49.3235 115.422C49.5066 115.282 49.6266 115.075 49.6573 114.846C49.688 114.618 49.6268 114.386 49.4872 114.203C49.3475 114.019 49.1408 113.899 48.9124 113.868" fill="#9BE2E6"/>
<path d="M48.9034 113.866C48.6746 113.837 48.4438 113.9 48.2615 114.042C48.0792 114.183 47.9602 114.39 47.9307 114.619C47.9013 114.848 47.9637 115.079 48.1043 115.261C48.2449 115.444 48.4522 115.563 48.6808 115.594C48.9093 115.624 49.1405 115.562 49.3235 115.422C49.5066 115.282 49.6266 115.075 49.6573 114.846C49.688 114.618 49.6268 114.386 49.4872 114.203C49.3475 114.019 49.1408 113.899 48.9124 113.868" stroke="#272727" stroke-width="8.23435" stroke-linecap="round" stroke-linejoin="round"/>
<path d="M33.6661 113.866C33.4374 113.837 33.2066 113.9 33.0242 114.042C32.8419 114.183 32.723 114.39 32.6935 114.619C32.6641 114.848 32.7265 115.079 32.8671 115.261C33.0077 115.444 33.215 115.563 33.4435 115.594C33.6721 115.624 33.9033 115.562 34.0863 115.422C34.2694 115.282 34.3894 115.075 34.4201 114.846C34.4508 114.618 34.3896 114.386 34.2499 114.203C34.1103 114.019 33.9036 113.899 33.6752 113.868" fill="#9BE2E6"/>
<path d="M33.6661 113.866C33.4374 113.837 33.2066 113.9 33.0242 114.042C32.8419 114.183 32.723 114.39 32.6935 114.619C32.6641 114.848 32.7265 115.079 32.8671 115.261C33.0077 115.444 33.215 115.563 33.4435 115.594C33.6721 115.624 33.9033 115.562 34.0863 115.422C34.2694 115.282 34.3894 115.075 34.4201 114.846C34.4508 114.618 34.3896 114.386 34.2499 114.203C34.1103 114.019 33.9036 113.899 33.6752 113.868" stroke="#272727" stroke-width="8.23435" stroke-linecap="round" stroke-linejoin="round"/>
<path d="M18.4289 113.866C18.2002 113.837 17.9694 113.9 17.787 114.042C17.6047 114.183 17.4858 114.39 17.4563 114.619C17.4268 114.848 17.4892 115.079 17.6298 115.261C17.7704 115.444 17.9778 115.563 18.2063 115.594C18.4349 115.624 18.666 115.562 18.8491 115.422C19.0322 115.282 19.1522 115.075 19.1829 114.846C19.2135 114.618 19.1523 114.386 19.0127 114.203C18.8731 114.019 18.6664 113.899 18.438 113.868" fill="#9BE2E6"/>
<path d="M18.4289 113.866C18.2002 113.837 17.9694 113.9 17.787 114.042C17.6047 114.183 17.4858 114.39 17.4563 114.619C17.4268 114.848 17.4892 115.079 17.6298 115.261C17.7704 115.444 17.9778 115.563 18.2063 115.594C18.4349 115.624 18.666 115.562 18.8491 115.422C19.0322 115.282 19.1522 115.075 19.1829 114.846C19.2135 114.618 19.1523 114.386 19.0127 114.203C18.8731 114.019 18.6664 113.899 18.438 113.868" stroke="#272727" stroke-width="8.23435" stroke-linecap="round" stroke-linejoin="round"/>
</svg>
