<svg width="339" height="333" viewBox="0 0 339 333" fill="none" xmlns="http://www.w3.org/2000/svg">
<ellipse cx="144.757" cy="300.851" rx="144.499" ry="31.4441" transform="rotate(-1.02117 144.757 300.851)" fill="#FCA61D" fill-opacity="0.61"/>
<path d="M59.4283 141.816C66.9164 191.884 107.717 227.281 164.902 218.729C220.767 210.373 250.743 164.392 243.255 114.327C235.767 64.2627 206.002 24.7901 135.625 35.3142C74.9525 44.3864 51.9282 91.7471 59.4283 141.816Z" fill="#F5816A" stroke="#272727" stroke-width="1.60002" stroke-miterlimit="10"/>
<path d="M78.0967 141.684C85.6968 192.444 126.569 228.401 183.754 219.849C239.623 211.493 269.512 164.952 261.92 114.187C254.327 63.4225 224.479 23.3859 154.102 33.89C93.425 42.9662 70.5046 90.9189 78.0967 141.684Z" fill="#FFE7E2" stroke="#272727" stroke-width="1.60002" stroke-miterlimit="10"/>
<path d="M89.4086 141.036C96.2687 186.889 133.201 219.369 184.854 211.645C235.323 204.097 262.323 162.044 255.463 116.2C248.603 70.3549 221.642 34.1544 158.066 43.6625C103.257 51.8626 82.5525 95.1793 89.4086 141.036Z" stroke="#272727" stroke-width="1.60002" stroke-miterlimit="10"/>
<path d="M180.24 135.58C190.284 133.092 195.767 120.338 192.487 107.092C189.206 93.8462 178.404 85.1249 168.36 87.6124C158.316 90.1 152.833 102.854 156.113 116.1C159.394 129.346 170.196 138.068 180.24 135.58Z" fill="white" stroke="#272727" stroke-width="1.60002" stroke-miterlimit="10"/>
<path d="M181.419 109.65L180.985 109.942L181.503 110.014L188.474 110.983C189.376 114.592 188.916 118.139 187.543 120.873C186.153 123.641 183.838 125.561 181.066 125.901L181.089 126.088L181.066 125.901C174.931 126.654 168.628 121.98 166.765 113.966C165.834 109.961 166.227 106.052 167.605 102.974C168.983 99.8966 171.34 97.661 174.335 96.9662L174.299 96.8089L174.335 96.9662C176.779 96.3994 179.321 97.1948 181.611 98.8607C183.859 100.496 185.849 102.958 187.234 105.739L181.419 109.65Z" fill="black" stroke="#272727" stroke-width="0.400006"/>
<path d="M218.971 124.342C227.801 123.032 233.559 112.53 231.831 100.885C230.103 89.2409 221.544 80.8632 212.714 82.1734C203.884 83.4836 198.127 93.9856 199.854 105.63C201.582 117.275 210.141 125.653 218.971 124.342Z" fill="white" stroke="#272727" stroke-width="1.3803" stroke-miterlimit="10"/>
<path d="M222.221 100.377L221.857 100.643L222.305 100.689L228.346 101.301C229.239 104.383 228.954 107.456 227.856 109.857C226.745 112.288 224.809 114.018 222.43 114.398L222.457 114.568L222.43 114.398C217.164 115.24 211.584 111.422 209.725 104.561C208.795 101.131 209.01 97.7484 210.1 95.053C211.19 92.3578 213.15 90.3589 215.711 89.6651C217.799 89.1008 220.019 89.7061 222.047 91.0691C224.038 92.4068 225.828 94.4652 227.096 96.8184L222.221 100.377Z" fill="black" stroke="#272727" stroke-width="0.345076"/>
<path d="M198.566 132.491C199.123 133.773 199.979 134.902 201.062 135.784C201.75 136.313 202.503 136.751 203.302 137.088C204.457 137.545 205.697 137.748 206.937 137.683C208.178 137.617 209.389 137.284 210.489 136.707C211.589 136.13 212.551 135.322 213.31 134.338C214.068 133.355 214.606 132.219 214.885 131.009C215.164 129.798 215.178 128.542 214.927 127.326C214.676 126.109 214.165 124.961 213.429 123.961C212.693 122.96 211.749 122.13 210.663 121.528C209.577 120.926 208.373 120.565 207.134 120.471C205.877 120.352 204.609 120.533 203.435 120.998C202.261 121.463 201.213 122.2 200.378 123.147C199.55 124.001 198.873 124.99 198.378 126.071" fill="#FFDE72"/>
<path d="M198.566 132.491C199.123 133.773 199.979 134.902 201.062 135.784C201.75 136.313 202.503 136.751 203.302 137.088C204.457 137.545 205.697 137.748 206.937 137.683C208.178 137.617 209.389 137.284 210.489 136.707C211.589 136.13 212.551 135.322 213.31 134.338C214.068 133.355 214.606 132.219 214.885 131.009C215.164 129.798 215.178 128.542 214.927 127.326C214.676 126.109 214.165 124.961 213.429 123.961C212.693 122.96 211.749 122.13 210.663 121.528C209.577 120.926 208.373 120.565 207.134 120.471C205.877 120.352 204.609 120.533 203.435 120.998C202.261 121.463 201.213 122.2 200.378 123.147C199.55 124.001 198.873 124.99 198.378 126.071" stroke="#272727" stroke-width="1.60002" stroke-miterlimit="10" stroke-linecap="round"/>
<path d="M211.43 130.18C211.604 128.841 211.314 127.483 210.607 126.332C209.9 125.182 208.819 124.309 207.546 123.86" stroke="white" stroke-width="2.00003" stroke-miterlimit="10" stroke-linecap="round"/>
<path d="M195.698 170.906L195.697 170.906C193.766 170.028 192.019 168.79 190.551 167.258L190.544 167.251L190.537 167.245C190.146 166.905 189.858 166.461 189.709 165.964C189.594 165.371 189.896 164.766 190.251 164.166L190.078 164.064L190.251 164.166C190.289 164.1 190.329 164.034 190.368 163.967C191.964 161.271 193.972 157.877 196.284 155.9C199.831 152.871 204.617 151.563 209.31 151.484C214.004 151.404 218.644 152.457 223.206 153.657C223.696 153.796 224.197 153.955 224.623 154.19C225.045 154.423 225.378 154.722 225.556 155.135C225.682 155.511 225.729 155.91 225.692 156.305L225.691 156.305L225.691 156.316C225.435 162.759 220.653 168.519 214.673 171.02L214.751 171.204L214.673 171.02C208.924 173.424 201.514 173.581 195.698 170.906Z" fill="black" stroke="#272727" stroke-width="0.400006"/>
<path d="M193.931 138.036C203.367 136.532 211.327 144.976 209.407 154.036C208.988 156.19 208.125 158.233 206.875 160.036C198.075 172.388 170.354 171.312 160.394 157.376C155.618 150.696 156.154 142.776 156.766 138.804C157.282 140.617 158.269 142.26 159.626 143.568C165.058 148.712 174.066 146.4 180.174 144.124C184.551 142.496 188.215 139.364 192.859 138.252C193.219 138.164 193.575 138.092 193.931 138.036Z" fill="#474747" stroke="#272727" stroke-width="1.60002" stroke-miterlimit="10"/>
<path d="M222.731 136.208C215.479 135.06 208.479 139.48 209.343 147.524C210.095 154.54 216.755 157.972 223.127 158.648C235.876 160 247.164 149.3 246.296 136.612C241.048 142.852 232.204 139.648 226.095 137.152C225.014 136.71 223.885 136.393 222.731 136.208Z" fill="#474747" stroke="#272727" stroke-width="1.60002" stroke-miterlimit="10"/>
<path d="M158.239 85.7159C158.239 85.7159 156.726 78.4018 163.07 76.4138C169.414 74.4257 172.737 79.7208 172.737 79.7208" stroke="#272727" stroke-width="1.60002" stroke-miterlimit="10"/>
<path d="M204.311 77.4464C204.311 77.4464 202.668 69.823 208.298 68.4464C213.927 67.0697 216.657 72.7524 216.657 72.7524" stroke="#272727" stroke-width="1.29842" stroke-miterlimit="10"/>
<path d="M180.57 70.4418C183.736 68.4668 187.415 67.4697 191.145 67.5752C192.861 67.6324 194.06 65.9228 193.2 64.6202L182.509 48.395C181.46 46.8014 178.679 47.5398 178.556 49.4392L177.32 68.8722C177.23 70.4269 179.086 71.3327 180.57 70.4418Z" fill="#F5816A" stroke="#272727" stroke-width="1.60002" stroke-miterlimit="10"/>
<path d="M214.462 175.976C211.052 177.489 207.273 177.964 203.594 177.344C201.902 177.048 200.478 178.572 201.146 179.984L209.454 197.533C210.254 199.253 213.126 198.909 213.51 197.044L217.438 177.972C217.75 176.452 216.026 175.296 214.462 175.976Z" fill="#8C7BC7" stroke="#272727" stroke-width="1.60002" stroke-miterlimit="10"/>
<path d="M157.53 32.814C157.53 32.814 165.79 30.87 171.094 31.134C171.094 31.134 171.958 26.654 170.058 25.4539C168.158 24.2539 158.646 26.3059 157.034 27.854C155.422 29.402 157.53 32.814 157.53 32.814Z" fill="#F7C326" stroke="#272727" stroke-width="1.60002" stroke-miterlimit="10" stroke-linecap="round"/>
<path d="M159.038 1.13374C153.602 2.12576 150.202 8.41383 151.438 15.1699C152.674 21.926 158.078 26.6021 163.514 25.6061C168.95 24.6101 172.346 18.33 171.114 11.5699C169.882 4.80978 164.47 0.137727 159.038 1.13374ZM162.906 22.298C158.998 23.014 155.102 19.646 154.214 14.7819C153.326 9.91787 155.774 5.38979 159.686 4.67378C163.598 3.95777 167.49 7.32579 168.378 12.1939C169.266 17.0619 166.818 21.582 162.906 22.298Z" fill="#F7C326" stroke="#272727" stroke-width="1.60002" stroke-miterlimit="10" stroke-linecap="round"/>
<path d="M211.512 170.757L211.512 170.757L211.509 170.757C209.185 171.203 206.253 171.365 204.156 170.179C204.331 169.557 204.783 168.995 205.422 168.489C206.108 167.948 206.99 167.485 207.921 167.095C209.513 166.428 211.215 165.985 212.26 165.713C212.437 165.667 212.595 165.626 212.731 165.589L212.731 165.589C214.988 164.981 217.318 164.562 219.264 165.677C218.028 167.367 216.562 168.687 214.97 169.55C213.845 170.143 212.684 170.548 211.512 170.757Z" fill="#CC2936" stroke="#272727" stroke-width="0.400006"/>
<path d="M98.5812 108.563C98.5812 108.563 92.1811 145.764 106.981 164.964" stroke="white" stroke-width="3.20005" stroke-miterlimit="10" stroke-linecap="round"/>
<path d="M113.781 174.164C113.781 174.164 118.981 182.964 125.781 186.564" stroke="white" stroke-width="3.20005" stroke-miterlimit="10" stroke-linecap="round"/>
<path d="M140.05 255.977C138.85 257.621 136.95 258.657 135.018 259.337C132.398 260.261 132.994 262.381 132.854 264.853C132.694 267.694 132.561 270.535 132.454 273.378C132.222 278.924 132.073 284.476 132.006 290.034C131.988 290.261 132.019 290.488 132.098 290.702C132.292 291.008 132.57 291.252 132.898 291.406C134.802 292.606 135.566 295.142 135.102 297.342C134.054 302.326 129.418 304.234 125.254 305.954C121.09 307.674 116.854 308.698 112.454 309.51C92.7654 313.158 72.561 314.71 52.6808 312.342C49.9647 312.018 47.0087 311.498 45.2127 309.438C43.4167 307.378 43.9407 303.322 46.6247 302.814C45.7207 302.986 43.6046 296.642 43.3846 295.862C42.6728 293.305 42.3519 290.655 42.4327 288.002C42.5837 282.653 44.1982 277.449 47.1007 272.954C49.9007 268.614 54.3888 264.345 59.4129 262.893C69.497 259.977 80.5012 263.005 89.6654 267.482C92.8214 269.022 97.2854 269.622 100.525 267.638C101.184 267.158 101.69 266.5 101.985 265.742C103.825 261.905 105.446 257.465 102.954 253.849C102.22 252.807 101.759 251.598 101.611 250.332C101.464 249.067 101.635 247.784 102.109 246.601C103.874 242.173 108.79 241.089 113.066 241.229C117.603 241.38 122.118 241.931 126.558 242.877C130.666 243.757 138.486 244.945 140.59 249.009C141.123 250.068 141.368 251.249 141.302 252.432C141.235 253.616 140.858 254.761 140.21 255.753C140.158 255.829 140.102 255.901 140.05 255.977Z" fill="#F7C326" stroke="#272727" stroke-width="1.60002" stroke-miterlimit="10"/>
<path d="M154.922 251.074C153.626 252.274 152.754 253.958 152.582 256.374C152.402 258.87 154.458 260.014 154.718 261.95C155.038 264.35 152.946 267.81 152.174 270.162C151.198 273.138 150.325 276.145 149.554 279.182C148.518 283.262 148.13 287.482 147.046 291.53C144.518 291.486 142.51 294.034 142.37 296.558C141.97 303.702 149.202 306.126 154.846 307.358C180.219 312.862 208.619 325.047 234.151 312.282C236.999 311.118 239.843 309.482 241.412 306.85C242.98 304.218 242.803 300.326 240.323 298.506C240.023 298.286 239.675 298.066 239.579 297.706C239.539 297.475 239.557 297.237 239.631 297.014C242.511 285.142 240.639 268.898 226.951 264.682C221.151 262.898 214.899 263.162 208.915 264.19C203.671 265.094 198.363 266.642 193.923 269.666C192.163 270.866 191.015 272.358 188.915 272.754C188.115 272.906 181.751 272.098 181.715 271.306C181.631 269.39 181.899 267.482 182.047 265.566C182.051 265.014 182.17 264.469 182.395 263.966C182.702 263.48 183.1 263.058 183.567 262.722C185.611 260.998 187.415 258.454 186.867 255.834C186.319 253.214 183.667 251.622 181.163 250.634C176.181 248.679 170.837 247.819 165.494 248.113C161.682 248.305 157.474 248.721 154.922 251.074Z" fill="#F7C326" stroke="#272727" stroke-width="1.60002" stroke-miterlimit="10"/>
<path d="M69.741 147.816C63.3889 150.088 46.1407 159.62 44.7767 168.244C43.4127 176.868 54.7768 194.569 54.7768 194.569C54.7768 194.569 63.8529 194.569 69.753 189.125L63.4009 174.144L75.6571 166.428" fill="#19888F"/>
<path d="M69.741 147.816C63.3889 150.088 46.1407 159.62 44.7767 168.244C43.4127 176.868 54.7768 194.569 54.7768 194.569C54.7768 194.569 63.8529 194.569 69.753 189.125L63.4009 174.144L75.6571 166.428" stroke="#272727" stroke-width="1.60002" stroke-miterlimit="10"/>
<path d="M262.199 116.499L283.531 105.615C283.531 105.615 291.247 108.339 290.331 119.215L263.095 139.26C263.095 139.26 263.563 126.94 262.199 116.499Z" fill="#19888F" stroke="#272727" stroke-width="1.60002" stroke-miterlimit="10"/>
<path d="M46.3487 194.229C46.2078 195.421 46.4779 196.626 47.1143 197.644C47.7506 198.662 48.7152 199.433 49.8488 199.829C45.3007 205.061 44.7766 212.745 45.6847 217.737C41.0046 217.685 40.2246 224.937 41.6286 229.397C43.0327 233.857 47.5567 236.717 52.1288 237.717C56.7009 238.717 61.9529 238.029 65.125 234.613C70.7011 237.773 78.5291 236.077 82.3012 230.893C82.7372 230.293 83.1492 229.633 83.8092 229.293C84.4692 228.953 85.3292 229.005 86.1093 228.933C90.9653 228.477 93.2814 222.533 92.9094 217.657C92.8534 216.925 92.7654 216.193 92.6414 215.469C91.8444 211.005 89.9379 206.812 87.0973 203.277C85.9467 201.854 84.6738 200.534 83.2932 199.333C81.1132 197.405 78.8932 195.945 76.0492 195.145C76.8492 193.545 78.0492 191.945 77.5772 190.025C76.4092 185.165 70.5091 185.625 66.649 185.793C61.6559 185.988 56.7276 186.993 52.0568 188.769C51.1737 189.096 50.3199 189.497 49.5047 189.969C47.9007 190.909 46.6247 192.313 46.3487 194.229Z" fill="white" stroke="#272727" stroke-width="1.60002" stroke-linejoin="round"/>
<mask id="path-30-inside-1_944_2762" fill="white">
<path d="M74.2813 203.217C74.2813 203.217 80.1815 205.937 80.6375 213.653Z"/>
</mask>
<path d="M74.2813 203.217C74.2813 203.217 80.1815 205.937 80.6375 213.653Z" fill="white"/>
<path d="M74.2813 203.217C74.1139 203.58 74.1137 203.58 74.1136 203.58C74.1136 203.58 74.1134 203.58 74.1134 203.58C74.1133 203.58 74.1133 203.58 74.1135 203.58C74.1137 203.58 74.1142 203.58 74.1151 203.581C74.117 203.581 74.1202 203.583 74.1247 203.585C74.1339 203.59 74.1484 203.597 74.1679 203.606C74.2069 203.626 74.2661 203.657 74.3426 203.699C74.4957 203.783 74.718 203.914 74.9876 204.095C75.5273 204.456 76.2543 205.018 76.9957 205.814C78.4752 207.402 80.0165 209.926 80.2382 213.676L81.0368 213.629C80.8024 209.664 79.1657 206.97 77.5811 205.269C76.7904 204.42 76.014 203.819 75.4331 203.43C75.1425 203.235 74.9003 203.093 74.7289 202.998C74.6432 202.951 74.5751 202.916 74.5275 202.892C74.5037 202.88 74.4851 202.871 74.4718 202.864C74.4652 202.861 74.4599 202.859 74.4561 202.857C74.4542 202.856 74.4526 202.855 74.4514 202.855C74.4508 202.854 74.4503 202.854 74.4498 202.854C74.4496 202.854 74.4494 202.854 74.4492 202.854C74.449 202.854 74.4488 202.853 74.2813 203.217Z" fill="#272727" mask="url(#path-30-inside-1_944_2762)"/>
<path d="M74.9477 203.597C75.7521 203.855 76.5027 204.263 77.1583 204.803L77.1582 204.803L77.1621 204.806C78.0358 205.49 78.7735 206.331 79.3372 207.286L79.3372 207.286L79.3387 207.289C79.9167 208.236 80.3147 209.281 80.5127 210.373L80.5128 210.373C80.612 210.91 80.6592 211.455 80.6535 212.001C80.6445 212.312 80.619 212.622 80.5773 212.93C80.564 212.893 80.5509 212.856 80.5379 212.818C80.5213 212.77 80.5048 212.723 80.4882 212.674C80.4176 212.47 80.3458 212.262 80.2628 212.058C80.1964 211.894 80.1335 211.724 80.0699 211.552C79.9525 211.235 79.8326 210.912 79.6837 210.61C79.2974 209.676 78.8435 208.771 78.3254 207.903C77.8088 207.032 77.2252 206.202 76.5799 205.422C76.0634 204.789 75.5187 204.181 74.9477 203.597Z" fill="black" stroke="#272727" stroke-width="0.400006"/>
<mask id="path-33-inside-2_944_2762" fill="white">
<path d="M67.0168 204.557C67.0168 204.557 72.013 207.733 73.373 215.449Z"/>
</mask>
<path d="M67.0168 204.557C67.0168 204.557 72.013 207.733 73.373 215.449Z" fill="white"/>
<path d="M67.0168 204.557C66.8023 204.894 66.8021 204.894 66.802 204.894C66.802 204.894 66.8019 204.894 66.8018 204.894C66.8018 204.894 66.8018 204.894 66.8019 204.894C66.802 204.894 66.8025 204.894 66.8033 204.895C66.8048 204.896 66.8075 204.898 66.8114 204.9C66.8191 204.905 66.8315 204.913 66.8481 204.925C66.8815 204.947 66.9321 204.983 66.998 205.031C67.1297 205.127 67.3222 205.275 67.5589 205.477C68.0323 205.882 68.6816 206.503 69.3736 207.36C70.7568 209.074 72.3125 211.736 72.9791 215.518L73.7669 215.379C73.0735 211.445 71.4511 208.661 69.9962 206.858C69.2692 205.957 68.5844 205.301 68.0786 204.869C67.8256 204.653 67.6172 204.493 67.4704 204.385C67.397 204.332 67.339 204.291 67.2984 204.263C67.2782 204.25 67.2623 204.239 67.251 204.232C67.2454 204.228 67.2409 204.225 67.2377 204.223C67.236 204.222 67.2347 204.221 67.2336 204.22C67.2331 204.22 67.2327 204.22 67.2323 204.22C67.2321 204.219 67.2319 204.219 67.2318 204.219C67.2316 204.219 67.2314 204.219 67.0168 204.557Z" fill="#272727" mask="url(#path-33-inside-2_944_2762)"/>
<path d="M69.712 206.482L69.7119 206.482L69.7149 206.485C70.5178 207.251 71.2037 208.13 71.7506 209.095C72.0194 209.576 72.2557 210.075 72.4579 210.588C72.4872 210.668 72.5168 210.747 72.546 210.826C72.6147 211.01 72.6821 211.191 72.7427 211.378C72.8088 211.583 72.8581 211.785 72.9076 211.989C72.9218 212.047 72.9361 212.106 72.9507 212.164C73.0784 212.698 73.1636 213.24 73.2054 213.787C73.2264 214.1 73.2319 214.414 73.2219 214.728C73.1696 214.618 73.119 214.508 73.068 214.397C72.9901 214.227 72.9112 214.055 72.8241 213.88C72.7282 213.686 72.6395 213.492 72.5499 213.297C72.5291 213.251 72.5082 213.205 72.4872 213.16C72.3769 212.92 72.2631 212.677 72.1343 212.44C72.0201 212.212 71.9095 211.979 71.8028 211.745C71.726 211.578 71.6352 211.411 71.5488 211.253C71.5104 211.183 71.4729 211.114 71.4379 211.047C71.4011 210.978 71.3641 210.904 71.3262 210.83C71.2471 210.673 71.1644 210.51 71.0732 210.355C71.012 210.251 70.9568 210.145 70.899 210.034L70.8944 210.025C70.8361 209.913 70.7749 209.795 70.7059 209.68C70.199 208.779 69.6484 207.907 69.0669 207.041C68.6146 206.367 68.143 205.703 67.6294 205.024C68.4003 205.387 69.1051 205.88 69.712 206.482Z" fill="black" stroke="#272727" stroke-width="0.400006"/>
<mask id="path-36-inside-3_944_2762" fill="white">
<path d="M60.2088 205.917C60.2088 205.917 64.2968 210.457 64.2968 218.173Z"/>
</mask>
<path d="M60.2088 205.917C60.2088 205.917 64.2968 210.457 64.2968 218.173Z" fill="white"/>
<path d="M60.2088 205.917C59.9115 206.185 59.9114 206.184 59.9114 206.184C59.9114 206.184 59.9113 206.184 59.9113 206.184C59.9113 206.184 59.9113 206.184 59.9114 206.184C59.9116 206.185 59.912 206.185 59.9127 206.186C59.9141 206.187 59.9164 206.19 59.9197 206.194C59.9262 206.201 59.9365 206.213 59.9503 206.229C59.9778 206.261 60.0192 206.311 60.0726 206.377C60.1793 206.51 60.3338 206.711 60.5201 206.977C60.8929 207.508 61.3926 208.298 61.8932 209.326C62.8941 211.383 63.8968 214.387 63.8968 218.173H64.6969C64.6969 214.243 63.6555 211.119 62.6125 208.976C62.091 207.905 61.5687 207.078 61.175 206.517C60.9781 206.236 60.8132 206.022 60.6964 205.877C60.638 205.804 60.5915 205.748 60.5592 205.71C60.543 205.691 60.5303 205.677 60.5214 205.666C60.5169 205.661 60.5134 205.657 60.5108 205.655C60.5095 205.653 60.5085 205.652 60.5077 205.651C60.5073 205.651 60.507 205.65 60.5067 205.65C60.5066 205.65 60.5064 205.65 60.5063 205.65C60.5062 205.649 60.5061 205.649 60.2088 205.917Z" fill="#272727" mask="url(#path-36-inside-3_944_2762)"/>
<path d="M60.6863 206.535C61.3504 207.092 61.926 207.749 62.392 208.484L62.392 208.484L62.394 208.487C63.014 209.425 63.5027 210.444 63.8465 211.514L63.8468 211.515C64.1951 212.582 64.4004 213.69 64.4572 214.811L64.4573 214.813C64.5086 215.688 64.446 216.565 64.2719 217.422C64.2619 217.385 64.2521 217.347 64.2423 217.31C64.2257 217.247 64.2092 217.183 64.1926 217.118C64.1409 216.918 64.0885 216.714 64.0283 216.515C63.9545 216.271 63.8915 216.022 63.8271 215.767L63.8203 215.74C63.7543 215.479 63.6865 215.213 63.6054 214.951C63.3789 214.062 63.1085 213.197 62.841 212.341C62.7951 212.195 62.7493 212.048 62.7038 211.902C62.3898 210.891 62.0158 209.89 61.6355 208.901C61.3391 208.13 61.0233 207.343 60.6863 206.535Z" fill="black" stroke="#272727" stroke-width="0.400006"/>
<mask id="path-39-inside-4_944_2762" fill="white">
<path d="M83.5854 229.293C83.5854 229.293 85.8575 224.301 84.4935 220.217Z"/>
</mask>
<path d="M83.5854 229.293C83.5854 229.293 85.8575 224.301 84.4935 220.217Z" fill="white"/>
<path d="M83.5854 229.293C83.9495 229.459 83.9496 229.459 83.9496 229.459C83.9497 229.458 83.9497 229.458 83.9498 229.458C83.9499 229.458 83.9501 229.458 83.9503 229.457C83.9507 229.456 83.9512 229.455 83.9519 229.454C83.9532 229.451 83.955 229.447 83.9574 229.441C83.9621 229.431 83.9689 229.415 83.9775 229.395C83.9948 229.356 84.0196 229.298 84.0503 229.223C84.1118 229.073 84.1974 228.857 84.2954 228.585C84.4914 228.041 84.738 227.274 84.9411 226.375C85.3451 224.588 85.5888 222.234 84.8729 220.09L84.1141 220.344C84.7622 222.284 84.5519 224.468 84.1608 226.198C83.9665 227.058 83.7303 227.794 83.5428 228.314C83.4492 228.573 83.3679 228.779 83.3105 228.918C83.2818 228.988 83.2591 229.041 83.2437 229.077C83.2361 229.094 83.2302 229.108 83.2265 229.116C83.2246 229.12 83.2232 229.123 83.2223 229.125C83.2219 229.126 83.2216 229.127 83.2214 229.127C83.2214 229.127 83.2213 229.128 83.2213 229.128C83.2213 229.128 83.2213 229.128 83.2213 229.128C83.2213 229.127 83.2214 229.127 83.5854 229.293Z" fill="#272727" mask="url(#path-39-inside-4_944_2762)"/>
<path d="M84.2079 229.345L83.1341 228.869C83.4473 228.266 83.7221 227.644 83.9568 227.006C84.2227 226.291 84.4416 225.558 84.6121 224.814L84.6121 224.814L84.6125 224.812C84.7786 224.057 84.8778 223.289 84.909 222.517L84.909 222.517L84.9091 222.515C84.9092 222.511 84.9093 222.508 84.9094 222.505L84.2079 229.345ZM84.2079 229.345C84.4269 228.66 84.6007 227.961 84.7283 227.254L84.7286 227.252L84.7286 227.252C84.8757 226.469 84.9695 225.676 85.0094 224.88C85.0447 224.09 85.0118 223.3 84.911 222.516L84.2079 229.345Z" fill="black" stroke="#272727" stroke-width="0.400006"/>
<mask id="path-42-inside-5_944_2762" fill="white">
<path d="M64.9761 234.741C64.9761 234.741 67.4121 230.185 66.1121 227.253Z"/>
</mask>
<path d="M64.9761 234.741C64.9761 234.741 67.4121 230.185 66.1121 227.253Z" fill="white"/>
<path d="M64.9761 234.741C65.3289 234.93 65.3289 234.93 65.329 234.929C65.329 234.929 65.3291 234.929 65.3292 234.929C65.3293 234.929 65.3295 234.929 65.3297 234.928C65.3301 234.927 65.3307 234.926 65.3314 234.925C65.3328 234.922 65.3348 234.919 65.3373 234.914C65.3424 234.904 65.3496 234.89 65.3589 234.872C65.3775 234.836 65.4041 234.783 65.4372 234.716C65.5035 234.581 65.596 234.387 65.7026 234.144C65.9154 233.661 66.1859 232.983 66.4151 232.21C66.8664 230.689 67.1892 228.695 66.4778 227.091L65.7464 227.415C66.335 228.743 66.0898 230.493 65.6481 231.983C65.4309 232.715 65.1736 233.36 64.9703 233.822C64.8688 234.053 64.7812 234.237 64.7193 234.363C64.6884 234.426 64.6639 234.474 64.6474 234.506C64.6392 234.522 64.6329 234.534 64.6289 234.542C64.6268 234.546 64.6253 234.549 64.6244 234.551C64.624 234.551 64.6236 234.552 64.6235 234.552C64.6234 234.552 64.6233 234.553 64.6233 234.553C64.6233 234.553 64.6233 234.553 64.6233 234.553C64.6233 234.553 64.6234 234.552 64.9761 234.741Z" fill="#272727" mask="url(#path-42-inside-5_944_2762)"/>
<path d="M66.4957 229.187C66.4961 229.183 66.4965 229.179 66.4969 229.175C66.4972 229.177 66.4975 229.18 66.4978 229.183L66.4978 229.183C66.5707 229.833 66.5707 230.489 66.4978 231.139L66.4977 231.139C66.4258 231.804 66.306 232.463 66.1389 233.111L66.1389 233.111L66.1385 233.113C65.9929 233.699 65.8117 234.276 65.5959 234.84L64.556 234.291C64.8532 233.828 65.123 233.348 65.3642 232.853C65.6458 232.279 65.8871 231.687 66.0864 231.08C66.2923 230.467 66.4295 229.833 66.4955 229.189L66.4955 229.189L66.4957 229.187Z" fill="black" stroke="#272727" stroke-width="0.400006"/>
<mask id="path-45-inside-6_944_2762" fill="white">
<path d="M50.2251 226.345C50.2251 226.345 46.141 222.713 45.685 217.721Z"/>
</mask>
<path d="M50.2251 226.345C50.2251 226.345 46.141 222.713 45.685 217.721Z" fill="white"/>
<path d="M50.2251 226.345C50.4909 226.046 50.491 226.046 50.4911 226.046C50.4911 226.046 50.4911 226.046 50.4911 226.046C50.4911 226.046 50.491 226.046 50.4909 226.046C50.4907 226.046 50.4902 226.045 50.4894 226.044C50.488 226.043 50.4855 226.041 50.4822 226.038C50.4754 226.032 50.465 226.022 50.451 226.009C50.4231 225.983 50.3811 225.944 50.3271 225.892C50.2189 225.787 50.0624 225.63 49.8725 225.426C49.4923 225.019 48.9797 224.423 48.4532 223.674C47.397 222.173 46.3026 220.084 46.0833 217.684L45.2867 217.757C45.5234 220.349 46.6991 222.572 47.7989 224.135C48.3504 224.919 48.8874 225.543 49.2872 225.972C49.4873 226.187 49.6534 226.353 49.7704 226.466C49.8289 226.523 49.8751 226.566 49.9073 226.596C49.9233 226.611 49.9358 226.622 49.9446 226.63C49.949 226.634 49.9524 226.637 49.9548 226.64C49.9561 226.641 49.9571 226.642 49.9578 226.642C49.9582 226.643 49.9585 226.643 49.9587 226.643C49.9589 226.643 49.959 226.643 49.9591 226.643C49.9592 226.643 49.9593 226.644 50.2251 226.345Z" fill="#272727" mask="url(#path-45-inside-6_944_2762)"/>
<path d="M48.5762 224.493C48.5905 224.515 48.6048 224.538 48.6192 224.56C48.5971 224.536 48.5751 224.511 48.5532 224.487L48.5528 224.487C47.992 223.867 47.4782 223.207 47.0155 222.511C46.5509 221.801 46.1551 221.049 45.8336 220.265L45.8336 220.265L45.8331 220.264C45.5259 219.528 45.2941 218.763 45.1413 217.98L46.3107 217.875C46.3383 218.596 46.4358 219.312 46.6019 220.015L46.6021 220.015C46.7921 220.807 47.0575 221.578 47.3944 222.319C47.7332 223.072 48.1282 223.799 48.5762 224.493Z" fill="black" stroke="#272727" stroke-width="0.400006"/>
<mask id="path-48-inside-7_944_2762" fill="white">
<path d="M67.9283 196.841C67.9283 196.841 72.5804 196.581 76.1004 194.569Z"/>
</mask>
<path d="M67.9283 196.841C67.9283 196.841 72.5804 196.581 76.1004 194.569Z" fill="white"/>
<path d="M67.9283 196.841C67.9507 197.24 67.9508 197.24 67.9509 197.24C67.9509 197.24 67.9511 197.24 67.9512 197.24C67.9514 197.24 67.9517 197.24 67.9521 197.24C67.9529 197.24 67.9539 197.24 67.9553 197.24C67.9579 197.24 67.9617 197.239 67.9666 197.239C67.9763 197.238 67.9905 197.238 68.0088 197.236C68.0455 197.234 68.099 197.23 68.1679 197.224C68.3058 197.213 68.5054 197.194 68.7554 197.166C69.2552 197.109 69.9577 197.012 70.7719 196.852C72.3947 196.531 74.4854 195.952 76.2989 194.916L75.9019 194.221C74.1954 195.197 72.2001 195.754 70.6169 196.067C69.828 196.222 69.1475 196.316 68.6651 196.371C68.4239 196.399 68.2326 196.416 68.1023 196.427C68.0371 196.432 67.9873 196.436 67.9541 196.438C67.9375 196.439 67.9251 196.44 67.917 196.441C67.913 196.441 67.91 196.441 67.9082 196.441C67.9073 196.441 67.9066 196.441 67.9063 196.441C67.9061 196.441 67.906 196.441 67.9059 196.441C67.9059 196.441 67.9059 196.441 67.9059 196.441C67.906 196.441 67.906 196.441 67.9283 196.841Z" fill="#272727" mask="url(#path-48-inside-7_944_2762)"/>
<path d="M70.0569 196.576C70.7474 196.391 71.4295 196.175 72.1013 195.928L72.1013 195.928C72.7623 195.685 73.4098 195.408 74.0411 195.096L74.0411 195.096L74.0425 195.095C74.5932 194.817 75.1263 194.506 75.6387 194.163L76.2199 195.171C75.6083 195.436 74.9796 195.659 74.3381 195.84L74.3373 195.84C73.639 196.04 72.9295 196.199 72.2124 196.315L72.2114 196.315C71.4972 196.435 70.7783 196.522 70.0569 196.576Z" fill="black" stroke="#272727" stroke-width="0.400006"/>
<mask id="path-51-inside-8_944_2762" fill="white">
<path d="M49.5602 199.861C49.5602 199.861 53.4203 200.453 57.6684 197.793Z"/>
</mask>
<path d="M49.5602 199.861C49.5602 199.861 53.4203 200.453 57.6684 197.793Z" fill="white"/>
<path d="M49.5602 199.861C49.4996 200.256 49.4998 200.256 49.5 200.256C49.5001 200.256 49.5003 200.256 49.5004 200.256C49.5008 200.256 49.5012 200.256 49.5016 200.256C49.5025 200.257 49.5037 200.257 49.505 200.257C49.5078 200.257 49.5115 200.258 49.5161 200.259C49.5253 200.26 49.5382 200.262 49.5547 200.264C49.5877 200.268 49.6351 200.273 49.696 200.279C49.8177 200.291 49.9936 200.304 50.2167 200.312C50.6629 200.326 51.2991 200.316 52.0702 200.221C53.6127 200.031 55.698 199.498 57.8807 198.132L57.4561 197.454C55.3906 198.747 53.4219 199.248 51.9723 199.427C51.2474 199.517 50.6531 199.525 50.2428 199.512C50.0377 199.505 49.8788 199.493 49.7728 199.483C49.7199 199.478 49.6802 199.473 49.6545 199.47C49.6417 199.468 49.6325 199.467 49.6268 199.466C49.624 199.466 49.6221 199.466 49.6211 199.465C49.6206 199.465 49.6203 199.465 49.6203 199.465C49.6203 199.465 49.6203 199.465 49.6204 199.465C49.6205 199.465 49.6206 199.465 49.6206 199.465C49.6207 199.465 49.6209 199.465 49.5602 199.861Z" fill="#272727" mask="url(#path-51-inside-8_944_2762)"/>
<path d="M49.648 200.462L49.8426 199.309C50.0926 199.359 50.3453 199.395 50.5994 199.416L50.5995 199.416C50.9342 199.444 51.2809 199.465 51.6296 199.461C52.326 199.46 53.0213 199.403 53.7085 199.29C54.4071 199.178 55.0955 199.01 55.767 198.787C55.7779 198.783 55.7888 198.78 55.7997 198.776C55.7891 198.782 55.7785 198.788 55.7679 198.794C55.1344 199.141 54.4752 199.439 53.7962 199.685L53.7957 199.685C53.1106 199.936 52.4055 200.128 51.6881 200.26L51.6881 200.26L51.6835 200.261C51.3295 200.335 50.9656 200.382 50.5924 200.422C50.2785 200.451 49.9633 200.465 49.648 200.462Z" fill="black" stroke="#272727" stroke-width="0.400006"/>
<path d="M170.059 220.897L167.299 232.713L165.211 241.673C164.483 244.785 163.107 248.073 163.183 251.274C163.227 253.142 163.915 255.09 165.403 256.218C166.325 256.864 167.39 257.276 168.507 257.418C170.768 257.831 173.103 257.517 175.175 256.522C178.995 254.59 179.771 250.609 180.731 246.849L183.719 235.157C185.082 229.824 186.447 224.49 187.815 219.157C187.815 219.157 177.775 220.897 170.059 220.897Z" fill="#19888F" stroke="#272727" stroke-width="1.60002" stroke-miterlimit="10"/>
<path d="M138.918 219.589L130.118 247.677C130.118 247.677 126.486 252.217 119.222 251.761C111.957 251.305 111.505 243.593 111.505 243.593L118.626 215.449C118.626 215.449 132.73 220.553 138.918 219.589Z" fill="#19888F" stroke="#272727" stroke-width="1.60002" stroke-miterlimit="10"/>
<path d="M288.332 99.0033C288.166 99.4625 287.882 99.8703 287.51 100.186C287.137 100.502 286.688 100.715 286.208 100.803C285.076 101.031 283.908 100.775 282.756 100.803C276.508 101.067 275.136 109.043 275.556 113.888C276.124 120.324 277.156 128.872 284.616 130.568C286.996 131.108 289.712 130.532 291.352 128.724C291.936 128.08 292.424 127.264 293.248 126.98C293.694 126.856 294.16 126.819 294.62 126.872C298.733 127.08 302.972 126.824 306.941 125.584C311.041 124.3 314.621 122.016 318.541 120.308C322.589 118.452 326.037 115.508 328.857 112.091C330.601 109.979 333.481 106.403 333.485 103.571C333.485 101.239 331.449 97.8713 328.769 98.4433C329.847 98.2069 330.865 97.7511 331.76 97.1042C332.655 96.4574 333.407 95.6333 333.969 94.6833C335.333 92.3392 335.693 87.7712 334.033 85.4831C333.139 84.3592 331.866 83.5997 330.453 83.3471C329.051 83.1003 327.625 83.0251 326.205 83.1231C329.845 80.535 331.529 72.4829 327.485 69.5229C325.221 67.8749 322.109 68.3228 319.353 68.8109C315.905 69.4429 312.841 71.7789 309.181 71.4949C307.109 71.3309 305.209 70.2389 303.148 69.9389C299.308 69.3869 296.124 70.8269 293.896 73.9749C289.896 79.631 289.36 86.9831 288.88 93.6672C288.772 95.1832 288.996 97.4233 288.332 99.0033Z" fill="white" stroke="#272727" stroke-width="1.60002" stroke-miterlimit="10" stroke-linecap="round"/>
<path d="M283.357 22.3299L302.409 17.2138L337.933 141.216L319.461 146.452L283.357 22.3299Z" fill="#A6E9EC" stroke="#272727" stroke-width="1.60002" stroke-linecap="round" stroke-linejoin="round"/>
<path d="M327.564 98.8149C323.36 100.135 313.488 102.439 309.856 104.927C306.96 106.927 307.332 110.047 308.736 112.987C309.186 114.02 309.881 114.927 310.76 115.631C312.196 116.703 314.096 116.907 315.888 116.875C319.68 116.803 326.5 112.423 329.832 110.615" fill="white"/>
<path d="M327.564 98.8149C323.36 100.135 313.488 102.439 309.856 104.927C306.96 106.927 307.332 110.047 308.736 112.987C309.186 114.02 309.881 114.927 310.76 115.631C312.196 116.703 314.096 116.907 315.888 116.875C319.68 116.803 326.5 112.423 329.832 110.615" stroke="#272727" stroke-width="1.60002" stroke-miterlimit="10" stroke-linecap="square"/>
<path d="M326.657 82.907C324.329 83.7071 314.337 87.6351 312.141 88.7431C309.741 89.9431 305.973 92.1032 305.593 95.1192C305.467 96.0403 305.554 96.9779 305.847 97.86C306.141 98.7421 306.632 99.5451 307.285 100.207C308.969 101.835 311.529 102.207 313.853 101.947C316.177 101.687 319.709 100.123 322.021 99.7633L329.661 98.2153" fill="white"/>
<path d="M326.657 82.907C324.329 83.7071 314.337 87.6351 312.141 88.7431C309.741 89.9431 305.973 92.1032 305.593 95.1192C305.467 96.0403 305.554 96.9779 305.847 97.86C306.141 98.7421 306.632 99.5451 307.285 100.207C308.969 101.835 311.529 102.207 313.853 101.947C316.177 101.687 319.709 100.123 322.021 99.7633L329.661 98.2153" stroke="#272727" stroke-width="1.60002" stroke-miterlimit="10"/>
<path d="M327.109 82.4549C324.737 83.6549 318.461 85.911 318.461 85.911C315.661 86.607 313.977 86.211 313.977 86.211C312.792 86.1986 311.62 85.971 310.517 85.539C308.061 84.447 305.217 80.2189 306.141 77.4349C306.359 76.862 306.672 76.3304 307.069 75.8628C309.178 73.248 312.017 71.3195 315.225 70.3228L318.873 69.0828" fill="white"/>
<path d="M327.109 82.4549C324.737 83.6549 318.461 85.911 318.461 85.911C315.661 86.607 313.977 86.211 313.977 86.211C312.792 86.1986 311.62 85.971 310.517 85.539C308.061 84.447 305.217 80.2189 306.141 77.4349C306.359 76.862 306.672 76.3304 307.069 75.8628C309.178 73.248 312.017 71.3195 315.225 70.3228L318.873 69.0828" stroke="#272727" stroke-width="1.60002" stroke-miterlimit="10" stroke-linecap="round"/>
<path d="M296.243 71.5586C301.691 67.9305 306.452 71.7346 308.22 74.2666C309.88 76.6427 310.988 79.3667 312.688 81.7147C313.792 83.2428 315.168 84.6428 315.76 86.4348C317.088 90.4349 313.044 94.0349 309.36 94.0709C306.495 94.0709 302.159 91.7709 300.767 89.2708" fill="white"/>
<path d="M296.243 71.5586C301.691 67.9305 306.452 71.7346 308.22 74.2666C309.88 76.6427 310.988 79.3667 312.688 81.7147C313.792 83.2428 315.168 84.6428 315.76 86.4348C317.088 90.4349 313.044 94.0349 309.36 94.0709C306.495 94.0709 302.159 91.7709 300.767 89.2708" stroke="#272727" stroke-width="1.60002" stroke-miterlimit="10" stroke-linecap="square"/>
<path d="M303.311 104.158C303.24 105.064 303.009 105.951 302.627 106.78L302.626 106.781C301.637 108.972 299.899 110.739 297.724 111.762L297.723 111.763C296.897 112.157 296.009 112.4 295.102 112.483C295.85 112.026 296.579 111.538 297.287 111.021L297.287 111.021L297.288 111.02C298.167 110.367 298.994 109.647 299.763 108.868C300.534 108.089 301.241 107.25 301.879 106.36L301.88 106.359C302.388 105.646 302.865 104.912 303.311 104.158Z" fill="black" stroke="#272727" stroke-width="0.400006"/>
<mask id="path-67-inside-9_944_2762" fill="white">
<path d="M287.615 100.319C286.641 103.582 286.469 107.031 287.111 110.375Z"/>
</mask>
<path d="M287.615 100.319C286.641 103.582 286.469 107.031 287.111 110.375Z" fill="white"/>
<path d="M287.232 100.204C286.24 103.529 286.064 107.044 286.719 110.451L287.504 110.299C286.873 107.019 287.043 103.634 287.999 100.433L287.232 100.204Z" fill="#272727" mask="url(#path-67-inside-9_944_2762)"/>
<path d="M286.783 107.856C286.783 107.851 286.782 107.847 286.782 107.843L286.781 107.841C286.653 106.997 286.58 106.145 286.564 105.291L286.564 105.289C286.539 104.428 286.565 103.567 286.643 102.709L286.643 102.709L286.643 102.707C286.706 101.904 286.822 101.107 286.991 100.32L288.108 100.701C287.837 101.399 287.612 102.115 287.434 102.843C287.227 103.656 287.069 104.481 286.961 105.313C286.85 106.157 286.791 107.006 286.783 107.856Z" fill="black" stroke="#272727" stroke-width="0.400006"/>
<mask id="path-70-inside-10_944_2762" fill="white">
<path d="M293.292 126.712C293.292 126.712 288.3 124.44 287.392 119.912Z"/>
</mask>
<path d="M293.292 126.712C293.292 126.712 288.3 124.44 287.392 119.912Z" fill="white"/>
<path d="M293.292 126.712C293.457 126.348 293.457 126.348 293.458 126.348C293.458 126.348 293.458 126.348 293.458 126.348C293.458 126.348 293.458 126.348 293.457 126.348C293.457 126.348 293.457 126.347 293.456 126.347C293.454 126.346 293.451 126.345 293.447 126.343C293.439 126.339 293.426 126.333 293.409 126.325C293.375 126.308 293.324 126.283 293.258 126.249C293.126 126.182 292.934 126.079 292.7 125.941C292.232 125.666 291.599 125.252 290.938 124.702C289.611 123.597 288.212 121.971 287.784 119.833L286.999 119.99C287.479 122.381 289.03 124.154 290.426 125.317C291.127 125.901 291.798 126.339 292.295 126.631C292.543 126.777 292.748 126.887 292.893 126.961C292.965 126.998 293.022 127.026 293.062 127.045C293.081 127.055 293.097 127.062 293.108 127.067C293.113 127.07 293.117 127.072 293.12 127.073C293.122 127.074 293.123 127.075 293.124 127.075C293.125 127.075 293.125 127.075 293.125 127.076C293.125 127.076 293.126 127.076 293.126 127.076C293.126 127.076 293.126 127.076 293.292 126.712Z" fill="#272727" mask="url(#path-70-inside-10_944_2762)"/>
<path d="M291.559 125.186C292.132 125.536 292.733 125.839 293.355 126.092L292.873 127.154C292.582 126.979 292.3 126.788 292.028 126.584L292.028 126.584L292.025 126.582C291.699 126.346 291.388 126.094 291.083 125.829C290.482 125.303 289.93 124.724 289.432 124.099C288.946 123.484 288.536 122.811 288.213 122.097C288.648 122.732 289.157 123.314 289.73 123.828L289.73 123.829C290.298 124.336 290.91 124.79 291.559 125.186Z" fill="black" stroke="#272727" stroke-width="0.400006"/>
<path d="M45.685 302.602C57.8372 305.658 70.7454 306.782 83.2376 306.426C94.9378 306.09 107.726 304.366 118.726 300.194C124.018 298.194 129.042 295.134 132.554 290.698" stroke="#272727" stroke-width="1.60002" stroke-miterlimit="10"/>
<path d="M146.906 290.818C146.906 290.818 145.998 297.618 175.502 304.89C205.007 312.162 228.611 313.062 240.411 298.538" stroke="#272727" stroke-width="1.60002" stroke-miterlimit="10"/>
<mask id="path-75-inside-11_944_2762" fill="white">
<path d="M104.241 279.454C104.241 279.454 98.3372 270.374 90.8691 267.854Z"/>
</mask>
<path d="M104.241 279.454C104.241 279.454 98.3372 270.374 90.8691 267.854Z" fill="#9B9B9B"/>
<path d="M104.241 279.454C104.577 279.236 104.577 279.236 104.576 279.236C104.576 279.235 104.576 279.235 104.576 279.235C104.576 279.235 104.576 279.234 104.575 279.234C104.574 279.232 104.573 279.23 104.572 279.228C104.568 279.223 104.564 279.216 104.558 279.207C104.546 279.189 104.528 279.163 104.505 279.128C104.459 279.059 104.391 278.959 104.301 278.83C104.123 278.573 103.86 278.205 103.522 277.755C102.845 276.856 101.865 275.631 100.648 274.326C98.2242 271.725 94.8259 268.767 90.997 267.475L90.7412 268.233C94.3803 269.461 97.6681 272.302 100.063 274.871C101.256 276.151 102.219 277.354 102.882 278.236C103.214 278.677 103.471 279.038 103.645 279.287C103.731 279.412 103.797 279.509 103.841 279.574C103.863 279.607 103.879 279.632 103.89 279.648C103.896 279.656 103.9 279.662 103.902 279.666C103.904 279.668 103.905 279.67 103.905 279.671C103.905 279.671 103.906 279.672 103.906 279.672C103.906 279.672 103.906 279.672 103.906 279.672C103.906 279.672 103.906 279.672 104.241 279.454Z" fill="#272727" mask="url(#path-75-inside-11_944_2762)"/>
<path d="M98.5266 272.49C99.5707 273.559 100.556 274.683 101.478 275.859C100.461 274.776 99.3846 273.75 98.2547 272.786L98.2533 272.785C97.1166 271.832 95.9123 270.962 94.6498 270.183L94.6499 270.183L94.6462 270.181C93.4498 269.478 92.1817 268.904 90.8637 268.47L91.2448 267.353C92.6005 267.931 93.8889 268.656 95.0868 269.515C96.3041 270.422 97.4538 271.416 98.5266 272.49Z" fill="black" stroke="#272727" stroke-width="0.400006"/>
<mask id="path-78-inside-12_944_2762" fill="white">
<path d="M191.391 271.734C191.391 271.734 183.675 277.638 180.951 285.806Z"/>
</mask>
<path d="M191.391 271.734C191.391 271.734 183.675 277.638 180.951 285.806Z" fill="#9B9B9B"/>
<path d="M191.391 271.734C191.148 271.416 191.148 271.416 191.148 271.416C191.148 271.416 191.147 271.416 191.147 271.416C191.147 271.417 191.147 271.417 191.146 271.418C191.145 271.418 191.143 271.42 191.141 271.421C191.137 271.424 191.131 271.429 191.123 271.435C191.108 271.447 191.085 271.465 191.056 271.488C190.997 271.535 190.911 271.604 190.801 271.694C190.58 271.874 190.264 272.14 189.877 272.485C189.103 273.173 188.043 274.177 186.896 275.438C184.608 277.955 181.958 281.521 180.571 285.679L181.33 285.932C182.668 281.923 185.237 278.452 187.488 275.976C188.612 274.74 189.651 273.756 190.409 273.083C190.787 272.746 191.095 272.487 191.308 272.313C191.414 272.225 191.496 272.159 191.552 272.116C191.58 272.094 191.601 272.077 191.614 272.067C191.621 272.061 191.626 272.057 191.63 272.055C191.631 272.053 191.633 272.052 191.633 272.052C191.634 272.052 191.634 272.051 191.634 272.051C191.634 272.051 191.634 272.051 191.634 272.051C191.634 272.051 191.634 272.051 191.391 271.734Z" fill="#272727" mask="url(#path-78-inside-12_944_2762)"/>
<path d="M188.409 274.996L188.41 274.996C189.418 274.047 190.48 273.157 191.591 272.331L190.864 271.397C189.797 272.35 188.787 273.365 187.841 274.438L187.84 274.439C186.846 275.554 185.916 276.725 185.054 277.945C184.201 279.16 183.436 280.435 182.765 281.76L188.409 274.996ZM188.409 274.996C187.341 276.003 186.33 277.068 185.382 278.188M188.409 274.996L185.382 278.188M185.382 278.188C184.426 279.314 183.554 280.507 182.773 281.76M185.382 278.188L182.765 281.76C182.754 281.781 182.743 281.803 182.733 281.824M182.773 281.76C182.759 281.781 182.746 281.803 182.733 281.824M182.773 281.76C182.773 281.76 182.773 281.76 182.773 281.76L182.942 281.866L182.773 281.76ZM182.733 281.824C182.404 282.479 182.105 283.148 181.836 283.829L181.653 283.747C181.985 283.091 182.345 282.449 182.733 281.824Z" fill="black" stroke="#272727" stroke-width="0.400006"/>
<mask id="path-81-inside-13_944_2762" fill="white">
<path d="M103.105 253.805C103.105 253.805 105.829 256.981 111.273 258.797Z"/>
</mask>
<path d="M103.105 253.805C103.105 253.805 105.829 256.981 111.273 258.797Z" fill="#9B9B9B"/>
<path d="M103.105 253.805C102.801 254.066 102.801 254.066 102.801 254.066C102.801 254.066 102.801 254.066 102.802 254.066C102.802 254.066 102.802 254.067 102.802 254.067C102.803 254.068 102.804 254.069 102.804 254.07C102.806 254.072 102.809 254.075 102.812 254.078C102.818 254.085 102.827 254.096 102.839 254.109C102.862 254.135 102.896 254.172 102.941 254.219C103.031 254.315 103.163 254.451 103.339 254.619C103.689 254.955 104.212 255.419 104.907 255.94C106.297 256.982 108.377 258.253 111.146 259.177L111.399 258.418C108.725 257.526 106.721 256.3 105.387 255.3C104.721 254.8 104.222 254.357 103.892 254.041C103.727 253.883 103.604 253.757 103.524 253.671C103.483 253.628 103.453 253.595 103.434 253.574C103.425 253.563 103.418 253.555 103.413 253.551C103.411 253.548 103.41 253.546 103.409 253.545C103.408 253.545 103.408 253.545 103.408 253.544C103.408 253.544 103.408 253.544 103.408 253.544C103.408 253.545 103.408 253.545 103.408 253.545C103.408 253.545 103.408 253.545 103.105 253.805Z" fill="#272727" mask="url(#path-81-inside-13_944_2762)"/>
<path d="M106.976 256.588C107.628 257.056 108.306 257.487 109.007 257.879C108.244 257.609 107.498 257.292 106.774 256.931L106.773 256.93C106.037 256.567 105.322 256.159 104.634 255.71L104.634 255.71L104.633 255.709C104.29 255.489 103.951 255.248 103.618 254.994L103.618 254.994L103.617 254.993C103.333 254.781 103.06 254.554 102.798 254.314L103.682 253.573C103.872 253.815 104.075 254.048 104.288 254.271C104.553 254.553 104.834 254.833 105.129 255.084C105.715 255.621 106.331 256.123 106.976 256.588L106.976 256.588Z" fill="black" stroke="#272727" stroke-width="0.400006"/>
<mask id="path-84-inside-14_944_2762" fill="white">
<path d="M135.557 259.025C135.557 259.025 130.565 261.75 123.305 260.841Z"/>
</mask>
<path d="M135.557 259.025C135.557 259.025 130.565 261.75 123.305 260.841Z" fill="#9B9B9B"/>
<path d="M135.557 259.025C135.366 258.674 135.366 258.674 135.366 258.674C135.366 258.674 135.366 258.674 135.366 258.674C135.366 258.674 135.366 258.674 135.366 258.674C135.366 258.674 135.365 258.675 135.364 258.675C135.362 258.676 135.359 258.678 135.355 258.68C135.347 258.684 135.334 258.691 135.316 258.7C135.281 258.718 135.227 258.746 135.155 258.78C135.01 258.85 134.794 258.95 134.511 259.067C133.944 259.303 133.11 259.609 132.052 259.887C129.935 260.444 126.924 260.891 123.355 260.445L123.255 261.238C126.946 261.7 130.061 261.239 132.256 260.661C133.353 260.372 134.221 260.054 134.817 259.806C135.115 259.683 135.345 259.577 135.502 259.501C135.581 259.463 135.641 259.433 135.683 259.411C135.703 259.401 135.719 259.393 135.73 259.387C135.736 259.384 135.74 259.381 135.743 259.38C135.745 259.379 135.746 259.378 135.747 259.378C135.747 259.377 135.748 259.377 135.748 259.377C135.748 259.377 135.749 259.377 135.749 259.377C135.749 259.377 135.749 259.377 135.557 259.025Z" fill="#272727" mask="url(#path-84-inside-14_944_2762)"/>
<path d="M132.749 260.509L132.749 260.509L132.743 260.51C131.698 260.739 130.638 260.896 129.571 260.978L129.57 260.978C128.522 261.061 127.468 261.07 126.418 261.006L126.418 261.006C126.415 261.006 126.413 261.006 126.41 261.005C126.412 261.005 126.414 261.005 126.416 261.005C127.456 260.94 128.491 260.805 129.513 260.602L129.515 260.601C130.529 260.393 131.527 260.111 132.501 259.758C132.988 259.588 133.46 259.394 133.923 259.188L133.924 259.188C134.315 259.012 134.698 258.819 135.071 258.608L135.647 259.633C135.205 259.816 134.755 259.976 134.297 260.114C133.779 260.269 133.263 260.411 132.749 260.509Z" fill="black" stroke="#272727" stroke-width="0.400006"/>
<mask id="path-87-inside-15_944_2762" fill="white">
<path d="M154.45 261.026C154.45 261.026 156.666 263.338 162.114 265.154Z"/>
</mask>
<path d="M154.45 261.026C154.45 261.026 156.666 263.338 162.114 265.154Z" fill="#9B9B9B"/>
<path d="M154.45 261.026C154.161 261.302 154.161 261.302 154.161 261.303C154.162 261.303 154.162 261.303 154.162 261.303C154.162 261.303 154.162 261.303 154.163 261.304C154.163 261.304 154.164 261.305 154.165 261.306C154.166 261.308 154.169 261.31 154.171 261.313C154.177 261.318 154.185 261.326 154.195 261.336C154.215 261.356 154.244 261.384 154.282 261.42C154.359 261.492 154.472 261.594 154.625 261.722C154.929 261.977 155.389 262.332 156.021 262.744C157.283 263.567 159.23 264.614 161.988 265.533L162.241 264.774C159.55 263.877 157.665 262.86 156.457 262.073C155.854 261.68 155.419 261.344 155.138 261.108C154.998 260.991 154.895 260.898 154.829 260.837C154.796 260.806 154.773 260.782 154.758 260.768C154.75 260.76 154.745 260.755 154.742 260.752C154.74 260.75 154.739 260.749 154.739 260.749C154.738 260.748 154.738 260.748 154.738 260.748C154.738 260.748 154.738 260.748 154.738 260.748C154.738 260.748 154.739 260.748 154.739 260.749C154.739 260.749 154.739 260.749 154.45 261.026Z" fill="#272727" mask="url(#path-87-inside-15_944_2762)"/>
<path d="M160.072 264.391C160.064 264.387 160.056 264.383 160.048 264.378C160.048 264.378 160.047 264.378 160.047 264.378L160.142 264.202C159.498 263.862 158.862 263.506 158.258 263.114C157.654 262.722 157.066 262.31 156.51 261.866C156.234 261.646 155.962 261.418 155.71 261.182L160.072 264.391ZM160.072 264.391C160.063 264.388 160.055 264.386 160.047 264.383C159.346 264.16 158.652 263.918 157.97 263.637L157.97 263.637L157.968 263.636C157.277 263.359 156.601 263.045 155.945 262.694C155.615 262.515 155.288 262.329 154.97 262.125L154.97 262.125L154.968 262.124C154.694 261.953 154.43 261.768 154.176 261.568L155.012 260.764C155.189 260.963 155.377 261.151 155.575 261.329M160.072 264.391L155.575 261.329M155.575 261.329C155.832 261.569 156.107 261.801 156.385 262.022L155.575 261.329Z" fill="black" stroke="#272727" stroke-width="0.400006"/>
<mask id="path-90-inside-16_944_2762" fill="white">
<path d="M184.178 262.149C181.793 263.781 179.048 264.812 176.178 265.153Z"/>
</mask>
<path d="M184.178 262.149C181.793 263.781 179.048 264.812 176.178 265.153Z" fill="#9B9B9B"/>
<path d="M183.952 261.819C181.62 263.415 178.936 264.422 176.131 264.756L176.225 265.551C179.159 265.202 181.965 264.148 184.404 262.48L183.952 261.819Z" fill="#272727" mask="url(#path-90-inside-16_944_2762)"/>
<path d="M182.531 263.604L182.531 263.604C183.157 263.352 183.765 263.06 184.354 262.732L183.668 261.814C183.188 262.204 182.685 262.565 182.161 262.894C181.564 263.279 180.945 263.629 180.307 263.941C179.665 264.262 179.002 264.54 178.323 264.775C178.323 264.775 178.323 264.775 178.323 264.775L182.531 263.604ZM182.531 263.604L182.53 263.605M182.531 263.604L182.53 263.605M182.53 263.605C181.851 263.884 181.157 264.122 180.449 264.317L180.449 264.317M182.53 263.605L180.449 264.317M180.449 264.317L180.447 264.317M180.449 264.317L180.447 264.317M180.447 264.317C179.747 264.517 179.035 264.67 178.317 264.777L180.447 264.317Z" fill="black" stroke="#272727" stroke-width="0.400006"/>
<path d="M298.732 26.0143L304.432 24.3102" stroke="#272727" stroke-width="1.20002" stroke-linecap="round" stroke-linejoin="round"/>
<path d="M303.931 42.8146L309.631 41.1105" stroke="#272727" stroke-width="1.20002" stroke-linecap="round" stroke-linejoin="round"/>
<path d="M305.933 50.8147L311.633 49.1107" stroke="#272727" stroke-width="1.20002" stroke-linecap="round" stroke-linejoin="round"/>
<path d="M307.932 59.2146L313.633 57.5106" stroke="#272727" stroke-width="1.20002" stroke-linecap="round" stroke-linejoin="round"/>
<path d="M310.332 66.8147L316.032 65.1107" stroke="#272727" stroke-width="1.20002" stroke-linejoin="round"/>
<path d="M325.532 120.016L331.232 118.312" stroke="#272727" stroke-width="1.20002" stroke-linecap="round" stroke-linejoin="round"/>
<path d="M327.133 128.816L332.833 127.112" stroke="#272727" stroke-width="1.20002" stroke-linecap="round" stroke-linejoin="round"/>
<path d="M301.132 34.0141L306.832 32.3101" stroke="#272727" stroke-width="1.20002" stroke-linecap="round" stroke-linejoin="round"/>
<path d="M287.533 24.4142L300.533 69.8148" stroke="#272727" stroke-width="1.20002" stroke-linecap="round" stroke-linejoin="round"/>
<path d="M289.932 23.614L302.932 69.0146" stroke="white" stroke-width="0.800012" stroke-miterlimit="10" stroke-linecap="round"/>
<path d="M314.133 117.016L321.333 141.816" stroke="#272727" stroke-width="1.20002" stroke-linecap="round" stroke-linejoin="round"/>
<path d="M316.732 118.015L323.532 140.816" stroke="white" stroke-width="0.800012" stroke-miterlimit="10" stroke-linecap="round"/>
<path d="M222.731 268.818C222.731 268.818 235.531 271.618 235.531 285.618" stroke="white" stroke-width="3.20005" stroke-miterlimit="10" stroke-linecap="round"/>
<path d="M125.13 268.818V285.618" stroke="white" stroke-width="3.20005" stroke-miterlimit="10" stroke-linecap="round"/>
</svg>
