<svg width="313" height="334" viewBox="0 0 313 334" fill="none" xmlns="http://www.w3.org/2000/svg">
<ellipse cx="135.969" cy="298.281" rx="134.063" ry="29.1731" transform="rotate(-1.02117 135.969 298.281)" fill="#FCA61D" fill-opacity="0.61"/>
<path d="M53.3426 134.807C60.2899 181.26 98.1438 214.1 151.199 206.166C203.029 198.413 230.84 155.753 223.893 109.304C216.946 62.8554 189.331 26.2336 124.037 35.9977C67.7456 44.4146 46.3841 88.3548 53.3426 134.807Z" fill="#F5816A" stroke="#272727" stroke-width="1.48447" stroke-miterlimit="10"/>
<path d="M70.6627 134.685C77.7139 181.779 115.635 215.139 168.689 207.205C220.523 199.452 248.253 156.273 241.209 109.174C234.166 62.0759 206.473 24.9308 141.179 34.6763C84.8839 43.0969 63.6189 87.5864 70.6627 134.685Z" fill="#FFE7E2" stroke="#272727" stroke-width="1.48447" stroke-miterlimit="10"/>
<path d="M81.1575 134.084C87.5222 176.625 121.787 206.76 169.71 199.593C216.533 192.59 241.584 153.575 235.219 111.041C228.854 68.5076 203.841 34.9216 144.856 43.743C94.0055 51.3509 74.7966 91.5391 81.1575 134.084Z" stroke="#272727" stroke-width="1.48447" stroke-miterlimit="10"/>
<path d="M165.429 129.022C174.748 126.714 179.835 114.881 176.791 102.592C173.748 90.3023 163.726 82.2109 154.407 84.5188C145.088 86.8267 140.001 98.66 143.045 110.949C146.088 123.238 156.11 131.33 165.429 129.022Z" fill="white" stroke="#272727" stroke-width="1.48447" stroke-miterlimit="10"/>
<path d="M166.523 104.964L166.12 105.235L166.601 105.302L173.068 106.202C173.905 109.55 173.478 112.84 172.204 115.377C170.915 117.945 168.767 119.727 166.195 120.042L166.218 120.226L166.195 120.042C160.503 120.741 154.655 116.404 152.927 108.969C152.063 105.253 152.428 101.627 153.707 98.7711C154.985 95.9157 157.171 93.8416 159.951 93.197L159.915 93.0409L159.951 93.197C162.218 92.6712 164.576 93.4091 166.701 94.9546C168.787 96.4714 170.632 98.7557 171.918 101.336L166.523 104.964Z" fill="black" stroke="#272727" stroke-width="0.371117"/>
<path d="M201.363 118.596C209.555 117.38 214.897 107.637 213.294 96.8332C211.691 86.0296 203.75 78.257 195.558 79.4725C187.365 80.6881 182.024 90.4316 183.627 101.235C185.23 112.039 193.171 119.812 201.363 118.596Z" fill="white" stroke="#272727" stroke-width="1.28061" stroke-miterlimit="10"/>
<path d="M204.04 96.6083L204.378 96.3619L208.901 93.0599C207.724 90.8767 206.063 88.9669 204.217 87.7258C202.335 86.4613 200.276 85.8997 198.338 86.4232L204.04 96.6083ZM204.04 96.6083L204.456 96.6505M204.04 96.6083L204.456 96.6505M204.456 96.6505L210.06 97.2191M204.456 96.6505L210.06 97.2191M210.06 97.2191C210.889 100.079 210.625 102.929 209.606 105.157C208.575 107.412 206.779 109.017 204.572 109.37L204.597 109.526L204.572 109.37C199.686 110.151 194.51 106.609 192.784 100.243C191.922 97.061 192.121 93.9227 193.132 91.422C194.144 88.9214 195.962 87.0669 198.338 86.4232L210.06 97.2191Z" fill="black" stroke="#272727" stroke-width="0.320153"/>
<path d="M182.432 126.157C182.948 127.345 183.742 128.393 184.747 129.211C185.385 129.702 186.084 130.109 186.826 130.421C187.897 130.845 189.047 131.034 190.198 130.973C191.349 130.912 192.473 130.603 193.493 130.068C194.514 129.532 195.406 128.782 196.11 127.87C196.814 126.957 197.313 125.904 197.572 124.781C197.831 123.658 197.844 122.492 197.611 121.364C197.378 120.235 196.903 119.17 196.22 118.242C195.538 117.314 194.662 116.544 193.655 115.985C192.647 115.426 191.53 115.092 190.381 115.004C189.214 114.894 188.038 115.062 186.949 115.493C185.859 115.925 184.887 116.608 184.113 117.487C183.344 118.279 182.716 119.197 182.257 120.2" fill="#FFDE72"/>
<path d="M182.432 126.157C182.948 127.345 183.742 128.393 184.747 129.211C185.385 129.702 186.084 130.109 186.826 130.421C187.897 130.845 189.047 131.034 190.198 130.973C191.349 130.912 192.473 130.603 193.493 130.068C194.514 129.532 195.406 128.782 196.11 127.87C196.814 126.957 197.313 125.904 197.572 124.781C197.831 123.658 197.844 122.492 197.611 121.364C197.378 120.235 196.903 119.17 196.22 118.242C195.538 117.314 194.662 116.544 193.655 115.985C192.647 115.426 191.53 115.092 190.381 115.004C189.214 114.894 188.038 115.062 186.949 115.493C185.859 115.925 184.887 116.608 184.113 117.487C183.344 118.279 182.716 119.197 182.257 120.2" stroke="#272727" stroke-width="1.48447" stroke-miterlimit="10" stroke-linecap="round"/>
<path d="M194.367 124.012C194.528 122.769 194.258 121.509 193.602 120.442C192.947 119.375 191.944 118.565 190.763 118.148" stroke="white" stroke-width="1.85558" stroke-miterlimit="10" stroke-linecap="round"/>
<path d="M179.771 161.797L179.77 161.797C177.978 160.982 176.357 159.833 174.995 158.412L174.989 158.406L174.983 158.4C174.619 158.085 174.353 157.672 174.214 157.212C174.108 156.662 174.388 156.1 174.717 155.543L174.557 155.449L174.716 155.543C174.753 155.482 174.789 155.421 174.826 155.359C176.306 152.857 178.17 149.708 180.315 147.874C183.605 145.064 188.045 143.851 192.399 143.777C196.754 143.703 201.059 144.68 205.292 145.793C205.747 145.923 206.212 146.07 206.607 146.288C206.998 146.504 207.307 146.781 207.472 147.165C207.589 147.514 207.632 147.884 207.598 148.25L207.598 148.25L207.597 148.26C207.36 154.238 202.923 159.582 197.376 161.902L197.447 162.073L197.376 161.902C192.041 164.133 185.167 164.278 179.771 161.797Z" fill="black" stroke="#272727" stroke-width="0.371117"/>
<path d="M178.131 131.301C186.886 129.905 194.271 137.739 192.489 146.145C192.1 148.143 191.3 150.039 190.14 151.712C181.976 163.172 156.257 162.174 147.017 149.244C142.585 143.046 143.083 135.698 143.65 132.013C144.129 133.695 145.045 135.22 146.304 136.433C151.344 141.206 159.701 139.061 165.368 136.949C169.428 135.438 172.828 132.533 177.136 131.501C177.47 131.419 177.801 131.353 178.131 131.301Z" fill="#474747" stroke="#272727" stroke-width="1.48447" stroke-miterlimit="10"/>
<path d="M204.851 129.604C198.123 128.539 191.628 132.64 192.43 140.103C193.128 146.613 199.307 149.797 205.219 150.424C217.046 151.678 227.519 141.751 226.714 129.979C221.845 135.769 213.64 132.796 207.973 130.48C206.969 130.07 205.922 129.776 204.851 129.604Z" fill="#474747" stroke="#272727" stroke-width="1.48447" stroke-miterlimit="10"/>
<path d="M145.017 82.7592C145.017 82.7592 143.613 75.9734 149.499 74.1289C155.385 72.2844 158.468 77.1971 158.468 77.1971" stroke="#272727" stroke-width="1.48447" stroke-miterlimit="10"/>
<path d="M187.762 75.087C187.762 75.087 186.237 68.0141 191.46 66.7369C196.683 65.4597 199.216 70.732 199.216 70.732" stroke="#272727" stroke-width="1.20465" stroke-miterlimit="10"/>
<path d="M165.735 68.5883C168.673 66.7559 172.086 65.8308 175.546 65.9287C177.138 65.9817 178.25 64.3956 177.453 63.1871L167.534 48.1338C166.561 46.6552 163.98 47.3403 163.867 49.1025L162.72 67.132C162.637 68.5744 164.358 69.4148 165.735 68.5883Z" fill="#F5816A" stroke="#272727" stroke-width="1.48447" stroke-miterlimit="10"/>
<path d="M197.18 166.501C194.016 167.904 190.509 168.345 187.096 167.77C185.527 167.495 184.205 168.909 184.825 170.219L192.533 186.5C193.275 188.096 195.94 187.777 196.296 186.047L199.941 168.353C200.23 166.942 198.631 165.87 197.18 166.501Z" fill="#8C7BC7" stroke="#272727" stroke-width="1.48447" stroke-miterlimit="10"/>
<path d="M144.359 33.678C144.359 33.678 152.023 31.8744 156.944 32.1194C156.944 32.1194 157.745 27.9628 155.983 26.8495C154.22 25.7361 145.395 27.64 143.899 29.0762C142.403 30.5124 144.359 33.678 144.359 33.678Z" fill="#F7C326" stroke="#272727" stroke-width="1.48447" stroke-miterlimit="10" stroke-linecap="round"/>
<path d="M145.758 4.28576C140.715 5.20613 137.56 11.0401 138.707 17.3082C139.854 23.5764 144.867 27.9147 149.911 26.9906C154.954 26.0666 158.105 20.24 156.962 13.9682C155.819 7.69631 150.798 3.36168 145.758 4.28576ZM149.347 23.9215C145.721 24.5858 142.106 21.461 141.282 16.9483C140.458 12.4355 142.73 8.23443 146.359 7.57013C149.989 6.90583 153.6 10.0306 154.424 14.5471C155.247 19.0636 152.976 23.2572 149.347 23.9215Z" fill="#F7C326" stroke="#272727" stroke-width="1.48447" stroke-miterlimit="10" stroke-linecap="round"/>
<path d="M194.442 161.658L194.442 161.658L194.44 161.659C192.283 162.072 189.564 162.223 187.617 161.122C187.78 160.545 188.199 160.024 188.792 159.555C189.428 159.052 190.247 158.623 191.11 158.261C192.587 157.643 194.167 157.231 195.136 156.979C195.3 156.936 195.447 156.898 195.573 156.864L195.573 156.864C197.667 156.3 199.829 155.911 201.635 156.946C200.488 158.513 199.127 159.738 197.651 160.539C196.607 161.089 195.53 161.464 194.442 161.658Z" fill="#CC2936" stroke="#272727" stroke-width="0.371117"/>
<path d="M89.6677 103.957C89.6677 103.957 83.7299 138.47 97.4612 156.284" stroke="white" stroke-width="2.96893" stroke-miterlimit="10" stroke-linecap="round"/>
<path d="M103.77 164.819C103.77 164.819 108.595 172.984 114.904 176.324" stroke="white" stroke-width="2.96893" stroke-miterlimit="10" stroke-linecap="round"/>
<path d="M128.301 264.004C127.466 265.148 126.144 265.869 124.799 266.342C122.976 266.985 123.391 268.46 123.293 270.18C123.182 272.157 123.089 274.134 123.015 276.112C122.854 279.971 122.75 283.835 122.703 287.702C122.691 287.859 122.713 288.018 122.767 288.166C122.903 288.379 123.096 288.549 123.324 288.656C124.649 289.491 125.181 291.256 124.858 292.787C124.128 296.255 120.903 297.582 118.005 298.779C115.108 299.976 112.16 300.689 109.098 301.254C95.3988 303.792 81.3401 304.872 67.5069 303.224C65.617 302.999 63.5602 302.637 62.3104 301.204C61.0607 299.77 61.4253 296.948 63.293 296.594C62.6639 296.714 61.1915 292.3 61.0384 291.757C60.5432 289.978 60.3198 288.134 60.376 286.288C60.4812 282.566 61.6046 278.944 63.6242 275.817C65.5725 272.797 68.6954 269.827 72.1913 268.817C79.2081 266.787 86.8651 268.894 93.2418 272.009C95.4378 273.081 98.544 273.498 100.798 272.118C101.256 271.784 101.609 271.326 101.814 270.798C103.095 268.129 104.222 265.04 102.488 262.523C101.978 261.798 101.657 260.957 101.554 260.076C101.451 259.195 101.571 258.303 101.901 257.48C103.128 254.399 106.549 253.645 109.524 253.742C112.681 253.847 115.823 254.23 118.913 254.889C121.771 255.501 127.212 256.328 128.676 259.156C129.047 259.892 129.218 260.714 129.172 261.537C129.125 262.361 128.863 263.158 128.412 263.848C128.376 263.901 128.337 263.951 128.301 264.004Z" fill="#F7C326" stroke="#272727" stroke-width="1.11334" stroke-miterlimit="10"/>
<path d="M141.479 258.616C140.577 259.451 139.971 260.623 139.851 262.304C139.726 264.041 141.156 264.837 141.337 266.184C141.56 267.854 140.104 270.262 139.567 271.898C138.888 273.969 138.28 276.061 137.744 278.175C137.023 281.014 136.753 283.95 135.999 286.767C134.24 286.736 132.843 288.509 132.745 290.265C132.467 295.237 137.499 296.923 141.426 297.781C159.081 301.61 178.843 310.088 196.609 301.207C198.591 300.397 200.57 299.258 201.661 297.427C202.752 295.596 202.629 292.887 200.904 291.621C200.695 291.468 200.453 291.315 200.386 291.064C200.358 290.903 200.37 290.738 200.422 290.583C202.426 282.322 201.123 271.019 191.599 268.085C187.563 266.844 183.213 267.027 179.049 267.743C175.4 268.372 171.706 269.449 168.617 271.553C167.392 272.388 166.593 273.426 165.132 273.702C164.575 273.808 160.147 273.245 160.122 272.694C160.064 271.361 160.25 270.033 160.353 268.7C160.356 268.316 160.439 267.937 160.595 267.587C160.809 267.249 161.086 266.955 161.411 266.721C162.833 265.522 164.088 263.751 163.707 261.928C163.326 260.105 161.48 258.997 159.738 258.31C156.272 256.95 152.554 256.352 148.836 256.556C146.183 256.69 143.255 256.98 141.479 258.616Z" fill="#F7C326" stroke="#272727" stroke-width="1.11334" stroke-miterlimit="10"/>
<path d="M241.663 110.878L261.787 101.458C261.787 101.458 268.856 104.228 267.663 114.284L241.776 132.01C241.776 132.01 242.599 120.601 241.663 110.878Z" fill="#19888F" stroke="#272727" stroke-width="1.48447" stroke-miterlimit="10"/>
<path d="M129.487 207.809L122.992 256.053C122.992 256.053 120.204 262.307 115.287 261.62C110.37 260.933 109.076 256.053 109.076 256.053L114.642 205.49C114.642 205.49 122.992 207.809 129.487 207.809Z" fill="#19888F" stroke="#272727" stroke-width="1.48447" stroke-miterlimit="10"/>
<path d="M166.147 208.275L159.064 259.455C159.064 259.455 156.539 265.494 151.927 264.9C149.779 264.623 148.354 263.464 147.445 262.303C146.211 260.728 146.152 258.619 146.375 256.631L151.767 208.73C151.767 208.73 160.068 208.361 166.147 208.275Z" fill="#19888F" stroke="#272727" stroke-width="1.48447" stroke-miterlimit="10"/>
<path d="M265.715 95.087C265.56 95.513 265.297 95.8913 264.952 96.1843C264.606 96.4772 264.19 96.6747 263.744 96.757C262.694 96.9685 261.61 96.731 260.541 96.757C254.744 97.0019 253.472 104.402 253.861 108.896C254.388 114.868 255.346 122.798 262.267 124.372C264.475 124.873 266.995 124.338 268.517 122.661C269.058 122.063 269.511 121.306 270.276 121.043C270.69 120.928 271.122 120.894 271.549 120.943C275.364 121.136 279.298 120.898 282.979 119.748C286.783 118.556 290.104 116.437 293.741 114.853C297.497 113.131 300.696 110.399 303.312 107.23C304.931 105.27 307.603 101.953 307.606 99.3251C307.606 97.1615 305.717 94.0367 303.231 94.5674C304.231 94.3481 305.176 93.9252 306.006 93.3251C306.836 92.7249 307.534 91.9603 308.055 91.0789C309.321 88.9042 309.655 84.666 308.115 82.5432C307.286 81.5005 306.105 80.7959 304.793 80.5615C303.493 80.3325 302.169 80.2627 300.852 80.3537C304.229 77.9525 305.791 70.482 302.039 67.7357C299.939 66.2067 297.052 66.6223 294.495 67.0751C291.296 67.6615 288.453 69.8288 285.057 69.5653C283.135 69.4131 281.372 68.4 279.461 68.1217C275.898 67.6095 272.944 68.9455 270.877 71.8662C267.166 77.1138 266.668 83.9349 266.223 90.1363C266.123 91.5428 266.331 93.621 265.715 95.087Z" fill="white" stroke="#272727" stroke-width="1.48447" stroke-miterlimit="10" stroke-linecap="round"/>
<path d="M261.098 23.9511L278.775 19.2045L311.733 134.251L294.595 139.109L261.098 23.9511Z" fill="#A6E9EC" stroke="#272727" stroke-width="1.48447" stroke-linecap="round" stroke-linejoin="round"/>
<path d="M302.113 94.9122C298.212 96.1369 289.053 98.2746 285.684 100.583C282.997 102.438 283.342 105.333 284.644 108.061C285.062 109.019 285.707 109.861 286.522 110.514C287.854 111.509 289.617 111.698 291.28 111.668C294.798 111.601 301.126 107.538 304.217 105.86" fill="white"/>
<path d="M302.113 94.9122C298.212 96.1369 289.053 98.2746 285.684 100.583C282.997 102.438 283.342 105.333 284.644 108.061C285.062 109.019 285.707 109.861 286.522 110.514C287.854 111.509 289.617 111.698 291.28 111.668C294.798 111.601 301.126 107.538 304.217 105.86" stroke="#272727" stroke-width="1.48447" stroke-miterlimit="10" stroke-linecap="square"/>
<path d="M301.272 80.1532C299.112 80.8955 289.841 84.5398 287.804 85.5678C285.577 86.6812 282.081 88.6852 281.729 91.4834C281.612 92.3379 281.693 93.2078 281.965 94.0262C282.237 94.8446 282.693 95.5897 283.298 96.204C284.861 97.7145 287.236 98.0596 289.392 97.8184C291.548 97.5771 294.825 96.1261 296.97 95.7921L304.059 94.3559" fill="white"/>
<path d="M301.272 80.1532C299.112 80.8955 289.841 84.5398 287.804 85.5678C285.577 86.6812 282.081 88.6852 281.729 91.4834C281.612 92.3379 281.693 93.2078 281.965 94.0262C282.237 94.8446 282.693 95.5897 283.298 96.204C284.861 97.7145 287.236 98.0596 289.392 97.8184C291.548 97.5771 294.825 96.1261 296.97 95.7921L304.059 94.3559" stroke="#272727" stroke-width="1.48447" stroke-miterlimit="10"/>
<path d="M301.691 79.7338C299.49 80.8471 293.667 82.9402 293.667 82.9402C291.07 83.586 289.507 83.2186 289.507 83.2186C288.408 83.2071 287.32 82.9959 286.297 82.5951C284.018 81.582 281.38 77.6592 282.237 75.0763C282.439 74.5448 282.73 74.0515 283.098 73.6178C285.055 71.1917 287.689 69.4025 290.665 68.4778L294.05 67.3274" fill="white"/>
<path d="M301.691 79.7338C299.49 80.8471 293.667 82.9402 293.667 82.9402C291.07 83.586 289.507 83.2186 289.507 83.2186C288.408 83.2071 287.32 82.9959 286.297 82.5951C284.018 81.582 281.38 77.6592 282.237 75.0763C282.439 74.5448 282.73 74.0515 283.098 73.6178C285.055 71.1917 287.689 69.4025 290.665 68.4778L294.05 67.3274" stroke="#272727" stroke-width="1.48447" stroke-miterlimit="10" stroke-linecap="round"/>
<path d="M273.054 69.6244C278.109 66.2584 282.525 69.7877 284.166 72.1369C285.706 74.3413 286.734 76.8686 288.311 79.047C289.335 80.4647 290.612 81.7636 291.161 83.4262C292.393 87.1374 288.641 90.4774 285.223 90.5108C282.566 90.5108 278.543 88.3769 277.252 86.0574" fill="white"/>
<path d="M273.054 69.6244C278.109 66.2584 282.525 69.7877 284.166 72.1369C285.706 74.3413 286.734 76.8686 288.311 79.047C289.335 80.4647 290.612 81.7636 291.161 83.4262C292.393 87.1374 288.641 90.4774 285.223 90.5108C282.566 90.5108 278.543 88.3769 277.252 86.0574" stroke="#272727" stroke-width="1.48447" stroke-miterlimit="10" stroke-linecap="square"/>
<path d="M279.612 99.8697C279.545 100.71 279.331 101.533 278.977 102.302L278.976 102.303C278.059 104.336 276.446 105.975 274.428 106.925L274.427 106.925C273.66 107.291 272.837 107.516 271.995 107.594C272.689 107.169 273.365 106.717 274.022 106.237L274.022 106.237L274.024 106.236C274.839 105.63 275.607 104.962 276.32 104.239C277.035 103.517 277.691 102.738 278.283 101.912L278.284 101.912C278.755 101.25 279.198 100.569 279.612 99.8697Z" fill="black" stroke="#272727" stroke-width="0.371117"/>
<mask id="path-40-inside-1_1184_2992" fill="white">
<path d="M265.049 96.3075C264.146 99.3346 263.985 102.535 264.582 105.637Z"/>
</mask>
<path d="M265.049 96.3075C264.146 99.3346 263.985 102.535 264.582 105.637Z" fill="white"/>
<path d="M264.694 96.2013C263.773 99.2857 263.61 102.547 264.218 105.707L264.946 105.567C264.361 102.524 264.518 99.3836 265.405 96.4137L264.694 96.2013Z" fill="#272727" mask="url(#path-40-inside-1_1184_2992)"/>
<path d="M264.278 103.3C264.277 103.296 264.276 103.292 264.276 103.288L264.276 103.288L264.276 103.286C264.157 102.503 264.089 101.713 264.074 100.921L264.074 100.919C264.05 100.12 264.075 99.3209 264.147 98.5251L264.147 98.5252L264.147 98.5229C264.206 97.7785 264.314 97.0389 264.47 96.3089L265.507 96.6618C265.255 97.3099 265.046 97.9737 264.881 98.6491C264.689 99.4036 264.543 100.169 264.443 100.941C264.339 101.724 264.284 102.512 264.278 103.3Z" fill="black" stroke="#272727" stroke-width="0.371117"/>
<mask id="path-43-inside-2_1184_2992" fill="white">
<path d="M270.316 120.794C270.316 120.794 265.684 118.686 264.842 114.485Z"/>
</mask>
<path d="M270.316 120.794C270.316 120.794 265.684 118.686 264.842 114.485Z" fill="white"/>
<path d="M270.316 120.794C270.469 120.456 270.47 120.457 270.47 120.457C270.47 120.457 270.47 120.457 270.47 120.457C270.47 120.457 270.47 120.457 270.47 120.457C270.469 120.456 270.469 120.456 270.468 120.456C270.466 120.455 270.464 120.454 270.46 120.452C270.452 120.448 270.441 120.443 270.425 120.435C270.393 120.42 270.346 120.397 270.285 120.365C270.162 120.302 269.984 120.207 269.767 120.079C269.333 119.824 268.745 119.44 268.132 118.93C266.901 117.905 265.603 116.396 265.206 114.412L264.478 114.558C264.923 116.776 266.362 118.422 267.657 119.5C268.308 120.042 268.93 120.448 269.391 120.719C269.621 120.855 269.812 120.957 269.946 121.026C270.013 121.06 270.066 121.086 270.102 121.104C270.121 121.113 270.135 121.119 270.145 121.124C270.15 121.127 270.154 121.128 270.157 121.13C270.158 121.13 270.159 121.131 270.16 121.131C270.161 121.131 270.161 121.132 270.161 121.132C270.162 121.132 270.162 121.132 270.162 121.132C270.162 121.132 270.162 121.132 270.316 120.794Z" fill="#272727" mask="url(#path-43-inside-2_1184_2992)"/>
<path d="M268.709 119.379C269.24 119.704 269.797 119.985 270.374 120.219L269.928 121.205C269.657 121.042 269.396 120.865 269.143 120.675L269.143 120.675L269.14 120.673C268.838 120.455 268.549 120.221 268.267 119.975C267.709 119.487 267.197 118.95 266.735 118.37C266.284 117.8 265.904 117.176 265.604 116.512C266.007 117.102 266.48 117.642 267.011 118.119L267.012 118.119C267.538 118.59 268.106 119.011 268.709 119.379Z" fill="black" stroke="#272727" stroke-width="0.371117"/>
<path d="M62.639 296.447C71.0948 298.573 80.0767 299.356 88.7691 299.108C96.9104 298.874 105.809 297.674 113.463 294.771C117.145 293.38 120.641 291.25 123.085 288.164" stroke="#272727" stroke-width="1.11334" stroke-miterlimit="10"/>
<path d="M135.901 286.271C135.901 286.271 135.27 291.003 155.8 296.063C176.33 301.123 192.754 301.75 200.965 291.643" stroke="#272727" stroke-width="1.11334" stroke-miterlimit="10"/>
<path d="M101.374 277.949C101.73 278.326 102.074 278.713 102.408 279.11C102.109 278.683 101.797 278.264 101.474 277.855L101.374 277.949ZM101.374 277.949L101.474 277.855M101.374 277.949L101.474 277.855M101.474 277.855L101.475 277.853C101.475 277.853 101.476 277.853 101.476 277.854C101.834 278.234 102.182 278.625 102.518 279.025C102.219 278.597 101.907 278.178 101.583 277.768L101.474 277.855ZM99.2183 275.7L99.2183 275.7L99.2174 275.699C98.4264 275.036 97.5884 274.431 96.71 273.889L96.71 273.889L96.7075 273.888C95.875 273.398 94.9926 272.999 94.0755 272.697L94.3407 271.92C95.284 272.322 96.1805 272.826 97.014 273.424C97.8611 274.055 98.6611 274.747 99.4075 275.494C100.134 276.238 100.82 277.02 101.461 277.838C100.753 277.085 100.005 276.371 99.2183 275.7Z" fill="black" stroke="#272727" stroke-width="0.278334"/>
<path d="M166.489 272.758L166.994 273.408C166.222 273.983 165.482 274.602 164.781 275.262L164.781 275.262C164.037 275.963 163.334 276.704 162.674 277.483C162.674 277.483 162.674 277.483 162.674 277.483L162.78 277.573C162.12 278.351 161.517 279.176 160.977 280.042M166.489 272.758L160.859 279.969L160.977 280.042M166.489 272.758C165.746 273.421 165.044 274.127 164.385 274.874L164.384 274.874C163.693 275.65 163.046 276.465 162.446 277.314M166.489 272.758L162.446 277.314M160.977 280.042C160.699 280.486 160.442 280.942 160.207 281.408M160.977 280.042L160.859 279.969L160.207 281.408M160.207 281.408C160.394 280.934 160.602 280.469 160.831 280.013M160.207 281.408L160.831 280.013M160.831 280.013C160.561 280.448 160.31 280.895 160.08 281.351L160.853 279.969C160.846 279.984 160.838 279.998 160.831 280.013ZM162.446 277.314C161.852 278.16 161.32 279.047 160.853 279.969L162.446 277.314Z" fill="black" stroke="#272727" stroke-width="0.278334"/>
<path d="M103.581 263.935C104.065 264.25 104.567 264.537 105.084 264.792C105.594 265.047 106.12 265.27 106.657 265.46L103.581 263.935ZM103.581 263.935C103.339 263.779 103.1 263.609 102.866 263.431L103.581 263.935ZM105.287 264.429C105.741 264.755 106.212 265.055 106.7 265.327C106.169 265.14 105.65 264.919 105.147 264.667L105.146 264.667C104.633 264.414 104.136 264.131 103.658 263.818L103.658 263.818L103.657 263.818C103.418 263.664 103.182 263.496 102.95 263.32L102.95 263.32L102.95 263.32C102.752 263.171 102.562 263.014 102.38 262.847L102.995 262.331C103.127 262.5 103.268 262.662 103.417 262.817C103.601 263.013 103.796 263.208 104.002 263.382C104.409 263.756 104.838 264.105 105.287 264.429L105.287 264.429Z" fill="black" stroke="#272727" stroke-width="0.278334"/>
<path d="M123.22 267.158L123.22 267.157L123.217 267.158C122.489 267.318 121.752 267.427 121.009 267.484L121.009 267.484C120.279 267.541 119.546 267.548 118.815 267.503L118.815 267.503C118.813 267.503 118.812 267.503 118.81 267.503C118.811 267.503 118.812 267.503 118.813 267.503C119.537 267.457 120.258 267.364 120.969 267.222L120.97 267.222C121.676 267.077 122.371 266.881 123.048 266.635C123.386 266.516 123.715 266.381 124.038 266.239L124.038 266.238C124.31 266.116 124.577 265.981 124.836 265.835L125.237 266.548C124.93 266.675 124.616 266.787 124.298 266.883C123.937 266.991 123.578 267.089 123.22 267.158Z" fill="black" stroke="#272727" stroke-width="0.278334"/>
<path d="M145.046 267.874C145.052 267.877 145.057 267.88 145.063 267.883C145.057 267.881 145.051 267.879 145.045 267.877C144.558 267.722 144.074 267.554 143.6 267.358L143.6 267.358L143.599 267.358C143.118 267.165 142.648 266.946 142.191 266.702C141.961 266.577 141.734 266.448 141.513 266.306L141.513 266.306L141.511 266.305C141.321 266.187 141.137 266.058 140.96 265.919L141.542 265.359C141.665 265.497 141.796 265.629 141.933 265.752C142.112 265.92 142.304 266.08 142.497 266.234C142.889 266.547 143.302 266.836 143.725 267.111C144.15 267.387 144.596 267.636 145.046 267.874Z" fill="black" stroke="#272727" stroke-width="0.278334"/>
<path d="M161.481 266.089L161.959 266.728C161.549 266.957 161.126 267.16 160.69 267.335L160.69 267.335L160.689 267.336C160.217 267.53 159.734 267.696 159.242 267.831L159.242 267.831L159.24 267.832C158.753 267.971 158.258 268.077 157.758 268.151L161.481 266.089ZM161.481 266.089C161.148 266.361 160.798 266.613 160.433 266.841M161.481 266.089L160.433 266.841M159.143 267.57C158.696 267.793 158.235 267.987 157.763 268.15L159.143 267.57ZM159.143 267.57C159.142 267.57 159.142 267.57 159.142 267.57L159.081 267.445L159.143 267.569C159.143 267.569 159.143 267.57 159.143 267.57ZM160.433 266.841C160.433 266.842 160.433 266.842 160.432 266.842L160.358 266.724L160.434 266.841C160.434 266.841 160.433 266.841 160.433 266.841Z" fill="black" stroke="#272727" stroke-width="0.278334"/>
<path d="M275.364 27.3694L280.652 25.7885" stroke="#272727" stroke-width="1.11335" stroke-linecap="round" stroke-linejoin="round"/>
<path d="M280.187 42.9563L285.475 41.3753" stroke="#272727" stroke-width="1.11335" stroke-linecap="round" stroke-linejoin="round"/>
<path d="M282.044 50.3788L287.333 48.7978" stroke="#272727" stroke-width="1.11335" stroke-linecap="round" stroke-linejoin="round"/>
<path d="M283.899 58.1719L289.188 56.591" stroke="#272727" stroke-width="1.11335" stroke-linecap="round" stroke-linejoin="round"/>
<path d="M286.125 65.2231L291.414 63.6422" stroke="#272727" stroke-width="1.11335" stroke-linejoin="round"/>
<path d="M300.228 114.582L305.516 113.001" stroke="#272727" stroke-width="1.11335" stroke-linecap="round" stroke-linejoin="round"/>
<path d="M301.713 122.746L307.002 121.165" stroke="#272727" stroke-width="1.11335" stroke-linecap="round" stroke-linejoin="round"/>
<path d="M277.589 34.7915L282.878 33.2105" stroke="#272727" stroke-width="1.11335" stroke-linecap="round" stroke-linejoin="round"/>
<path d="M264.973 25.8849L277.034 68.0066" stroke="#272727" stroke-width="1.11335" stroke-linecap="round" stroke-linejoin="round"/>
<path d="M267.198 25.1425L279.26 67.2642" stroke="white" stroke-width="0.742233" stroke-miterlimit="10" stroke-linecap="round"/>
<path d="M289.652 111.798L296.332 134.807" stroke="#272727" stroke-width="1.11335" stroke-linecap="round" stroke-linejoin="round"/>
<path d="M292.063 112.726L298.372 133.88" stroke="white" stroke-width="0.742233" stroke-miterlimit="10" stroke-linecap="round"/>
<path d="M186.545 273.217C186.545 273.217 195.452 275.166 195.452 284.907" stroke="white" stroke-width="2.22667" stroke-miterlimit="10" stroke-linecap="round"/>
<path d="M118.818 272.314V284.004" stroke="white" stroke-width="2.22667" stroke-miterlimit="10" stroke-linecap="round"/>
<path d="M67.4045 129.763C53.0481 123.824 36.8576 128.916 29.302 140.748C20.5376 154.477 25.107 174.607 40.8479 183.901C40.8479 183.901 47.788 188.383 50.5407 181.32C53.2935 174.257 48.7589 171.889 48.7589 171.889C48.7589 171.889 35.8239 165.445 37.6241 154.531C39.4244 143.617 54.1522 137.816 62.2912 142.69" fill="#19888F"/>
<path d="M67.4045 129.763C53.0481 123.824 36.8576 128.916 29.302 140.748C20.5376 154.477 25.107 174.607 40.8479 183.901C40.8479 183.901 47.788 188.383 50.5407 181.32C53.2935 174.257 48.7589 171.889 48.7589 171.889C48.7589 171.889 35.8239 165.445 37.6241 154.531C39.4244 143.617 54.1522 137.816 62.2912 142.69" stroke="black" stroke-width="1.26151" stroke-miterlimit="10"/>
<path d="M28.7662 182.222C29.0209 183.306 29.6379 184.271 30.5152 184.958C31.3926 185.644 32.4778 186.011 33.5917 185.997C31.282 192 33.2579 198.867 35.6304 202.933C31.5326 204.37 33.1485 210.941 35.7851 214.386C38.4217 217.831 43.2726 218.893 47.5764 218.317C51.8803 217.742 56.2426 215.479 57.9273 211.495C63.7906 212.486 70.0803 208.528 71.7285 202.813C71.9187 202.151 72.0691 201.445 72.537 200.94C73.0049 200.434 73.7714 200.207 74.4288 199.898C78.5193 197.962 78.657 192.045 76.7887 187.911C76.5081 187.29 76.1996 186.68 75.8623 186.088C73.7536 182.447 70.7636 179.394 67.167 177.21C65.713 176.334 64.1851 175.586 62.6008 174.975C60.0892 173.984 57.6909 173.414 54.9574 173.617C55.1484 171.968 55.6884 170.193 54.6688 168.668C52.1114 164.799 47.1117 167.069 43.7986 168.437C39.506 170.188 35.5265 172.625 32.0153 175.653C31.3488 176.218 30.7313 176.838 30.1697 177.507C29.0685 178.835 28.4003 180.463 28.7662 182.222Z" fill="white" stroke="#272727" stroke-width="1.48447" stroke-linejoin="round"/>
<path d="M56.673 181.337C57.4561 181.307 58.24 181.425 58.9826 181.688L58.9826 181.689L58.987 181.69C59.9653 182.009 60.875 182.51 61.6691 183.164L61.6691 183.164L61.6713 183.166C62.4751 183.809 63.1531 184.594 63.6713 185.483L63.6717 185.484C63.9281 185.921 64.1418 186.381 64.3098 186.859C64.4003 187.133 64.4764 187.411 64.5375 187.693C64.5142 187.665 64.4909 187.637 64.4676 187.608C64.4381 187.572 64.4085 187.535 64.3788 187.499C64.2525 187.343 64.124 187.184 63.987 187.032C63.8773 186.91 63.7686 186.782 63.6588 186.653C63.456 186.413 63.249 186.169 63.0237 185.953C62.3909 185.26 61.7085 184.615 60.9818 184.022C60.2555 183.426 59.484 182.887 58.6742 182.411C58.0234 182.023 57.3557 181.665 56.673 181.337Z" fill="black" stroke="#272727" stroke-width="0.371117"/>
<path d="M50.7428 184.899C51.5298 184.971 52.3004 185.177 53.0206 185.511L53.0206 185.511L53.0241 185.512C53.9665 185.925 54.843 186.475 55.6255 187.143C56.0123 187.478 56.3763 187.838 56.715 188.221C56.7661 188.282 56.8169 188.342 56.8673 188.401C56.9856 188.54 57.1017 188.677 57.2137 188.821C57.3361 188.978 57.4433 189.139 57.5509 189.301C57.5818 189.347 57.6127 189.394 57.644 189.44C57.9242 189.865 58.1703 190.311 58.3799 190.775C58.4974 191.041 58.6016 191.313 58.6921 191.59C58.6118 191.511 58.5328 191.431 58.4531 191.35C58.3315 191.227 58.2084 191.102 58.0768 190.976C57.9318 190.838 57.7932 190.697 57.653 190.555C57.6204 190.521 57.5878 190.488 57.555 190.455C57.3828 190.281 57.2068 190.105 57.0195 189.939C56.8474 189.776 56.6773 189.608 56.5103 189.438C56.3903 189.316 56.2584 189.2 56.1329 189.089C56.0772 189.04 56.0227 188.992 55.9712 188.945C55.9169 188.896 55.8614 188.844 55.8047 188.791C55.6862 188.679 55.5624 188.563 55.4338 188.457C55.3476 188.386 55.2659 188.311 55.1801 188.232L55.1733 188.226C55.087 188.146 54.9965 188.063 54.8998 187.985C54.1725 187.359 53.4163 186.773 52.6349 186.202C52.0272 185.758 51.4056 185.328 50.7428 184.899Z" fill="black" stroke="#272727" stroke-width="0.371117"/>
<path d="M45.1662 188.414C45.9218 188.69 46.6319 189.081 47.2708 189.574L47.2708 189.574L47.2736 189.576C48.1112 190.198 48.8598 190.931 49.4986 191.756L49.4992 191.757C50.1408 192.577 50.6707 193.478 51.0751 194.438L51.0757 194.439C51.3975 195.186 51.6205 195.97 51.7401 196.773C51.7196 196.744 51.6993 196.715 51.6791 196.685C51.6444 196.635 51.6098 196.584 51.575 196.534C51.4662 196.375 51.3562 196.214 51.2407 196.06C51.099 195.87 50.9651 195.673 50.8283 195.471L50.8138 195.449C50.6737 195.243 50.5303 195.032 50.3765 194.829C49.8977 194.126 49.388 193.457 48.8837 192.796C48.7972 192.682 48.7109 192.569 48.6248 192.456C48.031 191.674 47.3878 190.919 46.7432 190.177C46.2407 189.599 45.716 189.012 45.1662 188.414Z" fill="black" stroke="#272727" stroke-width="0.371117"/>
<path d="M71.8188 196.779L71.8188 196.779C71.9057 197.482 71.9468 198.19 71.9415 198.899C71.9388 199.529 71.8961 200.159 71.8138 200.784L72.9008 200.859C72.875 200.192 72.8055 199.528 72.6927 198.87L72.6924 198.869L72.6924 198.869C72.5726 198.139 72.4034 197.418 72.1861 196.711C71.967 196.011 71.6879 195.332 71.3519 194.681C71.3517 194.68 71.3515 194.68 71.3513 194.68L71.8188 196.779ZM71.8188 196.779L71.8186 196.778M71.8188 196.779L71.8186 196.778M71.8186 196.778C71.7244 196.067 71.5678 195.366 71.3505 194.682L71.3505 194.682M71.8186 196.778L71.3505 194.682M71.3505 194.682L71.3498 194.68M71.3505 194.682L71.3498 194.68M71.3498 194.68C71.3488 194.677 71.3479 194.674 71.3469 194.671L71.3498 194.68Z" fill="black" stroke="#272727" stroke-width="0.371117"/>
<path d="M57.4047 206.329C57.4037 206.326 57.4028 206.322 57.4018 206.318C57.4029 206.32 57.404 206.323 57.4051 206.325L57.4053 206.325C57.6745 206.869 57.8822 207.441 58.0244 208.03L58.0246 208.031C58.1724 208.634 58.2765 209.246 58.3359 209.864L58.3359 209.864L58.3361 209.866C58.3947 210.423 58.4192 210.983 58.4097 211.544L57.329 211.394C57.4415 210.896 57.5248 210.392 57.5786 209.884C57.6425 209.295 57.6654 208.702 57.647 208.11C57.6324 207.51 57.5513 206.913 57.4052 206.331L57.4052 206.331L57.4047 206.329Z" fill="black" stroke="#272727" stroke-width="0.371117"/>
<path d="M53.1916 174.209C53.584 173.792 53.9503 173.352 54.2885 172.89L55.1147 173.586C54.6649 174.01 54.1874 174.404 53.6853 174.765L53.6847 174.765C53.139 175.161 52.5704 175.524 51.9819 175.852L51.9819 175.852L51.9811 175.853C51.3961 176.183 50.7967 176.486 50.1847 176.762C50.7283 176.382 51.2548 175.978 51.7626 175.55L51.7626 175.55C52.2622 175.129 52.7388 174.682 53.1906 174.21L53.1906 174.21L53.1916 174.209Z" fill="black" stroke="#272727" stroke-width="0.371117"/>
<path d="M35.3285 185.793C35.0432 185.97 34.7408 186.126 34.4279 186.279C34.1635 186.404 33.8928 186.516 33.617 186.613L33.4216 185.546C33.6554 185.51 33.8872 185.461 34.1156 185.4L34.1157 185.4C34.4165 185.318 34.7254 185.227 35.0282 185.113C35.6353 184.891 36.2235 184.622 36.7871 184.306C37.3609 183.987 37.9079 183.622 38.4229 183.215C38.4313 183.208 38.4396 183.202 38.448 183.195C38.4406 183.203 38.4333 183.212 38.4259 183.22C37.9833 183.724 37.5027 184.192 36.9885 184.622L36.9882 184.622C36.47 185.058 35.916 185.449 35.3323 185.791L35.3322 185.791L35.3285 185.793Z" fill="black" stroke="#272727" stroke-width="0.371117"/>
</svg>
