<svg width="370" height="353" viewBox="0 0 370 353" fill="none" xmlns="http://www.w3.org/2000/svg">
<ellipse cx="182.554" cy="318.014" rx="144.499" ry="31.4441" transform="rotate(-1.02117 182.554 318.014)" fill="#FCA61D" fill-opacity="0.61"/>
<path d="M90.4949 141.816C97.983 191.884 138.784 227.281 195.968 218.729C251.833 210.373 281.81 164.392 274.322 114.327C266.833 64.2627 237.069 24.7901 166.692 35.3142C106.019 44.3864 82.9948 91.7471 90.4949 141.816Z" fill="#F5816A" stroke="#272727" stroke-width="1.60002" stroke-miterlimit="10"/>
<path d="M109.163 141.684C116.763 192.444 157.636 228.401 214.821 219.849C270.69 211.493 300.578 164.952 292.986 114.187C285.394 63.4225 255.546 23.3859 185.169 33.89C124.492 42.9662 101.571 90.9189 109.163 141.684Z" fill="#FFE7E2" stroke="#272727" stroke-width="1.60002" stroke-miterlimit="10"/>
<path d="M120.475 141.036C127.335 186.889 164.268 219.369 215.921 211.645C266.389 204.097 293.39 162.044 286.53 116.2C279.67 70.3549 252.709 34.1544 189.132 43.6625C134.323 51.8626 113.619 95.1793 120.475 141.036Z" stroke="#272727" stroke-width="1.60002" stroke-miterlimit="10"/>
<path d="M211.306 135.58C221.351 133.092 226.834 120.338 223.554 107.092C220.273 93.8462 209.471 85.1249 199.427 87.6124C189.382 90.1 183.899 102.854 187.18 116.1C190.46 129.346 201.262 138.068 211.306 135.58Z" fill="white" stroke="#272727" stroke-width="1.60002" stroke-miterlimit="10"/>
<path d="M212.485 109.65L212.051 109.942L212.57 110.014L219.54 110.983C220.443 114.592 219.982 118.139 218.609 120.873C217.22 123.641 214.905 125.561 212.133 125.901L212.156 126.088L212.133 125.901C205.998 126.654 199.694 121.98 197.832 113.966C196.901 109.961 197.294 106.052 198.672 102.974C200.05 99.8966 202.406 97.661 205.402 96.9662L205.366 96.8089L205.402 96.9662C207.846 96.3994 210.387 97.1948 212.678 98.8607C214.926 100.496 216.915 102.958 218.3 105.739L212.485 109.65Z" fill="black" stroke="#272727" stroke-width="0.400006"/>
<path d="M250.038 124.342C258.868 123.032 264.626 112.53 262.898 100.885C261.17 89.2409 252.611 80.8632 243.781 82.1734C234.951 83.4836 229.193 93.9856 230.921 105.63C232.649 117.275 241.208 125.653 250.038 124.342Z" fill="white" stroke="#272727" stroke-width="1.3803" stroke-miterlimit="10"/>
<path d="M253.287 100.377L252.924 100.643L253.372 100.689L259.412 101.301C260.305 104.383 260.02 107.456 258.923 109.857C257.812 112.288 255.876 114.018 253.496 114.398L253.524 114.568L253.496 114.398C248.231 115.24 242.651 111.422 240.791 104.561C239.862 101.131 240.076 97.7484 241.166 95.053C242.257 92.3578 244.217 90.3589 246.778 89.6651C248.866 89.1008 251.086 89.7061 253.114 91.0691C255.104 92.4068 256.894 94.4652 258.163 96.8184L253.287 100.377Z" fill="black" stroke="#272727" stroke-width="0.345076"/>
<path d="M229.633 132.491C230.19 133.773 231.046 134.902 232.129 135.784C232.816 136.313 233.569 136.751 234.369 137.088C235.524 137.545 236.764 137.748 238.004 137.683C239.244 137.617 240.456 137.284 241.556 136.707C242.656 136.13 243.618 135.322 244.376 134.338C245.135 133.355 245.672 132.219 245.951 131.009C246.231 129.798 246.245 128.542 245.994 127.326C245.742 126.109 245.231 124.961 244.495 123.961C243.759 122.96 242.816 122.13 241.73 121.528C240.643 120.926 239.439 120.565 238.201 120.471C236.944 120.352 235.676 120.533 234.502 120.998C233.327 121.463 232.28 122.2 231.445 123.147C230.616 124.001 229.94 124.99 229.445 126.071" fill="#FFDE72"/>
<path d="M229.633 132.491C230.19 133.773 231.046 134.902 232.129 135.784C232.816 136.313 233.569 136.751 234.369 137.088C235.524 137.545 236.764 137.748 238.004 137.683C239.244 137.617 240.456 137.284 241.556 136.707C242.656 136.13 243.618 135.322 244.376 134.338C245.135 133.355 245.672 132.219 245.951 131.009C246.231 129.798 246.245 128.542 245.994 127.326C245.742 126.109 245.231 124.961 244.495 123.961C243.759 122.96 242.816 122.13 241.73 121.528C240.643 120.926 239.439 120.565 238.201 120.471C236.944 120.352 235.676 120.533 234.502 120.998C233.327 121.463 232.28 122.2 231.445 123.147C230.616 124.001 229.94 124.99 229.445 126.071" stroke="#272727" stroke-width="1.60002" stroke-miterlimit="10" stroke-linecap="round"/>
<path d="M242.497 130.18C242.671 128.841 242.38 127.483 241.673 126.332C240.966 125.182 239.886 124.309 238.613 123.86" stroke="white" stroke-width="2.00003" stroke-miterlimit="10" stroke-linecap="round"/>
<path d="M226.765 170.906L226.764 170.906C224.832 170.028 223.085 168.79 221.617 167.258L221.611 167.251L221.604 167.245C221.212 166.905 220.925 166.461 220.775 165.964C220.661 165.371 220.963 164.766 221.317 164.166L221.145 164.064L221.317 164.166C221.356 164.1 221.395 164.034 221.435 163.967C223.03 161.271 225.039 157.877 227.351 155.9C230.897 152.871 235.684 151.563 240.377 151.484C245.07 151.404 249.711 152.457 254.273 153.657C254.763 153.796 255.264 153.955 255.69 154.19C256.112 154.423 256.445 154.722 256.622 155.135C256.749 155.511 256.795 155.91 256.758 156.305L256.758 156.305L256.758 156.316C256.501 162.759 251.72 168.519 245.74 171.02L245.817 171.204L245.74 171.02C239.99 173.424 232.581 173.581 226.765 170.906Z" fill="black" stroke="#272727" stroke-width="0.400006"/>
<path d="M224.997 138.036C234.433 136.532 242.394 144.976 240.474 154.036C240.054 156.19 239.192 158.233 237.941 160.036C229.141 172.388 201.421 171.312 191.461 157.376C186.685 150.696 187.221 142.776 187.833 138.804C188.349 140.617 189.336 142.26 190.693 143.568C196.125 148.712 205.133 146.4 211.241 144.124C215.617 142.496 219.281 139.364 223.925 138.252C224.285 138.164 224.641 138.092 224.997 138.036Z" fill="#474747" stroke="#272727" stroke-width="1.60002" stroke-miterlimit="10"/>
<path d="M253.798 136.208C246.546 135.06 239.546 139.48 240.41 147.524C241.162 154.54 247.822 157.972 254.194 158.648C266.942 160 278.23 149.3 277.362 136.612C272.114 142.852 263.27 139.648 257.162 137.152C256.08 136.71 254.952 136.393 253.798 136.208Z" fill="#474747" stroke="#272727" stroke-width="1.60002" stroke-miterlimit="10"/>
<path d="M189.306 85.7159C189.306 85.7159 187.793 78.4018 194.137 76.4138C200.48 74.4257 203.804 79.7208 203.804 79.7208" stroke="#272727" stroke-width="1.60002" stroke-miterlimit="10"/>
<path d="M235.378 77.4464C235.378 77.4464 233.735 69.823 239.364 68.4464C244.993 67.0697 247.723 72.7524 247.723 72.7524" stroke="#272727" stroke-width="1.29842" stroke-miterlimit="10"/>
<path d="M211.637 70.4418C214.803 68.4668 218.481 67.4697 222.212 67.5752C223.927 67.6324 225.126 65.9228 224.267 64.6202L213.575 48.395C212.526 46.8014 209.745 47.5398 209.623 49.4392L208.386 68.8722C208.297 70.4269 210.153 71.3327 211.637 70.4418Z" fill="#F5816A" stroke="#272727" stroke-width="1.60002" stroke-miterlimit="10"/>
<path d="M245.529 175.976C242.119 177.489 238.339 177.964 234.661 177.344C232.969 177.048 231.545 178.572 232.213 179.984L240.521 197.533C241.321 199.253 244.193 198.909 244.577 197.044L248.505 177.972C248.817 176.452 247.093 175.296 245.529 175.976Z" fill="#8C7BC7" stroke="#272727" stroke-width="1.60002" stroke-miterlimit="10"/>
<path d="M188.597 32.814C188.597 32.814 196.857 30.87 202.161 31.134C202.161 31.134 203.025 26.654 201.125 25.4539C199.225 24.2539 189.713 26.3059 188.101 27.854C186.489 29.402 188.597 32.814 188.597 32.814Z" fill="#F7C326" stroke="#272727" stroke-width="1.60002" stroke-miterlimit="10" stroke-linecap="round"/>
<path d="M190.104 1.13374C184.668 2.12576 181.268 8.41383 182.504 15.1699C183.74 21.926 189.144 26.6021 194.58 25.6061C200.016 24.6101 203.413 18.33 202.18 11.5699C200.948 4.80978 195.536 0.137727 190.104 1.13374ZM193.972 22.298C190.064 23.014 186.168 19.646 185.28 14.7819C184.392 9.91787 186.84 5.38979 190.752 4.67378C194.664 3.95777 198.557 7.32579 199.445 12.1939C200.333 17.0619 197.884 21.582 193.972 22.298Z" fill="#F7C326" stroke="#272727" stroke-width="1.60002" stroke-miterlimit="10" stroke-linecap="round"/>
<path d="M242.578 170.757L242.578 170.757L242.576 170.757C240.251 171.203 237.32 171.365 235.222 170.179C235.397 169.557 235.849 168.995 236.489 168.489C237.174 167.948 238.056 167.485 238.987 167.095C240.579 166.428 242.282 165.985 243.326 165.713C243.503 165.667 243.662 165.626 243.797 165.589L243.797 165.589C246.054 164.981 248.384 164.562 250.331 165.677C249.095 167.367 247.628 168.687 246.037 169.55C244.912 170.143 243.75 170.548 242.578 170.757Z" fill="#CC2936" stroke="#272727" stroke-width="0.400006"/>
<path d="M129.648 108.563C129.648 108.563 123.248 145.764 138.048 164.964" stroke="white" stroke-width="3.20005" stroke-miterlimit="10" stroke-linecap="round"/>
<path d="M144.848 174.164C144.848 174.164 150.048 182.964 156.848 186.564" stroke="white" stroke-width="3.20005" stroke-miterlimit="10" stroke-linecap="round"/>
<path d="M171.288 281.07C170.388 282.303 168.963 283.08 167.514 283.59C165.549 284.283 165.996 285.873 165.891 287.727C165.771 289.857 165.671 291.988 165.591 294.12C165.417 298.28 165.305 302.444 165.255 306.612C165.241 306.782 165.265 306.953 165.324 307.113C165.47 307.342 165.678 307.526 165.924 307.641C167.352 308.541 167.925 310.443 167.577 312.093C166.791 315.831 163.314 317.262 160.191 318.552C157.068 319.842 153.891 320.61 150.591 321.219C135.825 323.955 120.672 325.119 105.762 323.343C103.725 323.1 101.508 322.71 100.161 321.165C98.8139 319.62 99.2069 316.578 101.22 316.197C100.542 316.326 98.9548 311.568 98.7898 310.983C98.256 309.065 98.0153 307.078 98.0759 305.088C98.1892 301.076 99.4001 297.173 101.577 293.802C103.677 290.547 107.043 287.346 110.811 286.257C118.374 284.07 126.627 286.341 133.5 289.698C135.867 290.853 139.215 291.303 141.645 289.815C142.139 289.455 142.519 288.962 142.74 288.393C144.12 285.516 145.335 282.186 143.466 279.474C142.916 278.692 142.57 277.785 142.459 276.836C142.349 275.887 142.477 274.925 142.833 274.038C144.156 270.717 147.843 269.904 151.05 270.009C154.453 270.121 157.839 270.535 161.169 271.245C164.25 271.905 170.115 272.796 171.693 275.844C172.093 276.638 172.277 277.523 172.227 278.411C172.177 279.299 171.894 280.157 171.408 280.902C171.369 280.959 171.327 281.013 171.288 281.07Z" fill="#F7C326" stroke="#272727" stroke-width="1.2" stroke-miterlimit="10"/>
<path d="M185.493 275.262C184.521 276.162 183.867 277.425 183.738 279.237C183.603 281.109 185.145 281.967 185.34 283.419C185.58 285.219 184.011 287.814 183.432 289.578C182.7 291.81 182.045 294.065 181.467 296.343C180.69 299.403 180.399 302.568 179.586 305.604C177.69 305.571 176.184 307.482 176.079 309.375C175.779 314.733 181.203 316.551 185.436 317.475C204.465 321.603 225.765 330.741 244.914 321.168C247.05 320.295 249.183 319.068 250.359 317.094C251.535 315.12 251.403 312.201 249.543 310.836C249.318 310.671 249.057 310.506 248.985 310.236C248.954 310.063 248.968 309.884 249.024 309.717C251.184 300.813 249.78 288.63 239.514 285.468C235.164 284.13 230.475 284.328 225.987 285.099C222.054 285.777 218.073 286.938 214.743 289.206C213.423 290.106 212.562 291.225 210.987 291.522C210.387 291.636 205.614 291.03 205.587 290.436C205.524 288.999 205.725 287.568 205.836 286.131C205.839 285.718 205.928 285.309 206.097 284.931C206.327 284.567 206.626 284.25 206.976 283.998C208.509 282.705 209.862 280.797 209.451 278.832C209.04 276.867 207.051 275.673 205.173 274.932C201.437 273.466 197.429 272.822 193.422 273.042C190.563 273.186 187.407 273.498 185.493 275.262Z" fill="#F7C326" stroke="#272727" stroke-width="1.2" stroke-miterlimit="10"/>
<path d="M293.475 116.023L315.166 105.871C315.166 105.871 322.785 108.856 321.499 119.694L293.597 138.801C293.597 138.801 294.484 126.504 293.475 116.023Z" fill="#19888F" stroke="#272727" stroke-width="1.60002" stroke-miterlimit="10"/>
<path d="M172.567 220.5L165.567 272.5C165.567 272.5 162.561 279.24 157.262 278.5C151.962 277.76 150.567 272.5 150.567 272.5L156.567 218C156.567 218 165.567 220.5 172.567 220.5Z" fill="#19888F" stroke="#272727" stroke-width="1.60002" stroke-miterlimit="10"/>
<path d="M212.081 221.002L204.446 276.167C204.446 276.167 201.725 282.675 196.753 282.035C194.438 281.737 192.902 280.487 191.922 279.236C190.592 277.539 190.529 275.265 190.77 273.122L196.581 221.493C196.581 221.493 205.528 221.095 212.081 221.002Z" fill="#19888F" stroke="#272727" stroke-width="1.60002" stroke-miterlimit="10"/>
<path d="M319.399 99.0033C319.233 99.4625 318.949 99.8703 318.576 100.186C318.204 100.502 317.755 100.715 317.275 100.803C316.143 101.031 314.975 100.775 313.823 100.803C307.575 101.067 306.203 109.043 306.623 113.888C307.191 120.324 308.223 128.872 315.683 130.568C318.063 131.108 320.779 130.532 322.419 128.724C323.003 128.08 323.491 127.264 324.315 126.98C324.761 126.856 325.227 126.819 325.687 126.872C329.799 127.08 334.039 126.824 338.007 125.584C342.107 124.3 345.687 122.016 349.607 120.308C353.655 118.452 357.104 115.508 359.924 112.091C361.668 109.979 364.548 106.403 364.552 103.571C364.552 101.239 362.516 97.8713 359.835 98.4433C360.914 98.2069 361.932 97.7511 362.827 97.1042C363.721 96.4574 364.473 95.6333 365.036 94.6833C366.4 92.3392 366.76 87.7712 365.1 85.4831C364.206 84.3592 362.933 83.5997 361.519 83.3471C360.118 83.1003 358.691 83.0251 357.272 83.1231C360.912 80.535 362.596 72.4829 358.551 69.5229C356.287 67.8749 353.175 68.3228 350.419 68.8109C346.971 69.4429 343.907 71.7789 340.247 71.4949C338.175 71.3309 336.275 70.2389 334.215 69.9389C330.375 69.3869 327.191 70.8269 324.963 73.9749C320.963 79.631 320.427 86.9831 319.947 93.6672C319.839 95.1832 320.063 97.4233 319.399 99.0033Z" fill="white" stroke="#272727" stroke-width="1.60002" stroke-miterlimit="10" stroke-linecap="round"/>
<path d="M314.423 22.3299L333.476 17.2138L369 141.216L350.528 146.452L314.423 22.3299Z" fill="#A6E9EC" stroke="#272727" stroke-width="1.60002" stroke-linecap="round" stroke-linejoin="round"/>
<path d="M358.631 98.815C354.427 100.135 344.554 102.439 340.922 104.927C338.026 106.927 338.398 110.047 339.802 112.987C340.253 114.02 340.947 114.927 341.826 115.631C343.262 116.703 345.162 116.907 346.955 116.875C350.747 116.803 357.567 112.423 360.899 110.615" fill="white"/>
<path d="M358.631 98.815C354.427 100.135 344.554 102.439 340.922 104.927C338.026 106.927 338.398 110.047 339.802 112.987C340.253 114.02 340.947 114.927 341.826 115.631C343.262 116.703 345.162 116.907 346.955 116.875C350.747 116.803 357.567 112.423 360.899 110.615" stroke="#272727" stroke-width="1.60002" stroke-miterlimit="10" stroke-linecap="square"/>
<path d="M357.724 82.907C355.396 83.7071 345.404 87.6351 343.208 88.7431C340.808 89.9431 337.039 92.1032 336.659 95.1192C336.533 96.0403 336.621 96.9779 336.914 97.86C337.207 98.7421 337.699 99.5451 338.351 100.207C340.035 101.835 342.596 102.207 344.92 101.947C347.244 101.687 350.776 100.123 353.088 99.7633L360.728 98.2153" fill="white"/>
<path d="M357.724 82.907C355.396 83.7071 345.404 87.6351 343.208 88.7431C340.808 89.9431 337.039 92.1032 336.659 95.1192C336.533 96.0403 336.621 96.9779 336.914 97.86C337.207 98.7421 337.699 99.5451 338.351 100.207C340.035 101.835 342.596 102.207 344.92 101.947C347.244 101.687 350.776 100.123 353.088 99.7633L360.728 98.2153" stroke="#272727" stroke-width="1.60002" stroke-miterlimit="10"/>
<path d="M358.176 82.4549C355.804 83.6549 349.528 85.911 349.528 85.911C346.728 86.607 345.044 86.211 345.044 86.211C343.859 86.1986 342.687 85.971 341.584 85.539C339.127 84.447 336.283 80.2189 337.207 77.4349C337.425 76.862 337.739 76.3304 338.135 75.8628C340.244 73.248 343.083 71.3195 346.292 70.3228L349.94 69.0828" fill="white"/>
<path d="M358.176 82.4549C355.804 83.6549 349.528 85.911 349.528 85.911C346.728 86.607 345.044 86.211 345.044 86.211C343.859 86.1986 342.687 85.971 341.584 85.539C339.127 84.447 336.283 80.2189 337.207 77.4349C337.425 76.862 337.739 76.3304 338.135 75.8628C340.244 73.248 343.083 71.3195 346.292 70.3228L349.94 69.0828" stroke="#272727" stroke-width="1.60002" stroke-miterlimit="10" stroke-linecap="round"/>
<path d="M327.31 71.5586C332.758 67.9305 337.518 71.7346 339.286 74.2666C340.946 76.6427 342.054 79.3667 343.754 81.7147C344.858 83.2428 346.234 84.6428 346.826 86.4348C348.154 90.4349 344.11 94.0349 340.426 94.0709C337.562 94.0709 333.226 91.7709 331.834 89.2708" fill="white"/>
<path d="M327.31 71.5586C332.758 67.9305 337.518 71.7346 339.286 74.2666C340.946 76.6427 342.054 79.3667 343.754 81.7147C344.858 83.2428 346.234 84.6428 346.826 86.4348C348.154 90.4349 344.11 94.0349 340.426 94.0709C337.562 94.0709 333.226 91.7709 331.834 89.2708" stroke="#272727" stroke-width="1.60002" stroke-miterlimit="10" stroke-linecap="square"/>
<path d="M334.378 104.158C334.306 105.064 334.075 105.951 333.694 106.78L333.693 106.781C332.704 108.972 330.965 110.739 328.79 111.762L328.789 111.763C327.963 112.157 327.076 112.4 326.168 112.484C326.916 112.026 327.645 111.538 328.353 111.021L328.353 111.021L328.355 111.02C329.233 110.367 330.061 109.647 330.83 108.868C331.6 108.089 332.308 107.25 332.946 106.36L332.946 106.359C333.454 105.646 333.932 104.912 334.378 104.158Z" fill="black" stroke="#272727" stroke-width="0.400006"/>
<mask id="path-40-inside-1_1154_2990" fill="white">
<path d="M318.682 100.319C317.708 103.582 317.535 107.031 318.178 110.375Z"/>
</mask>
<path d="M318.682 100.319C317.708 103.582 317.535 107.031 318.178 110.375Z" fill="white"/>
<path d="M318.299 100.204C317.306 103.529 317.13 107.044 317.785 110.451L318.571 110.299C317.94 107.019 318.11 103.634 319.065 100.433L318.299 100.204Z" fill="#272727" mask="url(#path-40-inside-1_1154_2990)"/>
<path d="M317.85 107.856C317.849 107.852 317.849 107.847 317.848 107.843L317.848 107.841C317.72 106.997 317.647 106.145 317.63 105.291L317.63 105.289C317.605 104.428 317.632 103.567 317.709 102.709L317.709 102.709L317.71 102.707C317.773 101.904 317.889 101.107 318.057 100.32L319.175 100.701C318.904 101.399 318.678 102.115 318.5 102.843C318.294 103.656 318.136 104.481 318.028 105.313C317.917 106.157 317.857 107.006 317.85 107.856Z" fill="black" stroke="#272727" stroke-width="0.400006"/>
<mask id="path-43-inside-2_1154_2990" fill="white">
<path d="M324.358 126.712C324.358 126.712 319.366 124.44 318.458 119.912Z"/>
</mask>
<path d="M324.358 126.712C324.358 126.712 319.366 124.44 318.458 119.912Z" fill="white"/>
<path d="M324.358 126.712C324.524 126.348 324.524 126.348 324.524 126.348C324.524 126.348 324.524 126.348 324.524 126.348C324.524 126.348 324.524 126.348 324.524 126.348C324.524 126.348 324.523 126.347 324.522 126.347C324.521 126.346 324.518 126.345 324.514 126.343C324.505 126.339 324.493 126.333 324.476 126.325C324.442 126.308 324.391 126.283 324.325 126.249C324.192 126.182 324.001 126.079 323.767 125.941C323.299 125.666 322.665 125.252 322.005 124.702C320.678 123.597 319.279 121.971 318.85 119.833L318.066 119.99C318.545 122.381 320.097 124.154 321.493 125.317C322.194 125.901 322.865 126.339 323.361 126.631C323.61 126.777 323.815 126.887 323.959 126.961C324.032 126.998 324.089 127.026 324.128 127.045C324.148 127.055 324.163 127.062 324.174 127.067C324.18 127.07 324.184 127.072 324.187 127.073C324.189 127.074 324.19 127.075 324.191 127.075C324.191 127.075 324.192 127.075 324.192 127.076C324.192 127.076 324.192 127.076 324.192 127.076C324.192 127.076 324.193 127.076 324.358 126.712Z" fill="#272727" mask="url(#path-43-inside-2_1154_2990)"/>
<path d="M322.626 125.186C323.199 125.536 323.8 125.839 324.422 126.092L323.94 127.154C323.649 126.979 323.366 126.788 323.094 126.584L323.094 126.584L323.091 126.582C322.765 126.346 322.454 126.094 322.15 125.829C321.549 125.303 320.997 124.724 320.499 124.099C320.012 123.484 319.603 122.811 319.28 122.097C319.715 122.732 320.224 123.314 320.797 123.828L320.797 123.829C321.364 124.336 321.977 124.79 322.626 125.186Z" fill="black" stroke="#272727" stroke-width="0.400006"/>
<path d="M100.515 316.038C109.629 318.33 119.31 319.173 128.679 318.906C137.454 318.654 147.045 317.361 155.295 314.232C159.264 312.732 163.032 310.437 165.666 307.11" stroke="#272727" stroke-width="1.2" stroke-miterlimit="10"/>
<path d="M179.48 305.07C179.48 305.07 178.8 310.17 200.928 315.624C223.056 321.078 240.759 321.753 249.609 310.86" stroke="#272727" stroke-width="1.2" stroke-miterlimit="10"/>
<path d="M139.942 293.676L139.941 293.675C139.088 292.96 138.185 292.308 137.238 291.724L137.238 291.724L137.236 291.723C136.338 291.195 135.387 290.765 134.399 290.439L134.685 289.601C135.701 290.035 136.668 290.579 137.566 291.223C138.479 291.903 139.341 292.649 140.146 293.454C140.929 294.256 141.668 295.099 142.359 295.981C141.596 295.169 140.789 294.399 139.942 293.676Z" fill="black" stroke="#272727" stroke-width="0.300001"/>
<path d="M212.449 290.505L212.994 291.205C212.161 291.825 211.364 292.492 210.608 293.204L210.608 293.204C209.807 293.959 209.049 294.758 208.337 295.598C207.62 296.442 206.966 297.337 206.38 298.277C206.37 298.293 206.36 298.309 206.35 298.325C206.358 298.309 206.366 298.293 206.375 298.277C206.878 297.283 207.451 296.327 208.091 295.416C208.738 294.501 209.435 293.623 210.181 292.786L210.181 292.786C210.891 291.981 211.648 291.219 212.449 290.505Z" fill="black" stroke="#272727" stroke-width="0.300001"/>
<path d="M146.483 281.528C146.972 281.879 147.48 282.202 148.006 282.496C147.434 282.293 146.875 282.056 146.332 281.785L146.331 281.784C145.778 281.512 145.243 281.206 144.727 280.869L144.727 280.869L144.726 280.869C144.469 280.703 144.214 280.522 143.965 280.333L143.965 280.333L143.964 280.332C143.751 280.172 143.546 280.002 143.35 279.822L144.012 279.266C144.155 279.448 144.307 279.623 144.467 279.79C144.666 280.001 144.876 280.212 145.097 280.399C145.537 280.802 145.999 281.179 146.483 281.528L146.483 281.528Z" fill="black" stroke="#272727" stroke-width="0.300001"/>
<path d="M167.554 283.043L167.985 283.811C167.654 283.949 167.317 284.069 166.973 284.172C166.585 284.289 166.198 284.395 165.812 284.469L165.812 284.469L165.808 284.469C165.024 284.641 164.229 284.758 163.429 284.82L163.429 284.82C162.642 284.882 161.852 284.889 161.064 284.841L161.064 284.841C161.062 284.841 161.06 284.841 161.059 284.841C161.06 284.841 161.061 284.841 161.062 284.841C161.843 284.792 162.619 284.691 163.386 284.538L163.387 284.538C164.148 284.381 164.896 284.17 165.627 283.905C165.991 283.778 166.346 283.632 166.693 283.478L166.694 283.478C166.987 283.346 167.274 283.201 167.554 283.043Z" fill="black" stroke="#272727" stroke-width="0.300001"/>
<path d="M189.355 285.25C189.349 285.247 189.343 285.244 189.337 285.241C189.337 285.241 189.336 285.241 189.336 285.24L189.407 285.108C188.924 284.853 188.447 284.586 187.994 284.292C187.541 283.998 187.1 283.689 186.683 283.356C186.476 283.191 186.272 283.02 186.083 282.843L189.355 285.25ZM189.355 285.25C189.349 285.248 189.342 285.246 189.336 285.244C188.81 285.077 188.29 284.896 187.779 284.685L187.779 284.685L187.777 284.684C187.259 284.477 186.752 284.241 186.259 283.977C186.012 283.843 185.767 283.704 185.528 283.551L185.528 283.551L185.527 283.55C185.321 283.422 185.123 283.283 184.933 283.133L185.56 282.53C185.693 282.679 185.834 282.821 185.982 282.954M189.355 285.25L185.982 282.954M185.982 282.954C186.175 283.134 186.382 283.308 186.59 283.474L185.982 282.954Z" fill="black" stroke="#272727" stroke-width="0.300001"/>
<path d="M207.052 283.317L207.566 284.006C207.125 284.252 206.668 284.471 206.199 284.66L206.199 284.66L206.198 284.661C205.689 284.87 205.168 285.049 204.638 285.195L204.638 285.195L204.636 285.195C204.111 285.345 203.577 285.46 203.038 285.54L207.052 283.317ZM207.052 283.317C206.692 283.61 206.315 283.881 205.922 284.128C205.474 284.417 205.01 284.679 204.531 284.913C204.049 285.153 203.552 285.362 203.043 285.538L207.052 283.317Z" fill="black" stroke="#272727" stroke-width="0.300001"/>
<path d="M329.799 26.0143L335.499 24.3103" stroke="#272727" stroke-width="1.20002" stroke-linecap="round" stroke-linejoin="round"/>
<path d="M334.998 42.8146L340.698 41.1105" stroke="#272727" stroke-width="1.20002" stroke-linecap="round" stroke-linejoin="round"/>
<path d="M337 50.8147L342.7 49.1107" stroke="#272727" stroke-width="1.20002" stroke-linecap="round" stroke-linejoin="round"/>
<path d="M338.999 59.2146L344.699 57.5106" stroke="#272727" stroke-width="1.20002" stroke-linecap="round" stroke-linejoin="round"/>
<path d="M341.398 66.8147L347.098 65.1107" stroke="#272727" stroke-width="1.20002" stroke-linejoin="round"/>
<path d="M356.599 120.016L362.299 118.312" stroke="#272727" stroke-width="1.20002" stroke-linecap="round" stroke-linejoin="round"/>
<path d="M358.2 128.816L363.9 127.112" stroke="#272727" stroke-width="1.20002" stroke-linecap="round" stroke-linejoin="round"/>
<path d="M332.198 34.0141L337.898 32.3101" stroke="#272727" stroke-width="1.20002" stroke-linecap="round" stroke-linejoin="round"/>
<path d="M318.599 24.4142L331.599 69.8148" stroke="#272727" stroke-width="1.20002" stroke-linecap="round" stroke-linejoin="round"/>
<path d="M320.998 23.614L333.998 69.0146" stroke="white" stroke-width="0.800012" stroke-miterlimit="10" stroke-linecap="round"/>
<path d="M345.2 117.016L352.4 141.816" stroke="#272727" stroke-width="1.20002" stroke-linecap="round" stroke-linejoin="round"/>
<path d="M347.798 118.015L354.598 140.816" stroke="white" stroke-width="0.800012" stroke-miterlimit="10" stroke-linecap="round"/>
<path d="M234.067 291C234.067 291 243.667 293.1 243.667 303.6" stroke="white" stroke-width="2.40001" stroke-miterlimit="10" stroke-linecap="round"/>
<path d="M161.067 290.026V302.626" stroke="white" stroke-width="2.40001" stroke-miterlimit="10" stroke-linecap="round"/>
<path d="M105.652 136.378C90.1776 129.977 72.7267 135.466 64.5829 148.219C55.1363 163.017 60.0614 184.713 77.0277 194.731C77.0277 194.731 84.508 199.562 87.475 191.949C90.442 184.336 85.5545 181.783 85.5545 181.783C85.5545 181.783 71.6125 174.839 73.5529 163.075C75.4933 151.311 91.3676 145.059 100.14 150.312" fill="#19888F"/>
<path d="M105.652 136.378C90.1776 129.977 72.7267 135.466 64.5829 148.219C55.1363 163.017 60.0614 184.713 77.0277 194.731C77.0277 194.731 84.508 199.562 87.475 191.949C90.442 184.336 85.5545 181.783 85.5545 181.783C85.5545 181.783 71.6125 174.839 73.5529 163.075C75.4933 151.311 91.3676 145.059 100.14 150.312" stroke="black" stroke-width="1.35971" stroke-miterlimit="10"/>
<path d="M64.0054 192.921C64.28 194.09 64.9449 195.13 65.8906 195.87C66.8362 196.61 68.0059 197.005 69.2065 196.99C66.7171 203.461 68.8468 210.862 71.404 215.245C66.9871 216.793 68.7289 223.876 71.5707 227.589C74.4125 231.302 79.641 232.447 84.2799 231.826C88.9188 231.206 93.6207 228.767 95.4365 224.473C101.756 225.541 108.536 221.275 110.312 215.115C110.517 214.402 110.679 213.641 111.183 213.096C111.688 212.551 112.514 212.307 113.223 211.973C117.632 209.887 117.78 203.509 115.766 199.053C115.464 198.384 115.131 197.726 114.768 197.088C112.495 193.163 109.272 189.873 105.396 187.52C103.828 186.575 102.182 185.769 100.474 185.111C97.7667 184.042 95.1817 183.428 92.2354 183.646C92.4414 181.869 93.0233 179.956 91.9244 178.312C89.1679 174.142 83.779 176.588 80.208 178.063C75.5813 179.951 71.2919 182.578 67.5075 185.841C66.789 186.45 66.1235 187.118 65.5181 187.84C64.3312 189.271 63.611 191.026 64.0054 192.921Z" fill="white" stroke="#272727" stroke-width="1.60002" stroke-linejoin="round"/>
<path d="M94.0846 191.967C94.9288 191.935 95.7737 192.063 96.5741 192.346L96.5741 192.346L96.5788 192.348C97.6332 192.692 98.6138 193.231 99.4697 193.937L99.4697 193.937L99.472 193.939C100.338 194.631 101.069 195.478 101.628 196.437L101.628 196.437C101.905 196.908 102.135 197.404 102.316 197.919C102.414 198.214 102.495 198.515 102.561 198.819C102.536 198.788 102.511 198.757 102.486 198.727C102.454 198.688 102.422 198.648 102.39 198.609C102.254 198.44 102.116 198.269 101.968 198.106C101.85 197.975 101.733 197.836 101.614 197.697C101.396 197.439 101.173 197.175 100.93 196.943C100.248 196.196 99.5122 195.501 98.7289 194.861C97.9461 194.219 97.1145 193.638 96.2416 193.125C95.5402 192.707 94.8205 192.32 94.0846 191.967Z" fill="black" stroke="#272727" stroke-width="0.400006"/>
<path d="M90.1479 196.466L90.1479 196.466L90.1517 196.468C91.1675 196.913 92.1122 197.505 92.9556 198.226C93.3725 198.586 93.7649 198.974 94.13 199.387C94.185 199.453 94.2398 199.518 94.2941 199.581C94.4216 199.731 94.5467 199.878 94.6674 200.033C94.7994 200.203 94.9149 200.377 95.0309 200.551C95.0642 200.601 95.0975 200.651 95.1312 200.701C95.4333 201.159 95.6985 201.64 95.9245 202.14C96.0511 202.427 96.1634 202.72 96.261 203.018C96.1744 202.933 96.0892 202.847 96.0034 202.76C95.8723 202.627 95.7396 202.492 95.5978 202.357C95.4415 202.208 95.292 202.056 95.141 201.902C95.1059 201.867 95.0707 201.831 95.0353 201.795C94.8497 201.607 94.6601 201.418 94.4581 201.239C94.2727 201.063 94.0893 200.882 93.9093 200.699C93.7799 200.568 93.6378 200.443 93.5025 200.323C93.4425 200.27 93.3838 200.218 93.3282 200.168C93.2698 200.115 93.2099 200.059 93.1488 200.001C93.0211 199.881 92.8876 199.756 92.749 199.641C92.6561 199.565 92.568 199.484 92.4756 199.399L92.4683 199.392C92.3752 199.307 92.2776 199.217 92.1734 199.132C91.3895 198.459 90.5744 197.827 89.7322 197.211C89.0772 196.732 88.4072 196.269 87.6928 195.806C88.5411 195.884 89.3717 196.106 90.1479 196.466Z" fill="black" stroke="#272727" stroke-width="0.400006"/>
<path d="M81.682 199.595C82.4965 199.893 83.2618 200.314 83.9505 200.845L83.9505 200.845L83.9535 200.848C84.8563 201.518 85.6632 202.308 86.3517 203.197L86.3523 203.198C87.0439 204.082 87.6151 205.054 88.0509 206.088L88.0516 206.089C88.3984 206.894 88.6388 207.74 88.7677 208.605C88.7456 208.573 88.7237 208.542 88.7019 208.51C88.6645 208.456 88.6272 208.402 88.5897 208.347C88.4725 208.176 88.3539 208.003 88.2294 207.836C88.0767 207.632 87.9324 207.419 87.7849 207.201L87.7693 207.178C87.6182 206.956 87.4637 206.729 87.2979 206.51C86.7819 205.752 86.2325 205.031 85.689 204.318C85.5957 204.196 85.5026 204.073 85.4099 203.951C84.7698 203.109 84.0766 202.295 83.3818 201.496C82.8402 200.872 82.2746 200.24 81.682 199.595Z" fill="black" stroke="#272727" stroke-width="0.400006"/>
<path d="M111.576 213.009L110.404 212.928C110.493 212.254 110.539 211.576 110.542 210.896C110.547 210.133 110.503 209.37 110.409 208.612L110.409 208.612L110.409 208.61C110.308 207.844 110.139 207.088 109.905 206.352L109.905 206.352L109.904 206.349C109.903 206.346 109.902 206.343 109.901 206.34L111.576 213.009ZM111.576 213.009C111.548 212.29 111.473 211.574 111.351 210.865L111.351 210.864L111.351 210.864C111.222 210.077 111.04 209.3 110.805 208.538C110.569 207.784 110.268 207.052 109.906 206.35L111.576 213.009Z" fill="black" stroke="#272727" stroke-width="0.400006"/>
<path d="M94.8733 218.905C94.8722 218.901 94.8712 218.897 94.8701 218.893C94.8713 218.896 94.8725 218.898 94.8737 218.9L94.8739 218.901C95.1641 219.487 95.3879 220.103 95.5412 220.739L95.5414 220.74C95.7007 221.389 95.8129 222.049 95.877 222.715L95.877 222.715L95.8772 222.717C95.9403 223.318 95.9668 223.922 95.9564 224.525L94.7917 224.364C94.913 223.828 95.0027 223.284 95.0606 222.737C95.1296 222.102 95.1543 221.463 95.1344 220.824C95.1187 220.177 95.0313 219.535 94.8738 218.907L94.8738 218.907L94.8733 218.905Z" fill="black" stroke="#272727" stroke-width="0.400006"/>
<path d="M87.0913 187.036C87.6772 186.627 88.2446 186.191 88.7919 185.73L88.792 185.73C89.3304 185.276 89.8442 184.794 90.3311 184.285L90.3311 184.285L90.3323 184.284C90.7551 183.835 91.1499 183.361 91.5146 182.863L92.405 183.613C91.9202 184.07 91.4056 184.495 90.8643 184.884L90.8637 184.884C90.2755 185.31 89.6627 185.702 89.0284 186.056L89.0275 186.056C88.397 186.412 87.7509 186.739 87.0913 187.036Z" fill="black" stroke="#272727" stroke-width="0.400006"/>
<path d="M69.2339 197.654L69.0233 196.504C69.2753 196.465 69.5251 196.413 69.7713 196.346L69.7714 196.346C70.0957 196.259 70.4286 196.16 70.7549 196.037C71.4093 195.799 72.0433 195.508 72.6507 195.167C73.2692 194.823 73.8588 194.43 74.4139 193.991C74.4229 193.984 74.4319 193.977 74.4409 193.97C74.433 193.979 74.425 193.988 74.4171 193.998C73.94 194.54 73.4221 195.045 72.8679 195.508L72.8675 195.508C72.309 195.978 71.7119 196.399 71.0826 196.768L71.0826 196.768L71.0786 196.771C70.7711 196.961 70.4452 197.13 70.1079 197.294C69.8229 197.429 69.5311 197.549 69.2339 197.654Z" fill="black" stroke="#272727" stroke-width="0.400006"/>
</svg>
