<svg width="330" height="326" viewBox="0 0 330 326" fill="none" xmlns="http://www.w3.org/2000/svg">
<path d="M165.495 324.64C256.079 324.485 329.489 310.903 329.46 294.303C329.432 277.703 255.976 264.372 165.393 264.527C74.8088 264.681 1.39908 278.264 1.42743 294.863C1.45577 311.463 74.9114 324.794 165.495 324.64Z" fill="#19888F" fill-opacity="0.6"/>
<path d="M71.5636 175.326C72.0755 227.934 108.482 270.225 167.742 269.646C225.641 269.082 262.579 226.091 262.067 173.468C261.555 120.844 236.928 75.9761 163.993 76.674C101.114 77.2869 71.0478 122.722 71.5636 175.326Z" fill="#FFE7E2" stroke="#272727" stroke-width="1.5924" stroke-miterlimit="10"/>
<path d="M80.3921 174.414C80.8715 222.018 113.804 260.291 167.427 259.77C219.82 259.258 253.246 220.335 252.782 172.731C252.319 125.127 230.031 84.4989 164.032 85.141C107.132 85.696 79.9287 126.81 80.3921 174.414Z" stroke="#272727" stroke-width="1.5924" stroke-miterlimit="10"/>
<path d="M136.002 188.54C147.764 188.52 157.279 176.562 157.254 161.831C157.229 147.1 147.673 135.175 135.91 135.195C124.148 135.215 114.633 147.173 114.658 161.904C114.683 176.634 124.239 188.56 136.002 188.54Z" fill="white" stroke="#272727" stroke-width="1.5924" stroke-miterlimit="10"/>
<path d="M221.349 161.721C221.374 176.451 211.86 188.41 200.096 188.43C188.332 188.45 178.777 176.524 178.752 161.794C178.727 147.064 188.241 135.105 200.005 135.085C205.885 135.075 211.217 138.052 215.078 142.87C218.94 147.688 221.336 154.357 221.349 161.721Z" fill="white" stroke="#272727" stroke-width="1.5924" stroke-miterlimit="10"/>
<path d="M140.361 175.339L141.043 175.139L148.434 172.974C146.75 167.965 141.983 163.586 136.288 163.654L140.361 175.339ZM140.361 175.339L141.048 175.522L148.545 177.526M140.361 175.339L148.545 177.526M148.545 177.526C148.744 183.693 142.959 188.717 136.6 188.3L136.6 188.3C129.542 187.84 123.741 182.916 123.66 176.13C123.577 169.332 129.225 163.741 136.288 163.654L148.545 177.526Z" fill="black" stroke="#272727" stroke-width="0.398099"/>
<path d="M205.54 174.654L204.856 174.851L205.542 175.037L213.028 177.076C213.2 183.243 207.392 188.24 201.033 187.796C193.978 187.3 188.202 182.352 188.151 175.563C188.1 168.761 193.776 163.201 200.838 163.149L200.838 163.149C206.533 163.105 211.265 167.506 212.941 172.525L205.54 174.654Z" fill="black" stroke="#272727" stroke-width="0.398099"/>
<path d="M175.71 182.17C175.135 183.502 174.248 184.676 173.124 185.594C172.411 186.144 171.631 186.6 170.801 186.951C169.603 187.429 168.316 187.642 167.027 187.576C165.739 187.511 164.48 187.167 163.336 186.57C162.193 185.972 161.192 185.135 160.402 184.115C159.612 183.094 159.052 181.916 158.76 180.659C158.468 179.403 158.45 178.098 158.709 176.834C158.968 175.57 159.497 174.377 160.26 173.336C161.022 172.296 162.001 171.432 163.128 170.804C164.255 170.177 165.505 169.8 166.791 169.701C168.098 169.573 169.416 169.759 170.637 170.241C171.858 170.724 172.947 171.489 173.814 172.475C174.671 173.362 175.37 174.388 175.882 175.509" fill="#FFDE72"/>
<path d="M175.71 182.17C175.135 183.502 174.248 184.676 173.124 185.594C172.411 186.144 171.631 186.6 170.801 186.951C169.603 187.429 168.316 187.642 167.027 187.576C165.739 187.511 164.48 187.167 163.336 186.57C162.193 185.972 161.192 185.135 160.402 184.115C159.612 183.094 159.052 181.916 158.76 180.659C158.468 179.403 158.45 178.098 158.709 176.834C158.968 175.57 159.497 174.377 160.26 173.336C161.022 172.296 162.001 171.432 163.128 170.804C164.255 170.177 165.505 169.8 166.791 169.701C168.098 169.573 169.416 169.759 170.637 170.241C171.858 170.724 172.947 171.489 173.814 172.475C174.671 173.362 175.37 174.388 175.882 175.509" stroke="#272727" stroke-width="1.5924" stroke-miterlimit="10" stroke-linecap="round"/>
<path d="M161.943 179.307C161.772 178.02 162.049 176.713 162.727 175.605C163.405 174.498 164.442 173.656 165.666 173.222" stroke="white" stroke-width="1.99049" stroke-miterlimit="10" stroke-linecap="round"/>
<path d="M147.667 186.318C157.482 182.91 167.5 190.787 167.064 201.166C167.003 203.625 166.45 206.046 165.436 208.287C158.249 223.59 128.418 227.531 115.285 213.946C108.984 207.428 108.141 198.56 108.085 194.053C108.95 195.95 110.298 197.586 111.995 198.796C118.719 203.486 127.92 199.258 134.056 195.609C138.431 192.994 141.795 188.848 146.561 186.754C146.915 186.594 147.285 186.45 147.667 186.318Z" fill="#474747" stroke="#272727" stroke-width="1.5924" stroke-miterlimit="10"/>
<path d="M186.378 185.854C176.551 182.479 166.56 190.39 167.028 200.768C167.098 203.227 167.661 205.646 168.684 207.883C175.92 223.162 205.764 227 218.854 213.371C225.129 206.831 225.946 197.96 225.986 193.454C225.126 195.352 223.784 196.992 222.092 198.21C215.385 202.923 206.169 198.726 200.02 195.098C195.637 192.498 192.258 188.364 187.485 186.286C187.131 186.127 186.756 185.985 186.378 185.854Z" fill="#474747" stroke="#272727" stroke-width="1.5924" stroke-miterlimit="10"/>
<path d="M162.206 121.535C165.442 120.401 168.963 120.373 172.218 121.454C172.556 121.569 172.92 121.589 173.269 121.512C173.618 121.435 173.939 121.264 174.197 121.018C174.456 120.771 174.642 120.458 174.735 120.113C174.828 119.768 174.825 119.404 174.726 119.061L169.064 100.141C168.944 99.7388 168.696 99.3864 168.359 99.1361C168.022 98.8858 167.613 98.751 167.193 98.7517C166.773 98.7525 166.365 98.8887 166.028 99.1401C165.692 99.3915 165.446 99.7448 165.326 100.147L159.718 119.142C159.618 119.484 159.613 119.846 159.705 120.19C159.796 120.534 159.98 120.846 160.237 121.092C160.493 121.339 160.812 121.511 161.16 121.589C161.507 121.667 161.869 121.648 162.206 121.535Z" fill="#F5816A" stroke="#272727" stroke-width="1.5924" stroke-miterlimit="10"/>
<path d="M163.19 231.421C166.43 232.543 169.95 232.56 173.202 231.471C173.54 231.353 173.904 231.331 174.254 231.406C174.604 231.481 174.926 231.651 175.186 231.897C175.446 232.143 175.633 232.456 175.727 232.802C175.821 233.147 175.818 233.512 175.718 233.855L170.121 252.795C170.002 253.197 169.756 253.55 169.419 253.802C169.083 254.053 168.674 254.189 168.255 254.19C167.835 254.191 167.426 254.056 167.089 253.806C166.751 253.556 166.504 253.203 166.383 252.801L160.71 233.825C160.608 233.484 160.601 233.121 160.691 232.776C160.781 232.432 160.964 232.118 161.22 231.87C161.475 231.622 161.794 231.449 162.142 231.37C162.489 231.29 162.852 231.308 163.19 231.421Z" fill="#8C7BC7" stroke="#272727" stroke-width="1.5924" stroke-miterlimit="10"/>
<path d="M124.656 127.347C124.656 127.347 135.918 115.405 146.464 126.996" stroke="#272727" stroke-width="1.5924" stroke-miterlimit="10" stroke-linecap="round"/>
<path d="M184.28 135.112C184.28 135.112 190.639 128.732 199.802 133.095C208.966 137.459 212.943 135.064 216.52 131.475" stroke="#272727" stroke-width="1.5924" stroke-miterlimit="10" stroke-linecap="round"/>
<path d="M157.381 223.795C157.381 223.795 162.917 213.574 174.869 219.127" stroke="#272727" stroke-width="1.5924" stroke-miterlimit="10" stroke-linecap="round"/>
<path d="M159.808 75.6771C159.808 75.6771 167.835 74.4691 172.985 75.6546C172.985 75.6546 174.622 71.416 172.975 69.906C171.328 68.3961 161.651 68.7311 159.798 69.9285C157.945 71.126 159.808 75.6771 159.808 75.6771Z" fill="#F7C326" stroke="#272727" stroke-width="1.5924" stroke-miterlimit="10" stroke-linecap="round"/>
<path d="M166.495 44.1324C160.997 44.1418 156.552 49.6949 156.564 56.5303C156.575 63.3656 161.039 68.9035 166.537 68.8941C172.035 68.8847 176.48 63.3356 176.469 56.4963C176.457 49.657 171.993 44.123 166.495 44.1324ZM166.532 65.5461C162.574 65.5529 159.359 61.5774 159.351 56.6449C159.342 51.7125 162.544 47.7221 166.501 47.7153C170.458 47.7085 173.674 51.6841 173.682 56.6205C173.69 61.5569 170.489 65.5394 166.532 65.5461Z" fill="#F7C326" stroke="#272727" stroke-width="1.5924" stroke-miterlimit="10" stroke-linecap="round"/>
<path d="M119.652 288.093L126.483 325.104L185.376 310.274L175.76 274.063L119.652 288.093Z" fill="white" stroke="#272727" stroke-width="1.5924" stroke-linecap="round" stroke-linejoin="round"/>
<path d="M78.06 209.567C78.1879 209.889 73.1014 215.149 72.7319 215.619C68.9465 220.562 65.803 226.113 64.0019 232.096C61.9673 238.899 61.4037 244.64 64.2814 251.359C66.9554 257.609 71.7856 262.979 77.9056 265.998C78.3185 266.23 78.7734 266.378 79.2439 266.434C81.1828 266.546 90.3753 257.362 90.5706 257.521C85.7101 253.469 82.5362 247.749 81.6696 241.48C81.2866 238.694 81.2618 235.88 82.2725 233.255C82.5222 232.609 85.4852 228.508 85.3012 228.038L78.06 209.567Z" fill="#119DA4" stroke="#272727" stroke-width="1.5924" stroke-miterlimit="10" stroke-linecap="round"/>
<path d="M246.709 280.511C246.709 280.511 254.84 291.21 263.968 281.345L257.756 234.082L243.031 236.679L246.709 280.511Z" fill="#119DA4" stroke="#272727" stroke-width="1.5924" stroke-miterlimit="10" stroke-linecap="round"/>
<path d="M132.776 280.506L143.533 285.663L139.932 274.921L99.2517 231.598C99.2517 231.598 93.2864 235.191 93.6886 237.578L132.776 280.506Z" fill="#FDB03B" stroke="#272727" stroke-width="1.1943" stroke-miterlimit="10"/>
<path d="M134.527 263.469C132.903 264.033 131.108 264.056 129.899 262.613C129.334 261.897 128.996 261.028 128.927 260.119C128.859 259.215 128.892 258.307 129.026 257.411C129.04 257.191 129.098 256.976 129.196 256.778C129.353 256.55 129.571 256.372 129.825 256.263C131.893 255.189 134.998 255.315 136.769 256.996C138.188 258.343 138.368 260.903 136.925 262.243C136.22 262.814 135.403 263.232 134.527 263.469Z" fill="white" stroke="#272727" stroke-width="1.5924" stroke-miterlimit="10"/>
<path d="M107.012 245.951C111.434 245.331 116.224 246.115 120.549 247.222C124.464 248.215 128.652 250.178 130.008 253.974C130.508 255.378 130.562 256.899 130.621 258.387C130.67 259.621 130.804 261.015 131.777 261.773C132.277 262.088 132.811 262.344 133.37 262.535C138.55 264.887 137.56 275.267 130.911 272.492C132.567 274.643 131.184 278.065 128.765 279.299C126.347 280.533 123.408 280.132 120.962 279.244C122.56 282.267 119.812 283.856 116.91 283.921C112.328 284.024 107.823 282.874 103.371 281.731L96.3292 279.92C94.9425 279.622 93.5969 279.158 92.3219 278.537C89.6402 277.088 87.8958 274.345 86.7723 271.516C85.4569 272.868 83.0038 272.45 81.7395 271.043C80.4751 269.636 80.185 267.602 80.3092 265.715C80.5115 263.024 81.4354 260.437 82.9836 258.226C84.314 256.309 86.0772 253.766 88.1733 252.668C89.6648 251.869 91.2563 251.361 92.8423 252.262C93.0798 252.376 93.2858 252.546 93.4423 252.758C93.5987 252.97 93.701 253.218 93.7401 253.478C94.3204 252.944 94.7771 252.282 95.4131 251.74C98.7603 248.931 102.662 246.564 107.012 245.951Z" fill="white" stroke="#272727" stroke-width="1.5924" stroke-miterlimit="10"/>
<path d="M120.632 279.134L108.281 273.582" stroke="#272727" stroke-width="0.398099"/>
<path d="M120.957 278.409L109.872 274.187L120.957 278.409ZM120.957 278.409C121.055 278.446 121.144 278.502 121.22 278.574C121.297 278.646 121.358 278.732 121.401 278.828C121.444 278.923 121.467 279.026 121.47 279.131C121.473 279.235 121.456 279.339 121.419 279.437C121.381 279.535 121.325 279.625 121.253 279.701C121.182 279.777 121.096 279.838 121 279.881C120.905 279.924 120.802 279.948 120.697 279.951C120.592 279.954 120.488 279.936 120.39 279.899L120.957 278.409ZM120.407 279.687L120.407 279.687L120.399 279.683L111.38 274.975L120.886 278.595L120.886 278.595C120.96 278.623 121.027 278.665 121.084 278.719C121.141 278.773 121.187 278.838 121.219 278.909C121.251 278.981 121.269 279.058 121.271 279.136C121.274 279.215 121.261 279.293 121.233 279.367C121.205 279.44 121.163 279.507 121.109 279.564C121.055 279.621 120.99 279.667 120.919 279.699C120.847 279.732 120.77 279.749 120.691 279.752C120.613 279.754 120.535 279.741 120.461 279.713L120.46 279.712C120.442 279.706 120.424 279.697 120.407 279.687Z" fill="#242038" stroke="#272727" stroke-width="0.398099"/>
<path d="M130.287 272.899L130.281 272.886L130.273 272.873C129.353 271.396 128.346 269.975 127.255 268.62C126.165 267.248 124.98 265.955 123.707 264.752C122.445 263.543 121.042 262.489 119.529 261.615C121.114 262.383 122.604 263.336 123.968 264.452L123.968 264.453C125.348 265.576 126.647 266.796 127.856 268.101L127.857 268.102C129.083 269.408 130.226 270.789 131.279 272.237C131.372 272.366 131.41 272.526 131.385 272.682C131.359 272.839 131.273 272.979 131.145 273.072C131.081 273.118 131.009 273.151 130.932 273.169C130.856 273.187 130.777 273.19 130.699 273.178C130.544 273.153 130.404 273.067 130.311 272.94L130.292 272.91L130.287 272.899Z" fill="#242038" stroke="#272727" stroke-width="0.398099"/>
<path d="M131.336 259.875L131.35 259.875C131.35 260.309 131.32 260.743 131.261 261.173L131.261 261.173L131.261 261.177C131.202 261.657 131.125 262.132 131.023 262.599C130.917 263.077 130.789 263.551 130.642 264.018C130.651 263.539 130.64 263.061 130.608 262.583C130.579 262.114 130.522 261.65 130.449 261.2C130.383 260.759 130.285 260.323 130.158 259.896L130.158 259.896L130.156 259.891C130.106 259.738 130.118 259.572 130.19 259.429C130.263 259.285 130.389 259.176 130.541 259.126C130.694 259.076 130.86 259.088 131.003 259.16C131.147 259.232 131.256 259.359 131.306 259.511L131.306 259.511L131.308 259.517C131.327 259.568 131.336 259.622 131.336 259.676L131.336 259.875Z" fill="#242038" stroke="#272727" stroke-width="0.398099"/>
<path d="M133.174 280.108L139.947 283.281L142.735 284.471L139.535 275.32C139.354 275.207 139.149 275.142 138.936 275.131C138.724 275.12 138.512 275.162 138.321 275.254C138.049 275.488 137.865 275.807 137.797 276.159C137.682 276.493 137.487 276.864 137.141 276.936C137.018 276.964 136.89 276.937 136.771 276.988C136.673 277.034 136.587 277.101 136.518 277.185C136.449 277.268 136.4 277.366 136.374 277.471C136.321 277.68 136.229 277.877 136.104 278.053C135.627 278.579 134.591 278.083 134.115 278.609C133.848 278.908 133.893 279.406 133.599 279.677C133.495 279.765 133.364 279.817 133.257 279.905C133.149 279.992 133.118 279.984 133.174 280.108Z" fill="#FCE7C9" stroke="#272727" stroke-width="0.398099" stroke-miterlimit="10"/>
<path d="M142.934 283.873C142.935 284.313 142.579 284.67 142.139 284.67C141.7 284.671 141.343 284.315 141.342 283.876C141.341 283.436 141.697 283.079 142.137 283.078C142.576 283.077 142.934 283.433 142.934 283.873Z" fill="#242038" stroke="#272727" stroke-width="0.398099"/>
<mask id="path-32-inside-1_1184_3067" fill="white">
<path d="M88.559 264.26C88.559 264.26 86.1758 267.449 86.9788 271.428Z"/>
</mask>
<path d="M88.559 264.26C88.559 264.26 86.1758 267.449 86.9788 271.428Z" fill="white"/>
<path d="M88.559 264.26C88.2401 264.021 88.24 264.021 88.2399 264.022C88.2398 264.022 88.2397 264.022 88.2396 264.022C88.2394 264.022 88.2392 264.023 88.2389 264.023C88.2384 264.024 88.2377 264.024 88.2369 264.026C88.2353 264.028 88.2331 264.031 88.2304 264.034C88.2249 264.042 88.2173 264.053 88.2077 264.066C88.1885 264.093 88.1612 264.132 88.1273 264.183C88.0596 264.284 87.9653 264.431 87.8554 264.619C87.6357 264.995 87.3528 265.538 87.096 266.209C86.5831 267.549 86.1676 269.421 86.5886 271.507L87.369 271.349C86.987 269.456 87.3616 267.743 87.8396 266.494C88.0781 265.87 88.3408 265.367 88.5429 265.021C88.6439 264.848 88.7294 264.715 88.7889 264.626C88.8186 264.582 88.8418 264.548 88.8571 264.527C88.8647 264.516 88.8704 264.508 88.8739 264.503C88.8757 264.501 88.8769 264.499 88.8775 264.498C88.8779 264.498 88.8781 264.498 88.8781 264.498C88.8781 264.498 88.8781 264.498 88.8781 264.498C88.8781 264.498 88.878 264.498 88.878 264.498C88.8779 264.498 88.8778 264.498 88.559 264.26Z" fill="#272727" mask="url(#path-32-inside-1_1184_3067)"/>
<path d="M87.2074 269.586L87.2074 269.587C87.2619 270.169 87.376 270.743 87.5479 271.302L87.5479 271.308L87.548 271.335L87.5556 271.362C87.5773 271.438 87.5837 271.518 87.5746 271.597C87.5656 271.675 87.5411 271.752 87.5025 271.821C87.4247 271.961 87.2946 272.064 87.1406 272.108C87.0644 272.13 86.9847 272.136 86.9059 272.127C86.8272 272.118 86.751 272.094 86.6817 272.055C86.5418 271.977 86.4384 271.847 86.3944 271.694C86.3833 271.654 86.3762 271.613 86.3735 271.572L86.3736 271.571L86.373 271.566C86.31 270.901 86.3194 270.23 86.4008 269.567L86.4008 269.567L86.4011 269.565C86.474 268.918 86.6204 268.283 86.8374 267.669L86.8374 267.669L86.8384 267.666C87.0414 267.062 87.3018 266.479 87.6158 265.925C87.6357 265.89 87.6557 265.856 87.676 265.821C87.665 265.856 87.6541 265.89 87.6434 265.925C87.452 266.521 87.3172 267.134 87.2408 267.756C87.1626 268.363 87.1514 268.977 87.2074 269.586Z" fill="#242038" stroke="#272727" stroke-width="0.398099"/>
<mask id="path-35-inside-2_1184_3067" fill="white">
<path d="M93.9151 253.303C93.9151 253.303 92.1274 255.496 91.7334 257.885Z"/>
</mask>
<path d="M93.9151 253.303C93.9151 253.303 92.1274 255.496 91.7334 257.885Z" fill="white"/>
<path d="M93.9151 253.303C93.6066 253.051 93.6065 253.052 93.6065 253.052C93.6064 253.052 93.6064 253.052 93.6063 253.052C93.6062 253.052 93.606 253.052 93.6058 253.052C93.6055 253.053 93.605 253.053 93.6044 253.054C93.6033 253.056 93.6017 253.057 93.5997 253.06C93.5958 253.065 93.5901 253.072 93.583 253.081C93.5686 253.099 93.548 253.125 93.5219 253.159C93.4697 253.227 93.3956 253.326 93.3059 253.451C93.1265 253.702 92.8839 254.061 92.6285 254.497C92.1211 255.363 91.549 256.557 91.3406 257.82L92.1262 257.95C92.3119 256.824 92.8306 255.727 93.3155 254.899C93.5564 254.488 93.7852 254.15 93.9534 253.915C94.0374 253.797 94.1061 253.706 94.1532 253.644C94.1768 253.614 94.1949 253.591 94.2069 253.575C94.213 253.568 94.2174 253.562 94.2202 253.559C94.2216 253.557 94.2226 253.556 94.2232 253.555C94.2235 253.555 94.2237 253.555 94.2238 253.554C94.2238 253.554 94.2238 253.554 94.2238 253.554C94.2238 253.554 94.2238 253.554 94.2238 253.554C94.2237 253.555 94.2237 253.555 93.9151 253.303Z" fill="#272727" mask="url(#path-35-inside-2_1184_3067)"/>
<path d="M93.5364 254.538L93.5361 254.538C93.262 254.854 93.0005 255.185 92.7513 255.528C92.4887 255.884 92.2535 256.258 92.0475 256.648C92.1239 256.21 92.2334 255.778 92.3753 255.356L92.3753 255.356L92.3759 255.354C92.5125 254.934 92.6688 254.521 92.8449 254.113C93.0262 253.697 93.2305 253.292 93.4569 252.899C93.4974 252.831 93.551 252.771 93.6146 252.724C93.6784 252.676 93.7509 252.641 93.8281 252.621C93.9054 252.601 93.9856 252.597 94.0645 252.608C94.1433 252.62 94.2192 252.646 94.2878 252.687C94.3565 252.728 94.4165 252.781 94.4642 252.845C94.5119 252.909 94.5466 252.981 94.5664 253.059C94.5862 253.136 94.5906 253.216 94.5793 253.295C94.568 253.374 94.5413 253.45 94.5006 253.519L94.5006 253.519L94.4986 253.522C94.4694 253.574 94.4341 253.622 94.3935 253.665C94.0909 253.939 93.8048 254.23 93.5364 254.538Z" fill="#242038" stroke="#272727" stroke-width="0.398099"/>
<path d="M236.516 219.818C236.498 223.258 237.61 225.887 239.346 228.759C239.458 228.906 239.523 229.083 239.534 229.268C239.492 229.486 239.381 229.684 239.217 229.834C236.237 233.254 236.703 238.25 241.685 239.201C243.959 239.639 246.287 239.05 248.527 238.461C253.501 237.158 262.459 237.565 264.862 231.9C266.087 229.031 262.955 227.126 264.124 224.142C265.503 220.601 267.604 217.516 268.685 213.784C270.765 206.672 270.985 199.145 269.324 191.923C267.696 184.975 264.979 174.936 259.207 170.244C258.035 169.294 256.389 168.29 254.825 168.372C253.822 168.426 251.789 169.237 253.069 170.557C251.681 169.13 249.218 170.03 248.341 171.6C247.404 173.282 247.778 174.909 248.055 176.812C247.955 176.119 245.337 177.123 245.074 177.294C243.989 178.005 243.831 178.722 243.594 179.877C242.895 183.286 243.173 187.214 242.972 190.698C242.678 195.758 242.384 200.875 241.122 205.805C240.545 208.067 239.607 209.188 238.48 211.061C237.178 213.217 236.745 216.163 236.57 218.628C236.535 219.022 236.52 219.42 236.516 219.818Z" fill="white" stroke="#272727" stroke-width="1.5924" stroke-linecap="round" stroke-linejoin="round"/>
<path d="M255.256 202.269C255.256 202.269 255.209 174.403 247.725 176.732Z" fill="white"/>
<path d="M255.256 202.269C255.256 202.269 255.209 174.403 247.725 176.732" stroke="#272727" stroke-width="1.5924" stroke-linecap="round" stroke-linejoin="round"/>
<path d="M260.809 190.317C260.809 190.317 259.593 177.182 253.611 171.221Z" fill="white"/>
<path d="M260.809 190.317C260.809 190.317 259.593 177.182 253.611 171.221" stroke="#272727" stroke-width="1.5924" stroke-linecap="round" stroke-linejoin="round"/>
<mask id="path-43-inside-3_1184_3067" fill="white">
<path d="M239.777 229.367C239.777 229.367 243.948 231.068 249.024 228.416Z"/>
</mask>
<path d="M239.777 229.367C239.777 229.367 243.948 231.068 249.024 228.416Z" fill="white"/>
<path d="M239.777 229.367C239.627 229.736 239.627 229.736 239.627 229.736C239.628 229.736 239.628 229.736 239.628 229.736C239.628 229.736 239.629 229.736 239.629 229.737C239.63 229.737 239.631 229.738 239.633 229.738C239.636 229.739 239.64 229.741 239.645 229.743C239.655 229.747 239.669 229.752 239.687 229.759C239.723 229.772 239.774 229.791 239.841 229.813C239.973 229.857 240.166 229.916 240.411 229.978C240.903 230.101 241.608 230.235 242.475 230.284C244.211 230.38 246.596 230.133 249.208 228.769L248.839 228.063C246.375 229.35 244.138 229.579 242.519 229.489C241.71 229.443 241.055 229.318 240.605 229.205C240.381 229.149 240.208 229.096 240.092 229.057C240.035 229.038 239.992 229.023 239.964 229.012C239.95 229.007 239.94 229.003 239.934 229.001C239.931 229 239.929 228.999 239.928 228.999C239.927 228.998 239.927 228.998 239.927 228.998C239.927 228.998 239.927 228.998 239.927 228.998C239.927 228.998 239.927 228.998 239.927 228.998C239.928 228.998 239.928 228.999 239.777 229.367Z" fill="#272727" mask="url(#path-43-inside-3_1184_3067)"/>
<path d="M241.006 229.192L241.006 229.192C240.97 229.181 240.933 229.169 240.895 229.157C240.757 229.115 240.61 229.069 240.47 229.014C240.352 228.971 240.236 228.923 240.121 228.871L240.11 228.883L239.978 228.814C239.949 228.799 239.919 228.787 239.887 228.778L239.881 228.777L239.881 228.777C239.806 228.754 239.727 228.746 239.648 228.754C239.57 228.762 239.494 228.785 239.424 228.822C239.355 228.859 239.293 228.91 239.243 228.97C239.193 229.031 239.156 229.102 239.133 229.177C239.11 229.252 239.103 229.332 239.11 229.41C239.118 229.488 239.141 229.564 239.179 229.634C239.216 229.703 239.266 229.765 239.327 229.815C239.388 229.865 239.458 229.902 239.533 229.925C239.95 230.047 240.377 230.133 240.809 230.182L240.809 230.182C241.222 230.23 241.638 230.257 242.054 230.263C243.683 230.275 245.298 229.962 246.804 229.342L246.813 229.338L246.813 229.338C246.831 229.332 246.849 229.325 246.867 229.319C246.846 229.323 246.825 229.327 246.804 229.331C246.032 229.508 245.244 229.608 244.453 229.629L241.006 229.192ZM241.006 229.192L241.01 229.193C241.377 229.301 241.75 229.389 242.127 229.455L241.006 229.192Z" fill="#242038" stroke="#272727" stroke-width="0.398099"/>
<path d="M101.153 254.642C100.454 254.736 99.7587 254.857 99.067 255.003C99.6399 254.455 100.323 254.034 101.073 253.769L101.073 253.769L101.075 253.768C102.758 253.153 104.6 253.13 106.297 253.705L106.299 253.706C107.056 253.953 107.751 254.356 108.34 254.888C107.643 254.757 106.943 254.655 106.239 254.573L106.239 254.573L106.236 254.573C105.391 254.489 104.541 254.456 103.693 254.477C102.844 254.481 101.997 254.536 101.155 254.642L101.155 254.642L101.153 254.642Z" fill="#242038" stroke="#272727" stroke-width="0.398099"/>
<path d="M100.278 260.442C99.6139 260.398 98.9483 260.383 98.283 260.396C98.9011 259.966 99.6102 259.68 100.357 259.564L100.357 259.564L100.36 259.563C102.023 259.278 103.733 259.611 105.168 260.499L105.168 260.499L105.17 260.5C105.816 260.889 106.366 261.416 106.781 262.042C106.174 261.785 105.558 261.554 104.931 261.348L104.93 261.347C104.177 261.102 103.408 260.908 102.628 260.768C101.853 260.607 101.068 260.498 100.279 260.442L100.279 260.442L100.278 260.442Z" fill="#242038" stroke="#272727" stroke-width="0.398099"/>
<path d="M96.5625 266.943C96.0412 266.508 95.5775 266.009 95.1821 265.458C95.9393 265.744 96.5534 266.02 97.152 266.289L97.1798 266.301C97.867 266.61 98.4907 266.902 99.1186 267.207C99.7469 267.512 100.375 267.825 101.04 268.161C101.622 268.456 102.232 268.774 102.933 269.188C102.255 269.222 101.575 269.171 100.909 269.035L100.909 269.035L100.907 269.035C100.107 268.882 99.3301 268.63 98.5939 268.283C97.8644 267.923 97.1825 267.474 96.5642 266.945L96.5642 266.945L96.5625 266.943Z" fill="#242038" stroke="#272727" stroke-width="0.398099"/>
<path d="M171.361 282.508L165.572 283.976L167.04 289.764L172.828 288.296L171.361 282.508Z" fill="white" stroke="#272727" stroke-width="0.796198" stroke-linecap="round" stroke-linejoin="round"/>
<path d="M173.767 291.262L167.979 292.73L169.447 298.518L175.235 297.051L173.767 291.262Z" fill="white" stroke="#272727" stroke-width="0.796198" stroke-linecap="round" stroke-linejoin="round"/>
<path d="M175.77 299.621L169.981 301.088L171.449 306.877L177.237 305.409L175.77 299.621Z" fill="white" stroke="#272727" stroke-width="0.796198" stroke-linecap="round" stroke-linejoin="round"/>
<path d="M136.579 293.04L163.638 286.226" stroke="#272727" stroke-width="0.796198" stroke-linecap="round" stroke-linejoin="round"/>
<path d="M138.187 301.796L165.247 294.982" stroke="#272727" stroke-width="0.796198" stroke-linecap="round" stroke-linejoin="round"/>
<path d="M140.192 310.551L166.853 303.737" stroke="#272727" stroke-width="0.796198" stroke-linecap="round" stroke-linejoin="round"/>
<path d="M102.255 124.504C102.255 124.504 88.5484 141.048 88.5891 164.934" stroke="white" stroke-width="1.99049" stroke-miterlimit="10" stroke-linecap="round"/>
<path d="M88.6072 176.081C88.6072 176.081 87.0427 192.406 92.633 202.349" stroke="white" stroke-width="1.99049" stroke-miterlimit="10" stroke-linecap="round"/>
</svg>
