<svg width="331" height="284" viewBox="0 0 331 284" fill="none" xmlns="http://www.w3.org/2000/svg">
<path d="M71.5638 132.471C72.0757 185.079 108.482 227.37 167.742 226.791C225.641 226.227 262.579 183.236 262.067 130.613C261.555 77.9887 236.928 33.1212 163.993 33.819C101.115 34.4319 71.048 79.8666 71.5638 132.471Z" fill="#FFE7E2" stroke="#272727" stroke-width="1.5924" stroke-miterlimit="10"/>
<path d="M80.3923 131.559C80.8717 179.163 113.804 217.436 167.427 216.915C219.82 216.403 253.246 177.48 252.783 129.876C252.319 82.2717 230.032 41.6439 164.032 42.2861C107.132 42.8411 79.9289 83.9555 80.3923 131.559Z" stroke="#272727" stroke-width="1.5924" stroke-miterlimit="10"/>
<path d="M136.002 145.685C147.764 145.665 157.28 133.707 157.254 118.976C157.229 104.245 147.673 92.3195 135.911 92.3396C124.148 92.3597 114.633 104.318 114.658 119.049C114.683 133.779 124.239 145.705 136.002 145.685Z" fill="white" stroke="#272727" stroke-width="1.5924" stroke-miterlimit="10"/>
<path d="M221.349 118.866C221.374 133.596 211.86 145.555 200.096 145.575C188.333 145.595 178.778 133.669 178.753 118.939C178.727 104.21 188.242 92.2503 200.005 92.2302C205.885 92.2202 211.217 95.1968 215.079 100.015C218.941 104.834 221.337 111.502 221.349 118.866Z" fill="white" stroke="#272727" stroke-width="1.5924" stroke-miterlimit="10"/>
<path d="M140.361 132.484L141.043 132.284L148.434 130.119C146.75 125.11 141.983 120.731 136.288 120.799L140.361 132.484ZM140.361 132.484L141.048 132.667L148.545 134.671M140.361 132.484L148.545 134.671M148.545 134.671C148.744 140.838 142.959 145.862 136.6 145.445L136.6 145.445C129.542 144.985 123.742 140.061 123.66 133.275C123.578 126.477 129.226 120.886 136.288 120.799L148.545 134.671Z" fill="black" stroke="#272727" stroke-width="0.398099"/>
<path d="M205.54 131.799L204.857 131.996L205.542 132.182L213.028 134.221C213.2 140.388 207.392 145.385 201.033 144.941C193.979 144.445 188.202 139.497 188.151 132.708C188.1 125.906 193.776 120.346 200.839 120.294L200.839 120.294C206.533 120.25 211.266 124.651 212.942 129.669L205.54 131.799Z" fill="black" stroke="#272727" stroke-width="0.398099"/>
<path d="M175.71 139.315C175.135 140.647 174.248 141.821 173.124 142.739C172.411 143.289 171.631 143.745 170.802 144.096C169.603 144.574 168.316 144.787 167.027 144.721C165.739 144.656 164.48 144.312 163.336 143.715C162.193 143.117 161.192 142.28 160.402 141.26C159.612 140.24 159.052 139.061 158.76 137.804C158.468 136.548 158.451 135.243 158.71 133.979C158.968 132.715 159.497 131.522 160.26 130.481C161.022 129.441 162.001 128.577 163.128 127.949C164.255 127.322 165.505 126.945 166.791 126.846C168.098 126.718 169.416 126.904 170.637 127.386C171.859 127.869 172.947 128.634 173.814 129.62C174.671 130.507 175.37 131.533 175.882 132.654" fill="#FFDE72"/>
<path d="M175.71 139.315C175.135 140.647 174.248 141.821 173.124 142.739C172.411 143.289 171.631 143.745 170.802 144.096C169.603 144.574 168.316 144.787 167.027 144.721C165.739 144.656 164.48 144.312 163.336 143.715C162.193 143.117 161.192 142.28 160.402 141.26C159.612 140.24 159.052 139.061 158.76 137.804C158.468 136.548 158.451 135.243 158.71 133.979C158.968 132.715 159.497 131.522 160.26 130.481C161.022 129.441 162.001 128.577 163.128 127.949C164.255 127.322 165.505 126.945 166.791 126.846C168.098 126.718 169.416 126.904 170.637 127.386C171.859 127.869 172.947 128.634 173.814 129.62C174.671 130.507 175.37 131.533 175.882 132.654" stroke="#272727" stroke-width="1.5924" stroke-miterlimit="10" stroke-linecap="round"/>
<path d="M161.943 136.452C161.773 135.165 162.049 133.858 162.727 132.75C163.405 131.643 164.443 130.801 165.667 130.367" stroke="white" stroke-width="1.99049" stroke-miterlimit="10" stroke-linecap="round"/>
<path d="M147.667 143.463C157.483 140.055 167.5 147.932 167.064 158.311C167.004 160.77 166.45 163.191 165.436 165.432C158.249 180.735 128.418 184.676 115.285 171.091C108.984 164.573 108.141 155.705 108.086 151.198C108.95 153.095 110.298 154.731 111.995 155.941C118.719 160.631 127.92 156.403 134.056 152.754C138.431 150.139 141.796 145.993 146.561 143.899C146.915 143.739 147.285 143.595 147.667 143.463Z" fill="#474747" stroke="#272727" stroke-width="1.5924" stroke-miterlimit="10"/>
<path d="M186.378 142.999C176.551 139.624 166.56 147.535 167.028 157.913C167.098 160.372 167.661 162.791 168.684 165.028C175.92 180.307 205.764 184.145 218.854 170.516C225.129 163.976 225.946 155.105 225.986 150.599C225.127 152.497 223.784 154.137 222.093 155.355C215.385 160.068 206.17 155.871 200.021 152.243C195.637 149.643 192.258 145.509 187.486 143.431C187.131 143.272 186.756 143.13 186.378 142.999Z" fill="#474747" stroke="#272727" stroke-width="1.5924" stroke-miterlimit="10"/>
<path d="M162.206 78.6795C165.443 77.5459 168.964 77.5175 172.218 78.5987C172.556 78.7139 172.92 78.7341 173.269 78.6573C173.618 78.5804 173.939 78.4093 174.198 78.1626C174.456 77.9159 174.642 77.6031 174.735 77.2581C174.828 76.9131 174.825 76.5492 174.726 76.2058L169.065 57.2859C168.944 56.8837 168.696 56.5313 168.359 56.2811C168.022 56.0308 167.613 55.896 167.193 55.8967C166.773 55.8974 166.365 56.0336 166.029 56.285C165.692 56.5365 165.446 56.8897 165.327 57.2923L159.718 76.2872C159.618 76.6287 159.613 76.991 159.705 77.3348C159.797 77.6787 159.981 77.9909 160.237 78.2375C160.493 78.4841 160.813 78.6557 161.16 78.7336C161.507 78.8115 161.869 78.7928 162.206 78.6795Z" fill="#F5816A" stroke="#272727" stroke-width="1.5924" stroke-miterlimit="10"/>
<path d="M163.19 188.566C166.43 189.688 169.951 189.705 173.202 188.616C173.54 188.498 173.904 188.476 174.254 188.551C174.604 188.626 174.927 188.796 175.186 189.042C175.446 189.288 175.633 189.601 175.727 189.947C175.821 190.292 175.818 190.657 175.718 191L170.122 209.94C170.002 210.342 169.756 210.695 169.419 210.947C169.083 211.198 168.675 211.334 168.255 211.335C167.835 211.336 167.426 211.201 167.089 210.951C166.752 210.701 166.504 210.348 166.383 209.946L160.71 190.97C160.608 190.629 160.601 190.266 160.691 189.921C160.781 189.577 160.964 189.263 161.22 189.015C161.476 188.767 161.795 188.594 162.142 188.515C162.489 188.435 162.852 188.453 163.19 188.566Z" fill="#8C7BC7" stroke="#272727" stroke-width="1.5924" stroke-miterlimit="10"/>
<path d="M124.656 84.4926C124.656 84.4926 135.918 72.5502 146.464 84.1408" stroke="#272727" stroke-width="1.5924" stroke-miterlimit="10" stroke-linecap="round"/>
<path d="M184.28 92.2574C184.28 92.2574 190.639 85.877 199.803 90.2404C208.966 94.6039 212.943 92.2085 216.52 88.6195" stroke="#272727" stroke-width="1.5924" stroke-miterlimit="10" stroke-linecap="round"/>
<path d="M157.381 180.94C157.381 180.94 162.917 170.719 174.87 176.272" stroke="#272727" stroke-width="1.5924" stroke-miterlimit="10" stroke-linecap="round"/>
<path d="M159.808 32.8222C159.808 32.8222 167.836 31.6142 172.985 32.7997C172.985 32.7997 174.622 28.5611 172.975 27.0511C171.329 25.5412 161.651 25.8762 159.798 27.0736C157.945 28.2711 159.808 32.8222 159.808 32.8222Z" fill="#F7C326" stroke="#272727" stroke-width="1.5924" stroke-miterlimit="10" stroke-linecap="round"/>
<path d="M166.495 1.27744C160.997 1.28683 156.552 6.83995 156.564 13.6753C156.575 20.5106 161.04 26.0485 166.537 26.0392C172.035 26.0298 176.48 20.4806 176.469 13.6413C176.457 6.80197 171.993 1.26805 166.495 1.27744ZM166.532 22.6911C162.575 22.6979 159.359 18.7224 159.351 13.79C159.342 8.85753 162.544 4.86708 166.501 4.86032C170.458 4.85357 173.674 8.82907 173.682 13.7655C173.691 18.7019 170.489 22.6844 166.532 22.6911Z" fill="#F7C326" stroke="#272727" stroke-width="1.5924" stroke-miterlimit="10" stroke-linecap="round"/>
<path d="M165.495 281.785C256.079 281.63 329.489 268.048 329.461 251.448C329.432 234.848 255.977 221.517 165.393 221.672C74.809 221.827 1.39932 235.409 1.42767 252.008C1.45602 268.608 74.9117 281.939 165.495 281.785Z" fill="#FEA08B" stroke="#272727" stroke-width="1.5924" stroke-miterlimit="10"/>
<path d="M119.652 245.238L126.483 282.249L185.376 267.419L175.76 231.208L119.652 245.238Z" fill="white" stroke="#272727" stroke-width="1.5924" stroke-linecap="round" stroke-linejoin="round"/>
<path d="M78.0603 166.712C78.1883 167.034 73.1017 172.294 72.7323 172.764C68.9468 177.707 65.8033 183.258 64.0022 189.241C61.9676 196.044 61.404 201.785 64.2818 208.504C66.9557 214.754 71.786 220.124 77.9059 223.143C78.3188 223.375 78.7737 223.523 79.2442 223.578C81.1832 223.691 90.3756 214.507 90.5709 214.666C85.7105 210.613 82.5365 204.894 81.6699 198.625C81.287 195.839 81.2622 193.025 82.2728 190.4C82.5225 189.754 85.4855 185.653 85.3016 185.183L78.0603 166.712Z" fill="#119DA4" stroke="#272727" stroke-width="1.5924" stroke-miterlimit="10" stroke-linecap="round"/>
<path d="M246.709 237.656C246.709 237.656 254.84 248.355 263.968 238.49L257.757 191.227L243.031 193.824L246.709 237.656Z" fill="#119DA4" stroke="#272727" stroke-width="1.5924" stroke-miterlimit="10" stroke-linecap="round"/>
<path d="M132.776 237.652L143.533 242.808L139.932 232.066L99.252 188.743C99.252 188.743 93.2867 192.336 93.6889 194.724L132.776 237.652Z" fill="#FDB03B" stroke="#272727" stroke-width="1.1943" stroke-miterlimit="10"/>
<path d="M134.527 220.614C132.904 221.178 131.108 221.201 129.899 219.758C129.334 219.042 128.996 218.173 128.928 217.264C128.859 216.36 128.892 215.452 129.027 214.556C129.04 214.336 129.098 214.121 129.197 213.923C129.353 213.695 129.571 213.517 129.825 213.408C131.893 212.334 134.999 212.46 136.769 214.141C138.188 215.488 138.368 218.048 136.925 219.388C136.22 219.959 135.403 220.377 134.527 220.614Z" fill="white" stroke="#272727" stroke-width="1.5924" stroke-miterlimit="10"/>
<path d="M107.012 203.096C111.434 202.476 116.224 203.26 120.55 204.367C124.465 205.36 128.652 207.323 130.008 211.119C130.508 212.523 130.563 214.044 130.621 215.532C130.671 216.766 130.804 218.16 131.777 218.918C132.277 219.233 132.812 219.489 133.371 219.68C138.55 222.032 137.561 232.412 130.912 229.637C132.567 231.787 131.184 235.21 128.766 236.444C126.347 237.678 123.409 237.277 120.963 236.389C122.56 239.412 119.812 241.001 116.91 241.066C112.328 241.169 107.824 240.019 103.371 238.876L96.3295 237.064C94.9428 236.767 93.5972 236.303 92.3222 235.682C89.6405 234.233 87.8961 231.49 86.7726 228.661C85.4572 230.013 83.0041 229.595 81.7398 228.188C80.4754 226.781 80.1854 224.747 80.3095 222.86C80.5118 220.169 81.4357 217.582 82.9839 215.371C84.3143 213.454 86.0775 210.911 88.1736 209.813C89.6651 209.014 91.2566 208.506 92.8426 209.406C93.0801 209.521 93.2861 209.691 93.4426 209.903C93.599 210.115 93.7013 210.363 93.7404 210.623C94.3207 210.089 94.7774 209.427 95.4134 208.885C98.7606 206.076 102.662 203.709 107.012 203.096Z" fill="white" stroke="#272727" stroke-width="1.5924" stroke-miterlimit="10"/>
<path d="M120.632 236.279L108.282 230.727" stroke="#272727" stroke-width="0.398099"/>
<path d="M120.957 235.554L109.872 231.332L120.957 235.554ZM120.957 235.554C121.055 235.591 121.145 235.647 121.221 235.719M120.957 235.554L121.221 235.719M121.221 235.719C121.297 235.791 121.358 235.877 121.401 235.973M121.221 235.719L121.401 235.973M121.401 235.973C121.444 236.068 121.468 236.171 121.471 236.276M121.401 235.973L121.471 236.276M121.471 236.276C121.474 236.38 121.456 236.484 121.419 236.582L121.471 236.276ZM120.407 236.832L120.407 236.832L120.399 236.828L111.381 232.12L120.886 235.74L120.887 235.74C120.96 235.768 121.027 235.81 121.084 235.864C121.141 235.918 121.188 235.983 121.22 236.054C121.252 236.126 121.269 236.203 121.272 236.281C121.274 236.36 121.261 236.438 121.233 236.512C121.205 236.585 121.163 236.652 121.109 236.709C121.055 236.766 120.991 236.812 120.919 236.844C120.847 236.877 120.77 236.894 120.691 236.897C120.613 236.899 120.535 236.886 120.461 236.858L120.46 236.857C120.442 236.851 120.424 236.842 120.407 236.832Z" fill="#242038" stroke="#272727" stroke-width="0.398099"/>
<path d="M130.287 230.044L130.281 230.031L130.273 230.018C129.354 228.541 128.346 227.12 127.255 225.764C126.166 224.393 124.98 223.1 123.707 221.897C122.445 220.688 121.042 219.634 119.529 218.76C121.115 219.528 122.605 220.481 123.968 221.597L123.969 221.597C125.348 222.721 126.647 223.941 127.856 225.246L127.857 225.247C129.083 226.553 130.226 227.934 131.28 229.382C131.372 229.511 131.41 229.671 131.385 229.827C131.36 229.984 131.273 230.124 131.145 230.217C131.081 230.263 131.009 230.296 130.933 230.314C130.856 230.332 130.777 230.335 130.7 230.323C130.544 230.298 130.405 230.212 130.312 230.085L130.292 230.055L130.287 230.044Z" fill="#242038" stroke="#272727" stroke-width="0.398099"/>
<path d="M131.337 217.02L131.35 217.02C131.35 217.454 131.32 217.888 131.261 218.318L131.261 218.318L131.261 218.322C131.203 218.802 131.125 219.277 131.024 219.744C130.917 220.222 130.79 220.696 130.642 221.163C130.651 220.684 130.64 220.206 130.608 219.728C130.579 219.259 130.522 218.795 130.449 218.345C130.383 217.904 130.286 217.468 130.158 217.041L130.158 217.041L130.156 217.036C130.106 216.883 130.118 216.717 130.191 216.574C130.263 216.43 130.389 216.321 130.542 216.271C130.694 216.221 130.86 216.233 131.004 216.305C131.147 216.377 131.256 216.504 131.306 216.656L131.306 216.656L131.308 216.662C131.327 216.713 131.336 216.767 131.336 216.821L131.337 217.02Z" fill="#242038" stroke="#272727" stroke-width="0.398099"/>
<path d="M133.174 237.253L139.947 240.426L142.736 241.616L139.535 232.465C139.355 232.352 139.149 232.287 138.937 232.276C138.724 232.265 138.513 232.307 138.321 232.399C138.05 232.633 137.865 232.952 137.797 233.304C137.682 233.638 137.488 234.009 137.141 234.081C137.018 234.109 136.891 234.082 136.771 234.133C136.673 234.179 136.587 234.246 136.518 234.33C136.45 234.413 136.4 234.511 136.374 234.616C136.321 234.825 136.23 235.022 136.104 235.198C135.628 235.724 134.592 235.228 134.115 235.754C133.849 236.053 133.893 236.551 133.599 236.822C133.496 236.91 133.364 236.962 133.257 237.05C133.15 237.137 133.118 237.129 133.174 237.253Z" fill="#FCE7C9" stroke="#272727" stroke-width="0.398099" stroke-miterlimit="10"/>
<path d="M142.934 241.018C142.935 241.458 142.579 241.815 142.14 241.815C141.7 241.816 141.343 241.46 141.342 241.021C141.341 240.581 141.697 240.224 142.137 240.223C142.577 240.222 142.934 240.578 142.934 241.018Z" fill="#242038" stroke="#272727" stroke-width="0.398099"/>
<path d="M88.1001 222.563L87.0288 227.423C86.9362 225.928 87.2621 224.592 87.654 223.568C87.8 223.186 87.9549 222.848 88.1001 222.563Z" fill="white" stroke="#272727" stroke-width="0.398099"/>
<path d="M87.2077 226.731L87.2078 226.732C87.2622 227.314 87.3764 227.888 87.5483 228.447L87.5483 228.453L87.5483 228.48L87.5559 228.507C87.5776 228.583 87.5841 228.663 87.575 228.742C87.5659 228.82 87.5414 228.897 87.5029 228.966L87.6768 229.063L87.5029 228.966C87.425 229.106 87.2949 229.209 87.141 229.253C87.0648 229.275 86.985 229.281 86.9063 229.272C86.8275 229.263 86.7514 229.239 86.682 229.2C86.5421 229.123 86.4388 228.992 86.3948 228.839C86.3836 228.799 86.3766 228.758 86.3738 228.717L86.3739 228.717L86.3734 228.711C86.3104 228.046 86.3197 227.375 86.4012 226.712L86.4012 226.712L86.4014 226.71C86.4744 226.063 86.6208 225.428 86.8378 224.814L86.8378 224.814L86.8388 224.811C87.0418 224.207 87.3021 223.624 87.6162 223.07C87.6361 223.035 87.6561 223.001 87.6764 222.966C87.6653 223.001 87.6545 223.035 87.6438 223.07C87.4524 223.666 87.3175 224.279 87.2412 224.901C87.163 225.508 87.1518 226.122 87.2077 226.731Z" fill="#242038" stroke="#272727" stroke-width="0.398099"/>
<mask id="path-34-inside-1_962_3451" fill="white">
<path d="M93.9155 210.448C93.9155 210.448 92.1278 212.641 91.7337 215.03L93.9155 210.448Z"/>
</mask>
<path d="M93.9155 210.448C93.9155 210.448 92.1278 212.641 91.7337 215.03L93.9155 210.448Z" fill="white"/>
<path d="M93.9155 210.448C93.6069 210.196 93.6069 210.197 93.6068 210.197C93.6068 210.197 93.6067 210.197 93.6066 210.197C93.6065 210.197 93.6064 210.197 93.6062 210.197C93.6058 210.198 93.6054 210.198 93.6048 210.199C93.6036 210.201 93.6021 210.202 93.6001 210.205C93.5961 210.21 93.5905 210.217 93.5833 210.226C93.5689 210.244 93.5483 210.27 93.5222 210.304C93.47 210.372 93.3959 210.471 93.3062 210.596C93.1269 210.847 92.8842 211.206 92.6289 211.642C92.1214 212.508 91.5493 213.702 91.3409 214.965L92.1265 215.095C92.3122 213.969 92.8309 212.872 93.3158 212.044C93.5567 211.633 93.7856 211.295 93.9538 211.06C94.0378 210.942 94.1064 210.851 94.1536 210.789C94.1771 210.759 94.1953 210.736 94.2073 210.721C94.2133 210.713 94.2177 210.707 94.2206 210.704C94.222 210.702 94.223 210.701 94.2235 210.7C94.2238 210.7 94.224 210.7 94.2241 210.699C94.2241 210.699 94.2241 210.699 94.2241 210.699C94.2241 210.699 94.2241 210.699 94.2241 210.7C94.224 210.7 94.224 210.7 93.9155 210.448Z" fill="#272727" mask="url(#path-34-inside-1_962_3451)"/>
<path d="M92.7516 212.673C92.489 213.029 92.2539 213.403 92.0479 213.793C92.1243 213.355 92.2337 212.923 92.3756 212.501L92.3756 212.501L92.3762 212.499C92.5128 212.079 92.6692 211.667 92.8452 211.258C93.0265 210.842 93.2308 210.437 93.4572 210.044C93.4977 209.976 93.5513 209.916 93.6149 209.869C93.6787 209.821 93.7513 209.786 93.8284 209.766C93.9057 209.746 93.9859 209.742 94.0648 209.753C94.1437 209.765 94.2196 209.791 94.2882 209.832C94.3568 209.873 94.4168 209.927 94.4645 209.99C94.5123 210.054 94.547 210.126 94.5668 210.204C94.5865 210.281 94.5909 210.361 94.5796 210.44C94.5683 210.519 94.5416 210.595 94.501 210.664L94.5009 210.664L94.499 210.667C94.4697 210.719 94.4344 210.767 94.3939 210.81C94.0913 211.084 93.8051 211.375 93.5367 211.683L93.5364 211.683C93.2623 211.999 93.0008 212.33 92.7516 212.673Z" fill="#242038" stroke="#272727" stroke-width="0.398099"/>
<path d="M236.517 176.963C236.499 180.403 237.61 183.032 239.347 185.904C239.458 186.051 239.523 186.228 239.535 186.413C239.492 186.631 239.381 186.829 239.217 186.979C236.237 190.399 236.703 195.395 241.685 196.346C243.959 196.784 246.287 196.195 248.527 195.606C253.501 194.303 262.459 194.71 264.862 189.045C266.087 186.176 262.955 184.271 264.124 181.287C265.504 177.746 267.604 174.661 268.685 170.929C270.766 163.817 270.986 156.29 269.324 149.068C267.696 142.12 264.98 132.081 259.207 127.389C258.035 126.439 256.389 125.435 254.825 125.517C253.822 125.571 251.789 126.382 253.069 127.702C251.681 126.275 249.219 127.175 248.341 128.745C247.405 130.427 247.778 132.054 248.056 133.957C247.955 133.264 245.337 134.268 245.075 134.439C243.989 135.15 243.831 135.867 243.594 137.022C242.896 140.431 243.173 144.359 242.972 147.843C242.678 152.903 242.384 158.02 241.123 162.95C240.545 165.212 239.608 166.333 238.48 168.206C237.178 170.362 236.745 173.308 236.571 175.773C236.535 176.167 236.52 176.565 236.517 176.963Z" fill="white" stroke="#272727" stroke-width="1.5924" stroke-linecap="round" stroke-linejoin="round"/>
<path d="M255.257 159.415C255.257 159.415 255.209 131.548 247.725 133.877L255.257 159.415Z" fill="white"/>
<path d="M255.257 159.415C255.257 159.415 255.209 131.548 247.725 133.877" stroke="#272727" stroke-width="1.5924" stroke-linecap="round" stroke-linejoin="round"/>
<path d="M260.81 147.462C260.81 147.462 259.593 134.327 253.611 128.366L260.81 147.462Z" fill="white"/>
<path d="M260.81 147.462C260.81 147.462 259.593 134.327 253.611 128.366" stroke="#272727" stroke-width="1.5924" stroke-linecap="round" stroke-linejoin="round"/>
<path d="M240.82 186.605L247.881 185.879C245.797 186.751 243.922 186.911 242.509 186.832C241.83 186.794 241.257 186.701 240.82 186.605Z" fill="white" stroke="#272727" stroke-width="0.398099"/>
<path d="M246.867 186.464C246.846 186.468 246.825 186.472 246.804 186.476C246.032 186.653 245.244 186.753 244.453 186.774C244.453 186.774 244.453 186.774 244.453 186.774L244.447 186.575C243.682 186.597 242.916 186.539 242.162 186.404L246.867 186.464ZM246.867 186.464C246.849 186.47 246.831 186.477 246.813 186.483L246.813 186.483L246.804 186.487C245.298 187.107 243.683 187.42 242.055 187.408C241.638 187.402 241.223 187.375 240.809 187.327L240.809 187.327C240.377 187.278 239.95 187.192 239.533 187.07C239.458 187.047 239.388 187.01 239.327 186.96C239.266 186.91 239.216 186.848 239.179 186.779C239.142 186.709 239.118 186.633 239.111 186.555C239.103 186.477 239.111 186.397 239.134 186.322C239.156 186.247 239.194 186.176 239.244 186.115C239.294 186.055 239.355 186.004 239.425 185.967C239.494 185.93 239.57 185.907 239.649 185.899C239.727 185.891 239.806 185.899 239.882 185.922L239.882 185.922L239.888 185.923C239.919 185.932 239.95 185.944 239.978 185.959L240.11 186.028L240.122 186.016C240.236 186.068 240.352 186.116 240.47 186.159C240.611 186.214 240.757 186.26 240.895 186.302C240.933 186.314 240.97 186.326 241.007 186.337L241.007 186.337L241.011 186.338C241.378 186.446 241.75 186.534 242.127 186.6L246.867 186.464Z" fill="#242038" stroke="#272727" stroke-width="0.398099"/>
<path d="M101.154 211.787C100.454 211.881 99.759 212.002 99.0673 212.148C99.6402 211.6 100.324 211.179 101.073 210.914L101.073 210.914L101.075 210.913C102.758 210.298 104.6 210.275 106.297 210.85L106.299 210.851C107.057 211.098 107.752 211.501 108.34 212.033C107.643 211.902 106.943 211.8 106.239 211.718L106.239 211.718L106.236 211.718C105.391 211.634 104.542 211.601 103.693 211.622C102.845 211.626 101.997 211.681 101.156 211.787L101.156 211.787L101.154 211.787Z" fill="#242038" stroke="#272727" stroke-width="0.398099"/>
<path d="M100.278 217.587C99.6143 217.543 98.9486 217.528 98.2833 217.541C98.9014 217.111 99.6105 216.825 100.358 216.709L100.358 216.709L100.36 216.708C102.024 216.423 103.733 216.756 105.168 217.644L105.168 217.644L105.17 217.645C105.816 218.034 106.366 218.561 106.781 219.187C106.175 218.93 105.558 218.699 104.931 218.493L104.93 218.492C104.177 218.247 103.408 218.053 102.628 217.913C101.854 217.752 101.069 217.643 100.279 217.587L100.279 217.587L100.278 217.587Z" fill="#242038" stroke="#272727" stroke-width="0.398099"/>
<path d="M96.5628 224.089C96.0415 223.653 95.5778 223.154 95.1824 222.603C95.9396 222.889 96.5537 223.165 97.1523 223.434L97.1801 223.446C97.8674 223.755 98.491 224.047 99.1189 224.352C99.7472 224.657 100.376 224.97 101.04 225.307C101.622 225.601 102.232 225.919 102.933 226.333C102.255 226.367 101.575 226.316 100.909 226.18L100.909 226.18L100.907 226.18C100.107 226.027 99.3304 225.775 98.5942 225.428C97.8646 225.068 97.1828 224.619 96.5645 224.09L96.5645 224.09L96.5628 224.089Z" fill="#242038" stroke="#272727" stroke-width="0.398099"/>
<path d="M171.361 239.653L165.573 241.121L167.04 246.909L172.829 245.442L171.361 239.653Z" fill="white" stroke="#272727" stroke-width="0.796198" stroke-linecap="round" stroke-linejoin="round"/>
<path d="M173.768 248.407L167.979 249.875L169.447 255.663L175.235 254.196L173.768 248.407Z" fill="white" stroke="#272727" stroke-width="0.796198" stroke-linecap="round" stroke-linejoin="round"/>
<path d="M175.77 256.765L169.982 258.233L171.449 264.021L177.238 262.554L175.77 256.765Z" fill="white" stroke="#272727" stroke-width="0.796198" stroke-linecap="round" stroke-linejoin="round"/>
<path d="M136.579 250.185L163.638 243.371" stroke="#272727" stroke-width="0.796198" stroke-linecap="round" stroke-linejoin="round"/>
<path d="M138.188 258.941L165.247 252.127" stroke="#272727" stroke-width="0.796198" stroke-linecap="round" stroke-linejoin="round"/>
<path d="M140.193 267.696L166.854 260.883" stroke="#272727" stroke-width="0.796198" stroke-linecap="round" stroke-linejoin="round"/>
<path d="M102.255 81.6489C102.255 81.6489 88.5486 98.1934 88.5894 122.079" stroke="white" stroke-width="1.99049" stroke-miterlimit="10" stroke-linecap="round"/>
<path d="M88.6074 133.226C88.6074 133.226 87.0429 149.551 92.6333 159.494" stroke="white" stroke-width="1.99049" stroke-miterlimit="10" stroke-linecap="round"/>
</svg>
