<svg width="329" height="284" viewBox="0 0 329 284" fill="none" xmlns="http://www.w3.org/2000/svg">
<path d="M164.495 281.785C255.079 281.63 328.489 268.048 328.461 251.448C328.432 234.848 254.977 221.517 164.393 221.672C73.809 221.827 0.399322 235.409 0.427669 252.008C0.456016 268.608 73.9117 281.939 164.495 281.785Z" fill="#19888F" fill-opacity="0.6"/>
<path d="M70.5638 132.471C71.0757 185.079 107.482 227.37 166.742 226.791C224.641 226.227 261.579 183.236 261.067 130.613C260.555 77.9887 235.928 33.1212 162.993 33.819C100.115 34.4319 70.048 79.8666 70.5638 132.471Z" fill="#FFE7E2" stroke="#272727" stroke-width="1.5924" stroke-miterlimit="10"/>
<path d="M79.3923 131.559C79.8717 179.163 112.804 217.436 166.427 216.915C218.82 216.403 252.246 177.48 251.783 129.876C251.319 82.2717 229.032 41.6439 163.032 42.2861C106.132 42.8411 78.9289 83.9555 79.3923 131.559Z" stroke="#272727" stroke-width="1.5924" stroke-miterlimit="10"/>
<path d="M135.002 145.685C146.764 145.665 156.28 133.707 156.254 118.976C156.229 104.245 146.673 92.3195 134.911 92.3396C123.148 92.3597 113.633 104.318 113.658 119.049C113.683 133.779 123.239 145.705 135.002 145.685Z" fill="white" stroke="#272727" stroke-width="1.5924" stroke-miterlimit="10"/>
<path d="M220.349 118.866C220.374 133.596 210.86 145.555 199.096 145.575C187.333 145.595 177.778 133.669 177.753 118.939C177.727 104.21 187.242 92.2503 199.005 92.2302C204.885 92.2202 210.217 95.1968 214.079 100.015C217.941 104.834 220.337 111.502 220.349 118.866Z" fill="white" stroke="#272727" stroke-width="1.5924" stroke-miterlimit="10"/>
<path d="M139.361 132.484L140.043 132.284L147.434 130.119C145.75 125.11 140.983 120.731 135.288 120.799L139.361 132.484ZM139.361 132.484L140.048 132.667L147.545 134.671M139.361 132.484L147.545 134.671M147.545 134.671C147.744 140.838 141.959 145.862 135.6 145.445L135.6 145.445C128.542 144.985 122.742 140.061 122.66 133.275C122.578 126.477 128.226 120.886 135.288 120.799L147.545 134.671Z" fill="black" stroke="#272727" stroke-width="0.398099"/>
<path d="M204.54 131.799L203.857 131.996L204.542 132.182L212.028 134.221C212.2 140.388 206.392 145.385 200.033 144.941C192.979 144.445 187.202 139.497 187.151 132.708C187.1 125.906 192.776 120.346 199.839 120.294L199.839 120.294C205.533 120.25 210.266 124.651 211.942 129.669L204.54 131.799Z" fill="black" stroke="#272727" stroke-width="0.398099"/>
<path d="M174.71 139.315C174.135 140.647 173.248 141.821 172.124 142.739C171.411 143.289 170.631 143.745 169.802 144.096C168.603 144.574 167.316 144.787 166.027 144.721C164.739 144.656 163.48 144.312 162.336 143.715C161.193 143.117 160.192 142.28 159.402 141.26C158.612 140.24 158.052 139.061 157.76 137.804C157.468 136.548 157.451 135.243 157.71 133.979C157.968 132.715 158.497 131.522 159.26 130.481C160.022 129.441 161.001 128.577 162.128 127.949C163.255 127.322 164.505 126.945 165.791 126.846C167.098 126.718 168.416 126.904 169.637 127.386C170.859 127.869 171.947 128.634 172.814 129.62C173.671 130.507 174.37 131.533 174.882 132.654" fill="#FFDE72"/>
<path d="M174.71 139.315C174.135 140.647 173.248 141.821 172.124 142.739C171.411 143.289 170.631 143.745 169.802 144.096C168.603 144.574 167.316 144.787 166.027 144.721C164.739 144.656 163.48 144.312 162.336 143.715C161.193 143.117 160.192 142.28 159.402 141.26C158.612 140.24 158.052 139.061 157.76 137.804C157.468 136.548 157.451 135.243 157.71 133.979C157.968 132.715 158.497 131.522 159.26 130.481C160.022 129.441 161.001 128.577 162.128 127.949C163.255 127.322 164.505 126.945 165.791 126.846C167.098 126.718 168.416 126.904 169.637 127.386C170.859 127.869 171.947 128.634 172.814 129.62C173.671 130.507 174.37 131.533 174.882 132.654" stroke="#272727" stroke-width="1.5924" stroke-miterlimit="10" stroke-linecap="round"/>
<path d="M160.943 136.452C160.773 135.165 161.049 133.858 161.727 132.75C162.405 131.643 163.443 130.801 164.667 130.367" stroke="white" stroke-width="1.99049" stroke-miterlimit="10" stroke-linecap="round"/>
<path d="M146.667 143.463C156.483 140.055 166.5 147.932 166.064 158.311C166.004 160.77 165.45 163.191 164.436 165.432C157.249 180.735 127.418 184.676 114.285 171.091C107.984 164.573 107.141 155.705 107.086 151.198C107.95 153.095 109.298 154.731 110.995 155.941C117.719 160.631 126.92 156.403 133.056 152.754C137.431 150.139 140.796 145.993 145.561 143.899C145.915 143.739 146.285 143.595 146.667 143.463Z" fill="#474747" stroke="#272727" stroke-width="1.5924" stroke-miterlimit="10"/>
<path d="M185.378 142.999C175.551 139.624 165.56 147.535 166.028 157.913C166.098 160.372 166.661 162.791 167.684 165.028C174.92 180.307 204.764 184.145 217.854 170.516C224.129 163.976 224.946 155.105 224.986 150.599C224.127 152.497 222.784 154.137 221.093 155.355C214.385 160.068 205.17 155.871 199.021 152.243C194.637 149.643 191.258 145.509 186.486 143.431C186.131 143.272 185.756 143.13 185.378 142.999Z" fill="#474747" stroke="#272727" stroke-width="1.5924" stroke-miterlimit="10"/>
<path d="M161.206 78.6795C164.443 77.5459 167.964 77.5175 171.218 78.5987C171.556 78.7139 171.92 78.7341 172.269 78.6573C172.618 78.5804 172.939 78.4093 173.198 78.1626C173.456 77.9159 173.642 77.6031 173.735 77.2581C173.828 76.9131 173.825 76.5492 173.726 76.2058L168.065 57.2859C167.944 56.8837 167.696 56.5313 167.359 56.2811C167.022 56.0308 166.613 55.896 166.193 55.8967C165.773 55.8974 165.365 56.0336 165.029 56.285C164.692 56.5365 164.446 56.8897 164.327 57.2923L158.718 76.2872C158.618 76.6287 158.613 76.991 158.705 77.3348C158.797 77.6787 158.981 77.9909 159.237 78.2375C159.493 78.4841 159.813 78.6557 160.16 78.7336C160.507 78.8115 160.869 78.7928 161.206 78.6795Z" fill="#F5816A" stroke="#272727" stroke-width="1.5924" stroke-miterlimit="10"/>
<path d="M162.19 188.566C165.43 189.688 168.951 189.705 172.202 188.616C172.54 188.498 172.904 188.476 173.254 188.551C173.604 188.626 173.927 188.796 174.186 189.042C174.446 189.288 174.633 189.601 174.727 189.947C174.821 190.292 174.818 190.657 174.718 191L169.122 209.94C169.002 210.342 168.756 210.695 168.419 210.947C168.083 211.198 167.675 211.334 167.255 211.335C166.835 211.336 166.426 211.201 166.089 210.951C165.752 210.701 165.504 210.348 165.383 209.946L159.71 190.97C159.608 190.629 159.601 190.266 159.691 189.921C159.781 189.577 159.964 189.263 160.22 189.015C160.476 188.767 160.795 188.594 161.142 188.515C161.489 188.435 161.852 188.453 162.19 188.566Z" fill="#8C7BC7" stroke="#272727" stroke-width="1.5924" stroke-miterlimit="10"/>
<path d="M123.656 84.4926C123.656 84.4926 134.918 72.5502 145.464 84.1408" stroke="#272727" stroke-width="1.5924" stroke-miterlimit="10" stroke-linecap="round"/>
<path d="M183.28 92.2574C183.28 92.2574 189.639 85.877 198.803 90.2404C207.966 94.6039 211.943 92.2085 215.52 88.6195" stroke="#272727" stroke-width="1.5924" stroke-miterlimit="10" stroke-linecap="round"/>
<path d="M156.381 180.94C156.381 180.94 161.917 170.719 173.87 176.272" stroke="#272727" stroke-width="1.5924" stroke-miterlimit="10" stroke-linecap="round"/>
<path d="M158.808 32.8222C158.808 32.8222 166.836 31.6142 171.985 32.7997C171.985 32.7997 173.622 28.5611 171.975 27.0511C170.329 25.5412 160.651 25.8762 158.798 27.0736C156.945 28.2711 158.808 32.8222 158.808 32.8222Z" fill="#F7C326" stroke="#272727" stroke-width="1.5924" stroke-miterlimit="10" stroke-linecap="round"/>
<path d="M165.495 1.27744C159.997 1.28683 155.552 6.83995 155.564 13.6753C155.575 20.5106 160.04 26.0485 165.537 26.0392C171.035 26.0298 175.48 20.4806 175.469 13.6413C175.457 6.80197 170.993 1.26805 165.495 1.27744ZM165.532 22.6911C161.575 22.6979 158.359 18.7224 158.351 13.79C158.342 8.85753 161.544 4.86708 165.501 4.86032C169.458 4.85357 172.674 8.82907 172.682 13.7655C172.691 18.7019 169.489 22.6844 165.532 22.6911Z" fill="#F7C326" stroke="#272727" stroke-width="1.5924" stroke-miterlimit="10" stroke-linecap="round"/>
<path d="M118.652 245.238L125.483 282.249L184.376 267.419L174.76 231.208L118.652 245.238Z" fill="white" stroke="#272727" stroke-width="1.5924" stroke-linecap="round" stroke-linejoin="round"/>
<path d="M77.0603 166.712C77.1883 167.034 72.1017 172.294 71.7323 172.764C67.9468 177.707 64.8033 183.258 63.0022 189.241C60.9676 196.044 60.404 201.785 63.2818 208.504C65.9557 214.754 70.786 220.124 76.9059 223.143C77.3188 223.375 77.7737 223.523 78.2442 223.578C80.1832 223.691 89.3756 214.507 89.5709 214.666C84.7105 210.613 81.5365 204.894 80.6699 198.625C80.287 195.839 80.2622 193.025 81.2728 190.4C81.5225 189.754 84.4855 185.653 84.3016 185.183L77.0603 166.712Z" fill="#119DA4" stroke="#272727" stroke-width="1.5924" stroke-miterlimit="10" stroke-linecap="round"/>
<path d="M245.709 237.656C245.709 237.656 253.84 248.355 262.968 238.49L256.757 191.227L242.031 193.824L245.709 237.656Z" fill="#119DA4" stroke="#272727" stroke-width="1.5924" stroke-miterlimit="10" stroke-linecap="round"/>
<path d="M131.776 237.652L142.533 242.808L138.932 232.066L98.252 188.743C98.252 188.743 92.2867 192.336 92.6889 194.724L131.776 237.652Z" fill="#FDB03B" stroke="#272727" stroke-width="1.1943" stroke-miterlimit="10"/>
<path d="M133.527 220.614C131.904 221.178 130.108 221.201 128.899 219.758C128.334 219.042 127.996 218.173 127.928 217.264C127.859 216.36 127.892 215.452 128.027 214.556C128.04 214.336 128.098 214.121 128.197 213.923C128.353 213.695 128.571 213.517 128.825 213.408C130.893 212.334 133.999 212.46 135.769 214.141C137.188 215.488 137.368 218.048 135.925 219.388C135.22 219.959 134.403 220.377 133.527 220.614Z" fill="white" stroke="#272727" stroke-width="1.5924" stroke-miterlimit="10"/>
<path d="M106.012 203.096C110.434 202.476 115.224 203.26 119.55 204.367C123.465 205.36 127.652 207.323 129.008 211.119C129.508 212.523 129.563 214.044 129.621 215.532C129.671 216.766 129.804 218.16 130.777 218.918C131.277 219.233 131.812 219.489 132.371 219.68C137.55 222.032 136.561 232.412 129.912 229.637C131.567 231.787 130.184 235.21 127.766 236.444C125.347 237.678 122.409 237.277 119.963 236.389C121.56 239.412 118.812 241.001 115.91 241.066C111.328 241.169 106.824 240.019 102.371 238.876L95.3295 237.064C93.9428 236.767 92.5972 236.303 91.3222 235.682C88.6405 234.233 86.8961 231.49 85.7726 228.661C84.4572 230.013 82.0041 229.595 80.7398 228.188C79.4754 226.781 79.1854 224.747 79.3095 222.86C79.5118 220.169 80.4357 217.582 81.9839 215.371C83.3143 213.454 85.0775 210.911 87.1736 209.813C88.6651 209.014 90.2566 208.506 91.8426 209.406C92.0801 209.521 92.2861 209.691 92.4426 209.903C92.599 210.115 92.7013 210.363 92.7404 210.623C93.3207 210.089 93.7774 209.427 94.4134 208.885C97.7606 206.076 101.662 203.709 106.012 203.096Z" fill="white" stroke="#272727" stroke-width="1.5924" stroke-miterlimit="10"/>
<path d="M119.632 236.279L107.282 230.727" stroke="#272727" stroke-width="0.398099"/>
<path d="M119.957 235.554L108.872 231.332L119.957 235.554ZM119.957 235.554C120.055 235.591 120.145 235.647 120.221 235.719M119.957 235.554L120.221 235.719M120.221 235.719C120.297 235.791 120.358 235.877 120.401 235.973M120.221 235.719L120.401 235.973M120.401 235.973C120.444 236.068 120.468 236.171 120.471 236.276M120.401 235.973L120.471 236.276M120.471 236.276C120.474 236.38 120.456 236.484 120.419 236.582L120.471 236.276ZM119.407 236.832L119.407 236.832L119.399 236.828L110.381 232.12L119.886 235.74L119.887 235.74C119.96 235.768 120.027 235.81 120.084 235.864C120.141 235.918 120.188 235.983 120.22 236.054C120.252 236.126 120.269 236.203 120.272 236.281C120.274 236.36 120.261 236.438 120.233 236.512C120.205 236.585 120.163 236.652 120.109 236.709C120.055 236.766 119.991 236.812 119.919 236.844C119.847 236.877 119.77 236.894 119.691 236.897C119.613 236.899 119.535 236.886 119.461 236.858L119.46 236.857C119.442 236.851 119.424 236.842 119.407 236.832Z" fill="#242038" stroke="#272727" stroke-width="0.398099"/>
<path d="M129.287 230.044L129.281 230.031L129.273 230.018C128.354 228.541 127.346 227.12 126.255 225.764C125.166 224.393 123.98 223.1 122.707 221.897C121.445 220.688 120.042 219.634 118.529 218.76C120.115 219.528 121.605 220.481 122.968 221.597L122.969 221.597C124.348 222.721 125.647 223.941 126.856 225.246L126.857 225.247C128.083 226.553 129.226 227.934 130.28 229.382C130.372 229.511 130.41 229.671 130.385 229.827C130.36 229.984 130.273 230.124 130.145 230.217C130.081 230.263 130.009 230.296 129.933 230.314C129.856 230.332 129.777 230.335 129.7 230.323C129.544 230.298 129.405 230.212 129.312 230.085L129.292 230.055L129.287 230.044Z" fill="#242038" stroke="#272727" stroke-width="0.398099"/>
<path d="M130.337 217.02L130.35 217.02C130.35 217.454 130.32 217.888 130.261 218.318L130.261 218.318L130.261 218.322C130.203 218.802 130.125 219.277 130.024 219.744C129.917 220.222 129.79 220.696 129.642 221.163C129.651 220.684 129.64 220.206 129.608 219.728C129.579 219.259 129.522 218.795 129.449 218.345C129.383 217.904 129.286 217.468 129.158 217.041L129.158 217.041L129.156 217.036C129.106 216.883 129.118 216.717 129.191 216.574C129.263 216.43 129.389 216.321 129.542 216.271C129.694 216.221 129.86 216.233 130.004 216.305C130.147 216.377 130.256 216.504 130.306 216.656L130.306 216.656L130.308 216.662C130.327 216.713 130.336 216.767 130.336 216.821L130.337 217.02Z" fill="#242038" stroke="#272727" stroke-width="0.398099"/>
<path d="M132.174 237.253L138.947 240.426L141.736 241.616L138.535 232.465C138.355 232.352 138.149 232.287 137.937 232.276C137.724 232.265 137.513 232.307 137.321 232.399C137.05 232.633 136.865 232.952 136.797 233.304C136.682 233.638 136.488 234.009 136.141 234.081C136.018 234.109 135.891 234.082 135.771 234.133C135.673 234.179 135.587 234.246 135.518 234.33C135.45 234.413 135.4 234.511 135.374 234.616C135.321 234.825 135.23 235.022 135.104 235.198C134.628 235.724 133.592 235.228 133.115 235.754C132.849 236.053 132.893 236.551 132.599 236.822C132.496 236.91 132.364 236.962 132.257 237.05C132.15 237.137 132.118 237.129 132.174 237.253Z" fill="#FCE7C9" stroke="#272727" stroke-width="0.398099" stroke-miterlimit="10"/>
<path d="M141.934 241.018C141.935 241.458 141.579 241.815 141.14 241.815C140.7 241.816 140.343 241.46 140.342 241.021C140.341 240.581 140.697 240.224 141.137 240.223C141.577 240.222 141.934 240.578 141.934 241.018Z" fill="#242038" stroke="#272727" stroke-width="0.398099"/>
<path d="M87.1001 222.563L86.0288 227.423C85.9362 225.928 86.2621 224.592 86.654 223.568C86.8 223.186 86.9549 222.848 87.1001 222.563Z" fill="white" stroke="#272727" stroke-width="0.398099"/>
<path d="M86.2077 226.731L86.2078 226.732C86.2622 227.314 86.3764 227.888 86.5483 228.447L86.5483 228.453L86.5483 228.48L86.5559 228.507C86.5776 228.583 86.5841 228.663 86.575 228.742C86.5659 228.82 86.5414 228.897 86.5029 228.966L86.6768 229.063L86.5029 228.966C86.425 229.106 86.2949 229.209 86.141 229.253C86.0648 229.275 85.985 229.281 85.9063 229.272C85.8275 229.263 85.7514 229.239 85.682 229.2C85.5421 229.123 85.4388 228.992 85.3948 228.839C85.3836 228.799 85.3766 228.758 85.3738 228.717L85.3739 228.717L85.3734 228.711C85.3104 228.046 85.3197 227.375 85.4012 226.712L85.4012 226.712L85.4014 226.71C85.4744 226.063 85.6208 225.428 85.8378 224.814L85.8378 224.814L85.8388 224.811C86.0418 224.207 86.3021 223.624 86.6162 223.07C86.6361 223.035 86.6561 223.001 86.6764 222.966C86.6653 223.001 86.6545 223.035 86.6438 223.07C86.4524 223.666 86.3175 224.279 86.2412 224.901C86.163 225.508 86.1518 226.122 86.2077 226.731Z" fill="#242038" stroke="#272727" stroke-width="0.398099"/>
<mask id="path-34-inside-1_962_3451" fill="white">
<path d="M92.9155 210.448C92.9155 210.448 91.1278 212.641 90.7337 215.03L92.9155 210.448Z"/>
</mask>
<path d="M92.9155 210.448C92.9155 210.448 91.1278 212.641 90.7337 215.03L92.9155 210.448Z" fill="white"/>
<path d="M92.9155 210.448C92.6069 210.196 92.6069 210.197 92.6068 210.197C92.6068 210.197 92.6067 210.197 92.6066 210.197C92.6065 210.197 92.6064 210.197 92.6062 210.197C92.6058 210.198 92.6054 210.198 92.6048 210.199C92.6036 210.201 92.6021 210.202 92.6001 210.205C92.5961 210.21 92.5905 210.217 92.5833 210.226C92.5689 210.244 92.5483 210.27 92.5222 210.304C92.47 210.372 92.3959 210.471 92.3062 210.596C92.1269 210.847 91.8842 211.206 91.6289 211.642C91.1214 212.508 90.5493 213.702 90.3409 214.965L91.1265 215.095C91.3122 213.969 91.8309 212.872 92.3158 212.044C92.5567 211.633 92.7856 211.295 92.9538 211.06C93.0378 210.942 93.1064 210.851 93.1536 210.789C93.1771 210.759 93.1953 210.736 93.2073 210.721C93.2133 210.713 93.2177 210.707 93.2206 210.704C93.222 210.702 93.223 210.701 93.2235 210.7C93.2238 210.7 93.224 210.7 93.2241 210.699C93.2241 210.699 93.2241 210.699 93.2241 210.699C93.2241 210.699 93.2241 210.699 93.2241 210.7C93.224 210.7 93.224 210.7 92.9155 210.448Z" fill="#272727" mask="url(#path-34-inside-1_962_3451)"/>
<path d="M91.7516 212.673C91.489 213.029 91.2539 213.403 91.0479 213.793C91.1243 213.355 91.2337 212.923 91.3756 212.501L91.3756 212.501L91.3762 212.499C91.5128 212.079 91.6692 211.667 91.8452 211.258C92.0265 210.842 92.2308 210.437 92.4572 210.044C92.4977 209.976 92.5513 209.916 92.6149 209.869C92.6787 209.821 92.7513 209.786 92.8284 209.766C92.9057 209.746 92.9859 209.742 93.0648 209.753C93.1437 209.765 93.2196 209.791 93.2882 209.832C93.3568 209.873 93.4168 209.927 93.4645 209.99C93.5123 210.054 93.547 210.126 93.5668 210.204C93.5865 210.281 93.5909 210.361 93.5796 210.44C93.5683 210.519 93.5416 210.595 93.501 210.664L93.5009 210.664L93.499 210.667C93.4697 210.719 93.4344 210.767 93.3939 210.81C93.0913 211.084 92.8051 211.375 92.5367 211.683L92.5364 211.683C92.2623 211.999 92.0008 212.33 91.7516 212.673Z" fill="#242038" stroke="#272727" stroke-width="0.398099"/>
<path d="M235.517 176.963C235.499 180.403 236.61 183.032 238.347 185.904C238.458 186.051 238.523 186.228 238.535 186.413C238.492 186.631 238.381 186.829 238.217 186.979C235.237 190.399 235.703 195.395 240.685 196.346C242.959 196.784 245.287 196.195 247.527 195.606C252.501 194.303 261.459 194.71 263.862 189.045C265.087 186.176 261.955 184.271 263.124 181.287C264.504 177.746 266.604 174.661 267.685 170.929C269.766 163.817 269.986 156.29 268.324 149.068C266.696 142.12 263.98 132.081 258.207 127.389C257.035 126.439 255.389 125.435 253.825 125.517C252.822 125.571 250.789 126.382 252.069 127.702C250.681 126.275 248.219 127.175 247.341 128.745C246.405 130.427 246.778 132.054 247.056 133.957C246.955 133.264 244.337 134.268 244.075 134.439C242.989 135.15 242.831 135.867 242.594 137.022C241.896 140.431 242.173 144.359 241.972 147.843C241.678 152.903 241.384 158.02 240.123 162.95C239.545 165.212 238.608 166.333 237.48 168.206C236.178 170.362 235.745 173.308 235.571 175.773C235.535 176.167 235.52 176.565 235.517 176.963Z" fill="white" stroke="#272727" stroke-width="1.5924" stroke-linecap="round" stroke-linejoin="round"/>
<path d="M254.257 159.415C254.257 159.415 254.209 131.548 246.725 133.877L254.257 159.415Z" fill="white"/>
<path d="M254.257 159.415C254.257 159.415 254.209 131.548 246.725 133.877" stroke="#272727" stroke-width="1.5924" stroke-linecap="round" stroke-linejoin="round"/>
<path d="M259.81 147.462C259.81 147.462 258.593 134.327 252.611 128.366L259.81 147.462Z" fill="white"/>
<path d="M259.81 147.462C259.81 147.462 258.593 134.327 252.611 128.366" stroke="#272727" stroke-width="1.5924" stroke-linecap="round" stroke-linejoin="round"/>
<path d="M239.82 186.605L246.881 185.879C244.797 186.751 242.922 186.911 241.509 186.832C240.83 186.794 240.257 186.701 239.82 186.605Z" fill="white" stroke="#272727" stroke-width="0.398099"/>
<path d="M245.867 186.464C245.846 186.468 245.825 186.472 245.804 186.476C245.032 186.653 244.244 186.753 243.453 186.774C243.453 186.774 243.453 186.774 243.453 186.774L243.447 186.575C242.682 186.597 241.916 186.539 241.162 186.404L245.867 186.464ZM245.867 186.464C245.849 186.47 245.831 186.477 245.813 186.483L245.813 186.483L245.804 186.487C244.298 187.107 242.683 187.42 241.055 187.408C240.638 187.402 240.223 187.375 239.809 187.327L239.809 187.327C239.377 187.278 238.95 187.192 238.533 187.07C238.458 187.047 238.388 187.01 238.327 186.96C238.266 186.91 238.216 186.848 238.179 186.779C238.142 186.709 238.118 186.633 238.111 186.555C238.103 186.477 238.111 186.397 238.134 186.322C238.156 186.247 238.194 186.176 238.244 186.115C238.294 186.055 238.355 186.004 238.425 185.967C238.494 185.93 238.57 185.907 238.649 185.899C238.727 185.891 238.806 185.899 238.882 185.922L238.882 185.922L238.888 185.923C238.919 185.932 238.95 185.944 238.978 185.959L239.11 186.028L239.122 186.016C239.236 186.068 239.352 186.116 239.47 186.159C239.611 186.214 239.757 186.26 239.895 186.302C239.933 186.314 239.97 186.326 240.007 186.337L240.007 186.337L240.011 186.338C240.378 186.446 240.75 186.534 241.127 186.6L245.867 186.464Z" fill="#242038" stroke="#272727" stroke-width="0.398099"/>
<path d="M100.154 211.787C99.4545 211.881 98.759 212.002 98.0673 212.148C98.6402 211.6 99.3236 211.179 100.073 210.914L100.073 210.914L100.075 210.913C101.758 210.298 103.6 210.275 105.297 210.85L105.299 210.851C106.057 211.098 106.752 211.501 107.34 212.033C106.643 211.902 105.943 211.8 105.239 211.718L105.239 211.718L105.236 211.718C104.391 211.634 103.542 211.601 102.693 211.622C101.845 211.626 100.997 211.681 100.156 211.787L100.156 211.787L100.154 211.787Z" fill="#242038" stroke="#272727" stroke-width="0.398099"/>
<path d="M99.2784 217.587C98.6143 217.543 97.9486 217.528 97.2833 217.541C97.9014 217.111 98.6105 216.825 99.3576 216.709L99.3576 216.709L99.3605 216.708C101.024 216.423 102.733 216.756 104.168 217.644L104.168 217.644L104.17 217.645C104.816 218.034 105.366 218.561 105.781 219.187C105.175 218.93 104.558 218.699 103.931 218.493L103.93 218.492C103.177 218.247 102.408 218.053 101.628 217.913C100.854 217.752 100.069 217.643 99.2793 217.587L99.2793 217.587L99.2784 217.587Z" fill="#242038" stroke="#272727" stroke-width="0.398099"/>
<path d="M95.5628 224.089C95.0415 223.653 94.5778 223.154 94.1824 222.603C94.9396 222.889 95.5537 223.165 96.1523 223.434L96.1801 223.446C96.8674 223.755 97.491 224.047 98.1189 224.352C98.7472 224.657 99.3757 224.97 100.04 225.307C100.622 225.601 101.232 225.919 101.933 226.333C101.255 226.367 100.575 226.316 99.9094 226.18L99.9094 226.18L99.9069 226.18C99.1074 226.027 98.3304 225.775 97.5942 225.428C96.8646 225.068 96.1828 224.619 95.5645 224.09L95.5645 224.09L95.5628 224.089Z" fill="#242038" stroke="#272727" stroke-width="0.398099"/>
<path d="M170.361 239.653L164.573 241.121L166.04 246.909L171.829 245.442L170.361 239.653Z" fill="white" stroke="#272727" stroke-width="0.796198" stroke-linecap="round" stroke-linejoin="round"/>
<path d="M172.768 248.407L166.979 249.875L168.447 255.663L174.235 254.196L172.768 248.407Z" fill="white" stroke="#272727" stroke-width="0.796198" stroke-linecap="round" stroke-linejoin="round"/>
<path d="M174.77 256.765L168.982 258.233L170.449 264.021L176.238 262.554L174.77 256.765Z" fill="white" stroke="#272727" stroke-width="0.796198" stroke-linecap="round" stroke-linejoin="round"/>
<path d="M135.579 250.185L162.638 243.371" stroke="#272727" stroke-width="0.796198" stroke-linecap="round" stroke-linejoin="round"/>
<path d="M137.188 258.941L164.247 252.127" stroke="#272727" stroke-width="0.796198" stroke-linecap="round" stroke-linejoin="round"/>
<path d="M139.193 267.696L165.854 260.883" stroke="#272727" stroke-width="0.796198" stroke-linecap="round" stroke-linejoin="round"/>
<path d="M101.255 81.6489C101.255 81.6489 87.5486 98.1934 87.5894 122.079" stroke="white" stroke-width="1.99049" stroke-miterlimit="10" stroke-linecap="round"/>
<path d="M87.6074 133.226C87.6074 133.226 86.0429 149.551 91.6333 159.494" stroke="white" stroke-width="1.99049" stroke-miterlimit="10" stroke-linecap="round"/>
</svg>
