<svg width="568" height="69" viewBox="0 0 568 69" fill="none" xmlns="http://www.w3.org/2000/svg">
<path d="M48.0015 20.3081C48.0015 18.8921 48.4165 17.8789 49.2466 17.2686C50.0767 16.6338 51.1509 16.3164 52.4692 16.3164H63.7852C65.1035 16.3164 66.1655 16.6338 66.9712 17.2686C67.8013 17.9033 68.2163 18.9165 68.2163 20.3081C68.2163 21.6509 67.8501 22.5786 67.1177 23.0913C66.4097 23.604 65.5552 24.1533 64.5542 24.7393C63.6021 25.3008 62.8818 26.0332 62.3936 26.9365C61.9297 27.8154 61.5146 28.7554 61.1484 29.7563L50.8579 57.4053C50.4673 58.4551 50.1499 59.4438 49.9058 60.3716C49.686 61.2993 49.5762 62.3369 49.5762 63.4844C49.5762 64.5098 49.2588 65.3521 48.624 66.0112C48.0137 66.6704 47.1836 67 46.1338 67H32.2544C31.1313 67 30.3013 66.646 29.7642 65.938C29.2271 65.23 28.9585 64.3511 28.9585 63.3013C28.9585 62.4468 28.8364 61.6167 28.5923 60.811C28.3481 59.981 28.0796 59.1753 27.7866 58.394L16.9468 28.9873C16.5562 27.9375 16.1777 27.144 15.8115 26.6069C15.4697 26.0698 14.8228 25.4839 13.8706 24.8491C12.8452 24.1655 12.064 23.5796 11.5269 23.0913C11.0142 22.5786 10.7578 21.6509 10.7578 20.3081C10.7578 18.8921 11.1729 17.8789 12.0029 17.2686C12.833 16.6338 13.9072 16.3164 15.2256 16.3164H36.2461C37.5645 16.3164 38.6265 16.6338 39.4321 17.2686C40.2622 17.8789 40.6772 18.8921 40.6772 20.3081C40.6772 21.3579 40.4209 22.1636 39.9082 22.7251C39.4199 23.2622 38.8462 23.7139 38.187 24.0801C37.5522 24.4463 36.9785 24.8613 36.4658 25.3252C35.9775 25.7891 35.7334 26.4604 35.7334 27.3394C35.7334 27.7788 35.7822 28.2183 35.8799 28.6577C35.9775 29.0972 36.0996 29.5244 36.2461 29.9395L44.1562 52.1318L52.7988 28.6211C53.0186 28.0107 53.1284 27.4614 53.1284 26.9731C53.1284 26.2163 52.8721 25.6426 52.3594 25.252C51.8467 24.8369 51.2485 24.4463 50.5649 24.0801C49.8813 23.7139 49.2832 23.2622 48.7705 22.7251C48.2578 22.1636 48.0015 21.3579 48.0015 20.3081Z" fill="#F46142"/>
<path d="M85.2451 28.3281C89.2734 28.3281 92.8013 29.1582 95.8286 30.8184C98.8804 32.4785 101.261 34.8101 102.97 37.813C104.679 40.8159 105.533 44.3438 105.533 48.3965C105.533 52.376 104.593 55.8428 102.713 58.7969C100.833 61.7266 98.3066 64.0093 95.1328 65.645C91.9834 67.2563 88.48 68.062 84.6226 68.062C80.5698 68.062 77.0176 67.2319 73.9658 65.5718C70.9141 63.8872 68.5337 61.5312 66.8247 58.5039C65.1401 55.4521 64.2979 51.8999 64.2979 47.8472C64.2979 43.8921 65.25 40.4497 67.1543 37.52C69.0586 34.5903 71.5977 32.332 74.7715 30.7451C77.9453 29.1338 81.4365 28.3281 85.2451 28.3281ZM87.3325 59.9688C87.9429 59.9688 88.3701 59.6514 88.6143 59.0166C88.8828 58.3818 89.0537 57.686 89.127 56.9292C89.2002 56.1479 89.2368 55.5498 89.2368 55.1348C89.2368 53.7432 89.127 52.3638 88.9072 50.9966C88.6875 49.605 88.4067 48.2378 88.0649 46.895C87.9429 46.3579 87.7109 45.5278 87.3691 44.4048C87.0273 43.2573 86.6123 42.061 86.124 40.8159C85.6357 39.5708 85.0986 38.5088 84.5127 37.6299C83.9268 36.751 83.3042 36.3115 82.645 36.3115C82.0835 36.3115 81.6685 36.6289 81.3999 37.2637C81.1558 37.8984 80.9971 38.6064 80.9238 39.3877C80.8506 40.1445 80.814 40.7183 80.814 41.1089C80.814 41.7681 80.9116 42.8301 81.1069 44.2949C81.3022 45.7354 81.583 47.3467 81.9492 49.1289C82.3398 50.9111 82.8037 52.6323 83.3408 54.2925C83.8779 55.9282 84.4761 57.2832 85.1353 58.3574C85.8188 59.4316 86.5513 59.9688 87.3325 59.9688Z" fill="#F46142"/>
<path d="M145.121 40.3398C145.121 42.6348 144.291 44.3804 142.63 45.5767C140.97 46.7729 139.09 47.3711 136.991 47.3711C134.842 47.3711 133.121 46.7852 131.827 45.6133C130.533 44.4414 129.886 42.7568 129.886 40.5596C129.886 39.5586 129.752 38.5454 129.483 37.52C129.239 36.4946 128.446 35.9819 127.103 35.9819C126.078 35.9819 125.296 36.4824 124.759 37.4834C124.222 38.4844 123.856 39.6074 123.661 40.8525C123.49 42.0977 123.404 43.0986 123.404 43.8555C123.404 45.9551 123.746 47.957 124.43 49.8613C125.113 51.7656 126.2 53.3159 127.689 54.5122C129.178 55.6841 131.107 56.27 133.475 56.27C134.867 56.27 136.246 55.9404 137.613 55.2812C138.98 54.5977 140.189 53.9263 141.239 53.2671C142.289 52.6079 143.021 52.2783 143.436 52.2783C144.193 52.2783 144.693 52.5835 144.938 53.1938C145.182 53.7798 145.304 54.3657 145.304 54.9517C145.304 57.1489 144.779 59.0654 143.729 60.7012C142.704 62.3369 141.336 63.7041 139.627 64.8027C137.943 65.877 136.1 66.6826 134.098 67.2197C132.12 67.7812 130.179 68.062 128.275 68.062C124.613 68.062 121.317 67.2808 118.387 65.7183C115.482 64.1313 113.175 61.9219 111.466 59.0898C109.781 56.2578 108.939 52.9863 108.939 49.2754C108.939 45.2471 109.757 41.6582 111.393 38.5088C113.028 35.3594 115.348 32.8813 118.351 31.0747C121.378 29.2437 124.942 28.3281 129.044 28.3281C130.875 28.3281 132.73 28.5601 134.61 29.0239C136.49 29.4634 138.224 30.1714 139.811 31.1479C141.397 32.1001 142.679 33.3452 143.656 34.8833C144.632 36.397 145.121 38.2158 145.121 40.3398Z" fill="#F46142"/>
<path d="M185.331 42.7935C185.331 44.9663 184.684 46.6143 183.39 47.7373C182.12 48.8604 180.436 49.4219 178.336 49.4219H163.578C164.139 51.5215 165.14 53.2915 166.581 54.7319C168.021 56.1479 170.096 56.856 172.806 56.856C173.88 56.856 174.942 56.6362 175.992 56.1968C177.066 55.7329 178.067 55.1958 178.995 54.5854C179.947 53.9751 180.777 53.4502 181.485 53.0107C182.193 52.5469 182.73 52.3149 183.097 52.3149C183.805 52.3149 184.317 52.5713 184.635 53.084C184.952 53.5723 185.111 54.1338 185.111 54.7686C185.111 56.9902 184.586 58.9434 183.536 60.6279C182.511 62.2881 181.144 63.6675 179.435 64.7661C177.75 65.8647 175.895 66.6826 173.868 67.2197C171.866 67.7812 169.889 68.062 167.936 68.062C164.103 68.062 160.721 67.2686 157.792 65.6816C154.862 64.0947 152.567 61.873 150.907 59.0166C149.271 56.1357 148.453 52.7544 148.453 48.8726C148.453 44.7222 149.247 41.1089 150.833 38.0327C152.445 34.9565 154.752 32.5762 157.755 30.8916C160.758 29.1826 164.359 28.3281 168.558 28.3281C171.463 28.3281 174.186 28.8774 176.725 29.9761C179.288 31.0747 181.363 32.6982 182.95 34.8467C184.537 36.9951 185.331 39.644 185.331 42.7935ZM162.918 43.7822C162.918 44.0508 162.918 44.3193 162.918 44.5879H166.727C167.655 44.5879 168.29 44.3804 168.631 43.9653C168.973 43.5259 169.144 42.8667 169.144 41.9878C169.144 41.4019 169.071 40.6328 168.924 39.6807C168.778 38.7285 168.485 37.874 168.045 37.1172C167.63 36.3604 167.02 35.9819 166.214 35.9819C165.482 35.9819 164.896 36.2871 164.457 36.8975C164.017 37.4834 163.688 38.228 163.468 39.1313C163.248 40.0103 163.102 40.877 163.028 41.7314C162.955 42.5859 162.918 43.2695 162.918 43.7822ZM180.46 23.897C180.46 24.7271 180.143 25.3862 179.508 25.8745C178.897 26.3628 178.202 26.6069 177.42 26.6069C176.883 26.6069 176.371 26.4971 175.882 26.2773C175.394 26.0576 174.942 25.7891 174.527 25.4717L166.91 19.5757L159.293 25.4717C158.878 25.7891 158.426 26.0576 157.938 26.2773C157.45 26.4971 156.937 26.6069 156.4 26.6069C155.643 26.6069 154.947 26.3628 154.312 25.8745C153.678 25.3862 153.36 24.7271 153.36 23.897C153.36 22.8716 153.727 21.9316 154.459 21.0771L160.392 14.1191C161.344 12.9961 162.271 12.0439 163.175 11.2627C164.078 10.4814 165.323 10.0908 166.91 10.0908C168.497 10.0908 169.742 10.4814 170.646 11.2627C171.549 12.0439 172.477 12.9961 173.429 14.1191L179.361 21.0771C180.094 21.9316 180.46 22.8716 180.46 23.897Z" fill="#F46142"/>
<path d="M228.104 39.168V55.9771C228.104 57.7104 228.336 58.7847 228.8 59.1997C229.288 59.5903 230.35 59.8833 231.986 60.0786C233.28 60.2495 234.305 60.4937 235.062 60.811C235.819 61.1284 236.197 62.0806 236.197 63.6675C236.197 64.7661 235.868 65.5962 235.208 66.1577C234.549 66.7192 233.683 67 232.608 67H210.086C209.061 67 208.207 66.7314 207.523 66.1943C206.864 65.6328 206.534 64.8149 206.534 63.7407C206.534 62.4956 206.791 61.6411 207.303 61.1772C207.816 60.7134 208.402 60.3594 209.061 60.1152C209.745 59.8467 210.343 59.4316 210.855 58.8701C211.368 58.3086 211.625 57.2954 211.625 55.8306V41.6948C211.625 40.7915 211.307 40.1201 210.672 39.6807C210.062 39.2412 209.354 38.8506 208.548 38.5088C207.743 38.1426 207.022 37.6787 206.388 37.1172C205.777 36.5312 205.472 35.6646 205.472 34.5171C205.472 33.5161 205.802 32.7593 206.461 32.2466C207.12 31.7095 207.914 31.4409 208.841 31.4409H211.734V31.0381C211.734 30.8184 211.368 30.4155 210.636 29.8296C209.928 29.2437 209.208 28.4868 208.475 27.5591C207.743 26.6313 207.376 25.5815 207.376 24.4097C207.376 22.2368 207.853 20.4058 208.805 18.9165C209.781 17.4028 211.051 16.1943 212.613 15.291C214.2 14.3633 215.934 13.6919 217.813 13.2769C219.693 12.8618 221.549 12.6543 223.38 12.6543C225.04 12.6543 226.749 12.8496 228.507 13.2402C230.265 13.6309 231.9 14.2534 233.414 15.1079C234.952 15.938 236.185 17.0488 237.113 18.4404C238.065 19.8076 238.541 21.48 238.541 23.4575C238.541 25.4595 237.979 27.0464 236.856 28.2183C235.733 29.3901 234.159 29.9761 232.132 29.9761C230.008 29.9761 228.299 29.3535 227.005 28.1084C225.736 26.8633 225.101 25.1665 225.101 23.0181C225.101 22.2856 225.064 21.5654 224.991 20.8574C224.942 20.125 224.723 19.5269 224.332 19.063C223.941 18.5747 223.258 18.3306 222.281 18.3306C221.28 18.3306 220.609 18.6724 220.267 19.356C219.95 20.0151 219.791 20.772 219.791 21.6265C219.791 22.603 220.133 23.4819 220.816 24.2632C221.524 25.0444 222.33 25.7891 223.233 26.4971C224.161 27.2051 224.967 27.9375 225.65 28.6943C226.358 29.4268 226.712 30.2324 226.712 31.1113V31.4409H233.414C234.317 31.4409 235.099 31.6729 235.758 32.1367C236.417 32.5762 236.747 33.2964 236.747 34.2974C236.747 35.7866 236.258 36.8853 235.282 37.5933C234.305 38.2769 233.146 38.7163 231.803 38.9116C230.46 39.0825 229.227 39.168 228.104 39.168Z" fill="#F46142"/>
<path d="M256.705 28.3281C257.706 28.3281 258.475 28.6699 259.012 29.3535C259.574 30.0371 259.854 30.855 259.854 31.8071V55.9771C259.854 56.6606 259.879 57.3564 259.928 58.0645C260.001 58.748 260.282 59.3462 260.77 59.8589C261.405 60.5425 261.93 61.0796 262.345 61.4702C262.784 61.8608 263.004 62.5933 263.004 63.6675C263.004 64.7417 262.662 65.5718 261.979 66.1577C261.319 66.7192 260.465 67 259.415 67H243.851C242.801 67 241.935 66.7192 241.251 66.1577C240.592 65.5962 240.262 64.7661 240.262 63.6675C240.262 62.6177 240.47 61.8853 240.885 61.4702C241.3 61.0308 241.837 60.4937 242.496 59.8589C242.984 59.3706 243.253 58.7603 243.302 58.0278C243.375 57.2954 243.412 56.6118 243.412 55.9771V43.1963C243.412 42.708 243.375 42.2075 243.302 41.6948C243.229 41.1577 243.021 40.7061 242.679 40.3398C242.582 40.2178 242.459 40.1201 242.313 40.0469C242.191 39.9736 242.081 39.8882 241.983 39.7905C241.446 39.229 240.946 38.7773 240.482 38.4355C240.042 38.0693 239.823 37.4346 239.823 36.5312C239.823 35.5547 240.128 34.7979 240.738 34.2607C241.349 33.7236 242.069 33.2964 242.899 32.979L250.809 29.793C251.737 29.4268 252.701 29.0972 253.702 28.8042C254.703 28.4868 255.704 28.3281 256.705 28.3281ZM251.212 28.1816C249.649 28.1816 248.075 27.9497 246.488 27.4858C244.901 27.022 243.57 26.2529 242.496 25.1787C241.446 24.0801 240.921 22.603 240.921 20.7476C240.921 18.8921 241.458 17.4395 242.533 16.3896C243.607 15.3154 244.938 14.5586 246.524 14.1191C248.111 13.6797 249.674 13.46 251.212 13.46C252.75 13.46 254.312 13.6797 255.899 14.1191C257.511 14.5586 258.854 15.3154 259.928 16.3896C261.026 17.4395 261.576 18.8921 261.576 20.7476C261.576 22.6274 261.039 24.1167 259.964 25.2153C258.89 26.2896 257.547 27.0586 255.936 27.5225C254.349 27.9619 252.774 28.1816 251.212 28.1816Z" fill="#F46142"/>
<path d="M283.365 28.3281C284.366 28.3281 285.123 28.6821 285.636 29.3901C286.173 30.0737 286.441 30.8794 286.441 31.8071V35.1763C288.37 33.394 290.494 31.8071 292.813 30.4155C295.133 29.0239 297.428 28.3281 299.698 28.3281C302.066 28.3281 304.032 28.9141 305.594 30.0859C307.157 31.2578 308.329 32.7837 309.11 34.6636C309.916 36.5435 310.318 38.5698 310.318 40.7427V55.9771C310.318 56.6606 310.343 57.332 310.392 57.9912C310.465 58.6504 310.733 59.2729 311.197 59.8589C311.759 60.5669 312.247 61.1162 312.662 61.5068C313.102 61.8975 313.321 62.6177 313.321 63.6675C313.321 64.7417 312.992 65.5718 312.333 66.1577C311.673 66.7192 310.819 67 309.769 67H294.461C293.436 67 292.643 66.6948 292.081 66.0845C291.544 65.4741 291.275 64.6685 291.275 63.6675C291.275 62.7397 291.483 62.0195 291.898 61.5068C292.337 60.9697 292.765 60.4204 293.18 59.8589C293.619 59.2729 293.839 58.4551 293.839 57.4053V44.6978C293.839 43.5503 293.607 42.4272 293.143 41.3286C292.704 40.23 291.776 39.6807 290.36 39.6807C289.505 39.6807 288.773 39.8516 288.163 40.1934C287.552 40.5107 286.979 40.9258 286.441 41.4385V56.4165C286.441 57.0757 286.466 57.7471 286.515 58.4307C286.563 59.0898 286.808 59.7002 287.247 60.2617C287.76 60.8721 288.187 61.3726 288.529 61.7632C288.871 62.1294 289.042 62.7642 289.042 63.6675C289.042 64.6685 288.761 65.4741 288.199 66.0845C287.662 66.6948 286.881 67 285.855 67H270.548C269.498 67 268.644 66.7192 267.984 66.1577C267.325 65.5718 266.996 64.7417 266.996 63.6675C266.996 62.8618 267.142 62.2393 267.435 61.7998C267.752 61.3359 268.106 60.9087 268.497 60.5181C268.888 60.1274 269.229 59.6514 269.522 59.0898C269.84 58.5283 269.999 57.7593 269.999 56.7827V43.1963C269.999 42.0977 269.828 41.2676 269.486 40.7061C269.144 40.1445 268.741 39.7051 268.277 39.3877C267.813 39.0459 267.411 38.6797 267.069 38.2891C266.727 37.8984 266.556 37.3125 266.556 36.5312C266.556 35.5791 266.874 34.8345 267.508 34.2974C268.143 33.7358 268.851 33.2964 269.632 32.979L277.542 29.793C278.47 29.4023 279.41 29.0605 280.362 28.7676C281.339 28.4746 282.34 28.3281 283.365 28.3281Z" fill="#F46142"/>
<path d="M316.397 58.5771C316.397 56.3311 316.922 54.4634 317.972 52.9741C319.022 51.4604 320.389 50.252 322.074 49.3486C323.783 48.4209 325.626 47.7617 327.604 47.3711C329.581 46.9805 331.485 46.7852 333.316 46.7852C333.854 46.7852 334.403 46.7974 334.964 46.8218C335.526 46.8218 336.075 46.8706 336.612 46.9683V37.4468C336.612 36.8364 336.478 36.1284 336.209 35.3228C335.965 34.5171 335.453 34.1143 334.671 34.1143C333.915 34.1143 333.438 34.4316 333.243 35.0664C333.072 35.6768 332.987 36.2627 332.987 36.8242C332.987 37.0684 332.987 37.3247 332.987 37.5933C333.011 37.8374 333.023 38.0938 333.023 38.3623C333.023 40.877 332.157 42.647 330.423 43.6724C328.69 44.6733 326.712 45.1738 324.491 45.1738C322.635 45.1738 321.024 44.7588 319.657 43.9287C318.29 43.0986 317.606 41.6338 317.606 39.5342C317.606 38.7041 317.765 37.8984 318.082 37.1172C318.424 36.3359 318.851 35.6401 319.364 35.0298C320.853 33.2231 322.721 31.8438 324.967 30.8916C327.237 29.9395 329.618 29.2925 332.108 28.9507C334.623 28.5845 336.979 28.4014 339.176 28.4014C341.666 28.4014 343.949 28.7554 346.024 29.4634C348.099 30.1714 349.759 31.3555 351.004 33.0156C352.25 34.6514 352.872 36.8608 352.872 39.644V56.5264C352.872 56.9414 352.97 57.3076 353.165 57.625C353.36 57.9424 353.69 58.1011 354.154 58.1011C354.52 58.1011 354.825 57.9912 355.069 57.7715C355.338 57.5273 355.655 57.4053 356.021 57.4053C356.729 57.4053 357.254 57.6494 357.596 58.1377C357.962 58.626 358.146 59.1997 358.146 59.8589C358.146 61.5679 357.621 63.0449 356.571 64.29C355.545 65.5107 354.264 66.4385 352.726 67.0732C351.188 67.7324 349.637 68.062 348.075 68.062C346.244 68.062 344.388 67.6592 342.508 66.8535C340.653 66.0479 339.371 64.7905 338.663 63.0815C337.418 64.8149 335.709 66.0845 333.536 66.8901C331.388 67.6714 329.276 68.062 327.201 68.062C325.296 68.062 323.514 67.708 321.854 67C320.218 66.2676 318.9 65.1934 317.899 63.7773C316.898 62.3613 316.397 60.6279 316.397 58.5771ZM332.914 55.3545C332.914 56.3311 333.146 57.2588 333.609 58.1377C334.073 58.9922 334.867 59.4194 335.99 59.4194C336.209 59.4194 336.417 59.395 336.612 59.3462V51.7656C336.197 51.5947 335.77 51.5093 335.331 51.5093C334.403 51.5093 333.768 51.9731 333.426 52.9009C333.084 53.8042 332.914 54.6221 332.914 55.3545Z" fill="#F46142"/>
<path d="M376.676 11.9219C377.677 11.9219 378.446 12.2637 378.983 12.9473C379.544 13.6309 379.825 14.4487 379.825 15.4009V55.9771C379.825 56.6851 379.862 57.3809 379.935 58.0645C380.008 58.7236 380.313 59.3218 380.851 59.8589C381.51 60.5181 382.071 61.0552 382.535 61.4702C383.023 61.8608 383.268 62.5933 383.268 63.6675C383.268 64.7661 382.926 65.5962 382.242 66.1577C381.559 66.7192 380.692 67 379.642 67H363.529C362.479 67 361.612 66.7192 360.929 66.1577C360.245 65.5962 359.903 64.7661 359.903 63.6675C359.903 62.7397 360.074 62.0684 360.416 61.6533C360.758 61.2139 361.161 60.8354 361.625 60.5181C362.088 60.2007 362.491 59.7612 362.833 59.1997C363.175 58.6138 363.346 57.6982 363.346 56.4531V26.7534C363.346 25.5815 363.15 24.7271 362.76 24.1899C362.369 23.6528 361.905 23.25 361.368 22.9814C360.855 22.6885 360.404 22.3589 360.013 21.9927C359.623 21.6021 359.427 20.9795 359.427 20.125C359.427 19.1484 359.745 18.3916 360.379 17.8545C361.014 17.3174 361.734 16.8901 362.54 16.5728L370.707 13.3867C371.683 12.9961 372.66 12.6543 373.636 12.3613C374.613 12.0684 375.626 11.9219 376.676 11.9219Z" fill="#F46142"/>
<path d="M403.702 28.3281C404.703 28.3281 405.472 28.6699 406.009 29.3535C406.571 30.0371 406.852 30.855 406.852 31.8071V55.9771C406.852 56.6606 406.876 57.3564 406.925 58.0645C406.998 58.748 407.279 59.3462 407.767 59.8589C408.402 60.5425 408.927 61.0796 409.342 61.4702C409.781 61.8608 410.001 62.5933 410.001 63.6675C410.001 64.7417 409.659 65.5718 408.976 66.1577C408.316 66.7192 407.462 67 406.412 67H390.848C389.798 67 388.932 66.7192 388.248 66.1577C387.589 65.5962 387.259 64.7661 387.259 63.6675C387.259 62.6177 387.467 61.8853 387.882 61.4702C388.297 61.0308 388.834 60.4937 389.493 59.8589C389.981 59.3706 390.25 58.7603 390.299 58.0278C390.372 57.2954 390.409 56.6118 390.409 55.9771V43.1963C390.409 42.708 390.372 42.2075 390.299 41.6948C390.226 41.1577 390.018 40.7061 389.676 40.3398C389.579 40.2178 389.457 40.1201 389.31 40.0469C389.188 39.9736 389.078 39.8882 388.98 39.7905C388.443 39.229 387.943 38.7773 387.479 38.4355C387.04 38.0693 386.82 37.4346 386.82 36.5312C386.82 35.5547 387.125 34.7979 387.735 34.2607C388.346 33.7236 389.066 33.2964 389.896 32.979L397.806 29.793C398.734 29.4268 399.698 29.0972 400.699 28.8042C401.7 28.4868 402.701 28.3281 403.702 28.3281ZM398.209 28.1816C396.646 28.1816 395.072 27.9497 393.485 27.4858C391.898 27.022 390.567 26.2529 389.493 25.1787C388.443 24.0801 387.918 22.603 387.918 20.7476C387.918 18.8921 388.456 17.4395 389.53 16.3896C390.604 15.3154 391.935 14.5586 393.521 14.1191C395.108 13.6797 396.671 13.46 398.209 13.46C399.747 13.46 401.31 13.6797 402.896 14.1191C404.508 14.5586 405.851 15.3154 406.925 16.3896C408.023 17.4395 408.573 18.8921 408.573 20.7476C408.573 22.6274 408.036 24.1167 406.961 25.2153C405.887 26.2896 404.544 27.0586 402.933 27.5225C401.346 27.9619 399.771 28.1816 398.209 28.1816Z" fill="#F46142"/>
<path d="M449.222 33.3452C449.222 34.3706 448.966 35.335 448.453 36.2383C447.94 37.1416 447.403 37.9961 446.842 38.8018L431.644 60.5547C433.255 60.457 434.659 60.2129 435.855 59.8223C437.076 59.4316 438.211 58.748 439.261 57.7715C440.335 56.7705 441.446 55.3301 442.594 53.4502C443.082 52.6201 443.558 51.8999 444.022 51.2896C444.51 50.6792 445.304 50.374 446.402 50.374C447.184 50.374 447.953 50.667 448.709 51.2529C449.466 51.8389 449.845 52.5591 449.845 53.4136C449.845 53.5845 449.833 53.7188 449.808 53.8164L447.647 65.2422C447.281 67.1709 446.17 68.1353 444.315 68.1353C443.265 68.1353 442.24 67.9399 441.239 67.5493C440.238 67.1831 439.2 67 438.126 67H419.12C418.167 67 417.203 66.8779 416.227 66.6338C415.274 66.3896 414.469 65.9624 413.81 65.3521C413.175 64.7173 412.857 63.814 412.857 62.6421C412.857 61.7632 413.004 60.8965 413.297 60.042C413.614 59.1875 414.017 58.4062 414.505 57.6982L429.959 35.7988C428.006 35.8477 426.285 36.2383 424.796 36.9707C423.331 37.7031 421.854 39.2412 420.365 41.585C419.852 42.3906 419.327 43.1108 418.79 43.7456C418.277 44.3804 417.484 44.6978 416.41 44.6978C415.604 44.6978 414.823 44.4048 414.066 43.8188C413.333 43.2085 412.967 42.4761 412.967 41.6216C412.967 41.4263 412.979 41.2798 413.004 41.1821L415.018 31.2212C415.409 29.2925 416.52 28.3281 418.351 28.3281C419.425 28.3281 420.462 28.5234 421.463 28.9141C422.464 29.3047 423.49 29.5 424.54 29.5H443.949C445.243 29.5 446.439 29.7563 447.538 30.269C448.661 30.7573 449.222 31.7827 449.222 33.3452Z" fill="#F46142"/>
<path d="M473.136 28.3281C477.164 28.3281 480.692 29.1582 483.719 30.8184C486.771 32.4785 489.151 34.8101 490.86 37.813C492.569 40.8159 493.424 44.3438 493.424 48.3965C493.424 52.376 492.484 55.8428 490.604 58.7969C488.724 61.7266 486.197 64.0093 483.023 65.645C479.874 67.2563 476.371 68.062 472.513 68.062C468.46 68.062 464.908 67.2319 461.856 65.5718C458.805 63.8872 456.424 61.5312 454.715 58.5039C453.031 55.4521 452.188 51.8999 452.188 47.8472C452.188 43.8921 453.141 40.4497 455.045 37.52C456.949 34.5903 459.488 32.332 462.662 30.7451C465.836 29.1338 469.327 28.3281 473.136 28.3281ZM475.223 59.9688C475.833 59.9688 476.261 59.6514 476.505 59.0166C476.773 58.3818 476.944 57.686 477.018 56.9292C477.091 56.1479 477.127 55.5498 477.127 55.1348C477.127 53.7432 477.018 52.3638 476.798 50.9966C476.578 49.605 476.297 48.2378 475.956 46.895C475.833 46.3579 475.602 45.5278 475.26 44.4048C474.918 43.2573 474.503 42.061 474.015 40.8159C473.526 39.5708 472.989 38.5088 472.403 37.6299C471.817 36.751 471.195 36.3115 470.536 36.3115C469.974 36.3115 469.559 36.6289 469.291 37.2637C469.046 37.8984 468.888 38.6064 468.814 39.3877C468.741 40.1445 468.705 40.7183 468.705 41.1089C468.705 41.7681 468.802 42.8301 468.998 44.2949C469.193 45.7354 469.474 47.3467 469.84 49.1289C470.23 50.9111 470.694 52.6323 471.231 54.2925C471.769 55.9282 472.367 57.2832 473.026 58.3574C473.709 59.4316 474.442 59.9688 475.223 59.9688Z" fill="#F46142"/>
<path d="M510.599 68.062C508.28 68.062 506.339 67.4761 504.776 66.3042C503.238 65.1079 502.091 63.5576 501.334 61.6533C500.577 59.749 500.199 57.7471 500.199 55.6475V43.1963C500.199 42.293 500.125 41.6582 499.979 41.292C499.833 40.9014 499.417 40.4009 498.734 39.7905C498.197 39.3022 497.684 38.8506 497.196 38.4355C496.732 37.9961 496.5 37.3613 496.5 36.5312C496.5 35.5791 496.805 34.8345 497.416 34.2974C498.05 33.7358 498.771 33.2964 499.576 32.979L507.633 29.793C508.585 29.4023 509.537 29.0605 510.489 28.7676C511.466 28.4746 512.479 28.3281 513.529 28.3281C514.53 28.3281 515.299 28.6821 515.836 29.3901C516.373 30.0737 516.642 30.8794 516.642 31.8071V51.6924C516.642 52.376 516.715 53.1084 516.861 53.8896C517.032 54.6709 517.35 55.3423 517.813 55.9038C518.277 56.4409 518.949 56.7095 519.828 56.7095C520.731 56.7095 521.524 56.5142 522.208 56.1235C522.892 55.7085 523.514 55.208 524.076 54.6221V43.1963C524.076 42.2686 523.99 41.5972 523.819 41.1821C523.673 40.7427 523.221 40.23 522.464 39.644C521.903 39.2046 521.415 38.7773 521 38.3623C520.584 37.9473 520.377 37.3369 520.377 36.5312C520.377 35.5791 520.682 34.8345 521.292 34.2974C521.927 33.7358 522.647 33.2964 523.453 32.979L531.51 29.793C532.462 29.4023 533.414 29.0605 534.366 28.7676C535.343 28.4746 536.356 28.3281 537.406 28.3281C538.407 28.3281 539.176 28.6699 539.713 29.3535C540.274 30.0371 540.555 30.855 540.555 31.8071V55.9771C540.555 56.6606 540.58 57.3442 540.628 58.0278C540.702 58.687 540.982 59.2974 541.471 59.8589C542.081 60.5181 542.618 61.0674 543.082 61.5068C543.546 61.9463 543.778 62.6665 543.778 63.6675C543.778 64.7661 543.448 65.5962 542.789 66.1577C542.13 66.7192 541.263 67 540.189 67H531.839C529.984 67 528.348 66.3042 526.932 64.9126C525.541 63.521 524.845 61.9097 524.845 60.0786C523.502 61.3726 522.037 62.6299 520.45 63.8506C518.863 65.0713 517.228 66.0845 515.543 66.8901C513.883 67.6714 512.235 68.062 510.599 68.062Z" fill="#F46142"/>
<path d="M557.84 12.2881C560.672 12.2881 562.992 12.9473 564.798 14.2656C566.629 15.584 567.545 17.769 567.545 20.8208C567.545 21.6753 567.472 22.5298 567.325 23.3843C567.203 24.2388 567.032 25.0811 566.812 25.9111L562.235 43.709C561.942 44.8809 561.466 45.8818 560.807 46.7119C560.172 47.5176 559.183 47.9204 557.84 47.9204C556.498 47.9204 555.497 47.5054 554.837 46.6753C554.203 45.8452 553.739 44.8564 553.446 43.709L548.832 25.9111C548.612 25.0811 548.429 24.2388 548.282 23.3843C548.16 22.5298 548.099 21.6753 548.099 20.8208C548.099 17.7446 549.015 15.5596 550.846 14.2656C552.677 12.9473 555.008 12.2881 557.84 12.2881ZM557.584 68.1353C555.899 68.1353 554.422 67.6836 553.153 66.7803C551.883 65.877 550.882 64.7051 550.15 63.2646C549.442 61.8242 549.088 60.3105 549.088 58.7236C549.088 57.1123 549.442 55.5986 550.15 54.1826C550.882 52.7422 551.883 51.5825 553.153 50.7036C554.422 49.8003 555.899 49.3486 557.584 49.3486C559.293 49.3486 560.782 49.8003 562.052 50.7036C563.346 51.5825 564.359 52.73 565.091 54.146C565.824 55.562 566.19 57.0879 566.19 58.7236C566.19 60.335 565.824 61.8608 565.091 63.3013C564.359 64.7173 563.346 65.877 562.052 66.7803C560.758 67.6836 559.269 68.1353 557.584 68.1353Z" fill="#F46142"/>
<mask id="path-2-outside-1_0_1" maskUnits="userSpaceOnUse" x="0.757812" y="0.0908203" width="565" height="67" fill="black">
<rect fill="white" x="0.757812" y="0.0908203" width="565" height="67"/>
<path d="M42.0015 14.3081C42.0015 12.8921 42.4165 11.8789 43.2466 11.2686C44.0767 10.6338 45.1509 10.3164 46.4692 10.3164H57.7852C59.1035 10.3164 60.1655 10.6338 60.9712 11.2686C61.8013 11.9033 62.2163 12.9165 62.2163 14.3081C62.2163 15.6509 61.8501 16.5786 61.1177 17.0913C60.4097 17.604 59.5552 18.1533 58.5542 18.7393C57.6021 19.3008 56.8818 20.0332 56.3936 20.9365C55.9297 21.8154 55.5146 22.7554 55.1484 23.7563L44.8579 51.4053C44.4673 52.4551 44.1499 53.4438 43.9058 54.3716C43.686 55.2993 43.5762 56.3369 43.5762 57.4844C43.5762 58.5098 43.2588 59.3521 42.624 60.0112C42.0137 60.6704 41.1836 61 40.1338 61H26.2544C25.1313 61 24.3013 60.646 23.7642 59.938C23.2271 59.23 22.9585 58.3511 22.9585 57.3013C22.9585 56.4468 22.8364 55.6167 22.5923 54.811C22.3481 53.981 22.0796 53.1753 21.7866 52.394L10.9468 22.9873C10.5562 21.9375 10.1777 21.144 9.81152 20.6069C9.46973 20.0698 8.82275 19.4839 7.87061 18.8491C6.84521 18.1655 6.06396 17.5796 5.52686 17.0913C5.01416 16.5786 4.75781 15.6509 4.75781 14.3081C4.75781 12.8921 5.17285 11.8789 6.00293 11.2686C6.83301 10.6338 7.90723 10.3164 9.22559 10.3164H30.2461C31.5645 10.3164 32.6265 10.6338 33.4321 11.2686C34.2622 11.8789 34.6772 12.8921 34.6772 14.3081C34.6772 15.3579 34.4209 16.1636 33.9082 16.7251C33.4199 17.2622 32.8462 17.7139 32.187 18.0801C31.5522 18.4463 30.9785 18.8613 30.4658 19.3252C29.9775 19.7891 29.7334 20.4604 29.7334 21.3394C29.7334 21.7788 29.7822 22.2183 29.8799 22.6577C29.9775 23.0972 30.0996 23.5244 30.2461 23.9395L38.1562 46.1318L46.7988 22.6211C47.0186 22.0107 47.1284 21.4614 47.1284 20.9731C47.1284 20.2163 46.8721 19.6426 46.3594 19.252C45.8467 18.8369 45.2485 18.4463 44.5649 18.0801C43.8813 17.7139 43.2832 17.2622 42.7705 16.7251C42.2578 16.1636 42.0015 15.3579 42.0015 14.3081Z"/>
<path d="M79.2451 22.3281C83.2734 22.3281 86.8013 23.1582 89.8286 24.8184C92.8804 26.4785 95.2607 28.8101 96.9697 31.813C98.6787 34.8159 99.5332 38.3438 99.5332 42.3965C99.5332 46.376 98.5933 49.8428 96.7134 52.7969C94.8335 55.7266 92.3066 58.0093 89.1328 59.645C85.9834 61.2563 82.48 62.062 78.6226 62.062C74.5698 62.062 71.0176 61.2319 67.9658 59.5718C64.9141 57.8872 62.5337 55.5312 60.8247 52.5039C59.1401 49.4521 58.2979 45.8999 58.2979 41.8472C58.2979 37.8921 59.25 34.4497 61.1543 31.52C63.0586 28.5903 65.5977 26.332 68.7715 24.7451C71.9453 23.1338 75.4365 22.3281 79.2451 22.3281ZM81.3325 53.9688C81.9429 53.9688 82.3701 53.6514 82.6143 53.0166C82.8828 52.3818 83.0537 51.686 83.127 50.9292C83.2002 50.1479 83.2368 49.5498 83.2368 49.1348C83.2368 47.7432 83.127 46.3638 82.9072 44.9966C82.6875 43.605 82.4067 42.2378 82.0649 40.895C81.9429 40.3579 81.7109 39.5278 81.3691 38.4048C81.0273 37.2573 80.6123 36.061 80.124 34.8159C79.6357 33.5708 79.0986 32.5088 78.5127 31.6299C77.9268 30.751 77.3042 30.3115 76.645 30.3115C76.0835 30.3115 75.6685 30.6289 75.3999 31.2637C75.1558 31.8984 74.9971 32.6064 74.9238 33.3877C74.8506 34.1445 74.814 34.7183 74.814 35.1089C74.814 35.7681 74.9116 36.8301 75.1069 38.2949C75.3022 39.7354 75.583 41.3467 75.9492 43.1289C76.3398 44.9111 76.8037 46.6323 77.3408 48.2925C77.8779 49.9282 78.4761 51.2832 79.1353 52.3574C79.8188 53.4316 80.5513 53.9688 81.3325 53.9688Z"/>
<path d="M139.121 34.3398C139.121 36.6348 138.291 38.3804 136.63 39.5767C134.97 40.7729 133.09 41.3711 130.991 41.3711C128.842 41.3711 127.121 40.7852 125.827 39.6133C124.533 38.4414 123.886 36.7568 123.886 34.5596C123.886 33.5586 123.752 32.5454 123.483 31.52C123.239 30.4946 122.446 29.9819 121.103 29.9819C120.078 29.9819 119.296 30.4824 118.759 31.4834C118.222 32.4844 117.856 33.6074 117.661 34.8525C117.49 36.0977 117.404 37.0986 117.404 37.8555C117.404 39.9551 117.746 41.957 118.43 43.8613C119.113 45.7656 120.2 47.3159 121.689 48.5122C123.178 49.6841 125.107 50.27 127.475 50.27C128.867 50.27 130.246 49.9404 131.613 49.2812C132.98 48.5977 134.189 47.9263 135.239 47.2671C136.289 46.6079 137.021 46.2783 137.436 46.2783C138.193 46.2783 138.693 46.5835 138.938 47.1938C139.182 47.7798 139.304 48.3657 139.304 48.9517C139.304 51.1489 138.779 53.0654 137.729 54.7012C136.704 56.3369 135.336 57.7041 133.627 58.8027C131.943 59.877 130.1 60.6826 128.098 61.2197C126.12 61.7812 124.179 62.062 122.275 62.062C118.613 62.062 115.317 61.2808 112.387 59.7183C109.482 58.1313 107.175 55.9219 105.466 53.0898C103.781 50.2578 102.939 46.9863 102.939 43.2754C102.939 39.2471 103.757 35.6582 105.393 32.5088C107.028 29.3594 109.348 26.8813 112.351 25.0747C115.378 23.2437 118.942 22.3281 123.044 22.3281C124.875 22.3281 126.73 22.5601 128.61 23.0239C130.49 23.4634 132.224 24.1714 133.811 25.1479C135.397 26.1001 136.679 27.3452 137.656 28.8833C138.632 30.397 139.121 32.2158 139.121 34.3398Z"/>
<path d="M179.331 36.7935C179.331 38.9663 178.684 40.6143 177.39 41.7373C176.12 42.8604 174.436 43.4219 172.336 43.4219H157.578C158.139 45.5215 159.14 47.2915 160.581 48.7319C162.021 50.1479 164.096 50.856 166.806 50.856C167.88 50.856 168.942 50.6362 169.992 50.1968C171.066 49.7329 172.067 49.1958 172.995 48.5854C173.947 47.9751 174.777 47.4502 175.485 47.0107C176.193 46.5469 176.73 46.3149 177.097 46.3149C177.805 46.3149 178.317 46.5713 178.635 47.084C178.952 47.5723 179.111 48.1338 179.111 48.7686C179.111 50.9902 178.586 52.9434 177.536 54.6279C176.511 56.2881 175.144 57.6675 173.435 58.7661C171.75 59.8647 169.895 60.6826 167.868 61.2197C165.866 61.7812 163.889 62.062 161.936 62.062C158.103 62.062 154.721 61.2686 151.792 59.6816C148.862 58.0947 146.567 55.873 144.907 53.0166C143.271 50.1357 142.453 46.7544 142.453 42.8726C142.453 38.7222 143.247 35.1089 144.833 32.0327C146.445 28.9565 148.752 26.5762 151.755 24.8916C154.758 23.1826 158.359 22.3281 162.558 22.3281C165.463 22.3281 168.186 22.8774 170.725 23.9761C173.288 25.0747 175.363 26.6982 176.95 28.8467C178.537 30.9951 179.331 33.644 179.331 36.7935ZM156.918 37.7822C156.918 38.0508 156.918 38.3193 156.918 38.5879H160.727C161.655 38.5879 162.29 38.3804 162.631 37.9653C162.973 37.5259 163.144 36.8667 163.144 35.9878C163.144 35.4019 163.071 34.6328 162.924 33.6807C162.778 32.7285 162.485 31.874 162.045 31.1172C161.63 30.3604 161.02 29.9819 160.214 29.9819C159.482 29.9819 158.896 30.2871 158.457 30.8975C158.017 31.4834 157.688 32.228 157.468 33.1313C157.248 34.0103 157.102 34.877 157.028 35.7314C156.955 36.5859 156.918 37.2695 156.918 37.7822ZM174.46 17.897C174.46 18.7271 174.143 19.3862 173.508 19.8745C172.897 20.3628 172.202 20.6069 171.42 20.6069C170.883 20.6069 170.371 20.4971 169.882 20.2773C169.394 20.0576 168.942 19.7891 168.527 19.4717L160.91 13.5757L153.293 19.4717C152.878 19.7891 152.426 20.0576 151.938 20.2773C151.45 20.4971 150.937 20.6069 150.4 20.6069C149.643 20.6069 148.947 20.3628 148.312 19.8745C147.678 19.3862 147.36 18.7271 147.36 17.897C147.36 16.8716 147.727 15.9316 148.459 15.0771L154.392 8.11914C155.344 6.99609 156.271 6.04395 157.175 5.2627C158.078 4.48145 159.323 4.09082 160.91 4.09082C162.497 4.09082 163.742 4.48145 164.646 5.2627C165.549 6.04395 166.477 6.99609 167.429 8.11914L173.361 15.0771C174.094 15.9316 174.46 16.8716 174.46 17.897Z"/>
<path d="M222.104 33.168V49.9771C222.104 51.7104 222.336 52.7847 222.8 53.1997C223.288 53.5903 224.35 53.8833 225.986 54.0786C227.28 54.2495 228.305 54.4937 229.062 54.811C229.819 55.1284 230.197 56.0806 230.197 57.6675C230.197 58.7661 229.868 59.5962 229.208 60.1577C228.549 60.7192 227.683 61 226.608 61H204.086C203.061 61 202.207 60.7314 201.523 60.1943C200.864 59.6328 200.534 58.8149 200.534 57.7407C200.534 56.4956 200.791 55.6411 201.303 55.1772C201.816 54.7134 202.402 54.3594 203.061 54.1152C203.745 53.8467 204.343 53.4316 204.855 52.8701C205.368 52.3086 205.625 51.2954 205.625 49.8306V35.6948C205.625 34.7915 205.307 34.1201 204.672 33.6807C204.062 33.2412 203.354 32.8506 202.548 32.5088C201.743 32.1426 201.022 31.6787 200.388 31.1172C199.777 30.5312 199.472 29.6646 199.472 28.5171C199.472 27.5161 199.802 26.7593 200.461 26.2466C201.12 25.7095 201.914 25.4409 202.841 25.4409H205.734V25.0381C205.734 24.8184 205.368 24.4155 204.636 23.8296C203.928 23.2437 203.208 22.4868 202.475 21.5591C201.743 20.6313 201.376 19.5815 201.376 18.4097C201.376 16.2368 201.853 14.4058 202.805 12.9165C203.781 11.4028 205.051 10.1943 206.613 9.29102C208.2 8.36328 209.934 7.69189 211.813 7.27686C213.693 6.86182 215.549 6.6543 217.38 6.6543C219.04 6.6543 220.749 6.84961 222.507 7.24023C224.265 7.63086 225.9 8.25342 227.414 9.10791C228.952 9.93799 230.185 11.0488 231.113 12.4404C232.065 13.8076 232.541 15.48 232.541 17.4575C232.541 19.4595 231.979 21.0464 230.856 22.2183C229.733 23.3901 228.159 23.9761 226.132 23.9761C224.008 23.9761 222.299 23.3535 221.005 22.1084C219.736 20.8633 219.101 19.1665 219.101 17.0181C219.101 16.2856 219.064 15.5654 218.991 14.8574C218.942 14.125 218.723 13.5269 218.332 13.063C217.941 12.5747 217.258 12.3306 216.281 12.3306C215.28 12.3306 214.609 12.6724 214.267 13.356C213.95 14.0151 213.791 14.772 213.791 15.6265C213.791 16.603 214.133 17.4819 214.816 18.2632C215.524 19.0444 216.33 19.7891 217.233 20.4971C218.161 21.2051 218.967 21.9375 219.65 22.6943C220.358 23.4268 220.712 24.2324 220.712 25.1113V25.4409H227.414C228.317 25.4409 229.099 25.6729 229.758 26.1367C230.417 26.5762 230.747 27.2964 230.747 28.2974C230.747 29.7866 230.258 30.8853 229.282 31.5933C228.305 32.2769 227.146 32.7163 225.803 32.9116C224.46 33.0825 223.227 33.168 222.104 33.168Z"/>
<path d="M250.705 22.3281C251.706 22.3281 252.475 22.6699 253.012 23.3535C253.574 24.0371 253.854 24.855 253.854 25.8071V49.9771C253.854 50.6606 253.879 51.3564 253.928 52.0645C254.001 52.748 254.282 53.3462 254.77 53.8589C255.405 54.5425 255.93 55.0796 256.345 55.4702C256.784 55.8608 257.004 56.5933 257.004 57.6675C257.004 58.7417 256.662 59.5718 255.979 60.1577C255.319 60.7192 254.465 61 253.415 61H237.851C236.801 61 235.935 60.7192 235.251 60.1577C234.592 59.5962 234.262 58.7661 234.262 57.6675C234.262 56.6177 234.47 55.8853 234.885 55.4702C235.3 55.0308 235.837 54.4937 236.496 53.8589C236.984 53.3706 237.253 52.7603 237.302 52.0278C237.375 51.2954 237.412 50.6118 237.412 49.9771V37.1963C237.412 36.708 237.375 36.2075 237.302 35.6948C237.229 35.1577 237.021 34.7061 236.679 34.3398C236.582 34.2178 236.459 34.1201 236.313 34.0469C236.191 33.9736 236.081 33.8882 235.983 33.7905C235.446 33.229 234.946 32.7773 234.482 32.4355C234.042 32.0693 233.823 31.4346 233.823 30.5312C233.823 29.5547 234.128 28.7979 234.738 28.2607C235.349 27.7236 236.069 27.2964 236.899 26.979L244.809 23.793C245.737 23.4268 246.701 23.0972 247.702 22.8042C248.703 22.4868 249.704 22.3281 250.705 22.3281ZM245.212 22.1816C243.649 22.1816 242.075 21.9497 240.488 21.4858C238.901 21.022 237.57 20.2529 236.496 19.1787C235.446 18.0801 234.921 16.603 234.921 14.7476C234.921 12.8921 235.458 11.4395 236.533 10.3896C237.607 9.31543 238.938 8.55859 240.524 8.11914C242.111 7.67969 243.674 7.45996 245.212 7.45996C246.75 7.45996 248.312 7.67969 249.899 8.11914C251.511 8.55859 252.854 9.31543 253.928 10.3896C255.026 11.4395 255.576 12.8921 255.576 14.7476C255.576 16.6274 255.039 18.1167 253.964 19.2153C252.89 20.2896 251.547 21.0586 249.936 21.5225C248.349 21.9619 246.774 22.1816 245.212 22.1816Z"/>
<path d="M277.365 22.3281C278.366 22.3281 279.123 22.6821 279.636 23.3901C280.173 24.0737 280.441 24.8794 280.441 25.8071V29.1763C282.37 27.394 284.494 25.8071 286.813 24.4155C289.133 23.0239 291.428 22.3281 293.698 22.3281C296.066 22.3281 298.032 22.9141 299.594 24.0859C301.157 25.2578 302.329 26.7837 303.11 28.6636C303.916 30.5435 304.318 32.5698 304.318 34.7427V49.9771C304.318 50.6606 304.343 51.332 304.392 51.9912C304.465 52.6504 304.733 53.2729 305.197 53.8589C305.759 54.5669 306.247 55.1162 306.662 55.5068C307.102 55.8975 307.321 56.6177 307.321 57.6675C307.321 58.7417 306.992 59.5718 306.333 60.1577C305.673 60.7192 304.819 61 303.769 61H288.461C287.436 61 286.643 60.6948 286.081 60.0845C285.544 59.4741 285.275 58.6685 285.275 57.6675C285.275 56.7397 285.483 56.0195 285.898 55.5068C286.337 54.9697 286.765 54.4204 287.18 53.8589C287.619 53.2729 287.839 52.4551 287.839 51.4053V38.6978C287.839 37.5503 287.607 36.4272 287.143 35.3286C286.704 34.23 285.776 33.6807 284.36 33.6807C283.505 33.6807 282.773 33.8516 282.163 34.1934C281.552 34.5107 280.979 34.9258 280.441 35.4385V50.4165C280.441 51.0757 280.466 51.7471 280.515 52.4307C280.563 53.0898 280.808 53.7002 281.247 54.2617C281.76 54.8721 282.187 55.3726 282.529 55.7632C282.871 56.1294 283.042 56.7642 283.042 57.6675C283.042 58.6685 282.761 59.4741 282.199 60.0845C281.662 60.6948 280.881 61 279.855 61H264.548C263.498 61 262.644 60.7192 261.984 60.1577C261.325 59.5718 260.996 58.7417 260.996 57.6675C260.996 56.8618 261.142 56.2393 261.435 55.7998C261.752 55.3359 262.106 54.9087 262.497 54.5181C262.888 54.1274 263.229 53.6514 263.522 53.0898C263.84 52.5283 263.999 51.7593 263.999 50.7827V37.1963C263.999 36.0977 263.828 35.2676 263.486 34.7061C263.144 34.1445 262.741 33.7051 262.277 33.3877C261.813 33.0459 261.411 32.6797 261.069 32.2891C260.727 31.8984 260.556 31.3125 260.556 30.5312C260.556 29.5791 260.874 28.8345 261.508 28.2974C262.143 27.7358 262.851 27.2964 263.632 26.979L271.542 23.793C272.47 23.4023 273.41 23.0605 274.362 22.7676C275.339 22.4746 276.34 22.3281 277.365 22.3281Z"/>
<path d="M310.397 52.5771C310.397 50.3311 310.922 48.4634 311.972 46.9741C313.022 45.4604 314.389 44.252 316.074 43.3486C317.783 42.4209 319.626 41.7617 321.604 41.3711C323.581 40.9805 325.485 40.7852 327.316 40.7852C327.854 40.7852 328.403 40.7974 328.964 40.8218C329.526 40.8218 330.075 40.8706 330.612 40.9683V31.4468C330.612 30.8364 330.478 30.1284 330.209 29.3228C329.965 28.5171 329.453 28.1143 328.671 28.1143C327.915 28.1143 327.438 28.4316 327.243 29.0664C327.072 29.6768 326.987 30.2627 326.987 30.8242C326.987 31.0684 326.987 31.3247 326.987 31.5933C327.011 31.8374 327.023 32.0938 327.023 32.3623C327.023 34.877 326.157 36.647 324.423 37.6724C322.69 38.6733 320.712 39.1738 318.491 39.1738C316.635 39.1738 315.024 38.7588 313.657 37.9287C312.29 37.0986 311.606 35.6338 311.606 33.5342C311.606 32.7041 311.765 31.8984 312.082 31.1172C312.424 30.3359 312.851 29.6401 313.364 29.0298C314.853 27.2231 316.721 25.8438 318.967 24.8916C321.237 23.9395 323.618 23.2925 326.108 22.9507C328.623 22.5845 330.979 22.4014 333.176 22.4014C335.666 22.4014 337.949 22.7554 340.024 23.4634C342.099 24.1714 343.759 25.3555 345.004 27.0156C346.25 28.6514 346.872 30.8608 346.872 33.644V50.5264C346.872 50.9414 346.97 51.3076 347.165 51.625C347.36 51.9424 347.69 52.1011 348.154 52.1011C348.52 52.1011 348.825 51.9912 349.069 51.7715C349.338 51.5273 349.655 51.4053 350.021 51.4053C350.729 51.4053 351.254 51.6494 351.596 52.1377C351.962 52.626 352.146 53.1997 352.146 53.8589C352.146 55.5679 351.621 57.0449 350.571 58.29C349.545 59.5107 348.264 60.4385 346.726 61.0732C345.188 61.7324 343.637 62.062 342.075 62.062C340.244 62.062 338.388 61.6592 336.508 60.8535C334.653 60.0479 333.371 58.7905 332.663 57.0815C331.418 58.8149 329.709 60.0845 327.536 60.8901C325.388 61.6714 323.276 62.062 321.201 62.062C319.296 62.062 317.514 61.708 315.854 61C314.218 60.2676 312.9 59.1934 311.899 57.7773C310.898 56.3613 310.397 54.6279 310.397 52.5771ZM326.914 49.3545C326.914 50.3311 327.146 51.2588 327.609 52.1377C328.073 52.9922 328.867 53.4194 329.99 53.4194C330.209 53.4194 330.417 53.395 330.612 53.3462V45.7656C330.197 45.5947 329.77 45.5093 329.331 45.5093C328.403 45.5093 327.768 45.9731 327.426 46.9009C327.084 47.8042 326.914 48.6221 326.914 49.3545Z"/>
<path d="M370.676 5.92188C371.677 5.92188 372.446 6.26367 372.983 6.94727C373.544 7.63086 373.825 8.44873 373.825 9.40088V49.9771C373.825 50.6851 373.862 51.3809 373.935 52.0645C374.008 52.7236 374.313 53.3218 374.851 53.8589C375.51 54.5181 376.071 55.0552 376.535 55.4702C377.023 55.8608 377.268 56.5933 377.268 57.6675C377.268 58.7661 376.926 59.5962 376.242 60.1577C375.559 60.7192 374.692 61 373.642 61H357.529C356.479 61 355.612 60.7192 354.929 60.1577C354.245 59.5962 353.903 58.7661 353.903 57.6675C353.903 56.7397 354.074 56.0684 354.416 55.6533C354.758 55.2139 355.161 54.8354 355.625 54.5181C356.088 54.2007 356.491 53.7612 356.833 53.1997C357.175 52.6138 357.346 51.6982 357.346 50.4531V20.7534C357.346 19.5815 357.15 18.7271 356.76 18.1899C356.369 17.6528 355.905 17.25 355.368 16.9814C354.855 16.6885 354.404 16.3589 354.013 15.9927C353.623 15.6021 353.427 14.9795 353.427 14.125C353.427 13.1484 353.745 12.3916 354.379 11.8545C355.014 11.3174 355.734 10.8901 356.54 10.5728L364.707 7.38672C365.683 6.99609 366.66 6.6543 367.636 6.36133C368.613 6.06836 369.626 5.92188 370.676 5.92188Z"/>
<path d="M397.702 22.3281C398.703 22.3281 399.472 22.6699 400.009 23.3535C400.571 24.0371 400.852 24.855 400.852 25.8071V49.9771C400.852 50.6606 400.876 51.3564 400.925 52.0645C400.998 52.748 401.279 53.3462 401.767 53.8589C402.402 54.5425 402.927 55.0796 403.342 55.4702C403.781 55.8608 404.001 56.5933 404.001 57.6675C404.001 58.7417 403.659 59.5718 402.976 60.1577C402.316 60.7192 401.462 61 400.412 61H384.848C383.798 61 382.932 60.7192 382.248 60.1577C381.589 59.5962 381.259 58.7661 381.259 57.6675C381.259 56.6177 381.467 55.8853 381.882 55.4702C382.297 55.0308 382.834 54.4937 383.493 53.8589C383.981 53.3706 384.25 52.7603 384.299 52.0278C384.372 51.2954 384.409 50.6118 384.409 49.9771V37.1963C384.409 36.708 384.372 36.2075 384.299 35.6948C384.226 35.1577 384.018 34.7061 383.676 34.3398C383.579 34.2178 383.457 34.1201 383.31 34.0469C383.188 33.9736 383.078 33.8882 382.98 33.7905C382.443 33.229 381.943 32.7773 381.479 32.4355C381.04 32.0693 380.82 31.4346 380.82 30.5312C380.82 29.5547 381.125 28.7979 381.735 28.2607C382.346 27.7236 383.066 27.2964 383.896 26.979L391.806 23.793C392.734 23.4268 393.698 23.0972 394.699 22.8042C395.7 22.4868 396.701 22.3281 397.702 22.3281ZM392.209 22.1816C390.646 22.1816 389.072 21.9497 387.485 21.4858C385.898 21.022 384.567 20.2529 383.493 19.1787C382.443 18.0801 381.918 16.603 381.918 14.7476C381.918 12.8921 382.456 11.4395 383.53 10.3896C384.604 9.31543 385.935 8.55859 387.521 8.11914C389.108 7.67969 390.671 7.45996 392.209 7.45996C393.747 7.45996 395.31 7.67969 396.896 8.11914C398.508 8.55859 399.851 9.31543 400.925 10.3896C402.023 11.4395 402.573 12.8921 402.573 14.7476C402.573 16.6274 402.036 18.1167 400.961 19.2153C399.887 20.2896 398.544 21.0586 396.933 21.5225C395.346 21.9619 393.771 22.1816 392.209 22.1816Z"/>
<path d="M443.222 27.3452C443.222 28.3706 442.966 29.335 442.453 30.2383C441.94 31.1416 441.403 31.9961 440.842 32.8018L425.644 54.5547C427.255 54.457 428.659 54.2129 429.855 53.8223C431.076 53.4316 432.211 52.748 433.261 51.7715C434.335 50.7705 435.446 49.3301 436.594 47.4502C437.082 46.6201 437.558 45.8999 438.022 45.2896C438.51 44.6792 439.304 44.374 440.402 44.374C441.184 44.374 441.953 44.667 442.709 45.2529C443.466 45.8389 443.845 46.5591 443.845 47.4136C443.845 47.5845 443.833 47.7188 443.808 47.8164L441.647 59.2422C441.281 61.1709 440.17 62.1353 438.315 62.1353C437.265 62.1353 436.24 61.9399 435.239 61.5493C434.238 61.1831 433.2 61 432.126 61H413.12C412.167 61 411.203 60.8779 410.227 60.6338C409.274 60.3896 408.469 59.9624 407.81 59.3521C407.175 58.7173 406.857 57.814 406.857 56.6421C406.857 55.7632 407.004 54.8965 407.297 54.042C407.614 53.1875 408.017 52.4062 408.505 51.6982L423.959 29.7988C422.006 29.8477 420.285 30.2383 418.796 30.9707C417.331 31.7031 415.854 33.2412 414.365 35.585C413.852 36.3906 413.327 37.1108 412.79 37.7456C412.277 38.3804 411.484 38.6978 410.41 38.6978C409.604 38.6978 408.823 38.4048 408.066 37.8188C407.333 37.2085 406.967 36.4761 406.967 35.6216C406.967 35.4263 406.979 35.2798 407.004 35.1821L409.018 25.2212C409.409 23.2925 410.52 22.3281 412.351 22.3281C413.425 22.3281 414.462 22.5234 415.463 22.9141C416.464 23.3047 417.49 23.5 418.54 23.5H437.949C439.243 23.5 440.439 23.7563 441.538 24.269C442.661 24.7573 443.222 25.7827 443.222 27.3452Z"/>
<path d="M467.136 22.3281C471.164 22.3281 474.692 23.1582 477.719 24.8184C480.771 26.4785 483.151 28.8101 484.86 31.813C486.569 34.8159 487.424 38.3438 487.424 42.3965C487.424 46.376 486.484 49.8428 484.604 52.7969C482.724 55.7266 480.197 58.0093 477.023 59.645C473.874 61.2563 470.371 62.062 466.513 62.062C462.46 62.062 458.908 61.2319 455.856 59.5718C452.805 57.8872 450.424 55.5312 448.715 52.5039C447.031 49.4521 446.188 45.8999 446.188 41.8472C446.188 37.8921 447.141 34.4497 449.045 31.52C450.949 28.5903 453.488 26.332 456.662 24.7451C459.836 23.1338 463.327 22.3281 467.136 22.3281ZM469.223 53.9688C469.833 53.9688 470.261 53.6514 470.505 53.0166C470.773 52.3818 470.944 51.686 471.018 50.9292C471.091 50.1479 471.127 49.5498 471.127 49.1348C471.127 47.7432 471.018 46.3638 470.798 44.9966C470.578 43.605 470.297 42.2378 469.956 40.895C469.833 40.3579 469.602 39.5278 469.26 38.4048C468.918 37.2573 468.503 36.061 468.015 34.8159C467.526 33.5708 466.989 32.5088 466.403 31.6299C465.817 30.751 465.195 30.3115 464.536 30.3115C463.974 30.3115 463.559 30.6289 463.291 31.2637C463.046 31.8984 462.888 32.6064 462.814 33.3877C462.741 34.1445 462.705 34.7183 462.705 35.1089C462.705 35.7681 462.802 36.8301 462.998 38.2949C463.193 39.7354 463.474 41.3467 463.84 43.1289C464.23 44.9111 464.694 46.6323 465.231 48.2925C465.769 49.9282 466.367 51.2832 467.026 52.3574C467.709 53.4316 468.442 53.9688 469.223 53.9688Z"/>
<path d="M504.599 62.062C502.28 62.062 500.339 61.4761 498.776 60.3042C497.238 59.1079 496.091 57.5576 495.334 55.6533C494.577 53.749 494.199 51.7471 494.199 49.6475V37.1963C494.199 36.293 494.125 35.6582 493.979 35.292C493.833 34.9014 493.417 34.4009 492.734 33.7905C492.197 33.3022 491.684 32.8506 491.196 32.4355C490.732 31.9961 490.5 31.3613 490.5 30.5312C490.5 29.5791 490.805 28.8345 491.416 28.2974C492.05 27.7358 492.771 27.2964 493.576 26.979L501.633 23.793C502.585 23.4023 503.537 23.0605 504.489 22.7676C505.466 22.4746 506.479 22.3281 507.529 22.3281C508.53 22.3281 509.299 22.6821 509.836 23.3901C510.373 24.0737 510.642 24.8794 510.642 25.8071V45.6924C510.642 46.376 510.715 47.1084 510.861 47.8896C511.032 48.6709 511.35 49.3423 511.813 49.9038C512.277 50.4409 512.949 50.7095 513.828 50.7095C514.731 50.7095 515.524 50.5142 516.208 50.1235C516.892 49.7085 517.514 49.208 518.076 48.6221V37.1963C518.076 36.2686 517.99 35.5972 517.819 35.1821C517.673 34.7427 517.221 34.23 516.464 33.644C515.903 33.2046 515.415 32.7773 515 32.3623C514.584 31.9473 514.377 31.3369 514.377 30.5312C514.377 29.5791 514.682 28.8345 515.292 28.2974C515.927 27.7358 516.647 27.2964 517.453 26.979L525.51 23.793C526.462 23.4023 527.414 23.0605 528.366 22.7676C529.343 22.4746 530.356 22.3281 531.406 22.3281C532.407 22.3281 533.176 22.6699 533.713 23.3535C534.274 24.0371 534.555 24.855 534.555 25.8071V49.9771C534.555 50.6606 534.58 51.3442 534.628 52.0278C534.702 52.687 534.982 53.2974 535.471 53.8589C536.081 54.5181 536.618 55.0674 537.082 55.5068C537.546 55.9463 537.778 56.6665 537.778 57.6675C537.778 58.7661 537.448 59.5962 536.789 60.1577C536.13 60.7192 535.263 61 534.189 61H525.839C523.984 61 522.348 60.3042 520.932 58.9126C519.541 57.521 518.845 55.9097 518.845 54.0786C517.502 55.3726 516.037 56.6299 514.45 57.8506C512.863 59.0713 511.228 60.0845 509.543 60.8901C507.883 61.6714 506.235 62.062 504.599 62.062Z"/>
<path d="M551.84 6.28809C554.672 6.28809 556.992 6.94727 558.798 8.26562C560.629 9.58398 561.545 11.769 561.545 14.8208C561.545 15.6753 561.472 16.5298 561.325 17.3843C561.203 18.2388 561.032 19.0811 560.812 19.9111L556.235 37.709C555.942 38.8809 555.466 39.8818 554.807 40.7119C554.172 41.5176 553.183 41.9204 551.84 41.9204C550.498 41.9204 549.497 41.5054 548.837 40.6753C548.203 39.8452 547.739 38.8564 547.446 37.709L542.832 19.9111C542.612 19.0811 542.429 18.2388 542.282 17.3843C542.16 16.5298 542.099 15.6753 542.099 14.8208C542.099 11.7446 543.015 9.55957 544.846 8.26562C546.677 6.94727 549.008 6.28809 551.84 6.28809ZM551.584 62.1353C549.899 62.1353 548.422 61.6836 547.153 60.7803C545.883 59.877 544.882 58.7051 544.15 57.2646C543.442 55.8242 543.088 54.3105 543.088 52.7236C543.088 51.1123 543.442 49.5986 544.15 48.1826C544.882 46.7422 545.883 45.5825 547.153 44.7036C548.422 43.8003 549.899 43.3486 551.584 43.3486C553.293 43.3486 554.782 43.8003 556.052 44.7036C557.346 45.5825 558.359 46.73 559.091 48.146C559.824 49.562 560.19 51.0879 560.19 52.7236C560.19 54.335 559.824 55.8608 559.091 57.3013C558.359 58.7173 557.346 59.877 556.052 60.7803C554.758 61.6836 553.269 62.1353 551.584 62.1353Z"/>
</mask>
<path d="M42.0015 14.3081C42.0015 12.8921 42.4165 11.8789 43.2466 11.2686C44.0767 10.6338 45.1509 10.3164 46.4692 10.3164H57.7852C59.1035 10.3164 60.1655 10.6338 60.9712 11.2686C61.8013 11.9033 62.2163 12.9165 62.2163 14.3081C62.2163 15.6509 61.8501 16.5786 61.1177 17.0913C60.4097 17.604 59.5552 18.1533 58.5542 18.7393C57.6021 19.3008 56.8818 20.0332 56.3936 20.9365C55.9297 21.8154 55.5146 22.7554 55.1484 23.7563L44.8579 51.4053C44.4673 52.4551 44.1499 53.4438 43.9058 54.3716C43.686 55.2993 43.5762 56.3369 43.5762 57.4844C43.5762 58.5098 43.2588 59.3521 42.624 60.0112C42.0137 60.6704 41.1836 61 40.1338 61H26.2544C25.1313 61 24.3013 60.646 23.7642 59.938C23.2271 59.23 22.9585 58.3511 22.9585 57.3013C22.9585 56.4468 22.8364 55.6167 22.5923 54.811C22.3481 53.981 22.0796 53.1753 21.7866 52.394L10.9468 22.9873C10.5562 21.9375 10.1777 21.144 9.81152 20.6069C9.46973 20.0698 8.82275 19.4839 7.87061 18.8491C6.84521 18.1655 6.06396 17.5796 5.52686 17.0913C5.01416 16.5786 4.75781 15.6509 4.75781 14.3081C4.75781 12.8921 5.17285 11.8789 6.00293 11.2686C6.83301 10.6338 7.90723 10.3164 9.22559 10.3164H30.2461C31.5645 10.3164 32.6265 10.6338 33.4321 11.2686C34.2622 11.8789 34.6772 12.8921 34.6772 14.3081C34.6772 15.3579 34.4209 16.1636 33.9082 16.7251C33.4199 17.2622 32.8462 17.7139 32.187 18.0801C31.5522 18.4463 30.9785 18.8613 30.4658 19.3252C29.9775 19.7891 29.7334 20.4604 29.7334 21.3394C29.7334 21.7788 29.7822 22.2183 29.8799 22.6577C29.9775 23.0972 30.0996 23.5244 30.2461 23.9395L38.1562 46.1318L46.7988 22.6211C47.0186 22.0107 47.1284 21.4614 47.1284 20.9731C47.1284 20.2163 46.8721 19.6426 46.3594 19.252C45.8467 18.8369 45.2485 18.4463 44.5649 18.0801C43.8813 17.7139 43.2832 17.2622 42.7705 16.7251C42.2578 16.1636 42.0015 15.3579 42.0015 14.3081Z" fill="#FFDAD3"/>
<path d="M79.2451 22.3281C83.2734 22.3281 86.8013 23.1582 89.8286 24.8184C92.8804 26.4785 95.2607 28.8101 96.9697 31.813C98.6787 34.8159 99.5332 38.3438 99.5332 42.3965C99.5332 46.376 98.5933 49.8428 96.7134 52.7969C94.8335 55.7266 92.3066 58.0093 89.1328 59.645C85.9834 61.2563 82.48 62.062 78.6226 62.062C74.5698 62.062 71.0176 61.2319 67.9658 59.5718C64.9141 57.8872 62.5337 55.5312 60.8247 52.5039C59.1401 49.4521 58.2979 45.8999 58.2979 41.8472C58.2979 37.8921 59.25 34.4497 61.1543 31.52C63.0586 28.5903 65.5977 26.332 68.7715 24.7451C71.9453 23.1338 75.4365 22.3281 79.2451 22.3281ZM81.3325 53.9688C81.9429 53.9688 82.3701 53.6514 82.6143 53.0166C82.8828 52.3818 83.0537 51.686 83.127 50.9292C83.2002 50.1479 83.2368 49.5498 83.2368 49.1348C83.2368 47.7432 83.127 46.3638 82.9072 44.9966C82.6875 43.605 82.4067 42.2378 82.0649 40.895C81.9429 40.3579 81.7109 39.5278 81.3691 38.4048C81.0273 37.2573 80.6123 36.061 80.124 34.8159C79.6357 33.5708 79.0986 32.5088 78.5127 31.6299C77.9268 30.751 77.3042 30.3115 76.645 30.3115C76.0835 30.3115 75.6685 30.6289 75.3999 31.2637C75.1558 31.8984 74.9971 32.6064 74.9238 33.3877C74.8506 34.1445 74.814 34.7183 74.814 35.1089C74.814 35.7681 74.9116 36.8301 75.1069 38.2949C75.3022 39.7354 75.583 41.3467 75.9492 43.1289C76.3398 44.9111 76.8037 46.6323 77.3408 48.2925C77.8779 49.9282 78.4761 51.2832 79.1353 52.3574C79.8188 53.4316 80.5513 53.9688 81.3325 53.9688Z" fill="#FFDAD3"/>
<path d="M139.121 34.3398C139.121 36.6348 138.291 38.3804 136.63 39.5767C134.97 40.7729 133.09 41.3711 130.991 41.3711C128.842 41.3711 127.121 40.7852 125.827 39.6133C124.533 38.4414 123.886 36.7568 123.886 34.5596C123.886 33.5586 123.752 32.5454 123.483 31.52C123.239 30.4946 122.446 29.9819 121.103 29.9819C120.078 29.9819 119.296 30.4824 118.759 31.4834C118.222 32.4844 117.856 33.6074 117.661 34.8525C117.49 36.0977 117.404 37.0986 117.404 37.8555C117.404 39.9551 117.746 41.957 118.43 43.8613C119.113 45.7656 120.2 47.3159 121.689 48.5122C123.178 49.6841 125.107 50.27 127.475 50.27C128.867 50.27 130.246 49.9404 131.613 49.2812C132.98 48.5977 134.189 47.9263 135.239 47.2671C136.289 46.6079 137.021 46.2783 137.436 46.2783C138.193 46.2783 138.693 46.5835 138.938 47.1938C139.182 47.7798 139.304 48.3657 139.304 48.9517C139.304 51.1489 138.779 53.0654 137.729 54.7012C136.704 56.3369 135.336 57.7041 133.627 58.8027C131.943 59.877 130.1 60.6826 128.098 61.2197C126.12 61.7812 124.179 62.062 122.275 62.062C118.613 62.062 115.317 61.2808 112.387 59.7183C109.482 58.1313 107.175 55.9219 105.466 53.0898C103.781 50.2578 102.939 46.9863 102.939 43.2754C102.939 39.2471 103.757 35.6582 105.393 32.5088C107.028 29.3594 109.348 26.8813 112.351 25.0747C115.378 23.2437 118.942 22.3281 123.044 22.3281C124.875 22.3281 126.73 22.5601 128.61 23.0239C130.49 23.4634 132.224 24.1714 133.811 25.1479C135.397 26.1001 136.679 27.3452 137.656 28.8833C138.632 30.397 139.121 32.2158 139.121 34.3398Z" fill="#FFDAD3"/>
<path d="M179.331 36.7935C179.331 38.9663 178.684 40.6143 177.39 41.7373C176.12 42.8604 174.436 43.4219 172.336 43.4219H157.578C158.139 45.5215 159.14 47.2915 160.581 48.7319C162.021 50.1479 164.096 50.856 166.806 50.856C167.88 50.856 168.942 50.6362 169.992 50.1968C171.066 49.7329 172.067 49.1958 172.995 48.5854C173.947 47.9751 174.777 47.4502 175.485 47.0107C176.193 46.5469 176.73 46.3149 177.097 46.3149C177.805 46.3149 178.317 46.5713 178.635 47.084C178.952 47.5723 179.111 48.1338 179.111 48.7686C179.111 50.9902 178.586 52.9434 177.536 54.6279C176.511 56.2881 175.144 57.6675 173.435 58.7661C171.75 59.8647 169.895 60.6826 167.868 61.2197C165.866 61.7812 163.889 62.062 161.936 62.062C158.103 62.062 154.721 61.2686 151.792 59.6816C148.862 58.0947 146.567 55.873 144.907 53.0166C143.271 50.1357 142.453 46.7544 142.453 42.8726C142.453 38.7222 143.247 35.1089 144.833 32.0327C146.445 28.9565 148.752 26.5762 151.755 24.8916C154.758 23.1826 158.359 22.3281 162.558 22.3281C165.463 22.3281 168.186 22.8774 170.725 23.9761C173.288 25.0747 175.363 26.6982 176.95 28.8467C178.537 30.9951 179.331 33.644 179.331 36.7935ZM156.918 37.7822C156.918 38.0508 156.918 38.3193 156.918 38.5879H160.727C161.655 38.5879 162.29 38.3804 162.631 37.9653C162.973 37.5259 163.144 36.8667 163.144 35.9878C163.144 35.4019 163.071 34.6328 162.924 33.6807C162.778 32.7285 162.485 31.874 162.045 31.1172C161.63 30.3604 161.02 29.9819 160.214 29.9819C159.482 29.9819 158.896 30.2871 158.457 30.8975C158.017 31.4834 157.688 32.228 157.468 33.1313C157.248 34.0103 157.102 34.877 157.028 35.7314C156.955 36.5859 156.918 37.2695 156.918 37.7822ZM174.46 17.897C174.46 18.7271 174.143 19.3862 173.508 19.8745C172.897 20.3628 172.202 20.6069 171.42 20.6069C170.883 20.6069 170.371 20.4971 169.882 20.2773C169.394 20.0576 168.942 19.7891 168.527 19.4717L160.91 13.5757L153.293 19.4717C152.878 19.7891 152.426 20.0576 151.938 20.2773C151.45 20.4971 150.937 20.6069 150.4 20.6069C149.643 20.6069 148.947 20.3628 148.312 19.8745C147.678 19.3862 147.36 18.7271 147.36 17.897C147.36 16.8716 147.727 15.9316 148.459 15.0771L154.392 8.11914C155.344 6.99609 156.271 6.04395 157.175 5.2627C158.078 4.48145 159.323 4.09082 160.91 4.09082C162.497 4.09082 163.742 4.48145 164.646 5.2627C165.549 6.04395 166.477 6.99609 167.429 8.11914L173.361 15.0771C174.094 15.9316 174.46 16.8716 174.46 17.897Z" fill="#FFDAD3"/>
<path d="M222.104 33.168V49.9771C222.104 51.7104 222.336 52.7847 222.8 53.1997C223.288 53.5903 224.35 53.8833 225.986 54.0786C227.28 54.2495 228.305 54.4937 229.062 54.811C229.819 55.1284 230.197 56.0806 230.197 57.6675C230.197 58.7661 229.868 59.5962 229.208 60.1577C228.549 60.7192 227.683 61 226.608 61H204.086C203.061 61 202.207 60.7314 201.523 60.1943C200.864 59.6328 200.534 58.8149 200.534 57.7407C200.534 56.4956 200.791 55.6411 201.303 55.1772C201.816 54.7134 202.402 54.3594 203.061 54.1152C203.745 53.8467 204.343 53.4316 204.855 52.8701C205.368 52.3086 205.625 51.2954 205.625 49.8306V35.6948C205.625 34.7915 205.307 34.1201 204.672 33.6807C204.062 33.2412 203.354 32.8506 202.548 32.5088C201.743 32.1426 201.022 31.6787 200.388 31.1172C199.777 30.5312 199.472 29.6646 199.472 28.5171C199.472 27.5161 199.802 26.7593 200.461 26.2466C201.12 25.7095 201.914 25.4409 202.841 25.4409H205.734V25.0381C205.734 24.8184 205.368 24.4155 204.636 23.8296C203.928 23.2437 203.208 22.4868 202.475 21.5591C201.743 20.6313 201.376 19.5815 201.376 18.4097C201.376 16.2368 201.853 14.4058 202.805 12.9165C203.781 11.4028 205.051 10.1943 206.613 9.29102C208.2 8.36328 209.934 7.69189 211.813 7.27686C213.693 6.86182 215.549 6.6543 217.38 6.6543C219.04 6.6543 220.749 6.84961 222.507 7.24023C224.265 7.63086 225.9 8.25342 227.414 9.10791C228.952 9.93799 230.185 11.0488 231.113 12.4404C232.065 13.8076 232.541 15.48 232.541 17.4575C232.541 19.4595 231.979 21.0464 230.856 22.2183C229.733 23.3901 228.159 23.9761 226.132 23.9761C224.008 23.9761 222.299 23.3535 221.005 22.1084C219.736 20.8633 219.101 19.1665 219.101 17.0181C219.101 16.2856 219.064 15.5654 218.991 14.8574C218.942 14.125 218.723 13.5269 218.332 13.063C217.941 12.5747 217.258 12.3306 216.281 12.3306C215.28 12.3306 214.609 12.6724 214.267 13.356C213.95 14.0151 213.791 14.772 213.791 15.6265C213.791 16.603 214.133 17.4819 214.816 18.2632C215.524 19.0444 216.33 19.7891 217.233 20.4971C218.161 21.2051 218.967 21.9375 219.65 22.6943C220.358 23.4268 220.712 24.2324 220.712 25.1113V25.4409H227.414C228.317 25.4409 229.099 25.6729 229.758 26.1367C230.417 26.5762 230.747 27.2964 230.747 28.2974C230.747 29.7866 230.258 30.8853 229.282 31.5933C228.305 32.2769 227.146 32.7163 225.803 32.9116C224.46 33.0825 223.227 33.168 222.104 33.168Z" fill="#FFDAD3"/>
<path d="M250.705 22.3281C251.706 22.3281 252.475 22.6699 253.012 23.3535C253.574 24.0371 253.854 24.855 253.854 25.8071V49.9771C253.854 50.6606 253.879 51.3564 253.928 52.0645C254.001 52.748 254.282 53.3462 254.77 53.8589C255.405 54.5425 255.93 55.0796 256.345 55.4702C256.784 55.8608 257.004 56.5933 257.004 57.6675C257.004 58.7417 256.662 59.5718 255.979 60.1577C255.319 60.7192 254.465 61 253.415 61H237.851C236.801 61 235.935 60.7192 235.251 60.1577C234.592 59.5962 234.262 58.7661 234.262 57.6675C234.262 56.6177 234.47 55.8853 234.885 55.4702C235.3 55.0308 235.837 54.4937 236.496 53.8589C236.984 53.3706 237.253 52.7603 237.302 52.0278C237.375 51.2954 237.412 50.6118 237.412 49.9771V37.1963C237.412 36.708 237.375 36.2075 237.302 35.6948C237.229 35.1577 237.021 34.7061 236.679 34.3398C236.582 34.2178 236.459 34.1201 236.313 34.0469C236.191 33.9736 236.081 33.8882 235.983 33.7905C235.446 33.229 234.946 32.7773 234.482 32.4355C234.042 32.0693 233.823 31.4346 233.823 30.5312C233.823 29.5547 234.128 28.7979 234.738 28.2607C235.349 27.7236 236.069 27.2964 236.899 26.979L244.809 23.793C245.737 23.4268 246.701 23.0972 247.702 22.8042C248.703 22.4868 249.704 22.3281 250.705 22.3281ZM245.212 22.1816C243.649 22.1816 242.075 21.9497 240.488 21.4858C238.901 21.022 237.57 20.2529 236.496 19.1787C235.446 18.0801 234.921 16.603 234.921 14.7476C234.921 12.8921 235.458 11.4395 236.533 10.3896C237.607 9.31543 238.938 8.55859 240.524 8.11914C242.111 7.67969 243.674 7.45996 245.212 7.45996C246.75 7.45996 248.312 7.67969 249.899 8.11914C251.511 8.55859 252.854 9.31543 253.928 10.3896C255.026 11.4395 255.576 12.8921 255.576 14.7476C255.576 16.6274 255.039 18.1167 253.964 19.2153C252.89 20.2896 251.547 21.0586 249.936 21.5225C248.349 21.9619 246.774 22.1816 245.212 22.1816Z" fill="#FFDAD3"/>
<path d="M277.365 22.3281C278.366 22.3281 279.123 22.6821 279.636 23.3901C280.173 24.0737 280.441 24.8794 280.441 25.8071V29.1763C282.37 27.394 284.494 25.8071 286.813 24.4155C289.133 23.0239 291.428 22.3281 293.698 22.3281C296.066 22.3281 298.032 22.9141 299.594 24.0859C301.157 25.2578 302.329 26.7837 303.11 28.6636C303.916 30.5435 304.318 32.5698 304.318 34.7427V49.9771C304.318 50.6606 304.343 51.332 304.392 51.9912C304.465 52.6504 304.733 53.2729 305.197 53.8589C305.759 54.5669 306.247 55.1162 306.662 55.5068C307.102 55.8975 307.321 56.6177 307.321 57.6675C307.321 58.7417 306.992 59.5718 306.333 60.1577C305.673 60.7192 304.819 61 303.769 61H288.461C287.436 61 286.643 60.6948 286.081 60.0845C285.544 59.4741 285.275 58.6685 285.275 57.6675C285.275 56.7397 285.483 56.0195 285.898 55.5068C286.337 54.9697 286.765 54.4204 287.18 53.8589C287.619 53.2729 287.839 52.4551 287.839 51.4053V38.6978C287.839 37.5503 287.607 36.4272 287.143 35.3286C286.704 34.23 285.776 33.6807 284.36 33.6807C283.505 33.6807 282.773 33.8516 282.163 34.1934C281.552 34.5107 280.979 34.9258 280.441 35.4385V50.4165C280.441 51.0757 280.466 51.7471 280.515 52.4307C280.563 53.0898 280.808 53.7002 281.247 54.2617C281.76 54.8721 282.187 55.3726 282.529 55.7632C282.871 56.1294 283.042 56.7642 283.042 57.6675C283.042 58.6685 282.761 59.4741 282.199 60.0845C281.662 60.6948 280.881 61 279.855 61H264.548C263.498 61 262.644 60.7192 261.984 60.1577C261.325 59.5718 260.996 58.7417 260.996 57.6675C260.996 56.8618 261.142 56.2393 261.435 55.7998C261.752 55.3359 262.106 54.9087 262.497 54.5181C262.888 54.1274 263.229 53.6514 263.522 53.0898C263.84 52.5283 263.999 51.7593 263.999 50.7827V37.1963C263.999 36.0977 263.828 35.2676 263.486 34.7061C263.144 34.1445 262.741 33.7051 262.277 33.3877C261.813 33.0459 261.411 32.6797 261.069 32.2891C260.727 31.8984 260.556 31.3125 260.556 30.5312C260.556 29.5791 260.874 28.8345 261.508 28.2974C262.143 27.7358 262.851 27.2964 263.632 26.979L271.542 23.793C272.47 23.4023 273.41 23.0605 274.362 22.7676C275.339 22.4746 276.34 22.3281 277.365 22.3281Z" fill="#FFDAD3"/>
<path d="M310.397 52.5771C310.397 50.3311 310.922 48.4634 311.972 46.9741C313.022 45.4604 314.389 44.252 316.074 43.3486C317.783 42.4209 319.626 41.7617 321.604 41.3711C323.581 40.9805 325.485 40.7852 327.316 40.7852C327.854 40.7852 328.403 40.7974 328.964 40.8218C329.526 40.8218 330.075 40.8706 330.612 40.9683V31.4468C330.612 30.8364 330.478 30.1284 330.209 29.3228C329.965 28.5171 329.453 28.1143 328.671 28.1143C327.915 28.1143 327.438 28.4316 327.243 29.0664C327.072 29.6768 326.987 30.2627 326.987 30.8242C326.987 31.0684 326.987 31.3247 326.987 31.5933C327.011 31.8374 327.023 32.0938 327.023 32.3623C327.023 34.877 326.157 36.647 324.423 37.6724C322.69 38.6733 320.712 39.1738 318.491 39.1738C316.635 39.1738 315.024 38.7588 313.657 37.9287C312.29 37.0986 311.606 35.6338 311.606 33.5342C311.606 32.7041 311.765 31.8984 312.082 31.1172C312.424 30.3359 312.851 29.6401 313.364 29.0298C314.853 27.2231 316.721 25.8438 318.967 24.8916C321.237 23.9395 323.618 23.2925 326.108 22.9507C328.623 22.5845 330.979 22.4014 333.176 22.4014C335.666 22.4014 337.949 22.7554 340.024 23.4634C342.099 24.1714 343.759 25.3555 345.004 27.0156C346.25 28.6514 346.872 30.8608 346.872 33.644V50.5264C346.872 50.9414 346.97 51.3076 347.165 51.625C347.36 51.9424 347.69 52.1011 348.154 52.1011C348.52 52.1011 348.825 51.9912 349.069 51.7715C349.338 51.5273 349.655 51.4053 350.021 51.4053C350.729 51.4053 351.254 51.6494 351.596 52.1377C351.962 52.626 352.146 53.1997 352.146 53.8589C352.146 55.5679 351.621 57.0449 350.571 58.29C349.545 59.5107 348.264 60.4385 346.726 61.0732C345.188 61.7324 343.637 62.062 342.075 62.062C340.244 62.062 338.388 61.6592 336.508 60.8535C334.653 60.0479 333.371 58.7905 332.663 57.0815C331.418 58.8149 329.709 60.0845 327.536 60.8901C325.388 61.6714 323.276 62.062 321.201 62.062C319.296 62.062 317.514 61.708 315.854 61C314.218 60.2676 312.9 59.1934 311.899 57.7773C310.898 56.3613 310.397 54.6279 310.397 52.5771ZM326.914 49.3545C326.914 50.3311 327.146 51.2588 327.609 52.1377C328.073 52.9922 328.867 53.4194 329.99 53.4194C330.209 53.4194 330.417 53.395 330.612 53.3462V45.7656C330.197 45.5947 329.77 45.5093 329.331 45.5093C328.403 45.5093 327.768 45.9731 327.426 46.9009C327.084 47.8042 326.914 48.6221 326.914 49.3545Z" fill="#FFDAD3"/>
<path d="M370.676 5.92188C371.677 5.92188 372.446 6.26367 372.983 6.94727C373.544 7.63086 373.825 8.44873 373.825 9.40088V49.9771C373.825 50.6851 373.862 51.3809 373.935 52.0645C374.008 52.7236 374.313 53.3218 374.851 53.8589C375.51 54.5181 376.071 55.0552 376.535 55.4702C377.023 55.8608 377.268 56.5933 377.268 57.6675C377.268 58.7661 376.926 59.5962 376.242 60.1577C375.559 60.7192 374.692 61 373.642 61H357.529C356.479 61 355.612 60.7192 354.929 60.1577C354.245 59.5962 353.903 58.7661 353.903 57.6675C353.903 56.7397 354.074 56.0684 354.416 55.6533C354.758 55.2139 355.161 54.8354 355.625 54.5181C356.088 54.2007 356.491 53.7612 356.833 53.1997C357.175 52.6138 357.346 51.6982 357.346 50.4531V20.7534C357.346 19.5815 357.15 18.7271 356.76 18.1899C356.369 17.6528 355.905 17.25 355.368 16.9814C354.855 16.6885 354.404 16.3589 354.013 15.9927C353.623 15.6021 353.427 14.9795 353.427 14.125C353.427 13.1484 353.745 12.3916 354.379 11.8545C355.014 11.3174 355.734 10.8901 356.54 10.5728L364.707 7.38672C365.683 6.99609 366.66 6.6543 367.636 6.36133C368.613 6.06836 369.626 5.92188 370.676 5.92188Z" fill="#FFDAD3"/>
<path d="M397.702 22.3281C398.703 22.3281 399.472 22.6699 400.009 23.3535C400.571 24.0371 400.852 24.855 400.852 25.8071V49.9771C400.852 50.6606 400.876 51.3564 400.925 52.0645C400.998 52.748 401.279 53.3462 401.767 53.8589C402.402 54.5425 402.927 55.0796 403.342 55.4702C403.781 55.8608 404.001 56.5933 404.001 57.6675C404.001 58.7417 403.659 59.5718 402.976 60.1577C402.316 60.7192 401.462 61 400.412 61H384.848C383.798 61 382.932 60.7192 382.248 60.1577C381.589 59.5962 381.259 58.7661 381.259 57.6675C381.259 56.6177 381.467 55.8853 381.882 55.4702C382.297 55.0308 382.834 54.4937 383.493 53.8589C383.981 53.3706 384.25 52.7603 384.299 52.0278C384.372 51.2954 384.409 50.6118 384.409 49.9771V37.1963C384.409 36.708 384.372 36.2075 384.299 35.6948C384.226 35.1577 384.018 34.7061 383.676 34.3398C383.579 34.2178 383.457 34.1201 383.31 34.0469C383.188 33.9736 383.078 33.8882 382.98 33.7905C382.443 33.229 381.943 32.7773 381.479 32.4355C381.04 32.0693 380.82 31.4346 380.82 30.5312C380.82 29.5547 381.125 28.7979 381.735 28.2607C382.346 27.7236 383.066 27.2964 383.896 26.979L391.806 23.793C392.734 23.4268 393.698 23.0972 394.699 22.8042C395.7 22.4868 396.701 22.3281 397.702 22.3281ZM392.209 22.1816C390.646 22.1816 389.072 21.9497 387.485 21.4858C385.898 21.022 384.567 20.2529 383.493 19.1787C382.443 18.0801 381.918 16.603 381.918 14.7476C381.918 12.8921 382.456 11.4395 383.53 10.3896C384.604 9.31543 385.935 8.55859 387.521 8.11914C389.108 7.67969 390.671 7.45996 392.209 7.45996C393.747 7.45996 395.31 7.67969 396.896 8.11914C398.508 8.55859 399.851 9.31543 400.925 10.3896C402.023 11.4395 402.573 12.8921 402.573 14.7476C402.573 16.6274 402.036 18.1167 400.961 19.2153C399.887 20.2896 398.544 21.0586 396.933 21.5225C395.346 21.9619 393.771 22.1816 392.209 22.1816Z" fill="#FFDAD3"/>
<path d="M443.222 27.3452C443.222 28.3706 442.966 29.335 442.453 30.2383C441.94 31.1416 441.403 31.9961 440.842 32.8018L425.644 54.5547C427.255 54.457 428.659 54.2129 429.855 53.8223C431.076 53.4316 432.211 52.748 433.261 51.7715C434.335 50.7705 435.446 49.3301 436.594 47.4502C437.082 46.6201 437.558 45.8999 438.022 45.2896C438.51 44.6792 439.304 44.374 440.402 44.374C441.184 44.374 441.953 44.667 442.709 45.2529C443.466 45.8389 443.845 46.5591 443.845 47.4136C443.845 47.5845 443.833 47.7188 443.808 47.8164L441.647 59.2422C441.281 61.1709 440.17 62.1353 438.315 62.1353C437.265 62.1353 436.24 61.9399 435.239 61.5493C434.238 61.1831 433.2 61 432.126 61H413.12C412.167 61 411.203 60.8779 410.227 60.6338C409.274 60.3896 408.469 59.9624 407.81 59.3521C407.175 58.7173 406.857 57.814 406.857 56.6421C406.857 55.7632 407.004 54.8965 407.297 54.042C407.614 53.1875 408.017 52.4062 408.505 51.6982L423.959 29.7988C422.006 29.8477 420.285 30.2383 418.796 30.9707C417.331 31.7031 415.854 33.2412 414.365 35.585C413.852 36.3906 413.327 37.1108 412.79 37.7456C412.277 38.3804 411.484 38.6978 410.41 38.6978C409.604 38.6978 408.823 38.4048 408.066 37.8188C407.333 37.2085 406.967 36.4761 406.967 35.6216C406.967 35.4263 406.979 35.2798 407.004 35.1821L409.018 25.2212C409.409 23.2925 410.52 22.3281 412.351 22.3281C413.425 22.3281 414.462 22.5234 415.463 22.9141C416.464 23.3047 417.49 23.5 418.54 23.5H437.949C439.243 23.5 440.439 23.7563 441.538 24.269C442.661 24.7573 443.222 25.7827 443.222 27.3452Z" fill="#FFDAD3"/>
<path d="M467.136 22.3281C471.164 22.3281 474.692 23.1582 477.719 24.8184C480.771 26.4785 483.151 28.8101 484.86 31.813C486.569 34.8159 487.424 38.3438 487.424 42.3965C487.424 46.376 486.484 49.8428 484.604 52.7969C482.724 55.7266 480.197 58.0093 477.023 59.645C473.874 61.2563 470.371 62.062 466.513 62.062C462.46 62.062 458.908 61.2319 455.856 59.5718C452.805 57.8872 450.424 55.5312 448.715 52.5039C447.031 49.4521 446.188 45.8999 446.188 41.8472C446.188 37.8921 447.141 34.4497 449.045 31.52C450.949 28.5903 453.488 26.332 456.662 24.7451C459.836 23.1338 463.327 22.3281 467.136 22.3281ZM469.223 53.9688C469.833 53.9688 470.261 53.6514 470.505 53.0166C470.773 52.3818 470.944 51.686 471.018 50.9292C471.091 50.1479 471.127 49.5498 471.127 49.1348C471.127 47.7432 471.018 46.3638 470.798 44.9966C470.578 43.605 470.297 42.2378 469.956 40.895C469.833 40.3579 469.602 39.5278 469.26 38.4048C468.918 37.2573 468.503 36.061 468.015 34.8159C467.526 33.5708 466.989 32.5088 466.403 31.6299C465.817 30.751 465.195 30.3115 464.536 30.3115C463.974 30.3115 463.559 30.6289 463.291 31.2637C463.046 31.8984 462.888 32.6064 462.814 33.3877C462.741 34.1445 462.705 34.7183 462.705 35.1089C462.705 35.7681 462.802 36.8301 462.998 38.2949C463.193 39.7354 463.474 41.3467 463.84 43.1289C464.23 44.9111 464.694 46.6323 465.231 48.2925C465.769 49.9282 466.367 51.2832 467.026 52.3574C467.709 53.4316 468.442 53.9688 469.223 53.9688Z" fill="#FFDAD3"/>
<path d="M504.599 62.062C502.28 62.062 500.339 61.4761 498.776 60.3042C497.238 59.1079 496.091 57.5576 495.334 55.6533C494.577 53.749 494.199 51.7471 494.199 49.6475V37.1963C494.199 36.293 494.125 35.6582 493.979 35.292C493.833 34.9014 493.417 34.4009 492.734 33.7905C492.197 33.3022 491.684 32.8506 491.196 32.4355C490.732 31.9961 490.5 31.3613 490.5 30.5312C490.5 29.5791 490.805 28.8345 491.416 28.2974C492.05 27.7358 492.771 27.2964 493.576 26.979L501.633 23.793C502.585 23.4023 503.537 23.0605 504.489 22.7676C505.466 22.4746 506.479 22.3281 507.529 22.3281C508.53 22.3281 509.299 22.6821 509.836 23.3901C510.373 24.0737 510.642 24.8794 510.642 25.8071V45.6924C510.642 46.376 510.715 47.1084 510.861 47.8896C511.032 48.6709 511.35 49.3423 511.813 49.9038C512.277 50.4409 512.949 50.7095 513.828 50.7095C514.731 50.7095 515.524 50.5142 516.208 50.1235C516.892 49.7085 517.514 49.208 518.076 48.6221V37.1963C518.076 36.2686 517.99 35.5972 517.819 35.1821C517.673 34.7427 517.221 34.23 516.464 33.644C515.903 33.2046 515.415 32.7773 515 32.3623C514.584 31.9473 514.377 31.3369 514.377 30.5312C514.377 29.5791 514.682 28.8345 515.292 28.2974C515.927 27.7358 516.647 27.2964 517.453 26.979L525.51 23.793C526.462 23.4023 527.414 23.0605 528.366 22.7676C529.343 22.4746 530.356 22.3281 531.406 22.3281C532.407 22.3281 533.176 22.6699 533.713 23.3535C534.274 24.0371 534.555 24.855 534.555 25.8071V49.9771C534.555 50.6606 534.58 51.3442 534.628 52.0278C534.702 52.687 534.982 53.2974 535.471 53.8589C536.081 54.5181 536.618 55.0674 537.082 55.5068C537.546 55.9463 537.778 56.6665 537.778 57.6675C537.778 58.7661 537.448 59.5962 536.789 60.1577C536.13 60.7192 535.263 61 534.189 61H525.839C523.984 61 522.348 60.3042 520.932 58.9126C519.541 57.521 518.845 55.9097 518.845 54.0786C517.502 55.3726 516.037 56.6299 514.45 57.8506C512.863 59.0713 511.228 60.0845 509.543 60.8901C507.883 61.6714 506.235 62.062 504.599 62.062Z" fill="#FFDAD3"/>
<path d="M551.84 6.28809C554.672 6.28809 556.992 6.94727 558.798 8.26562C560.629 9.58398 561.545 11.769 561.545 14.8208C561.545 15.6753 561.472 16.5298 561.325 17.3843C561.203 18.2388 561.032 19.0811 560.812 19.9111L556.235 37.709C555.942 38.8809 555.466 39.8818 554.807 40.7119C554.172 41.5176 553.183 41.9204 551.84 41.9204C550.498 41.9204 549.497 41.5054 548.837 40.6753C548.203 39.8452 547.739 38.8564 547.446 37.709L542.832 19.9111C542.612 19.0811 542.429 18.2388 542.282 17.3843C542.16 16.5298 542.099 15.6753 542.099 14.8208C542.099 11.7446 543.015 9.55957 544.846 8.26562C546.677 6.94727 549.008 6.28809 551.84 6.28809ZM551.584 62.1353C549.899 62.1353 548.422 61.6836 547.153 60.7803C545.883 59.877 544.882 58.7051 544.15 57.2646C543.442 55.8242 543.088 54.3105 543.088 52.7236C543.088 51.1123 543.442 49.5986 544.15 48.1826C544.882 46.7422 545.883 45.5825 547.153 44.7036C548.422 43.8003 549.899 43.3486 551.584 43.3486C553.293 43.3486 554.782 43.8003 556.052 44.7036C557.346 45.5825 558.359 46.73 559.091 48.146C559.824 49.562 560.19 51.0879 560.19 52.7236C560.19 54.335 559.824 55.8608 559.091 57.3013C558.359 58.7173 557.346 59.877 556.052 60.7803C554.758 61.6836 553.269 62.1353 551.584 62.1353Z" fill="#FFDAD3"/>
<path d="M42.0015 14.3081C42.0015 12.8921 42.4165 11.8789 43.2466 11.2686C44.0767 10.6338 45.1509 10.3164 46.4692 10.3164H57.7852C59.1035 10.3164 60.1655 10.6338 60.9712 11.2686C61.8013 11.9033 62.2163 12.9165 62.2163 14.3081C62.2163 15.6509 61.8501 16.5786 61.1177 17.0913C60.4097 17.604 59.5552 18.1533 58.5542 18.7393C57.6021 19.3008 56.8818 20.0332 56.3936 20.9365C55.9297 21.8154 55.5146 22.7554 55.1484 23.7563L44.8579 51.4053C44.4673 52.4551 44.1499 53.4438 43.9058 54.3716C43.686 55.2993 43.5762 56.3369 43.5762 57.4844C43.5762 58.5098 43.2588 59.3521 42.624 60.0112C42.0137 60.6704 41.1836 61 40.1338 61H26.2544C25.1313 61 24.3013 60.646 23.7642 59.938C23.2271 59.23 22.9585 58.3511 22.9585 57.3013C22.9585 56.4468 22.8364 55.6167 22.5923 54.811C22.3481 53.981 22.0796 53.1753 21.7866 52.394L10.9468 22.9873C10.5562 21.9375 10.1777 21.144 9.81152 20.6069C9.46973 20.0698 8.82275 19.4839 7.87061 18.8491C6.84521 18.1655 6.06396 17.5796 5.52686 17.0913C5.01416 16.5786 4.75781 15.6509 4.75781 14.3081C4.75781 12.8921 5.17285 11.8789 6.00293 11.2686C6.83301 10.6338 7.90723 10.3164 9.22559 10.3164H30.2461C31.5645 10.3164 32.6265 10.6338 33.4321 11.2686C34.2622 11.8789 34.6772 12.8921 34.6772 14.3081C34.6772 15.3579 34.4209 16.1636 33.9082 16.7251C33.4199 17.2622 32.8462 17.7139 32.187 18.0801C31.5522 18.4463 30.9785 18.8613 30.4658 19.3252C29.9775 19.7891 29.7334 20.4604 29.7334 21.3394C29.7334 21.7788 29.7822 22.2183 29.8799 22.6577C29.9775 23.0972 30.0996 23.5244 30.2461 23.9395L38.1562 46.1318L46.7988 22.6211C47.0186 22.0107 47.1284 21.4614 47.1284 20.9731C47.1284 20.2163 46.8721 19.6426 46.3594 19.252C45.8467 18.8369 45.2485 18.4463 44.5649 18.0801C43.8813 17.7139 43.2832 17.2622 42.7705 16.7251C42.2578 16.1636 42.0015 15.3579 42.0015 14.3081Z" stroke="#F46142" stroke-width="8" mask="url(#path-2-outside-1_0_1)"/>
<path d="M79.2451 22.3281C83.2734 22.3281 86.8013 23.1582 89.8286 24.8184C92.8804 26.4785 95.2607 28.8101 96.9697 31.813C98.6787 34.8159 99.5332 38.3438 99.5332 42.3965C99.5332 46.376 98.5933 49.8428 96.7134 52.7969C94.8335 55.7266 92.3066 58.0093 89.1328 59.645C85.9834 61.2563 82.48 62.062 78.6226 62.062C74.5698 62.062 71.0176 61.2319 67.9658 59.5718C64.9141 57.8872 62.5337 55.5312 60.8247 52.5039C59.1401 49.4521 58.2979 45.8999 58.2979 41.8472C58.2979 37.8921 59.25 34.4497 61.1543 31.52C63.0586 28.5903 65.5977 26.332 68.7715 24.7451C71.9453 23.1338 75.4365 22.3281 79.2451 22.3281ZM81.3325 53.9688C81.9429 53.9688 82.3701 53.6514 82.6143 53.0166C82.8828 52.3818 83.0537 51.686 83.127 50.9292C83.2002 50.1479 83.2368 49.5498 83.2368 49.1348C83.2368 47.7432 83.127 46.3638 82.9072 44.9966C82.6875 43.605 82.4067 42.2378 82.0649 40.895C81.9429 40.3579 81.7109 39.5278 81.3691 38.4048C81.0273 37.2573 80.6123 36.061 80.124 34.8159C79.6357 33.5708 79.0986 32.5088 78.5127 31.6299C77.9268 30.751 77.3042 30.3115 76.645 30.3115C76.0835 30.3115 75.6685 30.6289 75.3999 31.2637C75.1558 31.8984 74.9971 32.6064 74.9238 33.3877C74.8506 34.1445 74.814 34.7183 74.814 35.1089C74.814 35.7681 74.9116 36.8301 75.1069 38.2949C75.3022 39.7354 75.583 41.3467 75.9492 43.1289C76.3398 44.9111 76.8037 46.6323 77.3408 48.2925C77.8779 49.9282 78.4761 51.2832 79.1353 52.3574C79.8188 53.4316 80.5513 53.9688 81.3325 53.9688Z" stroke="#F46142" stroke-width="8" mask="url(#path-2-outside-1_0_1)"/>
<path d="M139.121 34.3398C139.121 36.6348 138.291 38.3804 136.63 39.5767C134.97 40.7729 133.09 41.3711 130.991 41.3711C128.842 41.3711 127.121 40.7852 125.827 39.6133C124.533 38.4414 123.886 36.7568 123.886 34.5596C123.886 33.5586 123.752 32.5454 123.483 31.52C123.239 30.4946 122.446 29.9819 121.103 29.9819C120.078 29.9819 119.296 30.4824 118.759 31.4834C118.222 32.4844 117.856 33.6074 117.661 34.8525C117.49 36.0977 117.404 37.0986 117.404 37.8555C117.404 39.9551 117.746 41.957 118.43 43.8613C119.113 45.7656 120.2 47.3159 121.689 48.5122C123.178 49.6841 125.107 50.27 127.475 50.27C128.867 50.27 130.246 49.9404 131.613 49.2812C132.98 48.5977 134.189 47.9263 135.239 47.2671C136.289 46.6079 137.021 46.2783 137.436 46.2783C138.193 46.2783 138.693 46.5835 138.938 47.1938C139.182 47.7798 139.304 48.3657 139.304 48.9517C139.304 51.1489 138.779 53.0654 137.729 54.7012C136.704 56.3369 135.336 57.7041 133.627 58.8027C131.943 59.877 130.1 60.6826 128.098 61.2197C126.12 61.7812 124.179 62.062 122.275 62.062C118.613 62.062 115.317 61.2808 112.387 59.7183C109.482 58.1313 107.175 55.9219 105.466 53.0898C103.781 50.2578 102.939 46.9863 102.939 43.2754C102.939 39.2471 103.757 35.6582 105.393 32.5088C107.028 29.3594 109.348 26.8813 112.351 25.0747C115.378 23.2437 118.942 22.3281 123.044 22.3281C124.875 22.3281 126.73 22.5601 128.61 23.0239C130.49 23.4634 132.224 24.1714 133.811 25.1479C135.397 26.1001 136.679 27.3452 137.656 28.8833C138.632 30.397 139.121 32.2158 139.121 34.3398Z" stroke="#F46142" stroke-width="8" mask="url(#path-2-outside-1_0_1)"/>
<path d="M179.331 36.7935C179.331 38.9663 178.684 40.6143 177.39 41.7373C176.12 42.8604 174.436 43.4219 172.336 43.4219H157.578C158.139 45.5215 159.14 47.2915 160.581 48.7319C162.021 50.1479 164.096 50.856 166.806 50.856C167.88 50.856 168.942 50.6362 169.992 50.1968C171.066 49.7329 172.067 49.1958 172.995 48.5854C173.947 47.9751 174.777 47.4502 175.485 47.0107C176.193 46.5469 176.73 46.3149 177.097 46.3149C177.805 46.3149 178.317 46.5713 178.635 47.084C178.952 47.5723 179.111 48.1338 179.111 48.7686C179.111 50.9902 178.586 52.9434 177.536 54.6279C176.511 56.2881 175.144 57.6675 173.435 58.7661C171.75 59.8647 169.895 60.6826 167.868 61.2197C165.866 61.7812 163.889 62.062 161.936 62.062C158.103 62.062 154.721 61.2686 151.792 59.6816C148.862 58.0947 146.567 55.873 144.907 53.0166C143.271 50.1357 142.453 46.7544 142.453 42.8726C142.453 38.7222 143.247 35.1089 144.833 32.0327C146.445 28.9565 148.752 26.5762 151.755 24.8916C154.758 23.1826 158.359 22.3281 162.558 22.3281C165.463 22.3281 168.186 22.8774 170.725 23.9761C173.288 25.0747 175.363 26.6982 176.95 28.8467C178.537 30.9951 179.331 33.644 179.331 36.7935ZM156.918 37.7822C156.918 38.0508 156.918 38.3193 156.918 38.5879H160.727C161.655 38.5879 162.29 38.3804 162.631 37.9653C162.973 37.5259 163.144 36.8667 163.144 35.9878C163.144 35.4019 163.071 34.6328 162.924 33.6807C162.778 32.7285 162.485 31.874 162.045 31.1172C161.63 30.3604 161.02 29.9819 160.214 29.9819C159.482 29.9819 158.896 30.2871 158.457 30.8975C158.017 31.4834 157.688 32.228 157.468 33.1313C157.248 34.0103 157.102 34.877 157.028 35.7314C156.955 36.5859 156.918 37.2695 156.918 37.7822ZM174.46 17.897C174.46 18.7271 174.143 19.3862 173.508 19.8745C172.897 20.3628 172.202 20.6069 171.42 20.6069C170.883 20.6069 170.371 20.4971 169.882 20.2773C169.394 20.0576 168.942 19.7891 168.527 19.4717L160.91 13.5757L153.293 19.4717C152.878 19.7891 152.426 20.0576 151.938 20.2773C151.45 20.4971 150.937 20.6069 150.4 20.6069C149.643 20.6069 148.947 20.3628 148.312 19.8745C147.678 19.3862 147.36 18.7271 147.36 17.897C147.36 16.8716 147.727 15.9316 148.459 15.0771L154.392 8.11914C155.344 6.99609 156.271 6.04395 157.175 5.2627C158.078 4.48145 159.323 4.09082 160.91 4.09082C162.497 4.09082 163.742 4.48145 164.646 5.2627C165.549 6.04395 166.477 6.99609 167.429 8.11914L173.361 15.0771C174.094 15.9316 174.46 16.8716 174.46 17.897Z" stroke="#F46142" stroke-width="8" mask="url(#path-2-outside-1_0_1)"/>
<path d="M222.104 33.168V49.9771C222.104 51.7104 222.336 52.7847 222.8 53.1997C223.288 53.5903 224.35 53.8833 225.986 54.0786C227.28 54.2495 228.305 54.4937 229.062 54.811C229.819 55.1284 230.197 56.0806 230.197 57.6675C230.197 58.7661 229.868 59.5962 229.208 60.1577C228.549 60.7192 227.683 61 226.608 61H204.086C203.061 61 202.207 60.7314 201.523 60.1943C200.864 59.6328 200.534 58.8149 200.534 57.7407C200.534 56.4956 200.791 55.6411 201.303 55.1772C201.816 54.7134 202.402 54.3594 203.061 54.1152C203.745 53.8467 204.343 53.4316 204.855 52.8701C205.368 52.3086 205.625 51.2954 205.625 49.8306V35.6948C205.625 34.7915 205.307 34.1201 204.672 33.6807C204.062 33.2412 203.354 32.8506 202.548 32.5088C201.743 32.1426 201.022 31.6787 200.388 31.1172C199.777 30.5312 199.472 29.6646 199.472 28.5171C199.472 27.5161 199.802 26.7593 200.461 26.2466C201.12 25.7095 201.914 25.4409 202.841 25.4409H205.734V25.0381C205.734 24.8184 205.368 24.4155 204.636 23.8296C203.928 23.2437 203.208 22.4868 202.475 21.5591C201.743 20.6313 201.376 19.5815 201.376 18.4097C201.376 16.2368 201.853 14.4058 202.805 12.9165C203.781 11.4028 205.051 10.1943 206.613 9.29102C208.2 8.36328 209.934 7.69189 211.813 7.27686C213.693 6.86182 215.549 6.6543 217.38 6.6543C219.04 6.6543 220.749 6.84961 222.507 7.24023C224.265 7.63086 225.9 8.25342 227.414 9.10791C228.952 9.93799 230.185 11.0488 231.113 12.4404C232.065 13.8076 232.541 15.48 232.541 17.4575C232.541 19.4595 231.979 21.0464 230.856 22.2183C229.733 23.3901 228.159 23.9761 226.132 23.9761C224.008 23.9761 222.299 23.3535 221.005 22.1084C219.736 20.8633 219.101 19.1665 219.101 17.0181C219.101 16.2856 219.064 15.5654 218.991 14.8574C218.942 14.125 218.723 13.5269 218.332 13.063C217.941 12.5747 217.258 12.3306 216.281 12.3306C215.28 12.3306 214.609 12.6724 214.267 13.356C213.95 14.0151 213.791 14.772 213.791 15.6265C213.791 16.603 214.133 17.4819 214.816 18.2632C215.524 19.0444 216.33 19.7891 217.233 20.4971C218.161 21.2051 218.967 21.9375 219.65 22.6943C220.358 23.4268 220.712 24.2324 220.712 25.1113V25.4409H227.414C228.317 25.4409 229.099 25.6729 229.758 26.1367C230.417 26.5762 230.747 27.2964 230.747 28.2974C230.747 29.7866 230.258 30.8853 229.282 31.5933C228.305 32.2769 227.146 32.7163 225.803 32.9116C224.46 33.0825 223.227 33.168 222.104 33.168Z" stroke="#F46142" stroke-width="8" mask="url(#path-2-outside-1_0_1)"/>
<path d="M250.705 22.3281C251.706 22.3281 252.475 22.6699 253.012 23.3535C253.574 24.0371 253.854 24.855 253.854 25.8071V49.9771C253.854 50.6606 253.879 51.3564 253.928 52.0645C254.001 52.748 254.282 53.3462 254.77 53.8589C255.405 54.5425 255.93 55.0796 256.345 55.4702C256.784 55.8608 257.004 56.5933 257.004 57.6675C257.004 58.7417 256.662 59.5718 255.979 60.1577C255.319 60.7192 254.465 61 253.415 61H237.851C236.801 61 235.935 60.7192 235.251 60.1577C234.592 59.5962 234.262 58.7661 234.262 57.6675C234.262 56.6177 234.47 55.8853 234.885 55.4702C235.3 55.0308 235.837 54.4937 236.496 53.8589C236.984 53.3706 237.253 52.7603 237.302 52.0278C237.375 51.2954 237.412 50.6118 237.412 49.9771V37.1963C237.412 36.708 237.375 36.2075 237.302 35.6948C237.229 35.1577 237.021 34.7061 236.679 34.3398C236.582 34.2178 236.459 34.1201 236.313 34.0469C236.191 33.9736 236.081 33.8882 235.983 33.7905C235.446 33.229 234.946 32.7773 234.482 32.4355C234.042 32.0693 233.823 31.4346 233.823 30.5312C233.823 29.5547 234.128 28.7979 234.738 28.2607C235.349 27.7236 236.069 27.2964 236.899 26.979L244.809 23.793C245.737 23.4268 246.701 23.0972 247.702 22.8042C248.703 22.4868 249.704 22.3281 250.705 22.3281ZM245.212 22.1816C243.649 22.1816 242.075 21.9497 240.488 21.4858C238.901 21.022 237.57 20.2529 236.496 19.1787C235.446 18.0801 234.921 16.603 234.921 14.7476C234.921 12.8921 235.458 11.4395 236.533 10.3896C237.607 9.31543 238.938 8.55859 240.524 8.11914C242.111 7.67969 243.674 7.45996 245.212 7.45996C246.75 7.45996 248.312 7.67969 249.899 8.11914C251.511 8.55859 252.854 9.31543 253.928 10.3896C255.026 11.4395 255.576 12.8921 255.576 14.7476C255.576 16.6274 255.039 18.1167 253.964 19.2153C252.89 20.2896 251.547 21.0586 249.936 21.5225C248.349 21.9619 246.774 22.1816 245.212 22.1816Z" stroke="#F46142" stroke-width="8" mask="url(#path-2-outside-1_0_1)"/>
<path d="M277.365 22.3281C278.366 22.3281 279.123 22.6821 279.636 23.3901C280.173 24.0737 280.441 24.8794 280.441 25.8071V29.1763C282.37 27.394 284.494 25.8071 286.813 24.4155C289.133 23.0239 291.428 22.3281 293.698 22.3281C296.066 22.3281 298.032 22.9141 299.594 24.0859C301.157 25.2578 302.329 26.7837 303.11 28.6636C303.916 30.5435 304.318 32.5698 304.318 34.7427V49.9771C304.318 50.6606 304.343 51.332 304.392 51.9912C304.465 52.6504 304.733 53.2729 305.197 53.8589C305.759 54.5669 306.247 55.1162 306.662 55.5068C307.102 55.8975 307.321 56.6177 307.321 57.6675C307.321 58.7417 306.992 59.5718 306.333 60.1577C305.673 60.7192 304.819 61 303.769 61H288.461C287.436 61 286.643 60.6948 286.081 60.0845C285.544 59.4741 285.275 58.6685 285.275 57.6675C285.275 56.7397 285.483 56.0195 285.898 55.5068C286.337 54.9697 286.765 54.4204 287.18 53.8589C287.619 53.2729 287.839 52.4551 287.839 51.4053V38.6978C287.839 37.5503 287.607 36.4272 287.143 35.3286C286.704 34.23 285.776 33.6807 284.36 33.6807C283.505 33.6807 282.773 33.8516 282.163 34.1934C281.552 34.5107 280.979 34.9258 280.441 35.4385V50.4165C280.441 51.0757 280.466 51.7471 280.515 52.4307C280.563 53.0898 280.808 53.7002 281.247 54.2617C281.76 54.8721 282.187 55.3726 282.529 55.7632C282.871 56.1294 283.042 56.7642 283.042 57.6675C283.042 58.6685 282.761 59.4741 282.199 60.0845C281.662 60.6948 280.881 61 279.855 61H264.548C263.498 61 262.644 60.7192 261.984 60.1577C261.325 59.5718 260.996 58.7417 260.996 57.6675C260.996 56.8618 261.142 56.2393 261.435 55.7998C261.752 55.3359 262.106 54.9087 262.497 54.5181C262.888 54.1274 263.229 53.6514 263.522 53.0898C263.84 52.5283 263.999 51.7593 263.999 50.7827V37.1963C263.999 36.0977 263.828 35.2676 263.486 34.7061C263.144 34.1445 262.741 33.7051 262.277 33.3877C261.813 33.0459 261.411 32.6797 261.069 32.2891C260.727 31.8984 260.556 31.3125 260.556 30.5312C260.556 29.5791 260.874 28.8345 261.508 28.2974C262.143 27.7358 262.851 27.2964 263.632 26.979L271.542 23.793C272.47 23.4023 273.41 23.0605 274.362 22.7676C275.339 22.4746 276.34 22.3281 277.365 22.3281Z" stroke="#F46142" stroke-width="8" mask="url(#path-2-outside-1_0_1)"/>
<path d="M310.397 52.5771C310.397 50.3311 310.922 48.4634 311.972 46.9741C313.022 45.4604 314.389 44.252 316.074 43.3486C317.783 42.4209 319.626 41.7617 321.604 41.3711C323.581 40.9805 325.485 40.7852 327.316 40.7852C327.854 40.7852 328.403 40.7974 328.964 40.8218C329.526 40.8218 330.075 40.8706 330.612 40.9683V31.4468C330.612 30.8364 330.478 30.1284 330.209 29.3228C329.965 28.5171 329.453 28.1143 328.671 28.1143C327.915 28.1143 327.438 28.4316 327.243 29.0664C327.072 29.6768 326.987 30.2627 326.987 30.8242C326.987 31.0684 326.987 31.3247 326.987 31.5933C327.011 31.8374 327.023 32.0938 327.023 32.3623C327.023 34.877 326.157 36.647 324.423 37.6724C322.69 38.6733 320.712 39.1738 318.491 39.1738C316.635 39.1738 315.024 38.7588 313.657 37.9287C312.29 37.0986 311.606 35.6338 311.606 33.5342C311.606 32.7041 311.765 31.8984 312.082 31.1172C312.424 30.3359 312.851 29.6401 313.364 29.0298C314.853 27.2231 316.721 25.8438 318.967 24.8916C321.237 23.9395 323.618 23.2925 326.108 22.9507C328.623 22.5845 330.979 22.4014 333.176 22.4014C335.666 22.4014 337.949 22.7554 340.024 23.4634C342.099 24.1714 343.759 25.3555 345.004 27.0156C346.25 28.6514 346.872 30.8608 346.872 33.644V50.5264C346.872 50.9414 346.97 51.3076 347.165 51.625C347.36 51.9424 347.69 52.1011 348.154 52.1011C348.52 52.1011 348.825 51.9912 349.069 51.7715C349.338 51.5273 349.655 51.4053 350.021 51.4053C350.729 51.4053 351.254 51.6494 351.596 52.1377C351.962 52.626 352.146 53.1997 352.146 53.8589C352.146 55.5679 351.621 57.0449 350.571 58.29C349.545 59.5107 348.264 60.4385 346.726 61.0732C345.188 61.7324 343.637 62.062 342.075 62.062C340.244 62.062 338.388 61.6592 336.508 60.8535C334.653 60.0479 333.371 58.7905 332.663 57.0815C331.418 58.8149 329.709 60.0845 327.536 60.8901C325.388 61.6714 323.276 62.062 321.201 62.062C319.296 62.062 317.514 61.708 315.854 61C314.218 60.2676 312.9 59.1934 311.899 57.7773C310.898 56.3613 310.397 54.6279 310.397 52.5771ZM326.914 49.3545C326.914 50.3311 327.146 51.2588 327.609 52.1377C328.073 52.9922 328.867 53.4194 329.99 53.4194C330.209 53.4194 330.417 53.395 330.612 53.3462V45.7656C330.197 45.5947 329.77 45.5093 329.331 45.5093C328.403 45.5093 327.768 45.9731 327.426 46.9009C327.084 47.8042 326.914 48.6221 326.914 49.3545Z" stroke="#F46142" stroke-width="8" mask="url(#path-2-outside-1_0_1)"/>
<path d="M370.676 5.92188C371.677 5.92188 372.446 6.26367 372.983 6.94727C373.544 7.63086 373.825 8.44873 373.825 9.40088V49.9771C373.825 50.6851 373.862 51.3809 373.935 52.0645C374.008 52.7236 374.313 53.3218 374.851 53.8589C375.51 54.5181 376.071 55.0552 376.535 55.4702C377.023 55.8608 377.268 56.5933 377.268 57.6675C377.268 58.7661 376.926 59.5962 376.242 60.1577C375.559 60.7192 374.692 61 373.642 61H357.529C356.479 61 355.612 60.7192 354.929 60.1577C354.245 59.5962 353.903 58.7661 353.903 57.6675C353.903 56.7397 354.074 56.0684 354.416 55.6533C354.758 55.2139 355.161 54.8354 355.625 54.5181C356.088 54.2007 356.491 53.7612 356.833 53.1997C357.175 52.6138 357.346 51.6982 357.346 50.4531V20.7534C357.346 19.5815 357.15 18.7271 356.76 18.1899C356.369 17.6528 355.905 17.25 355.368 16.9814C354.855 16.6885 354.404 16.3589 354.013 15.9927C353.623 15.6021 353.427 14.9795 353.427 14.125C353.427 13.1484 353.745 12.3916 354.379 11.8545C355.014 11.3174 355.734 10.8901 356.54 10.5728L364.707 7.38672C365.683 6.99609 366.66 6.6543 367.636 6.36133C368.613 6.06836 369.626 5.92188 370.676 5.92188Z" stroke="#F46142" stroke-width="8" mask="url(#path-2-outside-1_0_1)"/>
<path d="M397.702 22.3281C398.703 22.3281 399.472 22.6699 400.009 23.3535C400.571 24.0371 400.852 24.855 400.852 25.8071V49.9771C400.852 50.6606 400.876 51.3564 400.925 52.0645C400.998 52.748 401.279 53.3462 401.767 53.8589C402.402 54.5425 402.927 55.0796 403.342 55.4702C403.781 55.8608 404.001 56.5933 404.001 57.6675C404.001 58.7417 403.659 59.5718 402.976 60.1577C402.316 60.7192 401.462 61 400.412 61H384.848C383.798 61 382.932 60.7192 382.248 60.1577C381.589 59.5962 381.259 58.7661 381.259 57.6675C381.259 56.6177 381.467 55.8853 381.882 55.4702C382.297 55.0308 382.834 54.4937 383.493 53.8589C383.981 53.3706 384.25 52.7603 384.299 52.0278C384.372 51.2954 384.409 50.6118 384.409 49.9771V37.1963C384.409 36.708 384.372 36.2075 384.299 35.6948C384.226 35.1577 384.018 34.7061 383.676 34.3398C383.579 34.2178 383.457 34.1201 383.31 34.0469C383.188 33.9736 383.078 33.8882 382.98 33.7905C382.443 33.229 381.943 32.7773 381.479 32.4355C381.04 32.0693 380.82 31.4346 380.82 30.5312C380.82 29.5547 381.125 28.7979 381.735 28.2607C382.346 27.7236 383.066 27.2964 383.896 26.979L391.806 23.793C392.734 23.4268 393.698 23.0972 394.699 22.8042C395.7 22.4868 396.701 22.3281 397.702 22.3281ZM392.209 22.1816C390.646 22.1816 389.072 21.9497 387.485 21.4858C385.898 21.022 384.567 20.2529 383.493 19.1787C382.443 18.0801 381.918 16.603 381.918 14.7476C381.918 12.8921 382.456 11.4395 383.53 10.3896C384.604 9.31543 385.935 8.55859 387.521 8.11914C389.108 7.67969 390.671 7.45996 392.209 7.45996C393.747 7.45996 395.31 7.67969 396.896 8.11914C398.508 8.55859 399.851 9.31543 400.925 10.3896C402.023 11.4395 402.573 12.8921 402.573 14.7476C402.573 16.6274 402.036 18.1167 400.961 19.2153C399.887 20.2896 398.544 21.0586 396.933 21.5225C395.346 21.9619 393.771 22.1816 392.209 22.1816Z" stroke="#F46142" stroke-width="8" mask="url(#path-2-outside-1_0_1)"/>
<path d="M443.222 27.3452C443.222 28.3706 442.966 29.335 442.453 30.2383C441.94 31.1416 441.403 31.9961 440.842 32.8018L425.644 54.5547C427.255 54.457 428.659 54.2129 429.855 53.8223C431.076 53.4316 432.211 52.748 433.261 51.7715C434.335 50.7705 435.446 49.3301 436.594 47.4502C437.082 46.6201 437.558 45.8999 438.022 45.2896C438.51 44.6792 439.304 44.374 440.402 44.374C441.184 44.374 441.953 44.667 442.709 45.2529C443.466 45.8389 443.845 46.5591 443.845 47.4136C443.845 47.5845 443.833 47.7188 443.808 47.8164L441.647 59.2422C441.281 61.1709 440.17 62.1353 438.315 62.1353C437.265 62.1353 436.24 61.9399 435.239 61.5493C434.238 61.1831 433.2 61 432.126 61H413.12C412.167 61 411.203 60.8779 410.227 60.6338C409.274 60.3896 408.469 59.9624 407.81 59.3521C407.175 58.7173 406.857 57.814 406.857 56.6421C406.857 55.7632 407.004 54.8965 407.297 54.042C407.614 53.1875 408.017 52.4062 408.505 51.6982L423.959 29.7988C422.006 29.8477 420.285 30.2383 418.796 30.9707C417.331 31.7031 415.854 33.2412 414.365 35.585C413.852 36.3906 413.327 37.1108 412.79 37.7456C412.277 38.3804 411.484 38.6978 410.41 38.6978C409.604 38.6978 408.823 38.4048 408.066 37.8188C407.333 37.2085 406.967 36.4761 406.967 35.6216C406.967 35.4263 406.979 35.2798 407.004 35.1821L409.018 25.2212C409.409 23.2925 410.52 22.3281 412.351 22.3281C413.425 22.3281 414.462 22.5234 415.463 22.9141C416.464 23.3047 417.49 23.5 418.54 23.5H437.949C439.243 23.5 440.439 23.7563 441.538 24.269C442.661 24.7573 443.222 25.7827 443.222 27.3452Z" stroke="#F46142" stroke-width="8" mask="url(#path-2-outside-1_0_1)"/>
<path d="M467.136 22.3281C471.164 22.3281 474.692 23.1582 477.719 24.8184C480.771 26.4785 483.151 28.8101 484.86 31.813C486.569 34.8159 487.424 38.3438 487.424 42.3965C487.424 46.376 486.484 49.8428 484.604 52.7969C482.724 55.7266 480.197 58.0093 477.023 59.645C473.874 61.2563 470.371 62.062 466.513 62.062C462.46 62.062 458.908 61.2319 455.856 59.5718C452.805 57.8872 450.424 55.5312 448.715 52.5039C447.031 49.4521 446.188 45.8999 446.188 41.8472C446.188 37.8921 447.141 34.4497 449.045 31.52C450.949 28.5903 453.488 26.332 456.662 24.7451C459.836 23.1338 463.327 22.3281 467.136 22.3281ZM469.223 53.9688C469.833 53.9688 470.261 53.6514 470.505 53.0166C470.773 52.3818 470.944 51.686 471.018 50.9292C471.091 50.1479 471.127 49.5498 471.127 49.1348C471.127 47.7432 471.018 46.3638 470.798 44.9966C470.578 43.605 470.297 42.2378 469.956 40.895C469.833 40.3579 469.602 39.5278 469.26 38.4048C468.918 37.2573 468.503 36.061 468.015 34.8159C467.526 33.5708 466.989 32.5088 466.403 31.6299C465.817 30.751 465.195 30.3115 464.536 30.3115C463.974 30.3115 463.559 30.6289 463.291 31.2637C463.046 31.8984 462.888 32.6064 462.814 33.3877C462.741 34.1445 462.705 34.7183 462.705 35.1089C462.705 35.7681 462.802 36.8301 462.998 38.2949C463.193 39.7354 463.474 41.3467 463.84 43.1289C464.23 44.9111 464.694 46.6323 465.231 48.2925C465.769 49.9282 466.367 51.2832 467.026 52.3574C467.709 53.4316 468.442 53.9688 469.223 53.9688Z" stroke="#F46142" stroke-width="8" mask="url(#path-2-outside-1_0_1)"/>
<path d="M504.599 62.062C502.28 62.062 500.339 61.4761 498.776 60.3042C497.238 59.1079 496.091 57.5576 495.334 55.6533C494.577 53.749 494.199 51.7471 494.199 49.6475V37.1963C494.199 36.293 494.125 35.6582 493.979 35.292C493.833 34.9014 493.417 34.4009 492.734 33.7905C492.197 33.3022 491.684 32.8506 491.196 32.4355C490.732 31.9961 490.5 31.3613 490.5 30.5312C490.5 29.5791 490.805 28.8345 491.416 28.2974C492.05 27.7358 492.771 27.2964 493.576 26.979L501.633 23.793C502.585 23.4023 503.537 23.0605 504.489 22.7676C505.466 22.4746 506.479 22.3281 507.529 22.3281C508.53 22.3281 509.299 22.6821 509.836 23.3901C510.373 24.0737 510.642 24.8794 510.642 25.8071V45.6924C510.642 46.376 510.715 47.1084 510.861 47.8896C511.032 48.6709 511.35 49.3423 511.813 49.9038C512.277 50.4409 512.949 50.7095 513.828 50.7095C514.731 50.7095 515.524 50.5142 516.208 50.1235C516.892 49.7085 517.514 49.208 518.076 48.6221V37.1963C518.076 36.2686 517.99 35.5972 517.819 35.1821C517.673 34.7427 517.221 34.23 516.464 33.644C515.903 33.2046 515.415 32.7773 515 32.3623C514.584 31.9473 514.377 31.3369 514.377 30.5312C514.377 29.5791 514.682 28.8345 515.292 28.2974C515.927 27.7358 516.647 27.2964 517.453 26.979L525.51 23.793C526.462 23.4023 527.414 23.0605 528.366 22.7676C529.343 22.4746 530.356 22.3281 531.406 22.3281C532.407 22.3281 533.176 22.6699 533.713 23.3535C534.274 24.0371 534.555 24.855 534.555 25.8071V49.9771C534.555 50.6606 534.58 51.3442 534.628 52.0278C534.702 52.687 534.982 53.2974 535.471 53.8589C536.081 54.5181 536.618 55.0674 537.082 55.5068C537.546 55.9463 537.778 56.6665 537.778 57.6675C537.778 58.7661 537.448 59.5962 536.789 60.1577C536.13 60.7192 535.263 61 534.189 61H525.839C523.984 61 522.348 60.3042 520.932 58.9126C519.541 57.521 518.845 55.9097 518.845 54.0786C517.502 55.3726 516.037 56.6299 514.45 57.8506C512.863 59.0713 511.228 60.0845 509.543 60.8901C507.883 61.6714 506.235 62.062 504.599 62.062Z" stroke="#F46142" stroke-width="8" mask="url(#path-2-outside-1_0_1)"/>
<path d="M551.84 6.28809C554.672 6.28809 556.992 6.94727 558.798 8.26562C560.629 9.58398 561.545 11.769 561.545 14.8208C561.545 15.6753 561.472 16.5298 561.325 17.3843C561.203 18.2388 561.032 19.0811 560.812 19.9111L556.235 37.709C555.942 38.8809 555.466 39.8818 554.807 40.7119C554.172 41.5176 553.183 41.9204 551.84 41.9204C550.498 41.9204 549.497 41.5054 548.837 40.6753C548.203 39.8452 547.739 38.8564 547.446 37.709L542.832 19.9111C542.612 19.0811 542.429 18.2388 542.282 17.3843C542.16 16.5298 542.099 15.6753 542.099 14.8208C542.099 11.7446 543.015 9.55957 544.846 8.26562C546.677 6.94727 549.008 6.28809 551.84 6.28809ZM551.584 62.1353C549.899 62.1353 548.422 61.6836 547.153 60.7803C545.883 59.877 544.882 58.7051 544.15 57.2646C543.442 55.8242 543.088 54.3105 543.088 52.7236C543.088 51.1123 543.442 49.5986 544.15 48.1826C544.882 46.7422 545.883 45.5825 547.153 44.7036C548.422 43.8003 549.899 43.3486 551.584 43.3486C553.293 43.3486 554.782 43.8003 556.052 44.7036C557.346 45.5825 558.359 46.73 559.091 48.146C559.824 49.562 560.19 51.0879 560.19 52.7236C560.19 54.335 559.824 55.8608 559.091 57.3013C558.359 58.7173 557.346 59.877 556.052 60.7803C554.758 61.6836 553.269 62.1353 551.584 62.1353Z" stroke="#F46142" stroke-width="8" mask="url(#path-2-outside-1_0_1)"/>
</svg>
