<svg width="150" height="150" viewBox="0 0 150 150" fill="none" xmlns="http://www.w3.org/2000/svg">
<path fill-rule="evenodd" clip-rule="evenodd" d="M75 150C116.421 150 150 116.421 150 75C150 33.5786 116.421 0 75 0C33.5786 0 0 33.5786 0 75C0 116.421 33.5786 150 75 150Z" fill="white"/>
<mask id="mask0_584_3371" style="mask-type:luminance" maskUnits="userSpaceOnUse" x="0" y="0" width="150" height="150">
<path fill-rule="evenodd" clip-rule="evenodd" d="M75 150C116.421 150 150 116.421 150 75C150 33.5786 116.421 0 75 0C33.5786 0 0 33.5786 0 75C0 116.421 33.5786 150 75 150Z" fill="white"/>
</mask>
<g mask="url(#mask0_584_3371)">
<path fill-rule="evenodd" clip-rule="evenodd" d="M49.6753 58.6398C43.4534 56.5948 38.961 50.7377 38.961 43.8315L44.4665 44.6359C42.8339 42.1718 41.8831 39.2166 41.8831 36.0393L49.6753 37.1778V33.1172L93.0122 39.6586C97.7762 40.3777 101.299 44.4718 101.299 49.2898V66.4796C104.66 67.3446 107.143 70.3954 107.143 74.0263C107.143 77.6571 104.66 80.708 101.299 81.573V84.7406H101.258C100.765 93.58 95.8238 101.232 88.6363 105.495V110.065H97.4026C102.526 110.065 106.725 114.021 107.114 119.045C116.5 120.442 123.701 128.536 123.701 138.312V164.611H27.2727V138.312C27.2727 128.197 34.9815 119.883 44.8445 118.924C45.2901 113.958 49.4632 110.065 54.5454 110.065H62.3376V105.495C55.1502 101.232 50.2092 93.58 49.716 84.7406H49.6753V81.8185C45.3718 81.8185 41.8831 78.3298 41.8831 74.0263C41.8831 69.7228 45.3718 66.2341 49.6753 66.2341V58.6398Z" fill="#C2D1D9"/>
</g>
</svg>
