<svg width="1440" height="334" viewBox="0 0 1440 334" fill="none" xmlns="http://www.w3.org/2000/svg">
<path d="M1353.48 79.2863L1389.74 16.5985L1378.36 88.1151L1377.78 91.7526L1381.15 90.2569L1447.33 60.85L1396.09 112.023L1393.48 114.625L1397.08 115.394L1467.91 130.5L1396.37 141.783L1392.74 142.356L1395.2 145.095L1443.62 198.945L1379.11 166.028L1375.83 164.353L1376.22 168.017L1383.73 240.041L1350.9 175.497L1349.23 172.214L1347.39 175.403L1311.13 238.09L1322.51 166.574L1323.09 162.936L1319.72 164.432L1253.54 193.839L1304.78 142.666L1307.39 140.064L1303.79 139.295L1232.96 124.189L1304.5 112.906L1308.13 112.333L1305.67 109.594L1257.25 55.7441L1321.76 88.6614L1325.04 90.3356L1324.65 86.6723L1317.14 14.6482L1349.97 79.1919L1351.64 82.4747L1353.48 79.2863Z" fill="#9882E3" stroke="#9882E3" stroke-width="4"/>
<path d="M1350.39 75.161L1386.64 12.4733L1375.27 83.9898L1374.69 87.6273L1378.06 86.1316L1444.23 56.7248L1392.99 107.897L1390.39 110.5L1393.99 111.268L1464.81 126.375L1393.28 137.657L1389.64 138.231L1392.1 140.97L1440.52 194.82L1376.02 161.902L1372.74 160.228L1373.12 163.891L1380.64 235.916L1347.81 171.372L1346.14 168.089L1344.29 171.277L1308.04 233.965L1319.41 162.449L1319.99 158.811L1316.63 160.307L1250.45 189.714L1301.69 138.541L1304.29 135.938L1300.69 135.17L1229.87 120.064L1301.4 108.781L1305.04 108.207L1302.58 105.468L1254.16 51.6188L1318.66 84.5361L1321.94 86.2104L1321.56 82.547L1314.04 10.523L1346.88 75.0666L1348.55 78.3495L1350.39 75.161Z" fill="#DCD6F0" stroke="#B9B1DA" stroke-width="4"/>
<path d="M48.6801 196.043L64.8993 170.166L78.6471 199.354L105.268 217.431L77.2295 229.47L60.8905 255.334L47.2626 226.159L20.5216 208.068L48.6801 196.043Z" fill="#F7C326" stroke="#F29F19" stroke-width="4" stroke-miterlimit="10"/>
<path d="M-8.3326 298.961L-0.00331833 285.672L7.05679 300.662L20.7279 309.945L6.32882 316.128L-2.06202 329.41L-9.06058 314.427L-22.7933 305.137L-8.3326 298.961Z" fill="#F7C326" stroke="#F29F19" stroke-width="4" stroke-miterlimit="10"/>
</svg>
