<svg width="143" height="93" viewBox="0 0 143 93" fill="none" xmlns="http://www.w3.org/2000/svg">
<path d="M135.858 1.34147L6.598 1.01362C3.63238 1.0061 1.22261 3.23073 1.21563 5.98248L1.01264 86.0172C1.00566 88.769 3.40411 91.0058 6.36973 91.0133L135.63 91.3412C138.595 91.3487 141.005 89.1241 141.012 86.3723L141.215 6.33757C141.222 3.58582 138.824 1.34899 135.858 1.34147Z" fill="white" stroke="#503A95" stroke-width="2" stroke-linecap="round" stroke-linejoin="round"/>
<path d="M2.75403 3.04443C138.538 90.0444 138.538 90.0444 138.538 90.0444L2.75403 3.04443Z" fill="white"/>
<path d="M2.75403 3.04443C138.538 90.0444 138.538 90.0444 138.538 90.0444" stroke="#503A95" stroke-width="2" stroke-linecap="round" stroke-dasharray="0.79 0.79"/>
<path d="M138.538 3.04443C2.75407 90.0444 2.75405 90.0444 2.75405 90.0444L138.538 3.04443Z" fill="white"/>
<path d="M138.538 3.04443C2.75407 90.0444 2.75406 90.0444 2.75406 90.0444" stroke="#503A95" stroke-width="2" stroke-linecap="round" stroke-dasharray="0.79 0.79"/>
<path d="M71.5488 30.2155C76.033 29.6659 80.5541 30.9021 84.1206 33.6531C87.6872 36.4041 90.008 40.4453 90.5743 44.8906C91.1406 49.3358 89.9061 53.8223 87.1414 57.3661C84.3768 60.9099 80.3077 63.2219 75.8264 63.7949C71.3452 64.368 66.8176 63.1554 63.2365 60.423C59.6554 57.6907 57.3131 53.6617 56.7232 49.2194C56.1333 44.7772 57.344 40.2843 60.0898 36.7261C62.8356 33.1679 66.8924 30.8348 71.3705 30.2383" fill="white"/>
<path d="M71.5488 30.2155C76.033 29.6659 80.5541 30.9021 84.1206 33.6531C87.6872 36.4041 90.008 40.4453 90.5743 44.8906C91.1406 49.3358 89.9061 53.8223 87.1414 57.3661C84.3768 60.9099 80.3077 63.2219 75.8264 63.7949C71.3452 64.368 66.8176 63.1554 63.2365 60.423C59.6554 57.6907 57.3131 53.6617 56.7232 49.2194C56.1333 44.7772 57.344 40.2843 60.0898 36.7261C62.8356 33.1679 66.8924 30.8348 71.3705 30.2383" stroke="#503A95" stroke-width="2" stroke-linecap="round" stroke-linejoin="round"/>
<path d="M63.6316 44.546C63.6316 44.546 63.7175 41.7193 66.6828 41.7268C69.5998 41.7342 69.8163 44.5617 69.8163 44.5617" fill="white"/>
<path d="M63.6316 44.546C63.6316 44.546 63.7175 41.7193 66.6828 41.7268C69.5998 41.7342 69.8163 44.5617 69.8163 44.5617" stroke="#503A95" stroke-width="2" stroke-linecap="round"/>
<path d="M84.1168 44.5983C84.1168 44.5983 84.0452 41.7712 81.0799 41.7636C78.1629 41.7562 77.932 44.5826 77.932 44.5826" fill="white"/>
<path d="M84.1168 44.5983C84.1168 44.5983 84.0452 41.7712 81.0799 41.7636C78.1629 41.7562 77.932 44.5826 77.932 44.5826" stroke="#503A95" stroke-width="2" stroke-linecap="round"/>
<path d="M68.4708 51.8204C68.4708 51.8204 68.5952 56.32 73.7127 56.3329C78.7468 56.3457 79.1442 51.8474 79.1442 51.8474" fill="white"/>
<path d="M68.4708 51.8204C68.4708 51.8204 68.5952 56.32 73.7127 56.3329C78.7468 56.3457 79.1442 51.8474 79.1442 51.8474" stroke="#503A95" stroke-width="2" stroke-linecap="round"/>
<path d="M73.2061 13.1175L64.373 13.0951C63.1456 13.0919 62.1473 14.3764 62.1433 15.9639L62.127 22.3947C62.1229 23.9823 63.1147 25.2718 64.3421 25.2749L73.1752 25.2973C74.4026 25.3004 75.4008 24.016 75.4049 22.4284L75.4212 15.9976C75.4252 14.41 74.4335 13.1206 73.2061 13.1175Z" fill="white" stroke="#503A95" stroke-width="2" stroke-linecap="round" stroke-linejoin="round"/>
<path d="M93.9302 7.37711L84.5384 7.35329C83.311 7.35018 82.3127 8.63461 82.3087 10.2222L82.2911 17.1655C82.2871 18.753 83.2788 20.0425 84.5062 20.0456L93.898 20.0694C95.1254 20.0726 96.1236 18.7881 96.1277 17.2006L96.1453 10.2572C96.1493 8.66971 95.1576 7.38023 93.9302 7.37711Z" fill="white" stroke="#503A95" stroke-width="2" stroke-linecap="round" stroke-linejoin="round"/>
<path d="M35.5565 49.9025L26.1647 49.8787C24.9373 49.8756 23.9391 51.16 23.935 52.7476L23.9174 59.6909C23.9134 61.2784 24.9051 62.5679 26.1325 62.571L35.5243 62.5948C36.7517 62.5979 37.75 61.3135 37.754 59.726L37.7716 52.7827C37.7757 51.1951 36.7839 49.9056 35.5565 49.9025Z" fill="white" stroke="#503A95" stroke-width="2" stroke-linecap="round" stroke-linejoin="round"/>
<path d="M90.3812 73.2294L80.9894 73.2056C79.762 73.2025 78.7637 74.4869 78.7597 76.0745L78.7421 83.0178C78.738 84.6053 79.7298 85.8948 80.9572 85.8979L90.349 85.9217C91.5764 85.9249 92.5746 84.6404 92.5787 83.0529L92.5963 76.1095C92.6003 74.522 91.6086 73.2325 90.3812 73.2294Z" fill="white" stroke="#503A95" stroke-width="2" stroke-linecap="round" stroke-linejoin="round"/>
<path d="M68.3637 67.9994L58.9719 67.9756C57.7445 67.9725 56.7462 69.2569 56.7422 70.8445L56.7245 77.7878C56.7205 79.3753 57.7123 80.6648 58.9397 80.6679L68.3315 80.6918C69.5589 80.6949 70.5571 79.4104 70.5612 77.8229L70.5788 70.8796C70.5828 69.292 69.591 68.0025 68.3637 67.9994Z" fill="white" stroke="#503A95" stroke-width="2" stroke-linecap="round" stroke-linejoin="round"/>
<path d="M43.697 40.533L34.3052 40.5092C33.0778 40.5061 32.0796 41.7905 32.0755 43.378L32.0579 50.3214C32.0539 51.9089 33.0456 53.1984 34.273 53.2015L43.6648 53.2253C44.8922 53.2284 45.8905 51.944 45.8945 50.3565L45.9121 43.4131C45.9162 41.8256 44.9244 40.5361 43.697 40.533Z" fill="white" stroke="#503A95" stroke-width="2" stroke-linecap="round" stroke-linejoin="round"/>
</svg>
