<svg width="91" height="77" viewBox="0 0 91 77" fill="none" xmlns="http://www.w3.org/2000/svg">
<rect width="90.6613" height="77" rx="6.72478" fill="#ECECEC"/>
<path fill-rule="evenodd" clip-rule="evenodd" d="M85.3283 0H5.33302C2.38767 0 0 2.46243 0 5.5V71.5C0 74.5376 2.38767 77 5.33302 77H85.3283C88.2736 77 90.6613 74.5376 90.6613 71.5V5.5C90.6613 2.46243 88.2736 0 85.3283 0ZM5.33327 71.5002V5.50019H85.3285V71.5002H5.33327Z" fill="#424B5A"/>
<path fill-rule="evenodd" clip-rule="evenodd" d="M14.6659 22.6875C14.6659 28.3829 19.1428 33 24.6653 33C30.1878 33 34.6647 28.3829 34.6647 22.6875C34.6647 16.9921 30.1878 12.375 24.6653 12.375C19.1428 12.375 14.6659 16.9921 14.6659 22.6875ZM29.3317 22.6877C29.3317 25.3455 27.2425 27.5002 24.6653 27.5002C22.0881 27.5002 19.9989 25.3455 19.9989 22.6877C19.9989 20.0298 22.0881 17.8752 24.6653 17.8752C27.2425 17.8752 29.3317 20.0298 29.3317 22.6877Z" fill="#424B5A"/>
<path d="M19.2097 65.2031C18.1639 66.2724 16.4756 66.2648 15.4388 65.1863C14.4019 64.1077 14.4092 62.3665 15.4551 61.2972L37.3862 38.874L49.7472 49.9623C50.8584 50.959 50.9757 52.696 50.0092 53.842C49.0427 54.9879 47.3584 55.1089 46.2473 54.1121L37.6235 46.3763L19.2097 65.2031Z" fill="#424B5A"/>
<path d="M39.217 65.1942C38.1757 66.2682 36.4874 66.2683 35.446 65.1944C34.4046 64.1205 34.4045 62.3793 35.4458 61.3053L70.5406 25.1084L89.7538 42.4944C90.8607 43.4961 90.9707 45.2336 89.9994 46.3753C89.0281 47.5169 87.3434 47.6303 86.2364 46.6286L70.779 32.6411L39.217 65.1942Z" fill="#424B5A"/>
</svg>
