<svg width="306" height="380" viewBox="0 0 306 380" fill="none" xmlns="http://www.w3.org/2000/svg">
<g filter="url(#filter0_d_852_2344)">
<path d="M296.384 237.174C296.384 259.913 291.988 276.815 283.195 287.881C274.555 298.948 259.699 304.481 238.627 304.481C217.404 304.481 201.715 299.706 191.558 290.155C181.553 280.605 176.55 265.446 176.55 244.678V149.402H225.211V242.176C225.211 252.636 225.666 260.898 226.576 266.962C227.485 272.874 229.229 277.422 231.806 280.605C234.383 283.788 238.248 285.38 243.402 285.38C248.557 285.38 252.498 283.788 255.227 280.605C257.955 277.27 259.774 272.419 260.684 266.052C261.594 259.534 262.048 250.741 262.048 239.675V149.402H296.384V237.174Z" fill="#9882E3"/>
</g>
<g filter="url(#filter1_d_852_2344)">
<path d="M152.175 219.507C143.989 219.507 138.683 224.964 136.258 235.879C133.984 246.642 132.847 259.452 132.847 274.308C132.847 291.438 135.424 304.853 140.578 314.555C145.732 324.106 154.525 328.881 166.955 328.881C180.295 328.881 190.604 322.514 197.88 309.78C203.792 313.418 206.748 318.952 206.748 326.38C206.748 334.111 204.171 340.705 199.017 346.162C193.863 351.62 187.193 355.637 179.007 358.214C170.972 360.943 162.635 362.307 153.994 362.307C137.319 362.307 123.448 358.896 112.382 352.074C101.467 345.101 93.4331 335.702 88.279 323.878C83.1248 312.054 80.5478 298.487 80.5478 283.176C80.5478 257.405 86.763 237.547 99.1936 223.6C111.776 209.654 130.497 202.68 155.358 202.68C169.76 202.68 181.811 205.03 191.513 209.729C201.367 214.429 206.293 222.312 206.293 233.378C206.293 241.261 203.565 247.552 198.107 252.251C192.65 256.799 185.904 259.073 177.87 259.073C172.867 259.073 168.926 258.618 166.046 257.708C166.955 253.161 167.41 248.992 167.41 245.202C167.41 237.471 166.349 231.255 164.227 226.556C162.104 221.857 158.087 219.507 152.175 219.507Z" fill="#F46142"/>
</g>
<g filter="url(#filter2_d_852_2344)">
<path d="M11.3694 129.515C32.1375 127.696 52.2235 126.787 71.6273 126.787C97.0948 126.787 115.968 132.851 128.247 144.978C140.526 156.954 146.665 175.599 146.665 200.915C146.665 226.838 140.071 246.545 126.883 260.036C113.694 273.528 94.2145 280.274 68.4439 280.274C51.1624 280.274 32.1375 279.213 11.3694 277.09V129.515ZM71.8547 263.447C80.647 263.447 86.5591 257.687 89.591 246.166C92.6228 234.493 94.1387 219.864 94.1387 202.28C94.1387 184.998 92.6228 170.9 89.591 159.985C86.5591 149.071 80.5712 143.614 71.6273 143.614C69.3534 143.614 67.3827 143.765 65.7152 144.068C64.0477 144.372 62.1528 144.826 60.0305 145.433V261.855C63.8203 262.917 67.7617 263.447 71.8547 263.447Z" fill="#F7C326"/>
</g>
<defs>
<filter id="filter0_d_852_2344" x="176.551" y="149.402" width="126.939" height="162.185" filterUnits="userSpaceOnUse" color-interpolation-filters="sRGB">
<feFlood flood-opacity="0" result="BackgroundImageFix"/>
<feColorMatrix in="SourceAlpha" type="matrix" values="0 0 0 0 0 0 0 0 0 0 0 0 0 0 0 0 0 0 127 0" result="hardAlpha"/>
<feOffset dx="7.10588" dy="7.10588"/>
<feComposite in2="hardAlpha" operator="out"/>
<feColorMatrix type="matrix" values="0 0 0 0 0.152941 0 0 0 0 0.152941 0 0 0 0 0.152941 0 0 0 1 0"/>
<feBlend mode="normal" in2="BackgroundImageFix" result="effect1_dropShadow_852_2344"/>
<feBlend mode="normal" in="SourceGraphic" in2="effect1_dropShadow_852_2344" result="shape"/>
</filter>
<filter id="filter1_d_852_2344" x="80.5479" y="202.68" width="133.306" height="166.732" filterUnits="userSpaceOnUse" color-interpolation-filters="sRGB">
<feFlood flood-opacity="0" result="BackgroundImageFix"/>
<feColorMatrix in="SourceAlpha" type="matrix" values="0 0 0 0 0 0 0 0 0 0 0 0 0 0 0 0 0 0 127 0" result="hardAlpha"/>
<feOffset dx="7.10588" dy="7.10588"/>
<feComposite in2="hardAlpha" operator="out"/>
<feColorMatrix type="matrix" values="0 0 0 0 0.152941 0 0 0 0 0.152941 0 0 0 0 0.152941 0 0 0 1 0"/>
<feBlend mode="normal" in2="BackgroundImageFix" result="effect1_dropShadow_852_2344"/>
<feBlend mode="normal" in="SourceGraphic" in2="effect1_dropShadow_852_2344" result="shape"/>
</filter>
<filter id="filter2_d_852_2344" x="11.3691" y="126.787" width="142.402" height="160.593" filterUnits="userSpaceOnUse" color-interpolation-filters="sRGB">
<feFlood flood-opacity="0" result="BackgroundImageFix"/>
<feColorMatrix in="SourceAlpha" type="matrix" values="0 0 0 0 0 0 0 0 0 0 0 0 0 0 0 0 0 0 127 0" result="hardAlpha"/>
<feOffset dx="7.10588" dy="7.10588"/>
<feComposite in2="hardAlpha" operator="out"/>
<feColorMatrix type="matrix" values="0 0 0 0 0.152941 0 0 0 0 0.152941 0 0 0 0 0.152941 0 0 0 1 0"/>
<feBlend mode="normal" in2="BackgroundImageFix" result="effect1_dropShadow_852_2344"/>
<feBlend mode="normal" in="SourceGraphic" in2="effect1_dropShadow_852_2344" result="shape"/>
</filter>
</defs>
</svg>
