<svg width="361" height="304" viewBox="0 0 361 304" fill="none" xmlns="http://www.w3.org/2000/svg">
<g clip-path="url(#clip0_584_3363)">
<rect width="361" height="303" rx="2" fill="white"/>
<rect x="0.5" y="0.5" width="360" height="302" rx="1.5" stroke="#C2D1D9"/>
</g>
<g clip-path="url(#clip1_584_3363)">
<path d="M12 11L348.579 291.423" stroke="#C2D1D9"/>
<path d="M348.579 11L11.9999 291.423" stroke="#C2D1D9"/>
</g>
<rect x="147" y="124" width="68" height="56" rx="4" fill="white"/>
<path fill-rule="evenodd" clip-rule="evenodd" d="M211 124H151C148.791 124 147 125.791 147 128V176C147 178.209 148.791 180 151 180H211C213.209 180 215 178.209 215 176V128C215 125.791 213.209 124 211 124ZM151 176V128H211V176H151Z" fill="#C2D1D9"/>
<path fill-rule="evenodd" clip-rule="evenodd" d="M158 140.5C158 144.642 161.358 148 165.5 148C169.642 148 173 144.642 173 140.5C173 136.358 169.642 133 165.5 133C161.358 133 158 136.358 158 140.5ZM169 140.5C169 142.433 167.433 144 165.5 144C163.567 144 162 142.433 162 140.5C162 138.567 163.567 137 165.5 137C167.433 137 169 138.567 169 140.5Z" fill="#C2D1D9"/>
<path d="M161.408 171.42C160.624 172.198 159.357 172.192 158.58 171.408C157.802 170.623 157.807 169.357 158.592 168.579L175.041 152.271L184.313 160.336C185.146 161.061 185.234 162.324 184.509 163.157C183.784 163.991 182.521 164.079 181.687 163.354L175.219 157.728L161.408 171.42Z" fill="#C2D1D9"/>
<path d="M176.414 171.414C175.633 172.195 174.367 172.195 173.586 171.414C172.805 170.633 172.805 169.367 173.586 168.586L199.908 142.261L214.319 154.905C215.149 155.634 215.232 156.897 214.503 157.728C213.775 158.558 212.511 158.64 211.681 157.912L200.087 147.739L176.414 171.414Z" fill="#C2D1D9"/>
<defs>
<clipPath id="clip0_584_3363">
<rect width="361" height="303" fill="white"/>
</clipPath>
<clipPath id="clip1_584_3363">
<rect width="337" height="281" fill="white" transform="translate(12 11)"/>
</clipPath>
</defs>
</svg>
