<svg width="631" height="631" viewBox="0 0 631 631" fill="none" xmlns="http://www.w3.org/2000/svg">
<mask id="mask0_949_3888" style="mask-type:alpha" maskUnits="userSpaceOnUse" x="26" y="26" width="579" height="579">
<circle cx="315.5" cy="315.5" r="289.5" fill="#D9D9D9"/>
</mask>
<g mask="url(#mask0_949_3888)">
<path d="M313.029 321.999L51.107 82.1987L73.2295 60.0762L313.029 321.999Z" fill="#F46142" fill-opacity="0.05"/>
<path d="M313.029 321.998L13.4152 131.327L31.4054 105.657L313.029 321.998Z" fill="#F46142" fill-opacity="0.05"/>
<path d="M313.029 321.999L-15.1354 186.259L-1.90362 157.875L313.029 321.999Z" fill="#F46142" fill-opacity="0.05"/>
<path d="M313.03 321.999L-33.71 245.279L-25.6123 215.059L313.03 321.999Z" fill="#F46142" fill-opacity="0.05"/>
<path d="M313.029 321.998L-41.7659 306.638L-39.0528 275.458L313.029 321.998Z" fill="#F46142" fill-opacity="0.05"/>
<path d="M313.029 321.999L-39.0528 368.498L-41.7659 337.317L313.029 321.999Z" fill="#F46142" fill-opacity="0.05"/>
<path d="M313.03 321.999L-25.6123 428.938L-33.71 398.676L313.03 321.999Z" fill="#F46142" fill-opacity="0.05"/>
<path d="M313.029 321.999L-1.90362 486.081L-15.1354 457.739L313.029 321.999Z" fill="#F46142" fill-opacity="0.05"/>
<path d="M313.029 321.999L31.4054 538.298L13.4152 512.628L313.029 321.999Z" fill="#F46142" fill-opacity="0.05"/>
<path d="M313.029 321.999L73.2295 583.921L51.107 561.757L313.029 321.999Z" fill="#F46142" fill-opacity="0.05"/>
<path d="M313.029 321.999L122.358 621.571L96.6878 603.623L313.029 321.999Z" fill="#F46142" fill-opacity="0.05"/>
<path d="M313.029 321.999L177.289 650.122L148.905 636.89L313.029 321.999Z" fill="#F46142" fill-opacity="0.05"/>
<path d="M313.029 321.999L236.31 668.696L206.09 660.599L313.029 321.999Z" fill="#F46142" fill-opacity="0.05"/>
<path d="M313.029 321.999L297.669 676.752L266.489 674.039L313.029 321.999Z" fill="#F46142" fill-opacity="0.05"/>
<path d="M313.029 321.999L359.529 674.039L328.348 676.752L313.029 321.999Z" fill="#F46142" fill-opacity="0.05"/>
<path d="M313.029 321.999L419.969 660.599L389.707 668.696L313.029 321.999Z" fill="#F46142" fill-opacity="0.05"/>
<path d="M313.029 321.999L477.112 636.89L448.77 650.122L313.029 321.999Z" fill="#F46142" fill-opacity="0.05"/>
<path d="M313.029 321.999L529.329 603.623L503.659 621.571L313.029 321.999Z" fill="#F46142" fill-opacity="0.05"/>
<path d="M313.029 321.999L574.952 561.757L552.788 583.921L313.029 321.999Z" fill="#F46142" fill-opacity="0.05"/>
<path d="M313.029 321.999L612.602 512.628L594.653 538.298L313.029 321.999Z" fill="#F46142" fill-opacity="0.05"/>
<path d="M313.029 321.999L641.153 457.739L627.921 486.081L313.029 321.999Z" fill="#F46142" fill-opacity="0.05"/>
<path d="M313.029 321.999L659.727 398.676L651.629 428.938L313.029 321.999Z" fill="#F46142" fill-opacity="0.05"/>
<path d="M313.029 321.999L667.783 337.317L665.07 368.498L313.029 321.999Z" fill="#F46142" fill-opacity="0.05"/>
<path d="M313.029 321.998L665.07 275.458L667.783 306.638L313.029 321.998Z" fill="#F46142" fill-opacity="0.05"/>
<path d="M313.029 321.999L651.629 215.059L659.727 245.279L313.029 321.999Z" fill="#F46142" fill-opacity="0.05"/>
<path d="M313.029 321.999L627.921 157.875L641.153 186.259L313.029 321.999Z" fill="#F46142" fill-opacity="0.05"/>
<path d="M313.029 321.998L594.653 105.657L612.602 131.327L313.029 321.998Z" fill="#F46142" fill-opacity="0.05"/>
<path d="M313.029 321.999L552.788 60.0762L574.952 82.1987L313.029 321.999Z" fill="#F46142" fill-opacity="0.05"/>
<path d="M313.029 321.999L503.659 22.3845L529.329 40.3747L313.029 321.999Z" fill="#F46142" fill-opacity="0.05"/>
<path d="M313.029 321.998L448.77 -6.1665L477.112 7.06528L313.029 321.998Z" fill="#F46142" fill-opacity="0.05"/>
<path d="M313.029 321.999L389.707 -24.741L419.969 -16.6433L313.029 321.999Z" fill="#F46142" fill-opacity="0.05"/>
<path d="M313.029 321.998L328.348 -32.7969L359.529 -30.0837L313.029 321.998Z" fill="#F46142" fill-opacity="0.05"/>
<path d="M313.029 321.998L266.489 -30.0837L297.669 -32.7969L313.029 321.998Z" fill="#F46142" fill-opacity="0.05"/>
<path d="M313.029 321.999L206.09 -16.6433L236.31 -24.741L313.029 321.999Z" fill="#F46142" fill-opacity="0.05"/>
<path d="M313.029 321.998L148.905 7.06528L177.289 -6.1665L313.029 321.998Z" fill="#F46142" fill-opacity="0.05"/>
<path d="M313.029 321.999L96.6878 40.3747L122.358 22.3845L313.029 321.999Z" fill="#F46142" fill-opacity="0.05"/>
</g>
</svg>
