<svg width="36" height="37" viewBox="0 0 36 37" fill="none" xmlns="http://www.w3.org/2000/svg">
<path d="M18 20.3992C19.1471 20.3992 20.0769 19.4693 20.0769 18.3223C20.0769 17.1752 19.1471 16.2453 18 16.2453C16.8529 16.2453 15.9231 17.1752 15.9231 18.3223C15.9231 19.4693 16.8529 20.3992 18 20.3992Z" fill="white"/>
<path d="M18 0.322266C8.0749 0.322266 0 8.39717 0 18.3223C0 28.2474 8.0749 36.3223 18 36.3223C27.9251 36.3223 36 28.2474 36 18.3223C36 8.39717 27.9251 0.322266 18 0.322266ZM27.0926 10.1297L23.0357 20.272C22.7571 20.9685 22.3399 21.6013 21.8095 22.1317C21.279 22.6622 20.6463 23.0794 19.9497 23.3579L9.8074 27.4149C9.68159 27.4652 9.54377 27.4775 9.41102 27.4503C9.27826 27.4231 9.15642 27.3575 9.0606 27.2617C8.96477 27.1658 8.89918 27.044 8.87195 26.9112C8.84472 26.7785 8.85704 26.6407 8.9074 26.5149L12.9643 16.3726C13.2429 15.676 13.6601 15.0433 14.1905 14.5128C14.721 13.9823 15.3537 13.5652 16.0503 13.2866L26.1926 9.22967C26.3184 9.17931 26.4562 9.16698 26.589 9.19421C26.7217 9.22145 26.8436 9.28704 26.9394 9.38286C27.0352 9.47869 27.1008 9.60053 27.128 9.73328C27.1553 9.86603 27.143 10.0039 27.0926 10.1297Z" fill="white"/>
</svg>
