<svg width="36" height="36" viewBox="0 0 36 36" fill="none" xmlns="http://www.w3.org/2000/svg">
<path d="M18 20.0769C19.1471 20.0769 20.0769 19.1471 20.0769 18C20.0769 16.8529 19.1471 15.9231 18 15.9231C16.8529 15.9231 15.9231 16.8529 15.9231 18C15.9231 19.1471 16.8529 20.0769 18 20.0769Z" fill="#505D68"/>
<path d="M18 0C8.0749 0 0 8.0749 0 18C0 27.9251 8.0749 36 18 36C27.9251 36 36 27.9251 36 18C36 8.0749 27.9251 0 18 0ZM27.0926 9.8074L23.0357 19.9497C22.7571 20.6463 22.3399 21.279 21.8095 21.8095C21.279 22.3399 20.6463 22.7571 19.9497 23.0357L9.8074 27.0926C9.68159 27.143 9.54377 27.1553 9.41102 27.128C9.27826 27.1008 9.15642 27.0352 9.0606 26.9394C8.96477 26.8436 8.89918 26.7217 8.87195 26.589C8.84472 26.4562 8.85704 26.3184 8.9074 26.1926L12.9643 16.0503C13.2429 15.3537 13.6601 14.721 14.1905 14.1905C14.721 13.6601 15.3537 13.2429 16.0503 12.9643L26.1926 8.9074C26.3184 8.85704 26.4562 8.84472 26.589 8.87195C26.7217 8.89918 26.8436 8.96477 26.9394 9.0606C27.0352 9.15642 27.1008 9.27826 27.128 9.41102C27.1553 9.54377 27.143 9.68159 27.0926 9.8074Z" fill="#505D68"/>
</svg>
