<svg xmlns="http://www.w3.org/2000/svg" viewBox="0 0 730.55 242.53"><defs><style>.cls-1{fill:#f46142;}.cls-2{fill:#ffdad3;}</style></defs><g id="Camada_2" data-name="Camada 2"><g id="Camada_1-2" data-name="Camada 1"><path class="cls-1" d="M726.77,141.35a30.58,30.58,0,0,0,3.75-13.67,43.09,43.09,0,0,0-.35-7.24c-.25-1.89-.5-3.76-.75-5.55-.32-2.49-.76-5.54-1.32-9a36,36,0,0,0-4.18-12.29,16.57,16.57,0,0,0-5.19-5.63L667.39,53.73l.12.09a17.51,17.51,0,0,0-10.16-2.89,19.35,19.35,0,0,0-13.11,5.3c-1.38-.5-2.49-.91-3.37-1.25-1.61-.6-2.63-1-3.46-1.18a46.06,46.06,0,0,0-11.11-2.15c-3.33-.23-6.76-.32-10.21-.28a79.74,79.74,0,0,0-10.56.81,24.52,24.52,0,0,0-2-2.4,35.25,35.25,0,0,0-5.62-4.65L546.52,10.94l0,0a38,38,0,0,0-11.24-5.05A64.46,64.46,0,0,0,517.7,3.59a66.52,66.52,0,0,0-17.76,2.7,40.78,40.78,0,0,0-17.41,10.07C477,21.81,474,29,473.72,37.82s2.1,15.9,7.14,21.3a34.44,34.44,0,0,0,6.74,5.59l-.6-.37,3.31,2.2-5.18,2.15a34.43,34.43,0,0,0-10,6.09,19.68,19.68,0,0,0-2.95,3.27L448.42,62.24l.25-7a22.1,22.1,0,0,0-4-13.89,16.83,16.83,0,0,0-4.37-4.26L389,2.92l.14.11a18.18,18.18,0,0,0-10.58-3A43.78,43.78,0,0,0,366,2,103.86,103.86,0,0,0,355.77,5.8L330.2,16.46a35.22,35.22,0,0,0-9.93,6c-3,2.55-6.55,7.24-6.82,15-.18,5,1,9.13,3.6,12.21a29.78,29.78,0,0,0,5.39,5,4.61,4.61,0,0,1,1.14,1.34,11.16,11.16,0,0,1,.18,3.07l-.31,8.93-12.74-8.49.23.18c-4.93-3.37-11.14-5.05-18.5-5-10.32.11-19,3-25.84,8.71l-8.47-5.65.13.1a16.18,16.18,0,0,0-9.45-2.7A27.9,27.9,0,0,0,239.35,57c-2.07.77-4.17,1.61-6.22,2.49l-20.25,8.28a82.26,82.26,0,0,0-8.18-6.22L153.36,27.35l1.45,1a83,83,0,0,0-7.1-4.45c-14-7.8-30.35-11.65-48.72-11.46S64,16.93,49.4,25.21A95.27,95.27,0,0,0,14.16,59.88C5.49,74.48.75,91.43.09,110.25c-.68,19.42,2.58,36.7,9.68,51.38a79.53,79.53,0,0,0,29,32.87l-1.18-.75,51.34,34.19c1.42.94,2.88,1.85,4.37,2.71,13.93,8.09,30.82,12.08,50.2,11.88,19.19-.21,36.27-4.7,50.79-13.37a93.63,93.63,0,0,0,20.08-16.07l30.05,20a21.51,21.51,0,0,0,12.43,3.43l62.26-.66a22.48,22.48,0,0,0,14.81-5.27c3.1-2.63,6.84-7.51,7.13-15.75a35.08,35.08,0,0,0-.11-4.18l37.44,24.93a17.46,17.46,0,0,0,10.06,2.79,70.09,70.09,0,0,0,20.74-3.92c5.06-1.68,9.95-3.39,14.59-5.1l.17.11a51.31,51.31,0,0,0,10.68,5.42,52.89,52.89,0,0,0,18.9,3c14.83-.15,27.78-4.22,38.46-12.09a75.4,75.4,0,0,0,11.67-10.68l22.53,15a21.35,21.35,0,0,0,12.34,3.4l50.12-.53a22.69,22.69,0,0,0,14.76-5.34c.26-.23.53-.47.8-.73l9.49,6.33a19.27,19.27,0,0,0,11.13,3.08c5.06,0,9.64-2.07,14.38-5.64a19.48,19.48,0,0,1,2.07.63l2.23,1a43.51,43.51,0,0,0,10.08,2.44,80.87,80.87,0,0,0,11.45.94,91.73,91.73,0,0,0,29.76-5.05,52.88,52.88,0,0,0,24.55-17.54c6.46-8.28,10-19.15,10.43-32.3.35-10.11-1.84-19.07-6.52-26.6a52,52,0,0,0-3.85-5.42A18.26,18.26,0,0,0,726.77,141.35Zm-278.35-79,1.08.81-1.08-.8Z"/><path class="cls-2" d="M170.67,58.6q10.22,19.31,9.32,45.28-.93,26.36-12.14,46.72a83.35,83.35,0,0,1-30.77,32.06q-19.55,11.68-45.85,12-26.64.28-45.48-10.64a70.24,70.24,0,0,1-28.49-30.9q-9.68-20-8.73-46.79.9-25.74,12.62-45.46A84.62,84.62,0,0,1,52.58,29.9Q72.31,18.71,97.42,18.43t44.13,10.3A72.27,72.27,0,0,1,170.67,58.6Zm-52.56,93.66q.77-6.37.9-10.58a182.43,182.43,0,0,0-2.35-36.89q-.78-4.56-2.64-12.11t-4.8-15.94a122,122,0,0,0-6.87-15.92,47.15,47.15,0,0,0-8.76-12.23Q88.73,43.88,83.08,44a9.29,9.29,0,0,0-8.72,5.14,31.87,31.87,0,0,0-3.47,11.52c-.5,4.3-.81,7.88-.91,10.77a183.69,183.69,0,0,0,1.37,29.74A157.45,157.45,0,0,0,77.83,130q1.26,4.07,3.93,10.53a102.9,102.9,0,0,0,6.44,12.92,51,51,0,0,0,8.28,10.85c3,2.94,6.15,4.38,9.45,4.35a9.32,9.32,0,0,0,8.73-5,30.93,30.93,0,0,0,3.45-11.34"/><path class="cls-2" d="M290.87,60.76q9.56-.09,14.87,4.65a25.15,25.15,0,0,1,7.41,12.25,52.09,52.09,0,0,1,1.79,15.91,57.39,57.39,0,0,1-2.54,15.11,26.56,26.56,0,0,1-7.43,12q-5.18,4.72-14.26,4.83-9.88.1-14.33-3a13.07,13.07,0,0,1-5.56-7.64,33.75,33.75,0,0,1-1-9.12,36.93,36.93,0,0,0-.51-7.69q-.58-3.12-4.13-3.09c-2.12,0-3.7,1.55-4.76,4.56a43.58,43.58,0,0,0-2.1,9.7c-.36,3.46-.57,5.94-.62,7.47l-1.23,35.11q-.24,7,1.26,9.36T266,165a44.25,44.25,0,0,1,9.5,2.73q3.54,1.59,3.28,9.16c-.13,3.61-1.28,6.35-3.47,8.22a12.87,12.87,0,0,1-8.47,2.85l-62.26.66a12.11,12.11,0,0,1-8.27-2.68q-3.19-2.73-3-8.15.15-4.32,1.82-6.51a24.42,24.42,0,0,1,3.79-3.95,17.9,17.9,0,0,0,3.82-4.6c1.13-1.89,1.76-4.77,1.89-8.62l1.53-43.65c.13-3.61-.38-6.32-1.54-8.11a14.71,14.71,0,0,0-4-4.22,21.75,21.75,0,0,1-4-3.51q-1.75-2-1.62-5.93a9.88,9.88,0,0,1,3.27-7.43,24.41,24.41,0,0,1,7-4.34l29.9-12.21q2.86-1.24,5.86-2.35a18.08,18.08,0,0,1,6.17-1.15,6.4,6.4,0,0,1,6,3.12,19.8,19.8,0,0,1,2.52,7.31c.42,2.76.7,5.18.87,7.26.18,1.44.36,2.89.55,4.32s.33,2.89.44,4.33a50.28,50.28,0,0,1,11.91-18.88Q277.43,60.9,290.87,60.76Z"/><path class="cls-2" d="M460.74,98.41A82.12,82.12,0,0,1,462.88,120a87.37,87.37,0,0,1-8,34A66.07,66.07,0,0,1,434,179.9q-13.48,9.94-32.71,10.14a43.58,43.58,0,0,1-15.59-2.48,41.2,41.2,0,0,1-12.59-7.32q-9,3.47-19.1,6.81a59.82,59.82,0,0,1-17.79,3.44,7.75,7.75,0,0,1-6.34-2.58,9.5,9.5,0,0,1-2.06-6.71l4.42-126q.19-5.41-1.36-8.1a14,14,0,0,0-3.74-4.29,20.84,20.84,0,0,1-3.77-3.51q-1.59-1.9-1.45-5.75.18-4.93,3.21-7.55a25.18,25.18,0,0,1,7.1-4.23L357.92,11a95.79,95.79,0,0,1,9.3-3.46A34,34,0,0,1,377,6c3.22,0,5.64,1.09,7.24,3.36a12.53,12.53,0,0,1,2.26,8l-2,56.76a60.66,60.66,0,0,1,15.16-10.5,41.94,41.94,0,0,1,18.12-4.15q12-.13,20.73,5.19a43,43,0,0,1,14.24,14.15A64.22,64.22,0,0,1,460.74,98.41Zm-53.6,38.07q.67-6,.81-9.87c.1-2.8,0-6.2-.23-10.22a58.22,58.22,0,0,0-2-11.87,25.15,25.15,0,0,0-4.9-9.75A11,11,0,0,0,391.88,91,12.85,12.85,0,0,0,383.76,94l-2.26,64.23a15,15,0,0,0,4.13,3.26,11.4,11.4,0,0,0,13.89-2.91,28.8,28.8,0,0,0,5.13-10.09,68.84,68.84,0,0,0,2.49-12.05"/><path class="cls-2" d="M516.13,9.58a54.92,54.92,0,0,1,15.07,2,27.59,27.59,0,0,1,12.71,7.26Q549,24,548.66,33.16T543,47.83a30.49,30.49,0,0,1-13.18,7.72,56.24,56.24,0,0,1-15.35,2.38,51.38,51.38,0,0,1-15.12-2.13,27.1,27.1,0,0,1-12.53-7.5q-4.93-5.29-4.62-14.44t5.69-14.43A30.54,30.54,0,0,1,501,11.9,56.25,56.25,0,0,1,516.13,9.58Z"/><path class="cls-2" d="M532.1,58.23a8.53,8.53,0,0,1,7.37,3.29,12.13,12.13,0,0,1,2.37,8l-2.79,79.38c-.08,2.24,0,4.51.06,6.79a9.32,9.32,0,0,0,2.44,5.93q3,3.33,4.94,5.24c1.34,1.26,1.94,3.66,1.82,7.18s-1.3,6.26-3.53,8.16a12.71,12.71,0,0,1-8.41,2.92l-50.11.52a11.81,11.81,0,0,1-8.21-2.68q-3.15-2.73-3-8.15c.12-3.44.88-5.87,2.26-7.29s3.17-3.18,5.37-5.28a9.9,9.9,0,0,0,2.86-6c.29-2.42.46-4.66.53-6.75l1.48-42a36.82,36.82,0,0,0-.18-5,7.48,7.48,0,0,0-1.85-4.37,3.45,3.45,0,0,0-1.09-1,4.55,4.55,0,0,1-1.09-.83,45.18,45.18,0,0,0-4.61-4.45c-1.42-1.15-2.07-3.2-2-6.18A9.92,9.92,0,0,1,480,78.25,24.13,24.13,0,0,1,487.12,74L513,63.23q4.54-1.84,9.43-3.4A32.85,32.85,0,0,1,532.1,58.23Z"/><path class="cls-2" d="M655.79,56.92q5,0,7.17,3.84a26.27,26.27,0,0,1,3,9c.54,3.44,1,6.37,1.29,8.76.25,1.85.49,3.7.74,5.59a32.8,32.8,0,0,1,.27,5.58,20.19,20.19,0,0,1-2.5,9.1q-2.32,4.31-7.87,4.36a13.4,13.4,0,0,1-9.65-3.81,91.53,91.53,0,0,1-8.17-8.87,48.12,48.12,0,0,0-9.47-8.86q-5.4-3.86-13.66-3.76a14.71,14.71,0,0,0-7.25,1.88q-3.26,1.83-3.42,6.53c-.09,2.57.43,4.52,1.57,5.87a13.08,13.08,0,0,0,4.94,3.44,32.75,32.75,0,0,0,7.35,2.21c2.58.45,5.07.94,7.49,1.48a63.76,63.76,0,0,1,20,7.91,43.91,43.91,0,0,1,14.75,14.5q5.52,8.91,5.09,21.17-.59,16.47-8.23,26.29a42.66,42.66,0,0,1-19.89,14.16,81.72,81.72,0,0,1-26.61,4.49,72,72,0,0,1-10-.86c-4.26-.6-7.39-1.44-9.4-2.55a26.82,26.82,0,0,0-4-1.28,17.09,17.09,0,0,0-4-.67,8.37,8.37,0,0,0-6.34,3,8.62,8.62,0,0,1-6.48,3,9.46,9.46,0,0,1-7.83-3.29,21.43,21.43,0,0,1-4.09-7.95c-.87-3.08-1.66-5.93-2.35-8.56q-.71-3.36-1.65-6.66a21.75,21.75,0,0,1-.82-6.78,15.68,15.68,0,0,1,3.65-10.15q3.43-3.87,9.69-3.94a17.15,17.15,0,0,1,10,2.59,29.58,29.58,0,0,1,6.9,6.61c2,2.63,4,5.26,6.08,7.93a26.79,26.79,0,0,0,7.61,6.65q4.5,2.65,11.46,2.59c3.22,0,5.7-1.05,7.41-3a12,12,0,0,0,2.75-7.67c.15-4.49-.92-7.37-3.24-8.62a30.46,30.46,0,0,0-9-2.91q-10.07-2-19.11-4.61a55.28,55.28,0,0,1-15.89-7.41,31.72,31.72,0,0,1-10.63-12.63q-3.79-7.91-3.35-20.4.51-14.79,8.75-24.2a49.77,49.77,0,0,1,20.59-14,73.5,73.5,0,0,1,25-4.71q4.83-.06,9.48.26a36.21,36.21,0,0,1,9.18,1.83,21.21,21.21,0,0,1,2.74.93c1.43.54,3.55,1.33,6.34,2.33A9.42,9.42,0,0,0,649,59.82,9.43,9.43,0,0,1,655.79,56.92Z"/></g></g></svg>