<svg width="544" height="345" viewBox="0 0 544 345" fill="none" xmlns="http://www.w3.org/2000/svg">
<path d="M141.503 157.899C143.271 221.533 188.229 271.91 259.917 269.921C329.953 267.994 373.706 215.141 371.938 151.507C370.17 87.8733 339.409 34.0904 251.184 36.5375C175.146 38.6425 139.74 94.2656 141.503 157.899Z" fill="#F5816A" stroke="black" stroke-width="2.72" stroke-miterlimit="10"/>
<path d="M158.843 158.191C160.611 221.825 205.569 272.202 277.257 270.213C347.292 268.286 391.046 215.433 389.278 151.799C387.51 88.1653 356.748 34.3824 268.523 36.8295C192.486 38.9346 157.08 94.5576 158.843 158.191Z" fill="#FFE7E2" stroke="black" stroke-width="2.72" stroke-miterlimit="10"/>
<path d="M169.984 157.85C171.593 215.852 212.577 261.774 277.921 259.972C341.762 258.204 381.643 210.038 380.043 152.035C378.444 94.0326 350.389 45.0042 269.973 47.2346C200.631 49.1469 168.4 99.8469 169.984 157.85Z" stroke="black" stroke-width="2.72" stroke-miterlimit="10"/>
<path d="M271.393 125.127C274.346 142.705 265.358 158.847 251.321 161.221C237.284 163.596 223.516 151.236 220.563 133.658C217.611 116.08 227.423 103.31 241.46 100.974C255.497 98.6377 268.445 107.545 271.393 125.127Z" fill="white" stroke="black" stroke-width="2.72" stroke-miterlimit="10"/>
<path d="M342.426 117.217C345.379 134.795 336.39 150.937 322.353 153.312C308.316 155.687 294.544 143.331 291.596 125.753C288.648 108.176 297.632 92.0335 311.669 89.6539C318.687 88.4785 325.639 90.9737 331.202 95.9594C336.766 100.945 340.952 108.426 342.426 117.217Z" fill="white" stroke="black" stroke-width="2.72" stroke-miterlimit="10"/>
<path d="M243.935 140.672L236.768 132.801C241.166 124.958 251.816 122.935 258.926 128.07C266.706 133.701 269.707 143.875 264.639 152.238C259.572 160.6 248.796 163.317 240.554 158.346C233.81 154.261 231.681 145.34 233.637 137.955L243.935 140.672Z" fill="black"/>
<path d="M314.01 131.611L308.764 122.213C314.858 115.575 325.768 116.109 331.558 122.81C337.907 130.151 338.543 140.821 331.674 147.811C328.398 151.164 323.924 153.08 319.237 153.137C314.549 153.193 310.03 151.387 306.673 148.114C300.989 142.521 300.931 133.263 304.525 126.524L314.01 131.611Z" fill="black"/>
<path d="M217.086 105.406C217.086 105.406 221.71 94.7119 239.091 98.7775C256.471 102.843 257.53 90.5884 257.53 90.5884" stroke="black" stroke-width="2.72" stroke-miterlimit="10" stroke-linecap="round"/>
<path d="M269.475 162.075C279.143 158.375 289.365 165.928 289.254 176.261C289.27 178.712 288.793 181.141 287.853 183.405C281.171 198.867 251.585 203.718 238.082 190.597C231.608 184.305 230.49 175.495 230.293 171.01C231.214 172.871 232.608 174.458 234.335 175.611C241.175 180.076 250.231 175.577 256.209 171.757C260.491 169.016 263.704 164.787 268.387 162.551C268.733 162.378 269.1 162.219 269.475 162.075Z" fill="#474747" stroke="black" stroke-width="2.72" stroke-miterlimit="10"/>
<path d="M308.013 160.413C298.118 157.354 288.417 165.543 289.226 175.866C289.369 178.312 290.004 180.705 291.095 182.899C298.778 197.895 328.62 200.79 341.231 186.806C347.277 180.105 347.812 171.242 347.715 166.747C346.92 168.666 345.634 170.342 343.987 171.608C337.45 176.511 328.129 172.619 321.905 169.199C317.449 166.747 313.967 162.735 309.145 160.813C308.769 160.663 308.398 160.543 308.013 160.413Z" fill="#474747" stroke="black" stroke-width="2.72" stroke-miterlimit="10"/>
<path d="M277.521 153.938C277.838 155.664 278.563 157.289 279.635 158.678C280.327 159.521 281.124 160.272 282.005 160.913C283.289 161.789 284.746 162.378 286.278 162.641C287.809 162.904 289.38 162.835 290.882 162.438C292.384 162.041 293.784 161.325 294.986 160.34C296.187 159.354 297.163 158.122 297.846 156.726C298.53 155.331 298.905 153.804 298.947 152.251C298.989 150.697 298.696 149.153 298.089 147.723C297.481 146.292 296.574 145.009 295.427 143.961C294.28 142.912 292.921 142.122 291.442 141.645C289.937 141.141 288.334 141 286.764 141.234C285.194 141.469 283.702 142.072 282.41 142.994C281.158 143.805 280.054 144.823 279.144 146.004" fill="#FFDE72"/>
<path d="M277.521 153.938C277.838 155.664 278.563 157.289 279.635 158.678C280.327 159.521 281.124 160.272 282.005 160.913C283.289 161.789 284.746 162.378 286.278 162.641C287.809 162.904 289.38 162.835 290.882 162.438C292.384 162.041 293.784 161.325 294.986 160.34C296.187 159.354 297.163 158.122 297.846 156.726C298.53 155.331 298.905 153.804 298.947 152.251C298.989 150.697 298.696 149.153 298.089 147.723C297.481 146.292 296.574 145.009 295.427 143.961C294.28 142.912 292.921 142.122 291.442 141.645C289.937 141.141 288.334 141 286.764 141.234C285.194 141.469 283.702 142.072 282.41 142.994C281.158 143.805 280.054 144.823 279.144 146.004" stroke="black" stroke-width="2.72" stroke-miterlimit="10" stroke-linecap="round"/>
<path d="M294.534 154.319C295.085 152.847 295.114 151.231 294.617 149.741C294.12 148.251 293.126 146.976 291.803 146.129" stroke="white" stroke-width="2.72" stroke-miterlimit="10" stroke-linecap="round"/>
<path d="M295.917 92.6501C295.917 92.6501 304.357 75.3085 321.448 85.2655" stroke="black" stroke-width="2.72" stroke-miterlimit="10" stroke-linecap="round"/>
<path d="M267.208 36.6358C267.208 36.6358 276.9 35.0269 283.148 36.395C283.148 36.395 285.075 31.2455 283.042 29.4439C281.009 27.6423 269.322 28.1866 267.102 29.6847C264.881 31.1829 267.208 36.6358 267.208 36.6358Z" fill="#F7C326" stroke="black" stroke-width="2.72" stroke-miterlimit="10" stroke-linecap="round"/>
<path d="M270.04 87.9198C273.965 86.5721 278.226 86.5602 282.159 87.8861C282.569 88.031 283.01 88.0599 283.435 87.9695C283.86 87.8791 284.252 87.673 284.567 87.3738C284.882 87.0747 285.109 86.6943 285.221 86.2746C285.333 85.8549 285.327 85.4123 285.204 84.9958L278.46 62.0664C278.316 61.5788 278.018 61.1509 277.611 60.8465C277.204 60.5421 276.709 60.3776 276.201 60.3776C275.692 60.3776 275.197 60.5421 274.79 60.8465C274.383 61.1509 274.085 61.5788 273.941 62.0664L267.024 85.0102C266.899 85.4248 266.891 85.8659 267 86.2849C267.109 86.704 267.332 87.0847 267.644 87.3854C267.955 87.6861 268.344 87.8951 268.767 87.9893C269.189 88.0836 269.63 88.0595 270.04 87.9198Z" fill="#CC2936" stroke="black" stroke-width="2.72" stroke-miterlimit="10"/>
<path d="M295.435 225.207C291.657 226.905 287.423 227.306 283.392 226.349C282.972 226.242 282.53 226.253 282.115 226.382C281.701 226.51 281.33 226.75 281.044 227.076C280.757 227.402 280.566 227.801 280.492 228.228C280.418 228.656 280.463 229.096 280.623 229.499L289.418 251.72C289.607 252.192 289.942 252.59 290.374 252.856C290.807 253.122 291.314 253.241 291.819 253.196C292.325 253.151 292.802 252.944 293.181 252.606C293.56 252.269 293.82 251.818 293.923 251.32L298.706 227.837C298.794 227.412 298.764 226.971 298.618 226.562C298.471 226.153 298.215 225.792 297.876 225.52C297.538 225.248 297.13 225.075 296.7 225.019C296.269 224.964 295.831 225.029 295.435 225.207Z" fill="#8C7BC7" stroke="black" stroke-width="2.72" stroke-miterlimit="10" stroke-linecap="round"/>
<path d="M278.494 206.555C278.494 206.555 292.69 201.348 306.284 207.297" stroke="black" stroke-width="2.72" stroke-miterlimit="10" stroke-linecap="round"/>
<path d="M277.935 206.941C277.935 206.941 279.38 219.32 287.458 218.983C298.316 218.545 296.336 205.442 296.336 205.442C290.166 204.584 283.884 205.095 277.935 206.941Z" fill="#CC2936" stroke="black" stroke-width="2.72" stroke-miterlimit="10" stroke-linecap="round"/>
<path d="M271.993 343.364C199.356 343.364 131.153 328.425 79.939 301.367C55.0984 288.242 35.6779 272.99 22.1668 256.125C9.00696 239.699 2.04871 222.367 1.39778 204.644H136.605C159.941 242.913 209.881 267.402 264.177 267.402C318.473 267.402 368.413 242.913 391.744 204.644H542.602C541.952 222.365 535.007 239.672 521.833 256.126C508.308 273.018 488.893 288.242 464.061 301.367C412.833 328.425 344.629 343.364 271.993 343.364Z" fill="#E7DEFF" stroke="black" stroke-width="2.72"/>
<path d="M133.127 108.209L149.659 110.015C149.659 110.015 142.822 130.75 152.319 143.444C151.413 152.964 152.319 161.577 154.11 171.149C154.11 171.149 123.517 160.099 133.127 108.209Z" fill="#19888F" stroke="black" stroke-width="2.72" stroke-miterlimit="10" stroke-linecap="round"/>
<path d="M118.271 87.3557C116.908 80.5202 116.426 73.1982 119.336 66.806C122.872 59.0408 129.934 54.1129 137.333 50.3412C143.012 47.4509 149.857 46.2466 155.811 48.5347C166.24 52.5377 171.187 62.2682 180.72 68.1258C185.369 70.9824 195.075 76.3149 188.36 81.5559C184.073 84.899 176.245 81.7871 173.692 77.7022C176.211 81.7052 175.985 86.373 173.552 90.323C172.661 91.7682 171.317 92.8905 170.595 94.4464C169.525 96.7587 169.742 99.0805 167.878 101.104C163.721 105.617 158.142 102.698 153.041 103.56C160.903 121.918 130.146 115.661 121.793 110.926C119.649 109.712 117.525 108.185 116.494 105.94C114.991 102.631 117.457 95.4003 121.928 96.1036C120.242 95.2509 119.62 93.2133 119.172 91.3587C118.854 90.0678 118.546 88.7189 118.271 87.3557Z" fill="white" stroke="black" stroke-width="2.72" stroke-miterlimit="10"/>
<path d="M143.195 96.0988C144.563 96.4649 145.821 96.855 147.088 97.1296C148.334 97.3961 149.6 97.5572 150.874 97.6113C152.149 97.6572 153.427 97.6024 154.694 97.4475C155.99 97.3078 157.285 97.0429 158.682 96.8213C156.499 98.7049 153.677 99.6776 150.797 99.5382C149.355 99.4792 147.937 99.1525 146.615 98.5747C145.319 97.9905 144.155 97.148 143.195 96.0988Z" fill="black"/>
<path d="M158.215 75.8573C159.696 76.8887 161.035 78.1099 162.199 79.4894C163.393 80.8382 164.516 82.2544 165.595 83.6996C167.748 86.6031 169.754 89.6128 171.606 92.7171L169.901 93.6179C168.369 90.429 166.65 87.2835 164.795 84.2391C163.861 82.7217 162.868 81.2284 161.823 79.7929C160.797 78.3288 159.585 77.0056 158.215 75.8573Z" fill="black"/>
<path d="M150.618 97.4427C150.674 98.0695 150.768 98.6921 150.902 99.307C151.029 99.9076 151.208 100.496 151.437 101.065C151.637 101.608 151.92 102.116 152.275 102.573C152.57 102.956 152.963 103.252 153.412 103.43L152.482 105.121C151.847 104.653 151.348 104.025 151.037 103.3C150.763 102.666 150.586 101.993 150.512 101.306C150.429 100.656 150.403 100 150.435 99.3455C150.452 98.7078 150.513 98.0721 150.618 97.4427Z" fill="black"/>
<path d="M173.919 79.9615C171.029 75.3226 168.495 70.5393 165.614 65.9389C169.015 70.1635 172.117 74.6578 175.489 78.8439L173.919 79.9615Z" fill="black"/>
<path d="M133.427 66.8686C134.843 66.183 136.363 65.737 137.926 65.5487C139.491 65.3488 141.076 65.3488 142.642 65.5487C144.206 65.7547 145.738 66.161 147.199 66.7578C148.661 67.34 150.015 68.1658 151.202 69.2001C149.665 68.8629 148.21 68.5016 146.751 68.2029C145.291 67.9043 143.861 67.6538 142.387 67.4611C140.913 67.2684 139.467 67.1287 137.984 67.0468C136.5 66.9649 134.997 66.9408 133.427 66.8686Z" fill="black"/>
<path d="M138.609 57.957C139.946 57.4698 141.354 57.2077 142.776 57.1814C144.196 57.145 145.615 57.2858 147.001 57.6005C148.387 57.912 149.729 58.3975 150.994 59.0456C152.266 59.6804 153.422 60.5239 154.414 61.5409C153.027 61.1989 151.736 60.8039 150.44 60.4571C149.144 60.1102 147.863 59.773 146.587 59.4936C145.31 59.2143 144 58.9397 142.68 58.7036C141.36 58.4676 140.011 58.2412 138.609 57.957Z" fill="black"/>
<path d="M148.551 51.425C149.568 51.3295 150.595 51.4359 151.571 51.7381C153.522 52.3109 155.273 53.4171 156.629 54.9319C157.321 55.6871 157.858 56.5709 158.209 57.533C157.246 57.0754 156.456 56.5696 155.651 56.0879L153.296 54.6091L150.95 53.111C150.164 52.5955 149.365 52.0753 148.551 51.425Z" fill="black"/>
<path d="M389.657 163.548C389.657 163.548 422.548 197.571 432.245 221.902L417.471 232.885C417.471 232.885 392.224 196.078 383.818 190.495L389.657 163.548Z" fill="#19888F" stroke="black" stroke-width="2.72" stroke-miterlimit="10" stroke-linecap="round"/>
<path d="M408.95 246.47C409.419 244.829 410.065 243.244 410.877 241.744C407.36 242.625 403.69 240.169 403.854 236.224C404.008 232.505 406.888 229.523 409.735 227.119C416.402 221.493 432.963 205.871 440.849 216.136C441.974 217.686 442.534 219.574 442.437 221.486C442.34 223.398 441.59 225.22 440.314 226.647C442.838 223.959 474.304 259.081 474.997 265.116C475.604 270.266 470.994 276.196 466.018 274.702C467.299 275.078 467.054 279.245 466.885 280.151C466.52 282.056 465.606 283.812 464.255 285.204C462.868 286.649 461.22 287.02 459.303 287.198C458.667 287.256 455.147 287.15 453.333 286.244C453.141 289.717 452.029 294.53 447.882 295.257C444.775 295.801 441.268 294.231 439.274 291.885C437.279 289.539 436.181 286.649 435.001 283.841C432.303 277.435 429.122 271.243 425.487 265.319C421.181 258.305 415.728 270.777 412.611 273.267C408.623 276.451 404.263 279.78 399.167 280.011C394.07 280.242 388.511 275.719 389.797 270.777C390.279 269.023 391.454 267.573 392.62 266.186C396.257 261.85 401.72 259.24 405.198 254.822C407.466 251.975 408.093 249.292 408.95 246.47Z" fill="white" stroke="black" stroke-width="2.72" stroke-miterlimit="10"/>
<path d="M442.66 263.527C442.66 263.527 451.48 279.37 452.829 287.95Z" fill="white"/>
<path d="M442.66 263.527C443.797 265.425 444.881 267.381 445.941 269.307C447 271.234 448.026 273.224 448.999 275.223C449.972 277.222 450.902 279.245 451.731 281.326C452.607 283.42 453.293 285.588 453.783 287.805L451.856 288.104C451.545 285.965 451.04 283.86 450.348 281.813C449.693 279.722 448.903 277.66 448.099 275.613C447.294 273.566 446.408 271.533 445.493 269.524C444.577 267.515 443.652 265.502 442.66 263.527Z" fill="black"/>
<path d="M450.237 251.701C450.237 251.701 464.481 270.006 466.827 275.839Z" fill="white"/>
<path d="M450.237 251.701C453.352 255.468 456.403 259.294 459.39 263.18C460.873 265.107 462.347 267.092 463.768 269.1C464.472 270.112 465.175 271.119 465.84 272.169C466.537 273.23 467.164 274.336 467.719 275.478L465.931 276.201C465.485 275.112 464.97 274.054 464.39 273.031C463.817 271.971 463.186 270.936 462.559 269.895C461.288 267.819 459.953 265.776 458.605 263.739C455.891 259.683 453.102 255.67 450.237 251.701Z" fill="black"/>
<path d="M410.698 241.681C410.698 241.681 416.349 240.28 419.981 236.541Z" fill="white"/>
<path d="M410.467 240.747C411.311 240.597 412.146 240.398 412.967 240.149C413.806 239.9 414.631 239.606 415.438 239.268C416.25 238.925 417.039 238.529 417.799 238.083C418.566 237.629 419.296 237.113 419.981 236.541C419.401 237.234 418.766 237.878 418.083 238.468C417.389 239.063 416.656 239.612 415.891 240.111C415.121 240.612 414.325 241.072 413.506 241.489C412.67 241.914 411.81 242.288 410.929 242.611L410.467 240.747Z" fill="black"/>
<path d="M440.405 226.435C440.405 226.435 437.996 229.109 433.223 231.156Z" fill="white"/>
<path d="M441.123 227.076C440.535 227.58 439.908 228.037 439.249 228.444C438.613 228.844 437.963 229.205 437.322 229.537C436.682 229.87 435.988 230.173 435.304 230.438C434.62 230.703 433.936 230.92 433.242 231.156C433.873 230.795 434.49 230.419 435.082 230.009C435.675 229.6 436.243 229.171 436.797 228.728C437.351 228.285 437.871 227.803 438.368 227.312C438.853 226.84 439.3 226.331 439.707 225.79L441.123 227.076Z" fill="black"/>
<path d="M427.75 244.841C428.882 245.136 429.944 245.656 430.871 246.368C431.805 247.073 432.63 247.913 433.319 248.859C434.015 249.813 434.541 250.881 434.875 252.014C434.952 252.303 435.019 252.587 435.082 252.876C435.144 253.165 435.154 253.464 435.183 253.753L435.207 254.191C435.207 254.341 435.207 254.485 435.183 254.634C435.164 254.927 435.13 255.218 435.082 255.506C434.484 254.476 434.056 253.507 433.478 252.616C432.9 251.725 432.379 250.839 431.753 249.996C431.127 249.153 430.501 248.31 429.826 247.471C429.152 246.633 428.458 245.776 427.75 244.841Z" fill="black"/>
<path d="M433.449 240.511C434.582 240.804 435.644 241.323 436.571 242.038C437.509 242.738 438.334 243.578 439.018 244.528C439.72 245.479 440.247 246.548 440.574 247.683C440.651 247.968 440.723 248.257 440.786 248.541C440.848 248.825 440.858 249.129 440.882 249.422L440.911 249.861C440.911 250.01 440.911 250.155 440.887 250.304C440.863 250.598 440.834 250.887 440.781 251.176C440.188 250.145 439.755 249.177 439.182 248.286C438.608 247.394 438.078 246.503 437.457 245.66C436.836 244.817 436.205 243.979 435.53 243.141C434.856 242.303 434.162 241.445 433.449 240.511Z" fill="black"/>
<path d="M438.416 237.51C439.549 237.803 440.611 238.322 441.537 239.037C442.473 239.741 443.297 240.58 443.985 241.527C444.683 242.48 445.209 243.548 445.541 244.682C445.618 244.971 445.69 245.256 445.752 245.545C445.815 245.834 445.825 246.132 445.849 246.421L445.873 246.86C445.873 247.009 445.873 247.158 445.873 247.303C445.852 247.595 445.817 247.886 445.767 248.175C445.174 247.144 444.741 246.176 444.168 245.285C443.594 244.393 443.064 243.507 442.443 242.664C441.822 241.821 441.186 240.983 440.516 240.14C439.847 239.297 439.119 238.444 438.416 237.51Z" fill="black"/>
<path d="M188.7 276.901C190.055 274.912 192.503 273.973 194.84 274.547L212.189 278.802C216.048 279.749 217.816 284.224 215.644 287.553L207.77 299.624C206.429 301.679 203.935 302.66 201.553 302.07L183.935 297.702C180.037 296.735 178.296 292.179 180.557 288.859L188.7 276.901Z" fill="#A3E8EC" stroke="#272727" stroke-width="1.44156"/>
<path d="M380.455 272.368C379.1 270.378 376.652 269.44 374.315 270.013L356.967 274.269C353.107 275.215 351.339 279.691 353.511 283.02L361.385 295.09C362.726 297.145 365.221 298.127 367.602 297.536L385.22 293.168C389.118 292.202 390.859 287.646 388.598 284.326L380.455 272.368Z" fill="#FFE9B0" stroke="#272727" stroke-width="1.44156"/>
<path d="M237.735 288.739C238.538 286.18 241 284.513 243.674 284.717L262.991 286.19C266.443 286.453 268.887 289.677 268.207 293.072L265.795 305.117C265.207 308.05 262.474 310.047 259.501 309.715L239.067 307.435C235.46 307.032 233.118 303.438 234.205 299.976L237.735 288.739Z" fill="#F46142" stroke="#272727" stroke-width="1.44156"/>
<path d="M331.859 288.739C331.055 286.18 328.594 284.513 325.919 284.717L306.602 286.19C303.15 286.453 300.707 289.677 301.387 293.072L303.799 305.117C304.386 308.05 307.119 310.047 310.092 309.715L330.527 307.435C334.133 307.032 336.476 303.438 335.389 299.976L331.859 288.739Z" fill="#9882E3" stroke="#272727" stroke-width="1.44156"/>
<path d="M145.022 262.259C146.471 260.522 148.801 259.793 150.981 260.393L166.351 264.626C170.411 265.744 171.942 270.695 169.222 273.91L157.388 287.895C155.987 289.551 153.774 290.281 151.662 289.782L136.012 286.089C131.84 285.104 130.163 280.075 132.908 276.783L145.022 262.259Z" fill="#FCA61D" stroke="#272727" stroke-width="1.44156"/>
<path d="M274.272 1.13754C267.866 1.13521 262.976 7.51733 262.974 14.9705C262.971 22.4236 267.856 28.8093 274.262 28.8116C280.667 28.8139 285.557 22.4362 285.56 14.9787C285.562 7.52118 280.677 1.13987 274.272 1.13754ZM274.264 23.5716C270.763 23.5703 267.624 19.9717 267.626 15.0973C267.627 10.2223 270.769 6.62237 274.27 6.62365C277.77 6.62492 280.909 10.2233 280.908 15.1021C280.906 19.9804 277.765 23.5728 274.264 23.5716Z" fill="#F7C326" stroke="black" stroke-width="1.7325" stroke-miterlimit="10" stroke-linecap="round"/>
</svg>
