<svg width="602" height="352" viewBox="0 0 602 352" fill="none" xmlns="http://www.w3.org/2000/svg">
<g opacity="0.8">
<path d="M163.194 177.266C165.144 247.45 214.729 303.013 293.797 300.819C371.042 298.694 419.3 240.4 417.35 170.216C415.4 100.031 381.472 40.7119 284.165 43.4109C200.299 45.7327 161.249 107.082 163.194 177.266Z" fill="#DADAE5" stroke="black" stroke-width="4" stroke-miterlimit="10"/>
<path d="M175.482 176.888C177.257 240.862 222.46 291.51 294.53 289.523C364.943 287.573 408.929 234.449 407.165 170.475C405.401 106.502 374.458 52.4265 285.764 54.8864C209.283 56.9957 173.734 112.915 175.482 176.888Z" stroke="black" stroke-width="4" stroke-miterlimit="10"/>
<path d="M287.331 140.798C290.588 160.185 280.674 177.989 265.192 180.608C249.71 183.227 234.525 169.594 231.269 150.207C228.012 130.82 238.834 116.736 254.316 114.159C269.798 111.582 284.079 121.406 287.331 140.798Z" fill="white" stroke="black" stroke-width="4" stroke-miterlimit="10"/>
<path d="M365.676 132.074C368.933 151.461 359.019 169.265 343.537 171.884C328.055 174.504 312.865 160.876 309.613 141.489C306.362 122.102 316.27 104.298 331.752 101.673C339.493 100.377 347.16 103.129 353.297 108.628C359.433 114.127 364.05 122.378 365.676 132.074Z" fill="white" stroke="black" stroke-width="4" stroke-miterlimit="10"/>
<path d="M257.047 157.943L249.141 149.261C253.992 140.612 265.739 138.38 273.581 144.044C282.161 150.255 285.471 161.476 279.882 170.699C274.293 179.922 262.407 182.919 253.317 177.436C245.879 172.93 243.531 163.091 245.688 154.946L257.047 157.943Z" fill="black"/>
<path d="M334.334 147.949L328.549 137.583C335.27 130.262 347.304 130.852 353.69 138.242C360.692 146.339 361.394 158.107 353.817 165.816C350.204 169.515 345.27 171.628 340.099 171.69C334.929 171.753 329.945 169.761 326.243 166.151C319.973 159.983 319.91 149.771 323.873 142.338L334.334 147.949Z" fill="black"/>
<path d="M227.432 119.047C227.432 119.047 232.533 107.252 251.702 111.736C270.871 116.22 272.04 102.704 272.04 102.704" stroke="black" stroke-width="4" stroke-miterlimit="10" stroke-linecap="round"/>
<path d="M285.636 181.144C296.299 177.063 307.574 185.394 307.451 196.791C307.469 199.494 306.943 202.173 305.905 204.67C298.536 221.724 265.904 227.074 251.012 212.602C243.871 205.663 242.638 195.946 242.42 190.999C243.436 193.052 244.973 194.802 246.878 196.073C254.422 200.998 264.411 196.036 271.004 191.823C275.728 188.8 279.271 184.135 284.435 181.67C284.818 181.479 285.222 181.303 285.636 181.144Z" fill="#4D4C56" stroke="black" stroke-width="4" stroke-miterlimit="10"/>
<path d="M328.14 179.311C317.227 175.938 306.527 184.97 307.419 196.355C307.577 199.054 308.278 201.692 309.481 204.112C317.955 220.652 350.869 223.845 364.778 208.421C371.446 201.031 372.036 191.255 371.929 186.298C371.052 188.414 369.634 190.263 367.817 191.659C360.607 197.067 350.327 192.775 343.463 189.002C338.548 186.298 334.707 181.872 329.389 179.752C328.974 179.588 328.565 179.455 328.14 179.311Z" fill="#4D4C56" stroke="black" stroke-width="4" stroke-miterlimit="10"/>
<path d="M294.089 172.574C294.439 174.478 295.239 176.27 296.421 177.802C297.184 178.732 298.063 179.56 299.035 180.268C300.451 181.233 302.058 181.883 303.748 182.174C305.437 182.464 307.169 182.387 308.826 181.949C310.483 181.511 312.027 180.722 313.352 179.635C314.677 178.548 315.753 177.189 316.507 175.65C317.261 174.11 317.675 172.427 317.721 170.714C317.767 169 317.445 167.297 316.775 165.719C316.105 164.142 315.103 162.727 313.838 161.57C312.574 160.413 311.075 159.542 309.444 159.016C307.784 158.46 306.015 158.304 304.284 158.563C302.552 158.822 300.907 159.486 299.482 160.503C298.101 161.398 296.883 162.521 295.879 163.824" fill="#95959B"/>
<path d="M294.089 172.574C294.439 174.478 295.239 176.27 296.421 177.802C297.184 178.732 298.063 179.56 299.035 180.268C300.451 181.233 302.058 181.883 303.748 182.173C305.437 182.464 307.169 182.387 308.826 181.949C310.483 181.511 312.027 180.722 313.352 179.635C314.677 178.548 315.753 177.189 316.507 175.65C317.261 174.11 317.675 172.427 317.721 170.714C317.767 169 317.445 167.297 316.775 165.719C316.105 164.142 315.103 162.727 313.838 161.57C312.574 160.413 311.075 159.542 309.444 159.016C307.784 158.46 306.015 158.304 304.284 158.563C302.552 158.822 300.907 159.486 299.482 160.503C298.101 161.398 296.883 162.521 295.879 163.824" stroke="black" stroke-width="4" stroke-miterlimit="10" stroke-linecap="round"/>
<path d="M312.854 172.994C313.462 171.371 313.494 169.589 312.946 167.945C312.397 166.301 311.302 164.895 309.842 163.962" stroke="white" stroke-width="5" stroke-miterlimit="10" stroke-linecap="round"/>
<path d="M314.379 104.977C314.379 104.977 323.688 85.8508 342.538 96.8327L314.379 104.977Z" fill="#DADAE5"/>
<path d="M314.379 104.977C314.379 104.977 323.688 85.8508 342.538 96.8327" stroke="black" stroke-width="4" stroke-miterlimit="10" stroke-linecap="round"/>
<path d="M282.714 44.1969C282.714 44.1969 293.404 42.4224 300.295 43.9313C300.295 43.9313 302.42 38.2517 300.178 36.2646C297.936 34.2776 285.046 34.8779 282.597 36.5303C280.148 38.1826 282.714 44.1969 282.714 44.1969Z" fill="#4F596A" stroke="black" stroke-width="4" stroke-miterlimit="10" stroke-linecap="round"/>
<path d="M291.082 2.00151C283.745 2.11308 277.911 9.59904 278.044 18.7214C278.177 27.8438 284.233 35.1544 291.571 35.0429C298.908 34.9313 304.741 27.4506 304.609 18.3283C304.476 9.20589 298.414 1.87931 291.082 2.00151ZM291.507 30.58C286.226 30.6544 281.864 25.3945 281.768 18.8277C281.672 12.2608 285.87 6.86288 291.151 6.78318C296.432 6.70349 300.794 11.9686 300.89 18.5408C300.985 25.1129 296.788 30.4844 291.507 30.5641V30.58Z" fill="#4F596A" stroke="black" stroke-width="4" stroke-miterlimit="10" stroke-linecap="round"/>
<path d="M285.838 99.7601C290.168 98.2737 294.867 98.2607 299.205 99.723C299.657 99.8829 300.144 99.9147 300.613 99.815C301.081 99.7153 301.513 99.4879 301.861 99.158C302.209 98.8281 302.458 98.4085 302.582 97.9456C302.706 97.4827 302.699 96.9946 302.563 96.5352L295.125 71.2454C294.966 70.7076 294.638 70.2356 294.189 69.8999C293.739 69.5642 293.194 69.3828 292.633 69.3828C292.072 69.3828 291.527 69.5642 291.078 69.8999C290.628 70.2356 290.3 70.7076 290.141 71.2454L282.512 96.5511C282.374 97.0084 282.365 97.4949 282.486 97.957C282.606 98.4192 282.852 98.8392 283.195 99.1708C283.539 99.5024 283.968 99.7329 284.434 99.8369C284.9 99.9408 285.386 99.9143 285.838 99.7601Z" fill="#6A8893" stroke="black" stroke-width="4" stroke-miterlimit="10"/>
<path d="M313.848 251.18C309.681 253.053 305.011 253.495 300.566 252.439C300.102 252.322 299.614 252.334 299.157 252.476C298.7 252.617 298.291 252.883 297.975 253.242C297.659 253.601 297.448 254.041 297.366 254.513C297.285 254.984 297.335 255.469 297.511 255.914L307.212 280.423C307.42 280.943 307.789 281.382 308.266 281.675C308.743 281.968 309.302 282.1 309.86 282.05C310.418 282.001 310.944 281.773 311.362 281.4C311.78 281.028 312.067 280.53 312.18 279.982L317.455 254.081C317.553 253.612 317.52 253.125 317.358 252.674C317.197 252.223 316.914 251.826 316.54 251.526C316.167 251.225 315.718 251.034 315.243 250.973C314.768 250.912 314.285 250.984 313.848 251.18Z" fill="#4F596A" stroke="black" stroke-width="4" stroke-miterlimit="10" stroke-linecap="round"/>
<path d="M295.162 230.608C295.162 230.608 310.82 224.864 325.813 231.426" stroke="black" stroke-width="4" stroke-miterlimit="10" stroke-linecap="round"/>
<path d="M294.546 231.033C294.546 231.033 296.14 244.688 305.05 244.316C317.025 243.832 314.841 229.381 314.841 229.381C308.037 228.434 301.108 228.998 294.546 231.033Z" fill="#4F596A" stroke="black" stroke-width="4" stroke-miterlimit="10" stroke-linecap="round"/>
<path d="M204.549 110.386C204.549 110.386 187.282 139.341 186.751 167.5" stroke="white" stroke-width="5" stroke-miterlimit="10" stroke-linecap="round"/>
<path d="M187.267 177.234C187.267 177.234 186.443 196.462 193.674 208.751" stroke="white" stroke-width="5" stroke-miterlimit="10" stroke-linecap="round"/>
<path d="M300.98 350.07C220.706 350.07 145.251 338.647 88.5193 317.905C60.9981 307.842 39.4063 296.122 24.3493 283.116C9.29238 270.11 1.45028 256.307 1.07837 242.147H152.546C177.751 271.252 232.543 290.033 292.362 290.033C352.181 290.033 406.974 271.252 432.173 242.147H600.897C600.525 256.307 592.699 270.088 577.626 283.116C562.554 296.143 540.967 307.842 513.456 317.905C456.708 338.647 381.254 350.07 300.98 350.07Z" fill="#C2D1D9"/>
<path d="M599.776 243.21C599.048 256.679 591.366 269.823 576.93 282.314C561.964 295.251 540.484 306.886 513.085 316.906C485.574 326.964 453.526 334.864 417.823 340.384C380.823 346.107 341.513 349.007 300.991 349.007C260.469 349.007 221.158 346.107 184.158 340.384C148.455 334.864 116.407 326.964 88.8966 316.906C61.4976 306.886 40.0173 295.251 25.0506 282.314C10.6046 269.823 2.92208 256.679 2.20483 243.21H152.084C177.623 272.331 232.522 291.096 292.383 291.096C352.245 291.096 407.144 272.331 432.678 243.21H599.798M601.981 241.085H431.69C407.537 269.339 354.237 288.971 292.362 288.971C230.487 288.971 177.188 269.313 153.035 241.085H0C0 301.865 134.753 351.133 300.98 351.133C467.207 351.133 601.96 301.865 601.96 241.085H601.981Z" fill="black"/>
<path d="M175.163 308.427L162.694 305.043C156.988 303.497 155.038 300.07 158.327 297.387L172.215 286.086C175.509 283.43 182.804 282.484 188.51 284.035L200.979 287.415C206.685 288.966 208.635 292.393 205.346 295.076L191.458 306.377C188.164 309.054 180.87 309.973 175.163 308.427Z" fill="#DADADA" stroke="black" stroke-width="4" stroke-miterlimit="10"/>
<path d="M230.477 296.972H216.079C209.491 296.972 204.151 302.312 204.151 308.899V309.303C204.151 315.891 209.491 321.231 216.079 321.231H230.477C237.064 321.231 242.404 315.891 242.404 309.303V308.899C242.404 302.312 237.064 296.972 230.477 296.972Z" fill="#424B5A" stroke="black" stroke-width="4" stroke-miterlimit="10"/>
<path d="M287.235 330.46L272.89 330.024C266.318 329.822 261.335 327.155 261.76 324.068L263.55 311.041C263.98 307.954 269.655 305.611 276.227 305.813L290.572 306.249C297.144 306.451 302.127 309.118 301.702 312.204L299.912 325.227C299.482 328.319 293.807 330.662 287.235 330.46Z" fill="#4F596A" stroke="black" stroke-width="4" stroke-miterlimit="10"/>
<path d="M363.344 311.559L349.234 314.726C342.778 316.176 338.719 322.584 340.169 329.04L340.257 329.435C341.707 335.891 348.115 339.95 354.571 338.5L368.681 335.333C375.136 333.884 379.195 327.475 377.746 321.02L377.657 320.624C376.208 314.168 369.799 310.11 363.344 311.559Z" fill="#C7C7C7" fill-opacity="0.9" stroke="black" stroke-width="4.01756" stroke-miterlimit="10"/>
<path d="M423.89 308.603L408.122 313.496C402.979 315.09 396.831 314.558 394.388 312.348L381.185 300.288C378.741 298.056 380.93 294.975 386.073 293.381L401.842 288.488C406.984 286.894 413.132 287.425 415.576 289.641L428.757 301.653C431.222 303.906 429.033 307.009 423.89 308.603Z" fill="#505D68" stroke="black" stroke-width="4" stroke-miterlimit="10"/>
<path d="M140.517 122.355L158.751 124.348C158.751 124.348 153.635 157.246 162.975 168.786L163.66 191.775C163.66 191.775 129.918 179.587 140.517 122.355Z" fill="#4F596A" stroke="black" stroke-width="4" stroke-miterlimit="10" stroke-linecap="round"/>
<path d="M124.132 99.3559C122.629 91.8168 122.097 83.7411 125.306 76.6907C129.206 68.1262 136.995 62.6911 145.155 58.531C151.419 55.3433 158.969 54.015 165.536 56.5387C177.039 60.9538 182.495 71.6859 193.009 78.1465C198.136 81.2971 208.842 87.1786 201.436 92.9591C196.707 96.6463 188.074 93.2141 185.258 88.7087C188.036 93.1238 187.787 98.2721 185.104 102.629C184.121 104.223 182.638 105.46 181.841 107.177C180.662 109.727 180.901 112.288 178.845 114.519C174.26 119.497 168.107 116.278 162.481 117.229C171.152 137.476 137.229 130.575 128.016 125.352C125.652 124.013 123.309 122.329 122.172 119.853C120.514 116.203 123.234 108.229 128.165 109.004C126.305 108.064 125.62 105.817 125.125 103.771C124.775 102.347 124.435 100.859 124.132 99.3559Z" fill="white" stroke="black" stroke-width="4" stroke-miterlimit="10"/>
<path d="M151.622 108.999C153.13 109.403 154.517 109.833 155.915 110.136C157.289 110.43 158.686 110.608 160.09 110.667C161.497 110.718 162.906 110.657 164.304 110.487C165.733 110.333 167.162 110.04 168.703 109.796C166.295 111.873 163.182 112.946 160.006 112.792C158.416 112.727 156.852 112.367 155.394 111.73C153.964 111.086 152.68 110.156 151.622 108.999Z" fill="black"/>
<path d="M168.188 86.6738C169.821 87.8114 171.298 89.1582 172.581 90.6798C173.899 92.1675 175.137 93.7295 176.327 95.3234C178.702 98.5258 180.915 101.845 182.957 105.269L181.077 106.263C179.387 102.746 177.491 99.2762 175.445 95.9184C174.414 94.2448 173.32 92.5978 172.167 91.0146C171.036 89.3998 169.698 87.9404 168.188 86.6738Z" fill="black"/>
<path d="M159.809 110.481C159.87 111.173 159.974 111.859 160.122 112.538C160.261 113.2 160.459 113.849 160.712 114.477C160.933 115.075 161.244 115.636 161.636 116.14C161.962 116.562 162.395 116.889 162.89 117.085L161.865 118.95C161.164 118.434 160.614 117.741 160.271 116.942C159.968 116.242 159.773 115.501 159.692 114.742C159.6 114.025 159.572 113.302 159.607 112.58C159.626 111.877 159.693 111.176 159.809 110.481Z" fill="black"/>
<path d="M185.508 91.2004C182.32 86.084 179.525 80.8083 176.348 75.7344C180.099 80.3939 183.521 85.3508 187.24 89.9678L185.508 91.2004Z" fill="black"/>
<path d="M140.847 76.7598C142.409 76.0037 144.086 75.5117 145.809 75.304C147.536 75.0836 149.284 75.0836 151.01 75.304C152.736 75.5312 154.425 75.9794 156.036 76.6376C157.65 77.2797 159.142 78.1906 160.451 79.3313C158.757 78.9594 157.152 78.5609 155.542 78.2315C153.932 77.9021 152.355 77.6258 150.729 77.4133C149.103 77.2007 147.509 77.0467 145.873 76.9564C144.236 76.866 142.579 76.8395 140.847 76.7598Z" fill="black"/>
<path d="M146.563 66.9309C148.038 66.3936 149.59 66.1045 151.159 66.0755C152.725 66.0354 154.291 66.1907 155.819 66.5377C157.348 66.8813 158.828 67.4168 160.223 68.1316C161.625 68.8318 162.901 69.7621 163.995 70.8838C162.465 70.5066 161.041 70.0709 159.612 69.6884C158.183 69.3058 156.77 68.9339 155.362 68.6258C153.954 68.3176 152.509 68.0148 151.053 67.7544C149.597 67.4941 148.11 67.2444 146.563 66.9309Z" fill="black"/>
<path d="M157.529 59.7269C158.652 59.6216 159.784 59.7389 160.861 60.0723C163.012 60.7041 164.944 61.9241 166.439 63.5948C167.202 64.4278 167.794 65.4025 168.182 66.4637C167.119 65.959 166.248 65.4011 165.361 64.8698L162.763 63.2388L160.175 61.5865C159.309 61.018 158.427 60.4442 157.529 59.7269Z" fill="black"/>
<path d="M417.769 183.174C417.769 183.174 454.046 220.699 464.741 247.535L448.446 259.649C448.446 259.649 420.601 219.052 411.33 212.895L417.769 183.174Z" fill="#4F596A" stroke="black" stroke-width="4" stroke-miterlimit="10" stroke-linecap="round"/>
<path d="M439.048 274.631C439.565 272.821 440.277 271.073 441.173 269.418C437.295 270.391 433.246 267.681 433.427 263.33C433.597 259.228 436.774 255.939 439.914 253.288C447.267 247.083 465.533 229.853 474.23 241.175C475.471 242.884 476.089 244.966 475.982 247.075C475.875 249.184 475.048 251.193 473.641 252.768C476.425 249.803 511.129 288.54 511.894 295.197C512.563 300.877 507.479 307.417 501.991 305.77C503.404 306.184 503.133 310.78 502.947 311.779C502.545 313.88 501.536 315.817 500.046 317.352C498.516 318.946 496.699 319.355 494.584 319.552C493.883 319.615 487.321 319.355 487.369 318.489C487.157 322.32 486.562 327.638 481.987 328.44C478.56 329.041 474.693 327.309 472.493 324.721C470.293 322.134 469.082 318.946 467.781 315.849C464.805 308.783 461.297 301.954 457.287 295.42C452.538 287.684 446.523 301.44 443.086 304.187C438.687 307.698 433.878 311.37 428.257 311.625C422.636 311.88 416.505 306.891 417.923 301.44C418.455 299.506 419.751 297.907 421.037 296.376C425.048 291.595 431.073 288.715 434.909 283.843C437.412 280.703 438.102 277.744 439.048 274.631Z" fill="white" stroke="black" stroke-width="4" stroke-miterlimit="10"/>
<path d="M476.228 293.444C476.228 293.444 485.956 310.919 487.444 320.381L476.228 293.444Z" fill="white"/>
<path d="M476.228 293.444C477.482 295.538 478.677 297.695 479.846 299.82C481.015 301.945 482.147 304.139 483.22 306.344C484.293 308.549 485.319 310.781 486.232 313.076C487.198 315.385 487.956 317.777 488.496 320.222L486.37 320.551C486.027 318.193 485.47 315.87 484.708 313.612C483.985 311.307 483.114 309.033 482.226 306.775C481.339 304.517 480.361 302.274 479.352 300.059C478.343 297.843 477.322 295.623 476.228 293.444Z" fill="black"/>
<path d="M484.585 280.4C484.585 280.4 500.296 300.59 502.883 307.024L484.585 280.4Z" fill="white"/>
<path d="M484.585 280.4C488.021 284.555 491.386 288.775 494.68 293.061C496.316 295.186 497.942 297.375 499.51 299.591C500.285 300.707 501.061 301.817 501.794 302.975C502.563 304.146 503.255 305.365 503.866 306.625L501.895 307.422C501.403 306.222 500.835 305.054 500.195 303.926C499.563 302.757 498.867 301.615 498.176 300.467C496.773 298.178 495.302 295.925 493.814 293.678C490.821 289.204 487.745 284.778 484.585 280.4Z" fill="black"/>
<path d="M440.977 269.35C440.977 269.35 447.209 267.804 451.215 263.681L440.977 269.35Z" fill="white"/>
<path d="M440.722 268.319C441.653 268.154 442.574 267.934 443.479 267.66C444.404 267.385 445.314 267.061 446.205 266.688C447.1 266.31 447.97 265.873 448.808 265.381C449.655 264.88 450.46 264.311 451.215 263.681C450.576 264.444 449.876 265.155 449.122 265.806C448.356 266.462 447.548 267.067 446.704 267.618C445.855 268.17 444.977 268.677 444.074 269.137C443.152 269.606 442.203 270.019 441.232 270.375L440.722 268.319Z" fill="black"/>
<path d="M473.742 252.534C473.742 252.534 471.085 255.483 465.82 257.741L473.742 252.534Z" fill="white"/>
<path d="M474.534 253.241C473.885 253.796 473.193 254.301 472.467 254.75C471.765 255.191 471.048 255.589 470.342 255.956C469.635 256.322 468.87 256.657 468.115 256.949C467.361 257.242 466.606 257.481 465.841 257.741C466.537 257.342 467.218 256.928 467.871 256.476C468.525 256.025 469.151 255.552 469.762 255.063C470.373 254.574 470.947 254.043 471.494 253.501C472.029 252.98 472.523 252.419 472.972 251.822L474.534 253.241Z" fill="black"/>
<path d="M459.784 272.835C461.033 273.16 462.204 273.733 463.227 274.519C464.257 275.297 465.167 276.222 465.926 277.266C466.694 278.319 467.275 279.496 467.642 280.746C467.727 281.065 467.802 281.378 467.871 281.697C467.94 282.016 467.95 282.345 467.982 282.664L468.009 283.147C468.009 283.312 468.009 283.472 467.982 283.636C467.961 283.958 467.924 284.279 467.871 284.598C467.212 283.461 466.739 282.393 466.101 281.41C465.464 280.427 464.89 279.45 464.199 278.52C463.509 277.59 462.818 276.66 462.074 275.736C461.33 274.811 460.565 273.866 459.784 272.835Z" fill="black"/>
<path d="M466.07 268.059C467.319 268.382 468.49 268.955 469.513 269.743C470.548 270.515 471.458 271.441 472.212 272.49C472.986 273.538 473.567 274.717 473.928 275.97C474.013 276.283 474.092 276.602 474.161 276.915C474.231 277.229 474.241 277.564 474.268 277.888L474.3 278.371C474.3 278.536 474.3 278.695 474.273 278.86C474.246 279.184 474.215 279.503 474.156 279.822C473.503 278.685 473.024 277.617 472.392 276.634C471.76 275.651 471.175 274.668 470.49 273.738C469.805 272.808 469.109 271.884 468.365 270.959C467.621 270.035 466.856 269.089 466.07 268.059Z" fill="black"/>
<path d="M471.547 264.749C472.797 265.072 473.968 265.645 474.99 266.433C476.021 267.209 476.931 268.135 477.689 269.18C478.459 270.231 479.04 271.409 479.405 272.66C479.49 272.979 479.57 273.292 479.639 273.611C479.708 273.93 479.719 274.259 479.745 274.578L479.772 275.061C479.772 275.226 479.772 275.391 479.772 275.55C479.749 275.873 479.71 276.194 479.655 276.512C479.001 275.375 478.523 274.307 477.891 273.324C477.259 272.341 476.674 271.364 475.989 270.434C475.304 269.504 474.602 268.58 473.864 267.65C473.125 266.72 472.323 265.78 471.547 264.749Z" fill="black"/>
</g>
</svg>
