<svg width="485" height="485" viewBox="0 0 485 485" fill="none" xmlns="http://www.w3.org/2000/svg">
<mask id="mask0_0_1" style="mask-type:alpha" maskUnits="userSpaceOnUse" x="20" y="20" width="445" height="445">
<circle cx="242.5" cy="242.5" r="222.5" fill="#D9D9D9"/>
</mask>
<g mask="url(#mask0_0_1)">
<path d="M240.601 247.494L39.2964 63.1921L56.299 46.1895L240.601 247.494Z" fill="#F46142" fill-opacity="0.05"/>
<path d="M240.601 247.494L10.3276 100.951L24.1543 81.2212L240.601 247.494Z" fill="#F46142" fill-opacity="0.05"/>
<path d="M240.601 247.496L-11.6157 143.17L-1.44622 121.355L240.601 247.496Z" fill="#F46142" fill-opacity="0.05"/>
<path d="M240.602 247.495L-25.8906 188.531L-19.667 165.304L240.602 247.495Z" fill="#F46142" fill-opacity="0.05"/>
<path d="M240.601 247.494L-32.083 235.689L-29.9978 211.725L240.601 247.494Z" fill="#F46142" fill-opacity="0.05"/>
<path d="M240.601 247.495L-29.9978 283.232L-32.083 259.268L240.601 247.495Z" fill="#F46142" fill-opacity="0.05"/>
<path d="M240.602 247.495L-19.667 329.685L-25.8906 306.426L240.602 247.495Z" fill="#F46142" fill-opacity="0.05"/>
<path d="M240.601 247.495L-1.44622 373.603L-11.6157 351.82L240.601 247.495Z" fill="#F46142" fill-opacity="0.05"/>
<path d="M240.601 247.495L24.1543 413.736L10.3276 394.006L240.601 247.495Z" fill="#F46142" fill-opacity="0.05"/>
<path d="M240.601 247.495L56.299 448.799L39.2964 431.765L240.601 247.495Z" fill="#F46142" fill-opacity="0.05"/>
<path d="M240.601 247.495L94.0576 477.736L74.3281 463.941L240.601 247.495Z" fill="#F46142" fill-opacity="0.05"/>
<path d="M240.601 247.495L136.276 499.679L114.461 489.51L240.601 247.495Z" fill="#F46142" fill-opacity="0.05"/>
<path d="M240.601 247.495L181.637 513.955L158.411 507.731L240.601 247.495Z" fill="#F46142" fill-opacity="0.05"/>
<path d="M240.6 247.495L228.795 520.146L204.831 518.061L240.6 247.495Z" fill="#F46142" fill-opacity="0.05"/>
<path d="M240.601 247.494L276.338 518.061L252.374 520.146L240.601 247.494Z" fill="#F46142" fill-opacity="0.05"/>
<path d="M240.601 247.494L322.791 507.731L299.532 513.955L240.601 247.494Z" fill="#F46142" fill-opacity="0.05"/>
<path d="M240.601 247.494L366.709 489.509L344.926 499.679L240.601 247.494Z" fill="#F46142" fill-opacity="0.05"/>
<path d="M240.601 247.494L406.841 463.941L387.112 477.736L240.601 247.494Z" fill="#F46142" fill-opacity="0.05"/>
<path d="M240.601 247.494L441.905 431.765L424.871 448.799L240.601 247.494Z" fill="#F46142" fill-opacity="0.05"/>
<path d="M240.601 247.494L470.842 394.006L457.047 413.735L240.601 247.494Z" fill="#F46142" fill-opacity="0.05"/>
<path d="M240.601 247.494L492.785 351.82L482.615 373.603L240.601 247.494Z" fill="#F46142" fill-opacity="0.05"/>
<path d="M240.601 247.494L507.061 306.426L500.837 329.684L240.601 247.494Z" fill="#F46142" fill-opacity="0.05"/>
<path d="M240.601 247.494L513.252 259.268L511.167 283.232L240.601 247.494Z" fill="#F46142" fill-opacity="0.05"/>
<path d="M240.601 247.494L511.167 211.725L513.252 235.689L240.601 247.494Z" fill="#F46142" fill-opacity="0.05"/>
<path d="M240.601 247.495L500.837 165.304L507.061 188.531L240.601 247.495Z" fill="#F46142" fill-opacity="0.05"/>
<path d="M240.601 247.496L482.615 121.355L492.785 143.17L240.601 247.496Z" fill="#F46142" fill-opacity="0.05"/>
<path d="M240.601 247.494L457.047 81.2212L470.842 100.951L240.601 247.494Z" fill="#F46142" fill-opacity="0.05"/>
<path d="M240.601 247.494L424.871 46.1895L441.905 63.1921L240.601 247.494Z" fill="#F46142" fill-opacity="0.05"/>
<path d="M240.601 247.495L387.112 17.2214L406.841 31.0481L240.601 247.495Z" fill="#F46142" fill-opacity="0.05"/>
<path d="M240.601 247.495L344.926 -4.72192L366.709 5.44758L240.601 247.495Z" fill="#F46142" fill-opacity="0.05"/>
<path d="M240.601 247.495L299.532 -18.9976L322.791 -12.7739L240.601 247.495Z" fill="#F46142" fill-opacity="0.05"/>
<path d="M240.601 247.494L252.374 -25.1895L276.338 -23.1042L240.601 247.494Z" fill="#F46142" fill-opacity="0.05"/>
<path d="M240.6 247.494L204.831 -23.1042L228.795 -25.1895L240.6 247.494Z" fill="#F46142" fill-opacity="0.05"/>
<path d="M240.601 247.495L158.411 -12.7742L181.637 -18.9978L240.601 247.495Z" fill="#F46142" fill-opacity="0.05"/>
<path d="M240.601 247.495L114.461 5.44758L136.276 -4.72192L240.601 247.495Z" fill="#F46142" fill-opacity="0.05"/>
<path d="M240.601 247.495L74.3281 31.0481L94.0576 17.2214L240.601 247.495Z" fill="#F46142" fill-opacity="0.05"/>
</g>
<g filter="url(#filter0_i_0_1)">
<path d="M143.885 227.178C143.885 287.61 185.221 336.604 253.283 336.608C319.794 336.608 362.708 287.629 362.713 227.21C362.718 166.792 334.944 114.928 251.16 114.918C178.925 114.895 143.885 166.746 143.885 227.178Z" fill="#FFE7E2" stroke="#272727" stroke-width="1.50532" stroke-miterlimit="10"/>
<path d="M208.278 229.246C221.917 229.246 232.973 215.4 232.973 198.319C232.973 181.239 221.917 167.392 208.278 167.392C194.639 167.392 183.583 181.239 183.583 198.319C183.583 215.4 194.639 229.246 208.278 229.246Z" fill="white" stroke="#272727" stroke-width="1.50532" stroke-miterlimit="10"/>
<path d="M206.786 198.172L197.96 201.403C197.697 210.967 204.662 218.685 212.205 217.923C220.472 217.093 227.248 209.49 227.248 199.081C227.248 188.672 220.509 180.22 212.2 180.22C205.387 180.22 199.806 187.181 197.955 194.964L206.786 198.172Z" fill="#272727"/>
<path d="M271.977 227.861C285.616 227.861 296.672 214.015 296.672 196.934C296.672 179.854 285.616 166.008 271.977 166.008C258.338 166.008 247.282 179.854 247.282 196.934C247.282 214.015 258.338 227.861 271.977 227.861Z" fill="white" stroke="#272727" stroke-width="1.50532" stroke-miterlimit="10"/>
<path d="M270.487 196.787L261.661 200.018C261.398 209.582 268.363 217.3 275.906 216.538C284.173 215.707 290.949 208.105 290.949 197.696C290.949 187.287 284.21 178.835 275.901 178.835C269.088 178.835 263.508 185.796 261.657 193.579L270.487 196.787Z" fill="#272727"/>
<path d="M261.692 156.462C261.692 156.462 263.87 145.924 272.179 145.882C280.488 145.84 282.694 156.314 282.694 156.314" stroke="#272727" stroke-width="1.50532" stroke-miterlimit="10" stroke-linecap="round"/>
<path d="M197.993 156.462C197.993 156.462 200.172 145.924 208.481 145.882C216.789 145.84 218.996 156.314 218.996 156.314" stroke="#272727" stroke-width="1.50532" stroke-miterlimit="10" stroke-linecap="round"/>
<path d="M234.399 231.956C233.728 233.498 232.697 234.858 231.394 235.921C230.565 236.558 229.657 237.085 228.693 237.49C227.425 237.993 226.069 238.241 224.705 238.22C223.34 238.199 221.993 237.909 220.74 237.368C219.488 236.826 218.354 236.043 217.404 235.064C216.454 234.084 215.706 232.927 215.203 231.658C214.188 229.096 214.232 226.235 215.326 223.705C216.419 221.175 218.473 219.183 221.035 218.168C222.928 217.363 225.026 217.173 227.032 217.625C229.038 218.078 230.851 219.149 232.215 220.688C233.204 221.718 234.012 222.907 234.606 224.205" fill="#FFDE72"/>
<path d="M234.399 231.956C233.728 233.498 232.697 234.858 231.394 235.921C230.565 236.558 229.657 237.085 228.693 237.49C227.425 237.993 226.069 238.241 224.705 238.22C223.34 238.199 221.993 237.909 220.74 237.368C219.488 236.826 218.354 236.043 217.404 235.064C216.454 234.084 215.706 232.927 215.203 231.658C214.188 229.096 214.232 226.235 215.326 223.705C216.419 221.175 218.473 219.183 221.035 218.168C222.928 217.363 225.026 217.173 227.032 217.625C229.038 218.078 230.851 219.149 232.215 220.688C233.204 221.718 234.012 222.907 234.606 224.205" stroke="#272727" stroke-width="1.50532" stroke-miterlimit="10" stroke-linecap="round"/>
<path d="M265.836 258.019C265.836 266.974 263.366 275.039 259.423 280.838C255.476 286.643 250.123 290.096 244.33 290.096C238.538 290.096 233.185 286.643 229.238 280.838C225.295 275.039 222.825 266.974 222.825 258.019C222.825 253.489 223.461 250.989 224.412 249.665C225.274 248.462 226.513 248.087 228.373 248.242C229.914 248.37 231.69 248.844 233.752 249.396C234.267 249.533 234.8 249.676 235.351 249.819C238.054 250.519 241.104 251.2 244.33 251.2C247.557 251.2 250.607 250.519 253.309 249.819C253.861 249.676 254.394 249.533 254.909 249.396C256.971 248.844 258.747 248.37 260.287 248.242C262.147 248.087 263.386 248.462 264.249 249.665C265.199 250.989 265.836 253.489 265.836 258.019Z" fill="#272727" stroke="#272727" stroke-width="1.90129"/>
<path d="M237.12 287.75C239.237 289.326 242.469 291.399 249.029 289.18C260.402 284.265 260.641 276.938 260.641 276.938C260.641 276.938 253.675 274.12 248.502 279.607C248.502 279.607 238.674 279.177 237.12 287.75Z" fill="#CC2936"/>
<path d="M256.521 232.897C246.214 232.805 238.602 242.42 241.676 251.172C242.374 253.274 243.532 255.195 245.064 256.794C255.888 267.821 285.574 262.624 294.718 247.23C299.108 239.844 297.649 231.997 296.564 228.147C296.19 230.069 295.311 231.857 294.016 233.327C288.749 239.267 278.802 238.298 271.984 236.959C267.096 235.985 262.813 233.4 257.675 232.98C257.315 232.92 256.923 232.902 256.521 232.897Z" fill="#474747" stroke="#272727" stroke-width="1.50532" stroke-miterlimit="10"/>
<path d="M223.763 235.981C234.074 234.349 242.763 243.534 240.673 253.379C240.209 255.724 239.263 257.947 237.892 259.909C228.286 273.341 197.974 272.17 187.093 257.018C181.87 249.75 182.459 241.136 183.121 236.82C183.687 238.791 184.766 240.578 186.25 241.999C192.186 247.597 202.033 245.079 208.711 242.607C213.493 240.837 217.516 237.429 222.572 236.216C222.97 236.124 223.359 236.046 223.763 235.981Z" fill="#474747" stroke="#272727" stroke-width="1.50532" stroke-miterlimit="10"/>
<path d="M239.022 158.94C242.779 157.633 246.863 157.607 250.636 158.866C251.028 159.003 251.45 159.029 251.856 158.941C252.262 158.854 252.635 158.656 252.936 158.37C253.236 158.083 253.452 157.72 253.56 157.319C253.667 156.918 253.662 156.495 253.544 156.097L247.017 134.157C246.88 133.69 246.594 133.28 246.204 132.988C245.814 132.697 245.34 132.539 244.853 132.539C244.365 132.539 243.891 132.697 243.501 132.988C243.111 133.28 242.825 133.69 242.687 134.157L236.142 156.171C236.028 156.566 236.024 156.985 236.13 157.382C236.236 157.78 236.449 158.14 236.746 158.425C237.042 158.711 237.411 158.909 237.813 159C238.214 159.091 238.632 159.07 239.022 158.94Z" fill="#B9432C" stroke="#272727" stroke-width="1.50532" stroke-miterlimit="10"/>
<path d="M254.155 295.965C250.419 297.328 246.337 297.417 242.546 296.219C242.152 296.089 241.729 296.071 241.325 296.165C240.922 296.26 240.551 296.464 240.256 296.754C239.96 297.045 239.749 297.411 239.648 297.813C239.546 298.216 239.557 298.638 239.679 299.034L246.543 320.882C246.688 321.347 246.979 321.753 247.374 322.039C247.768 322.325 248.245 322.476 248.732 322.468C249.219 322.461 249.691 322.296 250.077 321.999C250.463 321.701 250.742 321.286 250.873 320.817L257.081 298.707C257.194 298.308 257.195 297.887 257.084 297.488C256.973 297.089 256.755 296.728 256.453 296.445C256.15 296.162 255.776 295.967 255.371 295.883C254.966 295.798 254.545 295.826 254.155 295.965Z" fill="#8C7BC7" stroke="#272727" stroke-width="1.50532" stroke-miterlimit="10"/>
<path d="M151.105 226.384C151.105 281.96 189.118 327.012 251.733 327.012C312.904 327.012 352.361 281.969 352.361 226.384C352.361 170.799 326.82 123.121 249.767 123.116C183.343 123.125 151.11 170.808 151.105 226.384Z" stroke="#272727" stroke-width="1.50532" stroke-miterlimit="10"/>
<path d="M358.066 187.703C357.295 185.003 376.991 168.316 376.991 168.316C376.991 168.316 380.684 179.394 388.07 181.241L362.22 207.551C362.22 207.551 358.989 190.934 358.066 187.703Z" fill="#19888F" stroke="#272727" stroke-width="1.50532" stroke-miterlimit="10"/>
<path d="M417.328 170.494C411.115 172.747 404.814 174.875 398.864 177.857C401.228 183.594 396.773 185.071 391.59 184.199C383.493 182.842 376.112 171.708 374.704 164.073C374.349 162.13 374.529 159.702 376.269 158.76C377.437 158.133 378.863 158.428 380.151 158.76C379.888 155.852 380.654 152.94 381.19 150.096C381.679 147.502 382.773 145.06 383.323 142.48C384.366 137.532 384.956 132.459 383.904 127.455C383.346 124.224 382.496 120.647 384.181 117.822C386.281 114.3 391.682 113.912 395.01 116.308C398.338 118.703 399.806 122.996 399.986 127.091C400.281 133.673 395.481 142.859 406.878 138.889C418.685 134.781 433.382 127.917 446.413 128.895C448.587 129.057 450.817 129.929 452.105 131.688C452.875 132.75 453.194 133.728 452.668 135.039C452.23 135.973 451.637 136.825 450.914 137.559C451.264 137.162 453.683 137.319 454.237 137.296C455.405 137.236 456.575 137.246 457.741 137.329C459.615 137.472 462.458 137.656 463.792 139.175C465.283 140.883 464.42 142.997 463.33 144.636C462.098 146.445 459.933 146.676 458.211 147.867C458.673 147.544 460.266 149.132 460.519 149.441C461.157 150.226 461.516 151.2 461.54 152.21C461.494 153.046 461.272 153.862 460.888 154.606C460.505 155.35 459.969 156.004 459.315 156.526C454.173 160.644 447.853 160.884 441.626 162.472C435.027 164.155 428.534 166.232 422.184 168.694C420.564 169.317 418.948 169.908 417.328 170.494Z" fill="white" stroke="#272727" stroke-width="1.50532" stroke-miterlimit="10"/>
<path d="M174.18 375.378C173.874 377.053 173.479 378.711 172.999 380.344C172.283 382.83 171.282 385.225 170.017 387.481C169.398 388.566 168.697 389.603 167.921 390.583C167.312 391.353 166.379 391.917 166.841 392.964C168.138 395.928 167.266 399.57 165.115 401.979C160.96 406.623 153.164 406.738 147.477 405.963C136.828 404.504 126.899 399.357 118.678 392.434C103.312 379.509 92.9999 360.874 89.7964 341.04C89.0486 336.424 88.3562 331.591 89.0486 326.91C90.1518 319.46 95.9725 314.11 103.718 315.093C104.023 315.15 104.334 315.159 104.641 315.121C107.032 314.66 109.322 313.413 111.893 313.095C114.724 312.745 117.596 312.957 120.345 313.718C127.629 315.74 134.654 321.523 135.139 329.523C135.208 330.608 135.185 331.734 135.6 332.754C136.187 334.139 137.553 335.062 138.998 335.496C140.696 336.004 143.355 336.253 145.022 335.588C144.407 334.365 143.917 333.083 143.558 331.762C143.199 330.432 143.247 329.025 143.697 327.723C146.139 321.399 156.469 326.042 160.453 327.903C164.739 329.892 168.769 332.394 172.454 335.353C175.556 337.85 178.621 340.952 179.706 344.894C180.684 348.457 177.919 352.524 174.785 354.126C174.582 354.232 174.356 354.352 174.291 354.587C174.266 354.7 174.266 354.817 174.291 354.929C175.393 361.704 175.356 368.615 174.18 375.378Z" fill="#F7C326" stroke="#272727" stroke-width="1.50532" stroke-miterlimit="10"/>
<path d="M368.22 374.648C369.268 370.877 373.376 360.094 367.219 358.663C366.136 358.451 365.012 358.649 364.066 359.218C363.121 359.786 362.42 360.686 362.1 361.742C360.375 356.995 357.2 352.911 353.025 350.069C344.961 344.76 333.01 346.293 324.808 350.595C319.079 353.604 314.325 358.645 312.211 364.761C311.163 367.789 310.724 373.259 307.885 375.285C305.37 377.081 301.672 375.285 299.221 374.127C301.723 372.045 302.383 367.637 300.362 364.973C298.34 362.31 294.005 362.278 290.936 362.559C284.713 363.132 278.62 364.696 272.67 366.612C269.439 367.651 266.245 368.297 265.788 372.387C265.516 374.787 267.274 377.441 268.978 379.015C268.385 379.741 267.83 380.498 267.316 381.282C262.469 388.667 260.11 399.801 261.574 408.474C260.41 408.603 259.496 409.573 259.016 410.639C257.276 414.507 260.041 418.948 263.471 420.794C263.471 420.794 284.21 426.795 304.982 423.564C325.754 420.332 347.449 404.638 350.68 401.407C353.911 398.176 364.528 387.919 368.22 374.648Z" fill="#F7C326" stroke="#272727" stroke-width="1.50532" stroke-miterlimit="10"/>
<path d="M175.735 307.255C174.881 305.953 168.986 310.283 168.22 310.786C162.275 314.71 157.22 322.723 155.618 329.596C154.829 332.998 154.391 336.94 156.588 339.654C157.298 340.493 158.199 341.149 159.215 341.568C160.231 341.987 161.332 342.157 162.427 342.064C163.52 341.955 164.58 341.629 165.545 341.104C166.51 340.579 167.36 339.867 168.045 339.008C169.139 337.66 169.822 336.031 170.491 334.425C171.414 332.172 173.228 329.435 173.81 327.145C177.069 322.94 184.343 319.298 189.583 318.333L175.735 307.255Z" fill="#19888F" stroke="#272727" stroke-width="1.50532" stroke-miterlimit="10"/>
<path d="M286.979 332.181C287.39 331.974 292.057 362.646 288.826 368.647C287.122 371.809 284.279 373.568 280.549 373.037C280.291 373 280.035 372.95 279.783 372.885C275.167 371.712 275.167 368.052 274.613 364.137C274.059 360.223 273.667 356.406 273.228 352.538C272.582 346.952 271.996 341.395 271.063 335.86C272.651 335.837 273.87 335.228 275.342 334.822C276.815 334.415 278.32 334.36 279.76 334.106C282.142 333.668 284.782 333.28 286.979 332.181Z" fill="#19888F" stroke="#272727" stroke-width="1.50532" stroke-miterlimit="10"/>
<path d="M145.269 206.166C145.269 206.166 118.035 191.395 106.957 187.703L101.418 203.397C101.418 203.397 141.577 226.938 143.885 230.631L145.269 206.166Z" fill="#19888F" stroke="#272727" stroke-width="1.50532" stroke-miterlimit="10"/>
<path d="M424.075 144.313C426.313 143.39 428.561 142.466 430.855 141.649C433.15 140.832 435.471 140.08 437.779 139.411C440.087 138.741 442.497 138.16 444.888 137.657C447.279 137.153 449.702 136.784 452.135 136.47L452.292 138.317C449.901 138.474 447.505 138.677 445.123 139.032C442.742 139.387 440.364 139.789 438.006 140.315C435.647 140.842 433.302 141.428 430.976 142.097C428.649 142.766 426.383 143.523 424.075 144.313Z" fill="#272727"/>
<path d="M429.15 153.083C429.76 152.928 430.361 152.742 430.951 152.524L432.737 151.915C433.928 151.509 435.125 151.121 436.328 150.752C438.738 150.007 441.172 149.341 443.631 148.753C446.086 148.162 448.579 147.701 451.09 147.318C453.61 146.951 456.148 146.718 458.692 146.621V148.467C456.208 148.411 453.723 148.487 451.247 148.693C448.764 148.919 446.28 149.219 443.815 149.658C441.35 150.096 438.89 150.604 436.43 151.195C435.199 151.503 433.982 151.81 432.778 152.118L430.997 152.621C430.39 152.808 429.774 152.962 429.15 153.083Z" fill="#272727"/>
<path d="M244.088 114.605C244.088 114.605 253.398 113.22 259.362 114.605C259.362 114.605 261.273 109.698 259.362 107.944C257.451 106.19 246.234 106.559 244.088 107.944C241.941 109.329 244.088 114.605 244.088 114.605Z" fill="#F7C326" stroke="#272727" stroke-width="1.50532" stroke-miterlimit="10" stroke-linecap="round"/>
<path d="M251.898 78.0466C245.524 78.0466 240.358 84.4766 240.358 92.4022C240.358 100.328 245.524 106.758 251.898 106.758C258.273 106.758 263.438 100.332 263.438 92.4022C263.438 84.472 258.277 78.0466 251.898 78.0466ZM251.898 102.876C247.31 102.876 243.59 98.2598 243.59 92.5407C243.59 86.8215 247.31 82.201 251.898 82.201C256.486 82.201 260.207 86.8169 260.207 92.5407C260.207 98.2645 256.514 102.876 251.898 102.876Z" fill="#F7C326" stroke="#272727" stroke-width="1.50532" stroke-miterlimit="10" stroke-linecap="round"/>
<path d="M398.562 178.932C397.575 178.737 396.61 178.443 395.682 178.055C394.766 177.649 393.901 177.136 393.106 176.527C392.337 175.934 391.61 175.288 390.932 174.593C390.249 173.919 389.616 173.208 388.993 172.479C389.727 173.088 390.461 173.693 391.232 174.242C391.986 174.799 392.779 175.302 393.605 175.747C394.403 176.183 395.253 176.518 396.134 176.744C397.012 176.954 397.909 177.075 398.811 177.104L398.562 178.932Z" fill="#272727"/>
<path d="M381.294 158.872C381.313 159.141 381.355 159.408 381.419 159.67C381.484 159.959 381.566 160.244 381.663 160.524C381.863 161.1 382.116 161.657 382.42 162.186C382.731 162.729 383.091 163.242 383.496 163.718C383.907 164.214 384.356 164.677 384.839 165.103C384.26 164.804 383.706 164.46 383.182 164.074C382.643 163.682 382.141 163.242 381.682 162.758C381.213 162.264 380.791 161.728 380.422 161.156C380.233 160.858 380.061 160.55 379.905 160.233C379.731 159.899 379.589 159.55 379.48 159.19L381.294 158.872Z" fill="#272727"/>
<path d="M419.458 142.928C419.458 142.928 429.151 144.775 428.228 157.699Z" fill="white"/>
<path d="M419.458 142.928C421.111 142.969 422.716 143.494 424.074 144.438C425.474 145.381 426.626 146.648 427.434 148.13L427.956 149.275C428.118 149.661 428.247 150.059 428.344 150.466C428.571 151.26 428.715 152.075 428.773 152.899C428.808 153.304 428.808 153.712 428.773 154.117C428.773 154.523 428.741 154.93 428.718 155.331C428.6 156.129 428.437 156.92 428.228 157.699C428.039 156.905 427.942 156.13 427.827 155.368C427.734 154.99 427.656 154.616 427.577 154.242C427.52 153.868 427.438 153.498 427.333 153.134C427.155 152.414 426.935 151.705 426.673 151.011C426.426 150.327 426.136 149.659 425.805 149.012C425.108 147.738 424.221 146.579 423.174 145.573C422.07 144.516 420.818 143.625 419.458 142.928Z" fill="#272727"/>
<path d="M391.992 168.085C391.992 168.085 396.608 155.16 411.84 155.622Z" fill="white"/>
<path d="M391.992 168.085C392.466 165.99 393.38 164.02 394.674 162.306C395.962 160.546 397.57 159.046 399.414 157.883C403.109 155.553 407.562 154.743 411.84 155.622C409.8 155.911 407.785 156.354 405.812 156.946C403.91 157.547 402.093 158.386 400.402 159.444C398.713 160.512 397.163 161.785 395.786 163.233C395.081 163.967 394.416 164.738 393.792 165.541C393.149 166.358 392.548 167.207 391.992 168.085Z" fill="#272727"/>
<path d="M399.339 137.389C399.339 137.389 400.761 145.928 398.453 151.006Z" fill="white"/>
<path d="M400.254 137.236C400.36 138.446 400.393 139.6 400.388 140.777C400.384 141.954 400.337 143.122 400.213 144.285C400.05 146.615 399.454 148.894 398.454 151.006C399.151 148.826 399.436 146.536 399.294 144.253C399.257 143.117 399.147 141.986 399.008 140.864C398.87 139.743 398.676 138.607 398.431 137.541L400.254 137.236Z" fill="#272727"/>
<path d="M72.1815 195.762C78.5931 197.369 85.0785 198.841 91.2916 201.205C89.5237 207.155 94.1072 208.17 99.1755 206.776C107.087 204.597 113.296 192.771 113.919 185.03C114.076 183.059 113.647 180.664 111.819 179.907C110.595 179.399 109.206 179.842 107.96 180.285C107.923 177.363 106.861 174.543 106.039 171.769C105.292 169.239 103.953 166.922 103.145 164.411C101.604 159.596 100.5 154.607 101.036 149.525C101.257 146.243 101.742 142.601 99.7756 139.965C97.3292 136.678 91.9286 136.845 88.8497 139.563C85.7709 142.282 84.7646 146.704 85 150.799C85.3785 157.376 91.0884 166.031 79.3455 163.238C67.1778 160.358 51.8622 155.027 39.0022 157.325C36.8512 157.709 34.7231 158.803 33.6245 160.686C32.9599 161.821 32.7475 162.828 33.403 164.074C33.9336 164.958 34.6093 165.746 35.4017 166.405C35.0186 166.045 32.6322 166.447 32.0737 166.479C30.905 166.538 29.7411 166.669 28.5886 166.871C26.7422 167.199 23.9312 167.679 22.7587 169.332C21.4478 171.178 22.5233 173.2 23.7973 174.714C25.2098 176.389 27.3839 176.399 29.2164 177.405C28.7179 177.128 27.3008 178.873 27.093 179.205C26.5395 180.055 26.2815 181.064 26.3591 182.076C26.4904 182.903 26.7947 183.692 27.252 184.393C27.7094 185.094 28.3095 185.69 29.0132 186.143C34.5524 189.715 40.8624 189.309 47.2186 190.256C53.9544 191.259 60.624 192.665 67.1918 194.465C68.8443 194.918 70.5075 195.35 72.1815 195.762Z" fill="white" stroke="#272727" stroke-width="1.50532" stroke-miterlimit="10"/>
<path d="M62.805 170.402C60.4417 169.853 58.0736 169.322 55.6918 168.897C53.31 168.473 50.9189 168.113 48.5186 167.84C46.1183 167.568 43.7135 167.379 41.3086 167.286C38.9037 167.194 36.4987 167.222 34.103 167.31L34.0708 165.463C36.5265 165.528 38.9729 165.639 41.4055 165.925C43.8381 166.211 46.2522 166.506 48.6525 166.945C51.0528 167.383 53.43 167.868 55.7887 168.463C58.1475 169.059 60.4832 169.701 62.805 170.402Z" fill="#272727"/>
<path d="M58.6461 179.643C58.0189 179.589 57.3949 179.503 56.7766 179.385L54.9302 179.075C53.6885 178.868 52.4468 178.683 51.2051 178.512C48.7187 178.171 46.2246 177.911 43.7227 177.732C41.2255 177.547 38.7237 177.501 36.231 177.529C33.7477 177.577 31.2686 177.756 28.804 178.064L28.6147 176.218C31.1565 176.056 33.705 176.03 36.2495 176.14C38.7837 176.264 41.327 176.467 43.815 176.804C46.303 177.141 48.8094 177.552 51.2789 178.046C52.5099 178.295 53.7408 178.56 54.9717 178.84L56.8181 179.26C57.4199 179.421 58.0302 179.549 58.6461 179.643Z" fill="#272727"/>
<path d="M91.2632 200.438C92.1579 200.319 93.038 200.109 93.8896 199.81C94.7429 199.495 95.5538 199.074 96.3038 198.559C97.0787 198.033 97.816 197.453 98.5102 196.824C99.221 196.196 99.8949 195.522 100.56 194.839C100.01 195.619 99.4564 196.399 98.8471 197.147C98.2393 197.904 97.5808 198.62 96.8761 199.289C96.1581 199.983 95.3583 200.588 94.4943 201.089C93.6125 201.57 92.6847 201.961 91.7248 202.257L91.2632 200.438Z" fill="#272727"/>
<path d="M108.685 180.659C108.61 181.027 108.506 181.388 108.372 181.739C108.242 182.067 108.104 182.385 107.947 182.69C107.639 183.298 107.274 183.876 106.858 184.416C106.45 184.942 105.996 185.431 105.5 185.875C105.016 186.312 104.499 186.712 103.954 187.07C104.39 186.603 104.79 186.103 105.15 185.575C105.506 185.059 105.815 184.512 106.073 183.941C106.322 183.383 106.519 182.804 106.659 182.21C106.728 181.919 106.774 181.623 106.816 181.333C106.852 181.065 106.864 180.795 106.853 180.525L108.685 180.659Z" fill="#272727"/>
<path d="M67.2621 168.556C67.2621 168.556 57.8087 171.381 60.0428 184.144Z" fill="white"/>
<path d="M67.2611 168.556C65.9788 169.388 64.8237 170.402 63.8315 171.565C62.8953 172.675 62.1327 173.92 61.5696 175.258C61.3053 175.936 61.0849 176.629 60.9096 177.335C60.7123 178.052 60.5581 178.779 60.448 179.514C60.3603 179.883 60.3649 180.262 60.3141 180.64C60.2633 181.019 60.2356 181.402 60.1848 181.785C60.1479 182.556 60.1295 183.336 60.0233 184.148C59.7312 183.394 59.4846 182.624 59.2847 181.84C59.2155 181.448 59.1556 181.046 59.1048 180.645C59.0349 180.242 58.9994 179.835 58.9986 179.426C58.9712 178.601 59.0315 177.774 59.1786 176.961C59.2343 176.547 59.3223 176.138 59.4417 175.738L59.8433 174.547C60.4967 172.989 61.5127 171.609 62.8068 170.522C64.0653 169.442 65.615 168.758 67.2611 168.556Z" fill="#272727"/>
<path d="M97.1397 190.782C97.1397 190.782 91.2313 178.397 76.1279 180.405Z" fill="white"/>
<path d="M97.1397 190.782C96.501 189.962 95.8184 189.178 95.0949 188.432C94.3936 187.695 93.6523 186.997 92.8746 186.341C91.3584 185.041 89.687 183.934 87.8986 183.045C86.1085 182.163 84.2129 181.513 82.2579 181.111C80.2352 180.722 78.1861 180.486 76.1279 180.405C80.2938 179.099 84.803 179.451 88.7156 181.388C90.6696 182.358 92.4234 183.688 93.8854 185.307C95.3472 186.88 96.4567 188.746 97.1397 190.782Z" fill="#272727"/>
<path d="M86.7035 160.995C86.7035 160.995 86.1588 169.636 88.9745 174.45Z" fill="white"/>
<path d="M87.623 161.055C87.4938 162.14 87.4199 163.289 87.3922 164.415C87.3645 165.542 87.3691 166.686 87.4522 167.817C87.54 170.104 88.0567 172.354 88.9754 174.45C87.7632 172.452 86.9365 170.245 86.5382 167.942C86.2982 166.797 86.1367 165.634 86.0074 164.475C85.8782 163.317 85.7951 162.167 85.7812 160.935L87.623 161.055Z" fill="#272727"/>
<path d="M160.965 349.722C161.863 350.182 162.788 350.588 163.734 350.936C164.676 351.282 165.636 351.575 166.61 351.813C167.569 352.048 168.544 352.212 169.527 352.302C170.487 352.39 171.453 352.39 172.412 352.302L172.463 354.149C171.396 354.09 170.336 353.935 169.297 353.687C168.283 353.434 167.29 353.107 166.324 352.709C165.376 352.317 164.452 351.872 163.554 351.375C162.657 350.879 161.792 350.327 160.965 349.722Z" fill="#272727"/>
<path d="M145.732 334.997C146.293 336.33 147.015 337.589 147.883 338.745C148.766 339.921 149.862 340.92 151.114 341.69C149.673 341.174 148.342 340.391 147.191 339.382C146.026 338.353 144.989 337.188 144.103 335.911L145.732 334.997Z" fill="#272727"/>
<path d="M269.131 377.515C269.261 377.619 269.398 377.713 269.542 377.796C269.695 377.893 269.861 377.981 270.027 378.069C270.364 378.243 270.71 378.397 271.065 378.53C271.793 378.809 272.544 379.024 273.309 379.172C274.091 379.314 274.882 379.396 275.677 379.416C276.078 379.416 276.475 379.416 276.882 379.416C277.288 379.416 277.689 379.347 278.096 379.315C277.703 379.426 277.315 379.546 276.914 379.643C276.512 379.74 276.115 379.836 275.709 379.887C274.887 380.025 274.055 380.097 273.221 380.104C272.373 380.103 271.526 380.025 270.692 379.873C270.264 379.8 269.842 379.7 269.427 379.573C269.219 379.509 269.007 379.444 268.799 379.361C268.571 379.282 268.349 379.186 268.134 379.075L269.131 377.515Z" fill="#272727"/>
<path d="M292.106 376.712C293.498 376.357 294.847 375.854 296.132 375.211C296.749 374.912 297.329 374.544 297.863 374.113C298.344 373.751 298.728 373.275 298.98 372.728L300.581 373.651C300.067 374.344 299.39 374.899 298.61 375.267C297.924 375.609 297.203 375.875 296.459 376.061C295.036 376.431 293.576 376.65 292.106 376.712Z" fill="#272727"/>
<path d="M262.053 408.344C289.804 421.338 323.639 412.286 346.307 393.333C355.248 385.86 359.911 372.885 362.219 361.723" stroke="#272727" stroke-width="1.50532" stroke-miterlimit="10"/>
<path d="M93.7005 318.795C90.0078 320.785 88.7476 326.873 88.9553 331.009C89.2157 336.747 90.0664 342.442 91.4941 348.005C94.4852 359.411 99.2166 371.085 107.091 380.09C108.476 381.674 109.649 383.391 111.061 384.946C111.883 385.87 112.792 386.682 113.697 387.504L118.077 391.496C118.599 391.958 119.125 392.452 119.684 392.881C121.345 394.174 122.915 395.475 124.553 396.805C129.083 399.834 133.972 402.287 139.107 404.107C141.129 404.842 143.207 405.412 145.321 405.81C147.578 406.217 149.83 406.184 152.111 406.378C152.761 406.434 153.422 406.489 154.077 406.48C156.385 406.452 159.021 405.718 161.158 404.869C162.903 404.176 165.575 402.247 165.312 400.096C164.943 397.248 159.524 395.942 157.294 395.046C154.04 393.749 150.726 392.586 147.601 390.979C131.034 382.463 126.857 364.576 120.884 348.448C118.603 342.286 115.852 336.211 112.289 330.663C110.635 328.009 108.685 325.552 106.477 323.337C105.296 322.238 104.028 321.235 102.688 320.337C101.271 319.414 99.7935 318.44 98.0718 318.163C96.585 317.879 95.0458 318.101 93.7005 318.795Z" fill="#040407" fill-opacity="0.63" stroke="#272727" stroke-width="1.50532" stroke-miterlimit="10"/>
<path d="M334.063 73.2276C333.412 73.1723 337.294 86.1523 329.447 92.153C329.447 92.153 341.448 100.923 351.142 93.9994C353.398 90.6515 354.933 86.8704 355.649 82.8969C356.364 78.9233 356.244 74.8443 355.296 70.9197C355.296 70.9197 349.757 74.6124 334.063 73.2276Z" fill="#119DA4" stroke="#272727" stroke-width="1.50532" stroke-miterlimit="10"/>
<path d="M345.14 323.637C344.817 323.61 346.746 330.072 342.832 333.059C342.832 333.059 348.81 337.425 353.633 333.982C354.757 332.314 355.521 330.431 355.877 328.453C356.234 326.474 356.173 324.442 355.701 322.488C355.701 322.488 352.946 324.334 345.14 323.637Z" fill="#CC2936" stroke="#272727" stroke-width="1.50532" stroke-miterlimit="10"/>
<path d="M97.6204 251.864C98.2712 251.809 94.3892 264.789 102.236 270.789C102.236 270.789 90.2349 279.56 80.5414 272.636C78.2847 269.288 76.7499 265.507 76.0347 261.533C75.3194 257.56 75.4394 253.481 76.3871 249.556C76.3871 249.556 81.9262 253.249 97.6204 251.864Z" fill="#119DA4" stroke="#272727" stroke-width="1.50532" stroke-miterlimit="10"/>
<path d="M162.705 218.167C162.705 218.167 157.166 246.325 168.706 266.173" stroke="white" stroke-width="3.01065" stroke-miterlimit="10" stroke-linecap="round"/>
<path d="M172.81 274.824C175.051 280.656 178.74 285.822 183.528 289.835" stroke="white" stroke-width="3.01065" stroke-miterlimit="10" stroke-linecap="round"/>
<path d="M218.904 228.609C218.709 227.115 219.033 225.6 219.821 224.316C220.609 223.032 221.813 222.058 223.234 221.556" stroke="white" stroke-width="1.88166" stroke-miterlimit="10" stroke-linecap="round"/>
<path d="M126.345 100.923C126.345 100.923 141.984 102.645 143.765 107.487C145.547 112.329 140.996 121.09 142.754 125.95C144.513 130.811 155.531 129.348 155.531 129.348C155.531 129.348 150.348 126.504 150.232 120.434C150.248 118.834 150.484 117.244 150.934 115.708C153.667 105.354 148.215 94.4512 138.083 90.98C136.012 90.2462 133.815 89.9323 131.621 90.0569C131.621 90.0569 125.883 96.3068 126.345 100.923Z" fill="#AE2208" stroke="#272727" stroke-width="1.50532" stroke-linecap="round" stroke-linejoin="bevel"/>
<path d="M123.534 47.7563C126.411 44.7649 128.981 41.4928 131.205 37.989C131.205 37.989 153.293 49.1365 154.677 62.4858C155.559 70.9838 143.705 79.4171 134.829 87.1072C129.751 91.497 126.059 97.1423 125.879 100.923C125.879 100.923 118.35 87.9981 123.474 82.4359C128.597 76.8737 148.543 64.9553 145.856 60.2794C143.17 55.6034 123.534 47.7563 123.534 47.7563Z" fill="#DD6049" stroke="#272727" stroke-width="1.50532" stroke-linecap="round" stroke-linejoin="round"/>
<path d="M404.255 288.076C404.971 290.532 405.021 293.255 403.84 295.512C403.083 296.962 401.218 299.362 399.602 299.727C399.565 298.342 400.438 296.957 400.678 295.572C401.098 293.13 400.484 290.624 399.718 288.311C398.679 285.154 397.35 281.881 397.968 278.618C398.485 275.848 401.772 270.309 404.841 269.76C407.911 269.211 409.702 273.596 410.92 275.659C410.422 274.814 404.671 279.744 404.223 280.515C402.838 282.906 403.3 285.131 404.107 287.624C404.158 287.757 404.223 287.914 404.255 288.076Z" fill="#176E89" stroke="#272727" stroke-width="1.50532" stroke-linecap="round" stroke-linejoin="bevel"/>
<path d="M402.559 243.301C400.374 242.029 398.322 240.542 396.434 238.861C396.434 238.861 385.9 249.556 387.53 257.786C388.568 263.03 396.831 265.915 403.261 268.897C406.931 270.6 410.055 273.305 410.849 275.53C410.849 275.53 412.793 266.436 408.869 264.032C404.946 261.627 391.458 258.146 392.141 254.855C392.824 251.564 402.559 243.301 402.559 243.301Z" fill="#25AED9" stroke="#272727" stroke-width="1.50532" stroke-linecap="round" stroke-linejoin="bevel"/>
<path d="M290.096 48.5322C290.096 48.5322 289.02 67.8638 276.132 67.8638C276.132 67.8638 290.096 68.9393 290.096 88.2755C290.096 88.2755 290.096 67.8638 304.059 67.8638C304.059 67.8638 290.096 68.9393 290.096 48.5322Z" fill="#FFC97A" stroke="#272727" stroke-width="1.50532" stroke-miterlimit="10"/>
<path d="M126.691 265.481C126.691 265.481 125.615 284.813 112.728 284.813C112.728 284.813 126.691 285.888 126.691 305.224C126.691 305.224 126.691 284.813 140.654 284.813C140.654 284.813 126.691 285.888 126.691 265.481Z" fill="#FFC97A" stroke="#272727" stroke-width="1.50532" stroke-miterlimit="10"/>
<path d="M114.195 316.695C114.195 316.695 118.479 315.772 122.758 319.049" stroke="white" stroke-width="1.88166" stroke-miterlimit="10" stroke-linecap="round"/>
<path d="M271.055 384.111C271.055 384.111 265.977 391.958 268.747 399.343" stroke="white" stroke-width="1.88166" stroke-miterlimit="10" stroke-linecap="round"/>
<path d="M104.189 315.366C104.189 315.366 117.114 323.411 122.653 338.644C128.935 355.917 134.354 375.673 151.525 385.325C156.705 388.238 162.604 390.056 167.058 393.971C167.432 394.298 167.792 394.894 167.395 395.221" stroke="#272727" stroke-width="1.50532" stroke-miterlimit="10"/>
</g>
<defs>
<filter id="filter0_i_0_1" x="21.4092" y="37.2363" width="443.932" height="391.503" filterUnits="userSpaceOnUse" color-interpolation-filters="sRGB">
<feFlood flood-opacity="0" result="BackgroundImageFix"/>
<feBlend mode="normal" in="SourceGraphic" in2="BackgroundImageFix" result="shape"/>
<feColorMatrix in="SourceAlpha" type="matrix" values="0 0 0 0 0 0 0 0 0 0 0 0 0 0 0 0 0 0 127 0" result="hardAlpha"/>
<feOffset dy="3.46823"/>
<feGaussianBlur stdDeviation="1.73412"/>
<feComposite in2="hardAlpha" operator="arithmetic" k2="-1" k3="1"/>
<feColorMatrix type="matrix" values="0 0 0 0 0 0 0 0 0 0 0 0 0 0 0 0 0 0 0.25 0"/>
<feBlend mode="normal" in2="shape" result="effect1_innerShadow_0_1"/>
</filter>
</defs>
</svg>
