<svg width="595" height="521" viewBox="0 0 595 521" fill="none" xmlns="http://www.w3.org/2000/svg">
<path d="M111.717 42.992L114.268 38.3101L116.839 42.992L121.511 45.5532L116.839 48.1144L114.268 52.7963L111.717 48.1144L107.024 45.5532L111.717 42.992Z" fill="#FFA491" stroke="#F46142" stroke-width="1.81077" stroke-miterlimit="10"/>
<path d="M143.405 97.3151L145.956 92.6332L148.527 97.3151L153.199 99.8763L148.527 102.438L145.956 107.119L143.405 102.438L138.713 99.8763L143.405 97.3151Z" fill="#B9B1DA" stroke="#5C47B5" stroke-width="1.81077" stroke-miterlimit="10"/>
<path d="M19.367 66.532L21.9179 61.8501L24.4894 66.532L29.161 69.0933L24.4894 71.6545L21.9179 76.3364L19.367 71.6545L14.6748 69.0933L19.367 66.532Z" fill="#FFDE72" stroke="#F29F19" stroke-width="1.81077" stroke-miterlimit="10"/>
<g filter="url(#filter0_d_852_2343)">
<rect x="109.508" y="97.1602" width="31.6885" height="46.1747" rx="7.24309" transform="rotate(17.9805 109.508 97.1602)" fill="#9882E3"/>
<rect x="110.089" y="98.3008" width="29.8778" height="44.3639" rx="6.33771" transform="rotate(17.9805 110.089 98.3008)" stroke="#050505" stroke-width="1.81077"/>
</g>
<g filter="url(#filter1_d_852_2343)">
<rect x="70.8086" y="44.6478" width="31.6885" height="45.2693" rx="7.24309" fill="#F7C326"/>
<rect x="71.714" y="45.5532" width="29.8778" height="43.4585" rx="6.33771" stroke="black" stroke-width="1.81077"/>
</g>
<g filter="url(#filter2_d_852_2343)">
<rect x="24.6338" y="80.2286" width="31.6885" height="45.2693" rx="7.24309" transform="rotate(-15.4079 24.6338 80.2286)" fill="#8BDCE2"/>
<rect x="24.6338" y="80.2286" width="31.6885" height="45.2693" rx="7.24309" transform="rotate(-15.4079 24.6338 80.2286)" stroke="black" stroke-width="1.81077"/>
</g>
<path d="M257.74 401.937C257.74 401.937 263.625 394.745 272.125 398.668C280.625 402.591 277.356 413.707 277.356 413.707C277.356 413.707 295.01 417.63 296.972 423.515C298.934 429.399 289.779 480.401 247.932 494.132C206.085 507.863 201.508 500.017 200.854 498.055C200.2 496.093 192.354 469.939 211.97 456.862C231.586 443.784 243.355 454.246 243.355 454.246V444.438C243.355 444.438 233.037 446.825 229.624 436.592C225.047 422.861 257.74 401.937 257.74 401.937Z" fill="#F7C326" stroke="black" stroke-width="2.71616" stroke-miterlimit="10"/>
<path d="M218.301 514.187C224.894 513.673 231.379 512.215 237.557 509.858C248.168 506.068 258.306 501.068 267.772 494.957C278.535 487.888 288.343 478.93 294.881 467.717C302.603 454.443 309.142 440.392 304.872 424.974C304.284 422.855 302.813 419.488 300.092 420.037C296.96 420.691 296.352 423.751 296.228 426.425C296.084 429.505 295.764 432.545 295.339 435.579C293.521 448.513 288.244 458.863 279.365 468.344C271.303 476.949 261.573 483.913 251.177 489.418C238.1 496.349 222.44 504.098 207.237 501.018C204.171 500.364 202.51 499.239 200.829 502.679C196.697 511.14 204.753 513.886 211.756 514.232C213.936 514.342 216.122 514.326 218.301 514.187Z" fill="#F7C326" stroke="black" stroke-width="2.71616" stroke-miterlimit="10"/>
<path d="M245.644 456.535C245.644 456.535 250.874 459.15 252.182 469.612L245.644 456.535Z" fill="black"/>
<path d="M246.377 455.07C246.574 455.191 246.762 455.327 246.939 455.476C247.096 455.6 247.227 455.731 247.37 455.855C247.635 456.108 247.886 456.374 248.123 456.653C248.575 457.188 248.988 457.757 249.358 458.353C250.05 459.504 250.603 460.733 251.006 462.014C251.405 463.251 251.698 464.52 251.882 465.807C251.967 466.46 252.026 467.114 252.098 467.709L252.183 469.612L251.693 467.788C251.49 467.193 251.307 466.591 251.091 466.009C250.662 464.857 250.134 463.744 249.515 462.681C248.923 461.655 248.214 460.701 247.403 459.837C247.011 459.433 246.59 459.059 246.141 458.719C245.931 458.557 245.713 458.407 245.487 458.268C245.376 458.209 245.265 458.137 245.161 458.091C245.056 458.045 244.912 457.973 244.919 457.999L244.265 455.606L244.919 454.227L246.377 455.07Z" fill="black"/>
<path d="M276.702 413.053C276.702 413.053 275.395 418.284 269.51 424.823L276.702 413.053Z" fill="black"/>
<path d="M277.971 413.373C277.746 413.971 277.484 414.554 277.186 415.119C276.911 415.668 276.604 416.191 276.297 416.708C275.672 417.723 274.996 418.705 274.27 419.65C273.542 420.583 272.781 421.483 271.988 422.351C271.197 423.214 270.36 424.025 269.51 424.822C270.196 423.881 270.857 422.933 271.471 421.952C272.086 420.971 272.648 419.99 273.171 418.951C273.682 417.941 274.138 416.904 274.538 415.845C274.734 415.315 274.917 414.792 275.074 414.263C275.227 413.76 275.349 413.249 275.44 412.733L277.971 413.373Z" fill="black"/>
<path d="M244.493 443.131C244.493 443.131 248.645 442.143 252.34 436.265L244.493 443.131Z" fill="black"/>
<path d="M244.192 441.856C244.354 441.848 244.514 441.822 244.67 441.777C244.853 441.731 245.042 441.679 245.232 441.614C245.619 441.49 245.997 441.339 246.363 441.163C247.128 440.792 247.859 440.354 248.547 439.855C249.251 439.345 249.919 438.788 250.548 438.187C250.868 437.887 251.162 437.534 251.476 437.239L252.353 436.232L251.738 437.429C251.516 437.815 251.3 438.22 251.051 438.599C250.564 439.376 250.022 440.116 249.43 440.816C248.818 441.528 248.144 442.184 247.416 442.778C247.039 443.087 246.644 443.373 246.232 443.634C246.023 443.771 245.807 443.889 245.578 444.013C245.329 444.152 245.069 444.27 244.8 444.366L244.192 441.856Z" fill="black"/>
<path d="M363.667 413.053C363.667 413.053 376.744 413.053 378.052 420.246C379.575 428.608 372.167 432.669 372.167 432.669C372.167 432.669 382.629 437.9 383.936 443.131C396.151 436.252 410.941 436.18 422.514 443.131C436.474 451.513 443.529 468.782 439.515 485.632C439.027 487.946 438.142 490.158 436.899 492.17C425.614 510.25 386.8 511.531 359.09 499.363C344.116 492.824 328.94 485.305 323.781 471.901C316.785 453.71 324.664 435.716 326.396 433.323C326.396 433.323 315.935 428.092 323.127 420.246C330.32 412.399 363.667 413.053 363.667 413.053Z" fill="#F7C326" stroke="black" stroke-width="2.71616" stroke-miterlimit="10"/>
<path d="M436.769 491.91C440.084 489.294 443.733 497.141 442.654 501.718C439.568 514.795 404.03 523.295 373.998 516.756C362.497 514.239 341.776 507.687 320.381 487.986C320.381 487.986 313.189 476.871 323.651 470.332C323.651 470.332 342.776 496.068 370.16 501.181C397.544 506.295 421.73 503.679 436.769 491.91Z" fill="#F7C326" stroke="black" stroke-width="2.71616" stroke-miterlimit="10"/>
<path d="M384.917 442.804C384.917 442.804 375.763 448.035 369.225 459.804L384.917 442.804Z" fill="black"/>
<path d="M385.727 444.223C384.988 444.589 384.139 445.099 383.36 445.589C382.582 446.08 381.785 446.636 381.026 447.211C379.49 448.348 378.027 449.579 376.645 450.899C375.255 452.228 373.945 453.638 372.722 455.123C371.478 456.617 370.319 458.18 369.25 459.804C370.089 458.033 371.028 456.311 372.062 454.645C374.143 451.259 376.626 448.137 379.457 445.347C380.163 444.641 380.908 443.961 381.673 443.301C382.459 442.62 383.279 441.98 384.132 441.385L385.485 440.457L387.225 443.497L385.727 444.223Z" fill="black"/>
<path d="M372.493 432.342C372.493 432.342 363.993 436.919 356.146 436.265L372.493 432.342Z" fill="black"/>
<path d="M373.271 433.781C371.891 434.34 370.478 434.816 369.041 435.206C367.635 435.596 366.21 435.913 364.771 436.154C363.337 436.389 361.889 436.526 360.436 436.566C359 436.597 357.564 436.497 356.146 436.265C357.558 436.224 358.964 436.054 360.344 435.755C361.706 435.454 363.046 435.059 364.352 434.572C365.653 434.086 366.927 433.534 368.171 432.917C369.389 432.314 370.573 431.641 371.715 430.904L373.088 430.001L374.788 433.159L373.271 433.781Z" fill="black"/>
<path d="M328.685 434.304C328.685 434.304 333.915 437.573 339.8 437.573L328.685 434.304Z" fill="black"/>
<path d="M329.548 432.917C330.257 433.497 331.004 434.028 331.784 434.506C332.59 435.006 333.424 435.458 334.282 435.86C335.148 436.272 336.041 436.624 336.956 436.912C337.886 437.205 338.837 437.423 339.801 437.566C338.812 437.692 337.815 437.742 336.819 437.717C335.806 437.684 334.797 437.584 333.798 437.416C332.788 437.255 331.789 437.037 330.803 436.762C329.786 436.476 328.79 436.12 327.822 435.696L326.312 435.042L328.273 431.878L329.548 432.917Z" fill="black"/>
<path d="M207.857 472.299C206.699 475.378 206.009 478.614 205.811 481.898C205.687 483.31 205.811 485.102 207.119 485.612C208.106 485.998 209.25 485.337 209.786 484.422C210.237 483.457 210.461 482.401 210.44 481.336C210.617 478.72 210.885 475.935 212.343 473.731C213.082 472.607 214.095 471.691 214.873 470.599C216.43 468.422 216.495 465.29 213.357 465.617C210.8 465.878 208.701 470.325 207.857 472.299Z" fill="white"/>
<path d="M162.664 211.223C162.664 296.826 221.231 366.188 317.63 366.188C411.845 366.188 472.628 296.794 472.628 211.223C472.628 125.652 410.544 49.5552 314.622 52.1706C212.338 54.9626 162.664 125.619 162.664 211.223Z" fill="#F5816A" stroke="black" stroke-width="2.71616" stroke-miterlimit="10"/>
<path d="M143.249 213.825C143.249 299.429 201.796 368.83 298.215 368.837C392.43 368.837 453.219 299.455 453.226 213.871C453.232 128.287 413.909 54.7861 295.22 54.7861C192.903 54.7861 143.256 128.221 143.249 213.825Z" fill="#FFE7E2" stroke="black" stroke-width="2.71616" stroke-miterlimit="10"/>
<path d="M156.327 213.452C156.327 292.177 210.173 355.994 298.869 355.994C385.519 355.994 441.411 292.184 441.411 213.452C441.411 134.721 405.24 67.2094 296.09 67.2094C201.993 67.2094 156.334 134.727 156.327 213.452Z" stroke="black" stroke-width="2.71616" stroke-miterlimit="10"/>
<path d="M309.284 261.879C309.284 272.265 306.419 281.608 301.858 288.315C297.292 295.03 291.127 298.988 284.488 298.988C277.849 298.988 271.683 295.03 267.117 288.315C262.556 281.608 259.691 272.265 259.691 261.879C259.691 256.61 260.434 253.768 261.492 252.295C262.425 250.995 263.76 250.565 265.881 250.741C267.651 250.888 269.691 251.433 272.09 252.075C272.692 252.236 273.317 252.403 273.967 252.571C277.118 253.388 280.696 254.188 284.488 254.188C288.279 254.188 291.857 253.388 295.009 252.571C295.658 252.403 296.283 252.235 296.885 252.075C299.284 251.433 301.324 250.888 303.094 250.741C305.215 250.565 306.55 250.995 307.483 252.295C308.541 253.768 309.284 256.61 309.284 261.879Z" fill="black" stroke="black" stroke-width="2.71616"/>
<path d="M276.088 296.507C278.554 298.342 282.319 300.756 289.959 298.172C303.205 292.448 303.483 283.913 303.483 283.913C303.483 283.913 295.37 280.632 289.345 287.022C289.345 287.022 277.898 286.521 276.088 296.507Z" fill="#CC2936"/>
<path d="M63.0069 226.752C56.39 226.889 49.9735 224.478 45.0846 220.017C41.2856 216.499 37.4867 213.145 33.6943 209.614C29.7254 205.907 25.351 202.807 21.5782 198.884C17.2802 194.412 12.9821 189.944 8.68407 185.48C5.51283 182.211 2.14531 178.445 2.01454 173.874C1.95839 173.055 2.06526 172.232 2.32902 171.455C2.59277 170.677 3.00822 169.959 3.55118 169.343C5.70239 167.152 8.78207 167.146 11.5479 167.95C10.0048 165.923 7.88621 164.785 6.57849 162.386C5.6168 160.795 4.97498 159.031 4.68889 157.194C3.64271 147.765 16.0007 150.727 21.0355 152.833C24.321 154.314 27.4789 156.064 30.4772 158.064C33.7008 160.084 33.0927 155.102 36.362 153.931C38.3236 153.232 40.501 153.5 42.5018 154.075C44.37 154.613 46.1561 155.403 47.8111 156.422C49.8017 157.729 51.6785 159.201 53.4213 160.823C57.011 163.975 61.1434 166.819 64.3539 170.317C67.4381 173.836 70.8012 177.101 74.4104 180.079C77.2678 182.328 80.4781 184.421 84.1071 184.715C85.9418 184.889 87.7926 184.667 89.5335 184.062C91.2745 183.457 92.8646 182.485 94.1961 181.21C96.7004 178.987 98.7274 176.254 101.258 174.051C102.62 172.866 104.114 171.841 105.711 170.997C110.942 168.257 120.207 169.238 121.279 176.516C122.123 182.217 115.793 185.912 111.334 189.593C108.651 191.814 106.411 194.52 104.73 197.57C102.389 201.781 101.755 206.606 99.2114 210.758C103.697 209.451 104.933 214.335 103.716 217.774C102.193 222.11 98.0475 224.915 94.0132 227.105C90.7651 228.869 87.4183 230.445 83.9894 231.826C81.0013 233.029 77.8889 234.095 74.6653 234.167C71.8406 234.232 67.767 233.277 65.7727 231.067C64.7396 229.917 62.9873 226.942 65.7727 226.562C64.8552 226.679 63.9317 226.743 63.0069 226.752Z" fill="#FFFEFD" stroke="#050505" stroke-width="2.71616" stroke-miterlimit="10"/>
<path d="M11.6196 166.78C13.7323 167.476 15.7729 168.373 17.7135 169.46C19.6276 170.505 21.4595 171.694 23.193 173.017C24.9192 174.324 26.5392 175.764 28.038 177.326C29.532 178.876 30.909 180.535 32.1574 182.289C30.7478 180.682 29.2177 179.185 27.5804 177.81C25.973 176.439 24.2563 175.201 22.4475 174.109C20.6587 173.007 18.7876 172.046 16.8505 171.232C15.8959 170.827 14.8888 170.467 13.9342 170.127C12.9795 169.787 11.9268 169.513 11.0049 169.323L11.6196 166.78Z" fill="#050505"/>
<path d="M32.3145 157.442C33.8642 158.829 35.2699 160.241 36.6561 161.719C38.0423 163.196 39.3369 164.726 40.5793 166.296C41.8168 167.878 42.9713 169.524 44.0382 171.226C45.0827 172.932 45.9986 174.713 46.7781 176.555C45.8146 174.823 44.7217 173.166 43.5087 171.599C42.282 170.049 40.9723 168.567 39.5856 167.159C38.2081 165.755 36.7739 164.408 35.2831 163.118C33.7988 161.843 32.2426 160.594 30.7061 159.496L32.3145 157.442Z" fill="#050505"/>
<path d="M29.4049 192.404C28.9999 189.505 29.5508 186.553 30.9741 183.996C32.3593 181.339 34.4236 179.096 36.957 177.496C38.2102 176.71 39.5454 176.064 40.9389 175.567C41.6273 175.331 42.3279 175.133 43.0378 174.972C43.3909 174.901 43.744 174.809 44.0971 174.75L45.1694 174.613C47.9878 174.239 50.8543 174.5 53.5585 175.378V175.639C50.8958 175.691 48.246 176.024 45.6533 176.633C44.3647 176.946 43.1015 177.355 41.8741 177.856C40.6569 178.37 39.4845 178.985 38.3693 179.693C36.127 181.11 34.198 182.97 32.7003 185.16C31.9576 186.254 31.3245 187.419 30.8106 188.638C30.2827 189.853 29.8987 191.126 29.6663 192.431L29.4049 192.404Z" fill="#050505"/>
<path d="M58.064 193.529C60.3415 193.673 62.5662 194.278 64.6026 195.308C66.6519 196.298 68.5285 197.611 70.1604 199.198C71.8622 200.826 73.1994 202.796 74.0836 204.978C74.5182 206.097 74.7869 207.273 74.8813 208.47C74.9637 209.655 74.7966 210.845 74.3909 211.961V212.014C74.3845 212.029 74.3751 212.042 74.3634 212.054C74.3517 212.065 74.3379 212.074 74.3227 212.08C74.3076 212.087 74.2912 212.09 74.2748 212.089C74.2585 212.089 74.2425 212.086 74.2274 212.079C74.2043 212.073 74.1836 212.059 74.1684 212.04C74.1532 212.022 74.1441 211.999 74.1424 211.975C73.978 209.867 73.3388 207.824 72.2724 205.998C71.2054 204.177 69.8844 202.517 68.3492 201.068C66.8317 199.586 65.1887 198.239 63.4387 197.04C62.5669 196.439 61.6732 195.866 60.7578 195.321C59.8489 194.771 58.9204 194.235 57.9789 193.764C57.9636 193.757 57.9498 193.747 57.9385 193.735C57.9272 193.723 57.9186 193.708 57.9131 193.692C57.9076 193.676 57.9054 193.659 57.9066 193.643C57.9078 193.626 57.9123 193.609 57.92 193.594C57.9297 193.572 57.9466 193.554 57.9679 193.542C57.9891 193.53 58.0137 193.526 58.0378 193.529H58.064Z" fill="#050505"/>
<path d="M65.714 225.444C67.0334 225.329 68.3438 225.128 69.6372 224.843C70.9645 224.553 72.2743 224.189 73.5603 223.751C74.852 223.312 76.1088 222.776 77.32 222.149C78.5466 221.517 79.713 220.775 80.805 219.932C79.8433 220.948 78.7931 221.875 77.6666 222.705C76.5296 223.54 75.3319 224.29 74.0835 224.947C72.8283 225.612 71.5357 226.203 70.2125 226.719C68.8682 227.248 67.4898 227.685 66.0866 228.027C65.9191 228.07 65.7449 228.079 65.5738 228.055C65.4027 228.031 65.2381 227.973 65.0893 227.885C64.9406 227.797 64.8106 227.68 64.7068 227.542C64.6031 227.404 64.5276 227.246 64.4846 227.079C64.4417 226.911 64.4321 226.737 64.4565 226.566C64.481 226.395 64.5388 226.23 64.6269 226.081C64.7149 225.933 64.8315 225.803 64.9698 225.699C65.108 225.595 65.2653 225.52 65.4327 225.477C65.4992 225.46 65.5671 225.449 65.6354 225.444H65.714Z" fill="#050505"/>
<path d="M87.292 218.5C88.3157 218.073 89.304 217.566 90.2475 216.983C91.1895 216.412 92.0996 215.79 92.974 215.119C93.8306 214.466 94.6741 213.753 95.4587 212.994C96.2434 212.236 96.9953 211.464 97.7211 210.667C97.8366 210.538 97.9763 210.433 98.1323 210.358C98.2883 210.283 98.4575 210.24 98.6302 210.231C98.8029 210.221 98.9758 210.246 99.1389 210.303C99.3021 210.361 99.4525 210.45 99.5813 210.565C99.7101 210.681 99.8149 210.821 99.8897 210.977C99.9645 211.133 100.008 211.302 100.017 211.474C100.027 211.647 100.002 211.82 99.9445 211.983C99.8871 212.146 99.7982 212.297 99.6827 212.426C99.6243 212.489 99.5609 212.548 99.493 212.602C98.5645 213.295 97.6294 213.969 96.6487 214.564C95.6679 215.159 94.6872 215.728 93.6541 216.244C92.6357 216.749 91.5901 217.196 90.522 217.585C89.4715 217.975 88.3914 218.282 87.292 218.5Z" fill="#050505"/>
<path d="M93.5819 183.368C90.9665 185.406 88.8715 188.034 87.4683 191.038C86.0128 194.132 85.4836 197.582 85.9448 200.97C85.0409 197.548 85.1453 193.938 86.2455 190.574C87.3595 187.122 89.2779 183.984 91.8426 181.419C91.9633 181.297 92.1069 181.199 92.2654 181.132C92.4238 181.064 92.594 181.029 92.7661 181.027C92.9383 181.026 93.1089 181.058 93.2685 181.123C93.4281 181.187 93.5735 181.282 93.6963 181.403C93.8191 181.524 93.9169 181.667 93.9841 181.826C94.0514 181.984 94.0869 182.154 94.0884 182.327C94.0899 182.499 94.0576 182.669 93.9931 182.829C93.9286 182.989 93.8333 183.134 93.7126 183.257L93.595 183.361L93.5819 183.368Z" fill="#050505"/>
<path d="M234.529 218.252C253.848 218.252 269.51 198.638 269.51 174.443C269.51 150.248 253.848 130.634 234.529 130.634C215.209 130.634 199.547 150.248 199.547 174.443C199.547 198.638 215.209 218.252 234.529 218.252Z" fill="white" stroke="black" stroke-width="2.71616" stroke-miterlimit="10"/>
<path d="M249.457 173.227L261.958 177.804C262.324 191.345 252.464 202.278 241.78 201.205C230.069 200.022 220.471 189.253 220.471 174.508C220.471 159.764 230.011 147.824 241.78 147.824C251.431 147.824 259.336 157.691 261.958 168.708L249.457 173.227Z" fill="black"/>
<path d="M322.8 219.559C342.12 219.559 357.782 199.945 357.782 175.75C357.782 151.556 342.12 131.942 322.8 131.942C303.48 131.942 287.818 151.556 287.818 175.75C287.818 199.945 303.48 219.559 322.8 219.559Z" fill="white" stroke="black" stroke-width="2.71616" stroke-miterlimit="10"/>
<path d="M337.757 174.733L350.146 179.609C350.186 193.155 340.066 203.848 329.411 202.519C317.732 201.054 308.395 190.058 308.749 175.317C309.104 160.577 318.928 148.87 330.694 149.153C340.342 149.385 348.008 159.439 350.364 170.516L337.757 174.733Z" fill="black"/>
<path d="M316.914 115.268C316.914 115.268 318.222 104.153 329.337 104.153C341.107 104.153 342.415 115.922 342.415 115.922" stroke="#050505" stroke-width="2.71616" stroke-miterlimit="10" stroke-linecap="round"/>
<path d="M226.683 115.268C226.683 115.268 227.99 104.153 239.106 104.153C250.876 104.153 252.183 115.922 252.183 115.922" stroke="#050505" stroke-width="2.71616" stroke-miterlimit="10" stroke-linecap="round"/>
<path d="M249.016 216.824C265.146 211.253 281.578 224.219 280.839 241.272C280.731 245.308 279.812 249.282 278.139 252.957C266.297 278.071 217.29 284.46 195.752 262.111C185.427 251.394 184.061 236.819 183.982 229.418C185.397 232.535 187.607 235.225 190.39 237.218C201.421 244.947 216.545 238.022 226.634 232.046C233.826 227.763 239.365 220.97 247.198 217.543C247.754 217.282 248.362 217.04 249.016 216.824Z" fill="#474747" stroke="black" stroke-width="2.71616" stroke-miterlimit="10"/>
<path d="M308.647 216.17C292.516 210.599 276.085 223.565 276.83 240.618C276.938 244.654 277.854 248.627 279.524 252.303C291.372 277.417 340.379 283.806 361.911 261.457C372.242 250.74 373.602 236.165 373.68 228.763C372.267 231.882 370.057 234.573 367.272 236.564C356.242 244.293 341.118 237.368 331.029 231.392C323.836 227.109 318.298 220.316 310.465 216.889C309.883 216.628 309.275 216.386 308.647 216.17Z" fill="#474747" stroke="black" stroke-width="2.71616" stroke-miterlimit="10"/>
<path d="M275.637 112.659C280.959 110.808 286.744 110.771 292.088 112.555C292.644 112.746 293.24 112.781 293.814 112.656C294.387 112.53 294.915 112.25 295.341 111.845C295.766 111.441 296.071 110.927 296.224 110.36C296.377 109.793 296.372 109.195 296.208 108.632L286.962 77.5405C286.767 76.8786 286.363 76.2978 285.81 75.8846C285.257 75.4714 284.586 75.2482 283.896 75.2482C283.205 75.2482 282.534 75.4714 281.981 75.8846C281.428 76.2978 281.024 76.8786 280.829 77.5405L271.557 108.723C271.392 109.284 271.384 109.879 271.533 110.444C271.682 111.009 271.984 111.522 272.404 111.928C272.825 112.334 273.349 112.616 273.919 112.745C274.489 112.874 275.083 112.845 275.637 112.659Z" fill="#B9432C" stroke="black" stroke-width="2.71616" stroke-miterlimit="10"/>
<path d="M460.841 219.686C460.841 219.686 495.376 253.04 499.285 284.504L476.027 292.823C476.027 292.823 477.396 270.148 456.475 257.982" fill="#19888F"/>
<path d="M460.841 219.686C460.841 219.686 495.376 253.04 499.285 284.504L476.027 292.823C476.027 292.823 477.396 270.148 456.475 257.982C460.435 245.038 461.036 227.058 460.841 219.686Z" stroke="black" stroke-width="2.71616" stroke-miterlimit="10" stroke-linecap="round"/>
<path d="M469.465 332.173C467.237 336.632 463.796 340.459 462.072 345.176C460.348 349.893 461.042 356.09 465.42 358.475C467.346 359.519 469.656 359.631 471.839 359.365C476.609 358.697 480.99 356.362 484.203 352.774C487.48 349.202 486.79 343.405 489.412 340.464C494.256 335.025 517.024 346.366 523.059 348.36C530.007 350.653 536.582 353.918 543.281 356.827C552.038 360.626 562.06 364.581 571.805 363.638C575.595 363.354 579.186 361.833 582.029 359.311C582.84 358.577 583.512 357.703 584.015 356.732C584.507 355.687 584.774 354.55 584.798 353.396C584.834 352.639 584.273 350.812 584.648 350.201C585.29 349.131 589.13 348.755 590.434 347.761C591.295 347.112 592.012 346.29 592.537 345.348C593.063 344.406 593.386 343.365 593.485 342.291C593.784 337.987 589.738 335.493 586.452 333.696C585.411 333.107 584.324 332.604 583.201 332.192C582.763 332.034 581.096 331.036 580.796 331.058C582.703 330.957 586.126 330.068 587.141 328.197C588.157 326.326 587.954 325.167 587.212 323.117C585.43 318.154 578.304 317.008 573.76 315.849C563.014 313.101 551.971 311.648 541.211 308.967C535.975 307.668 530.519 306.235 525.643 303.867C521.095 301.666 517.016 299.259 511.967 298.189C513.025 296.09 513.298 293.682 512.738 291.399C510.569 283.593 498.442 284.252 492.427 285.718C484.75 287.596 477.648 291.398 470.841 295.29C468.205 296.796 465.278 298.704 463.94 301.55C462.393 304.837 463.793 308.438 466.665 310.488C468.57 311.78 470.782 312.546 473.077 312.71C470.803 315.657 471.175 320.514 470.779 324.025C470.464 326.428 470.6 329.874 469.465 332.173Z" fill="#FEFDFC" stroke="#050505" stroke-width="2.71616" stroke-miterlimit="10"/>
<path d="M584.476 351.007C581.674 349.542 578.89 348.069 576.084 346.65C573.278 345.231 570.451 343.886 567.542 342.756C564.619 341.632 561.613 340.734 558.552 340.07C555.48 339.398 552.357 338.927 549.222 338.555C552.374 338.709 555.533 338.961 558.668 339.425C561.817 339.884 564.927 340.584 567.969 341.519C571.015 342.467 573.986 343.638 576.91 344.871C579.833 346.104 582.721 347.386 585.607 348.648L584.476 351.007Z" fill="#050505"/>
<path d="M552.56 326.389C555.093 326.333 557.627 326.376 560.165 326.484C562.704 326.591 565.248 326.764 567.783 327.003C570.318 327.242 572.861 327.579 575.384 328.095C577.95 328.572 580.467 329.284 582.903 330.221L581.813 332.596C579.598 331.526 577.291 330.656 574.921 329.997C572.528 329.295 570.071 328.775 567.583 328.296C565.096 327.818 562.611 327.457 560.102 327.137C557.594 326.818 555.083 326.55 552.56 326.389Z" fill="#050505"/>
<path d="M503.292 321.292C505.051 321.162 506.82 321.252 508.557 321.559C510.277 321.856 511.966 322.307 513.606 322.904C515.279 323.49 516.877 324.269 518.367 325.227C519.123 325.711 519.833 326.262 520.488 326.874C520.795 327.212 521.114 327.536 521.401 327.875C521.668 328.244 521.915 328.626 522.142 329.02C520.627 328.256 519.061 327.6 517.453 327.059L512.738 325.354C511.17 324.814 509.596 324.177 508.014 323.526C506.393 322.884 504.816 322.137 503.292 321.292Z" fill="#050505"/>
<path d="M508.395 315.722C509.913 315.382 511.475 315.284 513.023 315.433C514.562 315.553 516.081 315.857 517.548 316.339C519.046 316.815 520.462 317.517 521.747 318.422C523.083 319.313 524.139 320.565 524.793 322.033C523.492 321.342 522.146 320.739 520.765 320.225C519.416 319.708 518.073 319.283 516.728 318.825C515.383 318.367 513.993 317.925 512.6 317.438C511.167 316.947 509.763 316.374 508.395 315.722Z" fill="#050505"/>
<path d="M511.866 310.877C513.333 310.345 514.888 310.097 516.447 310.145C518.005 310.17 519.552 310.411 521.044 310.862C522.553 311.33 523.973 312.048 525.246 312.984C526.527 313.928 527.549 315.181 528.216 316.626C526.781 315.932 525.534 315.29 524.216 314.765C522.899 314.239 521.606 313.777 520.264 313.358C518.922 312.939 517.583 312.559 516.171 312.172C514.759 311.784 513.359 311.389 511.866 310.877Z" fill="#050505"/>
<path d="M471.759 311.609C472.497 311.77 473.243 311.878 473.993 311.932C474.778 311.995 475.565 312.014 476.351 311.991C477.948 311.958 479.538 311.784 481.105 311.471C482.689 311.157 484.248 310.716 485.768 310.151C486.542 309.896 487.282 309.53 488.04 309.22C488.797 308.909 489.513 308.481 490.26 308.115C489.573 308.583 488.895 309.086 488.187 309.534C487.48 309.982 486.772 310.43 486.025 310.796C484.546 311.6 483.012 312.283 481.436 312.839C479.841 313.399 478.206 313.82 476.546 314.098C475.706 314.244 474.86 314.344 474.011 314.398C473.125 314.466 472.235 314.463 471.348 314.39L471.759 311.609Z" fill="#050505"/>
<path d="M512.925 298.485C512.833 298.647 512.723 298.798 512.598 298.936C512.507 299.041 512.41 299.153 512.312 299.245C512.117 299.443 511.92 299.609 511.696 299.776C511.3 300.089 510.883 300.374 510.447 300.629C509.639 301.108 508.792 301.52 507.916 301.858C507.057 302.184 506.183 302.468 505.297 302.707L503.976 303.027L502.686 303.306L503.89 302.752L505.077 302.126C505.848 301.699 506.597 301.233 507.321 300.728C508.023 300.241 508.683 299.694 509.292 299.094C509.58 298.811 509.849 298.509 510.097 298.189C510.208 298.039 510.31 297.883 510.403 297.721C510.449 297.651 510.489 297.578 510.525 297.502C510.522 297.456 510.598 297.333 510.556 297.388L512.925 298.485Z" fill="#050505"/>
<path d="M273.022 312.728C278.344 314.58 284.129 314.617 289.473 312.833C290.028 312.642 290.625 312.607 291.199 312.732C291.772 312.857 292.3 313.138 292.725 313.542C293.15 313.947 293.456 314.461 293.609 315.028C293.762 315.595 293.756 316.192 293.593 316.756L284.347 347.847C284.152 348.509 283.747 349.09 283.195 349.503C282.642 349.916 281.97 350.14 281.28 350.14C280.59 350.14 279.919 349.916 279.366 349.503C278.813 349.09 278.409 348.509 278.214 347.847L268.942 316.665C268.777 316.104 268.768 315.509 268.918 314.944C269.067 314.379 269.368 313.866 269.789 313.46C270.21 313.054 270.733 312.771 271.303 312.642C271.873 312.513 272.468 312.543 273.022 312.728Z" fill="#8C7BC7" stroke="black" stroke-width="2.71616" stroke-miterlimit="10"/>
<path d="M280.017 54.7859C280.017 54.7859 293.199 52.8243 301.654 54.7859C301.654 54.7859 304.361 47.8354 301.654 45.3507C298.947 42.866 283.058 43.3891 280.017 45.3507C276.977 47.3123 280.017 54.7859 280.017 54.7859Z" fill="#F7C326" stroke="black" stroke-width="2.71616" stroke-miterlimit="10" stroke-linecap="round"/>
<path d="M291.087 1.64192C281.045 1.64192 273.382 11.6504 273.382 23.3351C273.382 35.0199 281.045 45.0284 291.087 45.0284C301.129 45.0284 308.791 35.0267 308.791 23.3351C308.791 11.6435 301.129 1.64192 291.087 1.64192ZM291.087 36.8132C285.598 36.8132 280.675 31.1732 280.675 23.5313C280.675 15.8885 285.599 10.2428 291.087 10.2428C296.575 10.2428 301.498 15.8824 301.498 23.5313C301.498 31.1793 296.576 36.8132 291.087 36.8132Z" fill="#F7C326" stroke="black" stroke-width="2.71616" stroke-miterlimit="10" stroke-linecap="round"/>
<path d="M280.077 213.295C279.123 215.48 277.662 217.406 275.813 218.912C274.641 219.814 273.358 220.561 271.995 221.135C270.025 221.916 267.91 222.263 265.794 222.151C263.678 222.039 261.611 221.472 259.735 220.487C257.858 219.503 256.217 218.124 254.922 216.447C253.628 214.769 252.711 212.831 252.235 210.767C251.759 208.702 251.734 206.559 252.163 204.483C252.591 202.408 253.463 200.45 254.719 198.743C255.974 197.036 257.584 195.62 259.437 194.593C261.29 193.566 263.343 192.951 265.456 192.79C267.603 192.585 269.768 192.893 271.772 193.689C273.776 194.485 275.563 195.745 276.984 197.367C278.389 198.825 279.535 200.512 280.371 202.356" fill="#FFDE72"/>
<path d="M280.077 213.295C279.123 215.48 277.662 217.406 275.813 218.912C274.641 219.814 273.358 220.561 271.995 221.135C270.025 221.916 267.91 222.263 265.794 222.151C263.678 222.039 261.611 221.472 259.735 220.487C257.858 219.503 256.217 218.124 254.922 216.447C253.628 214.769 252.711 212.831 252.235 210.767C251.759 208.702 251.734 206.559 252.163 204.483C252.591 202.408 253.463 200.45 254.719 198.743C255.974 197.036 257.584 195.62 259.437 194.593C261.29 193.566 263.343 192.951 265.456 192.79C267.603 192.585 269.768 192.893 271.772 193.689C273.776 194.485 275.563 195.745 276.984 197.367C278.389 198.825 279.535 200.512 280.371 202.356" stroke="#050505" stroke-width="2.71616" stroke-miterlimit="10" stroke-linecap="round"/>
<path d="M94.2751 227.406C94.2751 227.406 107.352 249.539 146.087 247.133L153.312 273.876C153.312 273.876 103.429 283.638 74.6592 233.945L94.2751 227.406Z" fill="#19888F" stroke="black" stroke-width="2.71616" stroke-miterlimit="10" stroke-linecap="round"/>
<path d="M248.007 362.441C248.007 362.441 231.66 393.173 260.43 411.481C260.43 411.481 265.007 424.558 252.584 429.136C247.948 430.842 242.73 426.827 238.199 423.741C226.462 415.784 217.275 400.202 217.275 384.673C217.275 371.53 223.814 352.634 223.814 352.634L248.007 362.441Z" fill="#19888F" stroke="black" stroke-width="2.71616" stroke-miterlimit="10"/>
<path d="M363.74 356.557V421.289C363.74 421.289 361.778 428.482 351.317 429.135C340.855 429.789 338.239 423.251 338.239 423.251V365.711C338.239 365.711 353.289 360.628 363.74 356.557Z" fill="#19888F" stroke="black" stroke-width="2.71616" stroke-miterlimit="10"/>
<path d="M266.373 198.563C264.261 198.865 259.673 201.189 258.225 208.07" stroke="white" stroke-width="3.62155" stroke-linecap="round"/>
<defs>
<filter id="filter0_d_852_2343" x="97.1338" y="99.0404" width="42.4455" height="52.6573" filterUnits="userSpaceOnUse" color-interpolation-filters="sRGB">
<feFlood flood-opacity="0" result="BackgroundImageFix"/>
<feColorMatrix in="SourceAlpha" type="matrix" values="0 0 0 0 0 0 0 0 0 0 0 0 0 0 0 0 0 0 127 0" result="hardAlpha"/>
<feOffset dx="1.81077" dy="2.71616"/>
<feComposite in2="hardAlpha" operator="out"/>
<feColorMatrix type="matrix" values="0 0 0 0 0 0 0 0 0 0 0 0 0 0 0 0 0 0 1 0"/>
<feBlend mode="normal" in2="BackgroundImageFix" result="effect1_dropShadow_852_2343"/>
<feBlend mode="normal" in="SourceGraphic" in2="effect1_dropShadow_852_2343" result="shape"/>
</filter>
<filter id="filter1_d_852_2343" x="70.8086" y="44.6478" width="33.4992" height="47.9854" filterUnits="userSpaceOnUse" color-interpolation-filters="sRGB">
<feFlood flood-opacity="0" result="BackgroundImageFix"/>
<feColorMatrix in="SourceAlpha" type="matrix" values="0 0 0 0 0 0 0 0 0 0 0 0 0 0 0 0 0 0 127 0" result="hardAlpha"/>
<feOffset dx="1.81077" dy="2.71616"/>
<feComposite in2="hardAlpha" operator="out"/>
<feColorMatrix type="matrix" values="0 0 0 0 0 0 0 0 0 0 0 0 0 0 0 0 0 0 1 0"/>
<feBlend mode="normal" in2="BackgroundImageFix" result="effect1_dropShadow_852_2343"/>
<feBlend mode="normal" in="SourceGraphic" in2="effect1_dropShadow_852_2343" result="shape"/>
</filter>
<filter id="filter2_d_852_2343" x="25.3906" y="72.566" width="42.8742" height="53.2644" filterUnits="userSpaceOnUse" color-interpolation-filters="sRGB">
<feFlood flood-opacity="0" result="BackgroundImageFix"/>
<feColorMatrix in="SourceAlpha" type="matrix" values="0 0 0 0 0 0 0 0 0 0 0 0 0 0 0 0 0 0 127 0" result="hardAlpha"/>
<feOffset dx="1.81077" dy="2.71616"/>
<feComposite in2="hardAlpha" operator="out"/>
<feColorMatrix type="matrix" values="0 0 0 0 0.0208333 0 0 0 0 0.0205754 0 0 0 0 0.0203125 0 0 0 1 0"/>
<feBlend mode="normal" in2="BackgroundImageFix" result="effect1_dropShadow_852_2343"/>
<feBlend mode="normal" in="SourceGraphic" in2="effect1_dropShadow_852_2343" result="shape"/>
</filter>
</defs>
</svg>
