<svg width="593" height="552" viewBox="0 0 593 552" fill="none" xmlns="http://www.w3.org/2000/svg">
<g opacity="0.7">
<path d="M263.535 424.913C263.535 424.913 269.53 417.326 278.19 421.464C286.849 425.602 283.519 437.327 283.519 437.327C283.519 437.327 301.504 441.465 303.502 447.672C305.501 453.879 296.175 507.674 253.543 522.158C210.911 536.641 206.249 528.365 205.582 526.296C204.916 524.227 196.923 496.639 216.907 482.846C236.89 469.052 248.88 480.087 248.88 480.087V469.742C248.88 469.742 238.369 472.259 234.892 461.466C230.229 446.982 263.535 424.913 263.535 424.913Z" fill="#C2D1D9" stroke="black" stroke-width="5.59081" stroke-miterlimit="10"/>
<path d="M223.488 543.586C230.204 543.044 236.811 541.506 243.105 539.02C253.915 535.022 264.243 529.748 273.887 523.302C284.851 515.847 294.843 506.398 301.504 494.57C309.371 480.57 316.032 465.748 311.682 449.486C311.083 447.251 309.584 443.699 306.813 444.279C303.622 444.968 303.003 448.196 302.876 451.017C302.73 454.265 302.403 457.472 301.97 460.672C300.119 474.314 294.743 485.232 285.697 495.232C277.484 504.309 267.572 511.654 256.98 517.461C243.658 524.771 227.704 532.944 212.217 529.696C209.093 529.006 207.401 527.82 205.689 531.448C201.479 540.372 209.686 543.269 216.82 543.634C219.042 543.75 221.268 543.733 223.488 543.586Z" fill="#C2D1D9" stroke="black" stroke-width="5.59081" stroke-miterlimit="10"/>
<path d="M251.212 482.501C251.212 482.501 256.541 485.26 257.873 496.294L251.212 482.501Z" fill="#C2D1D9"/>
<path d="M251.958 480.956C252.159 481.084 252.35 481.227 252.531 481.384C252.691 481.515 252.824 481.653 252.97 481.784C253.239 482.05 253.495 482.331 253.736 482.625C254.198 483.19 254.618 483.79 254.995 484.418C255.7 485.633 256.263 486.929 256.674 488.28C257.08 489.585 257.379 490.924 257.567 492.281C257.653 492.97 257.713 493.66 257.786 494.288L257.873 496.295L257.373 494.37C257.167 493.743 256.98 493.108 256.761 492.494C256.323 491.279 255.786 490.105 255.155 488.984C254.552 487.902 253.83 486.895 253.004 485.984C252.605 485.558 252.175 485.163 251.718 484.804C251.504 484.634 251.282 484.476 251.052 484.329C250.939 484.266 250.825 484.191 250.719 484.142C250.612 484.094 250.466 484.018 250.472 484.046L249.806 481.522L250.506 480.066L251.958 480.956Z" fill="black"/>
<path d="M282.853 436.637C282.853 436.637 281.52 442.155 275.525 449.051L282.853 436.637Z" fill="#C2D1D9"/>
<path d="M284.145 436.975C283.916 437.606 283.649 438.221 283.346 438.816C283.066 439.396 282.753 439.948 282.44 440.492C281.804 441.563 281.114 442.599 280.375 443.596C279.637 444.584 278.863 445.534 278.05 446.444C277.244 447.355 276.391 448.21 275.525 449.051C276.191 448.058 276.897 447.058 277.524 446.024C278.15 444.989 278.723 443.955 279.256 442.858C279.776 441.792 280.24 440.699 280.648 439.582C280.848 439.023 281.034 438.472 281.194 437.913C281.349 437.383 281.474 436.844 281.567 436.299L284.145 436.975Z" fill="black"/>
<path d="M250.039 468.362C250.039 468.362 254.269 467.321 258.033 461.121L250.039 468.362Z" fill="#C2D1D9"/>
<path d="M249.733 467.018C249.898 467.01 250.061 466.982 250.219 466.935C250.406 466.887 250.599 466.831 250.792 466.762C251.187 466.632 251.572 466.473 251.945 466.286C252.724 465.895 253.468 465.434 254.169 464.907C254.886 464.369 255.567 463.781 256.208 463.148C256.534 462.831 256.834 462.459 257.154 462.148L258.046 461.086L257.42 462.348C257.194 462.755 256.974 463.183 256.721 463.583C256.224 464.402 255.672 465.183 255.069 465.921C254.445 466.672 253.758 467.364 253.017 467.99C252.633 468.316 252.23 468.618 251.811 468.893C251.598 469.038 251.378 469.162 251.145 469.293C250.891 469.44 250.626 469.564 250.353 469.666L249.733 467.018Z" fill="black"/>
<path d="M371.447 436.637C371.447 436.637 384.769 436.637 386.102 444.224C387.654 453.045 380.107 457.328 380.107 457.328C380.107 457.328 390.764 462.845 392.097 468.362C404.54 461.107 419.608 461.031 431.398 468.362C445.62 477.204 452.807 495.419 448.717 513.192C448.22 515.633 447.319 517.966 446.053 520.089C434.555 539.158 395.014 540.51 366.784 527.675C351.53 520.778 336.069 512.847 330.813 498.708C323.686 479.521 331.713 460.541 333.478 458.017C333.478 458.017 322.82 452.5 330.147 444.224C337.475 435.947 371.447 436.637 371.447 436.637Z" fill="#C2D1D9" stroke="black" stroke-width="5.59081" stroke-miterlimit="10"/>
<path d="M446.053 520.088C449.43 517.33 453.147 525.606 452.048 530.434C448.904 544.227 412.7 553.193 382.105 546.296C370.388 543.641 349.278 536.73 327.483 515.95C327.483 515.95 320.155 504.226 330.813 497.329C330.813 497.329 350.298 524.475 378.195 529.868C406.092 535.262 430.732 532.503 446.053 520.088Z" fill="#C2D1D9" stroke="black" stroke-width="5.59081" stroke-miterlimit="10"/>
<path d="M393.096 468.018C393.096 468.018 383.77 473.535 377.109 485.949L393.096 468.018Z" fill="#C2D1D9"/>
<path d="M393.922 469.514C393.169 469.9 392.303 470.438 391.511 470.956C390.718 471.473 389.905 472.059 389.132 472.666C387.568 473.865 386.077 475.164 384.669 476.556C383.253 477.957 381.918 479.445 380.673 481.011C379.406 482.588 378.225 484.236 377.136 485.949C377.99 484.081 378.947 482.264 380 480.508C382.12 476.936 384.65 473.643 387.534 470.7C388.253 469.956 389.013 469.238 389.792 468.542C390.592 467.823 391.428 467.149 392.297 466.521L393.675 465.542L395.447 468.749L393.922 469.514Z" fill="black"/>
<path d="M380.439 456.983C380.439 456.983 371.78 461.81 363.786 461.121L380.439 456.983Z" fill="#C2D1D9"/>
<path d="M381.232 458.5C379.826 459.09 378.387 459.593 376.922 460.003C375.49 460.415 374.038 460.749 372.572 461.003C371.111 461.251 369.636 461.396 368.156 461.438C366.693 461.471 365.23 461.365 363.786 461.121C365.225 461.078 366.656 460.898 368.063 460.583C369.45 460.265 370.815 459.848 372.146 459.335C373.471 458.822 374.769 458.24 376.036 457.59C377.278 456.953 378.483 456.243 379.647 455.465L381.046 454.514L382.778 457.845L381.232 458.5Z" fill="black"/>
<path d="M334.477 458.362C334.477 458.362 339.806 461.81 345.801 461.81L334.477 458.362Z" fill="#C2D1D9"/>
<path d="M335.356 456.9C336.078 457.511 336.839 458.071 337.634 458.576C338.455 459.103 339.304 459.58 340.179 460.003C341.061 460.439 341.972 460.81 342.903 461.114C343.85 461.422 344.819 461.653 345.801 461.804C344.794 461.936 343.778 461.989 342.764 461.962C341.732 461.928 340.704 461.822 339.686 461.645C338.657 461.475 337.639 461.245 336.635 460.955C335.599 460.654 334.584 460.278 333.598 459.831L332.059 459.141L334.057 455.803L335.356 456.9Z" fill="black"/>
<path d="M212.717 499.129C211.536 502.377 210.833 505.79 210.632 509.254C210.505 510.743 210.632 512.633 211.964 513.171C212.97 513.578 214.135 512.881 214.682 511.916C215.141 510.898 215.369 509.784 215.348 508.661C215.528 505.902 215.801 502.964 217.286 500.64C218.039 499.453 219.071 498.488 219.864 497.336C221.449 495.039 221.516 491.736 218.319 492.081C215.714 492.356 213.576 497.046 212.717 499.129Z" fill="white"/>
<path d="M172.21 221.629C172.21 311.922 231.874 385.083 330.114 385.083C426.096 385.083 487.985 311.888 487.985 221.629C487.985 131.37 424.737 51.1053 327.017 53.8641C222.815 56.809 172.21 131.336 172.21 221.629Z" fill="#7B7B7B" stroke="black" stroke-width="3.72721" stroke-miterlimit="10"/>
<path d="M146.897 224.374C146.897 314.667 206.542 387.87 304.768 387.877C400.749 387.877 462.679 314.695 462.686 224.422C462.692 134.15 422.632 56.6227 301.717 56.6227C197.482 56.6227 146.904 134.081 146.897 224.374Z" fill="#DADAE5" stroke="black" stroke-width="3.72721" stroke-miterlimit="10"/>
<path d="M160.22 223.981C160.22 307.018 215.075 374.331 305.434 374.331C393.709 374.331 450.649 307.025 450.649 223.981C450.649 140.936 413.799 69.7267 302.603 69.7267C206.742 69.7267 160.226 140.943 160.22 223.981Z" stroke="black" stroke-width="3.72721" stroke-miterlimit="10"/>
<path d="M316.825 277.438C316.825 299.846 304.895 318.012 290.18 318.012C275.465 318.012 263.535 299.846 263.535 277.438C263.535 255.03 275.465 267.893 290.18 267.893C304.895 267.893 316.825 255.03 316.825 277.438Z" fill="black"/>
<path d="M281.52 313.184C281.347 313.874 286.849 317.322 294.843 315.253C302.836 313.184 309.497 301.46 309.497 301.46C309.497 301.46 301.504 297.321 294.843 303.529C294.843 303.529 284.185 302.839 281.52 313.184Z" fill="#747373"/>
<path d="M65.1507 238.009C58.4097 238.154 51.8729 235.611 46.8923 230.905C43.0221 227.195 39.1519 223.657 35.2884 219.932C31.245 216.022 26.7887 212.753 22.9452 208.615C18.5665 203.897 14.1879 199.184 9.80922 194.476C6.57853 191.028 3.14803 187.055 3.01481 182.234C2.95761 181.37 3.06649 180.503 3.33518 179.682C3.60388 178.862 4.02704 178.105 4.58018 177.455C6.77172 175.144 9.90914 175.138 12.7268 175.986C11.1548 173.848 8.99657 172.648 7.66433 170.117C6.68461 168.438 6.03068 166.578 5.73923 164.641C4.67343 154.695 17.2631 157.82 22.3923 160.04C25.7395 161.603 28.9566 163.448 32.0111 165.558C35.2951 167.689 34.6756 162.434 38.0062 161.199C40.0046 160.461 42.2228 160.744 44.2611 161.351C46.1643 161.918 47.984 162.751 49.67 163.827C51.6979 165.205 53.6098 166.757 55.3853 168.468C59.0424 171.793 63.2522 174.793 66.5229 178.483C69.6649 182.194 73.091 185.638 76.7679 188.779C79.6788 191.152 82.9495 193.359 86.6465 193.669C88.5156 193.853 90.401 193.618 92.1746 192.98C93.9482 192.343 95.5683 191.317 96.9247 189.973C99.476 187.628 101.541 184.745 104.119 182.421C105.507 181.171 107.029 180.09 108.655 179.2C113.984 176.31 123.423 177.345 124.515 185.021C125.375 191.035 118.927 194.931 114.384 198.78C111.651 201.122 109.368 203.977 107.656 207.194C105.271 211.636 104.625 216.725 102.034 221.105C106.603 219.725 107.862 224.877 106.623 228.505C105.071 233.078 100.848 236.036 96.7382 238.347C93.4292 240.208 90.0197 241.87 86.5266 243.326C83.4824 244.595 80.3116 245.72 77.0276 245.795C74.15 245.864 70 244.857 67.9684 242.526C66.9159 241.313 65.1307 238.174 67.9684 237.774C67.0343 237.909 66.0935 237.988 65.1507 238.009Z" fill="white" stroke="black" stroke-width="5.59081" stroke-miterlimit="10"/>
<path d="M12.9601 174.075C13.6262 174.296 14.1058 174.503 14.652 174.765C15.1982 175.027 15.6978 175.248 16.224 175.496C17.2499 176.013 18.2224 176.551 19.2283 177.145C21.1737 178.304 23.029 179.618 24.7771 181.076C26.5173 182.506 28.1435 184.079 29.6398 185.779C31.1281 187.448 32.4931 189.23 33.7231 191.111C32.2536 189.456 30.6659 187.918 28.9736 186.51C25.6387 183.749 21.9196 181.527 17.9427 179.917C16.9635 179.517 15.9443 179.165 14.9717 178.848C14.4721 178.703 13.9725 178.545 13.473 178.427C12.9734 178.31 12.4538 178.179 12.0475 178.11L12.9601 174.075Z" fill="black"/>
<path d="M34.2893 164.351C35.8747 165.889 37.2669 167.42 38.6525 169.034C40.038 170.648 41.317 172.31 42.5626 174.02C43.7882 175.733 44.9244 177.513 45.9665 179.352C46.9945 181.184 47.8853 183.095 48.631 185.069C47.5993 183.272 46.4369 181.559 45.1538 179.945C43.869 178.349 42.5038 176.825 41.0638 175.379C39.6206 173.944 38.1262 172.565 36.5808 171.241C35.0421 169.951 33.4167 168.675 31.838 167.586L34.2893 164.351Z" fill="black"/>
<path d="M30.852 201.766C29.8928 198.649 30.419 195.318 31.7113 192.352C33.0804 189.338 35.25 186.791 37.9662 185.007C38.6415 184.578 39.3374 184.184 40.0512 183.828C40.7622 183.486 41.4917 183.186 42.2361 182.931C42.9736 182.686 43.7256 182.49 44.4875 182.345C44.8672 182.276 45.2403 182.2 45.6199 182.145L46.7524 182.041C49.7717 181.789 52.8012 182.38 55.5252 183.752V184.166L53.4935 184.283L51.4951 184.503C50.1505 184.677 48.8162 184.928 47.4984 185.255C46.1926 185.589 44.9124 186.023 43.6682 186.552C42.4353 187.096 41.2478 187.744 40.1178 188.49C37.8478 189.971 35.8921 191.913 34.3691 194.2C33.6126 195.348 32.9678 196.57 32.4441 197.849C31.8979 199.118 31.4977 200.449 31.2517 201.815L30.852 201.766Z" fill="black"/>
<path d="M46.819 193.249C49.261 192.986 51.7273 193.371 53.9865 194.366C56.2192 195.294 58.2555 196.665 59.9816 198.401C61.7961 200.207 63.1666 202.437 63.9783 204.904C64.3854 206.185 64.5792 207.529 64.5512 208.877C64.5356 209.555 64.4393 210.229 64.2647 210.884C64.1872 211.21 64.0893 211.53 63.9716 211.842C63.8403 212.155 63.6912 212.459 63.5253 212.753L63.472 212.849C63.447 212.893 63.4065 212.925 63.3591 212.937C63.3118 212.95 63.2614 212.944 63.2189 212.918C63.1934 212.902 63.1717 212.88 63.1556 212.853C63.1394 212.827 63.1292 212.798 63.1257 212.767C62.9297 210.562 62.2679 208.429 61.1872 206.518C60.1042 204.609 58.7577 202.873 57.1905 201.366C55.6568 199.798 53.9916 198.374 52.2146 197.111C51.3353 196.469 50.4227 195.862 49.4968 195.29C48.5709 194.718 47.645 194.131 46.6858 193.621C46.6521 193.601 46.6253 193.571 46.6091 193.534C46.5929 193.497 46.5882 193.457 46.5955 193.417C46.6029 193.378 46.6219 193.341 46.65 193.314C46.6781 193.286 46.7139 193.268 46.7524 193.262L46.819 193.249Z" fill="black"/>
<path d="M67.8152 235.94C68.4656 235.924 69.1149 235.874 69.7602 235.788C70.4264 235.712 71.0925 235.609 71.7586 235.492C73.108 235.248 74.4426 234.924 75.7553 234.519C77.0826 234.115 78.3785 233.608 79.6322 233.002C80.9041 232.382 82.1211 231.648 83.2692 230.809C82.3242 231.925 81.2854 232.952 80.1651 233.878C79.0246 234.816 77.8177 235.664 76.5547 236.416C75.2844 237.184 73.9722 237.874 72.6246 238.485C71.9585 238.781 71.2923 239.071 70.5596 239.333C69.8269 239.595 69.1807 239.837 68.3681 240.023C68.1126 240.093 67.8463 240.111 67.5842 240.075C67.3221 240.039 67.0694 239.95 66.8405 239.813C66.6116 239.676 66.4111 239.494 66.2503 239.277C66.0895 239.059 65.9716 238.811 65.9034 238.547C65.8352 238.282 65.8179 238.007 65.8526 237.735C65.8873 237.464 65.9733 237.202 66.1057 236.965C66.2381 236.728 66.4143 236.521 66.6241 236.354C66.834 236.188 67.0735 236.066 67.3289 235.995C67.4883 235.957 67.6515 235.938 67.8152 235.94Z" fill="black"/>
<path d="M89.8904 229.305C90.9158 228.802 91.9004 228.214 92.8346 227.546C93.7582 226.907 94.6477 226.216 95.4991 225.477C96.3412 224.732 97.146 223.942 97.9105 223.112C98.6699 222.298 99.376 221.436 100.062 220.56C100.255 220.376 100.482 220.233 100.729 220.139C100.975 220.045 101.237 220.003 101.5 220.014C101.763 220.025 102.02 220.09 102.259 220.204C102.497 220.319 102.712 220.481 102.89 220.681C103.068 220.881 103.206 221.115 103.296 221.371C103.387 221.626 103.428 221.898 103.417 222.169C103.406 222.441 103.344 222.708 103.233 222.955C103.123 223.202 102.966 223.424 102.773 223.608C101.774 224.298 100.775 224.988 99.7224 225.595C98.6913 226.2 97.6307 226.75 96.5449 227.243C95.4718 227.733 94.3733 228.162 93.2543 228.526C92.1541 228.875 91.0294 229.136 89.8904 229.305Z" fill="black"/>
<path d="M96.7449 192.766C94.0618 194.771 91.8788 197.41 90.3767 200.463C88.8022 203.652 88.1566 207.246 88.5183 210.808C87.4822 207.189 87.4822 203.337 88.5183 199.718C89.575 195.959 91.4843 192.516 94.087 189.676C94.2813 189.488 94.5101 189.341 94.7598 189.245C95.0096 189.15 95.2753 189.107 95.5413 189.119C95.8074 189.131 96.0684 189.198 96.3091 189.316C96.5497 189.434 96.7652 189.601 96.9428 189.806C97.1204 190.011 97.2565 190.252 97.3432 190.512C97.4298 190.773 97.4653 191.049 97.4475 191.324C97.4297 191.599 97.3589 191.868 97.2394 192.114C97.1199 192.361 96.954 192.58 96.7515 192.759L96.7449 192.766Z" fill="black"/>
<path d="M466.303 353.255C463.399 357.572 459.369 361.055 456.977 365.669C454.586 370.283 454.313 376.904 458.409 380.049C460.201 381.428 462.513 381.904 464.751 381.952C469.658 381.978 474.415 380.204 478.18 376.945C482.003 373.711 482.176 367.552 485.234 364.883C490.883 359.931 512.205 375.228 518.001 378.214C524.662 381.663 530.823 386.056 537.152 390.104C545.425 395.401 554.957 401.043 564.916 401.532C568.778 401.809 572.622 400.762 575.853 398.553C576.782 397.915 577.591 397.106 578.238 396.167C578.886 395.141 579.321 393.988 579.517 392.78C579.657 391.994 579.364 390.022 579.83 389.422C580.636 388.401 584.58 388.594 586.018 387.752C586.98 387.207 587.82 386.459 588.487 385.558C589.153 384.656 589.631 383.621 589.889 382.518C590.821 378.076 587.111 374.855 584.053 372.49C583.092 371.716 582.071 371.024 581.002 370.421C580.576 370.193 579.044 368.883 578.744 368.855C580.676 369.035 584.26 368.621 585.539 366.828C586.818 365.034 586.791 363.779 586.351 361.531C585.279 356.075 578.258 353.806 573.848 351.91C563.417 347.413 552.492 344.234 542.034 339.806C536.945 337.654 531.649 335.33 527.08 332.13C522.823 329.143 519.086 326.019 514.13 324.136C515.497 322.099 516.123 319.626 515.896 317.157C514.843 308.681 502.513 307.501 496.245 308.191C488.252 308.991 480.511 311.901 473.071 314.922C470.186 316.095 466.962 317.681 465.197 320.44C463.159 323.64 464.071 327.612 466.643 330.185C468.375 331.819 470.494 332.952 472.784 333.468C470.06 336.226 469.72 341.33 468.787 344.951C468.141 347.441 467.782 351.055 466.303 353.255Z" fill="white" stroke="black" stroke-width="5.59081" stroke-miterlimit="10"/>
<path d="M579.137 390.904C576.553 388.911 573.995 386.897 571.41 384.952C568.826 383.008 566.215 381.132 563.483 379.435C560.739 377.767 557.873 376.326 554.91 375.124C551.94 373.911 548.875 372.89 545.785 371.973C548.949 372.552 552.106 373.242 555.23 374.145C558.37 375.046 561.436 376.199 564.403 377.593C567.374 378.973 570.238 380.635 573.062 382.318C575.887 384.001 578.624 385.766 581.382 387.435L579.137 390.904Z" fill="black"/>
<path d="M550.92 359.813C553.492 360.082 556.056 360.455 558.614 360.883C561.172 361.31 563.737 361.8 566.274 362.407C568.812 363.014 571.357 363.676 573.868 364.545C576.443 365.397 578.938 366.489 581.322 367.807L579.151 371.255C577.136 369.773 574.996 368.482 572.756 367.4C570.491 366.255 568.093 365.29 565.708 364.365C563.324 363.441 560.859 362.627 558.381 361.862C555.903 361.096 553.432 360.42 550.92 359.813Z" fill="black"/>
<path d="M502.007 347.041C503.814 347.058 505.61 347.348 507.336 347.903C509.049 348.43 510.705 349.137 512.279 350.013C513.882 350.886 515.371 351.969 516.708 353.234C517.391 353.883 518.011 354.599 518.56 355.372C518.82 355.786 519.073 356.193 519.293 356.62C519.493 357.065 519.658 357.527 519.786 358C518.214 356.972 516.708 356.255 515.196 355.462C513.684 354.669 512.199 353.882 510.7 353.055C509.201 352.227 507.722 351.337 506.257 350.372C504.75 349.39 503.328 348.275 502.007 347.041Z" fill="black"/>
<path d="M507.949 341.999C509.542 341.744 511.167 341.791 512.745 342.137C514.302 342.456 515.812 342.987 517.235 343.716C518.696 344.448 520.028 345.427 521.178 346.613C522.393 347.809 523.226 349.361 523.563 351.062C522.144 350.144 520.898 349.468 519.606 348.786C518.314 348.103 517.035 347.482 515.749 346.806C514.464 346.13 513.158 345.427 511.852 344.675C510.483 343.894 509.178 342.999 507.949 341.999Z" fill="black"/>
<path d="M512.159 337.468C513.719 337.007 515.355 336.892 516.961 337.13C518.553 337.343 520.103 337.808 521.558 338.509C523.036 339.234 524.375 340.232 525.508 341.454C526.659 342.691 527.453 344.237 527.799 345.916C526.34 345.054 525.135 344.275 523.882 343.578C522.63 342.882 521.391 342.247 520.119 341.62L516.235 339.709C514.91 339.061 513.571 338.364 512.159 337.468Z" fill="black"/>
<path d="M473.364 331.53C473.624 331.64 474.03 331.778 474.383 331.888C474.736 331.999 475.129 332.102 475.509 332.199C476.275 332.378 477.061 332.537 477.853 332.64C479.454 332.864 481.069 332.956 482.683 332.916C484.323 332.87 485.957 332.697 487.572 332.399C488.398 332.281 489.191 332.047 490.003 331.868C490.816 331.688 491.602 331.399 492.408 331.178C491.655 331.543 490.909 331.95 490.137 332.288C489.364 332.626 488.591 332.978 487.785 333.247C486.182 333.834 484.539 334.295 482.869 334.626C481.173 334.966 479.454 335.165 477.727 335.219C476.854 335.261 475.982 335.219 475.062 335.219C474.623 335.185 474.183 335.151 473.73 335.088C473.257 335.038 472.788 334.958 472.325 334.847L473.364 331.53Z" fill="black"/>
<path d="M515.329 324.909C515.202 325.079 515.057 325.234 514.896 325.371C514.777 325.467 514.657 325.578 514.537 325.661C514.308 325.829 514.07 325.984 513.824 326.123C513.37 326.388 512.898 326.618 512.412 326.812C511.499 327.179 510.556 327.459 509.594 327.647C508.67 327.84 507.736 327.981 506.796 328.067L505.404 328.164L504.019 328.212L505.351 327.743L506.623 327.233C507.454 326.875 508.265 326.472 509.055 326.026C509.817 325.603 510.541 325.112 511.219 324.557C511.535 324.3 511.831 324.019 512.105 323.716C512.229 323.578 512.344 323.433 512.452 323.281C512.505 323.212 512.538 323.143 512.578 323.081C512.618 323.019 512.672 322.916 512.578 323.005L515.329 324.909Z" fill="black"/>
<path d="M239.888 229.043C259.57 229.043 275.525 208.355 275.525 182.834C275.525 157.314 259.57 136.626 239.888 136.626C220.206 136.626 204.25 157.314 204.25 182.834C204.25 208.355 220.206 229.043 239.888 229.043Z" fill="white" stroke="black" stroke-width="3.72721" stroke-miterlimit="10"/>
<path d="M255.095 181.552L267.832 186.379C268.205 200.663 258.16 212.194 247.275 211.063C235.345 209.815 225.566 198.456 225.566 182.903C225.566 167.351 235.285 154.757 247.275 154.757C257.107 154.757 265.16 165.165 267.832 176.786L255.095 181.552Z" fill="black"/>
<path d="M329.814 230.422C349.496 230.422 365.452 209.734 365.452 184.214C365.452 158.693 349.496 138.005 329.814 138.005C310.132 138.005 294.177 158.693 294.177 184.214C294.177 209.734 310.132 230.422 329.814 230.422Z" fill="white" stroke="black" stroke-width="3.72721" stroke-miterlimit="10"/>
<path d="M345.022 182.931L357.758 187.759C358.131 202.042 348.086 213.574 337.202 212.442C325.271 211.194 315.493 199.835 315.493 184.283C315.493 168.73 325.211 156.137 337.202 156.137C347.034 156.137 355.087 166.544 357.758 178.165L345.022 182.931Z" fill="black"/>
<path d="M323.819 120.418C323.819 120.418 325.152 108.694 336.476 108.694C348.466 108.694 349.798 121.108 349.798 121.108" stroke="black" stroke-width="4.65901" stroke-miterlimit="10" stroke-linecap="round"/>
<path d="M231.894 120.418C231.894 120.418 233.227 108.694 244.551 108.694C256.541 108.694 257.873 121.108 257.873 121.108" stroke="black" stroke-width="4.65901" stroke-miterlimit="10" stroke-linecap="round"/>
<path d="M254.876 233.347C271.309 227.471 288.048 241.147 287.296 259.134C287.185 263.391 286.25 267.583 284.545 271.459C272.481 297.949 222.555 304.687 200.613 281.114C190.095 269.81 188.703 254.437 188.623 246.63C190.064 249.918 192.316 252.755 195.151 254.858C206.389 263.01 221.796 255.706 232.074 249.403C239.402 244.885 245.044 237.719 253.024 234.105C253.59 233.829 254.209 233.574 254.876 233.347Z" fill="#4D4C56" stroke="black" stroke-width="3.72721" stroke-miterlimit="10"/>
<path d="M319.623 232.657C303.189 226.781 286.45 240.457 287.209 258.444C287.319 262.701 288.252 266.892 289.954 270.769C302.024 297.259 351.95 303.998 373.885 280.424C384.41 269.12 385.795 253.747 385.875 245.94C384.436 249.23 382.184 252.068 379.347 254.168C368.11 262.32 352.702 255.017 342.424 248.713C335.097 244.195 329.455 237.03 321.474 233.416C320.882 233.14 320.262 232.885 319.623 232.657Z" fill="#4D4C56" stroke="black" stroke-width="3.72721" stroke-miterlimit="10"/>
<path d="M281.767 117.666C287.188 115.714 293.082 115.675 298.527 117.556C299.092 117.758 299.7 117.794 300.284 117.662C300.869 117.53 301.407 117.235 301.84 116.808C302.273 116.381 302.584 115.839 302.74 115.241C302.896 114.643 302.89 114.013 302.723 113.418L293.304 80.6236C293.105 79.9255 292.693 79.3128 292.13 78.877C291.567 78.4412 290.883 78.2057 290.18 78.2057C289.477 78.2057 288.793 78.4412 288.23 78.877C287.667 79.3128 287.255 79.9255 287.056 80.6236L277.61 113.515C277.442 114.106 277.434 114.734 277.586 115.329C277.738 115.925 278.045 116.467 278.473 116.895C278.902 117.323 279.435 117.621 280.016 117.757C280.597 117.893 281.202 117.862 281.767 117.666Z" fill="#6A8893" stroke="black" stroke-width="3.72721" stroke-miterlimit="10"/>
<path d="M279.103 328.695C284.524 330.648 290.417 330.687 295.862 328.805C296.428 328.604 297.036 328.567 297.62 328.699C298.204 328.831 298.742 329.127 299.175 329.554C299.608 329.981 299.92 330.523 300.076 331.121C300.231 331.718 300.226 332.349 300.059 332.944L290.64 365.738C290.441 366.436 290.029 367.049 289.466 367.484C288.903 367.92 288.219 368.156 287.516 368.156C286.813 368.156 286.129 367.92 285.566 367.484C285.002 367.049 284.591 366.436 284.392 365.738L274.946 332.847C274.778 332.256 274.769 331.628 274.921 331.032C275.074 330.436 275.381 329.895 275.809 329.467C276.237 329.039 276.771 328.741 277.352 328.604C277.932 328.468 278.538 328.5 279.103 328.695Z" fill="#242038" stroke="black" stroke-width="3.72721" stroke-miterlimit="10"/>
<path d="M286.23 56.6228C286.23 56.6228 299.659 54.5537 308.272 56.6228C308.272 56.6228 311.03 49.2915 308.272 46.6707C305.514 44.0499 289.327 44.6016 286.23 46.6707C283.132 48.7397 286.23 56.6228 286.23 56.6228Z" fill="#242038" stroke="black" stroke-width="3.72721" stroke-miterlimit="10" stroke-linecap="round"/>
<path d="M297.507 2C288.308 2 280.854 11.6073 280.854 23.4491C280.854 35.2909 288.308 44.8982 297.507 44.8982C306.707 44.8982 314.16 35.2978 314.16 23.4491C314.16 11.6004 306.707 2 297.507 2ZM297.507 39.098C290.886 39.098 285.517 32.2012 285.517 23.656C285.517 15.1109 290.886 8.20713 297.507 8.20713C304.129 8.20713 309.498 15.104 309.498 23.656C309.498 32.2081 304.129 39.098 297.507 39.098Z" fill="#242038" stroke="black" stroke-width="3.72721" stroke-miterlimit="10" stroke-linecap="round"/>
<path d="M286.29 223.815C285.319 226.12 283.83 228.151 281.947 229.74C280.753 230.691 279.445 231.479 278.057 232.085C276.05 232.909 273.895 233.274 271.739 233.156C269.584 233.038 267.478 232.44 265.566 231.401C263.655 230.363 261.983 228.909 260.664 227.139C259.345 225.37 258.411 223.326 257.926 221.148C257.441 218.97 257.416 216.71 257.852 214.521C258.289 212.332 259.177 210.266 260.456 208.466C261.735 206.665 263.375 205.172 265.263 204.088C267.151 203.005 269.243 202.356 271.395 202.187C273.582 201.97 275.788 202.295 277.829 203.135C279.871 203.974 281.691 205.304 283.139 207.015C284.571 208.552 285.738 210.332 286.59 212.277" fill="#95959B"/>
<path d="M286.29 223.815C285.319 226.12 283.83 228.151 281.947 229.74C280.753 230.691 279.445 231.479 278.057 232.085C276.05 232.909 273.895 233.274 271.739 233.156C269.584 233.038 267.478 232.44 265.566 231.401C263.655 230.363 261.983 228.909 260.664 227.139C259.345 225.37 258.411 223.326 257.926 221.148C257.441 218.97 257.416 216.71 257.852 214.521C258.289 212.332 259.177 210.266 260.456 208.466C261.735 206.665 263.375 205.172 265.263 204.088C267.151 203.005 269.243 202.356 271.395 202.187C273.582 201.97 275.788 202.295 277.829 203.135C279.871 203.974 281.691 205.304 283.139 207.015C284.571 208.552 285.738 210.332 286.59 212.277" stroke="black" stroke-width="3.72721" stroke-miterlimit="10" stroke-linecap="round"/>
<path d="M440.883 500.619C440.855 501.005 440.767 501.385 440.624 501.743C439.958 503.184 437.733 503.026 436.627 501.867C435.521 500.708 435.295 499.019 434.895 497.453C433.973 493.694 432.297 490.178 429.977 487.134C427.656 484.09 424.743 481.585 421.426 479.784C420.707 479.397 419.847 478.839 419.921 478.004C419.974 477.418 420.48 477.011 420.953 476.666C425.876 473.066 432.144 479.211 435.168 482.735C438.872 487.032 441.543 494.75 440.883 500.619Z" fill="white"/>
<path d="M264.867 215.939C264.867 215.939 265.2 208.698 273.527 208.353" stroke="white" stroke-width="6.52261" stroke-miterlimit="10" stroke-linecap="round"/>
<path d="M95.3393 237.664C95.3393 237.664 110.32 262.044 149.788 259.506L157.115 287.714C157.115 287.714 105.331 298.356 76.0217 245.94L95.3393 237.664Z" fill="#242038" stroke="black" stroke-width="3.72721" stroke-miterlimit="10" stroke-linecap="round"/>
<path d="M472.698 234.56C472.698 234.56 502.673 274.562 502.007 308.032L477.36 313.205C477.36 313.205 482.023 289.756 462.706 273.893" fill="#242038"/>
<path d="M472.698 234.56C472.698 234.56 502.673 274.562 502.007 308.032L477.36 313.205C477.36 313.205 482.023 289.756 462.706 273.893" stroke="black" stroke-width="3.72721" stroke-miterlimit="10" stroke-linecap="round"/>
<path d="M253.543 380.773C253.543 380.773 236.89 413.188 266.2 432.499C266.2 432.499 270.863 446.293 258.206 451.12C253.483 452.92 248.168 448.686 243.552 445.431C231.561 437.037 222.236 420.602 222.236 404.222C222.236 390.359 228.897 370.428 228.897 370.428L253.543 380.773Z" fill="#242038" stroke="black" stroke-width="3.72721" stroke-miterlimit="10"/>
<path d="M371.447 374.566V442.844C371.447 442.844 369.449 450.431 358.791 451.12C348.133 451.81 345.468 444.913 345.468 444.913V384.221C345.468 384.221 362.787 380.083 371.447 374.566Z" fill="#242038" stroke="black" stroke-width="3.72721" stroke-miterlimit="10"/>
<path d="M380.107 347.668C380.107 347.668 411.414 325.598 428.733 287.666" stroke="white" stroke-width="6.52261" stroke-miterlimit="10" stroke-linecap="round"/>
<path d="M438.392 254.216C438.392 254.216 443.721 231.457 441.057 216.284" stroke="white" stroke-width="6.52261" stroke-miterlimit="10" stroke-linecap="round"/>
<path d="M488.351 284.562C488.351 284.562 486.353 270.769 479.692 264.562" stroke="white" stroke-width="4.65901" stroke-miterlimit="10" stroke-linecap="round"/>
</g>
</svg>
