<svg width="657" height="575" viewBox="0 0 657 575" fill="none" xmlns="http://www.w3.org/2000/svg">
<path d="M123.182 47.1711L126 42L128.84 47.1711L134 50L128.84 52.8289L126 58L123.182 52.8289L118 50L123.182 47.1711Z" fill="#FFA491" stroke="#F46142" stroke-width="2" stroke-miterlimit="10"/>
<path d="M158.182 107.171L161 102L163.84 107.171L169 110L163.84 112.829L161 118L158.182 112.829L153 110L158.182 107.171Z" fill="#B9B1DA" stroke="#5C47B5" stroke-width="2" stroke-miterlimit="10"/>
<path d="M21.1825 73.1711L24 68L26.8402 73.1711L32.0001 76L26.8402 78.8289L24 84L21.1825 78.8289L16 76L21.1825 73.1711Z" fill="#FFDE72" stroke="#F29F19" stroke-width="2" stroke-miterlimit="10"/>
<g filter="url(#filter0_d_852_2343)">
<rect x="120.743" y="107" width="35" height="51" rx="8" transform="rotate(17.9805 120.743 107)" fill="#9882E3"/>
<rect x="121.386" y="108.26" width="33" height="49" rx="7" transform="rotate(17.9805 121.386 108.26)" stroke="#050505" stroke-width="2"/>
</g>
<g filter="url(#filter1_d_852_2343)">
<rect x="78" y="49" width="35" height="50" rx="8" fill="#F7C326"/>
<rect x="79" y="50" width="33" height="48" rx="7" stroke="black" stroke-width="2"/>
</g>
<g filter="url(#filter2_d_852_2343)">
<rect x="27" y="88.2991" width="35" height="50" rx="8" transform="rotate(-15.4079 27 88.2991)" fill="#8BDCE2"/>
<rect x="27" y="88.2991" width="35" height="50" rx="8" transform="rotate(-15.4079 27 88.2991)" stroke="black" stroke-width="2"/>
</g>
<path d="M284.465 443.626C284.465 443.626 290.965 435.682 300.354 440.015C309.742 444.349 306.131 456.626 306.131 456.626C306.131 456.626 325.63 460.959 327.797 467.459C329.963 473.959 319.853 530.289 273.632 545.456C227.412 560.622 222.357 551.955 221.635 549.789C220.912 547.622 212.246 518.734 233.912 504.291C255.578 489.847 268.577 501.402 268.577 501.402V490.569C268.577 490.569 257.181 493.205 253.411 481.903C248.356 466.737 284.465 443.626 284.465 443.626Z" fill="#F7C326" stroke="black" stroke-width="3" stroke-miterlimit="10"/>
<path d="M240.904 567.606C248.186 567.038 255.349 565.428 262.173 562.825C273.892 558.639 285.09 553.116 295.545 546.366C307.433 538.56 318.266 528.666 325.488 516.28C334.017 501.619 341.239 486.1 336.523 469.07C335.873 466.73 334.248 463.011 331.243 463.618C327.784 464.34 327.112 467.72 326.975 470.673C326.816 474.075 326.462 477.433 325.993 480.784C323.985 495.069 318.157 506.501 308.35 516.973C299.445 526.477 288.699 534.169 277.216 540.249C262.772 547.905 245.476 556.463 228.685 553.061C225.298 552.339 223.463 551.097 221.607 554.896C217.043 564.241 225.941 567.274 233.675 567.657C236.084 567.777 238.498 567.761 240.904 567.606Z" fill="#F7C326" stroke="black" stroke-width="3" stroke-miterlimit="10"/>
<path d="M271.104 503.929C271.104 503.929 276.882 506.818 278.326 518.373L271.104 503.929Z" fill="black"/>
<path d="M271.914 502.312C272.132 502.446 272.339 502.595 272.535 502.76C272.708 502.897 272.853 503.041 273.011 503.178C273.303 503.458 273.581 503.752 273.842 504.059C274.342 504.651 274.798 505.279 275.207 505.937C275.971 507.209 276.581 508.566 277.027 509.981C277.467 511.348 277.791 512.749 277.995 514.17C278.089 514.892 278.154 515.615 278.233 516.272L278.327 518.373L277.785 516.358C277.561 515.701 277.359 515.037 277.121 514.394C276.647 513.121 276.064 511.892 275.38 510.718C274.726 509.585 273.943 508.531 273.048 507.577C272.615 507.13 272.149 506.717 271.654 506.342C271.422 506.164 271.181 505.997 270.932 505.843C270.809 505.778 270.686 505.699 270.571 505.648C270.455 505.598 270.296 505.518 270.303 505.547L269.581 502.904L270.303 501.38L271.914 502.312Z" fill="black"/>
<path d="M305.409 455.904C305.409 455.904 303.965 461.681 297.465 468.903L305.409 455.904Z" fill="black"/>
<path d="M306.81 456.258C306.562 456.918 306.273 457.562 305.943 458.186C305.64 458.792 305.301 459.37 304.961 459.941C304.272 461.062 303.524 462.147 302.722 463.191C301.918 464.221 301.078 465.215 300.202 466.173C299.328 467.127 298.404 468.022 297.465 468.903C298.223 467.863 298.953 466.816 299.631 465.733C300.31 464.649 300.931 463.566 301.509 462.418C302.073 461.302 302.577 460.157 303.018 458.987C303.235 458.402 303.437 457.825 303.611 457.24C303.779 456.685 303.914 456.121 304.015 455.55L306.81 456.258Z" fill="black"/>
<path d="M269.834 489.125C269.834 489.125 274.42 488.034 278.5 481.542L269.834 489.125Z" fill="black"/>
<path d="M269.502 487.716C269.68 487.708 269.857 487.679 270.029 487.63C270.231 487.579 270.441 487.521 270.65 487.449C271.078 487.313 271.495 487.146 271.9 486.951C272.745 486.541 273.552 486.058 274.312 485.506C275.089 484.943 275.827 484.328 276.522 483.665C276.876 483.333 277.2 482.943 277.547 482.618L278.515 481.505L277.836 482.827C277.591 483.253 277.352 483.701 277.078 484.12C276.539 484.977 275.941 485.795 275.287 486.568C274.611 487.354 273.866 488.079 273.062 488.735C272.646 489.076 272.209 489.392 271.755 489.681C271.524 489.832 271.286 489.962 271.033 490.1C270.757 490.253 270.47 490.383 270.174 490.49L269.502 487.716Z" fill="black"/>
<path d="M401.461 455.904C401.461 455.904 415.905 455.904 417.349 463.848C419.032 473.085 410.849 477.57 410.849 477.57C410.849 477.57 422.404 483.347 423.849 489.125C437.339 481.527 453.675 481.448 466.458 489.125C481.877 498.383 489.669 517.456 485.235 536.067C484.696 538.623 483.719 541.067 482.346 543.289C469.881 563.258 427.012 564.673 396.405 551.233C379.867 544.011 363.105 535.706 357.407 520.901C349.68 500.81 358.382 480.935 360.296 478.292C360.296 478.292 348.741 472.514 356.685 463.848C364.629 455.182 401.461 455.904 401.461 455.904Z" fill="#F7C326" stroke="black" stroke-width="3" stroke-miterlimit="10"/>
<path d="M482.203 543.001C485.865 540.112 489.894 548.779 488.703 553.834C485.294 568.278 446.043 577.666 412.873 570.444C400.169 567.664 377.283 560.428 353.653 538.668C353.653 538.668 345.709 526.391 357.264 519.169C357.264 519.169 378.388 547.594 408.633 553.242C438.879 558.889 465.593 556 482.203 543.001Z" fill="#F7C326" stroke="black" stroke-width="3" stroke-miterlimit="10"/>
<path d="M424.932 488.763C424.932 488.763 414.822 494.541 407.6 507.54L424.932 488.763Z" fill="black"/>
<path d="M425.827 490.331C425.011 490.735 424.072 491.299 423.213 491.84C422.353 492.382 421.472 492.996 420.635 493.631C418.938 494.887 417.322 496.247 415.796 497.704C414.26 499.172 412.813 500.73 411.463 502.37C410.089 504.021 408.809 505.747 407.628 507.541C408.555 505.584 409.592 503.682 410.733 501.843C413.032 498.103 415.775 494.655 418.901 491.573C419.681 490.793 420.505 490.042 421.35 489.313C422.217 488.56 423.123 487.854 424.065 487.197L425.56 486.171L427.481 489.529L425.827 490.331Z" fill="black"/>
<path d="M411.21 477.209C411.21 477.209 401.822 482.264 393.155 481.542L411.21 477.209Z" fill="black"/>
<path d="M412.069 478.797C410.545 479.416 408.985 479.942 407.397 480.372C405.844 480.803 404.27 481.152 402.681 481.419C401.097 481.678 399.497 481.83 397.893 481.874C396.307 481.909 394.721 481.798 393.155 481.542C394.715 481.497 396.267 481.308 397.792 480.978C399.296 480.646 400.775 480.209 402.219 479.671C403.655 479.135 405.063 478.525 406.436 477.844C407.782 477.177 409.089 476.435 410.351 475.62L411.867 474.623L413.745 478.111L412.069 478.797Z" fill="black"/>
<path d="M362.823 479.375C362.823 479.375 368.601 482.986 375.101 482.986L362.823 479.375Z" fill="black"/>
<path d="M363.777 477.844C364.559 478.484 365.385 479.071 366.247 479.599C367.136 480.151 368.057 480.65 369.006 481.094C369.962 481.55 370.949 481.938 371.959 482.257C372.986 482.579 374.036 482.821 375.101 482.979C374.009 483.118 372.908 483.173 371.808 483.145C370.689 483.109 369.575 482.998 368.471 482.813C367.356 482.635 366.251 482.394 365.164 482.09C364.04 481.775 362.939 481.382 361.87 480.913L360.202 480.191L362.369 476.696L363.777 477.844Z" fill="black"/>
<path d="M229.369 521.341C228.089 524.742 227.327 528.316 227.109 531.943C226.972 533.503 227.109 535.482 228.553 536.045C229.644 536.471 230.907 535.742 231.5 534.731C231.997 533.665 232.245 532.499 232.222 531.322C232.417 528.433 232.713 525.357 234.324 522.923C235.14 521.681 236.259 520.67 237.118 519.464C238.837 517.059 238.909 513.6 235.443 513.961C232.619 514.25 230.301 519.16 229.369 521.341Z" fill="white"/>
<path d="M179.453 232.982C179.453 327.532 244.14 404.142 350.613 404.142C454.673 404.142 521.808 327.495 521.808 232.982C521.808 138.469 453.236 54.4202 347.291 57.3089C234.318 60.3927 179.453 138.433 179.453 232.982Z" fill="#F5816A" stroke="black" stroke-width="3" stroke-miterlimit="10"/>
<path d="M158.01 235.857C158.01 330.406 222.675 407.059 329.169 407.067C433.23 407.067 500.372 330.435 500.379 235.907C500.387 141.379 456.954 60.1978 325.862 60.1978C212.853 60.1978 158.017 141.307 158.01 235.857Z" fill="#FFE7E2" stroke="black" stroke-width="3" stroke-miterlimit="10"/>
<path d="M172.454 235.445C172.454 322.397 231.927 392.883 329.892 392.883C425.597 392.883 487.33 322.404 487.33 235.445C487.33 148.485 447.378 73.9192 326.823 73.9192C222.892 73.9192 172.461 148.493 172.454 235.445Z" stroke="black" stroke-width="3" stroke-miterlimit="10"/>
<path d="M341.395 288.932C341.395 300.403 338.231 310.722 333.194 318.131C328.151 325.548 321.341 329.919 314.008 329.919C306.675 329.919 299.865 325.548 294.822 318.131C289.784 310.722 286.62 300.403 286.62 288.932C286.62 283.112 287.441 279.974 288.609 278.346C289.639 276.911 291.115 276.436 293.457 276.63C295.412 276.793 297.665 277.395 300.315 278.103C300.98 278.281 301.67 278.465 302.387 278.651C305.868 279.554 309.82 280.437 314.008 280.437C318.195 280.437 322.147 279.554 325.628 278.651C326.345 278.465 327.035 278.281 327.701 278.103C330.351 277.395 332.604 276.793 334.558 276.63C336.901 276.436 338.376 276.911 339.407 278.346C340.575 279.974 341.395 283.112 341.395 288.932Z" fill="black" stroke="black" stroke-width="3"/>
<path d="M304.731 327.179C307.454 329.205 311.612 331.872 320.051 329.017C334.681 322.696 334.989 313.269 334.989 313.269C334.989 313.269 326.028 309.645 319.373 316.703C319.373 316.703 306.73 316.149 304.731 327.179Z" fill="#CC2936"/>
<path d="M69.3821 250.134C62.0738 250.286 54.9867 247.623 49.5869 242.696C45.391 238.81 41.1951 235.105 37.0064 231.205C32.6227 227.111 27.7912 223.687 23.6242 219.354C18.877 214.415 14.1298 209.48 9.38255 204.549C5.87992 200.938 2.16049 196.779 2.01605 191.73C1.95404 190.825 2.07208 189.917 2.3634 189.058C2.65471 188.199 3.11358 187.406 3.71328 186.726C6.08929 184.306 9.4908 184.299 12.5457 185.187C10.8413 182.949 8.50133 181.692 7.05694 179.042C5.99476 177.284 5.28587 175.336 4.96988 173.307C3.81438 162.893 17.4638 166.165 23.0247 168.49C26.6536 170.127 30.1415 172.059 33.4531 174.268C37.0135 176.499 36.3419 170.996 39.9528 169.704C42.1194 168.931 44.5244 169.227 46.7343 169.862C48.7977 170.456 50.7705 171.329 52.5984 172.455C54.797 173.898 56.8699 175.524 58.7949 177.316C62.7597 180.796 67.3239 183.938 70.8699 187.802C74.2764 191.689 77.991 195.294 81.9773 198.584C85.1333 201.068 88.6791 203.379 92.6873 203.704C94.7137 203.897 96.758 203.651 98.6808 202.983C100.604 202.315 102.36 201.241 103.831 199.833C106.597 197.378 108.836 194.359 111.63 191.925C113.135 190.617 114.785 189.485 116.549 188.553C122.326 185.527 132.56 186.61 133.744 194.648C134.676 200.946 127.685 205.026 122.759 209.092C119.797 211.545 117.322 214.534 115.465 217.903C112.88 222.554 112.179 227.883 109.37 232.469C114.324 231.025 115.689 236.42 114.346 240.218C112.663 245.007 108.085 248.105 103.629 250.524C100.041 252.473 96.3445 254.214 92.5574 255.738C89.2569 257.067 85.8193 258.244 82.2589 258.324C79.139 258.396 74.6397 257.342 72.437 254.901C71.2959 253.63 69.3605 250.344 72.437 249.925C71.4237 250.054 70.4036 250.124 69.3821 250.134Z" fill="#FFFEFD" stroke="#050505" stroke-width="3" stroke-miterlimit="10"/>
<path d="M12.6253 183.895C14.9587 184.663 17.2126 185.655 19.356 186.856C21.4701 188.01 23.4934 189.323 25.408 190.784C27.3146 192.227 29.104 193.818 30.7594 195.543C32.4095 197.256 33.9304 199.088 35.3093 201.025C33.7524 199.25 32.0624 197.596 30.2539 196.078C28.4785 194.563 26.5824 193.196 24.5847 191.99C22.609 190.773 20.5423 189.711 18.4028 188.813C17.3484 188.365 16.2361 187.968 15.1817 187.592C14.1273 187.217 12.9646 186.913 11.9463 186.704L12.6253 183.895Z" fill="#050505"/>
<path d="M35.4826 173.582C37.1942 175.113 38.7468 176.673 40.2779 178.305C41.8089 179.937 43.2389 181.627 44.611 183.36C45.9779 185.108 47.2531 186.925 48.4315 188.805C49.5851 190.689 50.5967 192.657 51.4576 194.691C50.3934 192.778 49.1863 190.948 47.8466 189.217C46.4916 187.506 45.0451 185.869 43.5135 184.313C41.9921 182.763 40.408 181.275 38.7614 179.85C37.122 178.442 35.4032 177.063 33.7061 175.849L35.4826 173.582Z" fill="#050505"/>
<path d="M32.269 212.197C31.8217 208.995 32.4301 205.735 34.0022 202.91C35.5321 199.975 37.8122 197.498 40.6103 195.731C41.9945 194.863 43.4692 194.149 45.0084 193.601C45.7686 193.34 46.5425 193.12 47.3266 192.944C47.7166 192.864 48.1066 192.763 48.4966 192.698L49.6809 192.546C52.7938 192.133 55.9599 192.422 58.9467 193.391V193.68C56.0057 193.738 53.079 194.106 50.2153 194.778C48.7921 195.123 47.3969 195.575 46.0412 196.128C44.6968 196.696 43.402 197.375 42.1702 198.158C39.6936 199.723 37.563 201.777 35.9088 204.195C35.0884 205.404 34.3892 206.691 33.8216 208.037C33.2385 209.38 32.8144 210.785 32.5578 212.226L32.269 212.197Z" fill="#050505"/>
<path d="M63.9232 213.439C66.4388 213.598 68.8959 214.266 71.1451 215.404C73.4086 216.498 75.4814 217.948 77.2838 219.701C79.1634 221.499 80.6403 223.675 81.6169 226.085C82.0969 227.321 82.3937 228.62 82.498 229.942C82.589 231.251 82.4044 232.565 81.9563 233.798V233.856C81.9493 233.872 81.9389 233.888 81.926 233.9C81.9131 233.913 81.8978 233.923 81.881 233.929C81.8643 233.936 81.8462 233.94 81.8282 233.939C81.8101 233.939 81.7924 233.935 81.7758 233.928C81.7502 233.921 81.7273 233.906 81.7106 233.885C81.6938 233.864 81.6837 233.839 81.6818 233.813C81.5003 231.485 80.7943 229.228 79.6164 227.212C78.4379 225.2 76.9789 223.367 75.2833 221.766C73.6072 220.13 71.7925 218.641 69.8596 217.318C68.8967 216.653 67.9096 216.02 66.8986 215.418C65.8947 214.812 64.8692 214.219 63.8292 213.699C63.8123 213.692 63.7971 213.681 63.7846 213.667C63.7721 213.653 63.7627 213.637 63.7566 213.62C63.7505 213.602 63.748 213.583 63.7494 213.565C63.7507 213.546 63.7557 213.528 63.7642 213.512C63.775 213.487 63.7936 213.467 63.8171 213.454C63.8406 213.441 63.8677 213.436 63.8943 213.439H63.9232Z" fill="#050505"/>
<path d="M72.3722 248.69C73.8294 248.562 75.2768 248.34 76.7053 248.025C78.1713 247.706 79.6181 247.303 81.0385 246.819C82.4651 246.335 83.8532 245.743 85.1911 245.05C86.5458 244.352 87.8341 243.533 89.0402 242.602C87.978 243.723 86.818 244.748 85.5738 245.664C84.318 246.587 82.9952 247.415 81.6162 248.141C80.2299 248.875 78.8023 249.528 77.3407 250.098C75.856 250.682 74.3335 251.164 72.7837 251.542C72.5987 251.59 72.4064 251.6 72.2173 251.573C72.0283 251.546 71.8465 251.483 71.6822 251.385C71.5179 251.288 71.3744 251.159 71.2598 251.007C71.1452 250.854 71.0618 250.68 71.0143 250.495C70.9669 250.31 70.9563 250.118 70.9833 249.929C71.0103 249.74 71.0742 249.558 71.1714 249.394C71.2687 249.229 71.3975 249.086 71.5502 248.971C71.7029 248.857 71.8765 248.773 72.0615 248.726C72.1349 248.707 72.2099 248.695 72.2854 248.69H72.3722Z" fill="#050505"/>
<path d="M96.2051 241.02C97.3358 240.548 98.4273 239.988 99.4694 239.344C100.51 238.713 101.515 238.026 102.481 237.286C103.427 236.564 104.359 235.777 105.225 234.939C106.092 234.101 106.922 233.249 107.724 232.368C107.852 232.226 108.006 232.11 108.178 232.027C108.35 231.945 108.537 231.897 108.728 231.886C108.919 231.876 109.11 231.903 109.29 231.967C109.47 232.03 109.636 232.128 109.779 232.256C109.921 232.384 110.037 232.538 110.119 232.71C110.202 232.882 110.25 233.069 110.26 233.26C110.271 233.451 110.243 233.642 110.18 233.822C110.116 234.002 110.018 234.168 109.891 234.311C109.826 234.381 109.756 234.446 109.681 234.506C108.656 235.271 107.623 236.015 106.54 236.672C105.456 237.329 104.373 237.958 103.232 238.528C102.107 239.085 100.952 239.58 99.7727 240.009C98.6124 240.441 97.4194 240.779 96.2051 241.02Z" fill="#050505"/>
<path d="M103.153 202.217C100.264 204.467 97.9499 207.37 96.4002 210.688C94.7925 214.106 94.208 217.916 94.7174 221.658C93.719 217.878 93.8344 213.891 95.0496 210.175C96.2799 206.363 98.3988 202.897 101.232 200.064C101.365 199.929 101.523 199.821 101.698 199.746C101.873 199.672 102.061 199.633 102.252 199.631C102.442 199.63 102.63 199.666 102.806 199.737C102.983 199.808 103.143 199.913 103.279 200.046C103.415 200.18 103.523 200.338 103.597 200.513C103.671 200.688 103.71 200.876 103.712 201.066C103.714 201.256 103.678 201.445 103.607 201.621C103.536 201.798 103.43 201.958 103.297 202.094L103.167 202.209L103.153 202.217Z" fill="#050505"/>
<path d="M258.828 240.746C280.166 240.746 297.465 219.082 297.465 192.359C297.465 165.635 280.166 143.972 258.828 143.972C237.489 143.972 220.19 165.635 220.19 192.359C220.19 219.082 237.489 240.746 258.828 240.746Z" fill="white" stroke="black" stroke-width="3" stroke-miterlimit="10"/>
<path d="M275.316 191.015L289.124 196.071C289.528 211.027 278.638 223.102 266.837 221.918C253.903 220.611 243.301 208.716 243.301 192.431C243.301 176.145 253.838 162.958 266.837 162.958C277.497 162.958 286.228 173.856 289.124 186.025L275.316 191.015Z" fill="black"/>
<path d="M356.324 242.19C377.663 242.19 394.961 220.526 394.961 193.803C394.961 167.08 377.663 145.416 356.324 145.416C334.985 145.416 317.687 167.08 317.687 193.803C317.687 220.526 334.985 242.19 356.324 242.19Z" fill="white" stroke="black" stroke-width="3" stroke-miterlimit="10"/>
<path d="M372.844 192.679L386.527 198.065C386.571 213.027 375.394 224.837 363.625 223.369C350.726 221.751 340.413 209.605 340.804 193.324C341.196 177.044 352.046 164.114 365.042 164.426C375.699 164.682 384.165 175.787 386.768 188.022L372.844 192.679Z" fill="black"/>
<path d="M349.823 127C349.823 127 351.268 114.723 363.545 114.723C376.544 114.723 377.989 127.723 377.989 127.723" stroke="#050505" stroke-width="3" stroke-miterlimit="10" stroke-linecap="round"/>
<path d="M250.162 127C250.162 127 251.606 114.723 263.884 114.723C276.883 114.723 278.328 127.723 278.328 127.723" stroke="#050505" stroke-width="3" stroke-miterlimit="10" stroke-linecap="round"/>
<path d="M274.829 239.169C292.646 233.016 310.794 247.337 309.978 266.172C309.858 270.63 308.844 275.019 306.996 279.077C293.917 306.817 239.788 313.872 215.999 289.188C204.596 277.351 203.087 261.253 203 253.078C204.563 256.521 207.004 259.492 210.078 261.694C222.261 270.23 238.965 262.582 250.109 255.982C258.053 251.251 264.17 243.748 272.821 239.963C273.435 239.674 274.107 239.407 274.829 239.169Z" fill="#474747" stroke="black" stroke-width="3" stroke-miterlimit="10"/>
<path d="M340.692 238.446C322.876 232.293 304.727 246.614 305.55 265.449C305.669 269.907 306.681 274.295 308.526 278.355C321.612 306.094 375.74 313.15 399.522 288.465C410.933 276.629 412.435 260.531 412.521 252.356C410.961 255.8 408.52 258.772 405.444 260.972C393.261 269.508 376.556 261.86 365.413 255.259C357.469 250.529 351.352 243.025 342.7 239.241C342.057 238.952 341.386 238.685 340.692 238.446Z" fill="#474747" stroke="black" stroke-width="3" stroke-miterlimit="10"/>
<path d="M304.233 124.119C310.11 122.074 316.5 122.033 322.403 124.003C323.016 124.214 323.675 124.253 324.309 124.115C324.942 123.976 325.525 123.667 325.995 123.22C326.464 122.773 326.802 122.205 326.971 121.579C327.14 120.953 327.134 120.293 326.953 119.67L316.741 85.33C316.525 84.5989 316.079 83.9574 315.468 83.501C314.858 83.0447 314.116 82.7981 313.354 82.7981C312.592 82.7981 311.85 83.0447 311.239 83.501C310.629 83.9574 310.183 84.5989 309.967 85.33L299.726 119.771C299.544 120.39 299.534 121.048 299.699 121.672C299.864 122.296 300.197 122.863 300.662 123.311C301.126 123.759 301.705 124.071 302.334 124.214C302.964 124.356 303.62 124.323 304.233 124.119Z" fill="#B9432C" stroke="black" stroke-width="3" stroke-miterlimit="10"/>
<path d="M508.791 242.329C508.791 242.329 546.935 279.169 551.252 313.922L525.563 323.109C525.563 323.109 527.075 298.065 503.968 284.628" fill="#19888F"/>
<path d="M508.791 242.329C508.791 242.329 546.935 279.169 551.252 313.922L525.563 323.109C525.563 323.109 527.075 298.065 503.968 284.628C508.342 270.331 509.006 250.472 508.791 242.329Z" stroke="black" stroke-width="3" stroke-miterlimit="10" stroke-linecap="round"/>
<path d="M518.315 366.572C515.854 371.497 512.053 375.724 510.149 380.934C508.245 386.143 509.011 392.988 513.847 395.622C515.975 396.776 518.526 396.899 520.937 396.605C526.206 395.868 531.044 393.289 534.593 389.326C538.213 385.38 537.45 378.977 540.346 375.729C545.696 369.722 570.844 382.248 577.509 384.45C585.184 386.983 592.445 390.589 599.844 393.802C609.517 397.998 620.586 402.366 631.35 401.325C635.535 401.011 639.502 399.332 642.642 396.546C643.537 395.735 644.28 394.77 644.835 393.697C645.379 392.543 645.674 391.288 645.701 390.012C645.74 389.177 645.121 387.159 645.534 386.484C646.244 385.302 650.486 384.887 651.925 383.789C652.877 383.072 653.668 382.164 654.248 381.124C654.829 380.083 655.185 378.933 655.296 377.747C655.626 372.994 651.157 370.239 647.527 368.254C646.378 367.603 645.177 367.048 643.936 366.593C643.452 366.419 641.612 365.316 641.28 365.341C643.387 365.229 647.167 364.247 648.289 362.18C649.411 360.113 649.186 358.834 648.367 356.57C646.398 351.088 638.527 349.822 633.509 348.542C621.64 345.507 609.443 343.902 597.558 340.941C591.775 339.506 585.749 337.923 580.364 335.308C575.34 332.876 570.835 330.218 565.259 329.036C566.427 326.718 566.729 324.058 566.11 321.537C563.714 312.915 550.32 313.643 543.676 315.263C535.197 317.337 527.353 321.536 519.835 325.835C516.924 327.498 513.69 329.605 512.213 332.748C510.504 336.379 512.05 340.357 515.223 342.621C517.326 344.048 519.769 344.894 522.305 345.074C519.793 348.33 520.204 353.695 519.766 357.572C519.419 360.227 519.569 364.032 518.315 366.572Z" fill="#FEFDFC" stroke="#050505" stroke-width="3" stroke-miterlimit="10"/>
<path d="M645.345 387.374C642.249 385.756 639.175 384.129 636.076 382.562C632.976 380.994 629.854 379.508 626.641 378.261C623.412 377.019 620.092 376.027 616.711 375.293C613.318 374.552 609.869 374.031 606.406 373.621C609.888 373.791 613.377 374.069 616.84 374.582C620.318 375.089 623.752 375.862 627.112 376.894C630.477 377.942 633.759 379.235 636.988 380.597C640.217 381.959 643.406 383.375 646.594 384.769L645.345 387.374Z" fill="#050505"/>
<path d="M610.094 360.184C612.892 360.122 615.69 360.169 618.494 360.288C621.298 360.407 624.108 360.598 626.908 360.862C629.708 361.126 632.516 361.498 635.303 362.067C638.137 362.595 640.918 363.381 643.609 364.416L642.405 367.039C639.958 365.858 637.41 364.897 634.792 364.169C632.149 363.393 629.435 362.819 626.688 362.29C623.94 361.762 621.195 361.363 618.425 361.01C615.654 360.657 612.88 360.362 610.094 360.184Z" fill="#050505"/>
<path d="M555.678 354.553C557.621 354.41 559.574 354.51 561.493 354.848C563.392 355.177 565.259 355.674 567.07 356.334C568.917 356.981 570.682 357.842 572.328 358.9C573.163 359.434 573.947 360.043 574.671 360.719C575.01 361.092 575.362 361.45 575.68 361.825C575.974 362.232 576.246 362.654 576.497 363.09C574.825 362.245 573.094 361.521 571.319 360.923L566.111 359.041C564.38 358.444 562.64 357.74 560.893 357.022C559.103 356.312 557.361 355.487 555.678 354.553Z" fill="#050505"/>
<path d="M561.315 348.402C562.991 348.026 564.716 347.918 566.425 348.083C568.125 348.215 569.804 348.551 571.424 349.083C573.078 349.609 574.642 350.385 576.061 351.384C577.537 352.368 578.704 353.751 579.426 355.372C577.989 354.609 576.502 353.942 574.977 353.375C573.487 352.805 572.004 352.335 570.518 351.829C569.033 351.323 567.497 350.835 565.959 350.297C564.376 349.754 562.825 349.122 561.315 348.402Z" fill="#050505"/>
<path d="M565.147 343.05C566.767 342.463 568.484 342.189 570.207 342.242C571.928 342.269 573.636 342.535 575.284 343.033C576.95 343.551 578.519 344.343 579.925 345.377C581.34 346.421 582.468 347.804 583.205 349.401C581.621 348.634 580.243 347.925 578.788 347.344C577.333 346.763 575.905 346.253 574.423 345.791C572.94 345.328 571.461 344.909 569.901 344.48C568.342 344.052 566.796 343.616 565.147 343.05Z" fill="#050505"/>
<path d="M520.85 343.859C521.664 344.037 522.488 344.156 523.316 344.215C524.183 344.285 525.053 344.307 525.921 344.281C527.684 344.244 529.441 344.052 531.172 343.706C532.921 343.36 534.643 342.872 536.322 342.248C537.177 341.966 537.995 341.563 538.831 341.22C539.668 340.877 540.458 340.404 541.283 340C540.525 340.517 539.776 341.072 538.994 341.567C538.213 342.062 537.431 342.557 536.606 342.961C534.972 343.849 533.278 344.603 531.537 345.218C529.776 345.836 527.969 346.301 526.136 346.608C525.209 346.769 524.275 346.88 523.336 346.94C522.358 347.014 521.375 347.011 520.395 346.93L520.85 343.859Z" fill="#050505"/>
<path d="M566.317 329.364C566.216 329.543 566.095 329.71 565.956 329.861C565.856 329.977 565.749 330.101 565.641 330.203C565.425 330.422 565.207 330.604 564.96 330.789C564.523 331.135 564.062 331.45 563.581 331.731C562.688 332.261 561.753 332.715 560.784 333.089C559.836 333.449 558.871 333.762 557.892 334.026L556.434 334.38L555.008 334.688L556.339 334.076L557.649 333.385C558.501 332.914 559.328 332.398 560.128 331.841C560.903 331.303 561.632 330.699 562.304 330.037C562.623 329.724 562.92 329.39 563.194 329.037C563.316 328.871 563.429 328.698 563.532 328.519C563.582 328.442 563.627 328.361 563.666 328.278C563.663 328.227 563.747 328.091 563.701 328.152L566.317 329.364Z" fill="#050505"/>
<path d="M301.344 345.095C307.222 347.14 313.611 347.181 319.514 345.211C320.127 345 320.787 344.961 321.42 345.099C322.053 345.238 322.637 345.547 323.106 345.994C323.576 346.441 323.913 347.009 324.082 347.635C324.251 348.261 324.245 348.921 324.064 349.544L313.852 383.884C313.636 384.615 313.19 385.257 312.58 385.713C311.969 386.169 311.227 386.416 310.465 386.416C309.703 386.416 308.961 386.169 308.351 385.713C307.74 385.257 307.294 384.615 307.078 383.884L296.837 349.443C296.655 348.824 296.646 348.166 296.811 347.542C296.976 346.918 297.308 346.351 297.773 345.903C298.238 345.455 298.816 345.143 299.446 345C300.075 344.858 300.732 344.891 301.344 345.095Z" fill="#8C7BC7" stroke="black" stroke-width="3" stroke-miterlimit="10"/>
<path d="M309.071 60.1976C309.071 60.1976 323.63 58.031 332.968 60.1976C332.968 60.1976 335.958 52.5207 332.968 49.7764C329.978 47.0321 312.429 47.6098 309.071 49.7764C305.712 51.943 309.071 60.1976 309.071 60.1976Z" fill="#F7C326" stroke="black" stroke-width="3" stroke-miterlimit="10" stroke-linecap="round"/>
<path d="M321.297 1.5C310.206 1.5 301.742 12.5543 301.742 25.4602C301.742 38.366 310.206 49.4203 321.297 49.4203C332.388 49.4203 340.852 38.3736 340.852 25.4602C340.852 12.5468 332.388 1.5 321.297 1.5ZM321.297 40.3467C315.235 40.3467 309.798 34.1173 309.798 25.6768C309.798 17.2354 315.236 10.9997 321.297 10.9997C327.359 10.9997 332.796 17.2286 332.796 25.6768C332.796 34.1241 327.359 40.3467 321.297 40.3467Z" fill="#F7C326" stroke="black" stroke-width="3" stroke-miterlimit="10" stroke-linecap="round"/>
<path d="M309.136 235.271C308.083 237.685 306.468 239.812 304.427 241.475C303.132 242.471 301.715 243.296 300.21 243.93C298.034 244.793 295.698 245.176 293.361 245.053C291.023 244.929 288.74 244.302 286.668 243.215C284.596 242.127 282.782 240.605 281.353 238.752C279.923 236.899 278.911 234.759 278.385 232.478C277.858 230.198 277.831 227.831 278.305 225.539C278.778 223.247 279.741 221.084 281.128 219.198C282.515 217.313 284.292 215.749 286.339 214.615C288.386 213.48 290.654 212.801 292.988 212.623C295.359 212.397 297.75 212.737 299.963 213.616C302.177 214.495 304.15 215.887 305.72 217.679C307.272 219.288 308.538 221.152 309.461 223.189" fill="#FFDE72"/>
<path d="M309.136 235.271C308.083 237.685 306.468 239.812 304.427 241.475C303.132 242.471 301.715 243.296 300.21 243.93C298.034 244.793 295.698 245.176 293.361 245.053C291.023 244.929 288.74 244.302 286.668 243.215C284.596 242.127 282.782 240.605 281.353 238.752C279.923 236.899 278.911 234.759 278.385 232.478C277.858 230.198 277.831 227.831 278.305 225.539C278.778 223.247 279.741 221.084 281.128 219.198C282.515 217.313 284.292 215.749 286.339 214.615C288.386 213.48 290.654 212.801 292.988 212.623C295.359 212.397 297.75 212.737 299.963 213.616C302.177 214.495 304.15 215.887 305.72 217.679C307.272 219.288 308.538 221.152 309.461 223.189" stroke="#050505" stroke-width="3" stroke-miterlimit="10" stroke-linecap="round"/>
<path d="M103.918 250.856C103.918 250.856 118.362 275.303 161.144 272.645L169.124 302.183C169.124 302.183 114.028 312.965 82.252 258.078L103.918 250.856Z" fill="#19888F" stroke="black" stroke-width="3" stroke-miterlimit="10" stroke-linecap="round"/>
<path d="M273.715 400.003C273.715 400.003 255.66 433.946 287.436 454.168C287.436 454.168 292.492 468.612 278.77 473.667C273.65 475.552 267.886 471.118 262.882 467.709C249.918 458.92 239.771 441.71 239.771 424.558C239.771 410.042 246.993 389.17 246.993 389.17L273.715 400.003Z" fill="#19888F" stroke="black" stroke-width="3" stroke-miterlimit="10"/>
<path d="M401.542 393.504V465.001C401.542 465.001 399.376 472.945 387.821 473.667C376.266 474.389 373.377 467.167 373.377 467.167V403.614C373.377 403.614 390 398 401.542 393.504Z" fill="#19888F" stroke="black" stroke-width="3" stroke-miterlimit="10"/>
<path d="M294 219C291.667 219.333 286.6 221.9 285 229.5" stroke="white" stroke-width="4" stroke-linecap="round"/>
<defs>
<filter id="filter0_d_852_2343" x="107.076" y="109.077" width="46.8809" height="58.1602" filterUnits="userSpaceOnUse" color-interpolation-filters="sRGB">
<feFlood flood-opacity="0" result="BackgroundImageFix"/>
<feColorMatrix in="SourceAlpha" type="matrix" values="0 0 0 0 0 0 0 0 0 0 0 0 0 0 0 0 0 0 127 0" result="hardAlpha"/>
<feOffset dx="2" dy="3"/>
<feComposite in2="hardAlpha" operator="out"/>
<feColorMatrix type="matrix" values="0 0 0 0 0 0 0 0 0 0 0 0 0 0 0 0 0 0 1 0"/>
<feBlend mode="normal" in2="BackgroundImageFix" result="effect1_dropShadow_852_2343"/>
<feBlend mode="normal" in="SourceGraphic" in2="effect1_dropShadow_852_2343" result="shape"/>
</filter>
<filter id="filter1_d_852_2343" x="78" y="49" width="37" height="53" filterUnits="userSpaceOnUse" color-interpolation-filters="sRGB">
<feFlood flood-opacity="0" result="BackgroundImageFix"/>
<feColorMatrix in="SourceAlpha" type="matrix" values="0 0 0 0 0 0 0 0 0 0 0 0 0 0 0 0 0 0 127 0" result="hardAlpha"/>
<feOffset dx="2" dy="3"/>
<feComposite in2="hardAlpha" operator="out"/>
<feColorMatrix type="matrix" values="0 0 0 0 0 0 0 0 0 0 0 0 0 0 0 0 0 0 1 0"/>
<feBlend mode="normal" in2="BackgroundImageFix" result="effect1_dropShadow_852_2343"/>
<feBlend mode="normal" in="SourceGraphic" in2="effect1_dropShadow_852_2343" result="shape"/>
</filter>
<filter id="filter2_d_852_2343" x="27.8359" y="79.8357" width="47.3545" height="58.8306" filterUnits="userSpaceOnUse" color-interpolation-filters="sRGB">
<feFlood flood-opacity="0" result="BackgroundImageFix"/>
<feColorMatrix in="SourceAlpha" type="matrix" values="0 0 0 0 0 0 0 0 0 0 0 0 0 0 0 0 0 0 127 0" result="hardAlpha"/>
<feOffset dx="2" dy="3"/>
<feComposite in2="hardAlpha" operator="out"/>
<feColorMatrix type="matrix" values="0 0 0 0 0.0208333 0 0 0 0 0.0205754 0 0 0 0 0.0203125 0 0 0 1 0"/>
<feBlend mode="normal" in2="BackgroundImageFix" result="effect1_dropShadow_852_2343"/>
<feBlend mode="normal" in="SourceGraphic" in2="effect1_dropShadow_852_2343" result="shape"/>
</filter>
</defs>
</svg>
