<svg width="631" height="631" viewBox="0 0 631 631" fill="none" xmlns="http://www.w3.org/2000/svg">
<mask id="mask0_993_2907" style="mask-type:alpha" maskUnits="userSpaceOnUse" x="26" y="26" width="579" height="579">
<circle cx="315.5" cy="315.5" r="289.5" fill="#D9D9D9"/>
</mask>
<g mask="url(#mask0_993_2907)">
<path d="M313.029 321.999L51.107 82.1987L73.2295 60.0762L313.029 321.999Z" fill="#F46142" fill-opacity="0.05"/>
<path d="M313.029 321.998L13.4152 131.327L31.4054 105.657L313.029 321.998Z" fill="#F46142" fill-opacity="0.05"/>
<path d="M313.029 321.999L-15.1354 186.259L-1.90362 157.875L313.029 321.999Z" fill="#F46142" fill-opacity="0.05"/>
<path d="M313.03 321.999L-33.71 245.279L-25.6123 215.059L313.03 321.999Z" fill="#F46142" fill-opacity="0.05"/>
<path d="M313.029 321.998L-41.7659 306.638L-39.0528 275.458L313.029 321.998Z" fill="#F46142" fill-opacity="0.05"/>
<path d="M313.029 321.999L-39.0528 368.498L-41.7659 337.317L313.029 321.999Z" fill="#F46142" fill-opacity="0.05"/>
<path d="M313.03 321.999L-25.6123 428.938L-33.71 398.676L313.03 321.999Z" fill="#F46142" fill-opacity="0.05"/>
<path d="M313.029 321.999L-1.90362 486.081L-15.1354 457.739L313.029 321.999Z" fill="#F46142" fill-opacity="0.05"/>
<path d="M313.029 321.999L31.4054 538.298L13.4152 512.628L313.029 321.999Z" fill="#F46142" fill-opacity="0.05"/>
<path d="M313.029 321.999L73.2295 583.921L51.107 561.757L313.029 321.999Z" fill="#F46142" fill-opacity="0.05"/>
<path d="M313.029 321.999L122.358 621.571L96.6878 603.623L313.029 321.999Z" fill="#F46142" fill-opacity="0.05"/>
<path d="M313.029 321.999L177.289 650.122L148.905 636.89L313.029 321.999Z" fill="#F46142" fill-opacity="0.05"/>
<path d="M313.029 321.999L236.31 668.696L206.09 660.599L313.029 321.999Z" fill="#F46142" fill-opacity="0.05"/>
<path d="M313.029 321.999L297.669 676.752L266.489 674.039L313.029 321.999Z" fill="#F46142" fill-opacity="0.05"/>
<path d="M313.029 321.999L359.529 674.039L328.348 676.752L313.029 321.999Z" fill="#F46142" fill-opacity="0.05"/>
<path d="M313.029 321.999L419.969 660.599L389.707 668.696L313.029 321.999Z" fill="#F46142" fill-opacity="0.05"/>
<path d="M313.029 321.999L477.112 636.89L448.77 650.122L313.029 321.999Z" fill="#F46142" fill-opacity="0.05"/>
<path d="M313.029 321.999L529.329 603.623L503.659 621.571L313.029 321.999Z" fill="#F46142" fill-opacity="0.05"/>
<path d="M313.029 321.999L574.952 561.757L552.788 583.921L313.029 321.999Z" fill="#F46142" fill-opacity="0.05"/>
<path d="M313.029 321.999L612.602 512.628L594.653 538.298L313.029 321.999Z" fill="#F46142" fill-opacity="0.05"/>
<path d="M313.029 321.999L641.153 457.739L627.921 486.081L313.029 321.999Z" fill="#F46142" fill-opacity="0.05"/>
<path d="M313.029 321.999L659.727 398.676L651.629 428.938L313.029 321.999Z" fill="#F46142" fill-opacity="0.05"/>
<path d="M313.029 321.999L667.783 337.317L665.07 368.498L313.029 321.999Z" fill="#F46142" fill-opacity="0.05"/>
<path d="M313.029 321.998L665.07 275.458L667.783 306.638L313.029 321.998Z" fill="#F46142" fill-opacity="0.05"/>
<path d="M313.029 321.999L651.629 215.059L659.727 245.279L313.029 321.999Z" fill="#F46142" fill-opacity="0.05"/>
<path d="M313.029 321.999L627.921 157.875L641.153 186.259L313.029 321.999Z" fill="#F46142" fill-opacity="0.05"/>
<path d="M313.029 321.998L594.653 105.657L612.602 131.327L313.029 321.998Z" fill="#F46142" fill-opacity="0.05"/>
<path d="M313.029 321.999L552.788 60.0762L574.952 82.1987L313.029 321.999Z" fill="#F46142" fill-opacity="0.05"/>
<path d="M313.029 321.999L503.659 22.3845L529.329 40.3747L313.029 321.999Z" fill="#F46142" fill-opacity="0.05"/>
<path d="M313.029 321.998L448.77 -6.1665L477.112 7.06528L313.029 321.998Z" fill="#F46142" fill-opacity="0.05"/>
<path d="M313.029 321.999L389.707 -24.741L419.969 -16.6433L313.029 321.999Z" fill="#F46142" fill-opacity="0.05"/>
<path d="M313.029 321.998L328.348 -32.7969L359.529 -30.0837L313.029 321.998Z" fill="#F46142" fill-opacity="0.05"/>
<path d="M313.029 321.998L266.489 -30.0837L297.669 -32.7969L313.029 321.998Z" fill="#F46142" fill-opacity="0.05"/>
<path d="M313.029 321.999L206.09 -16.6433L236.31 -24.741L313.029 321.999Z" fill="#F46142" fill-opacity="0.05"/>
<path d="M313.029 321.998L148.905 7.06528L177.289 -6.1665L313.029 321.998Z" fill="#F46142" fill-opacity="0.05"/>
<path d="M313.029 321.999L96.6878 40.3747L122.358 22.3845L313.029 321.999Z" fill="#F46142" fill-opacity="0.05"/>
</g>
<ellipse cx="332.951" cy="566.588" rx="144.499" ry="31.4441" transform="rotate(0.851505 332.951 566.588)" fill="#F46142" fill-opacity="0.4"/>
<path d="M281.28 461.465C281.28 461.465 286.987 454.49 295.23 458.294C303.473 462.099 300.303 472.879 300.303 472.879C300.303 472.879 317.424 476.683 319.326 482.39C321.228 488.097 312.351 537.557 271.768 550.873C231.186 564.189 226.747 556.58 226.113 554.678C225.479 552.776 217.869 527.411 236.892 514.729C255.916 502.047 267.329 512.193 267.329 512.193V502.681C267.329 502.681 257.323 504.996 254.013 495.072C249.575 481.756 281.28 461.465 281.28 461.465Z" fill="#F7C326" stroke="black" stroke-width="2.46032" stroke-miterlimit="10"/>
<path d="M243.033 570.322C249.427 569.824 255.716 568.41 261.707 566.124C271.997 562.449 281.829 557.6 291.009 551.673C301.447 544.818 310.958 536.131 317.299 525.256C324.788 512.384 331.129 498.757 326.988 483.805C326.418 481.751 324.991 478.485 322.353 479.018C319.316 479.652 318.726 482.619 318.605 485.213C318.466 488.199 318.155 491.148 317.743 494.09C315.98 506.633 310.863 516.671 302.252 525.865C294.433 534.21 284.998 540.963 274.916 546.302C262.234 553.024 247.047 560.538 232.304 557.551C229.33 556.917 227.719 555.826 226.09 559.162C222.082 567.367 229.894 570.03 236.686 570.366C238.801 570.472 240.92 570.458 243.033 570.322Z" fill="#F7C326" stroke="black" stroke-width="2.46032" stroke-miterlimit="10"/>
<path d="M269.549 514.412C269.549 514.412 274.621 516.949 275.89 527.094Z" fill="black"/>
<path d="M270.26 512.992C270.451 513.109 270.633 513.241 270.805 513.385C270.957 513.505 271.084 513.632 271.223 513.753C271.479 513.998 271.723 514.256 271.953 514.526C272.392 515.046 272.792 515.597 273.151 516.175C273.821 517.292 274.358 518.484 274.749 519.726C275.135 520.926 275.42 522.156 275.599 523.404C275.681 524.038 275.738 524.672 275.808 525.249L275.89 527.094L275.415 525.325C275.218 524.748 275.041 524.165 274.831 523.6C274.415 522.483 273.904 521.403 273.303 520.373C272.729 519.378 272.041 518.452 271.255 517.614C270.875 517.223 270.466 516.86 270.031 516.53C269.827 516.374 269.616 516.228 269.397 516.093C269.289 516.036 269.182 515.966 269.08 515.921C268.979 515.877 268.839 515.807 268.845 515.833L268.211 513.512L268.845 512.174L270.26 512.992Z" fill="black"/>
<path d="M299.67 472.245C299.67 472.245 298.401 477.317 292.694 483.658Z" fill="black"/>
<path d="M300.9 472.555C300.682 473.135 300.428 473.701 300.139 474.248C299.872 474.781 299.574 475.288 299.276 475.789C298.671 476.774 298.015 477.726 297.311 478.643C296.605 479.547 295.867 480.42 295.098 481.261C294.33 482.098 293.519 482.885 292.694 483.658C293.36 482.745 294.001 481.826 294.597 480.875C295.193 479.924 295.738 478.972 296.245 477.964C296.741 476.984 297.183 475.979 297.571 474.952C297.761 474.439 297.938 473.931 298.091 473.418C298.239 472.931 298.357 472.435 298.446 471.934L300.9 472.555Z" fill="black"/>
<path d="M268.433 501.413C268.433 501.413 272.459 500.456 276.042 494.755Z" fill="black"/>
<path d="M268.141 500.177C268.298 500.17 268.453 500.144 268.604 500.101C268.782 500.056 268.966 500.006 269.149 499.942C269.525 499.822 269.892 499.676 270.246 499.505C270.988 499.145 271.697 498.721 272.364 498.237C273.047 497.742 273.695 497.202 274.305 496.62C274.615 496.328 274.901 495.985 275.205 495.7L276.055 494.724L275.459 495.884C275.243 496.258 275.034 496.651 274.793 497.019C274.32 497.772 273.795 498.49 273.22 499.169C272.627 499.859 271.973 500.496 271.267 501.071C270.902 501.371 270.518 501.648 270.12 501.902C269.917 502.035 269.707 502.149 269.485 502.269C269.244 502.404 268.991 502.518 268.731 502.612L268.141 500.177Z" fill="black"/>
<path d="M384.005 472.245C384.005 472.245 396.687 472.245 397.955 479.22C399.433 487.33 392.248 491.268 392.248 491.268C392.248 491.268 402.394 496.341 403.662 501.413C415.507 494.743 429.851 494.673 441.074 501.413C454.612 509.543 461.454 526.289 457.561 542.63C457.088 544.874 456.23 547.02 455.024 548.971C444.08 566.504 406.439 567.747 379.566 555.946C365.045 549.605 350.328 542.313 345.325 529.314C338.54 511.673 346.181 494.223 347.861 491.902C347.861 491.902 337.715 486.829 344.69 479.22C351.666 471.611 384.005 472.245 384.005 472.245Z" fill="#F7C326" stroke="black" stroke-width="2.46032" stroke-miterlimit="10"/>
<path d="M454.899 548.718C458.114 546.182 461.652 553.791 460.606 558.23C457.613 570.912 423.15 579.155 394.025 572.814C382.871 570.373 362.777 564.019 342.029 544.914C342.029 544.914 335.054 534.134 345.199 527.793C345.199 527.793 363.747 552.751 390.303 557.71C416.859 562.669 440.315 560.132 454.899 548.718Z" fill="#F7C326" stroke="black" stroke-width="2.46032" stroke-miterlimit="10"/>
<path d="M404.612 501.096C404.612 501.096 395.735 506.169 389.394 517.583Z" fill="black"/>
<path d="M405.4 502.472C404.683 502.827 403.859 503.322 403.105 503.798C402.35 504.273 401.576 504.812 400.841 505.37C399.351 506.473 397.933 507.667 396.592 508.946C395.244 510.235 393.973 511.603 392.788 513.043C391.582 514.492 390.458 516.008 389.421 517.583C390.234 515.865 391.145 514.195 392.147 512.58C394.166 509.296 396.574 506.269 399.319 503.563C400.004 502.878 400.727 502.219 401.468 501.578C402.23 500.918 403.026 500.297 403.853 499.72L405.165 498.82L406.852 501.768L405.4 502.472Z" fill="black"/>
<path d="M392.566 490.951C392.566 490.951 384.322 495.39 376.713 494.756Z" fill="black"/>
<path d="M393.32 492.346C391.982 492.889 390.612 493.35 389.217 493.728C387.854 494.107 386.472 494.413 385.077 494.648C383.686 494.875 382.281 495.009 380.873 495.047C379.48 495.078 378.088 494.98 376.713 494.755C378.082 494.716 379.445 494.55 380.784 494.261C382.105 493.969 383.404 493.585 384.671 493.113C385.932 492.642 387.168 492.107 388.374 491.509C389.556 490.923 390.703 490.271 391.811 489.556L393.143 488.681L394.791 491.743L393.32 492.346Z" fill="black"/>
<path d="M350.08 492.853C350.08 492.853 355.153 496.024 360.86 496.024Z" fill="black"/>
<path d="M350.917 491.509C351.605 492.071 352.329 492.586 353.086 493.05C353.867 493.534 354.676 493.973 355.508 494.362C356.348 494.762 357.215 495.103 358.102 495.383C359.003 495.667 359.925 495.879 360.86 496.017C359.901 496.139 358.935 496.188 357.969 496.163C356.987 496.132 356.008 496.034 355.039 495.871C354.06 495.715 353.09 495.503 352.135 495.237C351.148 494.96 350.182 494.615 349.243 494.204L347.779 493.57L349.681 490.5L350.917 491.509Z" fill="black"/>
<path d="M232.903 529.7C231.78 532.686 231.111 535.824 230.919 539.009C230.798 540.379 230.919 542.116 232.187 542.611C233.144 542.985 234.254 542.345 234.774 541.457C235.211 540.521 235.428 539.497 235.408 538.464C235.579 535.927 235.839 533.226 237.253 531.089C237.97 529.999 238.953 529.111 239.707 528.052C241.216 525.94 241.28 522.903 238.236 523.22C235.757 523.474 233.721 527.785 232.903 529.7Z" fill="white"/>
<path d="M189.076 276.514C189.076 359.53 245.873 426.796 339.358 426.796C430.726 426.796 489.672 359.499 489.672 276.514C489.672 193.529 429.464 119.732 336.442 122.268C237.249 124.976 189.076 193.497 189.076 276.514Z" fill="#F5816A" stroke="black" stroke-width="2.46032" stroke-miterlimit="10"/>
<path d="M170.249 279.038C170.249 362.054 227.026 429.358 320.531 429.364C411.899 429.364 470.851 362.08 470.858 279.082C470.864 196.084 432.729 124.805 317.627 124.805C218.402 124.805 170.255 196.021 170.249 279.038Z" fill="#FFE7E2" stroke="black" stroke-width="2.46032" stroke-miterlimit="10"/>
<path d="M182.93 278.676C182.93 355.022 235.148 416.91 321.164 416.91C405.195 416.91 459.398 355.028 459.398 278.676C459.398 202.323 424.32 136.852 318.469 136.852C227.215 136.852 182.936 202.33 182.93 278.676Z" stroke="black" stroke-width="2.46032" stroke-miterlimit="10"/>
<path d="M331.353 325.639C331.353 335.726 328.57 344.804 324.136 351.325C319.698 357.853 313.694 361.713 307.219 361.713C300.743 361.713 294.74 357.853 290.301 351.325C285.867 344.804 283.085 335.726 283.085 325.639C283.085 320.527 283.805 317.747 284.847 316.294C285.777 314.998 287.109 314.579 289.182 314.751C290.907 314.895 292.895 315.426 295.222 316.048C295.806 316.204 296.41 316.365 297.037 316.528C300.092 317.32 303.554 318.093 307.219 318.093C310.884 318.093 314.345 317.32 317.4 316.528C318.027 316.365 318.632 316.204 319.215 316.048C321.543 315.426 323.531 314.895 325.255 314.751C327.328 314.579 328.66 314.998 329.59 316.294C330.633 317.747 331.353 320.527 331.353 325.639Z" fill="black" stroke="black" stroke-width="2.46032"/>
<path d="M299.072 359.221C301.464 361 305.114 363.341 312.524 360.835C325.369 355.284 325.64 347.007 325.64 347.007C325.64 347.007 317.771 343.825 311.929 350.022C311.929 350.022 300.828 349.536 299.072 359.221Z" fill="#CC2936"/>
<path d="M92.4304 291.573C86.0135 291.707 79.7909 289.368 75.0497 285.042C71.3655 281.631 67.6815 278.378 64.0037 274.954C60.1547 271.358 55.9125 268.353 52.2537 264.548C48.0855 260.211 43.9174 255.878 39.7492 251.549C36.6738 248.378 33.4081 244.726 33.2812 240.294C33.2268 239.499 33.3304 238.701 33.5862 237.947C33.842 237.193 34.2449 236.497 34.7715 235.899C36.8576 233.775 39.8443 233.769 42.5265 234.549C41.03 232.583 38.9755 231.48 37.7073 229.152C36.7746 227.609 36.1522 225.899 35.8748 224.118C34.8602 214.974 46.8448 217.846 51.7274 219.888C54.9136 221.325 57.9761 223.021 60.8838 224.961C64.0099 226.92 63.4202 222.088 66.5907 220.953C68.493 220.275 70.6047 220.535 72.545 221.093C74.3567 221.614 76.0889 222.38 77.6938 223.369C79.6243 224.636 81.4443 226.064 83.1345 227.637C86.6157 230.693 90.6232 233.452 93.7367 236.844C96.7277 240.257 99.9891 243.423 103.489 246.311C106.26 248.493 109.374 250.522 112.893 250.807C114.672 250.976 116.467 250.76 118.155 250.174C119.844 249.587 121.386 248.644 122.677 247.408C125.106 245.252 127.071 242.602 129.525 240.465C130.847 239.316 132.296 238.322 133.844 237.504C138.917 234.847 147.902 235.798 148.942 242.855C149.76 248.385 143.622 251.967 139.297 255.537C136.695 257.691 134.523 260.316 132.893 263.273C130.622 267.357 130.007 272.037 127.541 276.063C131.891 274.795 133.089 279.532 131.91 282.867C130.432 287.071 126.412 289.792 122.5 291.916C119.35 293.627 116.104 295.155 112.779 296.494C109.881 297.661 106.863 298.694 103.737 298.764C100.997 298.828 97.0467 297.902 95.1126 295.759C94.1108 294.643 92.4114 291.757 95.1126 291.39C94.2229 291.503 93.3273 291.564 92.4304 291.573Z" fill="#FFFEFD" stroke="#050505" stroke-width="2.46032" stroke-miterlimit="10"/>
<path d="M42.597 233.414C44.6458 234.089 46.6248 234.959 48.5068 236.013C50.363 237.027 52.1395 238.18 53.8206 239.463C55.4946 240.73 57.0657 242.127 58.5193 243.642C59.9681 245.145 61.3034 246.754 62.5141 248.454C61.1472 246.896 59.6633 245.444 58.0754 244.111C56.5166 242.781 54.8518 241.581 53.0977 240.522C51.363 239.453 49.5484 238.521 47.6699 237.732C46.7441 237.339 45.7674 236.99 44.8416 236.66C43.9158 236.33 42.8949 236.064 42.0009 235.88L42.597 233.414Z" fill="#050505"/>
<path d="M62.6665 224.359C64.1693 225.703 65.5326 227.073 66.8769 228.506C68.2212 229.939 69.4767 231.423 70.6815 232.944C71.8816 234.479 73.0012 236.075 74.0359 237.726C75.0488 239.38 75.9371 241.107 76.6929 242.893C75.7585 241.214 74.6987 239.607 73.5224 238.087C72.3327 236.584 71.0626 235.147 69.7178 233.781C68.382 232.42 66.9911 231.114 65.5453 229.863C64.1059 228.626 62.5968 227.415 61.1066 226.35L62.6665 224.359Z" fill="#050505"/>
<path d="M59.8438 258.264C59.4511 255.452 59.9853 252.59 61.3656 250.109C62.7089 247.533 64.7109 245.358 67.1677 243.806C68.383 243.044 69.6778 242.417 71.0293 241.936C71.6968 241.707 72.3763 241.514 73.0647 241.359C73.4072 241.289 73.7496 241.2 74.0921 241.143L75.1319 241.01C77.8651 240.647 80.645 240.9 83.2675 241.752V242.005C80.6853 242.056 78.1155 242.379 75.6011 242.969C74.3515 243.272 73.1265 243.669 71.9362 244.155C70.7558 244.654 69.6188 245.25 68.5373 245.937C66.3628 247.311 64.4921 249.115 63.0397 251.238C62.3194 252.299 61.7054 253.429 61.207 254.611C60.6951 255.79 60.3227 257.024 60.0974 258.289L59.8438 258.264Z" fill="#050505"/>
<path d="M87.6368 259.355C89.8456 259.494 92.003 260.081 93.9779 261.079C95.9653 262.04 97.7852 263.314 99.3677 264.852C101.018 266.431 102.315 268.341 103.172 270.458C103.594 271.543 103.854 272.684 103.946 273.844C104.026 274.993 103.864 276.147 103.47 277.23V277.281C103.464 277.295 103.455 277.309 103.444 277.32C103.432 277.331 103.419 277.339 103.404 277.345C103.39 277.351 103.374 277.354 103.358 277.354C103.342 277.354 103.326 277.35 103.312 277.344C103.289 277.338 103.269 277.325 103.255 277.306C103.24 277.288 103.231 277.266 103.229 277.243C103.07 275.199 102.45 273.217 101.416 271.447C100.381 269.681 99.1 268.071 97.6113 266.666C96.1396 265.229 94.5463 263.922 92.8491 262.76C92.0037 262.176 91.137 261.62 90.2493 261.092C89.3679 260.559 88.4674 260.039 87.5543 259.583C87.5395 259.576 87.5261 259.566 87.5152 259.554C87.5042 259.542 87.4959 259.528 87.4905 259.513C87.4852 259.497 87.483 259.481 87.4842 259.465C87.4854 259.448 87.4897 259.433 87.4972 259.418C87.5067 259.396 87.523 259.379 87.5436 259.367C87.5643 259.356 87.5881 259.351 87.6114 259.355H87.6368Z" fill="#050505"/>
<path d="M95.0556 290.305C96.3352 290.193 97.606 289.999 98.8603 289.722C100.147 289.441 101.418 289.088 102.665 288.663C103.918 288.237 105.136 287.718 106.311 287.109C107.5 286.497 108.632 285.777 109.691 284.96C108.758 285.945 107.739 286.844 106.647 287.648C105.544 288.459 104.383 289.186 103.172 289.823C101.955 290.468 100.701 291.041 99.4182 291.542C98.1146 292.054 96.7778 292.478 95.417 292.81C95.2546 292.852 95.0857 292.861 94.9197 292.837C94.7538 292.813 94.5941 292.757 94.4499 292.672C94.3056 292.587 94.1796 292.474 94.0789 292.34C93.9783 292.205 93.9051 292.053 93.8635 291.89C93.8218 291.728 93.8125 291.559 93.8362 291.393C93.8599 291.227 93.916 291.068 94.0014 290.923C94.0868 290.779 94.1998 290.653 94.3339 290.552C94.468 290.452 94.6205 290.379 94.7829 290.337C94.8474 290.321 94.9132 290.31 94.9795 290.305H95.0556Z" fill="#050505"/>
<path d="M115.983 283.571C116.975 283.157 117.934 282.665 118.849 282.1C119.762 281.546 120.645 280.943 121.493 280.293C122.324 279.659 123.142 278.967 123.902 278.232C124.663 277.496 125.393 276.748 126.096 275.974C126.208 275.85 126.344 275.748 126.495 275.675C126.647 275.603 126.811 275.561 126.978 275.552C127.146 275.543 127.313 275.567 127.471 275.622C127.63 275.678 127.776 275.764 127.9 275.876C128.025 275.988 128.127 276.124 128.2 276.275C128.272 276.426 128.314 276.59 128.323 276.758C128.332 276.925 128.308 277.093 128.253 277.251C128.197 277.41 128.111 277.555 127.999 277.68C127.942 277.742 127.881 277.799 127.815 277.851C126.914 278.524 126.008 279.177 125.056 279.754C124.105 280.331 123.154 280.882 122.152 281.383C121.165 281.873 120.151 282.307 119.115 282.683C118.096 283.062 117.049 283.359 115.983 283.571Z" fill="#050505"/>
<path d="M122.081 249.501C119.545 251.477 117.513 254.026 116.153 256.939C114.741 259.94 114.228 263.285 114.675 266.571C113.798 263.252 113.9 259.751 114.967 256.489C116.047 253.141 117.907 250.098 120.395 247.611C120.512 247.492 120.651 247.397 120.805 247.332C120.958 247.267 121.123 247.232 121.29 247.231C121.457 247.23 121.623 247.261 121.777 247.323C121.932 247.386 122.073 247.478 122.192 247.595C122.311 247.712 122.406 247.852 122.471 248.005C122.537 248.159 122.571 248.324 122.573 248.491C122.574 248.658 122.543 248.823 122.48 248.978C122.418 249.133 122.325 249.274 122.208 249.393L122.094 249.495L122.081 249.501Z" fill="#050505"/>
<path d="M258.769 283.33C277.505 283.33 292.693 264.309 292.693 240.845C292.693 217.381 277.505 198.36 258.769 198.36C240.033 198.36 224.844 217.381 224.844 240.845C224.844 264.309 240.033 283.33 258.769 283.33Z" fill="white" stroke="black" stroke-width="2.46032" stroke-miterlimit="10"/>
<path d="M273.245 239.666L285.369 244.105C285.724 257.237 276.162 267.839 265.801 266.799C254.444 265.651 245.136 255.208 245.136 240.909C245.136 226.61 254.387 215.031 265.801 215.031C275.16 215.031 282.827 224.6 285.369 235.284L273.245 239.666Z" fill="black"/>
<path d="M344.372 284.598C363.108 284.598 378.297 265.577 378.297 242.113C378.297 218.65 363.108 199.628 344.372 199.628C325.636 199.628 310.448 218.65 310.448 242.113C310.448 265.577 325.636 284.598 344.372 284.598Z" fill="white" stroke="black" stroke-width="2.46032" stroke-miterlimit="10"/>
<path d="M358.878 241.127L370.892 245.856C370.931 258.993 361.117 269.362 350.783 268.073C339.458 266.653 330.403 255.988 330.746 241.694C331.09 227.399 340.617 216.046 352.028 216.32C361.384 216.545 368.818 226.295 371.104 237.038L358.878 241.127Z" fill="black"/>
<path d="M338.664 183.459C338.664 183.459 339.933 172.679 350.712 172.679C362.126 172.679 363.394 184.093 363.394 184.093" stroke="#050505" stroke-width="2.46032" stroke-miterlimit="10" stroke-linecap="round"/>
<path d="M251.161 183.459C251.161 183.459 252.429 172.679 263.209 172.679C274.623 172.679 275.891 184.093 275.891 184.093" stroke="#050505" stroke-width="2.46032" stroke-miterlimit="10" stroke-linecap="round"/>
<path d="M272.818 281.946C288.461 276.543 304.396 289.118 303.68 305.655C303.574 309.569 302.684 313.423 301.061 316.986C289.577 341.342 242.051 347.537 221.164 325.864C211.151 315.471 209.826 301.337 209.75 294.159C211.122 297.182 213.265 299.79 215.964 301.723C226.662 309.219 241.328 302.503 251.113 296.708C258.088 292.554 263.458 285.966 271.055 282.643C271.594 282.39 272.184 282.155 272.818 281.946Z" fill="#474747" stroke="black" stroke-width="2.46032" stroke-miterlimit="10"/>
<path d="M330.648 281.312C315.005 275.909 299.07 288.483 299.793 305.021C299.897 308.934 300.785 312.788 302.405 316.352C313.895 340.708 361.421 346.903 382.302 325.229C392.321 314.837 393.64 300.702 393.716 293.524C392.346 296.549 390.202 299.158 387.502 301.089C376.805 308.584 362.138 301.869 352.353 296.073C345.378 291.92 340.007 285.332 332.411 282.009C331.847 281.755 331.257 281.521 330.648 281.312Z" fill="#474747" stroke="black" stroke-width="2.46032" stroke-miterlimit="10"/>
<path d="M298.634 180.929C303.795 179.134 309.405 179.098 314.588 180.828C315.126 181.013 315.705 181.047 316.261 180.925C316.818 180.804 317.33 180.532 317.742 180.14C318.154 179.747 318.451 179.249 318.599 178.699C318.747 178.15 318.742 177.57 318.583 177.023L309.617 146.871C309.427 146.23 309.035 145.666 308.499 145.266C307.963 144.865 307.312 144.648 306.643 144.648C305.974 144.648 305.322 144.865 304.786 145.266C304.25 145.666 303.858 146.23 303.669 146.871L294.677 177.112C294.517 177.655 294.509 178.233 294.654 178.781C294.799 179.328 295.091 179.826 295.499 180.22C295.907 180.613 296.414 180.887 296.967 181.012C297.52 181.138 298.097 181.109 298.634 180.929Z" fill="#F5816A" stroke="black" stroke-width="2.46032" stroke-miterlimit="10"/>
<path d="M478.242 284.721C478.242 284.721 511.734 317.067 515.524 347.581L492.969 355.648C492.969 355.648 494.296 333.658 474.008 321.86" fill="#19888F" stroke="black" stroke-width="2.46032" stroke-miterlimit="10" stroke-linecap="round"/>
<path d="M486.605 393.809C484.444 398.133 481.106 401.845 479.435 406.419C477.763 410.993 478.436 417.003 482.682 419.315C484.55 420.328 486.789 420.436 488.907 420.178C493.533 419.531 497.781 417.267 500.897 413.787C504.075 410.323 503.406 404.701 505.949 401.849C510.646 396.575 532.726 407.573 538.578 409.506C545.317 411.73 551.693 414.897 558.189 417.717C566.682 421.401 576.401 425.237 585.852 424.323C589.527 424.047 593.01 422.573 595.766 420.126C596.553 419.414 597.205 418.567 597.693 417.625C598.17 416.612 598.429 415.51 598.452 414.39C598.487 413.656 597.943 411.884 598.306 411.292C598.929 410.254 602.653 409.89 603.918 408.926C604.753 408.296 605.448 407.499 605.957 406.585C606.467 405.672 606.78 404.662 606.877 403.621C607.167 399.447 603.243 397.028 600.056 395.286C599.047 394.714 597.992 394.227 596.903 393.827C596.478 393.674 594.862 392.706 594.571 392.728C596.42 392.629 599.739 391.768 600.725 389.953C601.71 388.138 601.512 387.014 600.793 385.026C599.065 380.214 592.154 379.102 587.747 377.978C577.327 375.313 566.617 373.904 556.182 371.304C551.104 370.044 545.813 368.655 541.085 366.358C536.674 364.223 532.718 361.889 527.822 360.852C528.848 358.816 529.113 356.481 528.57 354.267C526.466 346.697 514.706 347.335 508.872 348.758C501.428 350.579 494.54 354.266 487.939 358.041C485.383 359.501 482.544 361.351 481.247 364.111C479.746 367.299 481.104 370.791 483.889 372.779C485.736 374.032 487.881 374.775 490.108 374.933C487.902 377.792 488.263 382.502 487.878 385.907C487.573 388.238 487.705 391.579 486.605 393.809Z" fill="#FEFDFC" stroke="#050505" stroke-width="2.46032" stroke-miterlimit="10"/>
<path d="M598.14 412.073C595.422 410.653 592.722 409.224 590.001 407.848C587.28 406.472 584.539 405.167 581.718 404.072C578.882 402.982 575.967 402.11 572.999 401.466C570.02 400.815 566.991 400.358 563.951 399.998C567.007 400.147 570.071 400.392 573.112 400.841C576.166 401.287 579.181 401.966 582.131 402.872C585.086 403.792 587.967 404.927 590.802 406.123C593.637 407.319 596.438 408.562 599.237 409.786L598.14 412.073Z" fill="#050505"/>
<path d="M567.19 388.2C569.646 388.146 572.104 388.187 574.566 388.291C577.028 388.396 579.494 388.563 581.953 388.795C584.412 389.027 586.877 389.354 589.324 389.854C591.813 390.317 594.254 391.007 596.617 391.916L595.559 394.219C593.411 393.182 591.174 392.338 588.875 391.699C586.555 391.018 584.172 390.514 581.759 390.049C579.347 389.585 576.937 389.235 574.504 388.925C572.072 388.615 569.636 388.356 567.19 388.2Z" fill="#050505"/>
<path d="M519.411 383.256C521.117 383.131 522.832 383.218 524.517 383.515C526.184 383.804 527.823 384.24 529.413 384.82C531.035 385.388 532.585 386.144 534.031 387.073C534.763 387.542 535.452 388.076 536.088 388.67C536.385 388.998 536.694 389.312 536.973 389.641C537.231 389.999 537.471 390.369 537.691 390.751C536.223 390.01 534.703 389.374 533.144 388.849L528.571 387.196C527.051 386.673 525.524 386.054 523.99 385.423C522.418 384.8 520.889 384.076 519.411 383.256Z" fill="#050505"/>
<path d="M524.36 377.855C525.832 377.525 527.346 377.43 528.848 377.575C530.34 377.691 531.814 377.986 533.236 378.453C534.688 378.915 536.062 379.596 537.308 380.473C538.604 381.338 539.628 382.552 540.262 383.975C539 383.305 537.695 382.72 536.356 382.222C535.048 381.721 533.746 381.308 532.441 380.864C531.137 380.42 529.789 379.992 528.438 379.519C527.048 379.043 525.687 378.487 524.36 377.855Z" fill="#050505"/>
<path d="M527.725 373.156C529.147 372.641 530.655 372.4 532.168 372.447C533.679 372.47 535.179 372.704 536.625 373.141C538.089 373.596 539.466 374.292 540.7 375.2C541.943 376.116 542.933 377.331 543.58 378.732C542.189 378.059 540.98 377.436 539.702 376.926C538.425 376.417 537.171 375.969 535.869 375.563C534.568 375.156 533.269 374.788 531.899 374.412C530.53 374.036 529.173 373.653 527.725 373.156Z" fill="#050505"/>
<path d="M488.83 373.866C489.546 374.023 490.269 374.127 490.996 374.179C491.758 374.24 492.521 374.26 493.283 374.237C494.832 374.205 496.374 374.036 497.894 373.732C499.43 373.428 500.941 373 502.415 372.452C503.166 372.205 503.884 371.85 504.619 371.549C505.353 371.248 506.047 370.833 506.771 370.478C506.106 370.932 505.448 371.419 504.762 371.854C504.076 372.289 503.389 372.723 502.665 373.078C501.231 373.858 499.743 374.52 498.214 375.059C496.668 375.602 495.082 376.011 493.472 376.28C492.658 376.422 491.838 376.519 491.014 376.571C490.155 376.637 489.292 376.634 488.432 376.563L488.83 373.866Z" fill="#050505"/>
<path d="M528.752 361.139C528.663 361.297 528.556 361.443 528.434 361.576C528.347 361.678 528.253 361.787 528.158 361.876C527.968 362.068 527.777 362.229 527.56 362.391C527.176 362.694 526.771 362.971 526.349 363.218C525.566 363.683 524.744 364.082 523.894 364.41C523.062 364.727 522.214 365.001 521.354 365.233L520.074 365.544L518.822 365.814L519.99 365.277L521.141 364.67C521.889 364.256 522.616 363.804 523.317 363.314C523.998 362.842 524.638 362.312 525.228 361.73C525.508 361.456 525.769 361.162 526.009 360.852C526.117 360.706 526.216 360.555 526.306 360.398C526.35 360.33 526.39 360.259 526.424 360.186C526.421 360.142 526.495 360.022 526.454 360.076L528.752 361.139Z" fill="#050505"/>
<path d="M296.098 374.952C301.259 376.747 306.869 376.783 312.052 375.053C312.59 374.868 313.169 374.834 313.725 374.955C314.281 375.077 314.793 375.349 315.206 375.741C315.618 376.134 315.914 376.632 316.063 377.182C316.211 377.731 316.205 378.311 316.047 378.858L307.08 409.009C306.891 409.651 306.499 410.215 305.963 410.615C305.427 411.016 304.776 411.232 304.106 411.232C303.437 411.232 302.786 411.016 302.25 410.615C301.714 410.215 301.322 409.651 301.133 409.009L292.141 378.769C291.981 378.225 291.973 377.648 292.118 377.1C292.262 376.552 292.555 376.055 292.962 375.661C293.37 375.268 293.878 374.994 294.431 374.868C294.984 374.743 295.56 374.772 296.098 374.952Z" fill="#8C7BC7" stroke="black" stroke-width="2.46032" stroke-miterlimit="10"/>
<path d="M302.883 124.804C302.883 124.804 315.666 122.902 323.865 124.804C323.865 124.804 326.49 118.064 323.865 115.654C321.24 113.245 305.831 113.752 302.883 115.654C299.934 117.557 302.883 124.804 302.883 124.804Z" fill="#F7C326" stroke="black" stroke-width="2.46032" stroke-miterlimit="10" stroke-linecap="round"/>
<path d="M313.618 73.3533C303.944 73.3533 296.535 83.0017 296.535 94.3041C296.535 105.606 303.944 115.255 313.618 115.255C323.291 115.255 330.7 105.613 330.7 94.3041C330.7 82.9951 323.291 73.3533 313.618 73.3533ZM313.618 107.462C308.23 107.462 303.434 101.935 303.434 94.4943C303.434 87.0532 308.231 81.5206 313.618 81.5206C319.005 81.5206 323.801 87.0472 323.801 94.4943C323.801 101.941 319.005 107.462 313.618 107.462Z" fill="#F7C326" stroke="black" stroke-width="2.46032" stroke-miterlimit="10" stroke-linecap="round"/>
<path d="M302.939 278.524C302.015 280.643 300.597 282.51 298.805 283.971C297.668 284.845 296.424 285.57 295.102 286.127C293.192 286.884 291.14 287.22 289.088 287.112C287.036 287.004 285.032 286.453 283.212 285.498C281.392 284.544 279.8 283.207 278.545 281.58C277.29 279.953 276.401 278.074 275.939 276.072C275.477 274.069 275.453 271.991 275.869 269.978C276.285 267.966 277.13 266.067 278.348 264.411C279.565 262.756 281.126 261.383 282.923 260.387C284.72 259.39 286.712 258.794 288.761 258.638C290.843 258.439 292.942 258.738 294.886 259.51C296.829 260.281 298.562 261.504 299.94 263.077C301.303 264.49 302.414 266.127 303.225 267.915" fill="#FFDE72"/>
<path d="M302.939 278.524C302.015 280.643 300.597 282.51 298.805 283.971C297.668 284.845 296.424 285.57 295.102 286.127C293.192 286.884 291.14 287.22 289.088 287.112C287.036 287.004 285.032 286.453 283.212 285.498C281.392 284.544 279.8 283.207 278.545 281.58C277.29 279.953 276.401 278.074 275.939 276.072C275.477 274.069 275.453 271.991 275.869 269.978C276.285 267.966 277.13 266.067 278.348 264.411C279.565 262.756 281.126 261.383 282.923 260.387C284.72 259.39 286.712 258.794 288.761 258.638C290.843 258.439 292.942 258.738 294.886 259.51C296.829 260.281 298.562 261.504 299.94 263.077C301.303 264.49 302.414 266.127 303.225 267.915" stroke="#050505" stroke-width="2.46032" stroke-miterlimit="10" stroke-linecap="round"/>
<path d="M122.753 292.208C122.753 292.208 135.435 313.672 172.999 311.339L180.006 337.273C180.006 337.273 131.63 346.741 103.73 298.549L122.753 292.208Z" fill="#19888F" stroke="black" stroke-width="2.46032" stroke-miterlimit="10" stroke-linecap="round"/>
<path d="M271.84 423.162C271.84 423.162 255.987 452.965 283.888 470.72C283.888 470.72 288.326 483.402 276.278 487.841C271.783 489.496 266.722 485.603 262.328 482.61C250.946 474.893 242.037 459.782 242.037 444.722C242.037 431.976 248.378 413.651 248.378 413.651L271.84 423.162Z" fill="#19888F" stroke="black" stroke-width="2.46032" stroke-miterlimit="10"/>
<path d="M384.076 417.456V480.232C384.076 480.232 382.174 487.207 372.028 487.841C361.882 488.475 359.346 482.134 359.346 482.134V426.333C359.346 426.333 373.941 421.404 384.076 417.456Z" fill="#19888F" stroke="black" stroke-width="2.46032" stroke-miterlimit="10"/>
<path d="M289.651 264.237C287.602 264.529 283.153 266.783 281.749 273.456" stroke="white" stroke-width="3.28043" stroke-linecap="round"/>
<path d="M57.2487 112.475L60.4013 106.689L63.5794 112.475L69.3529 115.64L63.5794 118.805L60.4013 124.592L57.2487 118.805L51.4498 115.64L57.2487 112.475Z" fill="#8BDCE2" stroke="#19888F" stroke-width="1.64021" stroke-miterlimit="10"/>
<path d="M171.785 161.65L174.937 155.863L178.115 161.65L183.889 164.815L178.115 167.98L174.937 173.767L171.785 167.98L165.986 164.815L171.785 161.65Z" fill="#B9B1DA" stroke="#5C47B5" stroke-width="1.64021" stroke-miterlimit="10"/>
<rect x="132.42" y="164.491" width="37.5228" height="55.426" rx="5.74074" transform="rotate(17.9805 132.42 164.491)" fill="black" stroke="#050505" stroke-width="1.64021"/>
<path d="M130.041 89.7863L133.194 84.0001L136.372 89.7863L142.145 92.9517L136.372 96.117L133.194 101.903L130.041 96.117L124.242 92.9517L130.041 89.7863Z" fill="#FFDE72" stroke="#F7C326" stroke-width="1.64021" stroke-miterlimit="10"/>
<rect x="130.42" y="162.491" width="37.5228" height="55.426" rx="5.74074" transform="rotate(17.9805 130.42 162.491)" fill="#B9B1DA" stroke="#050505" stroke-width="1.64021"/>
<rect x="84.8843" y="99.3792" width="37.5228" height="54.307" rx="5.74074" fill="black" stroke="black" stroke-width="1.64021"/>
<rect x="82.8843" y="97.3792" width="37.5228" height="54.307" rx="5.74074" fill="#F7C326" stroke="black" stroke-width="1.64021"/>
<rect x="27" y="142.533" width="39.1631" height="55.9472" rx="6.56085" transform="rotate(-15.4079 27 142.533)" fill="black" stroke="black" stroke-width="1.64021"/>
<rect x="25" y="140.533" width="39.1631" height="55.9472" rx="6.56085" transform="rotate(-15.4079 25 140.533)" fill="#8BDCE2" stroke="black" stroke-width="1.64021"/>
</svg>
