<svg width="1440" height="1512" viewBox="0 0 1440 1512" fill="none" xmlns="http://www.w3.org/2000/svg">
<path fill-rule="evenodd" clip-rule="evenodd" d="M0 370.215C139.251 321.06 396.767 255.723 549.634 297.151C657.57 326.402 622.98 362.794 588.342 399.238C561.659 427.312 534.946 455.417 573.338 480.311C661.568 537.522 1305.49 526.781 1441 453.788V822.707V1230.97V1372.29C1302.14 1421.44 1045.33 1486.78 892.891 1445.35C785.255 1416.1 819.749 1379.71 854.291 1343.26C880.901 1315.19 907.539 1287.08 869.253 1262.19C781.268 1204.98 139.137 1215.72 4 1288.71V1212L0 1211.95V370.215Z" fill="#FFDAD3"/>
<path d="M1195.28 1403L1162 1422.71L1170.93 1474.14L1188.78 1460.43L1198.52 1511L1218 1434.71L1198.52 1444.14L1195.28 1403Z" fill="#F7C326" stroke="#F29F19" stroke-width="3"/>
<path d="M1342.3 86.0918L1358.03 61.0001L1371.36 89.3021L1397.17 106.831L1369.99 118.504L1354.14 143.583L1340.93 115.293L1315 97.752L1342.3 86.0918Z" fill="#F7C326" stroke="#F29F19" stroke-width="3.00558" stroke-miterlimit="10"/>
<path d="M71.3037 333.092L87.0305 308L100.361 336.302L126.174 353.831L98.9864 365.504L83.1434 390.583L69.9292 362.293L44 344.752L71.3037 333.092Z" fill="#F7C326" stroke="#F29F19" stroke-width="3.00558" stroke-miterlimit="10"/>
<path d="M1305.19 383.798L1315.09 368L1323.49 385.819L1339.74 396.855L1322.62 404.205L1312.64 419.994L1304.33 402.183L1288 391.139L1305.19 383.798Z" fill="#B9B1DA" stroke="#9882E3" stroke-width="4.78304" stroke-miterlimit="10"/>
<path d="M3.96546 71.5993L5.63551 74.8822L7.4794 71.6937L38.5045 18.0449L28.7704 79.2495L28.1919 82.887L31.5578 81.3913L88.1916 56.2246L44.3414 100.019L41.7353 102.621L45.3375 103.39L105.948 116.318L44.7308 125.974L41.0926 126.547L43.5552 129.286L84.9909 175.371L29.7899 147.2L26.5092 145.526L26.8916 149.189L33.3257 210.828L5.22564 155.591L3.55559 152.308L1.71171 155.497L-29.3134 209.146L-19.5793 147.941L-19.0008 144.304L-22.3667 145.799L-79.0005 170.966L-35.1503 127.172L-32.5442 124.569L-36.1464 123.801L-96.7567 110.873L-35.5397 101.217L-31.9015 100.643L-34.3641 97.9043L-75.7998 51.8192L-20.5988 79.9902L-17.3181 81.6644L-17.7005 78.0011L-24.1346 16.3622L3.96546 71.5993Z" fill="#19888F" stroke="#19888F" stroke-width="4"/>
<path d="M-1.03454 66.5993L0.635512 69.8822L2.4794 66.6937L33.5045 13.0449L23.7704 74.2495L23.1919 77.887L26.5578 76.3913L83.1916 51.2246L39.3414 95.0186L36.7353 97.6214L40.3375 98.3897L100.948 111.318L39.7308 120.974L36.0926 121.547L38.5552 124.286L79.9909 170.371L24.7899 142.2L21.5092 140.526L21.8916 144.189L28.3257 205.828L0.22564 150.591L-1.44441 147.308L-3.28829 150.497L-34.3134 204.146L-24.5793 142.941L-24.0008 139.304L-27.3667 140.799L-84.0005 165.966L-40.1503 122.172L-37.5442 119.569L-41.1464 118.801L-101.757 105.873L-40.5397 96.2171L-36.9015 95.6432L-39.3641 92.9043L-80.7998 46.8192L-25.5988 74.9902L-22.3181 76.6644L-22.7005 73.0011L-29.1346 11.3622L-1.03454 66.5993Z" fill="#8BDCE2" stroke="#19888F" stroke-width="4"/>
</svg>
