<svg width="1440" height="601" viewBox="0 0 1440 601" fill="none" xmlns="http://www.w3.org/2000/svg">
<path fill-rule="evenodd" clip-rule="evenodd" d="M1427.77 519.607C1146.64 584.367 632.453 654.321 345.159 539.573C142.309 458.553 217.548 395.355 292.894 332.067C350.937 283.313 409.043 234.506 340.129 177.458C181.759 46.3548 -1069.82 -76.0904 -1349.03 35.9425L-1175.26 -1478.18L-1175.25 -1478.18L-1134.53 -1833.03C-854.144 -1897.88 -341.348 -1967.99 -54.8782 -1853.34C147.391 -1772.39 72.3379 -1709.17 -2.82161 -1645.86C-60.7208 -1597.09 -118.683 -1548.26 -49.9761 -1491.24C107.92 -1360.19 1456.12 -1243 1647.24 -1349.8L1602.26 -1000.76L1427.77 519.607Z" fill="#FFDAD3"/>
<path d="M216.556 147.972L227.821 130L237.368 150.271L255.857 162.826L236.384 171.187L225.036 189.15L215.572 168.888L197 156.323L216.556 147.972Z" fill="#F7C326" stroke="#F29F19" stroke-width="2.15275" stroke-miterlimit="10"/>
<path d="M180.564 234.627L187.224 224L192.87 235.986L203.803 243.41L192.288 248.354L185.578 258.976L179.982 246.994L169 239.565L180.564 234.627Z" fill="#F7C326" stroke="#F29F19" stroke-width="1.27294" stroke-miterlimit="10"/>
<path d="M261.313 198.315L268.405 187L274.416 199.763L286.057 207.668L273.796 212.932L266.652 224.241L260.693 211.484L249 203.573L261.313 198.315Z" fill="#B9B1DA" stroke="#9882E3" stroke-width="3.42585" stroke-miterlimit="10"/>
</svg>
