<svg width="1440" height="1221" viewBox="0 0 1440 1221" fill="none" xmlns="http://www.w3.org/2000/svg">
<path fill-rule="evenodd" clip-rule="evenodd" d="M1440 86.5819C1300.75 37.2179 1043.23 -28.3976 890.366 13.2069C782.43 42.5827 817.02 79.1297 851.658 115.728C878.341 143.922 905.054 172.147 866.662 197.147C778.432 254.601 134.514 243.814 -1 170.511V582V951V1133.92C137.864 1183.28 394.666 1248.9 547.109 1207.29C654.745 1177.92 620.251 1141.37 585.709 1104.77C559.099 1076.58 532.461 1048.35 570.747 1023.35C658.732 965.899 1351.5 985 1442.5 1050.5L1440 870.308V86.5819Z" fill="#FFDAD3"/>
<path d="M1258.69 344.85L1271.76 324L1282.83 347.518L1304.28 362.083L1281.69 371.783L1268.53 392.622L1257.55 369.115L1236 354.539L1258.69 344.85Z" fill="#B9B1DA" stroke="#9882E3" stroke-width="4.78304" stroke-miterlimit="10"/>
<path d="M501.931 265.074L515.14 244L526.336 267.77L548.015 282.492L525.181 292.295L511.875 313.358L500.777 289.599L479 274.867L501.931 265.074Z" fill="#F7C326" stroke="#F29F19" stroke-width="3.00558" stroke-miterlimit="10"/>
<path d="M1470.99 720.333L1408.36 704.303L1358.12 775.646L1395.44 780.54L1347.17 851.829L1460.37 784.681L1426.2 772.802L1470.99 720.333Z" fill="#F7C326" stroke="#F29F19" stroke-width="4"/>
<path d="M91.0024 406.701L97.6032 393L105.595 405.972L119.268 412.603L106.324 420.564L99.665 434.268L91.7314 421.294L78 414.665L91.0024 406.701Z" fill="#FFA490" stroke="#F46142" stroke-width="4.03542" stroke-miterlimit="10"/>
<path d="M25.5825 901.286L61.8348 838.599L50.4607 910.115L49.8822 913.753L53.248 912.257L119.424 882.85L68.1855 934.023L65.5794 936.625L69.1816 937.394L140.004 952.5L68.4727 963.783L64.8344 964.356L67.297 967.095L115.714 1020.94L51.2126 988.028L47.9319 986.353L48.3143 990.017L55.8324 1062.04L22.9979 997.497L21.3279 994.214L19.484 997.403L-16.7684 1060.09L-5.39421 988.574L-4.81569 984.936L-8.18156 986.432L-74.3573 1015.84L-23.119 964.666L-20.5129 962.064L-24.1151 961.295L-94.9373 946.189L-23.4062 934.906L-19.768 934.333L-22.2306 931.594L-70.6476 877.744L-6.1461 910.661L-2.86539 912.336L-3.24779 908.672L-10.766 836.648L22.0685 901.192L23.7386 904.475L25.5825 901.286Z" fill="#9882E3" stroke="#9882E3" stroke-width="4"/>
<path d="M22.4885 897.161L58.7409 834.473L47.3667 905.99L46.7882 909.627L50.1541 908.132L116.33 878.725L65.0916 929.897L62.4855 932.5L66.0877 933.268L136.91 948.375L65.3788 959.657L61.7405 960.231L64.2031 962.97L112.62 1016.82L48.1187 983.902L44.8379 982.228L45.2203 985.891L52.7385 1057.92L19.904 993.372L18.234 990.089L16.3901 993.277L-19.8623 1055.97L-8.48814 984.449L-7.90962 980.811L-11.2755 982.307L-77.4512 1011.71L-26.213 960.541L-23.6068 957.938L-27.209 957.17L-98.0312 942.064L-26.5002 930.781L-22.8619 930.207L-25.3245 927.468L-73.7415 873.619L-9.24004 906.536L-5.95933 908.21L-6.34172 904.547L-13.8599 832.523L18.9746 897.067L20.6447 900.349L22.4885 897.161Z" fill="#DCD6F0" stroke="#B9B1DA" stroke-width="4"/>
</svg>
