<svg width="88" height="76" viewBox="0 0 88 76" fill="none" xmlns="http://www.w3.org/2000/svg">
<path d="M81.8919 30.6819L43.9961 67.6282L6.10037 30.6819C5.4233 30.0205 4.51438 29.6502 3.56792 29.6502C2.62146 29.6502 1.71254 30.0205 1.03547 30.6819C0.707635 31.0032 0.447187 31.3866 0.269385 31.8098C0.0915826 32.233 0 32.6875 0 33.1465C0 33.6055 0.0915826 34.06 0.269385 34.4832C0.447187 34.9064 0.707635 35.2898 1.03547 35.6111L41.3499 74.9234C42.0579 75.6136 43.0075 75.9998 43.9961 75.9998C44.9848 75.9998 45.9343 75.6136 46.6423 74.9234L86.9568 35.6187C87.2869 35.2972 87.5493 34.9128 87.7285 34.4882C87.9077 34.0636 88 33.6074 88 33.1465C88 32.6856 87.9077 32.2294 87.7285 31.8048C87.5493 31.3802 87.2869 30.9958 86.9568 30.6743C86.2797 30.0129 85.3708 29.6426 84.4243 29.6426C83.4779 29.6426 82.5689 30.0129 81.8919 30.6743V30.6819Z" fill="#C2D1D9"/>
<path d="M81.8919 1.03933L43.9961 37.9856L6.10037 1.03933C5.4233 0.377885 4.51438 0.00758284 3.56792 0.00758284C2.62146 0.00758284 1.71254 0.377885 1.03547 1.03933C0.707635 1.36059 0.447187 1.74405 0.269385 2.16725C0.0915826 2.59045 0 3.04488 0 3.50392C0 3.96297 0.0915826 4.4174 0.269385 4.8406C0.447187 5.2638 0.707635 5.64726 1.03547 5.96852L41.3499 45.2808C42.0579 45.971 43.0075 46.3573 43.9961 46.3573C44.9848 46.3573 45.9343 45.971 46.6423 45.2808L86.9568 5.97611C87.2869 5.6546 87.5493 5.2702 87.7285 4.8456C87.9077 4.421 88 3.9648 88 3.50392C88 3.04305 87.9077 2.58685 87.7285 2.16225C87.5493 1.73764 87.2869 1.35325 86.9568 1.03174C86.2797 0.370298 85.3708 0 84.4243 0C83.4779 0 82.5689 0.370298 81.8919 1.03174V1.03933Z" fill="#AAB2B7"/>
</svg>
