<svg width="160" height="142" viewBox="0 0 160 142" fill="none" xmlns="http://www.w3.org/2000/svg">
<path d="M43.5919 66.9788C48.3568 87.7246 66.6091 101.237 90.3038 95.7979C113.453 90.4816 124.528 70.2326 119.76 49.4855C114.992 28.7384 101.238 13.1593 72.0778 19.8569C46.9429 25.6317 38.8303 46.2345 43.5919 66.9788Z" fill="#F5816A" stroke="#272727" stroke-width="0.677041" stroke-miterlimit="10"/>
<path d="M51.3715 65.7474C56.2012 86.7797 74.5077 100.527 98.2022 95.0848C121.353 89.7683 132.371 69.2879 127.541 48.2539C122.711 27.22 108.896 11.395 79.7342 18.0927C54.5923 23.8615 46.54 44.7135 51.3715 65.7474Z" fill="#FFE7E2" stroke="#272727" stroke-width="0.677041" stroke-miterlimit="10"/>
<path d="M56.1028 64.8226C60.5168 84.0409 77.2394 96.6051 98.8927 91.629C120.046 86.7703 130.113 68.0574 125.699 48.8391C121.285 29.6209 108.664 15.1599 82.0187 21.2793C59.0468 26.5541 51.6904 45.6042 56.1028 64.8226Z" stroke="#272727" stroke-width="0.677041" stroke-miterlimit="10"/>
<path d="M99.0641 57.9768C103.147 56.2027 107.681 59.2443 107.83 63.687C107.884 64.7389 107.725 65.7909 107.363 66.78C104.79 73.5501 92.1744 76.1979 86.1241 70.8197C83.2231 68.2414 82.5763 64.4794 82.4059 62.5546C82.836 63.3372 83.4648 63.9926 84.2289 64.4546C87.2522 66.2421 91.0519 64.136 93.5501 62.3797C95.3383 61.1223 96.6377 59.2426 98.6059 58.1941C98.7525 58.1205 98.9056 58.0448 99.0641 57.9768Z" fill="#474747" stroke="#272727" stroke-width="0.677041" stroke-miterlimit="10"/>
<path d="M111.608 57.5558C109.387 56.8399 107.354 59.0631 107.662 61.7553C107.723 62.3878 107.893 63.0048 108.166 63.579C110.053 67.4349 116.671 67.9414 119.271 64.1786C120.518 62.3735 120.521 60.0519 120.442 58.8785C120.301 59.3683 120.04 59.8153 119.683 60.1791C118.312 61.5171 116.198 60.5783 114.781 59.7395C113.767 59.1366 112.947 58.1172 111.86 57.6543C111.778 57.6147 111.695 57.5834 111.608 57.5558Z" fill="#474747" stroke="#272727" stroke-width="0.677041" stroke-miterlimit="10"/>
<path d="M114.556 38.5031C116.469 43.5431 115.38 49.0188 111.291 50.5705C107.203 52.1223 103.523 48.6509 101.61 43.6109C99.6958 38.5709 100.276 33.8736 104.364 32.3218C108.452 30.77 112.643 33.4646 114.556 38.5031Z" fill="white" stroke="#272727" stroke-width="0.677041" stroke-miterlimit="10"/>
<path d="M96.7712 45.7776C98.0313 49.1661 99.4296 52.9224 97.4271 55.6019C96.063 57.4276 93.8374 57.7965 93.5054 57.8452C89.3648 58.4689 85.378 54.5838 83.8237 50.8856C82.1608 46.9287 82.656 41.6874 84.8033 40.6889C85.8249 40.215 86.3365 41.1092 89.9397 41.4379C92.4541 41.6675 93.1265 41.3173 94.2367 41.9243C94.6711 42.1609 95.6705 42.8174 96.7712 45.7776Z" fill="white" stroke="#272727" stroke-width="0.677041" stroke-miterlimit="10"/>
<path d="M110.37 40.2745L109.65 40.8886L110.596 40.8705L113.365 40.8176C114.314 43.4163 113.12 46.0925 111.088 46.642C108.71 47.2814 105.984 45.9295 104.873 43.0006C103.75 40.0403 104.819 37.024 107.076 36.1678L107.076 36.1678C107.984 35.8226 109.008 35.9568 109.996 36.4467C110.902 36.8958 111.757 37.6344 112.42 38.5248L110.37 40.2745Z" fill="#272727" stroke="#272727" stroke-width="0.677041"/>
<path d="M93.6075 47.5566L92.8439 48.1149L93.7883 48.1678L96.5531 48.3229C97.3049 50.9854 95.9138 53.5645 93.8464 53.96C91.4267 54.4192 88.8103 52.8665 87.9217 49.8624C87.0237 46.8262 88.3159 43.8987 90.6308 43.2143L90.631 43.2142C91.5629 42.9382 92.5733 43.1488 93.5223 43.7115C94.3921 44.2273 95.1888 45.028 95.7834 45.9656L93.6075 47.5566Z" fill="#272727" stroke="#272727" stroke-width="0.677041"/>
<path d="M99.9644 31.2523C99.9644 31.2523 100.798 26.5697 105.574 28.5949" stroke="#272727" stroke-width="0.677041" stroke-miterlimit="10" stroke-linecap="round"/>
<path d="M81.6776 39.0179C81.8526 38.3376 83.9194 35.4516 86.8053 37.3479C89.6912 39.2443 90.8858 39.0797 93.2813 37.9014" stroke="#272727" stroke-width="0.677041" stroke-miterlimit="10" stroke-linecap="round"/>
<mask id="path-12-inside-1_1_3115" fill="white">
<path d="M47.0401 19.22C47.105 19.215 47.1653 19.1843 47.2076 19.1349C47.25 19.0854 47.271 19.0211 47.266 18.9562C47.2609 18.8913 47.2303 18.831 47.1808 18.7886C47.1314 18.7463 47.0671 18.7253 47.0022 18.7303C46.9372 18.7353 46.8769 18.766 46.8346 18.8154C46.7922 18.8649 46.7713 18.9292 46.7763 18.9941C46.7813 19.059 46.8119 19.1193 46.8614 19.1617C46.9109 19.204 46.9751 19.225 47.0401 19.22Z"/>
</mask>
<path d="M47.0401 19.22C47.105 19.215 47.1653 19.1843 47.2076 19.1349C47.25 19.0854 47.271 19.0211 47.266 18.9562C47.2609 18.8913 47.2303 18.831 47.1808 18.7886C47.1314 18.7463 47.0671 18.7253 47.0022 18.7303C46.9372 18.7353 46.8769 18.766 46.8346 18.8154C46.7922 18.8649 46.7713 18.9292 46.7763 18.9941C46.7813 19.059 46.8119 19.1193 46.8614 19.1617C46.9109 19.204 46.9751 19.225 47.0401 19.22Z" fill="black"/>
<path d="M47.0401 19.22L47.0924 19.895L47.0401 19.22ZM47.0924 19.895C47.3364 19.8761 47.5628 19.7611 47.7219 19.5752L46.6934 18.6945C46.7678 18.6076 46.8737 18.5538 46.9878 18.545L47.0924 19.895ZM47.7219 19.5752C47.881 19.3895 47.9599 19.148 47.941 18.9039L46.5909 19.0085C46.5821 18.8942 46.619 18.7813 46.6934 18.6945L47.7219 19.5752ZM47.941 18.9039C47.9221 18.6598 47.8069 18.4334 47.6212 18.2743L46.7405 19.3029C46.6537 19.2285 46.5998 19.1227 46.5909 19.0085L47.941 18.9039ZM47.6212 18.2743C47.4353 18.1152 47.1939 18.0364 46.9499 18.0553L47.0544 19.4053C46.9403 19.4142 46.8274 19.3773 46.7405 19.3029L47.6212 18.2743ZM46.9499 18.0553C46.706 18.0742 46.4795 18.1892 46.3203 18.3751L47.3488 19.2558C47.2744 19.3428 47.1685 19.3965 47.0544 19.4053L46.9499 18.0553ZM46.3203 18.3751C46.161 18.5611 46.0824 18.8026 46.1013 19.0464L47.4513 18.9418C47.4601 19.0558 47.4234 19.1687 47.3488 19.2558L46.3203 18.3751ZM46.1013 19.0464C46.1201 19.2902 46.235 19.5167 46.421 19.676L47.3017 18.6474C47.3888 18.7219 47.4425 18.8279 47.4513 18.9418L46.1013 19.0464ZM46.421 19.676C46.607 19.8352 46.8485 19.9139 47.0924 19.895L46.9878 18.545C47.1018 18.5361 47.2148 18.5729 47.3017 18.6474L46.421 19.676Z" fill="#272727" mask="url(#path-12-inside-1_1_3115)"/>
<path d="M103.878 55.8332C104.418 56.1409 105.024 56.3147 105.645 56.3401C106.032 56.3456 106.417 56.3014 106.792 56.2088C107.759 55.9293 108.578 55.2808 109.072 54.4031C109.566 53.5254 109.695 52.4887 109.431 51.5167C109.168 50.5448 108.533 49.7153 107.663 49.2072C106.794 48.6992 105.759 48.5532 104.783 48.8008C104.41 48.9025 104.055 49.0593 103.728 49.2658C103.248 49.5578 102.844 49.9595 102.55 50.438C102.255 50.9165 102.079 51.458 102.034 52.0181C101.968 52.5418 101.993 53.073 102.107 53.5884" fill="#FFDE72"/>
<path d="M103.878 55.8332C104.418 56.1409 105.024 56.3147 105.645 56.3401C106.032 56.3456 106.417 56.3014 106.792 56.2088C107.759 55.9293 108.578 55.2808 109.072 54.4031C109.566 53.5254 109.695 52.4887 109.431 51.5167C109.168 50.5448 108.533 49.7153 107.663 49.2072C106.794 48.6992 105.759 48.5532 104.783 48.8008C104.41 48.9025 104.055 49.0593 103.728 49.2658C103.248 49.5578 102.844 49.9595 102.55 50.438C102.255 50.9165 102.079 51.458 102.034 52.0181C101.968 52.5418 101.993 53.073 102.107 53.5884" stroke="#272727" stroke-width="0.677041" stroke-miterlimit="10" stroke-linecap="round"/>
<path d="M112.464 74.1992C111.079 74.8151 109.529 74.9547 108.055 74.5963C107.902 74.5566 107.741 74.5601 107.589 74.6064C107.437 74.6527 107.301 74.7399 107.196 74.8586C107.091 74.9772 107.021 75.1226 106.993 75.2786C106.965 75.4347 106.981 75.5955 107.038 75.7431L110.214 83.875C110.281 84.0482 110.403 84.1951 110.56 84.2937C110.718 84.3922 110.903 84.4371 111.088 84.4217C111.273 84.4062 111.448 84.3312 111.588 84.208C111.727 84.0847 111.822 83.9197 111.86 83.7377L113.653 75.167C113.686 75.0121 113.675 74.8511 113.622 74.7018C113.569 74.5526 113.476 74.4207 113.354 74.3207C113.231 74.2208 113.083 74.1565 112.926 74.1351C112.769 74.1137 112.609 74.1358 112.464 74.1992Z" fill="#8C7BC7" stroke="#272727" stroke-width="0.677041" stroke-miterlimit="10"/>
<path d="M97.6053 29.4786C96.1393 29.5802 94.7483 30.1649 93.65 31.1413C93.5367 31.2448 93.397 31.315 93.2464 31.3443C93.0957 31.3736 92.9399 31.3607 92.7961 31.3072C92.6522 31.2536 92.5259 31.1615 92.4311 31.0408C92.3362 30.9202 92.2765 30.7757 92.2584 30.6233L91.28 22.2197C91.259 22.0409 91.2964 21.8601 91.3866 21.7043C91.4768 21.5485 91.615 21.426 91.7805 21.3552C91.946 21.2843 92.1299 21.2689 92.3049 21.3111C92.4799 21.3534 92.6366 21.4512 92.7515 21.5898L98.1712 28.1128C98.2688 28.2297 98.3324 28.3711 98.3554 28.5216C98.3783 28.6722 98.3596 28.8261 98.3013 28.9668C98.2431 29.1075 98.1474 29.2296 98.0247 29.3198C97.902 29.41 97.757 29.4649 97.6053 29.4786Z" fill="#B9432C" stroke="#272727" stroke-width="0.677041" stroke-miterlimit="10"/>
<path d="M79.6069 17.9931C79.6069 17.9931 82.9887 17.2398 85.4314 17.0507C85.4314 17.0507 85.5466 15.8098 84.7257 15.3213C83.9049 14.8328 80.06 15.6367 79.446 16.2544C78.832 16.872 79.6069 17.9931 79.6069 17.9931Z" fill="#F7C326" stroke="#272727" stroke-width="0.677041" stroke-miterlimit="10" stroke-linecap="round"/>
<path d="M79.3962 5.43131C77.1934 5.81976 75.9993 8.36132 76.7228 11.1033C77.4462 13.8454 79.8287 15.7561 82.0314 15.366C84.234 14.976 85.4283 12.4377 84.7047 9.69401C83.9812 6.95036 81.5988 5.04123 79.3962 5.43131ZM81.6816 14.022C80.0967 14.3085 78.3843 12.9274 77.8579 10.9532C77.3315 8.97897 78.1925 7.1496 79.7781 6.87283C81.3637 6.59605 83.0753 7.96739 83.6019 9.94323C84.1284 11.9191 83.267 13.7419 81.6816 14.022Z" fill="#F7C326" stroke="#272727" stroke-width="0.677041" stroke-miterlimit="10" stroke-linecap="round"/>
<path d="M107.809 70.1477C107.809 70.1477 109.573 67.0984 112.38 69.1385" stroke="#272727" stroke-width="0.677041" stroke-miterlimit="10" stroke-linecap="round"/>
<path d="M48.384 63.176L31.6723 73.9585L34.536 78.5727L50.4551 71.431" fill="#19888F"/>
<path d="M48.384 63.176L31.6723 73.9585L34.536 78.5727L50.4551 71.431" stroke="#272727" stroke-width="0.677041" stroke-miterlimit="10" stroke-linecap="round"/>
<path d="M31.5041 87.4835C29.8385 88.7592 27.4743 89.686 27.1461 91.7526C27.0534 92.3332 27.1492 92.9352 27.0234 93.5101C26.6513 95.2 24.3509 95.9139 22.8334 95.0828C21.316 94.2518 20.6099 92.3898 20.6484 90.6651C20.6868 88.9404 21.3336 87.2865 21.9287 85.6628C22.0369 85.3678 22.1451 85.0514 22.0772 84.7454C22.0058 84.5107 21.8803 84.2959 21.7108 84.1185C18.4591 80.206 13.1778 78.813 8.518 76.7722C7.409 76.2863 6.28604 75.7262 5.52054 74.7895C4.75505 73.8527 4.44441 72.4434 5.09592 71.4215C5.79386 70.3222 7.26578 70.0576 8.56742 70.0059C9.46453 67.6708 12.3403 67.0451 14.9696 68.6321C15.4433 67.3029 16.9958 67.6561 18.2061 67.9899C20.2991 68.5536 22.1457 69.7211 24.0277 70.7549C24.8522 71.2054 25.7009 71.6082 26.5437 72.0197C27.0546 72.2717 27.5256 72.5989 28.0464 72.8306C28.3393 72.9782 28.6539 73.0778 28.9784 73.1253C29.4834 73.1731 29.4586 72.831 29.4923 72.3991C29.5637 71.5434 30.3442 70.8768 31.1808 70.6793C31.4702 70.6031 31.7735 70.597 32.0657 70.6616C32.5668 70.7866 32.9539 71.194 33.3065 71.5796C34.3426 72.7116 35.3856 73.9103 36.1327 75.2645C36.8637 76.6035 37.2887 78.088 37.3768 79.611C37.3923 79.9847 37.3448 80.3583 37.2363 80.7162C37.1808 80.8949 37.084 81.058 36.9539 81.1924C36.8237 81.3269 36.6638 81.4288 36.487 81.4901C36.1309 81.5881 35.7456 81.4574 35.3801 81.5185C34.319 81.694 34.2655 83.7115 33.878 84.5246C33.3312 85.6843 32.5177 86.6983 31.5041 87.4835Z" fill="white" stroke="#272727" stroke-width="0.677041" stroke-miterlimit="10"/>
<mask id="path-24-inside-2_1_3115" fill="white">
<path d="M7.91553 70.0696C9.35591 70.6461 10.8216 71.7399 12.2162 72.4232C13.9577 73.2713 15.3258 74.0778 17.0836 74.882"/>
</mask>
<path d="M7.91553 70.0696C9.35591 70.6461 10.8216 71.7399 12.2162 72.4232C13.9577 73.2713 15.3258 74.0778 17.0836 74.882" fill="white"/>
<path d="M12.2162 72.4232L11.9183 73.0312L11.9198 73.0319L12.2162 72.4232ZM7.66395 70.6981C8.32898 70.9643 9.01437 71.3563 9.73561 71.7875C10.4399 72.2085 11.1884 72.6736 11.9183 73.0312L12.5141 71.8152C11.8494 71.4896 11.1678 71.0661 10.4305 70.6253C9.71011 70.1946 8.94246 69.7513 8.16711 69.441L7.66395 70.6981ZM11.9198 73.0319C12.7793 73.4504 13.5454 73.8581 14.3297 74.2688C15.1113 74.6781 15.9059 75.0877 16.802 75.4977L17.3653 74.2663C16.5036 73.8721 15.7353 73.4763 14.9579 73.0693C14.1833 72.6636 13.3946 72.244 12.5126 71.8145L11.9198 73.0319Z" fill="#272727" mask="url(#path-24-inside-2_1_3115)"/>
<mask id="path-26-inside-3_1_3115" fill="white">
<path d="M8.03624 69.7667C8.83265 70.1393 9.59907 70.5729 10.3286 71.0636C11.0579 71.533 11.7691 72.0005 12.5334 72.3935C14.0613 73.2122 15.5332 74.1106 17.0833 74.8769C15.4885 74.2108 13.9547 73.4007 12.3889 72.6848C11.5983 72.3231 10.8264 71.922 10.076 71.4829C9.34468 71.0535 8.58141 70.6811 7.79294 70.3688L8.03624 69.7667Z"/>
</mask>
<path d="M8.03624 69.7667C8.83265 70.1393 9.59907 70.5729 10.3286 71.0636C11.0579 71.533 11.7691 72.0005 12.5334 72.3935C14.0613 73.2122 15.5332 74.1106 17.0833 74.8769C15.4885 74.2108 13.9547 73.4007 12.3889 72.6848C11.5983 72.3231 10.8264 71.922 10.076 71.4829C9.34468 71.0535 8.58141 70.6811 7.79294 70.3688L8.03624 69.7667Z" fill="black"/>
<path d="M8.03624 69.7667L8.32311 69.1535L7.67614 68.8508L7.40852 69.5131L8.03624 69.7667ZM10.3286 71.0636L9.95062 71.6255L9.96218 71.6329L10.3286 71.0636ZM12.5334 72.3935L12.8532 71.7966L12.843 71.7913L12.5334 72.3935ZM17.0833 74.8769L16.8223 75.5016L17.3833 74.2699L17.0833 74.8769ZM12.3889 72.6848L12.1072 73.3005L12.1073 73.3005L12.3889 72.6848ZM10.076 71.4829L9.73324 72.0668L9.73406 72.0672L10.076 71.4829ZM7.79294 70.3688L7.16522 70.1151L6.90977 70.7472L7.54364 70.9983L7.79294 70.3688ZM7.74937 70.38C8.51416 70.7378 9.25014 71.1541 9.9507 71.6254L10.7065 70.5018C9.94799 69.9916 9.15114 69.5408 8.32311 69.1535L7.74937 70.38ZM9.96218 71.6329C10.6812 72.0957 11.4237 72.5842 12.2238 72.9956L12.843 71.7913C12.1144 71.4168 11.4345 70.9703 10.695 70.4943L9.96218 71.6329ZM12.2136 72.9902C13.6875 73.78 15.2296 74.7158 16.7833 75.4838L17.3833 74.2699C15.8368 73.5055 14.4352 72.6444 12.8532 71.7967L12.2136 72.9902ZM17.3442 74.2521C15.7528 73.5874 14.2935 72.8111 12.6704 72.069L12.1073 73.3005C13.6159 73.9902 15.2242 74.8341 16.8223 75.5016L17.3442 74.2521ZM12.6705 72.0691C11.9005 71.7169 11.1487 71.3262 10.418 70.8986L9.73406 72.0672C10.504 72.5178 11.296 72.9294 12.1072 73.3005L12.6705 72.0691ZM10.4188 70.899C9.65752 70.4521 8.863 70.0644 8.04224 69.7393L7.54364 70.9983C8.29983 71.2978 9.03184 71.655 9.73324 72.0668L10.4188 70.899ZM8.42066 70.6225L8.66396 70.0204L7.40852 69.5131L7.16522 70.1151L8.42066 70.6225Z" fill="#272727" mask="url(#path-26-inside-3_1_3115)"/>
<mask id="path-28-inside-4_1_3115" fill="white">
<path d="M14.9658 68.6289C17.9278 70.1753 20.5458 72.2497 23.8141 73.0549L14.9658 68.6289Z"/>
</mask>
<path d="M14.9658 68.6289C17.9278 70.1753 20.5458 72.2497 23.8141 73.0549L14.9658 68.6289Z" fill="white"/>
<path d="M14.6525 69.2291C16.1301 70.0005 17.4507 70.8638 18.9412 71.7088C20.3948 72.5329 21.9292 73.2878 23.6521 73.7123L23.976 72.3975C22.4306 72.0168 21.0219 71.3319 19.609 70.5309C18.233 69.7508 16.7635 68.8037 15.2792 68.0287L14.6525 69.2291Z" fill="#272727" mask="url(#path-28-inside-4_1_3115)"/>
<mask id="path-30-inside-5_1_3115" fill="white">
<path d="M15.1176 68.3389C16.5771 69.1629 17.938 70.1092 19.3431 70.9702C20.7482 71.8312 22.2154 72.6072 23.8146 73.0551C23.0027 72.8792 22.2079 72.6321 21.4394 72.3167C20.6692 72.0013 19.9157 71.6469 19.1816 71.2547C17.7113 70.4823 16.2902 69.6258 14.8151 68.9176C14.7746 68.9003 14.738 68.8749 14.7076 68.8431C14.6771 68.8112 14.6534 68.7735 14.6379 68.7323C14.6224 68.6911 14.6154 68.6471 14.6173 68.6031C14.6192 68.5591 14.6301 68.5159 14.6491 68.4762C14.6681 68.4365 14.695 68.401 14.7281 68.3719C14.7612 68.3429 14.7999 68.3208 14.8417 68.307C14.8836 68.2933 14.9278 68.2881 14.9717 68.2919C15.0156 68.2957 15.0582 68.3083 15.0971 68.329L15.1176 68.3389Z"/>
</mask>
<path d="M15.1176 68.3389C16.5771 69.1629 17.938 70.1092 19.3431 70.9702C20.7482 71.8312 22.2154 72.6072 23.8146 73.0551C23.0027 72.8792 22.2079 72.6321 21.4394 72.3167C20.6692 72.0013 19.9157 71.6469 19.1816 71.2547C17.7113 70.4823 16.2902 69.6258 14.8151 68.9176C14.7746 68.9003 14.738 68.8749 14.7076 68.8431C14.6771 68.8112 14.6534 68.7735 14.6379 68.7323C14.6224 68.6911 14.6154 68.6471 14.6173 68.6031C14.6192 68.5591 14.6301 68.5159 14.6491 68.4762C14.6681 68.4365 14.695 68.401 14.7281 68.3719C14.7612 68.3429 14.7999 68.3208 14.8417 68.307C14.8836 68.2933 14.9278 68.2881 14.9717 68.2919C15.0156 68.2957 15.0582 68.3083 15.0971 68.329L15.1176 68.3389Z" fill="black"/>
<path d="M15.1176 68.3389L15.4504 67.7493L15.4316 67.7386L15.4121 67.7292L15.1176 68.3389ZM23.8146 73.0551L23.6713 73.7168L23.9972 72.4031L23.8146 73.0551ZM21.4394 72.3167L21.6965 71.6904L21.696 71.6901L21.4394 72.3167ZM19.1816 71.2547L19.5007 70.6575L19.4965 70.6553L19.1816 71.2547ZM14.8151 68.9176L15.1081 68.3073L15.095 68.301L15.0816 68.2953L14.8151 68.9176ZM15.0971 68.329L14.7791 68.9267L14.7907 68.9329L14.8026 68.9386L15.0971 68.329ZM14.7847 68.9284C16.2388 69.7494 17.5315 70.6541 18.9894 71.5475L19.6968 70.393C18.3446 69.5643 16.9154 68.5764 15.4504 67.7493L14.7847 68.9284ZM18.9894 71.5475C20.4147 72.421 21.9442 73.2343 23.632 73.707L23.9972 72.4031C22.4867 71.98 21.0816 71.2415 19.6968 70.393L18.9894 71.5475ZM23.9579 72.3934C23.1849 72.2259 22.4282 71.9907 21.6965 71.6904L21.1823 72.943C21.9876 73.2736 22.8205 73.5325 23.6713 73.7168L23.9579 72.3934ZM21.696 71.6901C20.9471 71.3835 20.2144 71.0389 19.5007 70.6575L18.8626 71.8518C19.6169 72.2549 20.3914 72.6191 21.1828 72.9432L21.696 71.6901ZM19.4965 70.6553C18.0827 69.9126 16.5885 69.0179 15.1081 68.3073L14.5221 69.528C15.992 70.2336 17.34 71.052 18.8668 71.8541L19.4965 70.6553ZM15.0816 68.2953C15.1252 68.3139 15.1644 68.3412 15.197 68.3752L14.2182 69.3109C14.3116 69.4087 14.4239 69.4866 14.5485 69.54L15.0816 68.2953ZM15.197 68.3752C15.2296 68.4094 15.255 68.4497 15.2717 68.494L14.0042 68.9706C14.0519 69.0974 14.1247 69.2131 14.2182 69.3109L15.197 68.3752ZM15.2717 68.494C15.2882 68.5381 15.2958 68.5853 15.2937 68.6326L13.9409 68.5736C13.935 68.709 13.9566 68.844 14.0042 68.9706L15.2717 68.494ZM15.2937 68.6326C15.2917 68.6799 15.2801 68.7262 15.2597 68.7688L14.0385 68.1836C13.98 68.3057 13.9468 68.4383 13.9409 68.5736L15.2937 68.6326ZM15.2597 68.7688C15.2392 68.8116 15.2103 68.8496 15.1749 68.8806L14.2813 67.8633C14.1798 67.9524 14.0971 68.0614 14.0385 68.1836L15.2597 68.7688ZM15.1749 68.8806C15.1394 68.9118 15.098 68.9355 15.0531 68.9502L14.6304 67.6638C14.5018 67.7061 14.383 67.7739 14.2813 67.8633L15.1749 68.8806ZM15.0531 68.9502C15.0082 68.965 14.9607 68.9705 14.9137 68.9665L15.0296 67.6173C14.8948 67.6058 14.759 67.6215 14.6304 67.6638L15.0531 68.9502ZM14.9137 68.9665C14.8666 68.9624 14.8208 68.9489 14.7791 68.9267L15.4151 67.7313C15.2957 67.6677 15.1645 67.6289 15.0296 67.6173L14.9137 68.9665ZM14.8026 68.9386L14.823 68.9485L15.4121 67.7292L15.3916 67.7194L14.8026 68.9386Z" fill="#272727" mask="url(#path-30-inside-5_1_3115)"/>
<mask id="path-32-inside-6_1_3115" fill="white">
<path d="M24.4507 73.656C25.7125 73.8808 26.8554 74.5413 27.68 75.5225L24.4507 73.656Z"/>
</mask>
<path d="M24.4507 73.656C25.7125 73.8808 26.8554 74.5413 27.68 75.5225L24.4507 73.656Z" fill="white"/>
<path d="M24.332 74.3226C25.4376 74.5195 26.4391 75.0983 27.1616 75.9581L28.1983 75.0869C27.2716 73.9843 25.9873 73.242 24.5694 72.9895L24.332 74.3226Z" fill="#272727" mask="url(#path-32-inside-6_1_3115)"/>
<mask id="path-34-inside-7_1_3115" fill="white">
<path d="M24.4507 73.6562C24.782 73.6234 25.1164 73.648 25.4393 73.7287C25.7607 73.8078 26.0696 73.9311 26.3572 74.095C26.6457 74.2586 26.9092 74.4627 27.1397 74.7012C27.3744 74.9375 27.5626 75.2158 27.6946 75.5215C27.4138 75.3434 27.1592 75.1649 26.9004 74.9966C26.6417 74.8282 26.3837 74.6696 26.123 74.5194C25.8624 74.3692 25.5914 74.233 25.3149 74.0905C25.0385 73.9481 24.7369 73.8191 24.4507 73.6562Z"/>
</mask>
<path d="M24.4507 73.6562C24.782 73.6234 25.1164 73.648 25.4393 73.7287C25.7607 73.8078 26.0696 73.9311 26.3572 74.095C26.6457 74.2586 26.9092 74.4627 27.1397 74.7012C27.3744 74.9375 27.5626 75.2158 27.6946 75.5215C27.4138 75.3434 27.1592 75.1649 26.9004 74.9966C26.6417 74.8282 26.3837 74.6696 26.123 74.5194C25.8624 74.3692 25.5914 74.233 25.3149 74.0905C25.0385 73.9481 24.7369 73.8191 24.4507 73.6562Z" fill="black"/>
<path d="M24.4507 73.6562L24.3842 72.9824L22.2665 73.1916L24.1157 74.2445L24.4507 73.6562ZM25.4393 73.7287L25.2751 74.3855L25.2775 74.3861L25.4393 73.7287ZM26.3572 74.095L26.0219 74.6832L26.0233 74.684L26.3572 74.095ZM27.1397 74.7012L26.6527 75.1717L26.6593 75.1783L27.1397 74.7012ZM27.6946 75.5215L27.332 76.0933L29.1869 77.2698L28.3162 75.2532L27.6946 75.5215ZM24.5173 74.3299C24.7712 74.3048 25.0275 74.3237 25.2751 74.3855L25.6034 73.0719C25.2052 72.9723 24.7927 72.942 24.3842 72.9824L24.5173 74.3299ZM25.2775 74.3861C25.5381 74.4503 25.7886 74.5503 26.0219 74.6832L26.6925 73.5068C26.3505 73.3119 25.9833 73.1653 25.6011 73.0713L25.2775 74.3861ZM26.0233 74.684C26.2554 74.8156 26.4674 74.9798 26.6528 75.1717L27.6265 74.2307C27.351 73.9456 27.0359 73.7015 26.691 73.506L26.0233 74.684ZM26.6593 75.1783C26.8343 75.3545 26.9746 75.5619 27.0731 75.7899L28.3162 75.2532C28.1506 74.8696 27.9144 74.5205 27.62 74.2241L26.6593 75.1783ZM28.0573 74.9498C27.7679 74.7663 27.5668 74.6224 27.2697 74.4291L26.5312 75.5641C26.7516 75.7074 27.0597 75.9206 27.332 76.0933L28.0573 74.9498ZM27.2697 74.4291C27.0013 74.2545 26.7329 74.0895 26.4611 73.9328L25.785 75.106C26.0344 75.2498 26.282 75.4019 26.5312 75.5641L27.2697 74.4291ZM26.4611 73.9328C26.1828 73.7725 25.8926 73.6265 25.625 73.4887L25.0049 74.6924C25.2901 74.8394 25.542 74.966 25.785 75.106L26.4611 73.9328ZM25.625 73.4887C25.2782 73.31 25.0678 73.2284 24.7857 73.0678L24.1157 74.2445C24.4061 74.4098 24.7988 74.5863 25.0049 74.6924L25.625 73.4887Z" fill="#272727" mask="url(#path-34-inside-7_1_3115)"/>
<mask id="path-36-inside-8_1_3115" fill="white">
<path d="M22.5933 75.0532C24.0482 75.3808 25.3354 76.2238 26.2173 77.4265L22.5933 75.0532Z"/>
</mask>
<path d="M22.5933 75.0532C24.0482 75.3808 25.3354 76.2238 26.2173 77.4265L22.5933 75.0532Z" fill="white"/>
<path d="M22.4446 75.7137C23.74 76.0054 24.8861 76.7559 25.6712 77.8268L26.7633 77.0262C25.7848 75.6916 24.3564 74.7562 22.742 74.3927L22.4446 75.7137Z" fill="#272727" mask="url(#path-36-inside-8_1_3115)"/>
<mask id="path-38-inside-9_1_3115" fill="white">
<path d="M22.5934 75.053C22.9814 75.0106 23.3739 75.0459 23.7482 75.1569C24.1225 75.2619 24.4783 75.4245 24.8028 75.6387C25.1285 75.8511 25.4199 76.112 25.6671 76.4122C25.9174 76.71 26.1061 77.0546 26.2223 77.4259C25.8928 77.2122 25.6038 76.9921 25.3126 76.7853C25.0214 76.5785 24.737 76.3761 24.4469 76.184C24.1568 75.9918 23.8576 75.8086 23.5504 75.6276C23.2431 75.4466 22.9132 75.269 22.5934 75.053Z"/>
</mask>
<path d="M22.5934 75.053C22.9814 75.0106 23.3739 75.0459 23.7482 75.1569C24.1225 75.2619 24.4783 75.4245 24.8028 75.6387C25.1285 75.8511 25.4199 76.112 25.6671 76.4122C25.9174 76.71 26.1061 77.0546 26.2223 77.4259C25.8928 77.2122 25.6038 76.9921 25.3126 76.7853C25.0214 76.5785 24.737 76.3761 24.4469 76.184C24.1568 75.9918 23.8576 75.8086 23.5504 75.6276C23.2431 75.4466 22.9132 75.269 22.5934 75.053Z" fill="black"/>
<path d="M22.5934 75.053L22.5199 74.3799L20.6844 74.5804L22.2144 75.614L22.5934 75.053ZM23.7482 75.1569L23.5557 75.806L23.5652 75.8087L23.7482 75.1569ZM24.8028 75.6387L24.4297 76.2037L24.4329 76.2058L24.8028 75.6387ZM25.6671 76.4122L25.1443 76.8425L25.1488 76.8478L25.6671 76.4122ZM26.2223 77.4259L25.8538 77.9939L27.4291 79.0155L26.8684 77.2237L26.2223 77.4259ZM22.6669 75.726C22.9655 75.6934 23.2677 75.7206 23.5557 75.806L23.9406 74.5077C23.4802 74.3713 22.9972 74.3278 22.5199 74.3799L22.6669 75.726ZM23.5652 75.8087C23.8721 75.8949 24.1637 76.0281 24.4298 76.2037L25.1758 75.0737C24.7928 74.8209 24.3729 74.629 23.9311 74.505L23.5652 75.8087ZM24.4329 76.2058C24.701 76.3807 24.9409 76.5953 25.1443 76.8424L26.1898 75.9819C25.899 75.6286 25.5559 75.3216 25.1726 75.0716L24.4329 76.2058ZM25.1488 76.8478C25.3414 77.077 25.4867 77.3422 25.5761 77.628L26.8684 77.2237C26.7255 76.7669 26.4933 76.343 26.1853 75.9766L25.1488 76.8478ZM26.5907 76.8578C26.2767 76.6542 26.0195 76.4569 25.7046 76.2333L24.9206 77.3373C25.1881 77.5273 25.509 77.7702 25.8538 77.9939L26.5907 76.8578ZM25.7046 76.2333C25.4156 76.0281 25.1218 75.8189 24.8208 75.6195L24.0731 76.7484C24.3522 76.9333 24.6272 77.129 24.9206 77.3373L25.7046 76.2333ZM24.8208 75.6195C24.5175 75.4186 24.2075 75.2289 23.894 75.0442L23.2067 76.2109C23.5078 76.3883 23.7961 76.565 24.0731 76.7484L24.8208 75.6195ZM23.894 75.0442C23.5573 74.8459 23.2692 74.6925 22.9724 74.492L22.2144 75.614C22.5572 75.8456 22.9289 76.0473 23.2067 76.2109L23.894 75.0442Z" fill="#272727" mask="url(#path-38-inside-9_1_3115)"/>
<mask id="path-40-inside-10_1_3115" fill="white">
<path d="M20.7363 76.6304C22.4684 77.0914 23.9697 78.1749 24.9528 79.6736L20.7363 76.6304Z"/>
</mask>
<path d="M20.7363 76.6304C22.4684 77.0914 23.9697 78.1749 24.9528 79.6736L20.7363 76.6304Z" fill="white"/>
<path d="M20.5622 77.2846C22.1333 77.7028 23.495 78.6856 24.3867 80.045L25.5189 79.3023C24.4444 77.6643 22.8036 76.48 20.9105 75.9761L20.5622 77.2846Z" fill="#272727" mask="url(#path-40-inside-10_1_3115)"/>
<mask id="path-42-inside-11_1_3115" fill="white">
<path d="M20.7363 76.6304C21.1987 76.6184 21.6593 76.6939 22.0936 76.8529C22.531 77.0072 22.9431 77.2254 23.3167 77.5003C23.6907 77.7726 24.0237 78.0971 24.3055 78.464C24.5905 78.8267 24.8097 79.2367 24.9529 79.6753C24.5898 79.3856 24.2658 79.0945 23.9332 78.8188C23.6006 78.5431 23.272 78.277 22.9315 78.0265C22.591 77.776 22.2387 77.5412 21.8755 77.3154C21.5124 77.0896 21.1319 76.8733 20.7363 76.6304Z"/>
</mask>
<path d="M20.7363 76.6304C21.1987 76.6184 21.6593 76.6939 22.0936 76.8529C22.531 77.0072 22.9431 77.2254 23.3167 77.5003C23.6907 77.7726 24.0237 78.0971 24.3055 78.464C24.5905 78.8267 24.8097 79.2367 24.9529 79.6753C24.5898 79.3856 24.2658 79.0945 23.9332 78.8188C23.6006 78.5431 23.272 78.277 22.9315 78.0265C22.591 77.776 22.2387 77.5412 21.8755 77.3154C21.5124 77.0896 21.1319 76.8733 20.7363 76.6304Z" fill="black"/>
<path d="M20.7363 76.6304L20.7189 75.9536L18.4365 76.0125L20.382 77.2073L20.7363 76.6304ZM22.0936 76.8529L21.8609 77.4887L21.8683 77.4914L22.0936 76.8529ZM23.3167 77.5003L22.9154 78.0456L22.9182 78.0477L23.3167 77.5003ZM24.3055 78.464L23.7685 78.8764L23.7731 78.8824L24.3055 78.464ZM24.9529 79.6753L24.5308 80.2045L26.2987 81.6147L25.5965 79.465L24.9529 79.6753ZM20.7538 77.3072C21.131 77.2974 21.5066 77.359 21.8609 77.4887L22.3263 76.2171C21.8119 76.0288 21.2665 75.9394 20.7189 75.9536L20.7538 77.3072ZM21.8683 77.4914C22.2428 77.6235 22.5956 77.8103 22.9154 78.0456L23.718 76.955C23.2907 76.6406 22.8192 76.391 22.3189 76.2145L21.8683 77.4914ZM22.9182 78.0477C23.2398 78.2818 23.5262 78.5609 23.7685 78.8764L24.8424 78.0516C24.5212 77.6333 24.1415 77.2633 23.7152 76.953L22.9182 78.0477ZM23.7731 78.8824C24.0092 79.1827 24.1907 79.5223 24.3094 79.8855L25.5965 79.465C25.4287 78.9511 25.1719 78.4707 24.8378 78.0456L23.7731 78.8824ZM25.3751 79.146C25.0104 78.8551 24.7328 78.6022 24.3652 78.2975L23.5011 79.3401C23.7987 79.5867 24.1691 79.9161 24.5308 80.2045L25.3751 79.146ZM24.3652 78.2975C24.0297 78.0195 23.6892 77.7434 23.3327 77.4812L22.5303 78.5719C22.8548 78.8106 23.1714 79.0668 23.5011 79.3401L24.3652 78.2975ZM23.3327 77.4812C22.9754 77.2183 22.608 76.9736 22.233 76.7404L21.518 77.8903C21.8693 78.1087 22.2066 78.3337 22.5303 78.5719L23.3327 77.4812ZM22.233 76.7404C22.0446 76.6233 21.8529 76.5093 21.6635 76.397C21.4723 76.2836 21.2831 76.1716 21.0906 76.0534L20.382 77.2073C20.5852 77.3321 20.784 77.4497 20.9727 77.5616C21.1632 77.6746 21.3433 77.7817 21.518 77.8903L22.233 76.7404Z" fill="#272727" mask="url(#path-42-inside-11_1_3115)"/>
<path d="M82.9604 114.186C83.0488 114.327 83.1569 114.455 83.2814 114.565C84.246 115.428 83.9366 116.679 83.6191 117.825L82.3449 122.526C82.1904 123.091 82.1427 123.893 81.7654 124.373C81.4353 124.785 80.8833 124.955 80.5057 125.368C79.6768 126.277 79.3202 127.639 79.6937 128.824C80.0563 129.973 80.9499 130.047 81.9156 130.48C82.9916 130.963 84.138 131.276 85.2689 131.599C92.413 133.625 99.8705 134.309 107.264 133.617C110.569 133.31 113.92 133.201 117.164 132.421C118.959 131.987 124.066 131.211 122.899 128.209C122.799 127.948 122.647 127.699 122.629 127.42C122.598 127.03 122.843 126.676 123.05 126.341C124.068 124.676 124.403 122.662 124.318 120.712C124.178 117.244 123.573 113.726 120.647 111.564C117.143 108.985 112.828 109.044 108.832 110.218C105.173 111.293 101.999 113.272 99.9137 116.529C99.8289 116.693 99.7054 116.833 99.5538 116.937C99.4127 117.005 99.2587 117.043 99.102 117.047L96.5376 117.294C96.4894 116.332 96.4865 114.983 97.0329 114.169C97.4921 113.478 98.2909 113.089 98.5667 112.271C98.8583 111.403 98.4997 110.559 97.962 109.877C95.5002 106.752 87.3329 108.243 84.5203 110.149C83.7871 110.645 83.1167 111.295 82.8074 112.125C82.679 112.458 82.6261 112.816 82.6525 113.173C82.679 113.529 82.7841 113.875 82.9604 114.186Z" fill="#F7C326" stroke="#272727" stroke-width="0.677041" stroke-miterlimit="10"/>
<path d="M54.3222 132.033C55.6902 131.803 57.1831 131.936 58.4781 131.397C58.9671 131.195 59.4354 130.875 59.6657 130.4C60.0894 129.526 59.7267 127.698 58.8379 127.2C58.7488 127.149 58.6452 127.102 58.6101 127.008C58.5936 126.947 58.5926 126.883 58.6071 126.821C58.9345 124.702 58.9803 122.544 58.9295 120.407C58.9146 119.728 58.6297 118.651 59.058 118.068C59.4597 117.522 60.4403 117.492 60.9598 117.072C62.005 116.226 62.2917 115.021 62.1844 113.72C62.0007 111.495 60.3679 110.211 58.7199 108.963C56.167 107.031 52.0732 103.519 48.9256 105.986C48.6926 106.17 48.4759 106.375 48.2782 106.596C47.866 107.071 47.5923 107.651 47.4873 108.271C47.3694 108.894 47.4049 109.535 47.5908 110.141C47.7767 110.747 48.1074 111.298 48.5542 111.747C48.3832 111.866 48.3176 112.055 48.1699 112.22C47.5805 112.888 47.0587 113.613 46.6124 114.384C44.6006 117.852 41.809 113.811 38.0714 111.98C32.8647 109.435 24.4705 109.814 21.0399 115.185C18.6157 118.976 19.4517 121.86 19.4912 126.072C19.5119 126.298 19.4795 126.525 19.3967 126.735C19.2547 127.016 18.9722 127.176 18.7337 127.376C17.5031 128.408 17.8309 130.526 18.9901 131.638C20.1493 132.751 21.8262 133.103 23.4141 133.342C31.3933 134.543 39.5251 134.073 47.4818 132.953C49.7633 132.629 52.0551 132.417 54.3222 132.033Z" fill="#F7C326" stroke="#272727" stroke-width="0.677041" stroke-miterlimit="10"/>
<path d="M60.7485 91.0427L52.8427 107.906C52.8427 107.906 54.1419 113.472 58.4546 112.32L67.756 94.6938L60.7485 91.0427Z" fill="#19888F" stroke="#272727" stroke-width="0.677041" stroke-miterlimit="10" stroke-linecap="round"/>
<path d="M95.4415 111.455C95.344 111.694 95.1923 111.908 94.9984 112.079C94.7504 112.285 94.4608 112.434 94.1494 112.518C92.6823 112.992 90.7003 113.165 89.2381 112.561C87.1719 111.708 87.7593 111.065 88.0033 108.926C88.4459 105.059 87.941 100.316 86.6801 96.5783C89.3067 96.352 93.031 96.0865 96.0998 95.5213C96.0943 95.5135 96.7687 107.946 95.4415 111.455Z" fill="#19888F" stroke="#272727" stroke-width="0.677041" stroke-miterlimit="10" stroke-linecap="round"/>
<path d="M134.219 53.9429C134.15 54.977 133.894 55.9453 133.11 55.9208C132.851 55.913 132.617 55.7722 132.373 55.6863C131.297 55.306 130.076 56.0656 129.589 57.0961C129.102 58.1266 129.179 59.3312 129.366 60.4553C129.676 62.3229 130.258 64.135 131.093 65.8341C131.768 67.2038 132.814 68.6316 134.333 68.7827C134.94 68.8264 135.544 68.659 136.042 68.3088C136.54 67.9586 136.902 67.447 137.067 66.8606C137.228 66.2158 137.111 65.5057 137.838 65.184C138.258 64.9992 138.733 65.0148 139.189 65.0057C142.341 64.9386 144.661 63.2812 147.246 61.7279C148.851 60.837 150.176 59.5172 151.228 58.0203C151.877 57.0953 152.948 55.533 152.86 54.3669C152.786 53.4078 151.84 52.0885 150.755 52.4003C151.191 52.2686 151.595 52.0486 151.942 51.754C152.289 51.4594 152.572 51.0964 152.773 50.6877C153.26 49.6801 153.263 47.7895 152.506 46.8979C152.104 46.4656 151.559 46.1931 150.972 46.1304C150.388 46.0738 149.799 46.0886 149.218 46.1746C150.632 44.9937 151.067 41.6278 149.311 40.5467C148.327 39.9414 147.061 40.218 145.944 40.5142C144.545 40.8829 143.36 41.9429 141.844 41.9407C140.986 41.94 140.176 41.5506 139.313 41.4945C137.714 41.389 136.451 42.0831 135.636 43.4486C134.169 45.9015 134.184 48.9441 134.198 51.7099C134.197 52.1196 134.276 53.0554 134.219 53.9429Z" fill="white" stroke="#272727" stroke-width="0.677041" stroke-miterlimit="10"/>
<path d="M130.091 10.4391C130.092 10.4135 130.093 10.389 130.095 10.3654C130.356 10.4893 130.694 10.7055 131.096 11.0307C131.703 11.5206 132.416 12.2243 133.175 13.1253C134.695 14.9265 136.386 17.4976 137.777 20.6773L138.082 20.5438L137.777 20.6774C139.547 24.7254 139.779 27.9737 139.576 30.1985C139.474 31.3121 139.264 32.1719 139.08 32.7496C139.035 32.8918 138.991 33.017 138.952 33.1246C133.917 27.0844 131.706 21.3402 130.756 17.0831C130.27 14.9044 130.114 13.114 130.079 11.8715C130.061 11.2502 130.074 10.7661 130.091 10.4391Z" fill="#A6E9EC" stroke="#272727" stroke-width="0.677041"/>
<path d="M131.555 7.37981C131.555 7.37981 128.415 8.03907 130.171 15.3241C130.502 16.6958 130.92 18.051 131.385 19.3796C132.183 21.6725 133.116 23.9163 134.177 26.0995C135.151 28.0916 136.13 29.9865 137.447 31.7816C137.941 32.4763 138.497 33.1251 139.107 33.7204C139.775 34.3502 140.52 34.6856 141.274 35.1564C140.656 35.9152 139.664 36.5359 138.862 37.0928C138.418 37.4024 137.309 36.5791 136.926 36.34C136.206 35.8873 135.527 35.3732 134.896 34.8034C133.633 33.6749 132.546 32.3651 131.669 30.9168C130.03 28.2047 128.808 25.2556 127.858 22.2395C124.195 10.6052 126.759 8.44579 126.759 8.44579C126.759 8.44579 128.309 6.88903 131.555 7.37981Z" fill="#F7C326" stroke="#272727" stroke-width="0.677041" stroke-linejoin="round"/>
<path d="M139.202 33.9359C139.027 33.7857 141.193 28.9507 137.244 19.755C134.046 12.3031 129.788 9.8266 129.788 9.8266C129.788 9.8266 130.225 7.80404 131.555 7.37995C131.555 7.37995 136.546 11.5198 139.491 18.5768C142.699 26.2622 142.531 32.7952 141.268 35.1848C141.265 35.1851 140.572 35.0602 139.202 33.9359Z" fill="#F29F19" stroke="#272727" stroke-width="0.677041" stroke-linejoin="round"/>
<path d="M146.125 66.7388C146.125 66.7388 148.656 67.6895 151.223 64.8697L141.223 35.1735C141.223 35.1735 140.21 36.8902 137.228 36.4658L146.125 66.7388Z" fill="#F7C326" stroke="#272727" stroke-width="0.677041" stroke-miterlimit="10"/>
<path d="M147.997 53.1609C146.31 53.8371 144.596 54.5285 143.18 55.6636C142.052 56.57 142.306 57.8511 142.976 59.0148C143.195 59.4249 143.51 59.7759 143.894 60.038C144.519 60.4336 145.307 60.4577 146.05 60.3854C147.606 60.2354 149.436 59.5319 150.749 58.6831" fill="white"/>
<path d="M147.997 53.1609C146.31 53.8371 144.596 54.5285 143.18 55.6636C142.052 56.57 142.306 57.8511 142.976 59.0148C143.195 59.4249 143.51 59.7759 143.894 60.038C144.519 60.4336 145.307 60.4577 146.05 60.3854C147.606 60.2354 149.436 59.5319 150.749 58.6831" stroke="#272727" stroke-width="0.677041" stroke-miterlimit="10"/>
<path d="M146.31 47.5575C145.378 47.9578 144.474 48.4219 143.605 48.9465C142.655 49.5214 141.177 50.527 141.115 51.7801C141.093 52.1629 141.159 52.5457 141.308 52.8991C141.457 53.2525 141.685 53.5671 141.974 53.8187C142.718 54.4344 143.783 54.4977 144.731 54.326C145.679 54.1543 147.083 53.387 148.023 53.1668L151.115 52.2869" fill="white"/>
<path d="M146.31 47.5575C145.378 47.9578 144.474 48.4219 143.605 48.9465C142.655 49.5214 141.177 50.527 141.115 51.7801C141.093 52.1629 141.159 52.5457 141.308 52.8991C141.457 53.2525 141.685 53.5671 141.974 53.8187C142.718 54.4344 143.783 54.4977 144.731 54.326C145.679 54.1543 147.083 53.387 148.023 53.1668L151.115 52.2869" stroke="#272727" stroke-width="0.677041" stroke-miterlimit="10"/>
<path d="M144.307 41.1598C143.054 41.7483 141.879 42.6584 141.108 43.8026C140.959 44.0089 140.848 44.2392 140.777 44.4835C140.484 45.6529 141.791 47.3079 142.827 47.6798C143.294 47.8218 143.784 47.8777 144.271 47.8448C144.271 47.8448 144.973 47.9543 146.107 47.5781C146.107 47.5781 148.486 46.5748 149.426 46.0106" fill="white"/>
<path d="M144.307 41.1598C143.054 41.7483 141.879 42.6584 141.108 43.8026C140.959 44.0089 140.848 44.2392 140.777 44.4835C140.484 45.6529 141.791 47.3079 142.827 47.6798C143.294 47.8218 143.784 47.8777 144.271 47.8448C144.271 47.8448 144.973 47.9543 146.107 47.5781C146.107 47.5781 148.486 46.5748 149.426 46.0106" stroke="#272727" stroke-width="0.677041" stroke-miterlimit="10"/>
<path d="M137.957 41.6516C139.723 41.1872 140.724 42.1237 141.533 43.1095C142.289 44.0339 142.835 45.1187 143.607 46.0304C144.11 46.6238 144.72 47.1565 145.021 47.8736C145.696 49.476 144.147 51.0932 142.638 51.2199C141.461 51.3192 140.521 50.7285 139.863 49.7393C139.375 48.9563 139.081 48.0679 139.007 47.1484" fill="white"/>
<path d="M137.957 41.6516C139.723 41.1872 140.724 42.1237 141.533 43.1095C142.289 44.0339 142.835 45.1187 143.607 46.0304C144.11 46.6238 144.72 47.1565 145.021 47.8736C145.696 49.476 144.147 51.0932 142.638 51.2199C141.461 51.3192 140.521 50.7285 139.863 49.7393C139.375 48.9563 139.081 48.0679 139.007 47.1484" stroke="#272727" stroke-width="0.677041" stroke-miterlimit="10"/>
<mask id="path-61-inside-12_1_3115" fill="white">
<path d="M140.197 52.6084C140.36 53.0773 140.414 53.5773 140.356 54.0704C140.302 54.569 140.159 55.054 139.934 55.5021C139.711 55.9509 139.409 56.3564 139.044 56.6997C138.685 57.0453 138.252 57.3032 137.777 57.4531C138.091 57.1062 138.385 56.7421 138.659 56.3626C138.918 55.9972 139.149 55.613 139.35 55.2131C139.549 54.8121 139.718 54.3965 139.855 53.97C139.993 53.5226 140.107 53.0681 140.197 52.6084Z"/>
</mask>
<path d="M140.197 52.6084C140.36 53.0773 140.414 53.5773 140.356 54.0704C140.302 54.569 140.159 55.054 139.934 55.5021C139.711 55.9509 139.409 56.3564 139.044 56.6997C138.685 57.0453 138.252 57.3032 137.777 57.4531C138.091 57.1062 138.385 56.7421 138.659 56.3626C138.918 55.9972 139.149 55.613 139.35 55.2131C139.549 54.8121 139.718 54.3965 139.855 53.97C139.993 53.5226 140.107 53.0681 140.197 52.6084Z" fill="black"/>
<path d="M140.197 52.6084L140.836 52.3855L140.01 50.0161L139.532 52.4794L140.197 52.6084ZM140.356 54.0704L139.683 53.9903L139.683 53.998L140.356 54.0704ZM139.934 55.5021L139.329 55.1982L139.328 55.2004L139.934 55.5021ZM139.044 56.6997L138.58 56.2063L138.574 56.2123L139.044 56.6997ZM137.777 57.4531L137.275 56.9988L135.599 58.8509L137.981 58.0987L137.777 57.4531ZM138.659 56.3626L139.208 56.7585L139.212 56.7537L138.659 56.3626ZM139.35 55.2131L139.955 55.5176L139.956 55.5147L139.35 55.2131ZM139.855 53.97L140.5 54.1765L140.502 54.1702L139.855 53.97ZM139.557 52.8312C139.687 53.203 139.73 53.5994 139.683 53.9903L141.028 54.1506C141.099 53.5553 141.033 52.9516 140.836 52.3855L139.557 52.8312ZM139.683 53.998C139.638 54.416 139.518 54.8225 139.329 55.1982L140.539 55.806C140.801 55.2854 140.966 54.7221 141.029 54.1429L139.683 53.998ZM139.328 55.2004C139.14 55.5774 138.887 55.918 138.58 56.2063L139.508 57.1931C139.931 56.7949 140.281 56.3244 140.54 55.8038L139.328 55.2004ZM138.574 56.2123C138.291 56.4853 137.948 56.6891 137.573 56.8075L137.981 58.0987C138.555 57.9173 139.08 57.6053 139.514 57.1872L138.574 56.2123ZM138.279 57.9075C138.61 57.542 138.92 57.1584 139.208 56.7585L138.11 55.9667C137.851 56.3259 137.572 56.6705 137.275 56.9988L138.279 57.9075ZM139.212 56.7537C139.49 56.3607 139.738 55.9475 139.955 55.5176L138.745 54.9087C138.559 55.2784 138.345 55.6336 138.106 55.9715L139.212 56.7537ZM139.956 55.5147C140.171 55.083 140.353 54.6357 140.5 54.1764L139.21 53.7635C139.084 54.1574 138.928 54.5412 138.744 54.9115L139.956 55.5147ZM140.502 54.1702C140.647 53.6994 140.767 53.2211 140.861 52.7373L139.532 52.4794C139.447 52.9151 139.339 53.3458 139.208 53.7697L140.502 54.1702Z" fill="#272727" mask="url(#path-61-inside-12_1_3115)"/>
<path d="M132.132 67.9865C132.132 67.9865 131.256 69.3649 128.864 70.2054C126.472 71.0459 126.747 70.3693 126.747 70.3693C126.747 70.3693 127.785 65.1139 128.209 63.8671C128.61 62.6894 129.712 62.1126 129.712 62.1126L132.132 67.9865Z" fill="#19888F" stroke="#272727" stroke-width="0.677041" stroke-miterlimit="10" stroke-linecap="round"/>
<mask id="path-64-inside-13_1_3115" fill="white">
<path d="M32.2096 75.478C32.2096 75.478 31.5697 73.5617 29.4839 73.1548L32.2096 75.478Z"/>
</mask>
<path d="M32.2096 75.478C32.2096 75.478 31.5697 73.5617 29.4839 73.1548L32.2096 75.478Z" fill="white"/>
<path d="M32.2096 75.478C32.8517 75.2636 32.8516 75.2633 32.8515 75.263C32.8515 75.2629 32.8514 75.2626 32.8513 75.2623C32.8512 75.2619 32.851 75.2614 32.8508 75.2609C32.8505 75.2599 32.8501 75.2588 32.8497 75.2575C32.8488 75.2551 32.8478 75.2521 32.8466 75.2487C32.8442 75.2419 32.8411 75.2332 32.8373 75.2228C32.8297 75.202 32.8191 75.1743 32.8054 75.1405C32.778 75.0729 32.7378 74.9805 32.6831 74.8706C32.574 74.6514 32.4046 74.3573 32.1592 74.048C31.6663 73.4272 30.8541 72.7323 29.6135 72.4903L29.3542 73.8193C30.1995 73.9842 30.7501 74.4509 31.0986 74.8899C31.2738 75.1107 31.3948 75.321 31.4709 75.4739C31.5087 75.5499 31.5348 75.6105 31.5506 75.6493C31.5584 75.6687 31.5636 75.6825 31.5664 75.69C31.5678 75.6937 31.5685 75.6959 31.5687 75.6963C31.5688 75.6965 31.5687 75.6963 31.5685 75.6957C31.5684 75.6954 31.5682 75.6949 31.568 75.6944C31.5679 75.6941 31.5678 75.6938 31.5677 75.6935C31.5677 75.6933 31.5676 75.6931 31.5675 75.693C31.5675 75.6927 31.5674 75.6924 32.2096 75.478Z" fill="#272727" mask="url(#path-64-inside-13_1_3115)"/>
<mask id="path-66-inside-14_1_3115" fill="white">
<path d="M32.2092 75.478C31.9494 74.918 31.5561 74.4304 31.0639 74.0579C30.9443 73.9669 30.8192 73.8836 30.6891 73.8084C30.5597 73.7357 30.4255 73.6717 30.2876 73.6167C30.0143 73.5079 29.7285 73.4337 29.4367 73.3959L29.1961 73.3556L29.2956 72.8433L29.5304 72.9136C29.8504 72.9992 30.1584 73.1245 30.4472 73.2865C30.5901 73.3664 30.7278 73.4553 30.8593 73.5528C30.9875 73.6516 31.1095 73.7581 31.2248 73.8718C31.4532 74.0961 31.6527 74.3481 31.8186 74.6219C31.9846 74.8895 32.1159 75.1772 32.2092 75.478Z"/>
</mask>
<path d="M32.2092 75.478C31.9494 74.918 31.5561 74.4304 31.0639 74.0579C30.9443 73.9669 30.8192 73.8836 30.6891 73.8084C30.5597 73.7357 30.4255 73.6717 30.2876 73.6167C30.0143 73.5079 29.7285 73.4337 29.4367 73.3959L29.1961 73.3556L29.2956 72.8433L29.5304 72.9136C29.8504 72.9992 30.1584 73.1245 30.4472 73.2865C30.5901 73.3664 30.7278 73.4553 30.8593 73.5528C30.9875 73.6516 31.1095 73.7581 31.2248 73.8718C31.4532 74.0961 31.6527 74.3481 31.8186 74.6219C31.9846 74.8895 32.1159 75.1772 32.2092 75.478Z" fill="black"/>
<path d="M32.2092 75.478L31.5951 75.7629L32.8559 75.2773L32.2092 75.478ZM31.0639 74.0579L30.6541 74.5968L30.6554 74.5978L31.0639 74.0579ZM30.6891 73.8084L31.0281 73.2222L31.0206 73.2181L30.6891 73.8084ZM30.2876 73.6167L30.5383 72.9878L30.538 72.9876L30.2876 73.6167ZM29.4367 73.3959L29.3248 74.0636L29.3372 74.0657L29.3497 74.0673L29.4367 73.3959ZM29.1961 73.3556L28.5315 73.2264L28.3989 73.9084L29.0841 74.0233L29.1961 73.3556ZM29.2956 72.8433L29.4897 72.1947L28.7736 71.9804L28.631 72.7141L29.2956 72.8433ZM29.5304 72.9136L29.3363 73.5622L29.3458 73.565L29.3554 73.5676L29.5304 72.9136ZM30.4472 73.2865L30.1159 73.877L30.1169 73.8775L30.4472 73.2865ZM30.8593 73.5528L31.2729 73.0165L31.2623 73.0087L30.8593 73.5528ZM31.2248 73.8718L30.7494 74.3539L30.7504 74.3548L31.2248 73.8718ZM31.8186 74.6219L31.2395 74.9728L31.2433 74.9789L31.8186 74.6219ZM32.8234 75.193C32.5169 74.5325 32.0531 73.9574 31.4725 73.518L30.6554 74.5978C31.0592 74.9034 31.3819 75.3035 31.5951 75.7629L32.8234 75.193ZM31.4738 73.519C31.3316 73.4109 31.1827 73.3118 31.028 73.2223L30.3502 74.3945C30.4556 74.4554 30.5571 74.523 30.6541 74.5968L31.4738 73.519ZM31.0206 73.2181C30.8651 73.1307 30.704 73.0538 30.5383 72.9878L30.037 74.2456C30.1471 74.2895 30.2542 74.3407 30.3576 74.3987L31.0206 73.2181ZM30.538 72.9876C30.2122 72.858 29.8715 72.7696 29.5238 72.7245L29.3497 74.0673C29.5854 74.0979 29.8164 74.1578 30.0373 74.2457L30.538 72.9876ZM29.5486 72.7282L29.308 72.6878L29.0841 74.0233L29.3248 74.0636L29.5486 72.7282ZM29.8607 73.4847L29.9602 72.9724L28.631 72.7141L28.5315 73.2264L29.8607 73.4847ZM29.1015 73.4919L29.3363 73.5622L29.7245 72.2649L29.4897 72.1947L29.1015 73.4919ZM29.3554 73.5676C29.6208 73.6386 29.8763 73.7425 30.1159 73.877L30.7785 72.6961C30.4404 72.5064 30.0799 72.3597 29.7054 72.2595L29.3554 73.5676ZM30.1169 73.8775C30.2346 73.9433 30.348 74.0166 30.4564 74.0968L31.2623 73.0087C31.1075 72.8941 30.9456 72.7895 30.7775 72.6955L30.1169 73.8775ZM30.4459 74.0889C30.5523 74.171 30.6537 74.2595 30.7494 74.3539L31.7002 73.3897C31.5654 73.2568 31.4226 73.1322 31.2728 73.0166L30.4459 74.0889ZM30.7504 74.3548C30.9385 74.5396 31.1029 74.7472 31.2395 74.9728L32.3976 74.2711C32.2025 73.949 31.9679 73.6526 31.6992 73.3888L30.7504 74.3548ZM31.2433 74.9789C31.379 75.1976 31.4863 75.4327 31.5626 75.6786L32.8559 75.2773C32.7455 74.9216 32.5902 74.5814 32.3938 74.2649L31.2433 74.9789Z" fill="#272727" mask="url(#path-66-inside-14_1_3115)"/>
<mask id="path-68-inside-15_1_3115" fill="white">
<path d="M35.545 81.5269C35.545 81.5269 35.6304 80.5145 34.4834 78.988L35.545 81.5269Z"/>
</mask>
<path d="M35.545 81.5269C35.545 81.5269 35.6304 80.5145 34.4834 78.988L35.545 81.5269Z" fill="white"/>
<path d="M35.545 81.5269C36.2196 81.5839 36.2197 81.5834 36.2197 81.583C36.2197 81.5829 36.2197 81.5825 36.2198 81.5822C36.2198 81.5816 36.2199 81.581 36.2199 81.5804C36.22 81.5791 36.2201 81.5779 36.2202 81.5765C36.2204 81.5738 36.2206 81.5708 36.2208 81.5676C36.2212 81.5611 36.2217 81.5537 36.222 81.5452C36.2228 81.5283 36.2234 81.5074 36.2234 81.4826C36.2236 81.433 36.2217 81.368 36.2151 81.2886C36.2018 81.1297 36.1696 80.9141 36.0971 80.6505C35.9517 80.1214 35.6474 79.4101 35.0247 78.5813L33.9421 79.3948C34.4664 80.0925 34.6929 80.6505 34.7915 81.0094C34.841 81.1896 34.8591 81.3226 34.8657 81.4012C34.869 81.4406 34.8694 81.4666 34.8694 81.4784C34.8693 81.4842 34.8692 81.4865 34.8693 81.4852C34.8693 81.4845 34.8694 81.4829 34.8695 81.4804C34.8696 81.4791 34.8697 81.4776 34.8699 81.4759C34.8699 81.4751 34.87 81.4741 34.8701 81.4732C34.8701 81.4727 34.8702 81.4722 34.8702 81.4716C34.8702 81.4714 34.8703 81.471 34.8703 81.4708C34.8703 81.4704 34.8703 81.47 35.545 81.5269Z" fill="#272727" mask="url(#path-68-inside-15_1_3115)"/>
<path d="M34.9243 79.5242C34.9274 79.5284 34.9305 79.5327 34.9336 79.5369M34.9243 79.5242C34.8793 79.463 34.8323 79.4027 34.7855 79.3426C34.7614 79.3117 34.7374 79.2808 34.7137 79.2499C34.7128 79.2488 34.7119 79.2477 34.7111 79.2466C34.7105 79.2458 34.7099 79.2451 34.7094 79.2443M34.9243 79.5242L34.8504 79.5778L34.8199 79.5929M34.9243 79.5242L34.8533 79.5764L34.9336 79.5369M34.9336 79.5369L34.4805 78.9753L34.7094 79.2443M34.7094 79.2443L34.6912 79.2582L34.6802 79.2666L34.66 79.2821M34.7094 79.2443L34.697 79.2548L34.6873 79.2631L34.6615 79.285C34.6851 79.3322 34.7093 79.3781 34.7331 79.4235C34.7629 79.4803 34.7924 79.5362 34.8199 79.5929M34.8199 79.5929C34.8208 79.5946 34.8216 79.5964 34.8225 79.5981L34.8496 79.5784L34.8199 79.5929Z" fill="black" stroke="#272727" stroke-width="0.677041"/>
<mask id="path-71-inside-16_1_3115" fill="white">
<path d="M137.319 65.6826C137.319 65.6826 135.55 64.527 134.685 61.8091L137.319 65.6826Z"/>
</mask>
<path d="M137.319 65.6826C137.319 65.6826 135.55 64.527 134.685 61.8091L137.319 65.6826Z" fill="white"/>
<path d="M137.319 65.6826C137.689 65.1158 137.69 65.1159 137.69 65.1161C137.69 65.1161 137.69 65.1163 137.69 65.1163C137.69 65.1165 137.691 65.1167 137.691 65.1168C137.691 65.1171 137.692 65.1173 137.692 65.1174C137.692 65.1177 137.692 65.1177 137.692 65.1174C137.691 65.1169 137.689 65.1153 137.685 65.1125C137.677 65.107 137.663 65.0971 137.643 65.0827C137.604 65.0538 137.543 65.0069 137.465 64.9413C137.309 64.8101 137.086 64.6046 136.836 64.319C136.336 63.7485 135.73 62.86 135.33 61.6036L134.039 62.0146C134.505 63.476 135.216 64.5243 135.817 65.211C136.117 65.5541 136.391 65.8074 136.593 65.9777C136.695 66.0629 136.779 66.1276 136.839 66.1725C136.87 66.195 136.895 66.2126 136.913 66.2253C136.922 66.2317 136.93 66.2369 136.936 66.2409C136.939 66.2429 136.941 66.2446 136.944 66.246C136.945 66.2467 136.946 66.2473 136.946 66.2479C136.947 66.2482 136.947 66.2484 136.948 66.2487C136.948 66.2488 136.948 66.249 136.948 66.249C136.948 66.2492 136.949 66.2493 137.319 65.6826Z" fill="#272727" mask="url(#path-71-inside-16_1_3115)"/>
<mask id="path-73-inside-17_1_3115" fill="white">
<path d="M137.142 65.9602C136.973 65.8267 136.814 65.6808 136.666 65.5236C136.523 65.3709 136.385 65.2177 136.259 65.0637C136.004 64.7449 135.774 64.4066 135.571 64.0521C135.371 63.7016 135.197 63.3367 135.051 62.9604C134.971 62.7766 134.915 62.5843 134.843 62.3966C134.771 62.2088 134.735 62.0118 134.681 61.821C134.76 62.0033 134.834 62.1876 134.919 62.3661C135.005 62.5446 135.09 62.7232 135.193 62.8905C135.384 63.2333 135.6 63.5615 135.839 63.8725C136.075 64.1786 136.335 64.4663 136.615 64.7331C136.753 64.8665 136.898 64.9896 137.047 65.1092C137.189 65.2224 137.338 65.3263 137.494 65.4202L137.778 65.5833L137.396 66.1699L137.142 65.9602Z"/>
</mask>
<path d="M137.142 65.9602C136.973 65.8267 136.814 65.6808 136.666 65.5236C136.523 65.3709 136.385 65.2177 136.259 65.0637C136.004 64.7449 135.774 64.4066 135.571 64.0521C135.371 63.7016 135.197 63.3367 135.051 62.9604C134.971 62.7766 134.915 62.5843 134.843 62.3966C134.771 62.2088 134.735 62.0118 134.681 61.821C134.76 62.0033 134.834 62.1876 134.919 62.3661C135.005 62.5446 135.09 62.7232 135.193 62.8905C135.384 63.2333 135.6 63.5615 135.839 63.8725C136.075 64.1786 136.335 64.4663 136.615 64.7331C136.753 64.8665 136.898 64.9896 137.047 65.1092C137.189 65.2224 137.338 65.3263 137.494 65.4202L137.778 65.5833L137.396 66.1699L137.142 65.9602Z" fill="black"/>
<path d="M137.142 65.9602L137.574 65.4383L137.568 65.4333L137.561 65.4285L137.142 65.9602ZM136.666 65.5236L136.172 65.9861L136.173 65.9872L136.666 65.5236ZM136.259 65.0637L135.73 65.4867L135.736 65.4936L136.259 65.0637ZM135.571 64.0521L134.983 64.3879L134.983 64.3882L135.571 64.0521ZM135.051 62.9604L135.682 62.7152L135.677 62.703L135.672 62.691L135.051 62.9604ZM134.681 61.821L135.301 61.5499L134.029 62.0057L134.681 61.821ZM135.193 62.8905L135.784 62.5611L135.777 62.5481L135.769 62.5354L135.193 62.8905ZM135.839 63.8725L135.302 64.2853L135.303 64.2863L135.839 63.8725ZM136.615 64.7331L137.085 64.2462L137.082 64.2427L136.615 64.7331ZM137.047 65.1092L136.622 65.6365L136.625 65.6386L137.047 65.1092ZM137.494 65.4202L137.143 65.9997L137.15 66.0037L137.157 66.0077L137.494 65.4202ZM137.778 65.5833L138.346 65.9529L138.737 65.3523L138.115 64.9959L137.778 65.5833ZM137.396 66.1699L136.965 66.6918L137.549 67.1749L137.963 66.5395L137.396 66.1699ZM137.561 65.4285C137.419 65.3158 137.284 65.1927 137.16 65.06L136.173 65.9872C136.343 66.1688 136.527 66.3375 136.723 66.4919L137.561 65.4285ZM137.161 65.0611C137.023 64.9137 136.896 64.7722 136.782 64.6338L135.736 65.4936C135.875 65.6632 136.024 65.828 136.172 65.9861L137.161 65.0611ZM136.787 64.6407C136.554 64.3493 136.344 64.0401 136.159 63.7161L134.983 64.3882C135.203 64.7731 135.453 65.1404 135.73 65.4867L136.787 64.6407ZM136.159 63.7164C135.975 63.3949 135.816 63.0602 135.682 62.7152L134.42 63.2057C134.578 63.6131 134.766 64.0083 134.983 64.3879L136.159 63.7164ZM135.672 62.691C135.642 62.6233 135.615 62.5491 135.583 62.4573C135.554 62.3722 135.516 62.2611 135.475 62.1545L134.211 62.6387C134.242 62.7198 134.268 62.7987 134.305 62.9026C134.338 62.9999 134.379 63.1137 134.43 63.2299L135.672 62.691ZM135.475 62.1545C135.416 61.999 135.411 61.9135 135.332 61.6364L134.029 62.0057C134.059 62.1101 134.127 62.4187 134.211 62.6387L135.475 62.1545ZM134.06 62.0922C134.127 62.245 134.217 62.4678 134.309 62.6597L135.529 62.0725C135.45 61.9075 135.394 61.7616 135.301 61.5499L134.06 62.0922ZM134.309 62.6597C134.39 62.828 134.491 63.042 134.616 63.2455L135.769 62.5354C135.688 62.4043 135.62 62.2611 135.529 62.0725L134.309 62.6597ZM134.601 63.2199C134.808 63.5918 135.043 63.9479 135.302 64.2853L136.375 63.4596C136.157 63.1751 135.959 62.8747 135.784 62.5611L134.601 63.2199ZM135.303 64.2863C135.56 64.6197 135.843 64.9329 136.148 65.2234L137.082 64.2427C136.826 63.9997 136.59 63.7376 136.375 63.4587L135.303 64.2863ZM136.144 65.2199C136.303 65.3734 136.466 65.5108 136.622 65.6365L137.472 64.5818C137.331 64.4684 137.203 64.3597 137.085 64.2462L136.144 65.2199ZM136.625 65.6386C136.79 65.77 136.963 65.8906 137.143 65.9997L137.844 64.8408C137.713 64.7619 137.588 64.6747 137.469 64.5797L136.625 65.6386ZM137.157 66.0077L137.442 66.1707L138.115 64.9959L137.83 64.8328L137.157 66.0077ZM137.211 65.2137L136.829 65.8003L137.963 66.5395L138.346 65.9529L137.211 65.2137ZM137.827 65.648L137.574 65.4383L136.711 66.4821L136.965 66.6918L137.827 65.648Z" fill="#272727" mask="url(#path-73-inside-17_1_3115)"/>
<mask id="path-75-inside-18_1_3115" fill="white">
<path d="M133.166 55.9473C133.057 56.8419 133.242 57.7476 133.694 58.5276L133.166 55.9473Z"/>
</mask>
<path d="M133.166 55.9473C133.057 56.8419 133.242 57.7476 133.694 58.5276L133.166 55.9473Z" fill="white"/>
<path d="M132.494 55.8653C132.367 56.9059 132.583 57.9595 133.108 58.8668L134.28 58.1884C133.902 57.5358 133.747 56.7779 133.838 56.0294L132.494 55.8653Z" fill="#272727" mask="url(#path-75-inside-18_1_3115)"/>
<mask id="path-77-inside-19_1_3115" fill="white">
<path d="M133.488 56.0026C133.46 56.0972 133.439 56.1935 133.423 56.291C133.405 56.3939 133.392 56.4998 133.384 56.6053C133.364 56.8195 133.363 57.035 133.38 57.2494C133.394 57.4678 133.428 57.6845 133.481 57.8969C133.533 58.1157 133.604 58.3295 133.694 58.5356C133.553 58.3555 133.429 58.1634 133.322 57.9616C133.213 57.7586 133.123 57.5463 133.053 57.3271C132.98 57.1036 132.925 56.8745 132.889 56.642C132.87 56.5239 132.856 56.4054 132.846 56.2849C132.836 56.1592 132.833 56.033 132.838 55.9071L132.856 55.5781L133.584 55.7002L133.488 56.0026Z"/>
</mask>
<path d="M133.488 56.0026C133.46 56.0972 133.439 56.1935 133.423 56.291C133.405 56.3939 133.392 56.4998 133.384 56.6053C133.364 56.8195 133.363 57.035 133.38 57.2494C133.394 57.4678 133.428 57.6845 133.481 57.8969C133.533 58.1157 133.604 58.3295 133.694 58.5356C133.553 58.3555 133.429 58.1634 133.322 57.9616C133.213 57.7586 133.123 57.5463 133.053 57.3271C132.98 57.1036 132.925 56.8745 132.889 56.642C132.87 56.5239 132.856 56.4054 132.846 56.2849C132.836 56.1592 132.833 56.033 132.838 55.9071L132.856 55.5781L133.584 55.7002L133.488 56.0026Z" fill="black"/>
<path d="M133.488 56.0026L132.843 55.7973L132.841 55.8045L132.838 55.8117L133.488 56.0026ZM133.423 56.291L134.09 56.409L134.091 56.402L134.093 56.3949L133.423 56.291ZM133.384 56.6053L134.058 56.6669L134.059 56.6578L133.384 56.6053ZM133.38 57.2494L134.055 57.2054L134.055 57.1966L133.38 57.2494ZM133.481 57.8969L134.139 57.7403L134.138 57.7332L133.481 57.8969ZM133.694 58.5356L133.16 58.9521L134.315 58.265L133.694 58.5356ZM133.322 57.9616L133.92 57.6443L133.919 57.6423L133.322 57.9616ZM133.053 57.3271L133.698 57.1206L133.696 57.1156L133.053 57.3271ZM132.889 56.642L133.558 56.5386L133.557 56.5346L132.889 56.642ZM132.846 56.2849L133.521 56.2326L133.521 56.2297L132.846 56.2849ZM132.838 55.9071L132.162 55.8719L132.162 55.8804L132.838 55.9071ZM132.856 55.5781L132.967 54.9104L132.219 54.7849L132.179 55.5429L132.856 55.5781ZM133.584 55.7002L134.229 55.9055L134.466 55.1616L133.696 55.0325L133.584 55.7002ZM132.838 55.8117C132.802 55.9348 132.774 56.0601 132.754 56.187L134.093 56.3949C134.103 56.3269 134.118 56.2596 134.138 56.1935L132.838 55.8117ZM132.757 56.1729C132.734 56.2992 132.719 56.427 132.709 56.5527L134.059 56.6578C134.066 56.5725 134.076 56.4886 134.09 56.409L132.757 56.1729ZM132.71 56.5437C132.687 56.7959 132.685 57.0497 132.705 57.3022L134.055 57.1966C134.041 57.0203 134.042 56.843 134.058 56.6669L132.71 56.5437ZM132.704 57.2934C132.721 57.5522 132.761 57.809 132.824 58.0606L134.138 57.7332C134.095 57.5601 134.067 57.3834 134.055 57.2054L132.704 57.2934ZM132.822 58.0534C132.883 58.3113 132.967 58.5633 133.073 58.8063L134.315 58.265C134.241 58.0957 134.182 57.9201 134.139 57.7403L132.822 58.0534ZM134.228 58.1192C134.112 57.9702 134.009 57.8113 133.92 57.6443L132.724 58.2789C132.849 58.5156 132.995 58.7408 133.16 58.9521L134.228 58.1192ZM133.919 57.6423C133.83 57.4754 133.756 57.3008 133.698 57.1206L132.408 57.5337C132.491 57.7918 132.597 58.0419 132.725 58.2808L133.919 57.6423ZM133.696 57.1156C133.634 56.9274 133.588 56.7344 133.558 56.5386L132.22 56.7454C132.261 57.0146 132.325 57.2799 132.41 57.5387L133.696 57.1156ZM133.557 56.5346C133.541 56.4348 133.529 56.3347 133.521 56.2326L132.171 56.3371C132.182 56.4761 132.198 56.613 132.22 56.7494L133.557 56.5346ZM133.521 56.2297C133.513 56.1314 133.511 56.0325 133.515 55.9337L132.162 55.8804C132.156 56.0336 132.159 56.1871 132.172 56.34L133.521 56.2297ZM133.515 55.9422L133.532 55.6133L132.179 55.5429L132.162 55.8719L133.515 55.9422ZM132.744 56.2458L133.472 56.3679L133.696 55.0325L132.967 54.9104L132.744 56.2458ZM132.939 55.495L132.843 55.7973L134.133 56.2078L134.229 55.9055L132.939 55.495Z" fill="#272727" mask="url(#path-77-inside-19_1_3115)"/>
<path d="M81.1523 124.684C81.1523 124.684 87.1686 130.237 98.3046 130.4C109.867 130.569 118.372 129.337 122.643 127.368" stroke="#272727" stroke-width="0.677041" stroke-miterlimit="10"/>
<path d="M19.4082 127.008C19.4082 127.008 23.0055 131.152 34.6178 130.908C34.6178 130.908 49.3998 131.402 58.7175 126.913" stroke="#272727" stroke-width="0.677041" stroke-miterlimit="10"/>
<mask id="path-81-inside-20_1_3115" fill="white">
<path d="M43.8931 115.294C44.4385 115.666 44.93 116.111 45.3536 116.618C45.7724 117.101 46.158 117.613 46.5075 118.148C46.857 118.679 47.1778 119.228 47.4687 119.792C47.7658 120.352 48.0051 120.941 48.183 121.549C47.9553 120.963 47.6681 120.402 47.3259 119.874C46.9929 119.344 46.6311 118.832 46.2423 118.341C45.8592 117.854 45.4437 117.394 44.9987 116.963C44.5736 116.534 44.0921 116.166 43.5673 115.868C43.5294 115.848 43.4958 115.82 43.4685 115.787C43.4412 115.754 43.4207 115.716 43.4081 115.675C43.3956 115.634 43.3913 115.59 43.3954 115.548C43.3996 115.505 43.4121 115.463 43.4323 115.425C43.4525 115.388 43.4799 115.354 43.5131 115.327C43.5463 115.299 43.5845 115.279 43.6256 115.266C43.6667 115.254 43.7098 115.249 43.7526 115.254C43.7953 115.258 43.8369 115.27 43.8748 115.29L43.8931 115.294Z"/>
</mask>
<path d="M43.8931 115.294C44.4385 115.666 44.93 116.111 45.3536 116.618C45.7724 117.101 46.158 117.613 46.5075 118.148C46.857 118.679 47.1778 119.228 47.4687 119.792C47.7658 120.352 48.0051 120.941 48.183 121.549C47.9553 120.963 47.6681 120.402 47.3259 119.874C46.9929 119.344 46.6311 118.832 46.2423 118.341C45.8592 117.854 45.4437 117.394 44.9987 116.963C44.5736 116.534 44.0921 116.166 43.5673 115.868C43.5294 115.848 43.4958 115.82 43.4685 115.787C43.4412 115.754 43.4207 115.716 43.4081 115.675C43.3956 115.634 43.3913 115.59 43.3954 115.548C43.3996 115.505 43.4121 115.463 43.4323 115.425C43.4525 115.388 43.4799 115.354 43.5131 115.327C43.5463 115.299 43.5845 115.279 43.6256 115.266C43.6667 115.254 43.7098 115.249 43.7526 115.254C43.7953 115.258 43.8369 115.27 43.8748 115.29L43.8931 115.294Z" fill="black"/>
<path d="M43.8931 115.294L44.2745 114.735L44.1581 114.655L44.0196 114.629L43.8931 115.294ZM45.3536 116.618L44.8343 117.052L44.8418 117.061L45.3536 116.618ZM46.5075 118.148L45.9405 118.518L45.9422 118.521L46.5075 118.148ZM47.4687 119.792L46.8667 120.102L46.8706 120.11L47.4687 119.792ZM48.183 121.549L47.5519 121.794L48.8328 121.359L48.183 121.549ZM47.3259 119.874L46.7525 120.234L46.7579 120.242L47.3259 119.874ZM46.2423 118.341L45.7102 118.76L45.7116 118.761L46.2423 118.341ZM44.9987 116.963L44.5179 117.44L44.5277 117.449L44.9987 116.963ZM43.5673 115.868L43.9017 115.279L43.8936 115.275L43.8855 115.27L43.5673 115.868ZM43.8748 115.29L43.5566 115.888L43.6473 115.936L43.7483 115.956L43.8748 115.29ZM43.5116 115.853C44.0056 116.19 44.4507 116.594 44.8344 117.052L45.8729 116.183C45.4092 115.629 44.8714 115.142 44.2745 114.735L43.5116 115.853ZM44.8418 117.061C45.2406 117.521 45.6077 118.008 45.9405 118.518L47.0746 117.778C46.7083 117.217 46.3043 116.681 45.8655 116.174L44.8418 117.061ZM45.9422 118.521C46.2784 119.031 46.587 119.559 46.8667 120.102L48.0706 119.482C47.7687 118.896 47.4357 118.327 47.0729 117.776L45.9422 118.521ZM46.8706 120.11C47.1462 120.629 47.3682 121.175 47.5332 121.739L48.8328 121.359C48.642 120.707 48.3853 120.075 48.0667 119.475L46.8706 120.11ZM48.8141 121.304C48.5696 120.675 48.2613 120.072 47.8939 119.505L46.7579 120.242C47.0749 120.731 47.3409 121.251 47.5519 121.794L48.8141 121.304ZM47.8993 119.514C47.5531 118.963 47.1771 118.431 46.773 117.921L45.7116 118.761C46.0851 119.233 46.4326 119.725 46.7525 120.234L47.8993 119.514ZM46.7743 117.922C46.3724 117.412 45.9365 116.929 45.4696 116.476L44.5277 117.449C44.9509 117.859 45.346 118.297 45.7102 118.76L46.7743 117.922ZM45.4793 116.486C45.0109 116.014 44.4801 115.608 43.9017 115.279L43.2329 116.457C43.7041 116.724 44.1364 117.055 44.518 117.44L45.4793 116.486ZM43.8855 115.27C43.926 115.292 43.9619 115.321 43.9912 115.357L42.9458 116.218C43.0297 116.319 43.1327 116.404 43.2491 116.466L43.8855 115.27ZM43.9912 115.357C44.0204 115.392 44.0423 115.433 44.0557 115.477L42.7606 115.872C42.799 115.998 42.862 116.116 42.9458 116.218L43.9912 115.357ZM44.0557 115.477C44.0691 115.521 44.0737 115.567 44.0693 115.613L42.7215 115.482C42.7088 115.614 42.7221 115.746 42.7606 115.872L44.0557 115.477ZM44.0693 115.613C44.0649 115.659 44.0515 115.703 44.0299 115.744L42.8347 115.107C42.7727 115.224 42.7343 115.351 42.7215 115.482L44.0693 115.613ZM44.0299 115.744C44.0083 115.784 43.979 115.82 43.9435 115.849L43.0827 114.804C42.9809 114.888 42.8966 114.991 42.8347 115.107L44.0299 115.744ZM43.9435 115.849C43.9079 115.879 43.867 115.901 43.8232 115.914L43.428 114.619C43.3019 114.657 43.1846 114.72 43.0827 114.804L43.9435 115.849ZM43.8232 115.914C43.7794 115.927 43.7332 115.932 43.6873 115.927L43.8178 114.58C43.6864 114.567 43.5539 114.58 43.428 114.619L43.8232 115.914ZM43.6873 115.927C43.6414 115.923 43.597 115.91 43.5566 115.888L44.193 114.693C44.0767 114.631 43.9493 114.592 43.8178 114.58L43.6873 115.927ZM43.7483 115.956L43.7666 115.959L44.0196 114.629L44.0013 114.625L43.7483 115.956Z" fill="#272727" mask="url(#path-81-inside-20_1_3115)"/>
<mask id="path-83-inside-21_1_3115" fill="white">
<path d="M100.388 116.392C100.203 116.58 100.028 116.777 99.8639 116.983C99.6951 117.193 99.5299 117.409 99.3752 117.632C99.0617 118.078 98.7749 118.543 98.5163 119.023C98.2543 119.506 98.0194 120.004 97.8127 120.514C97.7029 120.768 97.6177 121.02 97.5237 121.288C97.4298 121.556 97.3581 121.815 97.2753 122.079C97.3314 121.809 97.379 121.535 97.445 121.266C97.511 120.997 97.567 120.726 97.6578 120.46C97.8133 119.925 97.999 119.398 98.2139 118.884C98.4298 118.365 98.6768 117.859 98.9536 117.37C99.0901 117.124 99.2436 116.884 99.389 116.647C99.5478 116.406 99.719 116.174 99.902 115.952L100.388 116.392Z"/>
</mask>
<path d="M100.388 116.392C100.203 116.58 100.028 116.777 99.8639 116.983C99.6951 117.193 99.5299 117.409 99.3752 117.632C99.0617 118.078 98.7749 118.543 98.5163 119.023C98.2543 119.506 98.0194 120.004 97.8127 120.514C97.7029 120.768 97.6177 121.02 97.5237 121.288C97.4298 121.556 97.3581 121.815 97.2753 122.079C97.3314 121.809 97.379 121.535 97.445 121.266C97.511 120.997 97.567 120.726 97.6578 120.46C97.8133 119.925 97.999 119.398 98.2139 118.884C98.4298 118.365 98.6768 117.859 98.9536 117.37C99.0901 117.124 99.2436 116.884 99.389 116.647C99.5478 116.406 99.719 116.174 99.902 115.952L100.388 116.392Z" fill="black"/>
<path d="M100.388 116.392L100.87 116.868L101.366 116.365L100.843 115.891L100.388 116.392ZM99.8639 116.983L100.391 117.408L100.394 117.405L99.8639 116.983ZM99.3752 117.632L99.9291 118.022L99.9317 118.018L99.3752 117.632ZM98.5163 119.023L99.1116 119.345L99.1124 119.344L98.5163 119.023ZM97.8127 120.514L98.4343 120.782L98.4372 120.775L98.4401 120.768L97.8127 120.514ZM97.2753 122.079L96.6125 121.941L97.9212 122.282L97.2753 122.079ZM97.6578 120.46L98.2985 120.679L98.3036 120.664L98.308 120.649L97.6578 120.46ZM98.2139 118.884L98.8387 119.145L98.8391 119.144L98.2139 118.884ZM98.9536 117.37L99.5428 117.704L99.5458 117.698L98.9536 117.37ZM99.389 116.647L98.824 116.274L98.8177 116.283L98.8117 116.293L99.389 116.647ZM99.902 115.952L100.357 115.45L99.8302 114.973L99.379 115.522L99.902 115.952ZM99.9064 115.917C99.7044 116.121 99.5134 116.337 99.3342 116.562L100.394 117.405C100.543 117.218 100.702 117.038 100.87 116.868L99.9064 115.917ZM99.3367 116.559C99.1608 116.777 98.9852 117.006 98.8187 117.247L99.9317 118.018C100.075 117.812 100.229 117.609 100.391 117.408L99.3367 116.559ZM98.8213 117.243C98.4924 117.711 98.1915 118.198 97.9202 118.701L99.1124 119.344C99.3582 118.887 99.6309 118.446 99.9291 118.022L98.8213 117.243ZM97.921 118.7C97.6471 119.206 97.4014 119.726 97.1853 120.259L98.4401 120.768C98.6374 120.282 98.8616 119.807 99.1116 119.345L97.921 118.7ZM97.1911 120.245C97.0696 120.527 96.9749 120.807 96.8849 121.064L98.1626 121.512C98.2604 121.233 98.3363 121.009 98.4343 120.782L97.1911 120.245ZM96.8849 121.064C96.7866 121.344 96.7025 121.643 96.6294 121.876L97.9212 122.282C98.0137 121.987 98.0729 121.768 98.1626 121.512L96.8849 121.064ZM97.9382 122.217C98.0007 121.916 98.04 121.682 98.1026 121.428L96.7875 121.105C96.718 121.388 96.6622 121.702 96.6125 121.941L97.9382 122.217ZM98.1026 121.428C98.1765 121.126 98.2206 120.907 98.2985 120.679L97.0171 120.241C96.9135 120.545 96.8456 120.868 96.7875 121.105L98.1026 121.428ZM98.308 120.649C98.4564 120.138 98.6336 119.636 98.8387 119.145L97.5892 118.623C97.3644 119.161 97.1703 119.711 97.0076 120.271L98.308 120.649ZM98.8391 119.144C99.0444 118.65 99.2795 118.169 99.5428 117.704L98.3643 117.037C98.0741 117.55 97.8151 118.08 97.5888 118.624L98.8391 119.144ZM99.5458 117.698C99.6727 117.469 99.8113 117.253 99.9663 117L98.8117 116.293C98.6758 116.515 98.5075 116.778 98.3613 117.042L99.5458 117.698ZM99.954 117.02C100.1 116.799 100.257 116.586 100.425 116.382L99.379 115.522C99.181 115.763 98.9958 116.014 98.824 116.274L99.954 117.02ZM99.4473 116.453L99.9336 116.894L100.843 115.891L100.357 115.45L99.4473 116.453Z" fill="#272727" mask="url(#path-83-inside-21_1_3115)"/>
<mask id="path-85-inside-22_1_3115" fill="white">
<path d="M60.0301 117.801C59.8388 117.829 59.6455 117.844 59.452 117.846C59.2642 117.85 59.0762 117.845 58.8889 117.83C58.5172 117.803 58.1496 117.733 57.7934 117.623C57.4397 117.514 57.1042 117.353 56.798 117.145L56.5773 116.982C56.5072 116.924 56.4433 116.86 56.3763 116.798L56.2774 116.705L56.1906 116.601L56.019 116.395C56.2727 116.643 56.5653 116.848 56.8852 117.002C57.1971 117.152 57.5297 117.254 57.8718 117.304C58.2111 117.355 58.5549 117.366 58.8968 117.34C59.0666 117.327 59.2355 117.306 59.403 117.276C59.5662 117.249 59.7275 117.212 59.8859 117.165L60.0301 117.801Z"/>
</mask>
<path d="M60.0301 117.801C59.8388 117.829 59.6455 117.844 59.452 117.846C59.2642 117.85 59.0762 117.845 58.8889 117.83C58.5172 117.803 58.1496 117.733 57.7934 117.623C57.4397 117.514 57.1042 117.353 56.798 117.145L56.5773 116.982C56.5072 116.924 56.4433 116.86 56.3763 116.798L56.2774 116.705L56.1906 116.601L56.019 116.395C56.2727 116.643 56.5653 116.848 56.8852 117.002C57.1971 117.152 57.5297 117.254 57.8718 117.304C58.2111 117.355 58.5549 117.366 58.8968 117.34C59.0666 117.327 59.2355 117.306 59.403 117.276C59.5662 117.249 59.7275 117.212 59.8859 117.165L60.0301 117.801Z" fill="black"/>
<path d="M60.0301 117.801L60.1306 118.47L60.8517 118.362L60.6904 117.651L60.0301 117.801ZM59.452 117.846L59.4482 117.168L59.4348 117.169L59.452 117.846ZM58.8889 117.83L58.9431 117.155L58.9391 117.155L58.8889 117.83ZM57.7934 117.623L57.5936 118.27L57.5939 118.27L57.7934 117.623ZM56.798 117.145L56.3955 117.69L56.4065 117.698L56.4177 117.705L56.798 117.145ZM56.5773 116.982L56.1435 117.502L56.1588 117.515L56.1749 117.526L56.5773 116.982ZM56.3763 116.798L55.9144 117.293L55.9167 117.295L56.3763 116.798ZM56.2774 116.705L55.756 117.137L55.7837 117.171L55.8155 117.2L56.2774 116.705ZM56.1906 116.601L56.712 116.169L56.7111 116.168L56.1906 116.601ZM56.019 116.395L56.4929 115.911L55.4986 116.828L56.019 116.395ZM56.8852 117.002L56.5916 117.612L56.5927 117.613L56.8852 117.002ZM57.8718 117.304L57.7724 117.974L57.7728 117.974L57.8718 117.304ZM58.8968 117.34L58.8478 116.664L58.8441 116.665L58.8968 117.34ZM59.403 117.276L59.2941 116.608L59.2831 116.61L59.403 117.276ZM59.8859 117.165L60.5461 117.015L60.3858 116.308L59.6917 116.516L59.8859 117.165ZM59.9296 117.131C59.7703 117.155 59.6094 117.168 59.4482 117.168L59.4558 118.523C59.6817 118.521 59.9072 118.504 60.1306 118.47L59.9296 117.131ZM59.4348 117.169C59.2707 117.173 59.1066 117.168 58.9431 117.155L58.8348 118.505C59.0458 118.522 59.2576 118.528 59.4693 118.522L59.4348 117.169ZM58.9391 117.155C58.6179 117.131 58.3005 117.071 57.9928 116.976L57.5939 118.27C57.9988 118.395 58.4164 118.474 58.8388 118.505L58.9391 117.155ZM57.9931 116.976C57.7036 116.887 57.4289 116.755 57.1782 116.585L56.4177 117.705C56.7795 117.951 57.1758 118.141 57.5936 118.27L57.9931 116.976ZM57.2004 116.601L56.9797 116.438L56.1749 117.526L56.3955 117.69L57.2004 116.601ZM57.0111 116.462C56.958 116.418 56.929 116.387 56.8358 116.301L55.9167 117.295C55.9576 117.333 56.0565 117.429 56.1435 117.502L57.0111 116.462ZM56.8381 116.303L56.7392 116.21L55.8155 117.2L55.9144 117.293L56.8381 116.303ZM56.7987 116.273L56.712 116.169L55.6693 117.033L55.756 117.137L56.7987 116.273ZM56.7111 116.168L56.5395 115.961L55.4986 116.828L55.6702 117.034L56.7111 116.168ZM55.5452 116.878C55.8516 117.178 56.205 117.426 56.5916 117.612L57.1788 116.392C56.9255 116.27 56.6938 116.108 56.4929 115.911L55.5452 116.878ZM56.5927 117.613C56.9657 117.792 57.3633 117.913 57.7724 117.974L57.9712 116.635C57.6961 116.594 57.4286 116.512 57.1777 116.392L56.5927 117.613ZM57.7728 117.974C58.1623 118.032 58.557 118.045 58.9496 118.015L58.8441 116.665C58.5529 116.687 58.2599 116.677 57.9709 116.635L57.7728 117.974ZM58.9459 118.015C59.1394 118.001 59.332 117.977 59.5229 117.942L59.2831 116.61C59.139 116.636 58.9937 116.654 58.8478 116.664L58.9459 118.015ZM59.5119 117.944C59.7038 117.913 59.8936 117.869 60.08 117.813L59.6917 116.516C59.5613 116.555 59.4285 116.586 59.2942 116.608L59.5119 117.944ZM59.2256 117.315L59.3699 117.951L60.6904 117.651L60.5461 117.015L59.2256 117.315Z" fill="#272727" mask="url(#path-85-inside-22_1_3115)"/>
<path d="M49.7109 112.907C49.7039 112.904 49.6969 112.9 49.6899 112.896L49.1226 111.953L49.0091 112.061C49.2625 112.257 49.5321 112.43 49.8151 112.58C49.8305 112.591 49.846 112.603 49.8615 112.615C49.8622 112.615 49.8628 112.616 49.8635 112.616C49.8705 112.621 49.8775 112.626 49.8845 112.632C50.159 112.834 50.4504 113.013 50.7555 113.166C50.7576 113.167 50.7598 113.168 50.7619 113.169C50.7635 113.169 50.7651 113.17 50.7666 113.171M49.7109 112.907C50.0242 113.071 50.3514 113.208 50.6884 113.316L50.7356 113.229L50.7494 113.203L50.7666 113.171M49.7109 112.907L49.7109 112.907L49.7109 112.907ZM50.7666 113.171L50.7457 113.213L50.7314 113.242L50.6937 113.318C50.6979 113.319 50.702 113.32 50.7062 113.322C50.8657 113.38 51.0328 113.419 51.1973 113.458C51.201 113.459 51.2046 113.46 51.2083 113.461C51.2122 113.462 51.2162 113.463 51.2202 113.464C51.3271 113.489 51.438 113.508 51.5466 113.527C51.6126 113.539 51.6777 113.55 51.7406 113.563C51.6806 113.54 51.6184 113.521 51.5556 113.501C51.4505 113.468 51.3437 113.434 51.2437 113.386C51.2421 113.386 51.2405 113.385 51.239 113.384C51.1752 113.354 51.1109 113.327 51.0469 113.3C50.9519 113.26 50.8576 113.22 50.7666 113.171Z" fill="black" stroke="#272727" stroke-width="0.677041"/>
<mask id="path-88-inside-23_1_3115" fill="white">
<path d="M83.5468 114.294C83.6947 114.45 83.8532 114.595 84.0212 114.729C84.1971 114.868 84.3805 114.997 84.5704 115.116C84.953 115.359 85.362 115.559 85.7895 115.711C86.2212 115.869 86.6693 115.979 87.1254 116.038C87.355 116.07 87.5862 116.089 87.8179 116.096C88.0498 116.108 88.2825 116.088 88.5166 116.086C88.2863 116.116 88.0539 116.161 87.8193 116.178C87.5846 116.199 87.3488 116.206 87.1133 116.2C86.6368 116.195 86.1624 116.136 85.6991 116.024C85.2291 115.915 84.7727 115.755 84.3383 115.545C84.1181 115.441 83.904 115.325 83.697 115.196C83.4819 115.064 83.2771 114.916 83.0843 114.752L83.5468 114.294Z"/>
</mask>
<path d="M83.5468 114.294C83.6947 114.45 83.8532 114.595 84.0212 114.729C84.1971 114.868 84.3805 114.997 84.5704 115.116C84.953 115.359 85.362 115.559 85.7895 115.711C86.2212 115.869 86.6693 115.979 87.1254 116.038C87.355 116.07 87.5862 116.089 87.8179 116.096C88.0498 116.108 88.2825 116.088 88.5166 116.086C88.2863 116.116 88.0539 116.161 87.8193 116.178C87.5846 116.199 87.3488 116.206 87.1133 116.2C86.6368 116.195 86.1624 116.136 85.6991 116.024C85.2291 115.915 84.7727 115.755 84.3383 115.545C84.1181 115.441 83.904 115.325 83.697 115.196C83.4819 115.064 83.2771 114.916 83.0843 114.752L83.5468 114.294Z" fill="black"/>
<path d="M83.5468 114.294L84.0379 113.828L83.5616 113.326L83.0702 113.813L83.5468 114.294ZM84.0212 114.729L83.5992 115.259L83.602 115.261L84.0212 114.729ZM84.5704 115.116L84.9341 114.545L84.9296 114.542L84.5704 115.116ZM85.7895 115.711L86.0227 115.075L86.0161 115.073L85.7895 115.711ZM87.1254 116.038L87.2179 115.368L87.2125 115.367L87.1254 116.038ZM87.8179 116.096L87.8515 115.42L87.8378 115.419L87.8179 116.096ZM88.5166 116.086L88.6021 116.758L88.5116 115.409L88.5166 116.086ZM87.8193 116.178L87.7717 115.502L87.7586 115.504L87.8193 116.178ZM87.1133 116.2L87.132 115.523L87.1207 115.523L87.1133 116.2ZM85.6991 116.024L85.8574 115.366L85.8519 115.365L85.6991 116.024ZM84.3383 115.545L84.6327 114.935L84.6272 114.933L84.3383 115.545ZM83.697 115.196L84.0535 114.621L84.0518 114.62L83.697 115.196ZM83.0843 114.752L82.6077 114.272L82.0829 114.792L82.6468 115.269L83.0843 114.752ZM83.0557 114.76C83.2251 114.939 83.4067 115.105 83.5992 115.258L84.4431 114.2C84.2996 114.085 84.1642 113.961 84.0379 113.828L83.0557 114.76ZM83.602 115.261C83.7972 115.415 84.0005 115.558 84.2112 115.69L84.9296 114.542C84.7604 114.436 84.5971 114.321 84.4403 114.197L83.602 115.261ZM84.2067 115.687C84.6323 115.958 85.0873 116.18 85.5628 116.349L86.0161 115.073C85.6367 114.938 85.2737 114.761 84.9341 114.545L84.2067 115.687ZM85.5563 116.347C86.0352 116.522 86.5323 116.644 87.0383 116.71L87.2125 115.367C86.8063 115.314 86.4072 115.216 86.0227 115.075L85.5563 116.347ZM87.0328 116.709C87.2866 116.744 87.542 116.765 87.798 116.773L87.8378 115.419C87.6303 115.413 87.4234 115.396 87.2179 115.368L87.0328 116.709ZM87.7843 116.772C88.0326 116.785 88.3664 116.764 88.5217 116.763L88.5116 115.409C88.1987 115.412 88.0669 115.431 87.8515 115.42L87.7843 116.772ZM88.4312 115.415C88.1327 115.453 87.9876 115.487 87.7717 115.503L87.8669 116.853C88.1202 116.835 88.4398 116.779 88.6021 116.758L88.4312 115.415ZM87.7586 115.504C87.5503 115.522 87.3411 115.529 87.132 115.523L87.0945 116.877C87.3566 116.884 87.6189 116.876 87.88 116.852L87.7586 115.504ZM87.1207 115.523C86.6951 115.518 86.2713 115.466 85.8573 115.366L85.5408 116.683C86.0535 116.806 86.5785 116.871 87.1058 116.877L87.1207 115.523ZM85.8519 115.365C85.4308 115.267 85.0219 115.123 84.6327 114.935L84.0439 116.155C84.5235 116.386 85.0274 116.564 85.5463 116.684L85.8519 115.365ZM84.6272 114.933C84.4302 114.84 84.2386 114.736 84.0535 114.621L83.3405 115.772C83.5693 115.914 83.806 116.042 84.0494 116.157L84.6272 114.933ZM84.0518 114.62C83.8657 114.505 83.6885 114.377 83.5218 114.236L82.6468 115.269C82.8656 115.454 83.098 115.623 83.3421 115.773L84.0518 114.62ZM83.5609 115.233L84.0234 114.775L83.0702 113.813L82.6077 114.272L83.5609 115.233Z" fill="#272727" mask="url(#path-88-inside-23_1_3115)"/>
<mask id="path-90-inside-24_1_3115" fill="white">
<path d="M97.2111 114.396C96.9754 114.504 96.7466 114.596 96.5116 114.691C96.2765 114.786 96.0422 114.87 95.8043 114.95C95.3351 115.117 94.8504 115.236 94.3575 115.306C94.8174 115.133 95.2587 114.914 95.6747 114.652C95.8829 114.526 96.0887 114.393 96.2994 114.257C96.51 114.121 96.702 113.976 96.8908 113.834L97.2111 114.396Z"/>
</mask>
<path d="M97.2111 114.396C96.9754 114.504 96.7466 114.596 96.5116 114.691C96.2765 114.786 96.0422 114.87 95.8043 114.95C95.3351 115.117 94.8504 115.236 94.3575 115.306C94.8174 115.133 95.2587 114.914 95.6747 114.652C95.8829 114.526 96.0887 114.393 96.2994 114.257C96.51 114.121 96.702 113.976 96.8908 113.834L97.2111 114.396Z" fill="black"/>
<path d="M97.2111 114.396L97.4939 115.011L98.1654 114.702L97.7993 114.06L97.2111 114.396ZM95.8043 114.95L95.5868 114.309L95.5777 114.312L95.8043 114.95ZM94.3575 115.306L94.1187 114.673L94.453 115.977L94.3575 115.306ZM95.6747 114.652L95.3243 114.073L95.3143 114.079L95.6747 114.652ZM96.8908 113.834L97.4789 113.499L97.0976 112.83L96.4832 113.294L96.8908 113.834ZM96.9284 113.781C96.7099 113.881 96.4974 113.966 96.2574 114.063L96.7657 115.318C96.9959 115.225 97.241 115.127 97.4939 115.011L96.9284 113.781ZM96.2574 114.063C96.0392 114.152 95.8184 114.231 95.5868 114.309L96.0218 115.591C96.2659 115.509 96.5138 115.42 96.7657 115.318L96.2574 114.063ZM95.5777 114.312C95.1511 114.464 94.7103 114.572 94.2621 114.636L94.453 115.977C94.9906 115.9 95.5192 115.77 96.0309 115.588L95.5777 114.312ZM94.5963 115.94C95.0986 115.751 95.5807 115.511 96.0351 115.225L95.3143 114.079C94.9367 114.317 94.5362 114.516 94.1187 114.673L94.5963 115.94ZM96.0251 115.232C96.2437 115.099 96.4594 114.959 96.6664 114.826L95.9323 113.688C95.718 113.826 95.522 113.953 95.3244 114.073L96.0251 115.232ZM96.6664 114.826C96.9008 114.674 97.1114 114.516 97.2985 114.375L96.4832 113.294C96.2926 113.437 96.1192 113.567 95.9323 113.688L96.6664 114.826ZM96.3027 114.169L96.623 114.731L97.7993 114.06L97.4789 113.499L96.3027 114.169Z" fill="#272727" mask="url(#path-90-inside-24_1_3115)"/>
<path d="M58.1278 51.6011C58.1278 51.6011 56.695 66.9473 63.3255 74.2972" stroke="white" stroke-width="0.677041" stroke-miterlimit="10" stroke-linecap="round"/>
<path d="M66.3843 77.8284C66.3843 77.8284 68.7787 81.247 71.6605 82.4982" stroke="white" stroke-width="0.677041" stroke-miterlimit="10" stroke-linecap="round"/>
<path d="M30.5869 112.709C30.5869 112.709 36.3621 113.245 40.2473 116.876" stroke="white" stroke-width="1.35408" stroke-miterlimit="10" stroke-linecap="round"/>
<path d="M86.1968 117.904C86.2598 118.718 85.1967 121.913 85.1967 121.913" stroke="white" stroke-width="1.35408" stroke-miterlimit="10" stroke-linecap="round"/>
<path d="M105.68 50.0486C105.68 50.0486 107.972 50.0349 108.474 52.2895" stroke="white" stroke-width="0.677041" stroke-miterlimit="10" stroke-linecap="round"/>
<path d="M127.77 12.7071C127.77 12.7071 128.074 18.7449 130.719 23.2908" stroke="white" stroke-width="0.677041" stroke-miterlimit="10" stroke-linecap="round"/>
</svg>
